%TF.GenerationSoftware,KiCad,Pcbnew,8.0.1*%
%TF.CreationDate,2024-10-14T21:16:12+02:00*%
%TF.ProjectId,SMD-Loetstation,534d442d-4c6f-4657-9473-746174696f6e,rev?*%
%TF.SameCoordinates,Original*%
%TF.FileFunction,Legend,Top*%
%TF.FilePolarity,Positive*%
%FSLAX46Y46*%
G04 Gerber Fmt 4.6, Leading zero omitted, Abs format (unit mm)*
G04 Created by KiCad (PCBNEW 8.0.1) date 2024-10-14 21:16:12*
%MOMM*%
%LPD*%
G01*
G04 APERTURE LIST*
%ADD10C,0.100000*%
%ADD11C,0.200000*%
%ADD12C,0.125000*%
%ADD13C,0.150000*%
%ADD14C,0.120000*%
%ADD15C,0.000000*%
G04 APERTURE END LIST*
D10*
X163792269Y-78587590D02*
X163601793Y-78720923D01*
X163792269Y-78816161D02*
X163392269Y-78816161D01*
X163392269Y-78816161D02*
X163392269Y-78663780D01*
X163392269Y-78663780D02*
X163411317Y-78625685D01*
X163411317Y-78625685D02*
X163430364Y-78606638D01*
X163430364Y-78606638D02*
X163468460Y-78587590D01*
X163468460Y-78587590D02*
X163525602Y-78587590D01*
X163525602Y-78587590D02*
X163563698Y-78606638D01*
X163563698Y-78606638D02*
X163582745Y-78625685D01*
X163582745Y-78625685D02*
X163601793Y-78663780D01*
X163601793Y-78663780D02*
X163601793Y-78816161D01*
X163582745Y-78416161D02*
X163582745Y-78282828D01*
X163792269Y-78225685D02*
X163792269Y-78416161D01*
X163792269Y-78416161D02*
X163392269Y-78416161D01*
X163392269Y-78416161D02*
X163392269Y-78225685D01*
X163792269Y-78054256D02*
X163392269Y-78054256D01*
X163392269Y-78054256D02*
X163677983Y-77920923D01*
X163677983Y-77920923D02*
X163392269Y-77787590D01*
X163392269Y-77787590D02*
X163792269Y-77787590D01*
X163392269Y-77520923D02*
X163392269Y-77444732D01*
X163392269Y-77444732D02*
X163411317Y-77406637D01*
X163411317Y-77406637D02*
X163449412Y-77368542D01*
X163449412Y-77368542D02*
X163525602Y-77349494D01*
X163525602Y-77349494D02*
X163658936Y-77349494D01*
X163658936Y-77349494D02*
X163735126Y-77368542D01*
X163735126Y-77368542D02*
X163773222Y-77406637D01*
X163773222Y-77406637D02*
X163792269Y-77444732D01*
X163792269Y-77444732D02*
X163792269Y-77520923D01*
X163792269Y-77520923D02*
X163773222Y-77559018D01*
X163773222Y-77559018D02*
X163735126Y-77597113D01*
X163735126Y-77597113D02*
X163658936Y-77616161D01*
X163658936Y-77616161D02*
X163525602Y-77616161D01*
X163525602Y-77616161D02*
X163449412Y-77597113D01*
X163449412Y-77597113D02*
X163411317Y-77559018D01*
X163411317Y-77559018D02*
X163392269Y-77520923D01*
X163392269Y-77235208D02*
X163792269Y-77101875D01*
X163792269Y-77101875D02*
X163392269Y-76968542D01*
X163582745Y-76835208D02*
X163582745Y-76701875D01*
X163792269Y-76644732D02*
X163792269Y-76835208D01*
X163792269Y-76835208D02*
X163392269Y-76835208D01*
X163392269Y-76835208D02*
X163392269Y-76644732D01*
X163392269Y-76054256D02*
X163677983Y-76054256D01*
X163677983Y-76054256D02*
X163735126Y-76073303D01*
X163735126Y-76073303D02*
X163773222Y-76111399D01*
X163773222Y-76111399D02*
X163792269Y-76168541D01*
X163792269Y-76168541D02*
X163792269Y-76206637D01*
X163563698Y-75806637D02*
X163544650Y-75844732D01*
X163544650Y-75844732D02*
X163525602Y-75863779D01*
X163525602Y-75863779D02*
X163487507Y-75882827D01*
X163487507Y-75882827D02*
X163468460Y-75882827D01*
X163468460Y-75882827D02*
X163430364Y-75863779D01*
X163430364Y-75863779D02*
X163411317Y-75844732D01*
X163411317Y-75844732D02*
X163392269Y-75806637D01*
X163392269Y-75806637D02*
X163392269Y-75730446D01*
X163392269Y-75730446D02*
X163411317Y-75692351D01*
X163411317Y-75692351D02*
X163430364Y-75673303D01*
X163430364Y-75673303D02*
X163468460Y-75654256D01*
X163468460Y-75654256D02*
X163487507Y-75654256D01*
X163487507Y-75654256D02*
X163525602Y-75673303D01*
X163525602Y-75673303D02*
X163544650Y-75692351D01*
X163544650Y-75692351D02*
X163563698Y-75730446D01*
X163563698Y-75730446D02*
X163563698Y-75806637D01*
X163563698Y-75806637D02*
X163582745Y-75844732D01*
X163582745Y-75844732D02*
X163601793Y-75863779D01*
X163601793Y-75863779D02*
X163639888Y-75882827D01*
X163639888Y-75882827D02*
X163716079Y-75882827D01*
X163716079Y-75882827D02*
X163754174Y-75863779D01*
X163754174Y-75863779D02*
X163773222Y-75844732D01*
X163773222Y-75844732D02*
X163792269Y-75806637D01*
X163792269Y-75806637D02*
X163792269Y-75730446D01*
X163792269Y-75730446D02*
X163773222Y-75692351D01*
X163773222Y-75692351D02*
X163754174Y-75673303D01*
X163754174Y-75673303D02*
X163716079Y-75654256D01*
X163716079Y-75654256D02*
X163639888Y-75654256D01*
X163639888Y-75654256D02*
X163601793Y-75673303D01*
X163601793Y-75673303D02*
X163582745Y-75692351D01*
X163582745Y-75692351D02*
X163563698Y-75730446D01*
X163582745Y-75044732D02*
X163582745Y-75178065D01*
X163792269Y-75178065D02*
X163392269Y-75178065D01*
X163392269Y-75178065D02*
X163392269Y-74987589D01*
X163392269Y-74759018D02*
X163392269Y-74682827D01*
X163392269Y-74682827D02*
X163411317Y-74644732D01*
X163411317Y-74644732D02*
X163449412Y-74606637D01*
X163449412Y-74606637D02*
X163525602Y-74587589D01*
X163525602Y-74587589D02*
X163658936Y-74587589D01*
X163658936Y-74587589D02*
X163735126Y-74606637D01*
X163735126Y-74606637D02*
X163773222Y-74644732D01*
X163773222Y-74644732D02*
X163792269Y-74682827D01*
X163792269Y-74682827D02*
X163792269Y-74759018D01*
X163792269Y-74759018D02*
X163773222Y-74797113D01*
X163773222Y-74797113D02*
X163735126Y-74835208D01*
X163735126Y-74835208D02*
X163658936Y-74854256D01*
X163658936Y-74854256D02*
X163525602Y-74854256D01*
X163525602Y-74854256D02*
X163449412Y-74835208D01*
X163449412Y-74835208D02*
X163411317Y-74797113D01*
X163411317Y-74797113D02*
X163392269Y-74759018D01*
X163792269Y-74187589D02*
X163601793Y-74320922D01*
X163792269Y-74416160D02*
X163392269Y-74416160D01*
X163392269Y-74416160D02*
X163392269Y-74263779D01*
X163392269Y-74263779D02*
X163411317Y-74225684D01*
X163411317Y-74225684D02*
X163430364Y-74206637D01*
X163430364Y-74206637D02*
X163468460Y-74187589D01*
X163468460Y-74187589D02*
X163525602Y-74187589D01*
X163525602Y-74187589D02*
X163563698Y-74206637D01*
X163563698Y-74206637D02*
X163582745Y-74225684D01*
X163582745Y-74225684D02*
X163601793Y-74263779D01*
X163601793Y-74263779D02*
X163601793Y-74416160D01*
X164436247Y-78559018D02*
X164036247Y-78559018D01*
X164036247Y-78559018D02*
X164036247Y-78406637D01*
X164036247Y-78406637D02*
X164055295Y-78368542D01*
X164055295Y-78368542D02*
X164074342Y-78349495D01*
X164074342Y-78349495D02*
X164112438Y-78330447D01*
X164112438Y-78330447D02*
X164169580Y-78330447D01*
X164169580Y-78330447D02*
X164207676Y-78349495D01*
X164207676Y-78349495D02*
X164226723Y-78368542D01*
X164226723Y-78368542D02*
X164245771Y-78406637D01*
X164245771Y-78406637D02*
X164245771Y-78559018D01*
X164436247Y-77930447D02*
X164245771Y-78063780D01*
X164436247Y-78159018D02*
X164036247Y-78159018D01*
X164036247Y-78159018D02*
X164036247Y-78006637D01*
X164036247Y-78006637D02*
X164055295Y-77968542D01*
X164055295Y-77968542D02*
X164074342Y-77949495D01*
X164074342Y-77949495D02*
X164112438Y-77930447D01*
X164112438Y-77930447D02*
X164169580Y-77930447D01*
X164169580Y-77930447D02*
X164207676Y-77949495D01*
X164207676Y-77949495D02*
X164226723Y-77968542D01*
X164226723Y-77968542D02*
X164245771Y-78006637D01*
X164245771Y-78006637D02*
X164245771Y-78159018D01*
X164036247Y-77682828D02*
X164036247Y-77606637D01*
X164036247Y-77606637D02*
X164055295Y-77568542D01*
X164055295Y-77568542D02*
X164093390Y-77530447D01*
X164093390Y-77530447D02*
X164169580Y-77511399D01*
X164169580Y-77511399D02*
X164302914Y-77511399D01*
X164302914Y-77511399D02*
X164379104Y-77530447D01*
X164379104Y-77530447D02*
X164417200Y-77568542D01*
X164417200Y-77568542D02*
X164436247Y-77606637D01*
X164436247Y-77606637D02*
X164436247Y-77682828D01*
X164436247Y-77682828D02*
X164417200Y-77720923D01*
X164417200Y-77720923D02*
X164379104Y-77759018D01*
X164379104Y-77759018D02*
X164302914Y-77778066D01*
X164302914Y-77778066D02*
X164169580Y-77778066D01*
X164169580Y-77778066D02*
X164093390Y-77759018D01*
X164093390Y-77759018D02*
X164055295Y-77720923D01*
X164055295Y-77720923D02*
X164036247Y-77682828D01*
X164055295Y-77130447D02*
X164036247Y-77168542D01*
X164036247Y-77168542D02*
X164036247Y-77225685D01*
X164036247Y-77225685D02*
X164055295Y-77282828D01*
X164055295Y-77282828D02*
X164093390Y-77320923D01*
X164093390Y-77320923D02*
X164131485Y-77339970D01*
X164131485Y-77339970D02*
X164207676Y-77359018D01*
X164207676Y-77359018D02*
X164264819Y-77359018D01*
X164264819Y-77359018D02*
X164341009Y-77339970D01*
X164341009Y-77339970D02*
X164379104Y-77320923D01*
X164379104Y-77320923D02*
X164417200Y-77282828D01*
X164417200Y-77282828D02*
X164436247Y-77225685D01*
X164436247Y-77225685D02*
X164436247Y-77187589D01*
X164436247Y-77187589D02*
X164417200Y-77130447D01*
X164417200Y-77130447D02*
X164398152Y-77111399D01*
X164398152Y-77111399D02*
X164264819Y-77111399D01*
X164264819Y-77111399D02*
X164264819Y-77187589D01*
X164436247Y-76711399D02*
X164245771Y-76844732D01*
X164436247Y-76939970D02*
X164036247Y-76939970D01*
X164036247Y-76939970D02*
X164036247Y-76787589D01*
X164036247Y-76787589D02*
X164055295Y-76749494D01*
X164055295Y-76749494D02*
X164074342Y-76730447D01*
X164074342Y-76730447D02*
X164112438Y-76711399D01*
X164112438Y-76711399D02*
X164169580Y-76711399D01*
X164169580Y-76711399D02*
X164207676Y-76730447D01*
X164207676Y-76730447D02*
X164226723Y-76749494D01*
X164226723Y-76749494D02*
X164245771Y-76787589D01*
X164245771Y-76787589D02*
X164245771Y-76939970D01*
X164321961Y-76559018D02*
X164321961Y-76368542D01*
X164436247Y-76597113D02*
X164036247Y-76463780D01*
X164036247Y-76463780D02*
X164436247Y-76330447D01*
X164436247Y-76197113D02*
X164036247Y-76197113D01*
X164036247Y-76197113D02*
X164321961Y-76063780D01*
X164321961Y-76063780D02*
X164036247Y-75930447D01*
X164036247Y-75930447D02*
X164436247Y-75930447D01*
X164436247Y-75739970D02*
X164036247Y-75739970D01*
X164036247Y-75739970D02*
X164321961Y-75606637D01*
X164321961Y-75606637D02*
X164036247Y-75473304D01*
X164036247Y-75473304D02*
X164436247Y-75473304D01*
X164436247Y-75282827D02*
X164036247Y-75282827D01*
X164436247Y-75092351D02*
X164036247Y-75092351D01*
X164036247Y-75092351D02*
X164436247Y-74863780D01*
X164436247Y-74863780D02*
X164036247Y-74863780D01*
X164055295Y-74463780D02*
X164036247Y-74501875D01*
X164036247Y-74501875D02*
X164036247Y-74559018D01*
X164036247Y-74559018D02*
X164055295Y-74616161D01*
X164055295Y-74616161D02*
X164093390Y-74654256D01*
X164093390Y-74654256D02*
X164131485Y-74673303D01*
X164131485Y-74673303D02*
X164207676Y-74692351D01*
X164207676Y-74692351D02*
X164264819Y-74692351D01*
X164264819Y-74692351D02*
X164341009Y-74673303D01*
X164341009Y-74673303D02*
X164379104Y-74654256D01*
X164379104Y-74654256D02*
X164417200Y-74616161D01*
X164417200Y-74616161D02*
X164436247Y-74559018D01*
X164436247Y-74559018D02*
X164436247Y-74520922D01*
X164436247Y-74520922D02*
X164417200Y-74463780D01*
X164417200Y-74463780D02*
X164398152Y-74444732D01*
X164398152Y-74444732D02*
X164264819Y-74444732D01*
X164264819Y-74444732D02*
X164264819Y-74520922D01*
D11*
X157918504Y-75398301D02*
X157918504Y-74941158D01*
X157918504Y-75169730D02*
X158718504Y-75169730D01*
X158718504Y-75169730D02*
X158604219Y-75093539D01*
X158604219Y-75093539D02*
X158528028Y-75017349D01*
X158528028Y-75017349D02*
X158489933Y-74941158D01*
X152950654Y-73050295D02*
X152950654Y-72250295D01*
X153788749Y-72974104D02*
X153750653Y-73012200D01*
X153750653Y-73012200D02*
X153636368Y-73050295D01*
X153636368Y-73050295D02*
X153560177Y-73050295D01*
X153560177Y-73050295D02*
X153445891Y-73012200D01*
X153445891Y-73012200D02*
X153369701Y-72936009D01*
X153369701Y-72936009D02*
X153331606Y-72859819D01*
X153331606Y-72859819D02*
X153293510Y-72707438D01*
X153293510Y-72707438D02*
X153293510Y-72593152D01*
X153293510Y-72593152D02*
X153331606Y-72440771D01*
X153331606Y-72440771D02*
X153369701Y-72364580D01*
X153369701Y-72364580D02*
X153445891Y-72288390D01*
X153445891Y-72288390D02*
X153560177Y-72250295D01*
X153560177Y-72250295D02*
X153636368Y-72250295D01*
X153636368Y-72250295D02*
X153750653Y-72288390D01*
X153750653Y-72288390D02*
X153788749Y-72326485D01*
X154093510Y-73012200D02*
X154207796Y-73050295D01*
X154207796Y-73050295D02*
X154398272Y-73050295D01*
X154398272Y-73050295D02*
X154474463Y-73012200D01*
X154474463Y-73012200D02*
X154512558Y-72974104D01*
X154512558Y-72974104D02*
X154550653Y-72897914D01*
X154550653Y-72897914D02*
X154550653Y-72821723D01*
X154550653Y-72821723D02*
X154512558Y-72745533D01*
X154512558Y-72745533D02*
X154474463Y-72707438D01*
X154474463Y-72707438D02*
X154398272Y-72669342D01*
X154398272Y-72669342D02*
X154245891Y-72631247D01*
X154245891Y-72631247D02*
X154169701Y-72593152D01*
X154169701Y-72593152D02*
X154131606Y-72555057D01*
X154131606Y-72555057D02*
X154093510Y-72478866D01*
X154093510Y-72478866D02*
X154093510Y-72402676D01*
X154093510Y-72402676D02*
X154131606Y-72326485D01*
X154131606Y-72326485D02*
X154169701Y-72288390D01*
X154169701Y-72288390D02*
X154245891Y-72250295D01*
X154245891Y-72250295D02*
X154436368Y-72250295D01*
X154436368Y-72250295D02*
X154550653Y-72288390D01*
X154893511Y-73050295D02*
X154893511Y-72250295D01*
X154893511Y-72250295D02*
X155198273Y-72250295D01*
X155198273Y-72250295D02*
X155274463Y-72288390D01*
X155274463Y-72288390D02*
X155312558Y-72326485D01*
X155312558Y-72326485D02*
X155350654Y-72402676D01*
X155350654Y-72402676D02*
X155350654Y-72516961D01*
X155350654Y-72516961D02*
X155312558Y-72593152D01*
X155312558Y-72593152D02*
X155274463Y-72631247D01*
X155274463Y-72631247D02*
X155198273Y-72669342D01*
X155198273Y-72669342D02*
X154893511Y-72669342D01*
X173889140Y-96456047D02*
X173089140Y-96456047D01*
X173089140Y-96456047D02*
X173089140Y-96151285D01*
X173089140Y-96151285D02*
X173127235Y-96075095D01*
X173127235Y-96075095D02*
X173165330Y-96037000D01*
X173165330Y-96037000D02*
X173241521Y-95998904D01*
X173241521Y-95998904D02*
X173355806Y-95998904D01*
X173355806Y-95998904D02*
X173431997Y-96037000D01*
X173431997Y-96037000D02*
X173470092Y-96075095D01*
X173470092Y-96075095D02*
X173508187Y-96151285D01*
X173508187Y-96151285D02*
X173508187Y-96456047D01*
X173470092Y-95389381D02*
X173508187Y-95275095D01*
X173508187Y-95275095D02*
X173546283Y-95237000D01*
X173546283Y-95237000D02*
X173622473Y-95198904D01*
X173622473Y-95198904D02*
X173736759Y-95198904D01*
X173736759Y-95198904D02*
X173812949Y-95237000D01*
X173812949Y-95237000D02*
X173851045Y-95275095D01*
X173851045Y-95275095D02*
X173889140Y-95351285D01*
X173889140Y-95351285D02*
X173889140Y-95656047D01*
X173889140Y-95656047D02*
X173089140Y-95656047D01*
X173089140Y-95656047D02*
X173089140Y-95389381D01*
X173089140Y-95389381D02*
X173127235Y-95313190D01*
X173127235Y-95313190D02*
X173165330Y-95275095D01*
X173165330Y-95275095D02*
X173241521Y-95237000D01*
X173241521Y-95237000D02*
X173317711Y-95237000D01*
X173317711Y-95237000D02*
X173393902Y-95275095D01*
X173393902Y-95275095D02*
X173431997Y-95313190D01*
X173431997Y-95313190D02*
X173470092Y-95389381D01*
X173470092Y-95389381D02*
X173470092Y-95656047D01*
X173127235Y-93827476D02*
X173089140Y-93903666D01*
X173089140Y-93903666D02*
X173089140Y-94017952D01*
X173089140Y-94017952D02*
X173127235Y-94132238D01*
X173127235Y-94132238D02*
X173203425Y-94208428D01*
X173203425Y-94208428D02*
X173279616Y-94246523D01*
X173279616Y-94246523D02*
X173431997Y-94284619D01*
X173431997Y-94284619D02*
X173546283Y-94284619D01*
X173546283Y-94284619D02*
X173698664Y-94246523D01*
X173698664Y-94246523D02*
X173774854Y-94208428D01*
X173774854Y-94208428D02*
X173851045Y-94132238D01*
X173851045Y-94132238D02*
X173889140Y-94017952D01*
X173889140Y-94017952D02*
X173889140Y-93941761D01*
X173889140Y-93941761D02*
X173851045Y-93827476D01*
X173851045Y-93827476D02*
X173812949Y-93789380D01*
X173812949Y-93789380D02*
X173546283Y-93789380D01*
X173546283Y-93789380D02*
X173546283Y-93941761D01*
X173889140Y-93446523D02*
X173089140Y-93446523D01*
X173089140Y-93446523D02*
X173889140Y-92989380D01*
X173889140Y-92989380D02*
X173089140Y-92989380D01*
X173889140Y-92608428D02*
X173089140Y-92608428D01*
X173089140Y-92608428D02*
X173089140Y-92417952D01*
X173089140Y-92417952D02*
X173127235Y-92303666D01*
X173127235Y-92303666D02*
X173203425Y-92227476D01*
X173203425Y-92227476D02*
X173279616Y-92189381D01*
X173279616Y-92189381D02*
X173431997Y-92151285D01*
X173431997Y-92151285D02*
X173546283Y-92151285D01*
X173546283Y-92151285D02*
X173698664Y-92189381D01*
X173698664Y-92189381D02*
X173774854Y-92227476D01*
X173774854Y-92227476D02*
X173851045Y-92303666D01*
X173851045Y-92303666D02*
X173889140Y-92417952D01*
X173889140Y-92417952D02*
X173889140Y-92608428D01*
X173660568Y-90627476D02*
X173660568Y-90246523D01*
X173889140Y-90703666D02*
X173089140Y-90436999D01*
X173089140Y-90436999D02*
X173889140Y-90170333D01*
X173127235Y-88875095D02*
X173089140Y-88951285D01*
X173089140Y-88951285D02*
X173089140Y-89065571D01*
X173089140Y-89065571D02*
X173127235Y-89179857D01*
X173127235Y-89179857D02*
X173203425Y-89256047D01*
X173203425Y-89256047D02*
X173279616Y-89294142D01*
X173279616Y-89294142D02*
X173431997Y-89332238D01*
X173431997Y-89332238D02*
X173546283Y-89332238D01*
X173546283Y-89332238D02*
X173698664Y-89294142D01*
X173698664Y-89294142D02*
X173774854Y-89256047D01*
X173774854Y-89256047D02*
X173851045Y-89179857D01*
X173851045Y-89179857D02*
X173889140Y-89065571D01*
X173889140Y-89065571D02*
X173889140Y-88989380D01*
X173889140Y-88989380D02*
X173851045Y-88875095D01*
X173851045Y-88875095D02*
X173812949Y-88836999D01*
X173812949Y-88836999D02*
X173546283Y-88836999D01*
X173546283Y-88836999D02*
X173546283Y-88989380D01*
X173889140Y-88494142D02*
X173089140Y-88494142D01*
X173089140Y-88494142D02*
X173889140Y-88036999D01*
X173889140Y-88036999D02*
X173089140Y-88036999D01*
X173889140Y-87656047D02*
X173089140Y-87656047D01*
X173089140Y-87656047D02*
X173089140Y-87465571D01*
X173089140Y-87465571D02*
X173127235Y-87351285D01*
X173127235Y-87351285D02*
X173203425Y-87275095D01*
X173203425Y-87275095D02*
X173279616Y-87237000D01*
X173279616Y-87237000D02*
X173431997Y-87198904D01*
X173431997Y-87198904D02*
X173546283Y-87198904D01*
X173546283Y-87198904D02*
X173698664Y-87237000D01*
X173698664Y-87237000D02*
X173774854Y-87275095D01*
X173774854Y-87275095D02*
X173851045Y-87351285D01*
X173851045Y-87351285D02*
X173889140Y-87465571D01*
X173889140Y-87465571D02*
X173889140Y-87656047D01*
X173470092Y-85370333D02*
X173508187Y-85256047D01*
X173508187Y-85256047D02*
X173546283Y-85217952D01*
X173546283Y-85217952D02*
X173622473Y-85179856D01*
X173622473Y-85179856D02*
X173736759Y-85179856D01*
X173736759Y-85179856D02*
X173812949Y-85217952D01*
X173812949Y-85217952D02*
X173851045Y-85256047D01*
X173851045Y-85256047D02*
X173889140Y-85332237D01*
X173889140Y-85332237D02*
X173889140Y-85636999D01*
X173889140Y-85636999D02*
X173089140Y-85636999D01*
X173089140Y-85636999D02*
X173089140Y-85370333D01*
X173089140Y-85370333D02*
X173127235Y-85294142D01*
X173127235Y-85294142D02*
X173165330Y-85256047D01*
X173165330Y-85256047D02*
X173241521Y-85217952D01*
X173241521Y-85217952D02*
X173317711Y-85217952D01*
X173317711Y-85217952D02*
X173393902Y-85256047D01*
X173393902Y-85256047D02*
X173431997Y-85294142D01*
X173431997Y-85294142D02*
X173470092Y-85370333D01*
X173470092Y-85370333D02*
X173470092Y-85636999D01*
X175177095Y-95465570D02*
X174796142Y-95732237D01*
X175177095Y-95922713D02*
X174377095Y-95922713D01*
X174377095Y-95922713D02*
X174377095Y-95617951D01*
X174377095Y-95617951D02*
X174415190Y-95541761D01*
X174415190Y-95541761D02*
X174453285Y-95503666D01*
X174453285Y-95503666D02*
X174529476Y-95465570D01*
X174529476Y-95465570D02*
X174643761Y-95465570D01*
X174643761Y-95465570D02*
X174719952Y-95503666D01*
X174719952Y-95503666D02*
X174758047Y-95541761D01*
X174758047Y-95541761D02*
X174796142Y-95617951D01*
X174796142Y-95617951D02*
X174796142Y-95922713D01*
X174377095Y-94970332D02*
X174377095Y-94817951D01*
X174377095Y-94817951D02*
X174415190Y-94741761D01*
X174415190Y-94741761D02*
X174491380Y-94665570D01*
X174491380Y-94665570D02*
X174643761Y-94627475D01*
X174643761Y-94627475D02*
X174910428Y-94627475D01*
X174910428Y-94627475D02*
X175062809Y-94665570D01*
X175062809Y-94665570D02*
X175139000Y-94741761D01*
X175139000Y-94741761D02*
X175177095Y-94817951D01*
X175177095Y-94817951D02*
X175177095Y-94970332D01*
X175177095Y-94970332D02*
X175139000Y-95046523D01*
X175139000Y-95046523D02*
X175062809Y-95122713D01*
X175062809Y-95122713D02*
X174910428Y-95160809D01*
X174910428Y-95160809D02*
X174643761Y-95160809D01*
X174643761Y-95160809D02*
X174491380Y-95122713D01*
X174491380Y-95122713D02*
X174415190Y-95046523D01*
X174415190Y-95046523D02*
X174377095Y-94970332D01*
X174377095Y-94398904D02*
X174377095Y-93941761D01*
X175177095Y-94170333D02*
X174377095Y-94170333D01*
X174948523Y-93713190D02*
X174948523Y-93332237D01*
X175177095Y-93789380D02*
X174377095Y-93522713D01*
X174377095Y-93522713D02*
X175177095Y-93256047D01*
X175177095Y-92532237D02*
X174796142Y-92798904D01*
X175177095Y-92989380D02*
X174377095Y-92989380D01*
X174377095Y-92989380D02*
X174377095Y-92684618D01*
X174377095Y-92684618D02*
X174415190Y-92608428D01*
X174415190Y-92608428D02*
X174453285Y-92570333D01*
X174453285Y-92570333D02*
X174529476Y-92532237D01*
X174529476Y-92532237D02*
X174643761Y-92532237D01*
X174643761Y-92532237D02*
X174719952Y-92570333D01*
X174719952Y-92570333D02*
X174758047Y-92608428D01*
X174758047Y-92608428D02*
X174796142Y-92684618D01*
X174796142Y-92684618D02*
X174796142Y-92989380D01*
X174796142Y-92036999D02*
X175177095Y-92036999D01*
X174377095Y-92303666D02*
X174796142Y-92036999D01*
X174796142Y-92036999D02*
X174377095Y-91770333D01*
X174758047Y-90894142D02*
X174758047Y-90627476D01*
X175177095Y-90513190D02*
X175177095Y-90894142D01*
X175177095Y-90894142D02*
X174377095Y-90894142D01*
X174377095Y-90894142D02*
X174377095Y-90513190D01*
X175177095Y-90170332D02*
X174377095Y-90170332D01*
X174377095Y-90170332D02*
X175177095Y-89713189D01*
X175177095Y-89713189D02*
X174377095Y-89713189D01*
X175100904Y-88875094D02*
X175139000Y-88913190D01*
X175139000Y-88913190D02*
X175177095Y-89027475D01*
X175177095Y-89027475D02*
X175177095Y-89103666D01*
X175177095Y-89103666D02*
X175139000Y-89217952D01*
X175139000Y-89217952D02*
X175062809Y-89294142D01*
X175062809Y-89294142D02*
X174986619Y-89332237D01*
X174986619Y-89332237D02*
X174834238Y-89370333D01*
X174834238Y-89370333D02*
X174719952Y-89370333D01*
X174719952Y-89370333D02*
X174567571Y-89332237D01*
X174567571Y-89332237D02*
X174491380Y-89294142D01*
X174491380Y-89294142D02*
X174415190Y-89217952D01*
X174415190Y-89217952D02*
X174377095Y-89103666D01*
X174377095Y-89103666D02*
X174377095Y-89027475D01*
X174377095Y-89027475D02*
X174415190Y-88913190D01*
X174415190Y-88913190D02*
X174453285Y-88875094D01*
X174377095Y-88379856D02*
X174377095Y-88227475D01*
X174377095Y-88227475D02*
X174415190Y-88151285D01*
X174415190Y-88151285D02*
X174491380Y-88075094D01*
X174491380Y-88075094D02*
X174643761Y-88036999D01*
X174643761Y-88036999D02*
X174910428Y-88036999D01*
X174910428Y-88036999D02*
X175062809Y-88075094D01*
X175062809Y-88075094D02*
X175139000Y-88151285D01*
X175139000Y-88151285D02*
X175177095Y-88227475D01*
X175177095Y-88227475D02*
X175177095Y-88379856D01*
X175177095Y-88379856D02*
X175139000Y-88456047D01*
X175139000Y-88456047D02*
X175062809Y-88532237D01*
X175062809Y-88532237D02*
X174910428Y-88570333D01*
X174910428Y-88570333D02*
X174643761Y-88570333D01*
X174643761Y-88570333D02*
X174491380Y-88532237D01*
X174491380Y-88532237D02*
X174415190Y-88456047D01*
X174415190Y-88456047D02*
X174377095Y-88379856D01*
X175177095Y-87694142D02*
X174377095Y-87694142D01*
X174377095Y-87694142D02*
X174377095Y-87503666D01*
X174377095Y-87503666D02*
X174415190Y-87389380D01*
X174415190Y-87389380D02*
X174491380Y-87313190D01*
X174491380Y-87313190D02*
X174567571Y-87275095D01*
X174567571Y-87275095D02*
X174719952Y-87236999D01*
X174719952Y-87236999D02*
X174834238Y-87236999D01*
X174834238Y-87236999D02*
X174986619Y-87275095D01*
X174986619Y-87275095D02*
X175062809Y-87313190D01*
X175062809Y-87313190D02*
X175139000Y-87389380D01*
X175139000Y-87389380D02*
X175177095Y-87503666D01*
X175177095Y-87503666D02*
X175177095Y-87694142D01*
X174758047Y-86894142D02*
X174758047Y-86627476D01*
X175177095Y-86513190D02*
X175177095Y-86894142D01*
X175177095Y-86894142D02*
X174377095Y-86894142D01*
X174377095Y-86894142D02*
X174377095Y-86513190D01*
X175177095Y-85713189D02*
X174796142Y-85979856D01*
X175177095Y-86170332D02*
X174377095Y-86170332D01*
X174377095Y-86170332D02*
X174377095Y-85865570D01*
X174377095Y-85865570D02*
X174415190Y-85789380D01*
X174415190Y-85789380D02*
X174453285Y-85751285D01*
X174453285Y-85751285D02*
X174529476Y-85713189D01*
X174529476Y-85713189D02*
X174643761Y-85713189D01*
X174643761Y-85713189D02*
X174719952Y-85751285D01*
X174719952Y-85751285D02*
X174758047Y-85789380D01*
X174758047Y-85789380D02*
X174796142Y-85865570D01*
X174796142Y-85865570D02*
X174796142Y-86170332D01*
D10*
X155486469Y-103657390D02*
X155295993Y-103790723D01*
X155486469Y-103885961D02*
X155086469Y-103885961D01*
X155086469Y-103885961D02*
X155086469Y-103733580D01*
X155086469Y-103733580D02*
X155105517Y-103695485D01*
X155105517Y-103695485D02*
X155124564Y-103676438D01*
X155124564Y-103676438D02*
X155162660Y-103657390D01*
X155162660Y-103657390D02*
X155219802Y-103657390D01*
X155219802Y-103657390D02*
X155257898Y-103676438D01*
X155257898Y-103676438D02*
X155276945Y-103695485D01*
X155276945Y-103695485D02*
X155295993Y-103733580D01*
X155295993Y-103733580D02*
X155295993Y-103885961D01*
X155276945Y-103485961D02*
X155276945Y-103352628D01*
X155486469Y-103295485D02*
X155486469Y-103485961D01*
X155486469Y-103485961D02*
X155086469Y-103485961D01*
X155086469Y-103485961D02*
X155086469Y-103295485D01*
X155486469Y-103124056D02*
X155086469Y-103124056D01*
X155086469Y-103124056D02*
X155372183Y-102990723D01*
X155372183Y-102990723D02*
X155086469Y-102857390D01*
X155086469Y-102857390D02*
X155486469Y-102857390D01*
X155086469Y-102590723D02*
X155086469Y-102514532D01*
X155086469Y-102514532D02*
X155105517Y-102476437D01*
X155105517Y-102476437D02*
X155143612Y-102438342D01*
X155143612Y-102438342D02*
X155219802Y-102419294D01*
X155219802Y-102419294D02*
X155353136Y-102419294D01*
X155353136Y-102419294D02*
X155429326Y-102438342D01*
X155429326Y-102438342D02*
X155467422Y-102476437D01*
X155467422Y-102476437D02*
X155486469Y-102514532D01*
X155486469Y-102514532D02*
X155486469Y-102590723D01*
X155486469Y-102590723D02*
X155467422Y-102628818D01*
X155467422Y-102628818D02*
X155429326Y-102666913D01*
X155429326Y-102666913D02*
X155353136Y-102685961D01*
X155353136Y-102685961D02*
X155219802Y-102685961D01*
X155219802Y-102685961D02*
X155143612Y-102666913D01*
X155143612Y-102666913D02*
X155105517Y-102628818D01*
X155105517Y-102628818D02*
X155086469Y-102590723D01*
X155086469Y-102305008D02*
X155486469Y-102171675D01*
X155486469Y-102171675D02*
X155086469Y-102038342D01*
X155276945Y-101905008D02*
X155276945Y-101771675D01*
X155486469Y-101714532D02*
X155486469Y-101905008D01*
X155486469Y-101905008D02*
X155086469Y-101905008D01*
X155086469Y-101905008D02*
X155086469Y-101714532D01*
X155086469Y-101124056D02*
X155372183Y-101124056D01*
X155372183Y-101124056D02*
X155429326Y-101143103D01*
X155429326Y-101143103D02*
X155467422Y-101181199D01*
X155467422Y-101181199D02*
X155486469Y-101238341D01*
X155486469Y-101238341D02*
X155486469Y-101276437D01*
X155486469Y-100914532D02*
X155486469Y-100838341D01*
X155486469Y-100838341D02*
X155467422Y-100800246D01*
X155467422Y-100800246D02*
X155448374Y-100781198D01*
X155448374Y-100781198D02*
X155391231Y-100743103D01*
X155391231Y-100743103D02*
X155315041Y-100724056D01*
X155315041Y-100724056D02*
X155162660Y-100724056D01*
X155162660Y-100724056D02*
X155124564Y-100743103D01*
X155124564Y-100743103D02*
X155105517Y-100762151D01*
X155105517Y-100762151D02*
X155086469Y-100800246D01*
X155086469Y-100800246D02*
X155086469Y-100876437D01*
X155086469Y-100876437D02*
X155105517Y-100914532D01*
X155105517Y-100914532D02*
X155124564Y-100933579D01*
X155124564Y-100933579D02*
X155162660Y-100952627D01*
X155162660Y-100952627D02*
X155257898Y-100952627D01*
X155257898Y-100952627D02*
X155295993Y-100933579D01*
X155295993Y-100933579D02*
X155315041Y-100914532D01*
X155315041Y-100914532D02*
X155334088Y-100876437D01*
X155334088Y-100876437D02*
X155334088Y-100800246D01*
X155334088Y-100800246D02*
X155315041Y-100762151D01*
X155315041Y-100762151D02*
X155295993Y-100743103D01*
X155295993Y-100743103D02*
X155257898Y-100724056D01*
X155276945Y-100114532D02*
X155276945Y-100247865D01*
X155486469Y-100247865D02*
X155086469Y-100247865D01*
X155086469Y-100247865D02*
X155086469Y-100057389D01*
X155086469Y-99828818D02*
X155086469Y-99752627D01*
X155086469Y-99752627D02*
X155105517Y-99714532D01*
X155105517Y-99714532D02*
X155143612Y-99676437D01*
X155143612Y-99676437D02*
X155219802Y-99657389D01*
X155219802Y-99657389D02*
X155353136Y-99657389D01*
X155353136Y-99657389D02*
X155429326Y-99676437D01*
X155429326Y-99676437D02*
X155467422Y-99714532D01*
X155467422Y-99714532D02*
X155486469Y-99752627D01*
X155486469Y-99752627D02*
X155486469Y-99828818D01*
X155486469Y-99828818D02*
X155467422Y-99866913D01*
X155467422Y-99866913D02*
X155429326Y-99905008D01*
X155429326Y-99905008D02*
X155353136Y-99924056D01*
X155353136Y-99924056D02*
X155219802Y-99924056D01*
X155219802Y-99924056D02*
X155143612Y-99905008D01*
X155143612Y-99905008D02*
X155105517Y-99866913D01*
X155105517Y-99866913D02*
X155086469Y-99828818D01*
X155486469Y-99257389D02*
X155295993Y-99390722D01*
X155486469Y-99485960D02*
X155086469Y-99485960D01*
X155086469Y-99485960D02*
X155086469Y-99333579D01*
X155086469Y-99333579D02*
X155105517Y-99295484D01*
X155105517Y-99295484D02*
X155124564Y-99276437D01*
X155124564Y-99276437D02*
X155162660Y-99257389D01*
X155162660Y-99257389D02*
X155219802Y-99257389D01*
X155219802Y-99257389D02*
X155257898Y-99276437D01*
X155257898Y-99276437D02*
X155276945Y-99295484D01*
X155276945Y-99295484D02*
X155295993Y-99333579D01*
X155295993Y-99333579D02*
X155295993Y-99485960D01*
X156130447Y-103628818D02*
X155730447Y-103628818D01*
X155730447Y-103628818D02*
X155730447Y-103476437D01*
X155730447Y-103476437D02*
X155749495Y-103438342D01*
X155749495Y-103438342D02*
X155768542Y-103419295D01*
X155768542Y-103419295D02*
X155806638Y-103400247D01*
X155806638Y-103400247D02*
X155863780Y-103400247D01*
X155863780Y-103400247D02*
X155901876Y-103419295D01*
X155901876Y-103419295D02*
X155920923Y-103438342D01*
X155920923Y-103438342D02*
X155939971Y-103476437D01*
X155939971Y-103476437D02*
X155939971Y-103628818D01*
X156130447Y-103000247D02*
X155939971Y-103133580D01*
X156130447Y-103228818D02*
X155730447Y-103228818D01*
X155730447Y-103228818D02*
X155730447Y-103076437D01*
X155730447Y-103076437D02*
X155749495Y-103038342D01*
X155749495Y-103038342D02*
X155768542Y-103019295D01*
X155768542Y-103019295D02*
X155806638Y-103000247D01*
X155806638Y-103000247D02*
X155863780Y-103000247D01*
X155863780Y-103000247D02*
X155901876Y-103019295D01*
X155901876Y-103019295D02*
X155920923Y-103038342D01*
X155920923Y-103038342D02*
X155939971Y-103076437D01*
X155939971Y-103076437D02*
X155939971Y-103228818D01*
X155730447Y-102752628D02*
X155730447Y-102676437D01*
X155730447Y-102676437D02*
X155749495Y-102638342D01*
X155749495Y-102638342D02*
X155787590Y-102600247D01*
X155787590Y-102600247D02*
X155863780Y-102581199D01*
X155863780Y-102581199D02*
X155997114Y-102581199D01*
X155997114Y-102581199D02*
X156073304Y-102600247D01*
X156073304Y-102600247D02*
X156111400Y-102638342D01*
X156111400Y-102638342D02*
X156130447Y-102676437D01*
X156130447Y-102676437D02*
X156130447Y-102752628D01*
X156130447Y-102752628D02*
X156111400Y-102790723D01*
X156111400Y-102790723D02*
X156073304Y-102828818D01*
X156073304Y-102828818D02*
X155997114Y-102847866D01*
X155997114Y-102847866D02*
X155863780Y-102847866D01*
X155863780Y-102847866D02*
X155787590Y-102828818D01*
X155787590Y-102828818D02*
X155749495Y-102790723D01*
X155749495Y-102790723D02*
X155730447Y-102752628D01*
X155749495Y-102200247D02*
X155730447Y-102238342D01*
X155730447Y-102238342D02*
X155730447Y-102295485D01*
X155730447Y-102295485D02*
X155749495Y-102352628D01*
X155749495Y-102352628D02*
X155787590Y-102390723D01*
X155787590Y-102390723D02*
X155825685Y-102409770D01*
X155825685Y-102409770D02*
X155901876Y-102428818D01*
X155901876Y-102428818D02*
X155959019Y-102428818D01*
X155959019Y-102428818D02*
X156035209Y-102409770D01*
X156035209Y-102409770D02*
X156073304Y-102390723D01*
X156073304Y-102390723D02*
X156111400Y-102352628D01*
X156111400Y-102352628D02*
X156130447Y-102295485D01*
X156130447Y-102295485D02*
X156130447Y-102257389D01*
X156130447Y-102257389D02*
X156111400Y-102200247D01*
X156111400Y-102200247D02*
X156092352Y-102181199D01*
X156092352Y-102181199D02*
X155959019Y-102181199D01*
X155959019Y-102181199D02*
X155959019Y-102257389D01*
X156130447Y-101781199D02*
X155939971Y-101914532D01*
X156130447Y-102009770D02*
X155730447Y-102009770D01*
X155730447Y-102009770D02*
X155730447Y-101857389D01*
X155730447Y-101857389D02*
X155749495Y-101819294D01*
X155749495Y-101819294D02*
X155768542Y-101800247D01*
X155768542Y-101800247D02*
X155806638Y-101781199D01*
X155806638Y-101781199D02*
X155863780Y-101781199D01*
X155863780Y-101781199D02*
X155901876Y-101800247D01*
X155901876Y-101800247D02*
X155920923Y-101819294D01*
X155920923Y-101819294D02*
X155939971Y-101857389D01*
X155939971Y-101857389D02*
X155939971Y-102009770D01*
X156016161Y-101628818D02*
X156016161Y-101438342D01*
X156130447Y-101666913D02*
X155730447Y-101533580D01*
X155730447Y-101533580D02*
X156130447Y-101400247D01*
X156130447Y-101266913D02*
X155730447Y-101266913D01*
X155730447Y-101266913D02*
X156016161Y-101133580D01*
X156016161Y-101133580D02*
X155730447Y-101000247D01*
X155730447Y-101000247D02*
X156130447Y-101000247D01*
X156130447Y-100809770D02*
X155730447Y-100809770D01*
X155730447Y-100809770D02*
X156016161Y-100676437D01*
X156016161Y-100676437D02*
X155730447Y-100543104D01*
X155730447Y-100543104D02*
X156130447Y-100543104D01*
X156130447Y-100352627D02*
X155730447Y-100352627D01*
X156130447Y-100162151D02*
X155730447Y-100162151D01*
X155730447Y-100162151D02*
X156130447Y-99933580D01*
X156130447Y-99933580D02*
X155730447Y-99933580D01*
X155749495Y-99533580D02*
X155730447Y-99571675D01*
X155730447Y-99571675D02*
X155730447Y-99628818D01*
X155730447Y-99628818D02*
X155749495Y-99685961D01*
X155749495Y-99685961D02*
X155787590Y-99724056D01*
X155787590Y-99724056D02*
X155825685Y-99743103D01*
X155825685Y-99743103D02*
X155901876Y-99762151D01*
X155901876Y-99762151D02*
X155959019Y-99762151D01*
X155959019Y-99762151D02*
X156035209Y-99743103D01*
X156035209Y-99743103D02*
X156073304Y-99724056D01*
X156073304Y-99724056D02*
X156111400Y-99685961D01*
X156111400Y-99685961D02*
X156130447Y-99628818D01*
X156130447Y-99628818D02*
X156130447Y-99590722D01*
X156130447Y-99590722D02*
X156111400Y-99533580D01*
X156111400Y-99533580D02*
X156092352Y-99514532D01*
X156092352Y-99514532D02*
X155959019Y-99514532D01*
X155959019Y-99514532D02*
X155959019Y-99590722D01*
D11*
X105792493Y-111163000D02*
X105906779Y-111201095D01*
X105906779Y-111201095D02*
X106097255Y-111201095D01*
X106097255Y-111201095D02*
X106173446Y-111163000D01*
X106173446Y-111163000D02*
X106211541Y-111124904D01*
X106211541Y-111124904D02*
X106249636Y-111048714D01*
X106249636Y-111048714D02*
X106249636Y-110972523D01*
X106249636Y-110972523D02*
X106211541Y-110896333D01*
X106211541Y-110896333D02*
X106173446Y-110858238D01*
X106173446Y-110858238D02*
X106097255Y-110820142D01*
X106097255Y-110820142D02*
X105944874Y-110782047D01*
X105944874Y-110782047D02*
X105868684Y-110743952D01*
X105868684Y-110743952D02*
X105830589Y-110705857D01*
X105830589Y-110705857D02*
X105792493Y-110629666D01*
X105792493Y-110629666D02*
X105792493Y-110553476D01*
X105792493Y-110553476D02*
X105830589Y-110477285D01*
X105830589Y-110477285D02*
X105868684Y-110439190D01*
X105868684Y-110439190D02*
X105944874Y-110401095D01*
X105944874Y-110401095D02*
X106135351Y-110401095D01*
X106135351Y-110401095D02*
X106249636Y-110439190D01*
X106706779Y-111201095D02*
X106630589Y-111163000D01*
X106630589Y-111163000D02*
X106592494Y-111124904D01*
X106592494Y-111124904D02*
X106554398Y-111048714D01*
X106554398Y-111048714D02*
X106554398Y-110820142D01*
X106554398Y-110820142D02*
X106592494Y-110743952D01*
X106592494Y-110743952D02*
X106630589Y-110705857D01*
X106630589Y-110705857D02*
X106706779Y-110667761D01*
X106706779Y-110667761D02*
X106821065Y-110667761D01*
X106821065Y-110667761D02*
X106897256Y-110705857D01*
X106897256Y-110705857D02*
X106935351Y-110743952D01*
X106935351Y-110743952D02*
X106973446Y-110820142D01*
X106973446Y-110820142D02*
X106973446Y-111048714D01*
X106973446Y-111048714D02*
X106935351Y-111124904D01*
X106935351Y-111124904D02*
X106897256Y-111163000D01*
X106897256Y-111163000D02*
X106821065Y-111201095D01*
X106821065Y-111201095D02*
X106706779Y-111201095D01*
X107430589Y-111201095D02*
X107354399Y-111163000D01*
X107354399Y-111163000D02*
X107316304Y-111086809D01*
X107316304Y-111086809D02*
X107316304Y-110401095D01*
X108078209Y-111201095D02*
X108078209Y-110401095D01*
X108078209Y-111163000D02*
X108002018Y-111201095D01*
X108002018Y-111201095D02*
X107849637Y-111201095D01*
X107849637Y-111201095D02*
X107773447Y-111163000D01*
X107773447Y-111163000D02*
X107735352Y-111124904D01*
X107735352Y-111124904D02*
X107697256Y-111048714D01*
X107697256Y-111048714D02*
X107697256Y-110820142D01*
X107697256Y-110820142D02*
X107735352Y-110743952D01*
X107735352Y-110743952D02*
X107773447Y-110705857D01*
X107773447Y-110705857D02*
X107849637Y-110667761D01*
X107849637Y-110667761D02*
X108002018Y-110667761D01*
X108002018Y-110667761D02*
X108078209Y-110705857D01*
X108763924Y-111163000D02*
X108687733Y-111201095D01*
X108687733Y-111201095D02*
X108535352Y-111201095D01*
X108535352Y-111201095D02*
X108459162Y-111163000D01*
X108459162Y-111163000D02*
X108421066Y-111086809D01*
X108421066Y-111086809D02*
X108421066Y-110782047D01*
X108421066Y-110782047D02*
X108459162Y-110705857D01*
X108459162Y-110705857D02*
X108535352Y-110667761D01*
X108535352Y-110667761D02*
X108687733Y-110667761D01*
X108687733Y-110667761D02*
X108763924Y-110705857D01*
X108763924Y-110705857D02*
X108802019Y-110782047D01*
X108802019Y-110782047D02*
X108802019Y-110858238D01*
X108802019Y-110858238D02*
X108421066Y-110934428D01*
X109144876Y-111201095D02*
X109144876Y-110667761D01*
X109144876Y-110820142D02*
X109182971Y-110743952D01*
X109182971Y-110743952D02*
X109221066Y-110705857D01*
X109221066Y-110705857D02*
X109297257Y-110667761D01*
X109297257Y-110667761D02*
X109373447Y-110667761D01*
X110135352Y-110401095D02*
X110592495Y-110401095D01*
X110363923Y-111201095D02*
X110363923Y-110401095D01*
X110859162Y-111201095D02*
X110859162Y-110401095D01*
X111240114Y-111201095D02*
X111240114Y-110401095D01*
X111240114Y-110401095D02*
X111544876Y-110401095D01*
X111544876Y-110401095D02*
X111621066Y-110439190D01*
X111621066Y-110439190D02*
X111659161Y-110477285D01*
X111659161Y-110477285D02*
X111697257Y-110553476D01*
X111697257Y-110553476D02*
X111697257Y-110667761D01*
X111697257Y-110667761D02*
X111659161Y-110743952D01*
X111659161Y-110743952D02*
X111621066Y-110782047D01*
X111621066Y-110782047D02*
X111544876Y-110820142D01*
X111544876Y-110820142D02*
X111240114Y-110820142D01*
X112649638Y-110896333D02*
X113259162Y-110896333D01*
X114668685Y-110439190D02*
X114592495Y-110401095D01*
X114592495Y-110401095D02*
X114478209Y-110401095D01*
X114478209Y-110401095D02*
X114363923Y-110439190D01*
X114363923Y-110439190D02*
X114287733Y-110515380D01*
X114287733Y-110515380D02*
X114249638Y-110591571D01*
X114249638Y-110591571D02*
X114211542Y-110743952D01*
X114211542Y-110743952D02*
X114211542Y-110858238D01*
X114211542Y-110858238D02*
X114249638Y-111010619D01*
X114249638Y-111010619D02*
X114287733Y-111086809D01*
X114287733Y-111086809D02*
X114363923Y-111163000D01*
X114363923Y-111163000D02*
X114478209Y-111201095D01*
X114478209Y-111201095D02*
X114554400Y-111201095D01*
X114554400Y-111201095D02*
X114668685Y-111163000D01*
X114668685Y-111163000D02*
X114706781Y-111124904D01*
X114706781Y-111124904D02*
X114706781Y-110858238D01*
X114706781Y-110858238D02*
X114554400Y-110858238D01*
X115049638Y-111201095D02*
X115049638Y-110401095D01*
X115049638Y-110401095D02*
X115506781Y-111201095D01*
X115506781Y-111201095D02*
X115506781Y-110401095D01*
X115887733Y-111201095D02*
X115887733Y-110401095D01*
X115887733Y-110401095D02*
X116078209Y-110401095D01*
X116078209Y-110401095D02*
X116192495Y-110439190D01*
X116192495Y-110439190D02*
X116268685Y-110515380D01*
X116268685Y-110515380D02*
X116306780Y-110591571D01*
X116306780Y-110591571D02*
X116344876Y-110743952D01*
X116344876Y-110743952D02*
X116344876Y-110858238D01*
X116344876Y-110858238D02*
X116306780Y-111010619D01*
X116306780Y-111010619D02*
X116268685Y-111086809D01*
X116268685Y-111086809D02*
X116192495Y-111163000D01*
X116192495Y-111163000D02*
X116078209Y-111201095D01*
X116078209Y-111201095D02*
X115887733Y-111201095D01*
X117716304Y-110439190D02*
X117640114Y-110401095D01*
X117640114Y-110401095D02*
X117525828Y-110401095D01*
X117525828Y-110401095D02*
X117411542Y-110439190D01*
X117411542Y-110439190D02*
X117335352Y-110515380D01*
X117335352Y-110515380D02*
X117297257Y-110591571D01*
X117297257Y-110591571D02*
X117259161Y-110743952D01*
X117259161Y-110743952D02*
X117259161Y-110858238D01*
X117259161Y-110858238D02*
X117297257Y-111010619D01*
X117297257Y-111010619D02*
X117335352Y-111086809D01*
X117335352Y-111086809D02*
X117411542Y-111163000D01*
X117411542Y-111163000D02*
X117525828Y-111201095D01*
X117525828Y-111201095D02*
X117602019Y-111201095D01*
X117602019Y-111201095D02*
X117716304Y-111163000D01*
X117716304Y-111163000D02*
X117754400Y-111124904D01*
X117754400Y-111124904D02*
X117754400Y-110858238D01*
X117754400Y-110858238D02*
X117602019Y-110858238D01*
X118097257Y-111201095D02*
X118097257Y-110401095D01*
X118097257Y-110401095D02*
X118554400Y-111201095D01*
X118554400Y-111201095D02*
X118554400Y-110401095D01*
X118935352Y-111201095D02*
X118935352Y-110401095D01*
X118935352Y-110401095D02*
X119125828Y-110401095D01*
X119125828Y-110401095D02*
X119240114Y-110439190D01*
X119240114Y-110439190D02*
X119316304Y-110515380D01*
X119316304Y-110515380D02*
X119354399Y-110591571D01*
X119354399Y-110591571D02*
X119392495Y-110743952D01*
X119392495Y-110743952D02*
X119392495Y-110858238D01*
X119392495Y-110858238D02*
X119354399Y-111010619D01*
X119354399Y-111010619D02*
X119316304Y-111086809D01*
X119316304Y-111086809D02*
X119240114Y-111163000D01*
X119240114Y-111163000D02*
X119125828Y-111201095D01*
X119125828Y-111201095D02*
X118935352Y-111201095D01*
X120344876Y-111201095D02*
X120344876Y-110401095D01*
X120344876Y-110782047D02*
X120802019Y-110782047D01*
X120802019Y-111201095D02*
X120802019Y-110401095D01*
X121182971Y-110782047D02*
X121449637Y-110782047D01*
X121563923Y-111201095D02*
X121182971Y-111201095D01*
X121182971Y-111201095D02*
X121182971Y-110401095D01*
X121182971Y-110401095D02*
X121563923Y-110401095D01*
X121868685Y-110972523D02*
X122249638Y-110972523D01*
X121792495Y-111201095D02*
X122059162Y-110401095D01*
X122059162Y-110401095D02*
X122325828Y-111201095D01*
X122478209Y-110401095D02*
X122935352Y-110401095D01*
X122706780Y-111201095D02*
X122706780Y-110401095D01*
X123202019Y-110782047D02*
X123468685Y-110782047D01*
X123582971Y-111201095D02*
X123202019Y-111201095D01*
X123202019Y-111201095D02*
X123202019Y-110401095D01*
X123202019Y-110401095D02*
X123582971Y-110401095D01*
X124382972Y-111201095D02*
X124116305Y-110820142D01*
X123925829Y-111201095D02*
X123925829Y-110401095D01*
X123925829Y-110401095D02*
X124230591Y-110401095D01*
X124230591Y-110401095D02*
X124306781Y-110439190D01*
X124306781Y-110439190D02*
X124344876Y-110477285D01*
X124344876Y-110477285D02*
X124382972Y-110553476D01*
X124382972Y-110553476D02*
X124382972Y-110667761D01*
X124382972Y-110667761D02*
X124344876Y-110743952D01*
X124344876Y-110743952D02*
X124306781Y-110782047D01*
X124306781Y-110782047D02*
X124230591Y-110820142D01*
X124230591Y-110820142D02*
X123925829Y-110820142D01*
X125297257Y-111163000D02*
X125411543Y-111201095D01*
X125411543Y-111201095D02*
X125602019Y-111201095D01*
X125602019Y-111201095D02*
X125678210Y-111163000D01*
X125678210Y-111163000D02*
X125716305Y-111124904D01*
X125716305Y-111124904D02*
X125754400Y-111048714D01*
X125754400Y-111048714D02*
X125754400Y-110972523D01*
X125754400Y-110972523D02*
X125716305Y-110896333D01*
X125716305Y-110896333D02*
X125678210Y-110858238D01*
X125678210Y-110858238D02*
X125602019Y-110820142D01*
X125602019Y-110820142D02*
X125449638Y-110782047D01*
X125449638Y-110782047D02*
X125373448Y-110743952D01*
X125373448Y-110743952D02*
X125335353Y-110705857D01*
X125335353Y-110705857D02*
X125297257Y-110629666D01*
X125297257Y-110629666D02*
X125297257Y-110553476D01*
X125297257Y-110553476D02*
X125335353Y-110477285D01*
X125335353Y-110477285D02*
X125373448Y-110439190D01*
X125373448Y-110439190D02*
X125449638Y-110401095D01*
X125449638Y-110401095D02*
X125640115Y-110401095D01*
X125640115Y-110401095D02*
X125754400Y-110439190D01*
X126097258Y-110782047D02*
X126363924Y-110782047D01*
X126478210Y-111201095D02*
X126097258Y-111201095D01*
X126097258Y-111201095D02*
X126097258Y-110401095D01*
X126097258Y-110401095D02*
X126478210Y-110401095D01*
X126821068Y-111201095D02*
X126821068Y-110401095D01*
X126821068Y-110401095D02*
X127278211Y-111201095D01*
X127278211Y-111201095D02*
X127278211Y-110401095D01*
X127621067Y-111163000D02*
X127735353Y-111201095D01*
X127735353Y-111201095D02*
X127925829Y-111201095D01*
X127925829Y-111201095D02*
X128002020Y-111163000D01*
X128002020Y-111163000D02*
X128040115Y-111124904D01*
X128040115Y-111124904D02*
X128078210Y-111048714D01*
X128078210Y-111048714D02*
X128078210Y-110972523D01*
X128078210Y-110972523D02*
X128040115Y-110896333D01*
X128040115Y-110896333D02*
X128002020Y-110858238D01*
X128002020Y-110858238D02*
X127925829Y-110820142D01*
X127925829Y-110820142D02*
X127773448Y-110782047D01*
X127773448Y-110782047D02*
X127697258Y-110743952D01*
X127697258Y-110743952D02*
X127659163Y-110705857D01*
X127659163Y-110705857D02*
X127621067Y-110629666D01*
X127621067Y-110629666D02*
X127621067Y-110553476D01*
X127621067Y-110553476D02*
X127659163Y-110477285D01*
X127659163Y-110477285D02*
X127697258Y-110439190D01*
X127697258Y-110439190D02*
X127773448Y-110401095D01*
X127773448Y-110401095D02*
X127963925Y-110401095D01*
X127963925Y-110401095D02*
X128078210Y-110439190D01*
X128573449Y-110401095D02*
X128725830Y-110401095D01*
X128725830Y-110401095D02*
X128802020Y-110439190D01*
X128802020Y-110439190D02*
X128878211Y-110515380D01*
X128878211Y-110515380D02*
X128916306Y-110667761D01*
X128916306Y-110667761D02*
X128916306Y-110934428D01*
X128916306Y-110934428D02*
X128878211Y-111086809D01*
X128878211Y-111086809D02*
X128802020Y-111163000D01*
X128802020Y-111163000D02*
X128725830Y-111201095D01*
X128725830Y-111201095D02*
X128573449Y-111201095D01*
X128573449Y-111201095D02*
X128497258Y-111163000D01*
X128497258Y-111163000D02*
X128421068Y-111086809D01*
X128421068Y-111086809D02*
X128382972Y-110934428D01*
X128382972Y-110934428D02*
X128382972Y-110667761D01*
X128382972Y-110667761D02*
X128421068Y-110515380D01*
X128421068Y-110515380D02*
X128497258Y-110439190D01*
X128497258Y-110439190D02*
X128573449Y-110401095D01*
X129716306Y-111201095D02*
X129449639Y-110820142D01*
X129259163Y-111201095D02*
X129259163Y-110401095D01*
X129259163Y-110401095D02*
X129563925Y-110401095D01*
X129563925Y-110401095D02*
X129640115Y-110439190D01*
X129640115Y-110439190D02*
X129678210Y-110477285D01*
X129678210Y-110477285D02*
X129716306Y-110553476D01*
X129716306Y-110553476D02*
X129716306Y-110667761D01*
X129716306Y-110667761D02*
X129678210Y-110743952D01*
X129678210Y-110743952D02*
X129640115Y-110782047D01*
X129640115Y-110782047D02*
X129563925Y-110820142D01*
X129563925Y-110820142D02*
X129259163Y-110820142D01*
X133151358Y-73012200D02*
X133265644Y-73050295D01*
X133265644Y-73050295D02*
X133456120Y-73050295D01*
X133456120Y-73050295D02*
X133532311Y-73012200D01*
X133532311Y-73012200D02*
X133570406Y-72974104D01*
X133570406Y-72974104D02*
X133608501Y-72897914D01*
X133608501Y-72897914D02*
X133608501Y-72821723D01*
X133608501Y-72821723D02*
X133570406Y-72745533D01*
X133570406Y-72745533D02*
X133532311Y-72707438D01*
X133532311Y-72707438D02*
X133456120Y-72669342D01*
X133456120Y-72669342D02*
X133303739Y-72631247D01*
X133303739Y-72631247D02*
X133227549Y-72593152D01*
X133227549Y-72593152D02*
X133189454Y-72555057D01*
X133189454Y-72555057D02*
X133151358Y-72478866D01*
X133151358Y-72478866D02*
X133151358Y-72402676D01*
X133151358Y-72402676D02*
X133189454Y-72326485D01*
X133189454Y-72326485D02*
X133227549Y-72288390D01*
X133227549Y-72288390D02*
X133303739Y-72250295D01*
X133303739Y-72250295D02*
X133494216Y-72250295D01*
X133494216Y-72250295D02*
X133608501Y-72288390D01*
X133837073Y-72516961D02*
X134141835Y-72516961D01*
X133951359Y-72250295D02*
X133951359Y-72936009D01*
X133951359Y-72936009D02*
X133989454Y-73012200D01*
X133989454Y-73012200D02*
X134065644Y-73050295D01*
X134065644Y-73050295D02*
X134141835Y-73050295D01*
X134408502Y-72974104D02*
X134446597Y-73012200D01*
X134446597Y-73012200D02*
X134408502Y-73050295D01*
X134408502Y-73050295D02*
X134370406Y-73012200D01*
X134370406Y-73012200D02*
X134408502Y-72974104D01*
X134408502Y-72974104D02*
X134408502Y-73050295D01*
X134789454Y-73050295D02*
X134789454Y-72250295D01*
X134789454Y-72555057D02*
X134865644Y-72516961D01*
X134865644Y-72516961D02*
X135018025Y-72516961D01*
X135018025Y-72516961D02*
X135094216Y-72555057D01*
X135094216Y-72555057D02*
X135132311Y-72593152D01*
X135132311Y-72593152D02*
X135170406Y-72669342D01*
X135170406Y-72669342D02*
X135170406Y-72897914D01*
X135170406Y-72897914D02*
X135132311Y-72974104D01*
X135132311Y-72974104D02*
X135094216Y-73012200D01*
X135094216Y-73012200D02*
X135018025Y-73050295D01*
X135018025Y-73050295D02*
X134865644Y-73050295D01*
X134865644Y-73050295D02*
X134789454Y-73012200D01*
X135437073Y-72516961D02*
X135627549Y-73050295D01*
X135818026Y-72516961D02*
X135627549Y-73050295D01*
X135627549Y-73050295D02*
X135551359Y-73240771D01*
X135551359Y-73240771D02*
X135513264Y-73278866D01*
X135513264Y-73278866D02*
X135437073Y-73316961D01*
X136998978Y-72631247D02*
X137113264Y-72669342D01*
X137113264Y-72669342D02*
X137151359Y-72707438D01*
X137151359Y-72707438D02*
X137189455Y-72783628D01*
X137189455Y-72783628D02*
X137189455Y-72897914D01*
X137189455Y-72897914D02*
X137151359Y-72974104D01*
X137151359Y-72974104D02*
X137113264Y-73012200D01*
X137113264Y-73012200D02*
X137037074Y-73050295D01*
X137037074Y-73050295D02*
X136732312Y-73050295D01*
X136732312Y-73050295D02*
X136732312Y-72250295D01*
X136732312Y-72250295D02*
X136998978Y-72250295D01*
X136998978Y-72250295D02*
X137075169Y-72288390D01*
X137075169Y-72288390D02*
X137113264Y-72326485D01*
X137113264Y-72326485D02*
X137151359Y-72402676D01*
X137151359Y-72402676D02*
X137151359Y-72478866D01*
X137151359Y-72478866D02*
X137113264Y-72555057D01*
X137113264Y-72555057D02*
X137075169Y-72593152D01*
X137075169Y-72593152D02*
X136998978Y-72631247D01*
X136998978Y-72631247D02*
X136732312Y-72631247D01*
X137418026Y-72250295D02*
X137875169Y-72250295D01*
X137646597Y-73050295D02*
X137646597Y-72250295D01*
X157118609Y-109036935D02*
X157042419Y-108998840D01*
X157042419Y-108998840D02*
X156928133Y-108998840D01*
X156928133Y-108998840D02*
X156813847Y-109036935D01*
X156813847Y-109036935D02*
X156737657Y-109113125D01*
X156737657Y-109113125D02*
X156699562Y-109189316D01*
X156699562Y-109189316D02*
X156661466Y-109341697D01*
X156661466Y-109341697D02*
X156661466Y-109455983D01*
X156661466Y-109455983D02*
X156699562Y-109608364D01*
X156699562Y-109608364D02*
X156737657Y-109684554D01*
X156737657Y-109684554D02*
X156813847Y-109760745D01*
X156813847Y-109760745D02*
X156928133Y-109798840D01*
X156928133Y-109798840D02*
X157004324Y-109798840D01*
X157004324Y-109798840D02*
X157118609Y-109760745D01*
X157118609Y-109760745D02*
X157156705Y-109722649D01*
X157156705Y-109722649D02*
X157156705Y-109455983D01*
X157156705Y-109455983D02*
X157004324Y-109455983D01*
X157499562Y-109798840D02*
X157499562Y-108998840D01*
X157499562Y-108998840D02*
X157956705Y-109798840D01*
X157956705Y-109798840D02*
X157956705Y-108998840D01*
X158337657Y-109798840D02*
X158337657Y-108998840D01*
X158337657Y-108998840D02*
X158528133Y-108998840D01*
X158528133Y-108998840D02*
X158642419Y-109036935D01*
X158642419Y-109036935D02*
X158718609Y-109113125D01*
X158718609Y-109113125D02*
X158756704Y-109189316D01*
X158756704Y-109189316D02*
X158794800Y-109341697D01*
X158794800Y-109341697D02*
X158794800Y-109455983D01*
X158794800Y-109455983D02*
X158756704Y-109608364D01*
X158756704Y-109608364D02*
X158718609Y-109684554D01*
X158718609Y-109684554D02*
X158642419Y-109760745D01*
X158642419Y-109760745D02*
X158528133Y-109798840D01*
X158528133Y-109798840D02*
X158337657Y-109798840D01*
X159709085Y-109760745D02*
X159823371Y-109798840D01*
X159823371Y-109798840D02*
X160013847Y-109798840D01*
X160013847Y-109798840D02*
X160090038Y-109760745D01*
X160090038Y-109760745D02*
X160128133Y-109722649D01*
X160128133Y-109722649D02*
X160166228Y-109646459D01*
X160166228Y-109646459D02*
X160166228Y-109570268D01*
X160166228Y-109570268D02*
X160128133Y-109494078D01*
X160128133Y-109494078D02*
X160090038Y-109455983D01*
X160090038Y-109455983D02*
X160013847Y-109417887D01*
X160013847Y-109417887D02*
X159861466Y-109379792D01*
X159861466Y-109379792D02*
X159785276Y-109341697D01*
X159785276Y-109341697D02*
X159747181Y-109303602D01*
X159747181Y-109303602D02*
X159709085Y-109227411D01*
X159709085Y-109227411D02*
X159709085Y-109151221D01*
X159709085Y-109151221D02*
X159747181Y-109075030D01*
X159747181Y-109075030D02*
X159785276Y-109036935D01*
X159785276Y-109036935D02*
X159861466Y-108998840D01*
X159861466Y-108998840D02*
X160051943Y-108998840D01*
X160051943Y-108998840D02*
X160166228Y-109036935D01*
X160966229Y-109722649D02*
X160928133Y-109760745D01*
X160928133Y-109760745D02*
X160813848Y-109798840D01*
X160813848Y-109798840D02*
X160737657Y-109798840D01*
X160737657Y-109798840D02*
X160623371Y-109760745D01*
X160623371Y-109760745D02*
X160547181Y-109684554D01*
X160547181Y-109684554D02*
X160509086Y-109608364D01*
X160509086Y-109608364D02*
X160470990Y-109455983D01*
X160470990Y-109455983D02*
X160470990Y-109341697D01*
X160470990Y-109341697D02*
X160509086Y-109189316D01*
X160509086Y-109189316D02*
X160547181Y-109113125D01*
X160547181Y-109113125D02*
X160623371Y-109036935D01*
X160623371Y-109036935D02*
X160737657Y-108998840D01*
X160737657Y-108998840D02*
X160813848Y-108998840D01*
X160813848Y-108998840D02*
X160928133Y-109036935D01*
X160928133Y-109036935D02*
X160966229Y-109075030D01*
X161690038Y-109798840D02*
X161309086Y-109798840D01*
X161309086Y-109798840D02*
X161309086Y-108998840D01*
X162528133Y-109760745D02*
X162642419Y-109798840D01*
X162642419Y-109798840D02*
X162832895Y-109798840D01*
X162832895Y-109798840D02*
X162909086Y-109760745D01*
X162909086Y-109760745D02*
X162947181Y-109722649D01*
X162947181Y-109722649D02*
X162985276Y-109646459D01*
X162985276Y-109646459D02*
X162985276Y-109570268D01*
X162985276Y-109570268D02*
X162947181Y-109494078D01*
X162947181Y-109494078D02*
X162909086Y-109455983D01*
X162909086Y-109455983D02*
X162832895Y-109417887D01*
X162832895Y-109417887D02*
X162680514Y-109379792D01*
X162680514Y-109379792D02*
X162604324Y-109341697D01*
X162604324Y-109341697D02*
X162566229Y-109303602D01*
X162566229Y-109303602D02*
X162528133Y-109227411D01*
X162528133Y-109227411D02*
X162528133Y-109151221D01*
X162528133Y-109151221D02*
X162566229Y-109075030D01*
X162566229Y-109075030D02*
X162604324Y-109036935D01*
X162604324Y-109036935D02*
X162680514Y-108998840D01*
X162680514Y-108998840D02*
X162870991Y-108998840D01*
X162870991Y-108998840D02*
X162985276Y-109036935D01*
X163328134Y-109798840D02*
X163328134Y-108998840D01*
X163328134Y-108998840D02*
X163518610Y-108998840D01*
X163518610Y-108998840D02*
X163632896Y-109036935D01*
X163632896Y-109036935D02*
X163709086Y-109113125D01*
X163709086Y-109113125D02*
X163747181Y-109189316D01*
X163747181Y-109189316D02*
X163785277Y-109341697D01*
X163785277Y-109341697D02*
X163785277Y-109455983D01*
X163785277Y-109455983D02*
X163747181Y-109608364D01*
X163747181Y-109608364D02*
X163709086Y-109684554D01*
X163709086Y-109684554D02*
X163632896Y-109760745D01*
X163632896Y-109760745D02*
X163518610Y-109798840D01*
X163518610Y-109798840D02*
X163328134Y-109798840D01*
X164090038Y-109570268D02*
X164470991Y-109570268D01*
X164013848Y-109798840D02*
X164280515Y-108998840D01*
X164280515Y-108998840D02*
X164547181Y-109798840D01*
X165804324Y-108998840D02*
X165423372Y-108998840D01*
X165423372Y-108998840D02*
X165385276Y-109379792D01*
X165385276Y-109379792D02*
X165423372Y-109341697D01*
X165423372Y-109341697D02*
X165499562Y-109303602D01*
X165499562Y-109303602D02*
X165690038Y-109303602D01*
X165690038Y-109303602D02*
X165766229Y-109341697D01*
X165766229Y-109341697D02*
X165804324Y-109379792D01*
X165804324Y-109379792D02*
X165842419Y-109455983D01*
X165842419Y-109455983D02*
X165842419Y-109646459D01*
X165842419Y-109646459D02*
X165804324Y-109722649D01*
X165804324Y-109722649D02*
X165766229Y-109760745D01*
X165766229Y-109760745D02*
X165690038Y-109798840D01*
X165690038Y-109798840D02*
X165499562Y-109798840D01*
X165499562Y-109798840D02*
X165423372Y-109760745D01*
X165423372Y-109760745D02*
X165385276Y-109722649D01*
X166070991Y-108998840D02*
X166337658Y-109798840D01*
X166337658Y-109798840D02*
X166604324Y-108998840D01*
X158356704Y-111086795D02*
X158356704Y-110286795D01*
X158699560Y-110362985D02*
X158737656Y-110324890D01*
X158737656Y-110324890D02*
X158813846Y-110286795D01*
X158813846Y-110286795D02*
X159004322Y-110286795D01*
X159004322Y-110286795D02*
X159080513Y-110324890D01*
X159080513Y-110324890D02*
X159118608Y-110362985D01*
X159118608Y-110362985D02*
X159156703Y-110439176D01*
X159156703Y-110439176D02*
X159156703Y-110515366D01*
X159156703Y-110515366D02*
X159118608Y-110629652D01*
X159118608Y-110629652D02*
X158661465Y-111086795D01*
X158661465Y-111086795D02*
X159156703Y-111086795D01*
X159956704Y-111010604D02*
X159918608Y-111048700D01*
X159918608Y-111048700D02*
X159804323Y-111086795D01*
X159804323Y-111086795D02*
X159728132Y-111086795D01*
X159728132Y-111086795D02*
X159613846Y-111048700D01*
X159613846Y-111048700D02*
X159537656Y-110972509D01*
X159537656Y-110972509D02*
X159499561Y-110896319D01*
X159499561Y-110896319D02*
X159461465Y-110743938D01*
X159461465Y-110743938D02*
X159461465Y-110629652D01*
X159461465Y-110629652D02*
X159499561Y-110477271D01*
X159499561Y-110477271D02*
X159537656Y-110401080D01*
X159537656Y-110401080D02*
X159613846Y-110324890D01*
X159613846Y-110324890D02*
X159728132Y-110286795D01*
X159728132Y-110286795D02*
X159804323Y-110286795D01*
X159804323Y-110286795D02*
X159918608Y-110324890D01*
X159918608Y-110324890D02*
X159956704Y-110362985D01*
X160909085Y-111086795D02*
X160909085Y-110286795D01*
X160909085Y-110286795D02*
X161099561Y-110286795D01*
X161099561Y-110286795D02*
X161213847Y-110324890D01*
X161213847Y-110324890D02*
X161290037Y-110401080D01*
X161290037Y-110401080D02*
X161328132Y-110477271D01*
X161328132Y-110477271D02*
X161366228Y-110629652D01*
X161366228Y-110629652D02*
X161366228Y-110743938D01*
X161366228Y-110743938D02*
X161328132Y-110896319D01*
X161328132Y-110896319D02*
X161290037Y-110972509D01*
X161290037Y-110972509D02*
X161213847Y-111048700D01*
X161213847Y-111048700D02*
X161099561Y-111086795D01*
X161099561Y-111086795D02*
X160909085Y-111086795D01*
X161709085Y-111086795D02*
X161709085Y-110553461D01*
X161709085Y-110286795D02*
X161670989Y-110324890D01*
X161670989Y-110324890D02*
X161709085Y-110362985D01*
X161709085Y-110362985D02*
X161747180Y-110324890D01*
X161747180Y-110324890D02*
X161709085Y-110286795D01*
X161709085Y-110286795D02*
X161709085Y-110362985D01*
X162051941Y-111048700D02*
X162128132Y-111086795D01*
X162128132Y-111086795D02*
X162280513Y-111086795D01*
X162280513Y-111086795D02*
X162356703Y-111048700D01*
X162356703Y-111048700D02*
X162394799Y-110972509D01*
X162394799Y-110972509D02*
X162394799Y-110934414D01*
X162394799Y-110934414D02*
X162356703Y-110858223D01*
X162356703Y-110858223D02*
X162280513Y-110820128D01*
X162280513Y-110820128D02*
X162166227Y-110820128D01*
X162166227Y-110820128D02*
X162090037Y-110782033D01*
X162090037Y-110782033D02*
X162051941Y-110705842D01*
X162051941Y-110705842D02*
X162051941Y-110667747D01*
X162051941Y-110667747D02*
X162090037Y-110591557D01*
X162090037Y-110591557D02*
X162166227Y-110553461D01*
X162166227Y-110553461D02*
X162280513Y-110553461D01*
X162280513Y-110553461D02*
X162356703Y-110591557D01*
X162737656Y-110553461D02*
X162737656Y-111353461D01*
X162737656Y-110591557D02*
X162813846Y-110553461D01*
X162813846Y-110553461D02*
X162966227Y-110553461D01*
X162966227Y-110553461D02*
X163042418Y-110591557D01*
X163042418Y-110591557D02*
X163080513Y-110629652D01*
X163080513Y-110629652D02*
X163118608Y-110705842D01*
X163118608Y-110705842D02*
X163118608Y-110934414D01*
X163118608Y-110934414D02*
X163080513Y-111010604D01*
X163080513Y-111010604D02*
X163042418Y-111048700D01*
X163042418Y-111048700D02*
X162966227Y-111086795D01*
X162966227Y-111086795D02*
X162813846Y-111086795D01*
X162813846Y-111086795D02*
X162737656Y-111048700D01*
X163575751Y-111086795D02*
X163499561Y-111048700D01*
X163499561Y-111048700D02*
X163461466Y-110972509D01*
X163461466Y-110972509D02*
X163461466Y-110286795D01*
X164223371Y-111086795D02*
X164223371Y-110667747D01*
X164223371Y-110667747D02*
X164185276Y-110591557D01*
X164185276Y-110591557D02*
X164109085Y-110553461D01*
X164109085Y-110553461D02*
X163956704Y-110553461D01*
X163956704Y-110553461D02*
X163880514Y-110591557D01*
X164223371Y-111048700D02*
X164147180Y-111086795D01*
X164147180Y-111086795D02*
X163956704Y-111086795D01*
X163956704Y-111086795D02*
X163880514Y-111048700D01*
X163880514Y-111048700D02*
X163842418Y-110972509D01*
X163842418Y-110972509D02*
X163842418Y-110896319D01*
X163842418Y-110896319D02*
X163880514Y-110820128D01*
X163880514Y-110820128D02*
X163956704Y-110782033D01*
X163956704Y-110782033D02*
X164147180Y-110782033D01*
X164147180Y-110782033D02*
X164223371Y-110743938D01*
X164528133Y-110553461D02*
X164718609Y-111086795D01*
X164909086Y-110553461D02*
X164718609Y-111086795D01*
X164718609Y-111086795D02*
X164642419Y-111277271D01*
X164642419Y-111277271D02*
X164604324Y-111315366D01*
X164604324Y-111315366D02*
X164528133Y-111353461D01*
X98507866Y-86859854D02*
X98507866Y-87469378D01*
X99003104Y-88231282D02*
X99003104Y-87850330D01*
X99003104Y-87850330D02*
X98622152Y-87812234D01*
X98622152Y-87812234D02*
X98660247Y-87850330D01*
X98660247Y-87850330D02*
X98698342Y-87926520D01*
X98698342Y-87926520D02*
X98698342Y-88116996D01*
X98698342Y-88116996D02*
X98660247Y-88193187D01*
X98660247Y-88193187D02*
X98622152Y-88231282D01*
X98622152Y-88231282D02*
X98545961Y-88269377D01*
X98545961Y-88269377D02*
X98355485Y-88269377D01*
X98355485Y-88269377D02*
X98279295Y-88231282D01*
X98279295Y-88231282D02*
X98241200Y-88193187D01*
X98241200Y-88193187D02*
X98203104Y-88116996D01*
X98203104Y-88116996D02*
X98203104Y-87926520D01*
X98203104Y-87926520D02*
X98241200Y-87850330D01*
X98241200Y-87850330D02*
X98279295Y-87812234D01*
X99003104Y-88497949D02*
X98203104Y-88764616D01*
X98203104Y-88764616D02*
X99003104Y-89031282D01*
X98507866Y-89297949D02*
X98507866Y-89907473D01*
X98203104Y-89602711D02*
X98812628Y-89602711D01*
X98203104Y-90897949D02*
X99003104Y-90897949D01*
X98203104Y-91278901D02*
X98736438Y-91278901D01*
X98660247Y-91278901D02*
X98698342Y-91316996D01*
X98698342Y-91316996D02*
X98736438Y-91393186D01*
X98736438Y-91393186D02*
X98736438Y-91507472D01*
X98736438Y-91507472D02*
X98698342Y-91583663D01*
X98698342Y-91583663D02*
X98622152Y-91621758D01*
X98622152Y-91621758D02*
X98203104Y-91621758D01*
X98622152Y-91621758D02*
X98698342Y-91659853D01*
X98698342Y-91659853D02*
X98736438Y-91736044D01*
X98736438Y-91736044D02*
X98736438Y-91850329D01*
X98736438Y-91850329D02*
X98698342Y-91926520D01*
X98698342Y-91926520D02*
X98622152Y-91964615D01*
X98622152Y-91964615D02*
X98203104Y-91964615D01*
X98203104Y-92688425D02*
X98622152Y-92688425D01*
X98622152Y-92688425D02*
X98698342Y-92650330D01*
X98698342Y-92650330D02*
X98736438Y-92574139D01*
X98736438Y-92574139D02*
X98736438Y-92421758D01*
X98736438Y-92421758D02*
X98698342Y-92345568D01*
X98241200Y-92688425D02*
X98203104Y-92612234D01*
X98203104Y-92612234D02*
X98203104Y-92421758D01*
X98203104Y-92421758D02*
X98241200Y-92345568D01*
X98241200Y-92345568D02*
X98317390Y-92307472D01*
X98317390Y-92307472D02*
X98393580Y-92307472D01*
X98393580Y-92307472D02*
X98469771Y-92345568D01*
X98469771Y-92345568D02*
X98507866Y-92421758D01*
X98507866Y-92421758D02*
X98507866Y-92612234D01*
X98507866Y-92612234D02*
X98545961Y-92688425D01*
X98203104Y-92993187D02*
X98736438Y-93412235D01*
X98736438Y-92993187D02*
X98203104Y-93412235D01*
X98279295Y-93716997D02*
X98241200Y-93755092D01*
X98241200Y-93755092D02*
X98203104Y-93716997D01*
X98203104Y-93716997D02*
X98241200Y-93678901D01*
X98241200Y-93678901D02*
X98279295Y-93716997D01*
X98279295Y-93716997D02*
X98203104Y-93716997D01*
X99003104Y-94478901D02*
X99003104Y-94097949D01*
X99003104Y-94097949D02*
X98622152Y-94059853D01*
X98622152Y-94059853D02*
X98660247Y-94097949D01*
X98660247Y-94097949D02*
X98698342Y-94174139D01*
X98698342Y-94174139D02*
X98698342Y-94364615D01*
X98698342Y-94364615D02*
X98660247Y-94440806D01*
X98660247Y-94440806D02*
X98622152Y-94478901D01*
X98622152Y-94478901D02*
X98545961Y-94516996D01*
X98545961Y-94516996D02*
X98355485Y-94516996D01*
X98355485Y-94516996D02*
X98279295Y-94478901D01*
X98279295Y-94478901D02*
X98241200Y-94440806D01*
X98241200Y-94440806D02*
X98203104Y-94364615D01*
X98203104Y-94364615D02*
X98203104Y-94174139D01*
X98203104Y-94174139D02*
X98241200Y-94097949D01*
X98241200Y-94097949D02*
X98279295Y-94059853D01*
X99003104Y-95012235D02*
X99003104Y-95088425D01*
X99003104Y-95088425D02*
X98965009Y-95164616D01*
X98965009Y-95164616D02*
X98926914Y-95202711D01*
X98926914Y-95202711D02*
X98850723Y-95240806D01*
X98850723Y-95240806D02*
X98698342Y-95278901D01*
X98698342Y-95278901D02*
X98507866Y-95278901D01*
X98507866Y-95278901D02*
X98355485Y-95240806D01*
X98355485Y-95240806D02*
X98279295Y-95202711D01*
X98279295Y-95202711D02*
X98241200Y-95164616D01*
X98241200Y-95164616D02*
X98203104Y-95088425D01*
X98203104Y-95088425D02*
X98203104Y-95012235D01*
X98203104Y-95012235D02*
X98241200Y-94936044D01*
X98241200Y-94936044D02*
X98279295Y-94897949D01*
X98279295Y-94897949D02*
X98355485Y-94859854D01*
X98355485Y-94859854D02*
X98507866Y-94821758D01*
X98507866Y-94821758D02*
X98698342Y-94821758D01*
X98698342Y-94821758D02*
X98850723Y-94859854D01*
X98850723Y-94859854D02*
X98926914Y-94897949D01*
X98926914Y-94897949D02*
X98965009Y-94936044D01*
X98965009Y-94936044D02*
X99003104Y-95012235D01*
X98203104Y-95621759D02*
X98736438Y-95621759D01*
X98660247Y-95621759D02*
X98698342Y-95659854D01*
X98698342Y-95659854D02*
X98736438Y-95736044D01*
X98736438Y-95736044D02*
X98736438Y-95850330D01*
X98736438Y-95850330D02*
X98698342Y-95926521D01*
X98698342Y-95926521D02*
X98622152Y-95964616D01*
X98622152Y-95964616D02*
X98203104Y-95964616D01*
X98622152Y-95964616D02*
X98698342Y-96002711D01*
X98698342Y-96002711D02*
X98736438Y-96078902D01*
X98736438Y-96078902D02*
X98736438Y-96193187D01*
X98736438Y-96193187D02*
X98698342Y-96269378D01*
X98698342Y-96269378D02*
X98622152Y-96307473D01*
X98622152Y-96307473D02*
X98203104Y-96307473D01*
X98431676Y-96650330D02*
X98431676Y-97031283D01*
X98203104Y-96574140D02*
X99003104Y-96840807D01*
X99003104Y-96840807D02*
X98203104Y-97107473D01*
X140364920Y-72631247D02*
X140479206Y-72669342D01*
X140479206Y-72669342D02*
X140517301Y-72707438D01*
X140517301Y-72707438D02*
X140555397Y-72783628D01*
X140555397Y-72783628D02*
X140555397Y-72897914D01*
X140555397Y-72897914D02*
X140517301Y-72974104D01*
X140517301Y-72974104D02*
X140479206Y-73012200D01*
X140479206Y-73012200D02*
X140403016Y-73050295D01*
X140403016Y-73050295D02*
X140098254Y-73050295D01*
X140098254Y-73050295D02*
X140098254Y-72250295D01*
X140098254Y-72250295D02*
X140364920Y-72250295D01*
X140364920Y-72250295D02*
X140441111Y-72288390D01*
X140441111Y-72288390D02*
X140479206Y-72326485D01*
X140479206Y-72326485D02*
X140517301Y-72402676D01*
X140517301Y-72402676D02*
X140517301Y-72478866D01*
X140517301Y-72478866D02*
X140479206Y-72555057D01*
X140479206Y-72555057D02*
X140441111Y-72593152D01*
X140441111Y-72593152D02*
X140364920Y-72631247D01*
X140364920Y-72631247D02*
X140098254Y-72631247D01*
X141241111Y-72516961D02*
X141241111Y-73050295D01*
X140898254Y-72516961D02*
X140898254Y-72936009D01*
X140898254Y-72936009D02*
X140936349Y-73012200D01*
X140936349Y-73012200D02*
X141012539Y-73050295D01*
X141012539Y-73050295D02*
X141126825Y-73050295D01*
X141126825Y-73050295D02*
X141203016Y-73012200D01*
X141203016Y-73012200D02*
X141241111Y-72974104D01*
X141545873Y-72516961D02*
X141964921Y-72516961D01*
X141964921Y-72516961D02*
X141545873Y-73050295D01*
X141545873Y-73050295D02*
X141964921Y-73050295D01*
X142193492Y-72516961D02*
X142612540Y-72516961D01*
X142612540Y-72516961D02*
X142193492Y-73050295D01*
X142193492Y-73050295D02*
X142612540Y-73050295D01*
X114444254Y-72694733D02*
X115053778Y-72694733D01*
X114749016Y-72999495D02*
X114749016Y-72389971D01*
X115853777Y-72999495D02*
X115396634Y-72999495D01*
X115625206Y-72999495D02*
X115625206Y-72199495D01*
X115625206Y-72199495D02*
X115549015Y-72313780D01*
X115549015Y-72313780D02*
X115472825Y-72389971D01*
X115472825Y-72389971D02*
X115396634Y-72428066D01*
X116158539Y-72275685D02*
X116196635Y-72237590D01*
X116196635Y-72237590D02*
X116272825Y-72199495D01*
X116272825Y-72199495D02*
X116463301Y-72199495D01*
X116463301Y-72199495D02*
X116539492Y-72237590D01*
X116539492Y-72237590D02*
X116577587Y-72275685D01*
X116577587Y-72275685D02*
X116615682Y-72351876D01*
X116615682Y-72351876D02*
X116615682Y-72428066D01*
X116615682Y-72428066D02*
X116577587Y-72542352D01*
X116577587Y-72542352D02*
X116120444Y-72999495D01*
X116120444Y-72999495D02*
X116615682Y-72999495D01*
X116844254Y-72199495D02*
X117110921Y-72999495D01*
X117110921Y-72999495D02*
X117377587Y-72199495D01*
X117644254Y-72694733D02*
X118253778Y-72694733D01*
X137770313Y-107733295D02*
X137770313Y-106933295D01*
X137770313Y-106933295D02*
X137960789Y-106933295D01*
X137960789Y-106933295D02*
X138075075Y-106971390D01*
X138075075Y-106971390D02*
X138151265Y-107047580D01*
X138151265Y-107047580D02*
X138189360Y-107123771D01*
X138189360Y-107123771D02*
X138227456Y-107276152D01*
X138227456Y-107276152D02*
X138227456Y-107390438D01*
X138227456Y-107390438D02*
X138189360Y-107542819D01*
X138189360Y-107542819D02*
X138151265Y-107619009D01*
X138151265Y-107619009D02*
X138075075Y-107695200D01*
X138075075Y-107695200D02*
X137960789Y-107733295D01*
X137960789Y-107733295D02*
X137770313Y-107733295D01*
X138570313Y-107733295D02*
X138570313Y-107199961D01*
X138570313Y-106933295D02*
X138532217Y-106971390D01*
X138532217Y-106971390D02*
X138570313Y-107009485D01*
X138570313Y-107009485D02*
X138608408Y-106971390D01*
X138608408Y-106971390D02*
X138570313Y-106933295D01*
X138570313Y-106933295D02*
X138570313Y-107009485D01*
X139294122Y-107199961D02*
X139294122Y-107847580D01*
X139294122Y-107847580D02*
X139256027Y-107923771D01*
X139256027Y-107923771D02*
X139217931Y-107961866D01*
X139217931Y-107961866D02*
X139141741Y-107999961D01*
X139141741Y-107999961D02*
X139027455Y-107999961D01*
X139027455Y-107999961D02*
X138951265Y-107961866D01*
X139294122Y-107695200D02*
X139217931Y-107733295D01*
X139217931Y-107733295D02*
X139065550Y-107733295D01*
X139065550Y-107733295D02*
X138989360Y-107695200D01*
X138989360Y-107695200D02*
X138951265Y-107657104D01*
X138951265Y-107657104D02*
X138913169Y-107580914D01*
X138913169Y-107580914D02*
X138913169Y-107352342D01*
X138913169Y-107352342D02*
X138951265Y-107276152D01*
X138951265Y-107276152D02*
X138989360Y-107238057D01*
X138989360Y-107238057D02*
X139065550Y-107199961D01*
X139065550Y-107199961D02*
X139217931Y-107199961D01*
X139217931Y-107199961D02*
X139294122Y-107238057D01*
X139675075Y-107733295D02*
X139675075Y-107199961D01*
X139675075Y-106933295D02*
X139636979Y-106971390D01*
X139636979Y-106971390D02*
X139675075Y-107009485D01*
X139675075Y-107009485D02*
X139713170Y-106971390D01*
X139713170Y-106971390D02*
X139675075Y-106933295D01*
X139675075Y-106933295D02*
X139675075Y-107009485D01*
X139941741Y-107199961D02*
X140246503Y-107199961D01*
X140056027Y-106933295D02*
X140056027Y-107619009D01*
X140056027Y-107619009D02*
X140094122Y-107695200D01*
X140094122Y-107695200D02*
X140170312Y-107733295D01*
X140170312Y-107733295D02*
X140246503Y-107733295D01*
X140856027Y-107733295D02*
X140856027Y-107314247D01*
X140856027Y-107314247D02*
X140817932Y-107238057D01*
X140817932Y-107238057D02*
X140741741Y-107199961D01*
X140741741Y-107199961D02*
X140589360Y-107199961D01*
X140589360Y-107199961D02*
X140513170Y-107238057D01*
X140856027Y-107695200D02*
X140779836Y-107733295D01*
X140779836Y-107733295D02*
X140589360Y-107733295D01*
X140589360Y-107733295D02*
X140513170Y-107695200D01*
X140513170Y-107695200D02*
X140475074Y-107619009D01*
X140475074Y-107619009D02*
X140475074Y-107542819D01*
X140475074Y-107542819D02*
X140513170Y-107466628D01*
X140513170Y-107466628D02*
X140589360Y-107428533D01*
X140589360Y-107428533D02*
X140779836Y-107428533D01*
X140779836Y-107428533D02*
X140856027Y-107390438D01*
X141351265Y-107733295D02*
X141275075Y-107695200D01*
X141275075Y-107695200D02*
X141236980Y-107619009D01*
X141236980Y-107619009D02*
X141236980Y-106933295D01*
X141960790Y-107695200D02*
X141884599Y-107733295D01*
X141884599Y-107733295D02*
X141732218Y-107733295D01*
X141732218Y-107733295D02*
X141656028Y-107695200D01*
X141656028Y-107695200D02*
X141617932Y-107619009D01*
X141617932Y-107619009D02*
X141617932Y-107314247D01*
X141617932Y-107314247D02*
X141656028Y-107238057D01*
X141656028Y-107238057D02*
X141732218Y-107199961D01*
X141732218Y-107199961D02*
X141884599Y-107199961D01*
X141884599Y-107199961D02*
X141960790Y-107238057D01*
X141960790Y-107238057D02*
X141998885Y-107314247D01*
X141998885Y-107314247D02*
X141998885Y-107390438D01*
X141998885Y-107390438D02*
X141617932Y-107466628D01*
X143332218Y-107733295D02*
X142951266Y-107733295D01*
X142951266Y-107733295D02*
X142951266Y-106933295D01*
X143713170Y-107733295D02*
X143636980Y-107695200D01*
X143636980Y-107695200D02*
X143598885Y-107657104D01*
X143598885Y-107657104D02*
X143560789Y-107580914D01*
X143560789Y-107580914D02*
X143560789Y-107352342D01*
X143560789Y-107352342D02*
X143598885Y-107276152D01*
X143598885Y-107276152D02*
X143636980Y-107238057D01*
X143636980Y-107238057D02*
X143713170Y-107199961D01*
X143713170Y-107199961D02*
X143827456Y-107199961D01*
X143827456Y-107199961D02*
X143903647Y-107238057D01*
X143903647Y-107238057D02*
X143941742Y-107276152D01*
X143941742Y-107276152D02*
X143979837Y-107352342D01*
X143979837Y-107352342D02*
X143979837Y-107580914D01*
X143979837Y-107580914D02*
X143941742Y-107657104D01*
X143941742Y-107657104D02*
X143903647Y-107695200D01*
X143903647Y-107695200D02*
X143827456Y-107733295D01*
X143827456Y-107733295D02*
X143713170Y-107733295D01*
X144627457Y-107695200D02*
X144551266Y-107733295D01*
X144551266Y-107733295D02*
X144398885Y-107733295D01*
X144398885Y-107733295D02*
X144322695Y-107695200D01*
X144322695Y-107695200D02*
X144284599Y-107619009D01*
X144284599Y-107619009D02*
X144284599Y-107314247D01*
X144284599Y-107314247D02*
X144322695Y-107238057D01*
X144322695Y-107238057D02*
X144398885Y-107199961D01*
X144398885Y-107199961D02*
X144551266Y-107199961D01*
X144551266Y-107199961D02*
X144627457Y-107238057D01*
X144627457Y-107238057D02*
X144665552Y-107314247D01*
X144665552Y-107314247D02*
X144665552Y-107390438D01*
X144665552Y-107390438D02*
X144284599Y-107466628D01*
X144894123Y-107199961D02*
X145198885Y-107199961D01*
X145008409Y-106933295D02*
X145008409Y-107619009D01*
X145008409Y-107619009D02*
X145046504Y-107695200D01*
X145046504Y-107695200D02*
X145122694Y-107733295D01*
X145122694Y-107733295D02*
X145198885Y-107733295D01*
X145427456Y-107695200D02*
X145503647Y-107733295D01*
X145503647Y-107733295D02*
X145656028Y-107733295D01*
X145656028Y-107733295D02*
X145732218Y-107695200D01*
X145732218Y-107695200D02*
X145770314Y-107619009D01*
X145770314Y-107619009D02*
X145770314Y-107580914D01*
X145770314Y-107580914D02*
X145732218Y-107504723D01*
X145732218Y-107504723D02*
X145656028Y-107466628D01*
X145656028Y-107466628D02*
X145541742Y-107466628D01*
X145541742Y-107466628D02*
X145465552Y-107428533D01*
X145465552Y-107428533D02*
X145427456Y-107352342D01*
X145427456Y-107352342D02*
X145427456Y-107314247D01*
X145427456Y-107314247D02*
X145465552Y-107238057D01*
X145465552Y-107238057D02*
X145541742Y-107199961D01*
X145541742Y-107199961D02*
X145656028Y-107199961D01*
X145656028Y-107199961D02*
X145732218Y-107238057D01*
X145998885Y-107199961D02*
X146303647Y-107199961D01*
X146113171Y-106933295D02*
X146113171Y-107619009D01*
X146113171Y-107619009D02*
X146151266Y-107695200D01*
X146151266Y-107695200D02*
X146227456Y-107733295D01*
X146227456Y-107733295D02*
X146303647Y-107733295D01*
X146913171Y-107733295D02*
X146913171Y-107314247D01*
X146913171Y-107314247D02*
X146875076Y-107238057D01*
X146875076Y-107238057D02*
X146798885Y-107199961D01*
X146798885Y-107199961D02*
X146646504Y-107199961D01*
X146646504Y-107199961D02*
X146570314Y-107238057D01*
X146913171Y-107695200D02*
X146836980Y-107733295D01*
X146836980Y-107733295D02*
X146646504Y-107733295D01*
X146646504Y-107733295D02*
X146570314Y-107695200D01*
X146570314Y-107695200D02*
X146532218Y-107619009D01*
X146532218Y-107619009D02*
X146532218Y-107542819D01*
X146532218Y-107542819D02*
X146570314Y-107466628D01*
X146570314Y-107466628D02*
X146646504Y-107428533D01*
X146646504Y-107428533D02*
X146836980Y-107428533D01*
X146836980Y-107428533D02*
X146913171Y-107390438D01*
X147179838Y-107199961D02*
X147484600Y-107199961D01*
X147294124Y-106933295D02*
X147294124Y-107619009D01*
X147294124Y-107619009D02*
X147332219Y-107695200D01*
X147332219Y-107695200D02*
X147408409Y-107733295D01*
X147408409Y-107733295D02*
X147484600Y-107733295D01*
X147751267Y-107733295D02*
X147751267Y-107199961D01*
X147751267Y-106933295D02*
X147713171Y-106971390D01*
X147713171Y-106971390D02*
X147751267Y-107009485D01*
X147751267Y-107009485D02*
X147789362Y-106971390D01*
X147789362Y-106971390D02*
X147751267Y-106933295D01*
X147751267Y-106933295D02*
X147751267Y-107009485D01*
X148246504Y-107733295D02*
X148170314Y-107695200D01*
X148170314Y-107695200D02*
X148132219Y-107657104D01*
X148132219Y-107657104D02*
X148094123Y-107580914D01*
X148094123Y-107580914D02*
X148094123Y-107352342D01*
X148094123Y-107352342D02*
X148132219Y-107276152D01*
X148132219Y-107276152D02*
X148170314Y-107238057D01*
X148170314Y-107238057D02*
X148246504Y-107199961D01*
X148246504Y-107199961D02*
X148360790Y-107199961D01*
X148360790Y-107199961D02*
X148436981Y-107238057D01*
X148436981Y-107238057D02*
X148475076Y-107276152D01*
X148475076Y-107276152D02*
X148513171Y-107352342D01*
X148513171Y-107352342D02*
X148513171Y-107580914D01*
X148513171Y-107580914D02*
X148475076Y-107657104D01*
X148475076Y-107657104D02*
X148436981Y-107695200D01*
X148436981Y-107695200D02*
X148360790Y-107733295D01*
X148360790Y-107733295D02*
X148246504Y-107733295D01*
X148856029Y-107199961D02*
X148856029Y-107733295D01*
X148856029Y-107276152D02*
X148894124Y-107238057D01*
X148894124Y-107238057D02*
X148970314Y-107199961D01*
X148970314Y-107199961D02*
X149084600Y-107199961D01*
X149084600Y-107199961D02*
X149160791Y-107238057D01*
X149160791Y-107238057D02*
X149198886Y-107314247D01*
X149198886Y-107314247D02*
X149198886Y-107733295D01*
X136817932Y-109021250D02*
X136817932Y-108221250D01*
X136817932Y-108526012D02*
X136894122Y-108487916D01*
X136894122Y-108487916D02*
X137046503Y-108487916D01*
X137046503Y-108487916D02*
X137122694Y-108526012D01*
X137122694Y-108526012D02*
X137160789Y-108564107D01*
X137160789Y-108564107D02*
X137198884Y-108640297D01*
X137198884Y-108640297D02*
X137198884Y-108868869D01*
X137198884Y-108868869D02*
X137160789Y-108945059D01*
X137160789Y-108945059D02*
X137122694Y-108983155D01*
X137122694Y-108983155D02*
X137046503Y-109021250D01*
X137046503Y-109021250D02*
X136894122Y-109021250D01*
X136894122Y-109021250D02*
X136817932Y-108983155D01*
X137465551Y-108487916D02*
X137656027Y-109021250D01*
X137846504Y-108487916D02*
X137656027Y-109021250D01*
X137656027Y-109021250D02*
X137579837Y-109211726D01*
X137579837Y-109211726D02*
X137541742Y-109249821D01*
X137541742Y-109249821D02*
X137465551Y-109287916D01*
X138913171Y-108221250D02*
X139065552Y-108221250D01*
X139065552Y-108221250D02*
X139141742Y-108259345D01*
X139141742Y-108259345D02*
X139217933Y-108335535D01*
X139217933Y-108335535D02*
X139256028Y-108487916D01*
X139256028Y-108487916D02*
X139256028Y-108754583D01*
X139256028Y-108754583D02*
X139217933Y-108906964D01*
X139217933Y-108906964D02*
X139141742Y-108983155D01*
X139141742Y-108983155D02*
X139065552Y-109021250D01*
X139065552Y-109021250D02*
X138913171Y-109021250D01*
X138913171Y-109021250D02*
X138836980Y-108983155D01*
X138836980Y-108983155D02*
X138760790Y-108906964D01*
X138760790Y-108906964D02*
X138722694Y-108754583D01*
X138722694Y-108754583D02*
X138722694Y-108487916D01*
X138722694Y-108487916D02*
X138760790Y-108335535D01*
X138760790Y-108335535D02*
X138836980Y-108259345D01*
X138836980Y-108259345D02*
X138913171Y-108221250D01*
X139598885Y-108602202D02*
X139865551Y-108602202D01*
X139979837Y-109021250D02*
X139598885Y-109021250D01*
X139598885Y-109021250D02*
X139598885Y-108221250D01*
X139598885Y-108221250D02*
X139979837Y-108221250D01*
X140741742Y-109021250D02*
X140284599Y-109021250D01*
X140513171Y-109021250D02*
X140513171Y-108221250D01*
X140513171Y-108221250D02*
X140436980Y-108335535D01*
X140436980Y-108335535D02*
X140360790Y-108411726D01*
X140360790Y-108411726D02*
X140284599Y-108449821D01*
X141541743Y-108945059D02*
X141503647Y-108983155D01*
X141503647Y-108983155D02*
X141389362Y-109021250D01*
X141389362Y-109021250D02*
X141313171Y-109021250D01*
X141313171Y-109021250D02*
X141198885Y-108983155D01*
X141198885Y-108983155D02*
X141122695Y-108906964D01*
X141122695Y-108906964D02*
X141084600Y-108830774D01*
X141084600Y-108830774D02*
X141046504Y-108678393D01*
X141046504Y-108678393D02*
X141046504Y-108564107D01*
X141046504Y-108564107D02*
X141084600Y-108411726D01*
X141084600Y-108411726D02*
X141122695Y-108335535D01*
X141122695Y-108335535D02*
X141198885Y-108259345D01*
X141198885Y-108259345D02*
X141313171Y-108221250D01*
X141313171Y-108221250D02*
X141389362Y-108221250D01*
X141389362Y-108221250D02*
X141503647Y-108259345D01*
X141503647Y-108259345D02*
X141541743Y-108297440D01*
X142303647Y-108259345D02*
X142227457Y-108221250D01*
X142227457Y-108221250D02*
X142113171Y-108221250D01*
X142113171Y-108221250D02*
X141998885Y-108259345D01*
X141998885Y-108259345D02*
X141922695Y-108335535D01*
X141922695Y-108335535D02*
X141884600Y-108411726D01*
X141884600Y-108411726D02*
X141846504Y-108564107D01*
X141846504Y-108564107D02*
X141846504Y-108678393D01*
X141846504Y-108678393D02*
X141884600Y-108830774D01*
X141884600Y-108830774D02*
X141922695Y-108906964D01*
X141922695Y-108906964D02*
X141998885Y-108983155D01*
X141998885Y-108983155D02*
X142113171Y-109021250D01*
X142113171Y-109021250D02*
X142189362Y-109021250D01*
X142189362Y-109021250D02*
X142303647Y-108983155D01*
X142303647Y-108983155D02*
X142341743Y-108945059D01*
X142341743Y-108945059D02*
X142341743Y-108678393D01*
X142341743Y-108678393D02*
X142189362Y-108678393D01*
X142646504Y-108983155D02*
X142760790Y-109021250D01*
X142760790Y-109021250D02*
X142951266Y-109021250D01*
X142951266Y-109021250D02*
X143027457Y-108983155D01*
X143027457Y-108983155D02*
X143065552Y-108945059D01*
X143065552Y-108945059D02*
X143103647Y-108868869D01*
X143103647Y-108868869D02*
X143103647Y-108792678D01*
X143103647Y-108792678D02*
X143065552Y-108716488D01*
X143065552Y-108716488D02*
X143027457Y-108678393D01*
X143027457Y-108678393D02*
X142951266Y-108640297D01*
X142951266Y-108640297D02*
X142798885Y-108602202D01*
X142798885Y-108602202D02*
X142722695Y-108564107D01*
X142722695Y-108564107D02*
X142684600Y-108526012D01*
X142684600Y-108526012D02*
X142646504Y-108449821D01*
X142646504Y-108449821D02*
X142646504Y-108373631D01*
X142646504Y-108373631D02*
X142684600Y-108297440D01*
X142684600Y-108297440D02*
X142722695Y-108259345D01*
X142722695Y-108259345D02*
X142798885Y-108221250D01*
X142798885Y-108221250D02*
X142989362Y-108221250D01*
X142989362Y-108221250D02*
X143103647Y-108259345D01*
X144703648Y-109021250D02*
X144665553Y-109021250D01*
X144665553Y-109021250D02*
X144589362Y-108983155D01*
X144589362Y-108983155D02*
X144475076Y-108868869D01*
X144475076Y-108868869D02*
X144284600Y-108640297D01*
X144284600Y-108640297D02*
X144208410Y-108526012D01*
X144208410Y-108526012D02*
X144170314Y-108411726D01*
X144170314Y-108411726D02*
X144170314Y-108335535D01*
X144170314Y-108335535D02*
X144208410Y-108259345D01*
X144208410Y-108259345D02*
X144284600Y-108221250D01*
X144284600Y-108221250D02*
X144322695Y-108221250D01*
X144322695Y-108221250D02*
X144398886Y-108259345D01*
X144398886Y-108259345D02*
X144436981Y-108335535D01*
X144436981Y-108335535D02*
X144436981Y-108373631D01*
X144436981Y-108373631D02*
X144398886Y-108449821D01*
X144398886Y-108449821D02*
X144360791Y-108487916D01*
X144360791Y-108487916D02*
X144132219Y-108640297D01*
X144132219Y-108640297D02*
X144094124Y-108678393D01*
X144094124Y-108678393D02*
X144056029Y-108754583D01*
X144056029Y-108754583D02*
X144056029Y-108868869D01*
X144056029Y-108868869D02*
X144094124Y-108945059D01*
X144094124Y-108945059D02*
X144132219Y-108983155D01*
X144132219Y-108983155D02*
X144208410Y-109021250D01*
X144208410Y-109021250D02*
X144322695Y-109021250D01*
X144322695Y-109021250D02*
X144398886Y-108983155D01*
X144398886Y-108983155D02*
X144436981Y-108945059D01*
X144436981Y-108945059D02*
X144551267Y-108792678D01*
X144551267Y-108792678D02*
X144589362Y-108678393D01*
X144589362Y-108678393D02*
X144589362Y-108602202D01*
X145656029Y-109021250D02*
X145656029Y-108221250D01*
X145656029Y-108221250D02*
X145846505Y-108221250D01*
X145846505Y-108221250D02*
X145960791Y-108259345D01*
X145960791Y-108259345D02*
X146036981Y-108335535D01*
X146036981Y-108335535D02*
X146075076Y-108411726D01*
X146075076Y-108411726D02*
X146113172Y-108564107D01*
X146113172Y-108564107D02*
X146113172Y-108678393D01*
X146113172Y-108678393D02*
X146075076Y-108830774D01*
X146075076Y-108830774D02*
X146036981Y-108906964D01*
X146036981Y-108906964D02*
X145960791Y-108983155D01*
X145960791Y-108983155D02*
X145846505Y-109021250D01*
X145846505Y-109021250D02*
X145656029Y-109021250D01*
X146913172Y-108945059D02*
X146875076Y-108983155D01*
X146875076Y-108983155D02*
X146760791Y-109021250D01*
X146760791Y-109021250D02*
X146684600Y-109021250D01*
X146684600Y-109021250D02*
X146570314Y-108983155D01*
X146570314Y-108983155D02*
X146494124Y-108906964D01*
X146494124Y-108906964D02*
X146456029Y-108830774D01*
X146456029Y-108830774D02*
X146417933Y-108678393D01*
X146417933Y-108678393D02*
X146417933Y-108564107D01*
X146417933Y-108564107D02*
X146456029Y-108411726D01*
X146456029Y-108411726D02*
X146494124Y-108335535D01*
X146494124Y-108335535D02*
X146570314Y-108259345D01*
X146570314Y-108259345D02*
X146684600Y-108221250D01*
X146684600Y-108221250D02*
X146760791Y-108221250D01*
X146760791Y-108221250D02*
X146875076Y-108259345D01*
X146875076Y-108259345D02*
X146913172Y-108297440D01*
X147179838Y-108221250D02*
X147675076Y-108221250D01*
X147675076Y-108221250D02*
X147408410Y-108526012D01*
X147408410Y-108526012D02*
X147522695Y-108526012D01*
X147522695Y-108526012D02*
X147598886Y-108564107D01*
X147598886Y-108564107D02*
X147636981Y-108602202D01*
X147636981Y-108602202D02*
X147675076Y-108678393D01*
X147675076Y-108678393D02*
X147675076Y-108868869D01*
X147675076Y-108868869D02*
X147636981Y-108945059D01*
X147636981Y-108945059D02*
X147598886Y-108983155D01*
X147598886Y-108983155D02*
X147522695Y-109021250D01*
X147522695Y-109021250D02*
X147294124Y-109021250D01*
X147294124Y-109021250D02*
X147217933Y-108983155D01*
X147217933Y-108983155D02*
X147179838Y-108945059D01*
X148017934Y-109021250D02*
X148017934Y-108221250D01*
X148017934Y-108221250D02*
X148284600Y-108792678D01*
X148284600Y-108792678D02*
X148551267Y-108221250D01*
X148551267Y-108221250D02*
X148551267Y-109021250D01*
X148932220Y-109021250D02*
X148932220Y-108221250D01*
X149389363Y-109021250D02*
X149046505Y-108564107D01*
X149389363Y-108221250D02*
X148932220Y-108678393D01*
X149998886Y-108602202D02*
X150113172Y-108640297D01*
X150113172Y-108640297D02*
X150151267Y-108678393D01*
X150151267Y-108678393D02*
X150189363Y-108754583D01*
X150189363Y-108754583D02*
X150189363Y-108868869D01*
X150189363Y-108868869D02*
X150151267Y-108945059D01*
X150151267Y-108945059D02*
X150113172Y-108983155D01*
X150113172Y-108983155D02*
X150036982Y-109021250D01*
X150036982Y-109021250D02*
X149732220Y-109021250D01*
X149732220Y-109021250D02*
X149732220Y-108221250D01*
X149732220Y-108221250D02*
X149998886Y-108221250D01*
X149998886Y-108221250D02*
X150075077Y-108259345D01*
X150075077Y-108259345D02*
X150113172Y-108297440D01*
X150113172Y-108297440D02*
X150151267Y-108373631D01*
X150151267Y-108373631D02*
X150151267Y-108449821D01*
X150151267Y-108449821D02*
X150113172Y-108526012D01*
X150113172Y-108526012D02*
X150075077Y-108564107D01*
X150075077Y-108564107D02*
X149998886Y-108602202D01*
X149998886Y-108602202D02*
X149732220Y-108602202D01*
X135884599Y-110309205D02*
X135884599Y-109509205D01*
X135884599Y-109509205D02*
X136189361Y-109509205D01*
X136189361Y-109509205D02*
X136265551Y-109547300D01*
X136265551Y-109547300D02*
X136303646Y-109585395D01*
X136303646Y-109585395D02*
X136341742Y-109661586D01*
X136341742Y-109661586D02*
X136341742Y-109775871D01*
X136341742Y-109775871D02*
X136303646Y-109852062D01*
X136303646Y-109852062D02*
X136265551Y-109890157D01*
X136265551Y-109890157D02*
X136189361Y-109928252D01*
X136189361Y-109928252D02*
X135884599Y-109928252D01*
X137141742Y-110233014D02*
X137103646Y-110271110D01*
X137103646Y-110271110D02*
X136989361Y-110309205D01*
X136989361Y-110309205D02*
X136913170Y-110309205D01*
X136913170Y-110309205D02*
X136798884Y-110271110D01*
X136798884Y-110271110D02*
X136722694Y-110194919D01*
X136722694Y-110194919D02*
X136684599Y-110118729D01*
X136684599Y-110118729D02*
X136646503Y-109966348D01*
X136646503Y-109966348D02*
X136646503Y-109852062D01*
X136646503Y-109852062D02*
X136684599Y-109699681D01*
X136684599Y-109699681D02*
X136722694Y-109623490D01*
X136722694Y-109623490D02*
X136798884Y-109547300D01*
X136798884Y-109547300D02*
X136913170Y-109509205D01*
X136913170Y-109509205D02*
X136989361Y-109509205D01*
X136989361Y-109509205D02*
X137103646Y-109547300D01*
X137103646Y-109547300D02*
X137141742Y-109585395D01*
X137751265Y-109890157D02*
X137865551Y-109928252D01*
X137865551Y-109928252D02*
X137903646Y-109966348D01*
X137903646Y-109966348D02*
X137941742Y-110042538D01*
X137941742Y-110042538D02*
X137941742Y-110156824D01*
X137941742Y-110156824D02*
X137903646Y-110233014D01*
X137903646Y-110233014D02*
X137865551Y-110271110D01*
X137865551Y-110271110D02*
X137789361Y-110309205D01*
X137789361Y-110309205D02*
X137484599Y-110309205D01*
X137484599Y-110309205D02*
X137484599Y-109509205D01*
X137484599Y-109509205D02*
X137751265Y-109509205D01*
X137751265Y-109509205D02*
X137827456Y-109547300D01*
X137827456Y-109547300D02*
X137865551Y-109585395D01*
X137865551Y-109585395D02*
X137903646Y-109661586D01*
X137903646Y-109661586D02*
X137903646Y-109737776D01*
X137903646Y-109737776D02*
X137865551Y-109813967D01*
X137865551Y-109813967D02*
X137827456Y-109852062D01*
X137827456Y-109852062D02*
X137751265Y-109890157D01*
X137751265Y-109890157D02*
X137484599Y-109890157D01*
X138894123Y-110309205D02*
X138894123Y-109509205D01*
X138894123Y-109813967D02*
X138970313Y-109775871D01*
X138970313Y-109775871D02*
X139122694Y-109775871D01*
X139122694Y-109775871D02*
X139198885Y-109813967D01*
X139198885Y-109813967D02*
X139236980Y-109852062D01*
X139236980Y-109852062D02*
X139275075Y-109928252D01*
X139275075Y-109928252D02*
X139275075Y-110156824D01*
X139275075Y-110156824D02*
X139236980Y-110233014D01*
X139236980Y-110233014D02*
X139198885Y-110271110D01*
X139198885Y-110271110D02*
X139122694Y-110309205D01*
X139122694Y-110309205D02*
X138970313Y-110309205D01*
X138970313Y-110309205D02*
X138894123Y-110271110D01*
X139541742Y-109775871D02*
X139732218Y-110309205D01*
X139922695Y-109775871D02*
X139732218Y-110309205D01*
X139732218Y-110309205D02*
X139656028Y-110499681D01*
X139656028Y-110499681D02*
X139617933Y-110537776D01*
X139617933Y-110537776D02*
X139541742Y-110575871D01*
X140989362Y-109509205D02*
X141141743Y-109509205D01*
X141141743Y-109509205D02*
X141217933Y-109547300D01*
X141217933Y-109547300D02*
X141294124Y-109623490D01*
X141294124Y-109623490D02*
X141332219Y-109775871D01*
X141332219Y-109775871D02*
X141332219Y-110042538D01*
X141332219Y-110042538D02*
X141294124Y-110194919D01*
X141294124Y-110194919D02*
X141217933Y-110271110D01*
X141217933Y-110271110D02*
X141141743Y-110309205D01*
X141141743Y-110309205D02*
X140989362Y-110309205D01*
X140989362Y-110309205D02*
X140913171Y-110271110D01*
X140913171Y-110271110D02*
X140836981Y-110194919D01*
X140836981Y-110194919D02*
X140798885Y-110042538D01*
X140798885Y-110042538D02*
X140798885Y-109775871D01*
X140798885Y-109775871D02*
X140836981Y-109623490D01*
X140836981Y-109623490D02*
X140913171Y-109547300D01*
X140913171Y-109547300D02*
X140989362Y-109509205D01*
X141675076Y-109890157D02*
X141941742Y-109890157D01*
X142056028Y-110309205D02*
X141675076Y-110309205D01*
X141675076Y-110309205D02*
X141675076Y-109509205D01*
X141675076Y-109509205D02*
X142056028Y-109509205D01*
X142436981Y-110309205D02*
X142589362Y-110309205D01*
X142589362Y-110309205D02*
X142665552Y-110271110D01*
X142665552Y-110271110D02*
X142703648Y-110233014D01*
X142703648Y-110233014D02*
X142779838Y-110118729D01*
X142779838Y-110118729D02*
X142817933Y-109966348D01*
X142817933Y-109966348D02*
X142817933Y-109661586D01*
X142817933Y-109661586D02*
X142779838Y-109585395D01*
X142779838Y-109585395D02*
X142741743Y-109547300D01*
X142741743Y-109547300D02*
X142665552Y-109509205D01*
X142665552Y-109509205D02*
X142513171Y-109509205D01*
X142513171Y-109509205D02*
X142436981Y-109547300D01*
X142436981Y-109547300D02*
X142398886Y-109585395D01*
X142398886Y-109585395D02*
X142360790Y-109661586D01*
X142360790Y-109661586D02*
X142360790Y-109852062D01*
X142360790Y-109852062D02*
X142398886Y-109928252D01*
X142398886Y-109928252D02*
X142436981Y-109966348D01*
X142436981Y-109966348D02*
X142513171Y-110004443D01*
X142513171Y-110004443D02*
X142665552Y-110004443D01*
X142665552Y-110004443D02*
X142741743Y-109966348D01*
X142741743Y-109966348D02*
X142779838Y-109928252D01*
X142779838Y-109928252D02*
X142817933Y-109852062D01*
X143122695Y-110271110D02*
X143236981Y-110309205D01*
X143236981Y-110309205D02*
X143427457Y-110309205D01*
X143427457Y-110309205D02*
X143503648Y-110271110D01*
X143503648Y-110271110D02*
X143541743Y-110233014D01*
X143541743Y-110233014D02*
X143579838Y-110156824D01*
X143579838Y-110156824D02*
X143579838Y-110080633D01*
X143579838Y-110080633D02*
X143541743Y-110004443D01*
X143541743Y-110004443D02*
X143503648Y-109966348D01*
X143503648Y-109966348D02*
X143427457Y-109928252D01*
X143427457Y-109928252D02*
X143275076Y-109890157D01*
X143275076Y-109890157D02*
X143198886Y-109852062D01*
X143198886Y-109852062D02*
X143160791Y-109813967D01*
X143160791Y-109813967D02*
X143122695Y-109737776D01*
X143122695Y-109737776D02*
X143122695Y-109661586D01*
X143122695Y-109661586D02*
X143160791Y-109585395D01*
X143160791Y-109585395D02*
X143198886Y-109547300D01*
X143198886Y-109547300D02*
X143275076Y-109509205D01*
X143275076Y-109509205D02*
X143465553Y-109509205D01*
X143465553Y-109509205D02*
X143579838Y-109547300D01*
X143884600Y-110080633D02*
X144265553Y-110080633D01*
X143808410Y-110309205D02*
X144075077Y-109509205D01*
X144075077Y-109509205D02*
X144341743Y-110309205D01*
X144608410Y-109509205D02*
X144608410Y-110156824D01*
X144608410Y-110156824D02*
X144646505Y-110233014D01*
X144646505Y-110233014D02*
X144684600Y-110271110D01*
X144684600Y-110271110D02*
X144760791Y-110309205D01*
X144760791Y-110309205D02*
X144913172Y-110309205D01*
X144913172Y-110309205D02*
X144989362Y-110271110D01*
X144989362Y-110271110D02*
X145027457Y-110233014D01*
X145027457Y-110233014D02*
X145065553Y-110156824D01*
X145065553Y-110156824D02*
X145065553Y-109509205D01*
X146475076Y-110309205D02*
X146017933Y-110309205D01*
X146246505Y-110309205D02*
X146246505Y-109509205D01*
X146246505Y-109509205D02*
X146170314Y-109623490D01*
X146170314Y-109623490D02*
X146094124Y-109699681D01*
X146094124Y-109699681D02*
X146017933Y-109737776D01*
X146970315Y-109509205D02*
X147046505Y-109509205D01*
X147046505Y-109509205D02*
X147122696Y-109547300D01*
X147122696Y-109547300D02*
X147160791Y-109585395D01*
X147160791Y-109585395D02*
X147198886Y-109661586D01*
X147198886Y-109661586D02*
X147236981Y-109813967D01*
X147236981Y-109813967D02*
X147236981Y-110004443D01*
X147236981Y-110004443D02*
X147198886Y-110156824D01*
X147198886Y-110156824D02*
X147160791Y-110233014D01*
X147160791Y-110233014D02*
X147122696Y-110271110D01*
X147122696Y-110271110D02*
X147046505Y-110309205D01*
X147046505Y-110309205D02*
X146970315Y-110309205D01*
X146970315Y-110309205D02*
X146894124Y-110271110D01*
X146894124Y-110271110D02*
X146856029Y-110233014D01*
X146856029Y-110233014D02*
X146817934Y-110156824D01*
X146817934Y-110156824D02*
X146779838Y-110004443D01*
X146779838Y-110004443D02*
X146779838Y-109813967D01*
X146779838Y-109813967D02*
X146817934Y-109661586D01*
X146817934Y-109661586D02*
X146856029Y-109585395D01*
X146856029Y-109585395D02*
X146894124Y-109547300D01*
X146894124Y-109547300D02*
X146970315Y-109509205D01*
X148151267Y-109471110D02*
X147465553Y-110499681D01*
X148379838Y-109585395D02*
X148417934Y-109547300D01*
X148417934Y-109547300D02*
X148494124Y-109509205D01*
X148494124Y-109509205D02*
X148684600Y-109509205D01*
X148684600Y-109509205D02*
X148760791Y-109547300D01*
X148760791Y-109547300D02*
X148798886Y-109585395D01*
X148798886Y-109585395D02*
X148836981Y-109661586D01*
X148836981Y-109661586D02*
X148836981Y-109737776D01*
X148836981Y-109737776D02*
X148798886Y-109852062D01*
X148798886Y-109852062D02*
X148341743Y-110309205D01*
X148341743Y-110309205D02*
X148836981Y-110309205D01*
X149332220Y-109509205D02*
X149408410Y-109509205D01*
X149408410Y-109509205D02*
X149484601Y-109547300D01*
X149484601Y-109547300D02*
X149522696Y-109585395D01*
X149522696Y-109585395D02*
X149560791Y-109661586D01*
X149560791Y-109661586D02*
X149598886Y-109813967D01*
X149598886Y-109813967D02*
X149598886Y-110004443D01*
X149598886Y-110004443D02*
X149560791Y-110156824D01*
X149560791Y-110156824D02*
X149522696Y-110233014D01*
X149522696Y-110233014D02*
X149484601Y-110271110D01*
X149484601Y-110271110D02*
X149408410Y-110309205D01*
X149408410Y-110309205D02*
X149332220Y-110309205D01*
X149332220Y-110309205D02*
X149256029Y-110271110D01*
X149256029Y-110271110D02*
X149217934Y-110233014D01*
X149217934Y-110233014D02*
X149179839Y-110156824D01*
X149179839Y-110156824D02*
X149141743Y-110004443D01*
X149141743Y-110004443D02*
X149141743Y-109813967D01*
X149141743Y-109813967D02*
X149179839Y-109661586D01*
X149179839Y-109661586D02*
X149217934Y-109585395D01*
X149217934Y-109585395D02*
X149256029Y-109547300D01*
X149256029Y-109547300D02*
X149332220Y-109509205D01*
X149903648Y-109585395D02*
X149941744Y-109547300D01*
X149941744Y-109547300D02*
X150017934Y-109509205D01*
X150017934Y-109509205D02*
X150208410Y-109509205D01*
X150208410Y-109509205D02*
X150284601Y-109547300D01*
X150284601Y-109547300D02*
X150322696Y-109585395D01*
X150322696Y-109585395D02*
X150360791Y-109661586D01*
X150360791Y-109661586D02*
X150360791Y-109737776D01*
X150360791Y-109737776D02*
X150322696Y-109852062D01*
X150322696Y-109852062D02*
X149865553Y-110309205D01*
X149865553Y-110309205D02*
X150360791Y-110309205D01*
X151046506Y-109775871D02*
X151046506Y-110309205D01*
X150856030Y-109471110D02*
X150665553Y-110042538D01*
X150665553Y-110042538D02*
X151160792Y-110042538D01*
D10*
X134531100Y-106305600D02*
X152438100Y-106305600D01*
X152438100Y-111004600D01*
X134531100Y-111004600D01*
X134531100Y-106305600D01*
D12*
X101176971Y-101443809D02*
X101010305Y-101205714D01*
X100891257Y-101443809D02*
X100891257Y-100943809D01*
X100891257Y-100943809D02*
X101081733Y-100943809D01*
X101081733Y-100943809D02*
X101129352Y-100967619D01*
X101129352Y-100967619D02*
X101153162Y-100991428D01*
X101153162Y-100991428D02*
X101176971Y-101039047D01*
X101176971Y-101039047D02*
X101176971Y-101110476D01*
X101176971Y-101110476D02*
X101153162Y-101158095D01*
X101153162Y-101158095D02*
X101129352Y-101181904D01*
X101129352Y-101181904D02*
X101081733Y-101205714D01*
X101081733Y-101205714D02*
X100891257Y-101205714D01*
X101367448Y-100991428D02*
X101391257Y-100967619D01*
X101391257Y-100967619D02*
X101438876Y-100943809D01*
X101438876Y-100943809D02*
X101557924Y-100943809D01*
X101557924Y-100943809D02*
X101605543Y-100967619D01*
X101605543Y-100967619D02*
X101629352Y-100991428D01*
X101629352Y-100991428D02*
X101653162Y-101039047D01*
X101653162Y-101039047D02*
X101653162Y-101086666D01*
X101653162Y-101086666D02*
X101629352Y-101158095D01*
X101629352Y-101158095D02*
X101343638Y-101443809D01*
X101343638Y-101443809D02*
X101653162Y-101443809D01*
X101962685Y-100943809D02*
X102010304Y-100943809D01*
X102010304Y-100943809D02*
X102057923Y-100967619D01*
X102057923Y-100967619D02*
X102081733Y-100991428D01*
X102081733Y-100991428D02*
X102105542Y-101039047D01*
X102105542Y-101039047D02*
X102129352Y-101134285D01*
X102129352Y-101134285D02*
X102129352Y-101253333D01*
X102129352Y-101253333D02*
X102105542Y-101348571D01*
X102105542Y-101348571D02*
X102081733Y-101396190D01*
X102081733Y-101396190D02*
X102057923Y-101420000D01*
X102057923Y-101420000D02*
X102010304Y-101443809D01*
X102010304Y-101443809D02*
X101962685Y-101443809D01*
X101962685Y-101443809D02*
X101915066Y-101420000D01*
X101915066Y-101420000D02*
X101891257Y-101396190D01*
X101891257Y-101396190D02*
X101867447Y-101348571D01*
X101867447Y-101348571D02*
X101843638Y-101253333D01*
X101843638Y-101253333D02*
X101843638Y-101134285D01*
X101843638Y-101134285D02*
X101867447Y-101039047D01*
X101867447Y-101039047D02*
X101891257Y-100991428D01*
X101891257Y-100991428D02*
X101915066Y-100967619D01*
X101915066Y-100967619D02*
X101962685Y-100943809D01*
X101129352Y-100656409D02*
X101129352Y-100156409D01*
X101129352Y-100156409D02*
X101248400Y-100156409D01*
X101248400Y-100156409D02*
X101319828Y-100180219D01*
X101319828Y-100180219D02*
X101367447Y-100227838D01*
X101367447Y-100227838D02*
X101391257Y-100275457D01*
X101391257Y-100275457D02*
X101415066Y-100370695D01*
X101415066Y-100370695D02*
X101415066Y-100442123D01*
X101415066Y-100442123D02*
X101391257Y-100537361D01*
X101391257Y-100537361D02*
X101367447Y-100584980D01*
X101367447Y-100584980D02*
X101319828Y-100632600D01*
X101319828Y-100632600D02*
X101248400Y-100656409D01*
X101248400Y-100656409D02*
X101129352Y-100656409D01*
X101605543Y-100204028D02*
X101629352Y-100180219D01*
X101629352Y-100180219D02*
X101676971Y-100156409D01*
X101676971Y-100156409D02*
X101796019Y-100156409D01*
X101796019Y-100156409D02*
X101843638Y-100180219D01*
X101843638Y-100180219D02*
X101867447Y-100204028D01*
X101867447Y-100204028D02*
X101891257Y-100251647D01*
X101891257Y-100251647D02*
X101891257Y-100299266D01*
X101891257Y-100299266D02*
X101867447Y-100370695D01*
X101867447Y-100370695D02*
X101581733Y-100656409D01*
X101581733Y-100656409D02*
X101891257Y-100656409D01*
X138895971Y-83619609D02*
X138729305Y-83381514D01*
X138610257Y-83619609D02*
X138610257Y-83119609D01*
X138610257Y-83119609D02*
X138800733Y-83119609D01*
X138800733Y-83119609D02*
X138848352Y-83143419D01*
X138848352Y-83143419D02*
X138872162Y-83167228D01*
X138872162Y-83167228D02*
X138895971Y-83214847D01*
X138895971Y-83214847D02*
X138895971Y-83286276D01*
X138895971Y-83286276D02*
X138872162Y-83333895D01*
X138872162Y-83333895D02*
X138848352Y-83357704D01*
X138848352Y-83357704D02*
X138800733Y-83381514D01*
X138800733Y-83381514D02*
X138610257Y-83381514D01*
X139372162Y-83619609D02*
X139086448Y-83619609D01*
X139229305Y-83619609D02*
X139229305Y-83119609D01*
X139229305Y-83119609D02*
X139181686Y-83191038D01*
X139181686Y-83191038D02*
X139134067Y-83238657D01*
X139134067Y-83238657D02*
X139086448Y-83262466D01*
X139562638Y-83167228D02*
X139586447Y-83143419D01*
X139586447Y-83143419D02*
X139634066Y-83119609D01*
X139634066Y-83119609D02*
X139753114Y-83119609D01*
X139753114Y-83119609D02*
X139800733Y-83143419D01*
X139800733Y-83143419D02*
X139824542Y-83167228D01*
X139824542Y-83167228D02*
X139848352Y-83214847D01*
X139848352Y-83214847D02*
X139848352Y-83262466D01*
X139848352Y-83262466D02*
X139824542Y-83333895D01*
X139824542Y-83333895D02*
X139538828Y-83619609D01*
X139538828Y-83619609D02*
X139848352Y-83619609D01*
X128897866Y-86939190D02*
X128874057Y-86963000D01*
X128874057Y-86963000D02*
X128802628Y-86986809D01*
X128802628Y-86986809D02*
X128755009Y-86986809D01*
X128755009Y-86986809D02*
X128683581Y-86963000D01*
X128683581Y-86963000D02*
X128635962Y-86915380D01*
X128635962Y-86915380D02*
X128612152Y-86867761D01*
X128612152Y-86867761D02*
X128588343Y-86772523D01*
X128588343Y-86772523D02*
X128588343Y-86701095D01*
X128588343Y-86701095D02*
X128612152Y-86605857D01*
X128612152Y-86605857D02*
X128635962Y-86558238D01*
X128635962Y-86558238D02*
X128683581Y-86510619D01*
X128683581Y-86510619D02*
X128755009Y-86486809D01*
X128755009Y-86486809D02*
X128802628Y-86486809D01*
X128802628Y-86486809D02*
X128874057Y-86510619D01*
X128874057Y-86510619D02*
X128897866Y-86534428D01*
X129064533Y-86486809D02*
X129374057Y-86486809D01*
X129374057Y-86486809D02*
X129207390Y-86677285D01*
X129207390Y-86677285D02*
X129278819Y-86677285D01*
X129278819Y-86677285D02*
X129326438Y-86701095D01*
X129326438Y-86701095D02*
X129350247Y-86724904D01*
X129350247Y-86724904D02*
X129374057Y-86772523D01*
X129374057Y-86772523D02*
X129374057Y-86891571D01*
X129374057Y-86891571D02*
X129350247Y-86939190D01*
X129350247Y-86939190D02*
X129326438Y-86963000D01*
X129326438Y-86963000D02*
X129278819Y-86986809D01*
X129278819Y-86986809D02*
X129135962Y-86986809D01*
X129135962Y-86986809D02*
X129088343Y-86963000D01*
X129088343Y-86963000D02*
X129064533Y-86939190D01*
X125672066Y-99237609D02*
X125505400Y-98999514D01*
X125386352Y-99237609D02*
X125386352Y-98737609D01*
X125386352Y-98737609D02*
X125576828Y-98737609D01*
X125576828Y-98737609D02*
X125624447Y-98761419D01*
X125624447Y-98761419D02*
X125648257Y-98785228D01*
X125648257Y-98785228D02*
X125672066Y-98832847D01*
X125672066Y-98832847D02*
X125672066Y-98904276D01*
X125672066Y-98904276D02*
X125648257Y-98951895D01*
X125648257Y-98951895D02*
X125624447Y-98975704D01*
X125624447Y-98975704D02*
X125576828Y-98999514D01*
X125576828Y-98999514D02*
X125386352Y-98999514D01*
X125838733Y-98737609D02*
X126148257Y-98737609D01*
X126148257Y-98737609D02*
X125981590Y-98928085D01*
X125981590Y-98928085D02*
X126053019Y-98928085D01*
X126053019Y-98928085D02*
X126100638Y-98951895D01*
X126100638Y-98951895D02*
X126124447Y-98975704D01*
X126124447Y-98975704D02*
X126148257Y-99023323D01*
X126148257Y-99023323D02*
X126148257Y-99142371D01*
X126148257Y-99142371D02*
X126124447Y-99189990D01*
X126124447Y-99189990D02*
X126100638Y-99213800D01*
X126100638Y-99213800D02*
X126053019Y-99237609D01*
X126053019Y-99237609D02*
X125910162Y-99237609D01*
X125910162Y-99237609D02*
X125862543Y-99213800D01*
X125862543Y-99213800D02*
X125838733Y-99189990D01*
X164057971Y-86642209D02*
X163891305Y-86404114D01*
X163772257Y-86642209D02*
X163772257Y-86142209D01*
X163772257Y-86142209D02*
X163962733Y-86142209D01*
X163962733Y-86142209D02*
X164010352Y-86166019D01*
X164010352Y-86166019D02*
X164034162Y-86189828D01*
X164034162Y-86189828D02*
X164057971Y-86237447D01*
X164057971Y-86237447D02*
X164057971Y-86308876D01*
X164057971Y-86308876D02*
X164034162Y-86356495D01*
X164034162Y-86356495D02*
X164010352Y-86380304D01*
X164010352Y-86380304D02*
X163962733Y-86404114D01*
X163962733Y-86404114D02*
X163772257Y-86404114D01*
X164534162Y-86642209D02*
X164248448Y-86642209D01*
X164391305Y-86642209D02*
X164391305Y-86142209D01*
X164391305Y-86142209D02*
X164343686Y-86213638D01*
X164343686Y-86213638D02*
X164296067Y-86261257D01*
X164296067Y-86261257D02*
X164248448Y-86285066D01*
X164843685Y-86142209D02*
X164891304Y-86142209D01*
X164891304Y-86142209D02*
X164938923Y-86166019D01*
X164938923Y-86166019D02*
X164962733Y-86189828D01*
X164962733Y-86189828D02*
X164986542Y-86237447D01*
X164986542Y-86237447D02*
X165010352Y-86332685D01*
X165010352Y-86332685D02*
X165010352Y-86451733D01*
X165010352Y-86451733D02*
X164986542Y-86546971D01*
X164986542Y-86546971D02*
X164962733Y-86594590D01*
X164962733Y-86594590D02*
X164938923Y-86618400D01*
X164938923Y-86618400D02*
X164891304Y-86642209D01*
X164891304Y-86642209D02*
X164843685Y-86642209D01*
X164843685Y-86642209D02*
X164796066Y-86618400D01*
X164796066Y-86618400D02*
X164772257Y-86594590D01*
X164772257Y-86594590D02*
X164748447Y-86546971D01*
X164748447Y-86546971D02*
X164724638Y-86451733D01*
X164724638Y-86451733D02*
X164724638Y-86332685D01*
X164724638Y-86332685D02*
X164748447Y-86237447D01*
X164748447Y-86237447D02*
X164772257Y-86189828D01*
X164772257Y-86189828D02*
X164796066Y-86166019D01*
X164796066Y-86166019D02*
X164843685Y-86142209D01*
X103996371Y-82927209D02*
X103829705Y-82689114D01*
X103710657Y-82927209D02*
X103710657Y-82427209D01*
X103710657Y-82427209D02*
X103901133Y-82427209D01*
X103901133Y-82427209D02*
X103948752Y-82451019D01*
X103948752Y-82451019D02*
X103972562Y-82474828D01*
X103972562Y-82474828D02*
X103996371Y-82522447D01*
X103996371Y-82522447D02*
X103996371Y-82593876D01*
X103996371Y-82593876D02*
X103972562Y-82641495D01*
X103972562Y-82641495D02*
X103948752Y-82665304D01*
X103948752Y-82665304D02*
X103901133Y-82689114D01*
X103901133Y-82689114D02*
X103710657Y-82689114D01*
X104472562Y-82927209D02*
X104186848Y-82927209D01*
X104329705Y-82927209D02*
X104329705Y-82427209D01*
X104329705Y-82427209D02*
X104282086Y-82498638D01*
X104282086Y-82498638D02*
X104234467Y-82546257D01*
X104234467Y-82546257D02*
X104186848Y-82570066D01*
X104924942Y-82427209D02*
X104686847Y-82427209D01*
X104686847Y-82427209D02*
X104663038Y-82665304D01*
X104663038Y-82665304D02*
X104686847Y-82641495D01*
X104686847Y-82641495D02*
X104734466Y-82617685D01*
X104734466Y-82617685D02*
X104853514Y-82617685D01*
X104853514Y-82617685D02*
X104901133Y-82641495D01*
X104901133Y-82641495D02*
X104924942Y-82665304D01*
X104924942Y-82665304D02*
X104948752Y-82712923D01*
X104948752Y-82712923D02*
X104948752Y-82831971D01*
X104948752Y-82831971D02*
X104924942Y-82879590D01*
X104924942Y-82879590D02*
X104901133Y-82903400D01*
X104901133Y-82903400D02*
X104853514Y-82927209D01*
X104853514Y-82927209D02*
X104734466Y-82927209D01*
X104734466Y-82927209D02*
X104686847Y-82903400D01*
X104686847Y-82903400D02*
X104663038Y-82879590D01*
X157117266Y-89693390D02*
X157093457Y-89717200D01*
X157093457Y-89717200D02*
X157022028Y-89741009D01*
X157022028Y-89741009D02*
X156974409Y-89741009D01*
X156974409Y-89741009D02*
X156902981Y-89717200D01*
X156902981Y-89717200D02*
X156855362Y-89669580D01*
X156855362Y-89669580D02*
X156831552Y-89621961D01*
X156831552Y-89621961D02*
X156807743Y-89526723D01*
X156807743Y-89526723D02*
X156807743Y-89455295D01*
X156807743Y-89455295D02*
X156831552Y-89360057D01*
X156831552Y-89360057D02*
X156855362Y-89312438D01*
X156855362Y-89312438D02*
X156902981Y-89264819D01*
X156902981Y-89264819D02*
X156974409Y-89241009D01*
X156974409Y-89241009D02*
X157022028Y-89241009D01*
X157022028Y-89241009D02*
X157093457Y-89264819D01*
X157093457Y-89264819D02*
X157117266Y-89288628D01*
X157569647Y-89241009D02*
X157331552Y-89241009D01*
X157331552Y-89241009D02*
X157307743Y-89479104D01*
X157307743Y-89479104D02*
X157331552Y-89455295D01*
X157331552Y-89455295D02*
X157379171Y-89431485D01*
X157379171Y-89431485D02*
X157498219Y-89431485D01*
X157498219Y-89431485D02*
X157545838Y-89455295D01*
X157545838Y-89455295D02*
X157569647Y-89479104D01*
X157569647Y-89479104D02*
X157593457Y-89526723D01*
X157593457Y-89526723D02*
X157593457Y-89645771D01*
X157593457Y-89645771D02*
X157569647Y-89693390D01*
X157569647Y-89693390D02*
X157545838Y-89717200D01*
X157545838Y-89717200D02*
X157498219Y-89741009D01*
X157498219Y-89741009D02*
X157379171Y-89741009D01*
X157379171Y-89741009D02*
X157331552Y-89717200D01*
X157331552Y-89717200D02*
X157307743Y-89693390D01*
X104021771Y-83714609D02*
X103855105Y-83476514D01*
X103736057Y-83714609D02*
X103736057Y-83214609D01*
X103736057Y-83214609D02*
X103926533Y-83214609D01*
X103926533Y-83214609D02*
X103974152Y-83238419D01*
X103974152Y-83238419D02*
X103997962Y-83262228D01*
X103997962Y-83262228D02*
X104021771Y-83309847D01*
X104021771Y-83309847D02*
X104021771Y-83381276D01*
X104021771Y-83381276D02*
X103997962Y-83428895D01*
X103997962Y-83428895D02*
X103974152Y-83452704D01*
X103974152Y-83452704D02*
X103926533Y-83476514D01*
X103926533Y-83476514D02*
X103736057Y-83476514D01*
X104497962Y-83714609D02*
X104212248Y-83714609D01*
X104355105Y-83714609D02*
X104355105Y-83214609D01*
X104355105Y-83214609D02*
X104307486Y-83286038D01*
X104307486Y-83286038D02*
X104259867Y-83333657D01*
X104259867Y-83333657D02*
X104212248Y-83357466D01*
X104664628Y-83214609D02*
X104997961Y-83214609D01*
X104997961Y-83214609D02*
X104783676Y-83714609D01*
X135720971Y-83615209D02*
X135554305Y-83377114D01*
X135435257Y-83615209D02*
X135435257Y-83115209D01*
X135435257Y-83115209D02*
X135625733Y-83115209D01*
X135625733Y-83115209D02*
X135673352Y-83139019D01*
X135673352Y-83139019D02*
X135697162Y-83162828D01*
X135697162Y-83162828D02*
X135720971Y-83210447D01*
X135720971Y-83210447D02*
X135720971Y-83281876D01*
X135720971Y-83281876D02*
X135697162Y-83329495D01*
X135697162Y-83329495D02*
X135673352Y-83353304D01*
X135673352Y-83353304D02*
X135625733Y-83377114D01*
X135625733Y-83377114D02*
X135435257Y-83377114D01*
X136197162Y-83615209D02*
X135911448Y-83615209D01*
X136054305Y-83615209D02*
X136054305Y-83115209D01*
X136054305Y-83115209D02*
X136006686Y-83186638D01*
X136006686Y-83186638D02*
X135959067Y-83234257D01*
X135959067Y-83234257D02*
X135911448Y-83258066D01*
X136482876Y-83329495D02*
X136435257Y-83305685D01*
X136435257Y-83305685D02*
X136411447Y-83281876D01*
X136411447Y-83281876D02*
X136387638Y-83234257D01*
X136387638Y-83234257D02*
X136387638Y-83210447D01*
X136387638Y-83210447D02*
X136411447Y-83162828D01*
X136411447Y-83162828D02*
X136435257Y-83139019D01*
X136435257Y-83139019D02*
X136482876Y-83115209D01*
X136482876Y-83115209D02*
X136578114Y-83115209D01*
X136578114Y-83115209D02*
X136625733Y-83139019D01*
X136625733Y-83139019D02*
X136649542Y-83162828D01*
X136649542Y-83162828D02*
X136673352Y-83210447D01*
X136673352Y-83210447D02*
X136673352Y-83234257D01*
X136673352Y-83234257D02*
X136649542Y-83281876D01*
X136649542Y-83281876D02*
X136625733Y-83305685D01*
X136625733Y-83305685D02*
X136578114Y-83329495D01*
X136578114Y-83329495D02*
X136482876Y-83329495D01*
X136482876Y-83329495D02*
X136435257Y-83353304D01*
X136435257Y-83353304D02*
X136411447Y-83377114D01*
X136411447Y-83377114D02*
X136387638Y-83424733D01*
X136387638Y-83424733D02*
X136387638Y-83519971D01*
X136387638Y-83519971D02*
X136411447Y-83567590D01*
X136411447Y-83567590D02*
X136435257Y-83591400D01*
X136435257Y-83591400D02*
X136482876Y-83615209D01*
X136482876Y-83615209D02*
X136578114Y-83615209D01*
X136578114Y-83615209D02*
X136625733Y-83591400D01*
X136625733Y-83591400D02*
X136649542Y-83567590D01*
X136649542Y-83567590D02*
X136673352Y-83519971D01*
X136673352Y-83519971D02*
X136673352Y-83424733D01*
X136673352Y-83424733D02*
X136649542Y-83377114D01*
X136649542Y-83377114D02*
X136625733Y-83353304D01*
X136625733Y-83353304D02*
X136578114Y-83329495D01*
X167346333Y-105966909D02*
X167346333Y-106324052D01*
X167346333Y-106324052D02*
X167322524Y-106395480D01*
X167322524Y-106395480D02*
X167274905Y-106443100D01*
X167274905Y-106443100D02*
X167203476Y-106466909D01*
X167203476Y-106466909D02*
X167155857Y-106466909D01*
X167560619Y-106014528D02*
X167584428Y-105990719D01*
X167584428Y-105990719D02*
X167632047Y-105966909D01*
X167632047Y-105966909D02*
X167751095Y-105966909D01*
X167751095Y-105966909D02*
X167798714Y-105990719D01*
X167798714Y-105990719D02*
X167822523Y-106014528D01*
X167822523Y-106014528D02*
X167846333Y-106062147D01*
X167846333Y-106062147D02*
X167846333Y-106109766D01*
X167846333Y-106109766D02*
X167822523Y-106181195D01*
X167822523Y-106181195D02*
X167536809Y-106466909D01*
X167536809Y-106466909D02*
X167846333Y-106466909D01*
X122624066Y-94430609D02*
X122457400Y-94192514D01*
X122338352Y-94430609D02*
X122338352Y-93930609D01*
X122338352Y-93930609D02*
X122528828Y-93930609D01*
X122528828Y-93930609D02*
X122576447Y-93954419D01*
X122576447Y-93954419D02*
X122600257Y-93978228D01*
X122600257Y-93978228D02*
X122624066Y-94025847D01*
X122624066Y-94025847D02*
X122624066Y-94097276D01*
X122624066Y-94097276D02*
X122600257Y-94144895D01*
X122600257Y-94144895D02*
X122576447Y-94168704D01*
X122576447Y-94168704D02*
X122528828Y-94192514D01*
X122528828Y-94192514D02*
X122338352Y-94192514D01*
X123052638Y-94097276D02*
X123052638Y-94430609D01*
X122933590Y-93906800D02*
X122814543Y-94263942D01*
X122814543Y-94263942D02*
X123124066Y-94263942D01*
X130752066Y-94030609D02*
X130585400Y-93792514D01*
X130466352Y-94030609D02*
X130466352Y-93530609D01*
X130466352Y-93530609D02*
X130656828Y-93530609D01*
X130656828Y-93530609D02*
X130704447Y-93554419D01*
X130704447Y-93554419D02*
X130728257Y-93578228D01*
X130728257Y-93578228D02*
X130752066Y-93625847D01*
X130752066Y-93625847D02*
X130752066Y-93697276D01*
X130752066Y-93697276D02*
X130728257Y-93744895D01*
X130728257Y-93744895D02*
X130704447Y-93768704D01*
X130704447Y-93768704D02*
X130656828Y-93792514D01*
X130656828Y-93792514D02*
X130466352Y-93792514D01*
X131204447Y-93530609D02*
X130966352Y-93530609D01*
X130966352Y-93530609D02*
X130942543Y-93768704D01*
X130942543Y-93768704D02*
X130966352Y-93744895D01*
X130966352Y-93744895D02*
X131013971Y-93721085D01*
X131013971Y-93721085D02*
X131133019Y-93721085D01*
X131133019Y-93721085D02*
X131180638Y-93744895D01*
X131180638Y-93744895D02*
X131204447Y-93768704D01*
X131204447Y-93768704D02*
X131228257Y-93816323D01*
X131228257Y-93816323D02*
X131228257Y-93935371D01*
X131228257Y-93935371D02*
X131204447Y-93982990D01*
X131204447Y-93982990D02*
X131180638Y-94006800D01*
X131180638Y-94006800D02*
X131133019Y-94030609D01*
X131133019Y-94030609D02*
X131013971Y-94030609D01*
X131013971Y-94030609D02*
X130966352Y-94006800D01*
X130966352Y-94006800D02*
X130942543Y-93982990D01*
X126977780Y-94205228D02*
X126930161Y-94181419D01*
X126930161Y-94181419D02*
X126882542Y-94133800D01*
X126882542Y-94133800D02*
X126811114Y-94062371D01*
X126811114Y-94062371D02*
X126763495Y-94038561D01*
X126763495Y-94038561D02*
X126715876Y-94038561D01*
X126739685Y-94157609D02*
X126692066Y-94133800D01*
X126692066Y-94133800D02*
X126644447Y-94086180D01*
X126644447Y-94086180D02*
X126620638Y-93990942D01*
X126620638Y-93990942D02*
X126620638Y-93824276D01*
X126620638Y-93824276D02*
X126644447Y-93729038D01*
X126644447Y-93729038D02*
X126692066Y-93681419D01*
X126692066Y-93681419D02*
X126739685Y-93657609D01*
X126739685Y-93657609D02*
X126834923Y-93657609D01*
X126834923Y-93657609D02*
X126882542Y-93681419D01*
X126882542Y-93681419D02*
X126930161Y-93729038D01*
X126930161Y-93729038D02*
X126953971Y-93824276D01*
X126953971Y-93824276D02*
X126953971Y-93990942D01*
X126953971Y-93990942D02*
X126930161Y-94086180D01*
X126930161Y-94086180D02*
X126882542Y-94133800D01*
X126882542Y-94133800D02*
X126834923Y-94157609D01*
X126834923Y-94157609D02*
X126739685Y-94157609D01*
X127144448Y-93705228D02*
X127168257Y-93681419D01*
X127168257Y-93681419D02*
X127215876Y-93657609D01*
X127215876Y-93657609D02*
X127334924Y-93657609D01*
X127334924Y-93657609D02*
X127382543Y-93681419D01*
X127382543Y-93681419D02*
X127406352Y-93705228D01*
X127406352Y-93705228D02*
X127430162Y-93752847D01*
X127430162Y-93752847D02*
X127430162Y-93800466D01*
X127430162Y-93800466D02*
X127406352Y-93871895D01*
X127406352Y-93871895D02*
X127120638Y-94157609D01*
X127120638Y-94157609D02*
X127430162Y-94157609D01*
X122385971Y-99237609D02*
X122219305Y-98999514D01*
X122100257Y-99237609D02*
X122100257Y-98737609D01*
X122100257Y-98737609D02*
X122290733Y-98737609D01*
X122290733Y-98737609D02*
X122338352Y-98761419D01*
X122338352Y-98761419D02*
X122362162Y-98785228D01*
X122362162Y-98785228D02*
X122385971Y-98832847D01*
X122385971Y-98832847D02*
X122385971Y-98904276D01*
X122385971Y-98904276D02*
X122362162Y-98951895D01*
X122362162Y-98951895D02*
X122338352Y-98975704D01*
X122338352Y-98975704D02*
X122290733Y-98999514D01*
X122290733Y-98999514D02*
X122100257Y-98999514D01*
X122862162Y-99237609D02*
X122576448Y-99237609D01*
X122719305Y-99237609D02*
X122719305Y-98737609D01*
X122719305Y-98737609D02*
X122671686Y-98809038D01*
X122671686Y-98809038D02*
X122624067Y-98856657D01*
X122624067Y-98856657D02*
X122576448Y-98880466D01*
X123100257Y-99237609D02*
X123195495Y-99237609D01*
X123195495Y-99237609D02*
X123243114Y-99213800D01*
X123243114Y-99213800D02*
X123266923Y-99189990D01*
X123266923Y-99189990D02*
X123314542Y-99118561D01*
X123314542Y-99118561D02*
X123338352Y-99023323D01*
X123338352Y-99023323D02*
X123338352Y-98832847D01*
X123338352Y-98832847D02*
X123314542Y-98785228D01*
X123314542Y-98785228D02*
X123290733Y-98761419D01*
X123290733Y-98761419D02*
X123243114Y-98737609D01*
X123243114Y-98737609D02*
X123147876Y-98737609D01*
X123147876Y-98737609D02*
X123100257Y-98761419D01*
X123100257Y-98761419D02*
X123076447Y-98785228D01*
X123076447Y-98785228D02*
X123052638Y-98832847D01*
X123052638Y-98832847D02*
X123052638Y-98951895D01*
X123052638Y-98951895D02*
X123076447Y-98999514D01*
X123076447Y-98999514D02*
X123100257Y-99023323D01*
X123100257Y-99023323D02*
X123147876Y-99047133D01*
X123147876Y-99047133D02*
X123243114Y-99047133D01*
X123243114Y-99047133D02*
X123290733Y-99023323D01*
X123290733Y-99023323D02*
X123314542Y-98999514D01*
X123314542Y-98999514D02*
X123338352Y-98951895D01*
X143749733Y-75474209D02*
X143749733Y-75831352D01*
X143749733Y-75831352D02*
X143725924Y-75902780D01*
X143725924Y-75902780D02*
X143678305Y-75950400D01*
X143678305Y-75950400D02*
X143606876Y-75974209D01*
X143606876Y-75974209D02*
X143559257Y-75974209D01*
X144202114Y-75640876D02*
X144202114Y-75974209D01*
X144083066Y-75450400D02*
X143964019Y-75807542D01*
X143964019Y-75807542D02*
X144273542Y-75807542D01*
X157973733Y-78547609D02*
X157973733Y-78904752D01*
X157973733Y-78904752D02*
X157949924Y-78976180D01*
X157949924Y-78976180D02*
X157902305Y-79023800D01*
X157902305Y-79023800D02*
X157830876Y-79047609D01*
X157830876Y-79047609D02*
X157783257Y-79047609D01*
X158164209Y-78547609D02*
X158497542Y-78547609D01*
X158497542Y-78547609D02*
X158283257Y-79047609D01*
X114427047Y-80503409D02*
X114427047Y-80908171D01*
X114427047Y-80908171D02*
X114450857Y-80955790D01*
X114450857Y-80955790D02*
X114474666Y-80979600D01*
X114474666Y-80979600D02*
X114522285Y-81003409D01*
X114522285Y-81003409D02*
X114617523Y-81003409D01*
X114617523Y-81003409D02*
X114665142Y-80979600D01*
X114665142Y-80979600D02*
X114688952Y-80955790D01*
X114688952Y-80955790D02*
X114712761Y-80908171D01*
X114712761Y-80908171D02*
X114712761Y-80503409D01*
X115165143Y-80503409D02*
X115069905Y-80503409D01*
X115069905Y-80503409D02*
X115022286Y-80527219D01*
X115022286Y-80527219D02*
X114998476Y-80551028D01*
X114998476Y-80551028D02*
X114950857Y-80622457D01*
X114950857Y-80622457D02*
X114927048Y-80717695D01*
X114927048Y-80717695D02*
X114927048Y-80908171D01*
X114927048Y-80908171D02*
X114950857Y-80955790D01*
X114950857Y-80955790D02*
X114974667Y-80979600D01*
X114974667Y-80979600D02*
X115022286Y-81003409D01*
X115022286Y-81003409D02*
X115117524Y-81003409D01*
X115117524Y-81003409D02*
X115165143Y-80979600D01*
X115165143Y-80979600D02*
X115188952Y-80955790D01*
X115188952Y-80955790D02*
X115212762Y-80908171D01*
X115212762Y-80908171D02*
X115212762Y-80789123D01*
X115212762Y-80789123D02*
X115188952Y-80741504D01*
X115188952Y-80741504D02*
X115165143Y-80717695D01*
X115165143Y-80717695D02*
X115117524Y-80693885D01*
X115117524Y-80693885D02*
X115022286Y-80693885D01*
X115022286Y-80693885D02*
X114974667Y-80717695D01*
X114974667Y-80717695D02*
X114950857Y-80741504D01*
X114950857Y-80741504D02*
X114927048Y-80789123D01*
X106019647Y-99159809D02*
X106019647Y-99564571D01*
X106019647Y-99564571D02*
X106043457Y-99612190D01*
X106043457Y-99612190D02*
X106067266Y-99636000D01*
X106067266Y-99636000D02*
X106114885Y-99659809D01*
X106114885Y-99659809D02*
X106210123Y-99659809D01*
X106210123Y-99659809D02*
X106257742Y-99636000D01*
X106257742Y-99636000D02*
X106281552Y-99612190D01*
X106281552Y-99612190D02*
X106305361Y-99564571D01*
X106305361Y-99564571D02*
X106305361Y-99159809D01*
X106781552Y-99159809D02*
X106543457Y-99159809D01*
X106543457Y-99159809D02*
X106519648Y-99397904D01*
X106519648Y-99397904D02*
X106543457Y-99374095D01*
X106543457Y-99374095D02*
X106591076Y-99350285D01*
X106591076Y-99350285D02*
X106710124Y-99350285D01*
X106710124Y-99350285D02*
X106757743Y-99374095D01*
X106757743Y-99374095D02*
X106781552Y-99397904D01*
X106781552Y-99397904D02*
X106805362Y-99445523D01*
X106805362Y-99445523D02*
X106805362Y-99564571D01*
X106805362Y-99564571D02*
X106781552Y-99612190D01*
X106781552Y-99612190D02*
X106757743Y-99636000D01*
X106757743Y-99636000D02*
X106710124Y-99659809D01*
X106710124Y-99659809D02*
X106591076Y-99659809D01*
X106591076Y-99659809D02*
X106543457Y-99636000D01*
X106543457Y-99636000D02*
X106519648Y-99612190D01*
X116690780Y-94081228D02*
X116643161Y-94057419D01*
X116643161Y-94057419D02*
X116595542Y-94009800D01*
X116595542Y-94009800D02*
X116524114Y-93938371D01*
X116524114Y-93938371D02*
X116476495Y-93914561D01*
X116476495Y-93914561D02*
X116428876Y-93914561D01*
X116452685Y-94033609D02*
X116405066Y-94009800D01*
X116405066Y-94009800D02*
X116357447Y-93962180D01*
X116357447Y-93962180D02*
X116333638Y-93866942D01*
X116333638Y-93866942D02*
X116333638Y-93700276D01*
X116333638Y-93700276D02*
X116357447Y-93605038D01*
X116357447Y-93605038D02*
X116405066Y-93557419D01*
X116405066Y-93557419D02*
X116452685Y-93533609D01*
X116452685Y-93533609D02*
X116547923Y-93533609D01*
X116547923Y-93533609D02*
X116595542Y-93557419D01*
X116595542Y-93557419D02*
X116643161Y-93605038D01*
X116643161Y-93605038D02*
X116666971Y-93700276D01*
X116666971Y-93700276D02*
X116666971Y-93866942D01*
X116666971Y-93866942D02*
X116643161Y-93962180D01*
X116643161Y-93962180D02*
X116595542Y-94009800D01*
X116595542Y-94009800D02*
X116547923Y-94033609D01*
X116547923Y-94033609D02*
X116452685Y-94033609D01*
X117143162Y-94033609D02*
X116857448Y-94033609D01*
X117000305Y-94033609D02*
X117000305Y-93533609D01*
X117000305Y-93533609D02*
X116952686Y-93605038D01*
X116952686Y-93605038D02*
X116905067Y-93652657D01*
X116905067Y-93652657D02*
X116857448Y-93676466D01*
X120762733Y-79436609D02*
X120762733Y-79793752D01*
X120762733Y-79793752D02*
X120738924Y-79865180D01*
X120738924Y-79865180D02*
X120691305Y-79912800D01*
X120691305Y-79912800D02*
X120619876Y-79936609D01*
X120619876Y-79936609D02*
X120572257Y-79936609D01*
X121262733Y-79936609D02*
X120977019Y-79936609D01*
X121119876Y-79936609D02*
X121119876Y-79436609D01*
X121119876Y-79436609D02*
X121072257Y-79508038D01*
X121072257Y-79508038D02*
X121024638Y-79555657D01*
X121024638Y-79555657D02*
X120977019Y-79579466D01*
X147218447Y-81805609D02*
X147218447Y-82210371D01*
X147218447Y-82210371D02*
X147242257Y-82257990D01*
X147242257Y-82257990D02*
X147266066Y-82281800D01*
X147266066Y-82281800D02*
X147313685Y-82305609D01*
X147313685Y-82305609D02*
X147408923Y-82305609D01*
X147408923Y-82305609D02*
X147456542Y-82281800D01*
X147456542Y-82281800D02*
X147480352Y-82257990D01*
X147480352Y-82257990D02*
X147504161Y-82210371D01*
X147504161Y-82210371D02*
X147504161Y-81805609D01*
X147694638Y-81805609D02*
X148004162Y-81805609D01*
X148004162Y-81805609D02*
X147837495Y-81996085D01*
X147837495Y-81996085D02*
X147908924Y-81996085D01*
X147908924Y-81996085D02*
X147956543Y-82019895D01*
X147956543Y-82019895D02*
X147980352Y-82043704D01*
X147980352Y-82043704D02*
X148004162Y-82091323D01*
X148004162Y-82091323D02*
X148004162Y-82210371D01*
X148004162Y-82210371D02*
X147980352Y-82257990D01*
X147980352Y-82257990D02*
X147956543Y-82281800D01*
X147956543Y-82281800D02*
X147908924Y-82305609D01*
X147908924Y-82305609D02*
X147766067Y-82305609D01*
X147766067Y-82305609D02*
X147718448Y-82281800D01*
X147718448Y-82281800D02*
X147694638Y-82257990D01*
X122878066Y-85339490D02*
X122854257Y-85363300D01*
X122854257Y-85363300D02*
X122782828Y-85387109D01*
X122782828Y-85387109D02*
X122735209Y-85387109D01*
X122735209Y-85387109D02*
X122663781Y-85363300D01*
X122663781Y-85363300D02*
X122616162Y-85315680D01*
X122616162Y-85315680D02*
X122592352Y-85268061D01*
X122592352Y-85268061D02*
X122568543Y-85172823D01*
X122568543Y-85172823D02*
X122568543Y-85101395D01*
X122568543Y-85101395D02*
X122592352Y-85006157D01*
X122592352Y-85006157D02*
X122616162Y-84958538D01*
X122616162Y-84958538D02*
X122663781Y-84910919D01*
X122663781Y-84910919D02*
X122735209Y-84887109D01*
X122735209Y-84887109D02*
X122782828Y-84887109D01*
X122782828Y-84887109D02*
X122854257Y-84910919D01*
X122854257Y-84910919D02*
X122878066Y-84934728D01*
X123354257Y-85387109D02*
X123068543Y-85387109D01*
X123211400Y-85387109D02*
X123211400Y-84887109D01*
X123211400Y-84887109D02*
X123163781Y-84958538D01*
X123163781Y-84958538D02*
X123116162Y-85006157D01*
X123116162Y-85006157D02*
X123068543Y-85029966D01*
X132638847Y-80147809D02*
X132638847Y-80552571D01*
X132638847Y-80552571D02*
X132662657Y-80600190D01*
X132662657Y-80600190D02*
X132686466Y-80624000D01*
X132686466Y-80624000D02*
X132734085Y-80647809D01*
X132734085Y-80647809D02*
X132829323Y-80647809D01*
X132829323Y-80647809D02*
X132876942Y-80624000D01*
X132876942Y-80624000D02*
X132900752Y-80600190D01*
X132900752Y-80600190D02*
X132924561Y-80552571D01*
X132924561Y-80552571D02*
X132924561Y-80147809D01*
X133138848Y-80195428D02*
X133162657Y-80171619D01*
X133162657Y-80171619D02*
X133210276Y-80147809D01*
X133210276Y-80147809D02*
X133329324Y-80147809D01*
X133329324Y-80147809D02*
X133376943Y-80171619D01*
X133376943Y-80171619D02*
X133400752Y-80195428D01*
X133400752Y-80195428D02*
X133424562Y-80243047D01*
X133424562Y-80243047D02*
X133424562Y-80290666D01*
X133424562Y-80290666D02*
X133400752Y-80362095D01*
X133400752Y-80362095D02*
X133115038Y-80647809D01*
X133115038Y-80647809D02*
X133424562Y-80647809D01*
X157091866Y-86670790D02*
X157068057Y-86694600D01*
X157068057Y-86694600D02*
X156996628Y-86718409D01*
X156996628Y-86718409D02*
X156949009Y-86718409D01*
X156949009Y-86718409D02*
X156877581Y-86694600D01*
X156877581Y-86694600D02*
X156829962Y-86646980D01*
X156829962Y-86646980D02*
X156806152Y-86599361D01*
X156806152Y-86599361D02*
X156782343Y-86504123D01*
X156782343Y-86504123D02*
X156782343Y-86432695D01*
X156782343Y-86432695D02*
X156806152Y-86337457D01*
X156806152Y-86337457D02*
X156829962Y-86289838D01*
X156829962Y-86289838D02*
X156877581Y-86242219D01*
X156877581Y-86242219D02*
X156949009Y-86218409D01*
X156949009Y-86218409D02*
X156996628Y-86218409D01*
X156996628Y-86218409D02*
X157068057Y-86242219D01*
X157068057Y-86242219D02*
X157091866Y-86266028D01*
X157520438Y-86385076D02*
X157520438Y-86718409D01*
X157401390Y-86194600D02*
X157282343Y-86551742D01*
X157282343Y-86551742D02*
X157591866Y-86551742D01*
X164280066Y-89766409D02*
X164113400Y-89528314D01*
X163994352Y-89766409D02*
X163994352Y-89266409D01*
X163994352Y-89266409D02*
X164184828Y-89266409D01*
X164184828Y-89266409D02*
X164232447Y-89290219D01*
X164232447Y-89290219D02*
X164256257Y-89314028D01*
X164256257Y-89314028D02*
X164280066Y-89361647D01*
X164280066Y-89361647D02*
X164280066Y-89433076D01*
X164280066Y-89433076D02*
X164256257Y-89480695D01*
X164256257Y-89480695D02*
X164232447Y-89504504D01*
X164232447Y-89504504D02*
X164184828Y-89528314D01*
X164184828Y-89528314D02*
X163994352Y-89528314D01*
X164565781Y-89480695D02*
X164518162Y-89456885D01*
X164518162Y-89456885D02*
X164494352Y-89433076D01*
X164494352Y-89433076D02*
X164470543Y-89385457D01*
X164470543Y-89385457D02*
X164470543Y-89361647D01*
X164470543Y-89361647D02*
X164494352Y-89314028D01*
X164494352Y-89314028D02*
X164518162Y-89290219D01*
X164518162Y-89290219D02*
X164565781Y-89266409D01*
X164565781Y-89266409D02*
X164661019Y-89266409D01*
X164661019Y-89266409D02*
X164708638Y-89290219D01*
X164708638Y-89290219D02*
X164732447Y-89314028D01*
X164732447Y-89314028D02*
X164756257Y-89361647D01*
X164756257Y-89361647D02*
X164756257Y-89385457D01*
X164756257Y-89385457D02*
X164732447Y-89433076D01*
X164732447Y-89433076D02*
X164708638Y-89456885D01*
X164708638Y-89456885D02*
X164661019Y-89480695D01*
X164661019Y-89480695D02*
X164565781Y-89480695D01*
X164565781Y-89480695D02*
X164518162Y-89504504D01*
X164518162Y-89504504D02*
X164494352Y-89528314D01*
X164494352Y-89528314D02*
X164470543Y-89575933D01*
X164470543Y-89575933D02*
X164470543Y-89671171D01*
X164470543Y-89671171D02*
X164494352Y-89718790D01*
X164494352Y-89718790D02*
X164518162Y-89742600D01*
X164518162Y-89742600D02*
X164565781Y-89766409D01*
X164565781Y-89766409D02*
X164661019Y-89766409D01*
X164661019Y-89766409D02*
X164708638Y-89742600D01*
X164708638Y-89742600D02*
X164732447Y-89718790D01*
X164732447Y-89718790D02*
X164756257Y-89671171D01*
X164756257Y-89671171D02*
X164756257Y-89575933D01*
X164756257Y-89575933D02*
X164732447Y-89528314D01*
X164732447Y-89528314D02*
X164708638Y-89504504D01*
X164708638Y-89504504D02*
X164661019Y-89480695D01*
X101119038Y-91286809D02*
X101119038Y-91643952D01*
X101119038Y-91643952D02*
X101095229Y-91715380D01*
X101095229Y-91715380D02*
X101047610Y-91763000D01*
X101047610Y-91763000D02*
X100976181Y-91786809D01*
X100976181Y-91786809D02*
X100928562Y-91786809D01*
X101619038Y-91786809D02*
X101333324Y-91786809D01*
X101476181Y-91786809D02*
X101476181Y-91286809D01*
X101476181Y-91286809D02*
X101428562Y-91358238D01*
X101428562Y-91358238D02*
X101380943Y-91405857D01*
X101380943Y-91405857D02*
X101333324Y-91429666D01*
X101928561Y-91286809D02*
X101976180Y-91286809D01*
X101976180Y-91286809D02*
X102023799Y-91310619D01*
X102023799Y-91310619D02*
X102047609Y-91334428D01*
X102047609Y-91334428D02*
X102071418Y-91382047D01*
X102071418Y-91382047D02*
X102095228Y-91477285D01*
X102095228Y-91477285D02*
X102095228Y-91596333D01*
X102095228Y-91596333D02*
X102071418Y-91691571D01*
X102071418Y-91691571D02*
X102047609Y-91739190D01*
X102047609Y-91739190D02*
X102023799Y-91763000D01*
X102023799Y-91763000D02*
X101976180Y-91786809D01*
X101976180Y-91786809D02*
X101928561Y-91786809D01*
X101928561Y-91786809D02*
X101880942Y-91763000D01*
X101880942Y-91763000D02*
X101857133Y-91739190D01*
X101857133Y-91739190D02*
X101833323Y-91691571D01*
X101833323Y-91691571D02*
X101809514Y-91596333D01*
X101809514Y-91596333D02*
X101809514Y-91477285D01*
X101809514Y-91477285D02*
X101833323Y-91382047D01*
X101833323Y-91382047D02*
X101857133Y-91334428D01*
X101857133Y-91334428D02*
X101880942Y-91310619D01*
X101880942Y-91310619D02*
X101928561Y-91286809D01*
X164280066Y-92738209D02*
X164113400Y-92500114D01*
X163994352Y-92738209D02*
X163994352Y-92238209D01*
X163994352Y-92238209D02*
X164184828Y-92238209D01*
X164184828Y-92238209D02*
X164232447Y-92262019D01*
X164232447Y-92262019D02*
X164256257Y-92285828D01*
X164256257Y-92285828D02*
X164280066Y-92333447D01*
X164280066Y-92333447D02*
X164280066Y-92404876D01*
X164280066Y-92404876D02*
X164256257Y-92452495D01*
X164256257Y-92452495D02*
X164232447Y-92476304D01*
X164232447Y-92476304D02*
X164184828Y-92500114D01*
X164184828Y-92500114D02*
X163994352Y-92500114D01*
X164518162Y-92738209D02*
X164613400Y-92738209D01*
X164613400Y-92738209D02*
X164661019Y-92714400D01*
X164661019Y-92714400D02*
X164684828Y-92690590D01*
X164684828Y-92690590D02*
X164732447Y-92619161D01*
X164732447Y-92619161D02*
X164756257Y-92523923D01*
X164756257Y-92523923D02*
X164756257Y-92333447D01*
X164756257Y-92333447D02*
X164732447Y-92285828D01*
X164732447Y-92285828D02*
X164708638Y-92262019D01*
X164708638Y-92262019D02*
X164661019Y-92238209D01*
X164661019Y-92238209D02*
X164565781Y-92238209D01*
X164565781Y-92238209D02*
X164518162Y-92262019D01*
X164518162Y-92262019D02*
X164494352Y-92285828D01*
X164494352Y-92285828D02*
X164470543Y-92333447D01*
X164470543Y-92333447D02*
X164470543Y-92452495D01*
X164470543Y-92452495D02*
X164494352Y-92500114D01*
X164494352Y-92500114D02*
X164518162Y-92523923D01*
X164518162Y-92523923D02*
X164565781Y-92547733D01*
X164565781Y-92547733D02*
X164661019Y-92547733D01*
X164661019Y-92547733D02*
X164708638Y-92523923D01*
X164708638Y-92523923D02*
X164732447Y-92500114D01*
X164732447Y-92500114D02*
X164756257Y-92452495D01*
X130513971Y-99291409D02*
X130347305Y-99053314D01*
X130228257Y-99291409D02*
X130228257Y-98791409D01*
X130228257Y-98791409D02*
X130418733Y-98791409D01*
X130418733Y-98791409D02*
X130466352Y-98815219D01*
X130466352Y-98815219D02*
X130490162Y-98839028D01*
X130490162Y-98839028D02*
X130513971Y-98886647D01*
X130513971Y-98886647D02*
X130513971Y-98958076D01*
X130513971Y-98958076D02*
X130490162Y-99005695D01*
X130490162Y-99005695D02*
X130466352Y-99029504D01*
X130466352Y-99029504D02*
X130418733Y-99053314D01*
X130418733Y-99053314D02*
X130228257Y-99053314D01*
X130990162Y-99291409D02*
X130704448Y-99291409D01*
X130847305Y-99291409D02*
X130847305Y-98791409D01*
X130847305Y-98791409D02*
X130799686Y-98862838D01*
X130799686Y-98862838D02*
X130752067Y-98910457D01*
X130752067Y-98910457D02*
X130704448Y-98934266D01*
X131418733Y-98958076D02*
X131418733Y-99291409D01*
X131299685Y-98767600D02*
X131180638Y-99124742D01*
X131180638Y-99124742D02*
X131490161Y-99124742D01*
X163975266Y-100859609D02*
X163808600Y-100621514D01*
X163689552Y-100859609D02*
X163689552Y-100359609D01*
X163689552Y-100359609D02*
X163880028Y-100359609D01*
X163880028Y-100359609D02*
X163927647Y-100383419D01*
X163927647Y-100383419D02*
X163951457Y-100407228D01*
X163951457Y-100407228D02*
X163975266Y-100454847D01*
X163975266Y-100454847D02*
X163975266Y-100526276D01*
X163975266Y-100526276D02*
X163951457Y-100573895D01*
X163951457Y-100573895D02*
X163927647Y-100597704D01*
X163927647Y-100597704D02*
X163880028Y-100621514D01*
X163880028Y-100621514D02*
X163689552Y-100621514D01*
X164141933Y-100359609D02*
X164475266Y-100359609D01*
X164475266Y-100359609D02*
X164260981Y-100859609D01*
X119710866Y-80828790D02*
X119687057Y-80852600D01*
X119687057Y-80852600D02*
X119615628Y-80876409D01*
X119615628Y-80876409D02*
X119568009Y-80876409D01*
X119568009Y-80876409D02*
X119496581Y-80852600D01*
X119496581Y-80852600D02*
X119448962Y-80804980D01*
X119448962Y-80804980D02*
X119425152Y-80757361D01*
X119425152Y-80757361D02*
X119401343Y-80662123D01*
X119401343Y-80662123D02*
X119401343Y-80590695D01*
X119401343Y-80590695D02*
X119425152Y-80495457D01*
X119425152Y-80495457D02*
X119448962Y-80447838D01*
X119448962Y-80447838D02*
X119496581Y-80400219D01*
X119496581Y-80400219D02*
X119568009Y-80376409D01*
X119568009Y-80376409D02*
X119615628Y-80376409D01*
X119615628Y-80376409D02*
X119687057Y-80400219D01*
X119687057Y-80400219D02*
X119710866Y-80424028D01*
X119877533Y-80376409D02*
X120210866Y-80376409D01*
X120210866Y-80376409D02*
X119996581Y-80876409D01*
X128831066Y-77969809D02*
X128664400Y-77731714D01*
X128545352Y-77969809D02*
X128545352Y-77469809D01*
X128545352Y-77469809D02*
X128735828Y-77469809D01*
X128735828Y-77469809D02*
X128783447Y-77493619D01*
X128783447Y-77493619D02*
X128807257Y-77517428D01*
X128807257Y-77517428D02*
X128831066Y-77565047D01*
X128831066Y-77565047D02*
X128831066Y-77636476D01*
X128831066Y-77636476D02*
X128807257Y-77684095D01*
X128807257Y-77684095D02*
X128783447Y-77707904D01*
X128783447Y-77707904D02*
X128735828Y-77731714D01*
X128735828Y-77731714D02*
X128545352Y-77731714D01*
X129021543Y-77517428D02*
X129045352Y-77493619D01*
X129045352Y-77493619D02*
X129092971Y-77469809D01*
X129092971Y-77469809D02*
X129212019Y-77469809D01*
X129212019Y-77469809D02*
X129259638Y-77493619D01*
X129259638Y-77493619D02*
X129283447Y-77517428D01*
X129283447Y-77517428D02*
X129307257Y-77565047D01*
X129307257Y-77565047D02*
X129307257Y-77612666D01*
X129307257Y-77612666D02*
X129283447Y-77684095D01*
X129283447Y-77684095D02*
X128997733Y-77969809D01*
X128997733Y-77969809D02*
X129307257Y-77969809D01*
X122878066Y-80825609D02*
X122711400Y-80587514D01*
X122592352Y-80825609D02*
X122592352Y-80325609D01*
X122592352Y-80325609D02*
X122782828Y-80325609D01*
X122782828Y-80325609D02*
X122830447Y-80349419D01*
X122830447Y-80349419D02*
X122854257Y-80373228D01*
X122854257Y-80373228D02*
X122878066Y-80420847D01*
X122878066Y-80420847D02*
X122878066Y-80492276D01*
X122878066Y-80492276D02*
X122854257Y-80539895D01*
X122854257Y-80539895D02*
X122830447Y-80563704D01*
X122830447Y-80563704D02*
X122782828Y-80587514D01*
X122782828Y-80587514D02*
X122592352Y-80587514D01*
X123354257Y-80825609D02*
X123068543Y-80825609D01*
X123211400Y-80825609D02*
X123211400Y-80325609D01*
X123211400Y-80325609D02*
X123163781Y-80397038D01*
X123163781Y-80397038D02*
X123116162Y-80444657D01*
X123116162Y-80444657D02*
X123068543Y-80468466D01*
X103996371Y-101469209D02*
X103829705Y-101231114D01*
X103710657Y-101469209D02*
X103710657Y-100969209D01*
X103710657Y-100969209D02*
X103901133Y-100969209D01*
X103901133Y-100969209D02*
X103948752Y-100993019D01*
X103948752Y-100993019D02*
X103972562Y-101016828D01*
X103972562Y-101016828D02*
X103996371Y-101064447D01*
X103996371Y-101064447D02*
X103996371Y-101135876D01*
X103996371Y-101135876D02*
X103972562Y-101183495D01*
X103972562Y-101183495D02*
X103948752Y-101207304D01*
X103948752Y-101207304D02*
X103901133Y-101231114D01*
X103901133Y-101231114D02*
X103710657Y-101231114D01*
X104472562Y-101469209D02*
X104186848Y-101469209D01*
X104329705Y-101469209D02*
X104329705Y-100969209D01*
X104329705Y-100969209D02*
X104282086Y-101040638D01*
X104282086Y-101040638D02*
X104234467Y-101088257D01*
X104234467Y-101088257D02*
X104186848Y-101112066D01*
X104901133Y-100969209D02*
X104805895Y-100969209D01*
X104805895Y-100969209D02*
X104758276Y-100993019D01*
X104758276Y-100993019D02*
X104734466Y-101016828D01*
X104734466Y-101016828D02*
X104686847Y-101088257D01*
X104686847Y-101088257D02*
X104663038Y-101183495D01*
X104663038Y-101183495D02*
X104663038Y-101373971D01*
X104663038Y-101373971D02*
X104686847Y-101421590D01*
X104686847Y-101421590D02*
X104710657Y-101445400D01*
X104710657Y-101445400D02*
X104758276Y-101469209D01*
X104758276Y-101469209D02*
X104853514Y-101469209D01*
X104853514Y-101469209D02*
X104901133Y-101445400D01*
X104901133Y-101445400D02*
X104924942Y-101421590D01*
X104924942Y-101421590D02*
X104948752Y-101373971D01*
X104948752Y-101373971D02*
X104948752Y-101254923D01*
X104948752Y-101254923D02*
X104924942Y-101207304D01*
X104924942Y-101207304D02*
X104901133Y-101183495D01*
X104901133Y-101183495D02*
X104853514Y-101159685D01*
X104853514Y-101159685D02*
X104758276Y-101159685D01*
X104758276Y-101159685D02*
X104710657Y-101183495D01*
X104710657Y-101183495D02*
X104686847Y-101207304D01*
X104686847Y-101207304D02*
X104663038Y-101254923D01*
X164051371Y-83594209D02*
X163884705Y-83356114D01*
X163765657Y-83594209D02*
X163765657Y-83094209D01*
X163765657Y-83094209D02*
X163956133Y-83094209D01*
X163956133Y-83094209D02*
X164003752Y-83118019D01*
X164003752Y-83118019D02*
X164027562Y-83141828D01*
X164027562Y-83141828D02*
X164051371Y-83189447D01*
X164051371Y-83189447D02*
X164051371Y-83260876D01*
X164051371Y-83260876D02*
X164027562Y-83308495D01*
X164027562Y-83308495D02*
X164003752Y-83332304D01*
X164003752Y-83332304D02*
X163956133Y-83356114D01*
X163956133Y-83356114D02*
X163765657Y-83356114D01*
X164527562Y-83594209D02*
X164241848Y-83594209D01*
X164384705Y-83594209D02*
X164384705Y-83094209D01*
X164384705Y-83094209D02*
X164337086Y-83165638D01*
X164337086Y-83165638D02*
X164289467Y-83213257D01*
X164289467Y-83213257D02*
X164241848Y-83237066D01*
X165003752Y-83594209D02*
X164718038Y-83594209D01*
X164860895Y-83594209D02*
X164860895Y-83094209D01*
X164860895Y-83094209D02*
X164813276Y-83165638D01*
X164813276Y-83165638D02*
X164765657Y-83213257D01*
X164765657Y-83213257D02*
X164718038Y-83237066D01*
X104234466Y-100684990D02*
X104210657Y-100708800D01*
X104210657Y-100708800D02*
X104139228Y-100732609D01*
X104139228Y-100732609D02*
X104091609Y-100732609D01*
X104091609Y-100732609D02*
X104020181Y-100708800D01*
X104020181Y-100708800D02*
X103972562Y-100661180D01*
X103972562Y-100661180D02*
X103948752Y-100613561D01*
X103948752Y-100613561D02*
X103924943Y-100518323D01*
X103924943Y-100518323D02*
X103924943Y-100446895D01*
X103924943Y-100446895D02*
X103948752Y-100351657D01*
X103948752Y-100351657D02*
X103972562Y-100304038D01*
X103972562Y-100304038D02*
X104020181Y-100256419D01*
X104020181Y-100256419D02*
X104091609Y-100232609D01*
X104091609Y-100232609D02*
X104139228Y-100232609D01*
X104139228Y-100232609D02*
X104210657Y-100256419D01*
X104210657Y-100256419D02*
X104234466Y-100280228D01*
X104520181Y-100446895D02*
X104472562Y-100423085D01*
X104472562Y-100423085D02*
X104448752Y-100399276D01*
X104448752Y-100399276D02*
X104424943Y-100351657D01*
X104424943Y-100351657D02*
X104424943Y-100327847D01*
X104424943Y-100327847D02*
X104448752Y-100280228D01*
X104448752Y-100280228D02*
X104472562Y-100256419D01*
X104472562Y-100256419D02*
X104520181Y-100232609D01*
X104520181Y-100232609D02*
X104615419Y-100232609D01*
X104615419Y-100232609D02*
X104663038Y-100256419D01*
X104663038Y-100256419D02*
X104686847Y-100280228D01*
X104686847Y-100280228D02*
X104710657Y-100327847D01*
X104710657Y-100327847D02*
X104710657Y-100351657D01*
X104710657Y-100351657D02*
X104686847Y-100399276D01*
X104686847Y-100399276D02*
X104663038Y-100423085D01*
X104663038Y-100423085D02*
X104615419Y-100446895D01*
X104615419Y-100446895D02*
X104520181Y-100446895D01*
X104520181Y-100446895D02*
X104472562Y-100470704D01*
X104472562Y-100470704D02*
X104448752Y-100494514D01*
X104448752Y-100494514D02*
X104424943Y-100542133D01*
X104424943Y-100542133D02*
X104424943Y-100637371D01*
X104424943Y-100637371D02*
X104448752Y-100684990D01*
X104448752Y-100684990D02*
X104472562Y-100708800D01*
X104472562Y-100708800D02*
X104520181Y-100732609D01*
X104520181Y-100732609D02*
X104615419Y-100732609D01*
X104615419Y-100732609D02*
X104663038Y-100708800D01*
X104663038Y-100708800D02*
X104686847Y-100684990D01*
X104686847Y-100684990D02*
X104710657Y-100637371D01*
X104710657Y-100637371D02*
X104710657Y-100542133D01*
X104710657Y-100542133D02*
X104686847Y-100494514D01*
X104686847Y-100494514D02*
X104663038Y-100470704D01*
X104663038Y-100470704D02*
X104615419Y-100446895D01*
X118814066Y-87432790D02*
X118790257Y-87456600D01*
X118790257Y-87456600D02*
X118718828Y-87480409D01*
X118718828Y-87480409D02*
X118671209Y-87480409D01*
X118671209Y-87480409D02*
X118599781Y-87456600D01*
X118599781Y-87456600D02*
X118552162Y-87408980D01*
X118552162Y-87408980D02*
X118528352Y-87361361D01*
X118528352Y-87361361D02*
X118504543Y-87266123D01*
X118504543Y-87266123D02*
X118504543Y-87194695D01*
X118504543Y-87194695D02*
X118528352Y-87099457D01*
X118528352Y-87099457D02*
X118552162Y-87051838D01*
X118552162Y-87051838D02*
X118599781Y-87004219D01*
X118599781Y-87004219D02*
X118671209Y-86980409D01*
X118671209Y-86980409D02*
X118718828Y-86980409D01*
X118718828Y-86980409D02*
X118790257Y-87004219D01*
X118790257Y-87004219D02*
X118814066Y-87028028D01*
X119242638Y-86980409D02*
X119147400Y-86980409D01*
X119147400Y-86980409D02*
X119099781Y-87004219D01*
X119099781Y-87004219D02*
X119075971Y-87028028D01*
X119075971Y-87028028D02*
X119028352Y-87099457D01*
X119028352Y-87099457D02*
X119004543Y-87194695D01*
X119004543Y-87194695D02*
X119004543Y-87385171D01*
X119004543Y-87385171D02*
X119028352Y-87432790D01*
X119028352Y-87432790D02*
X119052162Y-87456600D01*
X119052162Y-87456600D02*
X119099781Y-87480409D01*
X119099781Y-87480409D02*
X119195019Y-87480409D01*
X119195019Y-87480409D02*
X119242638Y-87456600D01*
X119242638Y-87456600D02*
X119266447Y-87432790D01*
X119266447Y-87432790D02*
X119290257Y-87385171D01*
X119290257Y-87385171D02*
X119290257Y-87266123D01*
X119290257Y-87266123D02*
X119266447Y-87218504D01*
X119266447Y-87218504D02*
X119242638Y-87194695D01*
X119242638Y-87194695D02*
X119195019Y-87170885D01*
X119195019Y-87170885D02*
X119099781Y-87170885D01*
X119099781Y-87170885D02*
X119052162Y-87194695D01*
X119052162Y-87194695D02*
X119028352Y-87218504D01*
X119028352Y-87218504D02*
X119004543Y-87266123D01*
D13*
X125679323Y-72301790D02*
X125603133Y-72263695D01*
X125603133Y-72263695D02*
X125488847Y-72263695D01*
X125488847Y-72263695D02*
X125374561Y-72301790D01*
X125374561Y-72301790D02*
X125298371Y-72377980D01*
X125298371Y-72377980D02*
X125260276Y-72454171D01*
X125260276Y-72454171D02*
X125222180Y-72606552D01*
X125222180Y-72606552D02*
X125222180Y-72720838D01*
X125222180Y-72720838D02*
X125260276Y-72873219D01*
X125260276Y-72873219D02*
X125298371Y-72949409D01*
X125298371Y-72949409D02*
X125374561Y-73025600D01*
X125374561Y-73025600D02*
X125488847Y-73063695D01*
X125488847Y-73063695D02*
X125565038Y-73063695D01*
X125565038Y-73063695D02*
X125679323Y-73025600D01*
X125679323Y-73025600D02*
X125717419Y-72987504D01*
X125717419Y-72987504D02*
X125717419Y-72720838D01*
X125717419Y-72720838D02*
X125565038Y-72720838D01*
X126060276Y-73063695D02*
X126060276Y-72263695D01*
X126060276Y-72263695D02*
X126517419Y-73063695D01*
X126517419Y-73063695D02*
X126517419Y-72263695D01*
X126898371Y-73063695D02*
X126898371Y-72263695D01*
X126898371Y-72263695D02*
X127088847Y-72263695D01*
X127088847Y-72263695D02*
X127203133Y-72301790D01*
X127203133Y-72301790D02*
X127279323Y-72377980D01*
X127279323Y-72377980D02*
X127317418Y-72454171D01*
X127317418Y-72454171D02*
X127355514Y-72606552D01*
X127355514Y-72606552D02*
X127355514Y-72720838D01*
X127355514Y-72720838D02*
X127317418Y-72873219D01*
X127317418Y-72873219D02*
X127279323Y-72949409D01*
X127279323Y-72949409D02*
X127203133Y-73025600D01*
X127203133Y-73025600D02*
X127088847Y-73063695D01*
X127088847Y-73063695D02*
X126898371Y-73063695D01*
X128117418Y-73063695D02*
X127660275Y-73063695D01*
X127888847Y-73063695D02*
X127888847Y-72263695D01*
X127888847Y-72263695D02*
X127812656Y-72377980D01*
X127812656Y-72377980D02*
X127736466Y-72454171D01*
X127736466Y-72454171D02*
X127660275Y-72492266D01*
D12*
X137983933Y-75474209D02*
X137983933Y-75831352D01*
X137983933Y-75831352D02*
X137960124Y-75902780D01*
X137960124Y-75902780D02*
X137912505Y-75950400D01*
X137912505Y-75950400D02*
X137841076Y-75974209D01*
X137841076Y-75974209D02*
X137793457Y-75974209D01*
X138174409Y-75474209D02*
X138483933Y-75474209D01*
X138483933Y-75474209D02*
X138317266Y-75664685D01*
X138317266Y-75664685D02*
X138388695Y-75664685D01*
X138388695Y-75664685D02*
X138436314Y-75688495D01*
X138436314Y-75688495D02*
X138460123Y-75712304D01*
X138460123Y-75712304D02*
X138483933Y-75759923D01*
X138483933Y-75759923D02*
X138483933Y-75878971D01*
X138483933Y-75878971D02*
X138460123Y-75926590D01*
X138460123Y-75926590D02*
X138436314Y-75950400D01*
X138436314Y-75950400D02*
X138388695Y-75974209D01*
X138388695Y-75974209D02*
X138245838Y-75974209D01*
X138245838Y-75974209D02*
X138198219Y-75950400D01*
X138198219Y-75950400D02*
X138174409Y-75926590D01*
X106045047Y-83338609D02*
X106045047Y-83743371D01*
X106045047Y-83743371D02*
X106068857Y-83790990D01*
X106068857Y-83790990D02*
X106092666Y-83814800D01*
X106092666Y-83814800D02*
X106140285Y-83838609D01*
X106140285Y-83838609D02*
X106235523Y-83838609D01*
X106235523Y-83838609D02*
X106283142Y-83814800D01*
X106283142Y-83814800D02*
X106306952Y-83790990D01*
X106306952Y-83790990D02*
X106330761Y-83743371D01*
X106330761Y-83743371D02*
X106330761Y-83338609D01*
X106783143Y-83505276D02*
X106783143Y-83838609D01*
X106664095Y-83314800D02*
X106545048Y-83671942D01*
X106545048Y-83671942D02*
X106854571Y-83671942D01*
X171918333Y-97673809D02*
X171918333Y-98030952D01*
X171918333Y-98030952D02*
X171894524Y-98102380D01*
X171894524Y-98102380D02*
X171846905Y-98150000D01*
X171846905Y-98150000D02*
X171775476Y-98173809D01*
X171775476Y-98173809D02*
X171727857Y-98173809D01*
X172394523Y-97673809D02*
X172156428Y-97673809D01*
X172156428Y-97673809D02*
X172132619Y-97911904D01*
X172132619Y-97911904D02*
X172156428Y-97888095D01*
X172156428Y-97888095D02*
X172204047Y-97864285D01*
X172204047Y-97864285D02*
X172323095Y-97864285D01*
X172323095Y-97864285D02*
X172370714Y-97888095D01*
X172370714Y-97888095D02*
X172394523Y-97911904D01*
X172394523Y-97911904D02*
X172418333Y-97959523D01*
X172418333Y-97959523D02*
X172418333Y-98078571D01*
X172418333Y-98078571D02*
X172394523Y-98126190D01*
X172394523Y-98126190D02*
X172370714Y-98150000D01*
X172370714Y-98150000D02*
X172323095Y-98173809D01*
X172323095Y-98173809D02*
X172204047Y-98173809D01*
X172204047Y-98173809D02*
X172156428Y-98150000D01*
X172156428Y-98150000D02*
X172132619Y-98126190D01*
X166261266Y-100840809D02*
X166094600Y-100602714D01*
X165975552Y-100840809D02*
X165975552Y-100340809D01*
X165975552Y-100340809D02*
X166166028Y-100340809D01*
X166166028Y-100340809D02*
X166213647Y-100364619D01*
X166213647Y-100364619D02*
X166237457Y-100388428D01*
X166237457Y-100388428D02*
X166261266Y-100436047D01*
X166261266Y-100436047D02*
X166261266Y-100507476D01*
X166261266Y-100507476D02*
X166237457Y-100555095D01*
X166237457Y-100555095D02*
X166213647Y-100578904D01*
X166213647Y-100578904D02*
X166166028Y-100602714D01*
X166166028Y-100602714D02*
X165975552Y-100602714D01*
X166689838Y-100340809D02*
X166594600Y-100340809D01*
X166594600Y-100340809D02*
X166546981Y-100364619D01*
X166546981Y-100364619D02*
X166523171Y-100388428D01*
X166523171Y-100388428D02*
X166475552Y-100459857D01*
X166475552Y-100459857D02*
X166451743Y-100555095D01*
X166451743Y-100555095D02*
X166451743Y-100745571D01*
X166451743Y-100745571D02*
X166475552Y-100793190D01*
X166475552Y-100793190D02*
X166499362Y-100817000D01*
X166499362Y-100817000D02*
X166546981Y-100840809D01*
X166546981Y-100840809D02*
X166642219Y-100840809D01*
X166642219Y-100840809D02*
X166689838Y-100817000D01*
X166689838Y-100817000D02*
X166713647Y-100793190D01*
X166713647Y-100793190D02*
X166737457Y-100745571D01*
X166737457Y-100745571D02*
X166737457Y-100626523D01*
X166737457Y-100626523D02*
X166713647Y-100578904D01*
X166713647Y-100578904D02*
X166689838Y-100555095D01*
X166689838Y-100555095D02*
X166642219Y-100531285D01*
X166642219Y-100531285D02*
X166546981Y-100531285D01*
X166546981Y-100531285D02*
X166499362Y-100555095D01*
X166499362Y-100555095D02*
X166475552Y-100578904D01*
X166475552Y-100578904D02*
X166451743Y-100626523D01*
X156845971Y-92763609D02*
X156679305Y-92525514D01*
X156560257Y-92763609D02*
X156560257Y-92263609D01*
X156560257Y-92263609D02*
X156750733Y-92263609D01*
X156750733Y-92263609D02*
X156798352Y-92287419D01*
X156798352Y-92287419D02*
X156822162Y-92311228D01*
X156822162Y-92311228D02*
X156845971Y-92358847D01*
X156845971Y-92358847D02*
X156845971Y-92430276D01*
X156845971Y-92430276D02*
X156822162Y-92477895D01*
X156822162Y-92477895D02*
X156798352Y-92501704D01*
X156798352Y-92501704D02*
X156750733Y-92525514D01*
X156750733Y-92525514D02*
X156560257Y-92525514D01*
X157322162Y-92763609D02*
X157036448Y-92763609D01*
X157179305Y-92763609D02*
X157179305Y-92263609D01*
X157179305Y-92263609D02*
X157131686Y-92335038D01*
X157131686Y-92335038D02*
X157084067Y-92382657D01*
X157084067Y-92382657D02*
X157036448Y-92406466D01*
X157488828Y-92263609D02*
X157798352Y-92263609D01*
X157798352Y-92263609D02*
X157631685Y-92454085D01*
X157631685Y-92454085D02*
X157703114Y-92454085D01*
X157703114Y-92454085D02*
X157750733Y-92477895D01*
X157750733Y-92477895D02*
X157774542Y-92501704D01*
X157774542Y-92501704D02*
X157798352Y-92549323D01*
X157798352Y-92549323D02*
X157798352Y-92668371D01*
X157798352Y-92668371D02*
X157774542Y-92715990D01*
X157774542Y-92715990D02*
X157750733Y-92739800D01*
X157750733Y-92739800D02*
X157703114Y-92763609D01*
X157703114Y-92763609D02*
X157560257Y-92763609D01*
X157560257Y-92763609D02*
X157512638Y-92739800D01*
X157512638Y-92739800D02*
X157488828Y-92715990D01*
X113396733Y-103058609D02*
X113396733Y-103415752D01*
X113396733Y-103415752D02*
X113372924Y-103487180D01*
X113372924Y-103487180D02*
X113325305Y-103534800D01*
X113325305Y-103534800D02*
X113253876Y-103558609D01*
X113253876Y-103558609D02*
X113206257Y-103558609D01*
X113849114Y-103058609D02*
X113753876Y-103058609D01*
X113753876Y-103058609D02*
X113706257Y-103082419D01*
X113706257Y-103082419D02*
X113682447Y-103106228D01*
X113682447Y-103106228D02*
X113634828Y-103177657D01*
X113634828Y-103177657D02*
X113611019Y-103272895D01*
X113611019Y-103272895D02*
X113611019Y-103463371D01*
X113611019Y-103463371D02*
X113634828Y-103510990D01*
X113634828Y-103510990D02*
X113658638Y-103534800D01*
X113658638Y-103534800D02*
X113706257Y-103558609D01*
X113706257Y-103558609D02*
X113801495Y-103558609D01*
X113801495Y-103558609D02*
X113849114Y-103534800D01*
X113849114Y-103534800D02*
X113872923Y-103510990D01*
X113872923Y-103510990D02*
X113896733Y-103463371D01*
X113896733Y-103463371D02*
X113896733Y-103344323D01*
X113896733Y-103344323D02*
X113872923Y-103296704D01*
X113872923Y-103296704D02*
X113849114Y-103272895D01*
X113849114Y-103272895D02*
X113801495Y-103249085D01*
X113801495Y-103249085D02*
X113706257Y-103249085D01*
X113706257Y-103249085D02*
X113658638Y-103272895D01*
X113658638Y-103272895D02*
X113634828Y-103296704D01*
X113634828Y-103296704D02*
X113611019Y-103344323D01*
X157066466Y-83648190D02*
X157042657Y-83672000D01*
X157042657Y-83672000D02*
X156971228Y-83695809D01*
X156971228Y-83695809D02*
X156923609Y-83695809D01*
X156923609Y-83695809D02*
X156852181Y-83672000D01*
X156852181Y-83672000D02*
X156804562Y-83624380D01*
X156804562Y-83624380D02*
X156780752Y-83576761D01*
X156780752Y-83576761D02*
X156756943Y-83481523D01*
X156756943Y-83481523D02*
X156756943Y-83410095D01*
X156756943Y-83410095D02*
X156780752Y-83314857D01*
X156780752Y-83314857D02*
X156804562Y-83267238D01*
X156804562Y-83267238D02*
X156852181Y-83219619D01*
X156852181Y-83219619D02*
X156923609Y-83195809D01*
X156923609Y-83195809D02*
X156971228Y-83195809D01*
X156971228Y-83195809D02*
X157042657Y-83219619D01*
X157042657Y-83219619D02*
X157066466Y-83243428D01*
X157256943Y-83243428D02*
X157280752Y-83219619D01*
X157280752Y-83219619D02*
X157328371Y-83195809D01*
X157328371Y-83195809D02*
X157447419Y-83195809D01*
X157447419Y-83195809D02*
X157495038Y-83219619D01*
X157495038Y-83219619D02*
X157518847Y-83243428D01*
X157518847Y-83243428D02*
X157542657Y-83291047D01*
X157542657Y-83291047D02*
X157542657Y-83338666D01*
X157542657Y-83338666D02*
X157518847Y-83410095D01*
X157518847Y-83410095D02*
X157233133Y-83695809D01*
X157233133Y-83695809D02*
X157542657Y-83695809D01*
D14*
%TO.C,R20*%
X100763400Y-97934536D02*
X100763400Y-98388664D01*
X102233400Y-97934536D02*
X102233400Y-98388664D01*
%TO.C,D2*%
X102433000Y-92726800D02*
X100513000Y-92726800D01*
X100513000Y-92726800D02*
X100513000Y-95411800D01*
X102433000Y-95411800D02*
X102433000Y-92726800D01*
%TO.C,R12*%
X138482400Y-85891864D02*
X138482400Y-85437736D01*
X139952400Y-85891864D02*
X139952400Y-85437736D01*
%TO.C,C3*%
X129220952Y-87435000D02*
X128698448Y-87435000D01*
X129220952Y-88905000D02*
X128698448Y-88905000D01*
%TO.C,R3*%
X125020400Y-101055736D02*
X125020400Y-101509864D01*
X126490400Y-101055736D02*
X126490400Y-101509864D01*
%TO.C,R10*%
X164152336Y-87079400D02*
X164606464Y-87079400D01*
X164152336Y-88549400D02*
X164606464Y-88549400D01*
%TO.C,R15*%
X103608200Y-85491536D02*
X103608200Y-85945664D01*
X105078200Y-85491536D02*
X105078200Y-85945664D01*
%TO.C,C5*%
X157450152Y-90114800D02*
X156927648Y-90114800D01*
X157450152Y-91584800D02*
X156927648Y-91584800D01*
%TO.C,R17*%
X103608200Y-89400136D02*
X103608200Y-89854264D01*
X105078200Y-89400136D02*
X105078200Y-89854264D01*
%TO.C,R18*%
X135307400Y-85444336D02*
X135307400Y-85898464D01*
X136777400Y-85444336D02*
X136777400Y-85898464D01*
%TO.C,J2*%
X156632600Y-108638900D02*
X156632600Y-107308900D01*
X157962600Y-108638900D02*
X156632600Y-108638900D01*
X159232600Y-105978900D02*
X166912600Y-105978900D01*
X159232600Y-108638900D02*
X159232600Y-105978900D01*
X159232600Y-108638900D02*
X166912600Y-108638900D01*
X166912600Y-108638900D02*
X166912600Y-105978900D01*
%TO.C,R4*%
X121972400Y-96264736D02*
X121972400Y-96718864D01*
X123442400Y-96264736D02*
X123442400Y-96718864D01*
%TO.C,R5*%
X130227400Y-96318864D02*
X130227400Y-95864736D01*
X131697400Y-96318864D02*
X131697400Y-95864736D01*
%TO.C,Q2*%
X126946900Y-94531800D02*
X126296900Y-94531800D01*
X126946900Y-94531800D02*
X127596900Y-94531800D01*
X126946900Y-97651800D02*
X126296900Y-97651800D01*
X126946900Y-97651800D02*
X127596900Y-97651800D01*
X128349400Y-97931800D02*
X127869400Y-97931800D01*
X128109400Y-97601800D01*
X128349400Y-97931800D01*
G36*
X128349400Y-97931800D02*
G01*
X127869400Y-97931800D01*
X128109400Y-97601800D01*
X128349400Y-97931800D01*
G37*
%TO.C,R19*%
X121972400Y-101087736D02*
X121972400Y-101541864D01*
X123442400Y-101087736D02*
X123442400Y-101541864D01*
%TO.C,J8*%
X160239400Y-73809800D02*
X161569400Y-73809800D01*
X160239400Y-75139800D02*
X160239400Y-73809800D01*
X160239400Y-76409800D02*
X160239400Y-79009800D01*
X160239400Y-76409800D02*
X162899400Y-76409800D01*
X160239400Y-79009800D02*
X162899400Y-79009800D01*
X162899400Y-76409800D02*
X162899400Y-79009800D01*
%TO.C,J4*%
X139173400Y-73800400D02*
X139173400Y-75920400D01*
X141233400Y-73800400D02*
X139173400Y-73800400D01*
X141233400Y-73800400D02*
X141233400Y-75920400D01*
X141233400Y-75920400D02*
X139173400Y-75920400D01*
X142233400Y-73800400D02*
X143293400Y-73800400D01*
X143293400Y-73800400D02*
X143293400Y-74860400D01*
%TO.C,J7*%
X149698400Y-73809800D02*
X149698400Y-79009800D01*
X154838400Y-73809800D02*
X149698400Y-73809800D01*
X154838400Y-73809800D02*
X154838400Y-76409800D01*
X154838400Y-76409800D02*
X157438400Y-76409800D01*
X156108400Y-73809800D02*
X157438400Y-73809800D01*
X157438400Y-73809800D02*
X157438400Y-75139800D01*
X157438400Y-76409800D02*
X157438400Y-79009800D01*
X157438400Y-79009800D02*
X149698400Y-79009800D01*
%TO.C,U6*%
X114046600Y-81367800D02*
X114046600Y-82297800D01*
X114046600Y-81367800D02*
X115506600Y-81367800D01*
X114046600Y-84527800D02*
X114046600Y-83597800D01*
X114846600Y-84527800D02*
X114046600Y-84527800D01*
X114846600Y-84527800D02*
X115646600Y-84527800D01*
X116386600Y-84887800D02*
X115906600Y-84887800D01*
X116146600Y-84557800D01*
X116386600Y-84887800D01*
G36*
X116386600Y-84887800D02*
G01*
X115906600Y-84887800D01*
X116146600Y-84557800D01*
X116386600Y-84887800D01*
G37*
%TO.C,U5*%
X106152000Y-95410600D02*
X106152000Y-93460600D01*
X106152000Y-95410600D02*
X106152000Y-97360600D01*
X111272000Y-95410600D02*
X111272000Y-93460600D01*
X111272000Y-95410600D02*
X111272000Y-97360600D01*
X111507000Y-92950600D02*
X111177000Y-92710600D01*
X111507000Y-92470600D01*
X111507000Y-92950600D01*
G36*
X111507000Y-92950600D02*
G01*
X111177000Y-92710600D01*
X111507000Y-92470600D01*
X111507000Y-92950600D01*
G37*
%TO.C,Q1*%
X114178400Y-97934800D02*
X114178400Y-95984800D01*
X114178400Y-97934800D02*
X114178400Y-99884800D01*
X119298400Y-97934800D02*
X119298400Y-95984800D01*
X119298400Y-97934800D02*
X119298400Y-99884800D01*
X114273400Y-100634800D02*
X113943400Y-100874800D01*
X113943400Y-100394800D01*
X114273400Y-100634800D01*
G36*
X114273400Y-100634800D02*
G01*
X113943400Y-100874800D01*
X113943400Y-100394800D01*
X114273400Y-100634800D01*
G37*
%TO.C,J1*%
X112313400Y-73661800D02*
X112313400Y-79631800D01*
X112313400Y-79631800D02*
X119933400Y-79631800D01*
X112323400Y-77371800D02*
X113073400Y-77371800D01*
X112323400Y-78871800D02*
X112323400Y-79621800D01*
X112323400Y-79621800D02*
X114123400Y-79621800D01*
X113073400Y-74421800D02*
X116123400Y-74421800D01*
X113073400Y-77371800D02*
X113073400Y-74421800D01*
X114123400Y-78871800D02*
X112323400Y-78871800D01*
X114123400Y-79621800D02*
X114123400Y-78871800D01*
X115623400Y-78871800D02*
X115623400Y-79621800D01*
X115623400Y-79621800D02*
X116623400Y-79621800D01*
X116623400Y-78871800D02*
X115623400Y-78871800D01*
X116623400Y-79621800D02*
X116623400Y-78871800D01*
X118123400Y-78871800D02*
X118123400Y-79621800D01*
X118123400Y-79621800D02*
X119923400Y-79621800D01*
X118973400Y-79921800D02*
X120223400Y-79921800D01*
X119173400Y-74421800D02*
X116123400Y-74421800D01*
X119173400Y-77371800D02*
X119173400Y-74421800D01*
X119923400Y-77371800D02*
X119173400Y-77371800D01*
X119923400Y-78871800D02*
X118123400Y-78871800D01*
X119923400Y-79621800D02*
X119923400Y-78871800D01*
X119933400Y-73661800D02*
X112313400Y-73661800D01*
X119933400Y-79631800D02*
X119933400Y-73661800D01*
X120223400Y-79921800D02*
X120223400Y-78671800D01*
%TO.C,U3*%
X145349400Y-83080800D02*
X145349400Y-100980800D01*
X145349400Y-100980800D02*
X149849400Y-100980800D01*
X146599400Y-83080800D02*
X145349400Y-83080800D01*
X149849400Y-83080800D02*
X148599400Y-83080800D01*
X149849400Y-100980800D02*
X149849400Y-83080800D01*
X148599400Y-83080800D02*
G75*
G02*
X146599400Y-83080800I-1000000J0D01*
G01*
%TO.C,C1*%
X122226400Y-87720052D02*
X122226400Y-87197548D01*
X123696400Y-87720052D02*
X123696400Y-87197548D01*
%TO.C,U2*%
X129778200Y-80961800D02*
X127828200Y-80961800D01*
X129778200Y-80961800D02*
X131728200Y-80961800D01*
X129778200Y-86081800D02*
X127828200Y-86081800D01*
X129778200Y-86081800D02*
X131728200Y-86081800D01*
X127078200Y-81056800D02*
X126838200Y-80726800D01*
X127318200Y-80726800D01*
X127078200Y-81056800D01*
G36*
X127078200Y-81056800D02*
G01*
X126838200Y-80726800D01*
X127318200Y-80726800D01*
X127078200Y-81056800D01*
G37*
%TO.C,C4*%
X156927648Y-87104800D02*
X157450152Y-87104800D01*
X156927648Y-88574800D02*
X157450152Y-88574800D01*
%TO.C,R8*%
X164606464Y-90076600D02*
X164152336Y-90076600D01*
X164606464Y-91546600D02*
X164152336Y-91546600D01*
%TO.C,J10*%
X100193800Y-85787000D02*
X101523800Y-85787000D01*
X100193800Y-87117000D02*
X100193800Y-85787000D01*
X100193800Y-88387000D02*
X100193800Y-90987000D01*
X100193800Y-88387000D02*
X102853800Y-88387000D01*
X100193800Y-90987000D02*
X102853800Y-90987000D01*
X102853800Y-88387000D02*
X102853800Y-90987000D01*
%TO.C,R9*%
X164574464Y-93175400D02*
X164120336Y-93175400D01*
X164574464Y-94645400D02*
X164120336Y-94645400D01*
%TO.C,R14*%
X130100400Y-101528864D02*
X130100400Y-101074736D01*
X131570400Y-101528864D02*
X131570400Y-101074736D01*
%TO.C,R7*%
X163323600Y-103036864D02*
X163323600Y-102582736D01*
X164793600Y-103036864D02*
X164793600Y-102582736D01*
%TO.C,C7*%
X119529048Y-81262800D02*
X120051552Y-81262800D01*
X119529048Y-82732800D02*
X120051552Y-82732800D01*
%TO.C,R2*%
X128703336Y-78291000D02*
X129157464Y-78291000D01*
X128703336Y-79761000D02*
X129157464Y-79761000D01*
%TO.C,U3*%
X141389800Y-83020800D02*
X141389800Y-101040800D01*
X141389800Y-101040800D02*
X153859800Y-101040800D01*
X145089800Y-83080800D02*
X145089800Y-100980800D01*
X145089800Y-100980800D02*
X150159800Y-100980800D01*
X146624800Y-83080800D02*
X145089800Y-83080800D01*
X150159800Y-83080800D02*
X148624800Y-83080800D01*
X150159800Y-100980800D02*
X150159800Y-83080800D01*
X153859800Y-83020800D02*
X141389800Y-83020800D01*
X153859800Y-101040800D02*
X153859800Y-83020800D01*
X148624800Y-83080800D02*
G75*
G02*
X146624800Y-83080800I-1000000J0D01*
G01*
%TO.C,R1*%
X122226400Y-83097864D02*
X122226400Y-82643736D01*
X123696400Y-83097864D02*
X123696400Y-82643736D01*
%TO.C,D1*%
X129875400Y-104365800D02*
X129875400Y-107050800D01*
X129875400Y-107050800D02*
X131795400Y-107050800D01*
X131795400Y-107050800D02*
X131795400Y-104365800D01*
%TO.C,R16*%
X103582800Y-97934536D02*
X103582800Y-98388664D01*
X105052800Y-97934536D02*
X105052800Y-98388664D01*
%TO.C,R11*%
X164599864Y-84031400D02*
X164145736Y-84031400D01*
X164599864Y-85501400D02*
X164145736Y-85501400D01*
%TO.C,C8*%
X103582800Y-94497952D02*
X103582800Y-93975448D01*
X105052800Y-94497952D02*
X105052800Y-93975448D01*
%TO.C,C6*%
X118162400Y-85201552D02*
X118162400Y-84679048D01*
X119632400Y-85201552D02*
X119632400Y-84679048D01*
%TO.C,GND1*%
X125469800Y-73660400D02*
X127869800Y-73660400D01*
X125469800Y-76060400D02*
X125469800Y-73660400D01*
X127869800Y-73660400D02*
X127869800Y-76060400D01*
X127869800Y-76060400D02*
X125469800Y-76060400D01*
%TO.C,J3*%
X133363400Y-73800400D02*
X133363400Y-75920400D01*
X135423400Y-73800400D02*
X133363400Y-73800400D01*
X135423400Y-73800400D02*
X135423400Y-75920400D01*
X135423400Y-75920400D02*
X133363400Y-75920400D01*
X136423400Y-73800400D02*
X137483400Y-73800400D01*
X137483400Y-73800400D02*
X137483400Y-74860400D01*
D15*
%TO.C,G10*%
G36*
X139229132Y-104566216D02*
G01*
X139277716Y-104596538D01*
X139331163Y-104645979D01*
X139342318Y-104657315D01*
X139392995Y-104712390D01*
X139425811Y-104761042D01*
X139438246Y-104808960D01*
X139427777Y-104861833D01*
X139391885Y-104925352D01*
X139328048Y-105005204D01*
X139233744Y-105107081D01*
X139106454Y-105236670D01*
X139068903Y-105274344D01*
X138944060Y-105398732D01*
X138848585Y-105491605D01*
X138776894Y-105557481D01*
X138723405Y-105600879D01*
X138682537Y-105626316D01*
X138648708Y-105638312D01*
X138616334Y-105641384D01*
X138615438Y-105641385D01*
X138547732Y-105630905D01*
X138486305Y-105592837D01*
X138442169Y-105550029D01*
X138382871Y-105474483D01*
X138358239Y-105403977D01*
X138356008Y-105369313D01*
X138358598Y-105336392D01*
X138369430Y-105303114D01*
X138393099Y-105263839D01*
X138434202Y-105212927D01*
X138497331Y-105144737D01*
X138587084Y-105053628D01*
X138708054Y-104933961D01*
X138721191Y-104921045D01*
X138860055Y-104785931D01*
X138969652Y-104684427D01*
X139055670Y-104614119D01*
X139123797Y-104572591D01*
X139179721Y-104557429D01*
X139229132Y-104566216D01*
G37*
G36*
X138635031Y-104232802D02*
G01*
X138728231Y-104298639D01*
X138742791Y-104311755D01*
X138826660Y-104404625D01*
X138864222Y-104488126D01*
X138857280Y-104567207D01*
X138845446Y-104593333D01*
X138819861Y-104625734D01*
X138764893Y-104686356D01*
X138687208Y-104768483D01*
X138593468Y-104865399D01*
X138490336Y-104970389D01*
X138384477Y-105076737D01*
X138282553Y-105177727D01*
X138191228Y-105266643D01*
X138117166Y-105336771D01*
X138067029Y-105381393D01*
X138052829Y-105392161D01*
X137970955Y-105416445D01*
X137880324Y-105391620D01*
X137781628Y-105317878D01*
X137780784Y-105317069D01*
X137718704Y-105250967D01*
X137687830Y-105195936D01*
X137678589Y-105133774D01*
X137678477Y-105122553D01*
X137680475Y-105088854D01*
X137689322Y-105056138D01*
X137709449Y-105018848D01*
X137745290Y-104971429D01*
X137801277Y-104908321D01*
X137881841Y-104823970D01*
X137991416Y-104712817D01*
X138061234Y-104642678D01*
X138176026Y-104528167D01*
X138280590Y-104425051D01*
X138369164Y-104338915D01*
X138435987Y-104275345D01*
X138475299Y-104239925D01*
X138481502Y-104235207D01*
X138554413Y-104212134D01*
X138635031Y-104232802D01*
G37*
G36*
X137765331Y-103112976D02*
G01*
X137817130Y-103138835D01*
X137876957Y-103193198D01*
X137901033Y-103218789D01*
X137959887Y-103287393D01*
X137993959Y-103345501D01*
X138001124Y-103401123D01*
X137979255Y-103462269D01*
X137926229Y-103536950D01*
X137839918Y-103633177D01*
X137772461Y-103703364D01*
X137609075Y-103871090D01*
X137476326Y-104005842D01*
X137370003Y-104110777D01*
X137285894Y-104189052D01*
X137219789Y-104243825D01*
X137167477Y-104278251D01*
X137124747Y-104295489D01*
X137087388Y-104298696D01*
X137051190Y-104291028D01*
X137011941Y-104275643D01*
X137010188Y-104274886D01*
X136943702Y-104232255D01*
X136878124Y-104169566D01*
X136865870Y-104154486D01*
X136828940Y-104102833D01*
X136806011Y-104056932D01*
X136799973Y-104011370D01*
X136813715Y-103960735D01*
X136850127Y-103899615D01*
X136912097Y-103822597D01*
X137002517Y-103724268D01*
X137124275Y-103599217D01*
X137206746Y-103515981D01*
X137338137Y-103384209D01*
X137439728Y-103284073D01*
X137516762Y-103211269D01*
X137574480Y-103161491D01*
X137618127Y-103130435D01*
X137652945Y-103113795D01*
X137684176Y-103107266D01*
X137705525Y-103106405D01*
X137765331Y-103112976D01*
G37*
G36*
X138180030Y-103665420D02*
G01*
X138235152Y-103691858D01*
X138299822Y-103746762D01*
X138321663Y-103768221D01*
X138387594Y-103841004D01*
X138421194Y-103899554D01*
X138430912Y-103958912D01*
X138430920Y-103962737D01*
X138423915Y-104032731D01*
X138407531Y-104084299D01*
X138406945Y-104085259D01*
X138383066Y-104113097D01*
X138328828Y-104170833D01*
X138249515Y-104253021D01*
X138150411Y-104354212D01*
X138036802Y-104468959D01*
X137962607Y-104543312D01*
X137829036Y-104676392D01*
X137725534Y-104778004D01*
X137646880Y-104852378D01*
X137587853Y-104903743D01*
X137543230Y-104936330D01*
X137507791Y-104954368D01*
X137476315Y-104962087D01*
X137443656Y-104963717D01*
X137380389Y-104957589D01*
X137326188Y-104933242D01*
X137264100Y-104881734D01*
X137235809Y-104854075D01*
X137171251Y-104783527D01*
X137137773Y-104727089D01*
X137126536Y-104668439D01*
X137126166Y-104651594D01*
X137130371Y-104604628D01*
X137147167Y-104559502D01*
X137182826Y-104506368D01*
X137243620Y-104435379D01*
X137308133Y-104365929D01*
X137397379Y-104273286D01*
X137509359Y-104159889D01*
X137630351Y-104039495D01*
X137746635Y-103925861D01*
X137757017Y-103915842D01*
X137862793Y-103814931D01*
X137940600Y-103744301D01*
X137997873Y-103698653D01*
X138042051Y-103672685D01*
X138080570Y-103661097D01*
X138117978Y-103658579D01*
X138180030Y-103665420D01*
G37*
G36*
X139587981Y-104755713D02*
G01*
X139635137Y-104778784D01*
X139707260Y-104804931D01*
X139776529Y-104800612D01*
X139806133Y-104792455D01*
X139895032Y-104765171D01*
X139797606Y-104864945D01*
X139700179Y-104964718D01*
X140314408Y-105580721D01*
X140460383Y-105726538D01*
X140596849Y-105861754D01*
X140719351Y-105982038D01*
X140823433Y-106083060D01*
X140904641Y-106160488D01*
X140958517Y-106209992D01*
X140978834Y-106226515D01*
X141013302Y-106235523D01*
X141085904Y-106243472D01*
X141198814Y-106250456D01*
X141354204Y-106256568D01*
X141554248Y-106261903D01*
X141801119Y-106266554D01*
X141957688Y-106268856D01*
X142886344Y-106281405D01*
X142886344Y-106344152D01*
X142886344Y-106406899D01*
X141957688Y-106412353D01*
X141703918Y-106413477D01*
X141495804Y-106413495D01*
X141328818Y-106412279D01*
X141198429Y-106409701D01*
X141100105Y-106405633D01*
X141029316Y-106399946D01*
X140981532Y-106392511D01*
X140953736Y-106383902D01*
X140918786Y-106358539D01*
X140853279Y-106301681D01*
X140761808Y-106217668D01*
X140648964Y-106110840D01*
X140519342Y-105985536D01*
X140377535Y-105846099D01*
X140250969Y-105719826D01*
X140104976Y-105573815D01*
X139969762Y-105439754D01*
X139849477Y-105321669D01*
X139748273Y-105223585D01*
X139670298Y-105149528D01*
X139619706Y-105103524D01*
X139601003Y-105089433D01*
X139572401Y-105105303D01*
X139519622Y-105147005D01*
X139458044Y-105201890D01*
X139377898Y-105268700D01*
X139319984Y-105299398D01*
X139298574Y-105299600D01*
X139266181Y-105276237D01*
X139267957Y-105239840D01*
X139306182Y-105184872D01*
X139375377Y-105113261D01*
X139467896Y-105009610D01*
X139528181Y-104911201D01*
X139552025Y-104826018D01*
X139547617Y-104786183D01*
X139538786Y-104751131D01*
X139549060Y-104741243D01*
X139587981Y-104755713D01*
G37*
G36*
X135412837Y-100162201D02*
G01*
X135469281Y-100210614D01*
X135547929Y-100284053D01*
X135643025Y-100376585D01*
X135748813Y-100482279D01*
X135859539Y-100595203D01*
X135969446Y-100709425D01*
X136072779Y-100819014D01*
X136163783Y-100918037D01*
X136236702Y-101000564D01*
X136285781Y-101060661D01*
X136305264Y-101092398D01*
X136305347Y-101093956D01*
X136321843Y-101125286D01*
X136373803Y-101189587D01*
X136460018Y-101285551D01*
X136579281Y-101411872D01*
X136730382Y-101567242D01*
X136912113Y-101750356D01*
X136913994Y-101752235D01*
X137082712Y-101921448D01*
X137218641Y-102059337D01*
X137325028Y-102169520D01*
X137405123Y-102255615D01*
X137462176Y-102321240D01*
X137499436Y-102370013D01*
X137520151Y-102405552D01*
X137527572Y-102431474D01*
X137527747Y-102435626D01*
X137542258Y-102531109D01*
X137588432Y-102632376D01*
X137670238Y-102746236D01*
X137778543Y-102866069D01*
X137861302Y-102955503D01*
X137914309Y-103021530D01*
X137936109Y-103061317D01*
X137925249Y-103072028D01*
X137880276Y-103050829D01*
X137869979Y-103044391D01*
X137786069Y-103011475D01*
X137669162Y-103002109D01*
X137633857Y-103003232D01*
X137584822Y-103021202D01*
X137518055Y-103064660D01*
X137467908Y-103106405D01*
X137405873Y-103160327D01*
X137357180Y-103196769D01*
X137336545Y-103206800D01*
X137314621Y-103189597D01*
X137261067Y-103140413D01*
X137179625Y-103062884D01*
X137074037Y-102960647D01*
X136948045Y-102837338D01*
X136805390Y-102696595D01*
X136649815Y-102542053D01*
X136548894Y-102441287D01*
X136354260Y-102247180D01*
X136191698Y-102086511D01*
X136058361Y-101956654D01*
X135951408Y-101854981D01*
X135867992Y-101778863D01*
X135805270Y-101725675D01*
X135760399Y-101692787D01*
X135730533Y-101677573D01*
X135720264Y-101675773D01*
X135679372Y-101664048D01*
X135622116Y-101626167D01*
X135543315Y-101558070D01*
X135437789Y-101455695D01*
X135431764Y-101449650D01*
X135206689Y-101223527D01*
X133179669Y-103250432D01*
X132859135Y-103571126D01*
X132572546Y-103858271D01*
X132318181Y-104113643D01*
X132094321Y-104339017D01*
X131899245Y-104536169D01*
X131731234Y-104706875D01*
X131588567Y-104852911D01*
X131469524Y-104976052D01*
X131372385Y-105078073D01*
X131295431Y-105160752D01*
X131236940Y-105225862D01*
X131195194Y-105275180D01*
X131168471Y-105310482D01*
X131155053Y-105333543D01*
X131152649Y-105342994D01*
X131130661Y-105425285D01*
X131072966Y-105488475D01*
X130991962Y-105527800D01*
X130900048Y-105538492D01*
X130809623Y-105515786D01*
X130768929Y-105490487D01*
X130707742Y-105415063D01*
X130685553Y-105325739D01*
X130698213Y-105234274D01*
X130741576Y-105152428D01*
X130811495Y-105091959D01*
X130903823Y-105064627D01*
X130919297Y-105064113D01*
X130943348Y-105046578D01*
X131000918Y-104995154D01*
X131090197Y-104911613D01*
X131209375Y-104797724D01*
X131356641Y-104655259D01*
X131530185Y-104485988D01*
X131728196Y-104291682D01*
X131948864Y-104074112D01*
X132190380Y-103835050D01*
X132450931Y-103576265D01*
X132728708Y-103299528D01*
X132983425Y-103045095D01*
X135002325Y-101026078D01*
X134884602Y-100900222D01*
X134825574Y-100834364D01*
X134783329Y-100781976D01*
X134766882Y-100754252D01*
X134766878Y-100754074D01*
X134783999Y-100728767D01*
X134830504Y-100676377D01*
X134899102Y-100604097D01*
X134982504Y-100519122D01*
X135073419Y-100428646D01*
X135164558Y-100339860D01*
X135248631Y-100259961D01*
X135318349Y-100196140D01*
X135366420Y-100155593D01*
X135384352Y-100144745D01*
X135412837Y-100162201D01*
G37*
G36*
X141417830Y-101085717D02*
G01*
X141956789Y-101625113D01*
X141351382Y-102233990D01*
X141207818Y-102379424D01*
X141075637Y-102515336D01*
X140959053Y-102637238D01*
X140862278Y-102740643D01*
X140789525Y-102821062D01*
X140745008Y-102874008D01*
X140732662Y-102893065D01*
X140722925Y-102933595D01*
X140704450Y-103013812D01*
X140679355Y-103124396D01*
X140649761Y-103256023D01*
X140627122Y-103357393D01*
X140580101Y-103560138D01*
X140536053Y-103723550D01*
X140489643Y-103857800D01*
X140435534Y-103973060D01*
X140368392Y-104079502D01*
X140282881Y-104187297D01*
X140173665Y-104306618D01*
X140077462Y-104405269D01*
X139976556Y-104505741D01*
X139886891Y-104592111D01*
X139814697Y-104658610D01*
X139766202Y-104699470D01*
X139748621Y-104709818D01*
X139704067Y-104701266D01*
X139681150Y-104695655D01*
X139638525Y-104664326D01*
X139622943Y-104635684D01*
X139583908Y-104563297D01*
X139518178Y-104484913D01*
X139442716Y-104419316D01*
X139408415Y-104398093D01*
X139340070Y-104375974D01*
X139250196Y-104362879D01*
X139211259Y-104361346D01*
X139133651Y-104358223D01*
X139088821Y-104343759D01*
X139059486Y-104310310D01*
X139047772Y-104289039D01*
X138969454Y-104185968D01*
X138858637Y-104103451D01*
X138745402Y-104057633D01*
X138677421Y-104036931D01*
X138642974Y-104008714D01*
X138626329Y-103955836D01*
X138620816Y-103921837D01*
X138582010Y-103802115D01*
X138507543Y-103682760D01*
X138408998Y-103581105D01*
X138377064Y-103557061D01*
X138322761Y-103519534D01*
X138289458Y-103496526D01*
X138285765Y-103493977D01*
X138285536Y-103468949D01*
X138294410Y-103424499D01*
X138304383Y-103391687D01*
X138318387Y-103382413D01*
X138345132Y-103400591D01*
X138393330Y-103450139D01*
X138423087Y-103482355D01*
X138551660Y-103599410D01*
X138676247Y-103666552D01*
X138797649Y-103683840D01*
X138916664Y-103651330D01*
X139034091Y-103569079D01*
X139074588Y-103528952D01*
X139150811Y-103437603D01*
X139192856Y-103356728D01*
X139208597Y-103269392D01*
X139209368Y-103239134D01*
X139205975Y-103184685D01*
X139192435Y-103134278D01*
X139163705Y-103080458D01*
X139114745Y-103015770D01*
X139040511Y-102932757D01*
X138935963Y-102823963D01*
X138912224Y-102799731D01*
X138830887Y-102715259D01*
X138765568Y-102644349D01*
X138722642Y-102594149D01*
X138708480Y-102571804D01*
X138708697Y-102571494D01*
X138733916Y-102557115D01*
X138795298Y-102524196D01*
X138884395Y-102477211D01*
X138992761Y-102420637D01*
X139026920Y-102402901D01*
X139137493Y-102344831D01*
X139229327Y-102295201D01*
X139294596Y-102258349D01*
X139325471Y-102238616D01*
X139326817Y-102236634D01*
X139303251Y-102243682D01*
X139242748Y-102266214D01*
X139154718Y-102300431D01*
X139048568Y-102342533D01*
X138933707Y-102388719D01*
X138819545Y-102435190D01*
X138715490Y-102478146D01*
X138630951Y-102513787D01*
X138575336Y-102538312D01*
X138558510Y-102546936D01*
X138571573Y-102566470D01*
X138614594Y-102615452D01*
X138682006Y-102687870D01*
X138768240Y-102777710D01*
X138840872Y-102851849D01*
X138950424Y-102963747D01*
X139029002Y-103047247D01*
X139081625Y-103108939D01*
X139113313Y-103155415D01*
X139129085Y-103193264D01*
X139133962Y-103229076D01*
X139134072Y-103236788D01*
X139111126Y-103343203D01*
X139049963Y-103445012D01*
X138962093Y-103530757D01*
X138859025Y-103588978D01*
X138760833Y-103608381D01*
X138732481Y-103606232D01*
X138702928Y-103597225D01*
X138667665Y-103577521D01*
X138622183Y-103543280D01*
X138561972Y-103490663D01*
X138482524Y-103415830D01*
X138379329Y-103314943D01*
X138247878Y-103184162D01*
X138163930Y-103100130D01*
X138013231Y-102948488D01*
X137894612Y-102827348D01*
X137804170Y-102732213D01*
X137738007Y-102658580D01*
X137692222Y-102601950D01*
X137662915Y-102557822D01*
X137646185Y-102521695D01*
X137639041Y-102494480D01*
X137640698Y-102382446D01*
X137679850Y-102274170D01*
X137748587Y-102185984D01*
X137807880Y-102145972D01*
X137882192Y-102112424D01*
X137989259Y-102066202D01*
X138120993Y-102010600D01*
X138269308Y-101948912D01*
X138426118Y-101884432D01*
X138583337Y-101820456D01*
X138732878Y-101760278D01*
X138866655Y-101707192D01*
X138976582Y-101664492D01*
X139054573Y-101635473D01*
X139087778Y-101624524D01*
X139156117Y-101613823D01*
X139260943Y-101606684D01*
X139388631Y-101603752D01*
X139500822Y-101604941D01*
X139811119Y-101613026D01*
X140344995Y-101079673D01*
X140878872Y-100546321D01*
X141417830Y-101085717D01*
G37*
G36*
X130718270Y-104185654D02*
G01*
X130791596Y-104275192D01*
X130858713Y-104356874D01*
X130909323Y-104418177D01*
X130924690Y-104436642D01*
X130977219Y-104499389D01*
X131061419Y-104401978D01*
X131111018Y-104351162D01*
X131147628Y-104325657D01*
X131159239Y-104326681D01*
X131170740Y-104362963D01*
X131184471Y-104429950D01*
X131190901Y-104469340D01*
X131203278Y-104541093D01*
X131218993Y-104574377D01*
X131248456Y-104580421D01*
X131287466Y-104573492D01*
X131325205Y-104566806D01*
X131339379Y-104571329D01*
X131326917Y-104593557D01*
X131284752Y-104639988D01*
X131228803Y-104697661D01*
X131148719Y-104777180D01*
X131096306Y-104821689D01*
X131066371Y-104834123D01*
X131053723Y-104817420D01*
X131052253Y-104797502D01*
X131045016Y-104770976D01*
X131016526Y-104786431D01*
X130993171Y-104794449D01*
X130962147Y-104778413D01*
X130916401Y-104732642D01*
X130848880Y-104651461D01*
X130786765Y-104576307D01*
X130735928Y-104519153D01*
X130704691Y-104489197D01*
X130699931Y-104486840D01*
X130689301Y-104509913D01*
X130675046Y-104571746D01*
X130659514Y-104661256D01*
X130652031Y-104712729D01*
X130636566Y-104819606D01*
X130623219Y-104886133D01*
X130608181Y-104921810D01*
X130587642Y-104936134D01*
X130561408Y-104938619D01*
X130517622Y-104948794D01*
X130515013Y-104973430D01*
X130509797Y-104992782D01*
X130473245Y-105009698D01*
X130398549Y-105026433D01*
X130313435Y-105040218D01*
X130217022Y-105056144D01*
X130143012Y-105071383D01*
X130102730Y-105083468D01*
X130098592Y-105086978D01*
X130116493Y-105107301D01*
X130162963Y-105149795D01*
X130227265Y-105205402D01*
X130298668Y-105265065D01*
X130366436Y-105319728D01*
X130419836Y-105360333D01*
X130434642Y-105370528D01*
X130447031Y-105397028D01*
X130430848Y-105419471D01*
X130401876Y-105462615D01*
X130414165Y-105487530D01*
X130434648Y-105490792D01*
X130448153Y-105502634D01*
X130443641Y-105542582D01*
X130419752Y-105617269D01*
X130395651Y-105681263D01*
X130362169Y-105772152D01*
X130338634Y-105845148D01*
X130328977Y-105887735D01*
X130329314Y-105892561D01*
X130354234Y-105893136D01*
X130414606Y-105877230D01*
X130499663Y-105847953D01*
X130546915Y-105829737D01*
X130646586Y-105790765D01*
X130709308Y-105769479D01*
X130744513Y-105764371D01*
X130761634Y-105773931D01*
X130769457Y-105794131D01*
X130792260Y-105836289D01*
X130820276Y-105834122D01*
X130834911Y-105810802D01*
X130854247Y-105793945D01*
X130868376Y-105806393D01*
X130975134Y-105942598D01*
X131057330Y-106041745D01*
X131113830Y-106102555D01*
X131143499Y-106123749D01*
X131147536Y-106121052D01*
X131155025Y-106085029D01*
X131167059Y-106012869D01*
X131181410Y-105918177D01*
X131185950Y-105886589D01*
X131201478Y-105784885D01*
X131215308Y-105723303D01*
X131231519Y-105692103D01*
X131254188Y-105681543D01*
X131271988Y-105681039D01*
X131316330Y-105669741D01*
X131322186Y-105644700D01*
X131331029Y-105622107D01*
X131371049Y-105602885D01*
X131449845Y-105584093D01*
X131504032Y-105574300D01*
X131599566Y-105557914D01*
X131678057Y-105544238D01*
X131724322Y-105535920D01*
X131727318Y-105535343D01*
X131724144Y-105518359D01*
X131687436Y-105478146D01*
X131623923Y-105421452D01*
X131571323Y-105378860D01*
X131483137Y-105308199D01*
X131429868Y-105260069D01*
X131405759Y-105227590D01*
X131405048Y-105203879D01*
X131413784Y-105190619D01*
X131437229Y-105147532D01*
X131437747Y-105126069D01*
X131449358Y-105096373D01*
X131489092Y-105044634D01*
X131541417Y-104989075D01*
X131607228Y-104929220D01*
X131644225Y-104907630D01*
X131654625Y-104919979D01*
X131668797Y-104948499D01*
X131717373Y-104967834D01*
X131780119Y-104978636D01*
X131851198Y-104990888D01*
X131895927Y-105004044D01*
X131904013Y-105010874D01*
X131885359Y-105034099D01*
X131838759Y-105078052D01*
X131790923Y-105119234D01*
X131679433Y-105212003D01*
X131936841Y-105418547D01*
X132033244Y-105495882D01*
X132114849Y-105561314D01*
X132174035Y-105608733D01*
X132203177Y-105632029D01*
X132204707Y-105633238D01*
X132209254Y-105644811D01*
X132187875Y-105656411D01*
X132134500Y-105669555D01*
X132043057Y-105685761D01*
X131917137Y-105705116D01*
X131780396Y-105725182D01*
X131686567Y-105740537D01*
X131629131Y-105755216D01*
X131601569Y-105773251D01*
X131597363Y-105798677D01*
X131609994Y-105835527D01*
X131630633Y-105882406D01*
X131657628Y-105950769D01*
X131671735Y-105997462D01*
X131671923Y-106008936D01*
X131645377Y-106006272D01*
X131585681Y-105990150D01*
X131521530Y-105969372D01*
X131380198Y-105920747D01*
X131366577Y-106000681D01*
X131352592Y-106085138D01*
X131336029Y-106188710D01*
X131318713Y-106299497D01*
X131302471Y-106405603D01*
X131289129Y-106495131D01*
X131280511Y-106556181D01*
X131278244Y-106576316D01*
X131271201Y-106593367D01*
X131248176Y-106582525D01*
X131205844Y-106540511D01*
X131140877Y-106464042D01*
X131054479Y-106355624D01*
X130981338Y-106263813D01*
X130919164Y-106188615D01*
X130874472Y-106137715D01*
X130853781Y-106118800D01*
X130853689Y-106118799D01*
X130832043Y-106137843D01*
X130792710Y-106186022D01*
X130764090Y-106225000D01*
X130689267Y-106330666D01*
X130656143Y-106181355D01*
X130637573Y-106101564D01*
X130622671Y-106044567D01*
X130615635Y-106024662D01*
X130590844Y-106030379D01*
X130528249Y-106051255D01*
X130436789Y-106084148D01*
X130325404Y-106125920D01*
X130302980Y-106134503D01*
X130188376Y-106177263D01*
X130091424Y-106211077D01*
X130021235Y-106232941D01*
X129986921Y-106239853D01*
X129985238Y-106239258D01*
X129989129Y-106212516D01*
X130008834Y-106148682D01*
X130041197Y-106057138D01*
X130083062Y-105947269D01*
X130085783Y-105940362D01*
X130129058Y-105830213D01*
X130164684Y-105738635D01*
X130189116Y-105674805D01*
X130198810Y-105647902D01*
X130198845Y-105647660D01*
X130177427Y-105642848D01*
X130139284Y-105641385D01*
X130070137Y-105636315D01*
X130001265Y-105625704D01*
X129922857Y-105610022D01*
X130035882Y-105510533D01*
X130093737Y-105454833D01*
X130129740Y-105410740D01*
X130136358Y-105390740D01*
X130113031Y-105368126D01*
X130058251Y-105320844D01*
X129979839Y-105255493D01*
X129885615Y-105178670D01*
X129871051Y-105166927D01*
X129776011Y-105087706D01*
X129703823Y-105022111D01*
X129659968Y-104975493D01*
X129649924Y-104953203D01*
X129651331Y-104952390D01*
X129688364Y-104944431D01*
X129763619Y-104931252D01*
X129865632Y-104914783D01*
X129966730Y-104899351D01*
X130078586Y-104880960D01*
X130169493Y-104862683D01*
X130229563Y-104846737D01*
X130249091Y-104836084D01*
X130239103Y-104801437D01*
X130214356Y-104742317D01*
X130206945Y-104726445D01*
X130183711Y-104666512D01*
X130178232Y-104627153D01*
X130180486Y-104622376D01*
X130211238Y-104620755D01*
X130272358Y-104633977D01*
X130314734Y-104647086D01*
X130385579Y-104667721D01*
X130435252Y-104675702D01*
X130447863Y-104673309D01*
X130456872Y-104644537D01*
X130471285Y-104575729D01*
X130489272Y-104476524D01*
X130509002Y-104356560D01*
X130513405Y-104328273D01*
X130564380Y-103997413D01*
X130718270Y-104185654D01*
G37*
D14*
%TO.C,U4*%
X106152000Y-87692000D02*
X106152000Y-85742000D01*
X106152000Y-87692000D02*
X106152000Y-89642000D01*
X111272000Y-87692000D02*
X111272000Y-85742000D01*
X111272000Y-87692000D02*
X111272000Y-89642000D01*
X111507000Y-85232000D02*
X111177000Y-84992000D01*
X111507000Y-84752000D01*
X111507000Y-85232000D01*
G36*
X111507000Y-85232000D02*
G01*
X111177000Y-84992000D01*
X111507000Y-84752000D01*
X111507000Y-85232000D01*
G37*
%TO.C,J5*%
X169764400Y-94570800D02*
X169764400Y-84350800D01*
X172424400Y-84350800D02*
X169764400Y-84350800D01*
X172424400Y-94570800D02*
X169764400Y-94570800D01*
X172424400Y-94570800D02*
X172424400Y-84350800D01*
X172424400Y-95840800D02*
X172424400Y-97170800D01*
X172424400Y-97170800D02*
X171094400Y-97170800D01*
%TO.C,R6*%
X165609600Y-103036864D02*
X165609600Y-102582736D01*
X167079600Y-103036864D02*
X167079600Y-102582736D01*
%TO.C,R13*%
X156940336Y-93200800D02*
X157394464Y-93200800D01*
X156940336Y-94670800D02*
X157394464Y-94670800D01*
%TO.C,J6*%
X113180800Y-103837000D02*
X113180800Y-109807000D01*
X113180800Y-109807000D02*
X128300800Y-109807000D01*
X113190800Y-107547000D02*
X113940800Y-107547000D01*
X113190800Y-109047000D02*
X113190800Y-109797000D01*
X113190800Y-109797000D02*
X114990800Y-109797000D01*
X113940800Y-104597000D02*
X120740800Y-104597000D01*
X113940800Y-107547000D02*
X113940800Y-104597000D01*
X114990800Y-109047000D02*
X113190800Y-109047000D01*
X114990800Y-109797000D02*
X114990800Y-109047000D01*
X116490800Y-109047000D02*
X116490800Y-109797000D01*
X116490800Y-109797000D02*
X124990800Y-109797000D01*
X124990800Y-109047000D02*
X116490800Y-109047000D01*
X124990800Y-109797000D02*
X124990800Y-109047000D01*
X126490800Y-109047000D02*
X126490800Y-109797000D01*
X126490800Y-109797000D02*
X128290800Y-109797000D01*
X127340800Y-110097000D02*
X128590800Y-110097000D01*
X127540800Y-104597000D02*
X120740800Y-104597000D01*
X127540800Y-107547000D02*
X127540800Y-104597000D01*
X128290800Y-107547000D02*
X127540800Y-107547000D01*
X128290800Y-109047000D02*
X126490800Y-109047000D01*
X128290800Y-109797000D02*
X128290800Y-109047000D01*
X128300800Y-103837000D02*
X113180800Y-103837000D01*
X128300800Y-109807000D02*
X128300800Y-103837000D01*
X128590800Y-110097000D02*
X128590800Y-108847000D01*
%TO.C,C2*%
X156884648Y-84056800D02*
X157407152Y-84056800D01*
X156884648Y-85526800D02*
X157407152Y-85526800D01*
%TO.C,J9*%
X156632600Y-104206600D02*
X156632600Y-99006600D01*
X159232600Y-101606600D02*
X159232600Y-104206600D01*
X159232600Y-104206600D02*
X156632600Y-104206600D01*
X161832600Y-99006600D02*
X156632600Y-99006600D01*
X161832600Y-101606600D02*
X159232600Y-101606600D01*
X161832600Y-101606600D02*
X161832600Y-99006600D01*
X161832600Y-102876600D02*
X161832600Y-104206600D01*
X161832600Y-104206600D02*
X160502600Y-104206600D01*
%TD*%
M02*
