%TF.GenerationSoftware,KiCad,Pcbnew,8.0.1*%
%TF.CreationDate,2024-10-14T21:16:15+02:00*%
%TF.ProjectId,SMD-Loetstation,534d442d-4c6f-4657-9473-746174696f6e,rev?*%
%TF.SameCoordinates,Original*%
%TF.FileFunction,Drillmap*%
%TF.FilePolarity,Positive*%
%FSLAX45Y45*%
G04 Gerber Fmt 4.5, Leading zero omitted, Abs format (unit mm)*
G04 Created by KiCad (PCBNEW 8.0.1) date 2024-10-14 21:16:15*
%MOMM*%
%LPD*%
G01*
G04 APERTURE LIST*
%ADD10C,0.050000*%
%ADD11C,0.200000*%
G04 APERTURE END LIST*
D10*
X9753600Y-7162800D02*
X17780000Y-7162800D01*
X17780000Y-7162800D02*
X17780000Y-11176000D01*
X17780000Y-11176000D02*
X9753600Y-11176000D01*
X9753600Y-11176000D02*
X9753600Y-7162800D01*
D11*
X10011877Y-11489984D02*
X10011877Y-11289984D01*
X10011877Y-11289984D02*
X10059496Y-11289984D01*
X10059496Y-11289984D02*
X10088067Y-11299508D01*
X10088067Y-11299508D02*
X10107115Y-11318555D01*
X10107115Y-11318555D02*
X10116639Y-11337603D01*
X10116639Y-11337603D02*
X10126163Y-11375698D01*
X10126163Y-11375698D02*
X10126163Y-11404269D01*
X10126163Y-11404269D02*
X10116639Y-11442365D01*
X10116639Y-11442365D02*
X10107115Y-11461412D01*
X10107115Y-11461412D02*
X10088067Y-11480460D01*
X10088067Y-11480460D02*
X10059496Y-11489984D01*
X10059496Y-11489984D02*
X10011877Y-11489984D01*
X10211877Y-11489984D02*
X10211877Y-11356650D01*
X10211877Y-11394746D02*
X10221401Y-11375698D01*
X10221401Y-11375698D02*
X10230924Y-11366174D01*
X10230924Y-11366174D02*
X10249972Y-11356650D01*
X10249972Y-11356650D02*
X10269020Y-11356650D01*
X10335686Y-11489984D02*
X10335686Y-11356650D01*
X10335686Y-11289984D02*
X10326163Y-11299508D01*
X10326163Y-11299508D02*
X10335686Y-11309031D01*
X10335686Y-11309031D02*
X10345210Y-11299508D01*
X10345210Y-11299508D02*
X10335686Y-11289984D01*
X10335686Y-11289984D02*
X10335686Y-11309031D01*
X10459496Y-11489984D02*
X10440448Y-11480460D01*
X10440448Y-11480460D02*
X10430924Y-11461412D01*
X10430924Y-11461412D02*
X10430924Y-11289984D01*
X10564258Y-11489984D02*
X10545210Y-11480460D01*
X10545210Y-11480460D02*
X10535686Y-11461412D01*
X10535686Y-11461412D02*
X10535686Y-11289984D01*
X10792829Y-11489984D02*
X10792829Y-11289984D01*
X10792829Y-11289984D02*
X10859496Y-11432841D01*
X10859496Y-11432841D02*
X10926163Y-11289984D01*
X10926163Y-11289984D02*
X10926163Y-11489984D01*
X11107115Y-11489984D02*
X11107115Y-11385222D01*
X11107115Y-11385222D02*
X11097591Y-11366174D01*
X11097591Y-11366174D02*
X11078544Y-11356650D01*
X11078544Y-11356650D02*
X11040448Y-11356650D01*
X11040448Y-11356650D02*
X11021401Y-11366174D01*
X11107115Y-11480460D02*
X11088067Y-11489984D01*
X11088067Y-11489984D02*
X11040448Y-11489984D01*
X11040448Y-11489984D02*
X11021401Y-11480460D01*
X11021401Y-11480460D02*
X11011877Y-11461412D01*
X11011877Y-11461412D02*
X11011877Y-11442365D01*
X11011877Y-11442365D02*
X11021401Y-11423317D01*
X11021401Y-11423317D02*
X11040448Y-11413793D01*
X11040448Y-11413793D02*
X11088067Y-11413793D01*
X11088067Y-11413793D02*
X11107115Y-11404269D01*
X11202353Y-11356650D02*
X11202353Y-11556650D01*
X11202353Y-11366174D02*
X11221401Y-11356650D01*
X11221401Y-11356650D02*
X11259496Y-11356650D01*
X11259496Y-11356650D02*
X11278543Y-11366174D01*
X11278543Y-11366174D02*
X11288067Y-11375698D01*
X11288067Y-11375698D02*
X11297591Y-11394746D01*
X11297591Y-11394746D02*
X11297591Y-11451888D01*
X11297591Y-11451888D02*
X11288067Y-11470936D01*
X11288067Y-11470936D02*
X11278543Y-11480460D01*
X11278543Y-11480460D02*
X11259496Y-11489984D01*
X11259496Y-11489984D02*
X11221401Y-11489984D01*
X11221401Y-11489984D02*
X11202353Y-11480460D01*
X11383305Y-11470936D02*
X11392829Y-11480460D01*
X11392829Y-11480460D02*
X11383305Y-11489984D01*
X11383305Y-11489984D02*
X11373782Y-11480460D01*
X11373782Y-11480460D02*
X11383305Y-11470936D01*
X11383305Y-11470936D02*
X11383305Y-11489984D01*
X11383305Y-11366174D02*
X11392829Y-11375698D01*
X11392829Y-11375698D02*
X11383305Y-11385222D01*
X11383305Y-11385222D02*
X11373782Y-11375698D01*
X11373782Y-11375698D02*
X11383305Y-11366174D01*
X11383305Y-11366174D02*
X11383305Y-11385222D01*
M02*
