M48
; DRILL file {KiCad 8.0.5} date 2024-11-08T12:04:54+0100
; FORMAT={-:-/ absolute / inch / decimal}
; #@! TF.CreationDate,2024-11-08T12:04:54+01:00
; #@! TF.GenerationSoftware,Kicad,Pcbnew,8.0.5
; #@! TF.FileFunction,Plated,1,2,PTH
FMAT,2
INCH
; #@! TA.AperFunction,Plated,PTH,ViaDrill
T1C0.0118
; #@! TA.AperFunction,Plated,PTH,ComponentDrill
T2C0.0374
; #@! TA.AperFunction,Plated,PTH,ComponentDrill
T3C0.0394
; #@! TA.AperFunction,Plated,PTH,ComponentDrill
T4C0.0984
%
G90
G05
T1
X4.304Y-3.444
X4.633Y-3.2273
X4.894Y-3.928
X5.063Y-3.3133
X5.152Y-3.2633
X5.156Y-3.95
X5.578Y-3.314
X5.624Y-3.384
X5.63Y-3.5356
X5.752Y-3.434
X5.754Y-3.634
X5.791Y-3.482
X5.95Y-3.634
X5.956Y-3.584
X5.976Y-3.786
X6.014Y-3.42
X6.018Y-3.636
X6.102Y-3.692
X6.253Y-3.0563
X6.293Y-3.3963
X6.37Y-3.6983
X6.371Y-3.3953
X6.3715Y-3.5888
X6.459Y-4.038
T2
X4.5567Y-4.213
X4.6551Y-4.213
X4.7536Y-4.213
X4.852Y-4.213
X4.9504Y-4.213
T3
X3.997Y-3.4298
X3.997Y-3.5298
X4.5226Y-3.0383
X4.621Y-3.0383
X5.271Y-2.954
X5.371Y-2.954
X5.545Y-2.956
X5.645Y-2.956
X5.946Y-2.9583
X5.946Y-3.0583
X6.046Y-2.9583
X6.046Y-3.0583
X6.146Y-2.9583
X6.146Y-3.0583
X6.219Y-3.9503
X6.219Y-4.0503
X6.219Y-4.2248
X6.319Y-3.9503
X6.319Y-4.0503
X6.319Y-4.2248
X6.361Y-2.9583
X6.361Y-3.0583
X6.419Y-4.2248
X6.519Y-4.2248
X6.736Y-3.3733
X6.736Y-3.4733
X6.736Y-3.5733
X6.736Y-3.6733
X6.736Y-3.7733
T4
X4.181Y-3.0983
X4.181Y-4.1183
X6.741Y-3.0983
X6.741Y-4.0983
M30
