%TF.GenerationSoftware,KiCad,Pcbnew,8.0.5*%
%TF.CreationDate,2025-06-23T12:16:39+02:00*%
%TF.ProjectId,SMD-Loetstation_v3,534d442d-4c6f-4657-9473-746174696f6e,rev?*%
%TF.SameCoordinates,Original*%
%TF.FileFunction,Soldermask,Bot*%
%TF.FilePolarity,Negative*%
%FSLAX46Y46*%
G04 Gerber Fmt 4.6, Leading zero omitted, Abs format (unit mm)*
G04 Created by KiCad (PCBNEW 8.0.5) date 2025-06-23 12:16:39*
%MOMM*%
%LPD*%
G01*
G04 APERTURE LIST*
G04 Aperture macros list*
%AMRoundRect*
0 Rectangle with rounded corners*
0 $1 Rounding radius*
0 $2 $3 $4 $5 $6 $7 $8 $9 X,Y pos of 4 corners*
0 Add a 4 corners polygon primitive as box body*
4,1,4,$2,$3,$4,$5,$6,$7,$8,$9,$2,$3,0*
0 Add four circle primitives for the rounded corners*
1,1,$1+$1,$2,$3*
1,1,$1+$1,$4,$5*
1,1,$1+$1,$6,$7*
1,1,$1+$1,$8,$9*
0 Add four rect primitives between the rounded corners*
20,1,$1+$1,$2,$3,$4,$5,0*
20,1,$1+$1,$4,$5,$6,$7,0*
20,1,$1+$1,$6,$7,$8,$9,0*
20,1,$1+$1,$8,$9,$2,$3,0*%
G04 Aperture macros list end*
%ADD10C,5.000000*%
%ADD11R,1.700000X1.700000*%
%ADD12O,1.700000X1.700000*%
%ADD13RoundRect,0.250000X0.600000X0.750000X-0.600000X0.750000X-0.600000X-0.750000X0.600000X-0.750000X0*%
%ADD14O,1.700000X2.000000*%
%ADD15RoundRect,0.250000X0.600000X0.725000X-0.600000X0.725000X-0.600000X-0.725000X0.600000X-0.725000X0*%
%ADD16O,1.700000X1.950000*%
%ADD17RoundRect,0.102000X1.000000X-2.100000X1.000000X2.100000X-1.000000X2.100000X-1.000000X-2.100000X0*%
G04 APERTURE END LIST*
D10*
%TO.C,H1*%
X106197400Y-78695800D03*
%TD*%
D11*
%TO.C,J2*%
X157962600Y-107308900D03*
D12*
X160502600Y-107308900D03*
X163042600Y-107308900D03*
X165582600Y-107308900D03*
%TD*%
D11*
%TO.C,J8*%
X161569400Y-75139800D03*
D12*
X161569400Y-77679800D03*
%TD*%
D11*
%TO.C,J4*%
X146100800Y-75082400D03*
D12*
X143560800Y-75082400D03*
%TD*%
D10*
%TO.C,H3*%
X106197400Y-104603800D03*
%TD*%
D11*
%TO.C,J7*%
X156108400Y-75139800D03*
D12*
X156108400Y-77679800D03*
X153568400Y-75139800D03*
X153568400Y-77679800D03*
X151028400Y-75139800D03*
X151028400Y-77679800D03*
%TD*%
D13*
%TO.C,J1*%
X117373400Y-77171800D03*
D14*
X114873400Y-77171800D03*
%TD*%
D10*
%TO.C,H2*%
X171221400Y-104095800D03*
%TD*%
D11*
%TO.C,J10*%
X101523800Y-87117000D03*
D12*
X101523800Y-89657000D03*
%TD*%
D11*
%TO.C,J3*%
X139578000Y-75057000D03*
D12*
X137038000Y-75057000D03*
%TD*%
D11*
%TO.C,J5*%
X171094400Y-95840800D03*
D12*
X171094400Y-93300800D03*
X171094400Y-90760800D03*
X171094400Y-88220800D03*
X171094400Y-85680800D03*
%TD*%
D10*
%TO.C,H4*%
X171221400Y-78695800D03*
%TD*%
D15*
%TO.C,J6*%
X125740800Y-107010200D03*
D16*
X123240800Y-107010200D03*
X120740800Y-107010200D03*
X118240800Y-107010200D03*
X115740800Y-107010200D03*
%TD*%
D11*
%TO.C,J9*%
X160502600Y-102876600D03*
D12*
X157962600Y-102876600D03*
X160502600Y-100336600D03*
X157962600Y-100336600D03*
%TD*%
D17*
%TO.C,LS1*%
X136042400Y-89871800D03*
X128042400Y-89871800D03*
%TD*%
M02*
