%TF.GenerationSoftware,KiCad,Pcbnew,8.0.5*%
%TF.CreationDate,2024-11-08T12:04:55+01:00*%
%TF.ProjectId,SMD-Loetstation_v2,534d442d-4c6f-4657-9473-746174696f6e,rev?*%
%TF.SameCoordinates,Original*%
%TF.FileFunction,Drillmap*%
%TF.FilePolarity,Positive*%
%FSLAX45Y45*%
G04 Gerber Fmt 4.5, Leading zero omitted, Abs format (unit mm)*
G04 Created by KiCad (PCBNEW 8.0.5) date 2024-11-08 12:04:55*
%MOMM*%
%LPD*%
G01*
G04 APERTURE LIST*
%ADD10C,0.050000*%
%ADD11C,0.200000*%
%ADD12C,0.100000*%
%ADD13C,0.250000*%
G04 APERTURE END LIST*
D10*
X9753600Y-7162800D02*
X17780000Y-7162800D01*
X17780000Y-7162800D02*
X17780000Y-11176000D01*
X17780000Y-11176000D02*
X9753600Y-11176000D01*
X9753600Y-11176000D02*
X9753600Y-7162800D01*
D11*
D12*
X10917160Y-8732760D02*
X10947160Y-8762760D01*
X10947160Y-8732760D02*
X10917160Y-8762760D01*
X11752820Y-8182240D02*
X11782820Y-8212240D01*
X11782820Y-8182240D02*
X11752820Y-8212240D01*
X12415760Y-9962120D02*
X12445760Y-9992120D01*
X12445760Y-9962120D02*
X12415760Y-9992120D01*
X12845020Y-8400680D02*
X12875020Y-8430680D01*
X12875020Y-8400680D02*
X12845020Y-8430680D01*
X13071080Y-8273680D02*
X13101080Y-8303680D01*
X13101080Y-8273680D02*
X13071080Y-8303680D01*
X13081240Y-10018000D02*
X13111240Y-10048000D01*
X13111240Y-10018000D02*
X13081240Y-10048000D01*
X14153120Y-8402560D02*
X14183120Y-8432560D01*
X14183120Y-8402560D02*
X14153120Y-8432560D01*
X14269960Y-8580360D02*
X14299960Y-8610360D01*
X14299960Y-8580360D02*
X14269960Y-8610360D01*
X14285200Y-8965480D02*
X14315200Y-8995480D01*
X14315200Y-8965480D02*
X14285200Y-8995480D01*
X14595080Y-8707360D02*
X14625080Y-8737360D01*
X14625080Y-8707360D02*
X14595080Y-8737360D01*
X14600160Y-9215360D02*
X14630160Y-9245360D01*
X14630160Y-9215360D02*
X14600160Y-9245360D01*
X14694140Y-8829280D02*
X14724140Y-8859280D01*
X14724140Y-8829280D02*
X14694140Y-8859280D01*
X15098000Y-9215360D02*
X15128000Y-9245360D01*
X15128000Y-9215360D02*
X15098000Y-9245360D01*
X15113240Y-9088360D02*
X15143240Y-9118360D01*
X15143240Y-9088360D02*
X15113240Y-9118360D01*
X15164040Y-9601440D02*
X15194040Y-9631440D01*
X15194040Y-9601440D02*
X15164040Y-9631440D01*
X15260560Y-8671800D02*
X15290560Y-8701800D01*
X15290560Y-8671800D02*
X15260560Y-8701800D01*
X15270720Y-9220440D02*
X15300720Y-9250440D01*
X15300720Y-9220440D02*
X15270720Y-9250440D01*
X15484080Y-9362680D02*
X15514080Y-9392680D01*
X15514080Y-9362680D02*
X15484080Y-9392680D01*
X15867620Y-7747900D02*
X15897620Y-7777900D01*
X15897620Y-7747900D02*
X15867620Y-7777900D01*
X15969220Y-8611500D02*
X15999220Y-8641500D01*
X15999220Y-8611500D02*
X15969220Y-8641500D01*
X16164800Y-9378580D02*
X16194800Y-9408580D01*
X16194800Y-9378580D02*
X16164800Y-9408580D01*
X16167340Y-8608960D02*
X16197340Y-8638960D01*
X16197340Y-8608960D02*
X16167340Y-8638960D01*
X16168610Y-9100450D02*
X16198610Y-9130450D01*
X16198610Y-9100450D02*
X16168610Y-9130450D01*
X16390860Y-10241520D02*
X16420860Y-10271520D01*
X16420860Y-10241520D02*
X16390860Y-10271520D01*
X11621580Y-10701020D02*
G75*
G02*
X11526580Y-10701020I-47500J0D01*
G01*
X11526580Y-10701020D02*
G75*
G02*
X11621580Y-10701020I47500J0D01*
G01*
X11871580Y-10701020D02*
G75*
G02*
X11776580Y-10701020I-47500J0D01*
G01*
X11776580Y-10701020D02*
G75*
G02*
X11871580Y-10701020I47500J0D01*
G01*
X12121580Y-10701020D02*
G75*
G02*
X12026580Y-10701020I-47500J0D01*
G01*
X12026580Y-10701020D02*
G75*
G02*
X12121580Y-10701020I47500J0D01*
G01*
X12371580Y-10701020D02*
G75*
G02*
X12276580Y-10701020I-47500J0D01*
G01*
X12276580Y-10701020D02*
G75*
G02*
X12371580Y-10701020I47500J0D01*
G01*
X12621580Y-10701020D02*
G75*
G02*
X12526580Y-10701020I-47500J0D01*
G01*
X12526580Y-10701020D02*
G75*
G02*
X12621580Y-10701020I47500J0D01*
G01*
X10152380Y-8661700D02*
X10152380Y-8761700D01*
X10102380Y-8711700D02*
X10202380Y-8711700D01*
X10152380Y-8915700D02*
X10152380Y-9015700D01*
X10102380Y-8965700D02*
X10202380Y-8965700D01*
X11487340Y-7667180D02*
X11487340Y-7767180D01*
X11437340Y-7717180D02*
X11537340Y-7717180D01*
X11737340Y-7667180D02*
X11737340Y-7767180D01*
X11687340Y-7717180D02*
X11787340Y-7717180D01*
X13388340Y-7453160D02*
X13388340Y-7553160D01*
X13338340Y-7503160D02*
X13438340Y-7503160D01*
X13642340Y-7453160D02*
X13642340Y-7553160D01*
X13592340Y-7503160D02*
X13692340Y-7503160D01*
X14084300Y-7458240D02*
X14084300Y-7558240D01*
X14034300Y-7508240D02*
X14134300Y-7508240D01*
X14338300Y-7458240D02*
X14338300Y-7558240D01*
X14288300Y-7508240D02*
X14388300Y-7508240D01*
X15102840Y-7463980D02*
X15102840Y-7563980D01*
X15052840Y-7513980D02*
X15152840Y-7513980D01*
X15102840Y-7717980D02*
X15102840Y-7817980D01*
X15052840Y-7767980D02*
X15152840Y-7767980D01*
X15356840Y-7463980D02*
X15356840Y-7563980D01*
X15306840Y-7513980D02*
X15406840Y-7513980D01*
X15356840Y-7717980D02*
X15356840Y-7817980D01*
X15306840Y-7767980D02*
X15406840Y-7767980D01*
X15610840Y-7463980D02*
X15610840Y-7563980D01*
X15560840Y-7513980D02*
X15660840Y-7513980D01*
X15610840Y-7717980D02*
X15610840Y-7817980D01*
X15560840Y-7767980D02*
X15660840Y-7767980D01*
X15796260Y-9983660D02*
X15796260Y-10083660D01*
X15746260Y-10033660D02*
X15846260Y-10033660D01*
X15796260Y-10237660D02*
X15796260Y-10337660D01*
X15746260Y-10287660D02*
X15846260Y-10287660D01*
X15796260Y-10680890D02*
X15796260Y-10780890D01*
X15746260Y-10730890D02*
X15846260Y-10730890D01*
X16050260Y-9983660D02*
X16050260Y-10083660D01*
X16000260Y-10033660D02*
X16100260Y-10033660D01*
X16050260Y-10237660D02*
X16050260Y-10337660D01*
X16000260Y-10287660D02*
X16100260Y-10287660D01*
X16050260Y-10680890D02*
X16050260Y-10780890D01*
X16000260Y-10730890D02*
X16100260Y-10730890D01*
X16156940Y-7463980D02*
X16156940Y-7563980D01*
X16106940Y-7513980D02*
X16206940Y-7513980D01*
X16156940Y-7717980D02*
X16156940Y-7817980D01*
X16106940Y-7767980D02*
X16206940Y-7767980D01*
X16304260Y-10680890D02*
X16304260Y-10780890D01*
X16254260Y-10730890D02*
X16354260Y-10730890D01*
X16558260Y-10680890D02*
X16558260Y-10780890D01*
X16508260Y-10730890D02*
X16608260Y-10730890D01*
X17109440Y-8518080D02*
X17109440Y-8618080D01*
X17059440Y-8568080D02*
X17159440Y-8568080D01*
X17109440Y-8772080D02*
X17109440Y-8872080D01*
X17059440Y-8822080D02*
X17159440Y-8822080D01*
X17109440Y-9026080D02*
X17109440Y-9126080D01*
X17059440Y-9076080D02*
X17159440Y-9076080D01*
X17109440Y-9280080D02*
X17109440Y-9380080D01*
X17059440Y-9330080D02*
X17159440Y-9330080D01*
X17109440Y-9534080D02*
X17109440Y-9634080D01*
X17059440Y-9584080D02*
X17159440Y-9584080D01*
D13*
X10708129Y-7957969D02*
X10708129Y-7781191D01*
X10531351Y-7781191D01*
X10531351Y-7957969D01*
X10708129Y-7957969D01*
X10708129Y-10548769D02*
X10708129Y-10371991D01*
X10531351Y-10371991D01*
X10531351Y-10548769D01*
X10708129Y-10548769D01*
X17210529Y-7957969D02*
X17210529Y-7781191D01*
X17033751Y-7781191D01*
X17033751Y-7957969D01*
X17210529Y-7957969D01*
X17210529Y-10497969D02*
X17210529Y-10321191D01*
X17033751Y-10321191D01*
X17033751Y-10497969D01*
X17210529Y-10497969D01*
D11*
X10011877Y-11489984D02*
X10011877Y-11289984D01*
X10011877Y-11289984D02*
X10059496Y-11289984D01*
X10059496Y-11289984D02*
X10088067Y-11299508D01*
X10088067Y-11299508D02*
X10107115Y-11318555D01*
X10107115Y-11318555D02*
X10116639Y-11337603D01*
X10116639Y-11337603D02*
X10126163Y-11375698D01*
X10126163Y-11375698D02*
X10126163Y-11404269D01*
X10126163Y-11404269D02*
X10116639Y-11442365D01*
X10116639Y-11442365D02*
X10107115Y-11461412D01*
X10107115Y-11461412D02*
X10088067Y-11480460D01*
X10088067Y-11480460D02*
X10059496Y-11489984D01*
X10059496Y-11489984D02*
X10011877Y-11489984D01*
X10211877Y-11489984D02*
X10211877Y-11356650D01*
X10211877Y-11394746D02*
X10221401Y-11375698D01*
X10221401Y-11375698D02*
X10230924Y-11366174D01*
X10230924Y-11366174D02*
X10249972Y-11356650D01*
X10249972Y-11356650D02*
X10269020Y-11356650D01*
X10335686Y-11489984D02*
X10335686Y-11356650D01*
X10335686Y-11289984D02*
X10326163Y-11299508D01*
X10326163Y-11299508D02*
X10335686Y-11309031D01*
X10335686Y-11309031D02*
X10345210Y-11299508D01*
X10345210Y-11299508D02*
X10335686Y-11289984D01*
X10335686Y-11289984D02*
X10335686Y-11309031D01*
X10459496Y-11489984D02*
X10440448Y-11480460D01*
X10440448Y-11480460D02*
X10430924Y-11461412D01*
X10430924Y-11461412D02*
X10430924Y-11289984D01*
X10564258Y-11489984D02*
X10545210Y-11480460D01*
X10545210Y-11480460D02*
X10535686Y-11461412D01*
X10535686Y-11461412D02*
X10535686Y-11289984D01*
X10792829Y-11489984D02*
X10792829Y-11289984D01*
X10792829Y-11289984D02*
X10859496Y-11432841D01*
X10859496Y-11432841D02*
X10926163Y-11289984D01*
X10926163Y-11289984D02*
X10926163Y-11489984D01*
X11107115Y-11489984D02*
X11107115Y-11385222D01*
X11107115Y-11385222D02*
X11097591Y-11366174D01*
X11097591Y-11366174D02*
X11078544Y-11356650D01*
X11078544Y-11356650D02*
X11040448Y-11356650D01*
X11040448Y-11356650D02*
X11021401Y-11366174D01*
X11107115Y-11480460D02*
X11088067Y-11489984D01*
X11088067Y-11489984D02*
X11040448Y-11489984D01*
X11040448Y-11489984D02*
X11021401Y-11480460D01*
X11021401Y-11480460D02*
X11011877Y-11461412D01*
X11011877Y-11461412D02*
X11011877Y-11442365D01*
X11011877Y-11442365D02*
X11021401Y-11423317D01*
X11021401Y-11423317D02*
X11040448Y-11413793D01*
X11040448Y-11413793D02*
X11088067Y-11413793D01*
X11088067Y-11413793D02*
X11107115Y-11404269D01*
X11202353Y-11356650D02*
X11202353Y-11556650D01*
X11202353Y-11366174D02*
X11221401Y-11356650D01*
X11221401Y-11356650D02*
X11259496Y-11356650D01*
X11259496Y-11356650D02*
X11278543Y-11366174D01*
X11278543Y-11366174D02*
X11288067Y-11375698D01*
X11288067Y-11375698D02*
X11297591Y-11394746D01*
X11297591Y-11394746D02*
X11297591Y-11451888D01*
X11297591Y-11451888D02*
X11288067Y-11470936D01*
X11288067Y-11470936D02*
X11278543Y-11480460D01*
X11278543Y-11480460D02*
X11259496Y-11489984D01*
X11259496Y-11489984D02*
X11221401Y-11489984D01*
X11221401Y-11489984D02*
X11202353Y-11480460D01*
X11383305Y-11470936D02*
X11392829Y-11480460D01*
X11392829Y-11480460D02*
X11383305Y-11489984D01*
X11383305Y-11489984D02*
X11373782Y-11480460D01*
X11373782Y-11480460D02*
X11383305Y-11470936D01*
X11383305Y-11470936D02*
X11383305Y-11489984D01*
X11383305Y-11366174D02*
X11392829Y-11375698D01*
X11392829Y-11375698D02*
X11383305Y-11385222D01*
X11383305Y-11385222D02*
X11373782Y-11375698D01*
X11373782Y-11375698D02*
X11383305Y-11366174D01*
X11383305Y-11366174D02*
X11383305Y-11385222D01*
D12*
X9721100Y-11803500D02*
X9751100Y-11833500D01*
X9751100Y-11803500D02*
X9721100Y-11833500D01*
D11*
X10049972Y-11709984D02*
X10069020Y-11709984D01*
X10069020Y-11709984D02*
X10088067Y-11719508D01*
X10088067Y-11719508D02*
X10097591Y-11729031D01*
X10097591Y-11729031D02*
X10107115Y-11748079D01*
X10107115Y-11748079D02*
X10116639Y-11786174D01*
X10116639Y-11786174D02*
X10116639Y-11833793D01*
X10116639Y-11833793D02*
X10107115Y-11871888D01*
X10107115Y-11871888D02*
X10097591Y-11890936D01*
X10097591Y-11890936D02*
X10088067Y-11900460D01*
X10088067Y-11900460D02*
X10069020Y-11909984D01*
X10069020Y-11909984D02*
X10049972Y-11909984D01*
X10049972Y-11909984D02*
X10030924Y-11900460D01*
X10030924Y-11900460D02*
X10021401Y-11890936D01*
X10021401Y-11890936D02*
X10011877Y-11871888D01*
X10011877Y-11871888D02*
X10002353Y-11833793D01*
X10002353Y-11833793D02*
X10002353Y-11786174D01*
X10002353Y-11786174D02*
X10011877Y-11748079D01*
X10011877Y-11748079D02*
X10021401Y-11729031D01*
X10021401Y-11729031D02*
X10030924Y-11719508D01*
X10030924Y-11719508D02*
X10049972Y-11709984D01*
X10202353Y-11890936D02*
X10211877Y-11900460D01*
X10211877Y-11900460D02*
X10202353Y-11909984D01*
X10202353Y-11909984D02*
X10192829Y-11900460D01*
X10192829Y-11900460D02*
X10202353Y-11890936D01*
X10202353Y-11890936D02*
X10202353Y-11909984D01*
X10278544Y-11709984D02*
X10402353Y-11709984D01*
X10402353Y-11709984D02*
X10335686Y-11786174D01*
X10335686Y-11786174D02*
X10364258Y-11786174D01*
X10364258Y-11786174D02*
X10383305Y-11795698D01*
X10383305Y-11795698D02*
X10392829Y-11805222D01*
X10392829Y-11805222D02*
X10402353Y-11824269D01*
X10402353Y-11824269D02*
X10402353Y-11871888D01*
X10402353Y-11871888D02*
X10392829Y-11890936D01*
X10392829Y-11890936D02*
X10383305Y-11900460D01*
X10383305Y-11900460D02*
X10364258Y-11909984D01*
X10364258Y-11909984D02*
X10307115Y-11909984D01*
X10307115Y-11909984D02*
X10288067Y-11900460D01*
X10288067Y-11900460D02*
X10278544Y-11890936D01*
X10526163Y-11709984D02*
X10545210Y-11709984D01*
X10545210Y-11709984D02*
X10564258Y-11719508D01*
X10564258Y-11719508D02*
X10573782Y-11729031D01*
X10573782Y-11729031D02*
X10583305Y-11748079D01*
X10583305Y-11748079D02*
X10592829Y-11786174D01*
X10592829Y-11786174D02*
X10592829Y-11833793D01*
X10592829Y-11833793D02*
X10583305Y-11871888D01*
X10583305Y-11871888D02*
X10573782Y-11890936D01*
X10573782Y-11890936D02*
X10564258Y-11900460D01*
X10564258Y-11900460D02*
X10545210Y-11909984D01*
X10545210Y-11909984D02*
X10526163Y-11909984D01*
X10526163Y-11909984D02*
X10507115Y-11900460D01*
X10507115Y-11900460D02*
X10497591Y-11890936D01*
X10497591Y-11890936D02*
X10488067Y-11871888D01*
X10488067Y-11871888D02*
X10478544Y-11833793D01*
X10478544Y-11833793D02*
X10478544Y-11786174D01*
X10478544Y-11786174D02*
X10488067Y-11748079D01*
X10488067Y-11748079D02*
X10497591Y-11729031D01*
X10497591Y-11729031D02*
X10507115Y-11719508D01*
X10507115Y-11719508D02*
X10526163Y-11709984D01*
X10716639Y-11709984D02*
X10735686Y-11709984D01*
X10735686Y-11709984D02*
X10754734Y-11719508D01*
X10754734Y-11719508D02*
X10764258Y-11729031D01*
X10764258Y-11729031D02*
X10773782Y-11748079D01*
X10773782Y-11748079D02*
X10783305Y-11786174D01*
X10783305Y-11786174D02*
X10783305Y-11833793D01*
X10783305Y-11833793D02*
X10773782Y-11871888D01*
X10773782Y-11871888D02*
X10764258Y-11890936D01*
X10764258Y-11890936D02*
X10754734Y-11900460D01*
X10754734Y-11900460D02*
X10735686Y-11909984D01*
X10735686Y-11909984D02*
X10716639Y-11909984D01*
X10716639Y-11909984D02*
X10697591Y-11900460D01*
X10697591Y-11900460D02*
X10688067Y-11890936D01*
X10688067Y-11890936D02*
X10678544Y-11871888D01*
X10678544Y-11871888D02*
X10669020Y-11833793D01*
X10669020Y-11833793D02*
X10669020Y-11786174D01*
X10669020Y-11786174D02*
X10678544Y-11748079D01*
X10678544Y-11748079D02*
X10688067Y-11729031D01*
X10688067Y-11729031D02*
X10697591Y-11719508D01*
X10697591Y-11719508D02*
X10716639Y-11709984D01*
X10869020Y-11909984D02*
X10869020Y-11776650D01*
X10869020Y-11795698D02*
X10878544Y-11786174D01*
X10878544Y-11786174D02*
X10897591Y-11776650D01*
X10897591Y-11776650D02*
X10926163Y-11776650D01*
X10926163Y-11776650D02*
X10945210Y-11786174D01*
X10945210Y-11786174D02*
X10954734Y-11805222D01*
X10954734Y-11805222D02*
X10954734Y-11909984D01*
X10954734Y-11805222D02*
X10964258Y-11786174D01*
X10964258Y-11786174D02*
X10983305Y-11776650D01*
X10983305Y-11776650D02*
X11011877Y-11776650D01*
X11011877Y-11776650D02*
X11030925Y-11786174D01*
X11030925Y-11786174D02*
X11040448Y-11805222D01*
X11040448Y-11805222D02*
X11040448Y-11909984D01*
X11135686Y-11909984D02*
X11135686Y-11776650D01*
X11135686Y-11795698D02*
X11145210Y-11786174D01*
X11145210Y-11786174D02*
X11164258Y-11776650D01*
X11164258Y-11776650D02*
X11192829Y-11776650D01*
X11192829Y-11776650D02*
X11211877Y-11786174D01*
X11211877Y-11786174D02*
X11221401Y-11805222D01*
X11221401Y-11805222D02*
X11221401Y-11909984D01*
X11221401Y-11805222D02*
X11230924Y-11786174D01*
X11230924Y-11786174D02*
X11249972Y-11776650D01*
X11249972Y-11776650D02*
X11278543Y-11776650D01*
X11278543Y-11776650D02*
X11297591Y-11786174D01*
X11297591Y-11786174D02*
X11307115Y-11805222D01*
X11307115Y-11805222D02*
X11307115Y-11909984D01*
X11697591Y-11700460D02*
X11526163Y-11957603D01*
X11954734Y-11709984D02*
X11973782Y-11709984D01*
X11973782Y-11709984D02*
X11992829Y-11719508D01*
X11992829Y-11719508D02*
X12002353Y-11729031D01*
X12002353Y-11729031D02*
X12011877Y-11748079D01*
X12011877Y-11748079D02*
X12021401Y-11786174D01*
X12021401Y-11786174D02*
X12021401Y-11833793D01*
X12021401Y-11833793D02*
X12011877Y-11871888D01*
X12011877Y-11871888D02*
X12002353Y-11890936D01*
X12002353Y-11890936D02*
X11992829Y-11900460D01*
X11992829Y-11900460D02*
X11973782Y-11909984D01*
X11973782Y-11909984D02*
X11954734Y-11909984D01*
X11954734Y-11909984D02*
X11935686Y-11900460D01*
X11935686Y-11900460D02*
X11926163Y-11890936D01*
X11926163Y-11890936D02*
X11916639Y-11871888D01*
X11916639Y-11871888D02*
X11907115Y-11833793D01*
X11907115Y-11833793D02*
X11907115Y-11786174D01*
X11907115Y-11786174D02*
X11916639Y-11748079D01*
X11916639Y-11748079D02*
X11926163Y-11729031D01*
X11926163Y-11729031D02*
X11935686Y-11719508D01*
X11935686Y-11719508D02*
X11954734Y-11709984D01*
X12107115Y-11890936D02*
X12116639Y-11900460D01*
X12116639Y-11900460D02*
X12107115Y-11909984D01*
X12107115Y-11909984D02*
X12097591Y-11900460D01*
X12097591Y-11900460D02*
X12107115Y-11890936D01*
X12107115Y-11890936D02*
X12107115Y-11909984D01*
X12240448Y-11709984D02*
X12259496Y-11709984D01*
X12259496Y-11709984D02*
X12278544Y-11719508D01*
X12278544Y-11719508D02*
X12288067Y-11729031D01*
X12288067Y-11729031D02*
X12297591Y-11748079D01*
X12297591Y-11748079D02*
X12307115Y-11786174D01*
X12307115Y-11786174D02*
X12307115Y-11833793D01*
X12307115Y-11833793D02*
X12297591Y-11871888D01*
X12297591Y-11871888D02*
X12288067Y-11890936D01*
X12288067Y-11890936D02*
X12278544Y-11900460D01*
X12278544Y-11900460D02*
X12259496Y-11909984D01*
X12259496Y-11909984D02*
X12240448Y-11909984D01*
X12240448Y-11909984D02*
X12221401Y-11900460D01*
X12221401Y-11900460D02*
X12211877Y-11890936D01*
X12211877Y-11890936D02*
X12202353Y-11871888D01*
X12202353Y-11871888D02*
X12192829Y-11833793D01*
X12192829Y-11833793D02*
X12192829Y-11786174D01*
X12192829Y-11786174D02*
X12202353Y-11748079D01*
X12202353Y-11748079D02*
X12211877Y-11729031D01*
X12211877Y-11729031D02*
X12221401Y-11719508D01*
X12221401Y-11719508D02*
X12240448Y-11709984D01*
X12497591Y-11909984D02*
X12383306Y-11909984D01*
X12440448Y-11909984D02*
X12440448Y-11709984D01*
X12440448Y-11709984D02*
X12421401Y-11738555D01*
X12421401Y-11738555D02*
X12402353Y-11757603D01*
X12402353Y-11757603D02*
X12383306Y-11767127D01*
X12688067Y-11909984D02*
X12573782Y-11909984D01*
X12630925Y-11909984D02*
X12630925Y-11709984D01*
X12630925Y-11709984D02*
X12611877Y-11738555D01*
X12611877Y-11738555D02*
X12592829Y-11757603D01*
X12592829Y-11757603D02*
X12573782Y-11767127D01*
X12802353Y-11795698D02*
X12783306Y-11786174D01*
X12783306Y-11786174D02*
X12773782Y-11776650D01*
X12773782Y-11776650D02*
X12764258Y-11757603D01*
X12764258Y-11757603D02*
X12764258Y-11748079D01*
X12764258Y-11748079D02*
X12773782Y-11729031D01*
X12773782Y-11729031D02*
X12783306Y-11719508D01*
X12783306Y-11719508D02*
X12802353Y-11709984D01*
X12802353Y-11709984D02*
X12840448Y-11709984D01*
X12840448Y-11709984D02*
X12859496Y-11719508D01*
X12859496Y-11719508D02*
X12869020Y-11729031D01*
X12869020Y-11729031D02*
X12878544Y-11748079D01*
X12878544Y-11748079D02*
X12878544Y-11757603D01*
X12878544Y-11757603D02*
X12869020Y-11776650D01*
X12869020Y-11776650D02*
X12859496Y-11786174D01*
X12859496Y-11786174D02*
X12840448Y-11795698D01*
X12840448Y-11795698D02*
X12802353Y-11795698D01*
X12802353Y-11795698D02*
X12783306Y-11805222D01*
X12783306Y-11805222D02*
X12773782Y-11814746D01*
X12773782Y-11814746D02*
X12764258Y-11833793D01*
X12764258Y-11833793D02*
X12764258Y-11871888D01*
X12764258Y-11871888D02*
X12773782Y-11890936D01*
X12773782Y-11890936D02*
X12783306Y-11900460D01*
X12783306Y-11900460D02*
X12802353Y-11909984D01*
X12802353Y-11909984D02*
X12840448Y-11909984D01*
X12840448Y-11909984D02*
X12859496Y-11900460D01*
X12859496Y-11900460D02*
X12869020Y-11890936D01*
X12869020Y-11890936D02*
X12878544Y-11871888D01*
X12878544Y-11871888D02*
X12878544Y-11833793D01*
X12878544Y-11833793D02*
X12869020Y-11814746D01*
X12869020Y-11814746D02*
X12859496Y-11805222D01*
X12859496Y-11805222D02*
X12840448Y-11795698D01*
X12954734Y-11709984D02*
X12954734Y-11748079D01*
X13030925Y-11709984D02*
X13030925Y-11748079D01*
X13326163Y-11986174D02*
X13316639Y-11976650D01*
X13316639Y-11976650D02*
X13297591Y-11948079D01*
X13297591Y-11948079D02*
X13288068Y-11929031D01*
X13288068Y-11929031D02*
X13278544Y-11900460D01*
X13278544Y-11900460D02*
X13269020Y-11852841D01*
X13269020Y-11852841D02*
X13269020Y-11814746D01*
X13269020Y-11814746D02*
X13278544Y-11767127D01*
X13278544Y-11767127D02*
X13288068Y-11738555D01*
X13288068Y-11738555D02*
X13297591Y-11719508D01*
X13297591Y-11719508D02*
X13316639Y-11690936D01*
X13316639Y-11690936D02*
X13326163Y-11681412D01*
X13392829Y-11729031D02*
X13402353Y-11719508D01*
X13402353Y-11719508D02*
X13421401Y-11709984D01*
X13421401Y-11709984D02*
X13469020Y-11709984D01*
X13469020Y-11709984D02*
X13488068Y-11719508D01*
X13488068Y-11719508D02*
X13497591Y-11729031D01*
X13497591Y-11729031D02*
X13507115Y-11748079D01*
X13507115Y-11748079D02*
X13507115Y-11767127D01*
X13507115Y-11767127D02*
X13497591Y-11795698D01*
X13497591Y-11795698D02*
X13383306Y-11909984D01*
X13383306Y-11909984D02*
X13507115Y-11909984D01*
X13678544Y-11776650D02*
X13678544Y-11909984D01*
X13630925Y-11700460D02*
X13583306Y-11843317D01*
X13583306Y-11843317D02*
X13707115Y-11843317D01*
X13935687Y-11909984D02*
X13935687Y-11709984D01*
X14021401Y-11909984D02*
X14021401Y-11805222D01*
X14021401Y-11805222D02*
X14011877Y-11786174D01*
X14011877Y-11786174D02*
X13992830Y-11776650D01*
X13992830Y-11776650D02*
X13964258Y-11776650D01*
X13964258Y-11776650D02*
X13945210Y-11786174D01*
X13945210Y-11786174D02*
X13935687Y-11795698D01*
X14145210Y-11909984D02*
X14126163Y-11900460D01*
X14126163Y-11900460D02*
X14116639Y-11890936D01*
X14116639Y-11890936D02*
X14107115Y-11871888D01*
X14107115Y-11871888D02*
X14107115Y-11814746D01*
X14107115Y-11814746D02*
X14116639Y-11795698D01*
X14116639Y-11795698D02*
X14126163Y-11786174D01*
X14126163Y-11786174D02*
X14145210Y-11776650D01*
X14145210Y-11776650D02*
X14173782Y-11776650D01*
X14173782Y-11776650D02*
X14192830Y-11786174D01*
X14192830Y-11786174D02*
X14202353Y-11795698D01*
X14202353Y-11795698D02*
X14211877Y-11814746D01*
X14211877Y-11814746D02*
X14211877Y-11871888D01*
X14211877Y-11871888D02*
X14202353Y-11890936D01*
X14202353Y-11890936D02*
X14192830Y-11900460D01*
X14192830Y-11900460D02*
X14173782Y-11909984D01*
X14173782Y-11909984D02*
X14145210Y-11909984D01*
X14326163Y-11909984D02*
X14307115Y-11900460D01*
X14307115Y-11900460D02*
X14297591Y-11881412D01*
X14297591Y-11881412D02*
X14297591Y-11709984D01*
X14478544Y-11900460D02*
X14459496Y-11909984D01*
X14459496Y-11909984D02*
X14421401Y-11909984D01*
X14421401Y-11909984D02*
X14402353Y-11900460D01*
X14402353Y-11900460D02*
X14392830Y-11881412D01*
X14392830Y-11881412D02*
X14392830Y-11805222D01*
X14392830Y-11805222D02*
X14402353Y-11786174D01*
X14402353Y-11786174D02*
X14421401Y-11776650D01*
X14421401Y-11776650D02*
X14459496Y-11776650D01*
X14459496Y-11776650D02*
X14478544Y-11786174D01*
X14478544Y-11786174D02*
X14488068Y-11805222D01*
X14488068Y-11805222D02*
X14488068Y-11824269D01*
X14488068Y-11824269D02*
X14392830Y-11843317D01*
X14564258Y-11900460D02*
X14583306Y-11909984D01*
X14583306Y-11909984D02*
X14621401Y-11909984D01*
X14621401Y-11909984D02*
X14640449Y-11900460D01*
X14640449Y-11900460D02*
X14649972Y-11881412D01*
X14649972Y-11881412D02*
X14649972Y-11871888D01*
X14649972Y-11871888D02*
X14640449Y-11852841D01*
X14640449Y-11852841D02*
X14621401Y-11843317D01*
X14621401Y-11843317D02*
X14592830Y-11843317D01*
X14592830Y-11843317D02*
X14573782Y-11833793D01*
X14573782Y-11833793D02*
X14564258Y-11814746D01*
X14564258Y-11814746D02*
X14564258Y-11805222D01*
X14564258Y-11805222D02*
X14573782Y-11786174D01*
X14573782Y-11786174D02*
X14592830Y-11776650D01*
X14592830Y-11776650D02*
X14621401Y-11776650D01*
X14621401Y-11776650D02*
X14640449Y-11786174D01*
X14716639Y-11986174D02*
X14726163Y-11976650D01*
X14726163Y-11976650D02*
X14745211Y-11948079D01*
X14745211Y-11948079D02*
X14754734Y-11929031D01*
X14754734Y-11929031D02*
X14764258Y-11900460D01*
X14764258Y-11900460D02*
X14773782Y-11852841D01*
X14773782Y-11852841D02*
X14773782Y-11814746D01*
X14773782Y-11814746D02*
X14764258Y-11767127D01*
X14764258Y-11767127D02*
X14754734Y-11738555D01*
X14754734Y-11738555D02*
X14745211Y-11719508D01*
X14745211Y-11719508D02*
X14726163Y-11690936D01*
X14726163Y-11690936D02*
X14716639Y-11681412D01*
D12*
X9751100Y-12082500D02*
G75*
G02*
X9656100Y-12082500I-47500J0D01*
G01*
X9656100Y-12082500D02*
G75*
G02*
X9751100Y-12082500I47500J0D01*
G01*
D11*
X10049972Y-11973984D02*
X10069020Y-11973984D01*
X10069020Y-11973984D02*
X10088067Y-11983508D01*
X10088067Y-11983508D02*
X10097591Y-11993031D01*
X10097591Y-11993031D02*
X10107115Y-12012079D01*
X10107115Y-12012079D02*
X10116639Y-12050174D01*
X10116639Y-12050174D02*
X10116639Y-12097793D01*
X10116639Y-12097793D02*
X10107115Y-12135888D01*
X10107115Y-12135888D02*
X10097591Y-12154936D01*
X10097591Y-12154936D02*
X10088067Y-12164460D01*
X10088067Y-12164460D02*
X10069020Y-12173984D01*
X10069020Y-12173984D02*
X10049972Y-12173984D01*
X10049972Y-12173984D02*
X10030924Y-12164460D01*
X10030924Y-12164460D02*
X10021401Y-12154936D01*
X10021401Y-12154936D02*
X10011877Y-12135888D01*
X10011877Y-12135888D02*
X10002353Y-12097793D01*
X10002353Y-12097793D02*
X10002353Y-12050174D01*
X10002353Y-12050174D02*
X10011877Y-12012079D01*
X10011877Y-12012079D02*
X10021401Y-11993031D01*
X10021401Y-11993031D02*
X10030924Y-11983508D01*
X10030924Y-11983508D02*
X10049972Y-11973984D01*
X10202353Y-12154936D02*
X10211877Y-12164460D01*
X10211877Y-12164460D02*
X10202353Y-12173984D01*
X10202353Y-12173984D02*
X10192829Y-12164460D01*
X10192829Y-12164460D02*
X10202353Y-12154936D01*
X10202353Y-12154936D02*
X10202353Y-12173984D01*
X10307115Y-12173984D02*
X10345210Y-12173984D01*
X10345210Y-12173984D02*
X10364258Y-12164460D01*
X10364258Y-12164460D02*
X10373782Y-12154936D01*
X10373782Y-12154936D02*
X10392829Y-12126365D01*
X10392829Y-12126365D02*
X10402353Y-12088269D01*
X10402353Y-12088269D02*
X10402353Y-12012079D01*
X10402353Y-12012079D02*
X10392829Y-11993031D01*
X10392829Y-11993031D02*
X10383305Y-11983508D01*
X10383305Y-11983508D02*
X10364258Y-11973984D01*
X10364258Y-11973984D02*
X10326163Y-11973984D01*
X10326163Y-11973984D02*
X10307115Y-11983508D01*
X10307115Y-11983508D02*
X10297591Y-11993031D01*
X10297591Y-11993031D02*
X10288067Y-12012079D01*
X10288067Y-12012079D02*
X10288067Y-12059698D01*
X10288067Y-12059698D02*
X10297591Y-12078746D01*
X10297591Y-12078746D02*
X10307115Y-12088269D01*
X10307115Y-12088269D02*
X10326163Y-12097793D01*
X10326163Y-12097793D02*
X10364258Y-12097793D01*
X10364258Y-12097793D02*
X10383305Y-12088269D01*
X10383305Y-12088269D02*
X10392829Y-12078746D01*
X10392829Y-12078746D02*
X10402353Y-12059698D01*
X10583305Y-11973984D02*
X10488067Y-11973984D01*
X10488067Y-11973984D02*
X10478544Y-12069222D01*
X10478544Y-12069222D02*
X10488067Y-12059698D01*
X10488067Y-12059698D02*
X10507115Y-12050174D01*
X10507115Y-12050174D02*
X10554734Y-12050174D01*
X10554734Y-12050174D02*
X10573782Y-12059698D01*
X10573782Y-12059698D02*
X10583305Y-12069222D01*
X10583305Y-12069222D02*
X10592829Y-12088269D01*
X10592829Y-12088269D02*
X10592829Y-12135888D01*
X10592829Y-12135888D02*
X10583305Y-12154936D01*
X10583305Y-12154936D02*
X10573782Y-12164460D01*
X10573782Y-12164460D02*
X10554734Y-12173984D01*
X10554734Y-12173984D02*
X10507115Y-12173984D01*
X10507115Y-12173984D02*
X10488067Y-12164460D01*
X10488067Y-12164460D02*
X10478544Y-12154936D01*
X10716639Y-11973984D02*
X10735686Y-11973984D01*
X10735686Y-11973984D02*
X10754734Y-11983508D01*
X10754734Y-11983508D02*
X10764258Y-11993031D01*
X10764258Y-11993031D02*
X10773782Y-12012079D01*
X10773782Y-12012079D02*
X10783305Y-12050174D01*
X10783305Y-12050174D02*
X10783305Y-12097793D01*
X10783305Y-12097793D02*
X10773782Y-12135888D01*
X10773782Y-12135888D02*
X10764258Y-12154936D01*
X10764258Y-12154936D02*
X10754734Y-12164460D01*
X10754734Y-12164460D02*
X10735686Y-12173984D01*
X10735686Y-12173984D02*
X10716639Y-12173984D01*
X10716639Y-12173984D02*
X10697591Y-12164460D01*
X10697591Y-12164460D02*
X10688067Y-12154936D01*
X10688067Y-12154936D02*
X10678544Y-12135888D01*
X10678544Y-12135888D02*
X10669020Y-12097793D01*
X10669020Y-12097793D02*
X10669020Y-12050174D01*
X10669020Y-12050174D02*
X10678544Y-12012079D01*
X10678544Y-12012079D02*
X10688067Y-11993031D01*
X10688067Y-11993031D02*
X10697591Y-11983508D01*
X10697591Y-11983508D02*
X10716639Y-11973984D01*
X10869020Y-12173984D02*
X10869020Y-12040650D01*
X10869020Y-12059698D02*
X10878544Y-12050174D01*
X10878544Y-12050174D02*
X10897591Y-12040650D01*
X10897591Y-12040650D02*
X10926163Y-12040650D01*
X10926163Y-12040650D02*
X10945210Y-12050174D01*
X10945210Y-12050174D02*
X10954734Y-12069222D01*
X10954734Y-12069222D02*
X10954734Y-12173984D01*
X10954734Y-12069222D02*
X10964258Y-12050174D01*
X10964258Y-12050174D02*
X10983305Y-12040650D01*
X10983305Y-12040650D02*
X11011877Y-12040650D01*
X11011877Y-12040650D02*
X11030925Y-12050174D01*
X11030925Y-12050174D02*
X11040448Y-12069222D01*
X11040448Y-12069222D02*
X11040448Y-12173984D01*
X11135686Y-12173984D02*
X11135686Y-12040650D01*
X11135686Y-12059698D02*
X11145210Y-12050174D01*
X11145210Y-12050174D02*
X11164258Y-12040650D01*
X11164258Y-12040650D02*
X11192829Y-12040650D01*
X11192829Y-12040650D02*
X11211877Y-12050174D01*
X11211877Y-12050174D02*
X11221401Y-12069222D01*
X11221401Y-12069222D02*
X11221401Y-12173984D01*
X11221401Y-12069222D02*
X11230924Y-12050174D01*
X11230924Y-12050174D02*
X11249972Y-12040650D01*
X11249972Y-12040650D02*
X11278543Y-12040650D01*
X11278543Y-12040650D02*
X11297591Y-12050174D01*
X11297591Y-12050174D02*
X11307115Y-12069222D01*
X11307115Y-12069222D02*
X11307115Y-12173984D01*
X11697591Y-11964460D02*
X11526163Y-12221603D01*
X11954734Y-11973984D02*
X11973782Y-11973984D01*
X11973782Y-11973984D02*
X11992829Y-11983508D01*
X11992829Y-11983508D02*
X12002353Y-11993031D01*
X12002353Y-11993031D02*
X12011877Y-12012079D01*
X12011877Y-12012079D02*
X12021401Y-12050174D01*
X12021401Y-12050174D02*
X12021401Y-12097793D01*
X12021401Y-12097793D02*
X12011877Y-12135888D01*
X12011877Y-12135888D02*
X12002353Y-12154936D01*
X12002353Y-12154936D02*
X11992829Y-12164460D01*
X11992829Y-12164460D02*
X11973782Y-12173984D01*
X11973782Y-12173984D02*
X11954734Y-12173984D01*
X11954734Y-12173984D02*
X11935686Y-12164460D01*
X11935686Y-12164460D02*
X11926163Y-12154936D01*
X11926163Y-12154936D02*
X11916639Y-12135888D01*
X11916639Y-12135888D02*
X11907115Y-12097793D01*
X11907115Y-12097793D02*
X11907115Y-12050174D01*
X11907115Y-12050174D02*
X11916639Y-12012079D01*
X11916639Y-12012079D02*
X11926163Y-11993031D01*
X11926163Y-11993031D02*
X11935686Y-11983508D01*
X11935686Y-11983508D02*
X11954734Y-11973984D01*
X12107115Y-12154936D02*
X12116639Y-12164460D01*
X12116639Y-12164460D02*
X12107115Y-12173984D01*
X12107115Y-12173984D02*
X12097591Y-12164460D01*
X12097591Y-12164460D02*
X12107115Y-12154936D01*
X12107115Y-12154936D02*
X12107115Y-12173984D01*
X12240448Y-11973984D02*
X12259496Y-11973984D01*
X12259496Y-11973984D02*
X12278544Y-11983508D01*
X12278544Y-11983508D02*
X12288067Y-11993031D01*
X12288067Y-11993031D02*
X12297591Y-12012079D01*
X12297591Y-12012079D02*
X12307115Y-12050174D01*
X12307115Y-12050174D02*
X12307115Y-12097793D01*
X12307115Y-12097793D02*
X12297591Y-12135888D01*
X12297591Y-12135888D02*
X12288067Y-12154936D01*
X12288067Y-12154936D02*
X12278544Y-12164460D01*
X12278544Y-12164460D02*
X12259496Y-12173984D01*
X12259496Y-12173984D02*
X12240448Y-12173984D01*
X12240448Y-12173984D02*
X12221401Y-12164460D01*
X12221401Y-12164460D02*
X12211877Y-12154936D01*
X12211877Y-12154936D02*
X12202353Y-12135888D01*
X12202353Y-12135888D02*
X12192829Y-12097793D01*
X12192829Y-12097793D02*
X12192829Y-12050174D01*
X12192829Y-12050174D02*
X12202353Y-12012079D01*
X12202353Y-12012079D02*
X12211877Y-11993031D01*
X12211877Y-11993031D02*
X12221401Y-11983508D01*
X12221401Y-11983508D02*
X12240448Y-11973984D01*
X12373782Y-11973984D02*
X12497591Y-11973984D01*
X12497591Y-11973984D02*
X12430925Y-12050174D01*
X12430925Y-12050174D02*
X12459496Y-12050174D01*
X12459496Y-12050174D02*
X12478544Y-12059698D01*
X12478544Y-12059698D02*
X12488067Y-12069222D01*
X12488067Y-12069222D02*
X12497591Y-12088269D01*
X12497591Y-12088269D02*
X12497591Y-12135888D01*
X12497591Y-12135888D02*
X12488067Y-12154936D01*
X12488067Y-12154936D02*
X12478544Y-12164460D01*
X12478544Y-12164460D02*
X12459496Y-12173984D01*
X12459496Y-12173984D02*
X12402353Y-12173984D01*
X12402353Y-12173984D02*
X12383306Y-12164460D01*
X12383306Y-12164460D02*
X12373782Y-12154936D01*
X12564258Y-11973984D02*
X12697591Y-11973984D01*
X12697591Y-11973984D02*
X12611877Y-12173984D01*
X12859496Y-12040650D02*
X12859496Y-12173984D01*
X12811877Y-11964460D02*
X12764258Y-12107317D01*
X12764258Y-12107317D02*
X12888067Y-12107317D01*
X12954734Y-11973984D02*
X12954734Y-12012079D01*
X13030925Y-11973984D02*
X13030925Y-12012079D01*
X13326163Y-12250174D02*
X13316639Y-12240650D01*
X13316639Y-12240650D02*
X13297591Y-12212079D01*
X13297591Y-12212079D02*
X13288068Y-12193031D01*
X13288068Y-12193031D02*
X13278544Y-12164460D01*
X13278544Y-12164460D02*
X13269020Y-12116841D01*
X13269020Y-12116841D02*
X13269020Y-12078746D01*
X13269020Y-12078746D02*
X13278544Y-12031127D01*
X13278544Y-12031127D02*
X13288068Y-12002555D01*
X13288068Y-12002555D02*
X13297591Y-11983508D01*
X13297591Y-11983508D02*
X13316639Y-11954936D01*
X13316639Y-11954936D02*
X13326163Y-11945412D01*
X13497591Y-11973984D02*
X13402353Y-11973984D01*
X13402353Y-11973984D02*
X13392829Y-12069222D01*
X13392829Y-12069222D02*
X13402353Y-12059698D01*
X13402353Y-12059698D02*
X13421401Y-12050174D01*
X13421401Y-12050174D02*
X13469020Y-12050174D01*
X13469020Y-12050174D02*
X13488068Y-12059698D01*
X13488068Y-12059698D02*
X13497591Y-12069222D01*
X13497591Y-12069222D02*
X13507115Y-12088269D01*
X13507115Y-12088269D02*
X13507115Y-12135888D01*
X13507115Y-12135888D02*
X13497591Y-12154936D01*
X13497591Y-12154936D02*
X13488068Y-12164460D01*
X13488068Y-12164460D02*
X13469020Y-12173984D01*
X13469020Y-12173984D02*
X13421401Y-12173984D01*
X13421401Y-12173984D02*
X13402353Y-12164460D01*
X13402353Y-12164460D02*
X13392829Y-12154936D01*
X13745210Y-12173984D02*
X13745210Y-11973984D01*
X13830925Y-12173984D02*
X13830925Y-12069222D01*
X13830925Y-12069222D02*
X13821401Y-12050174D01*
X13821401Y-12050174D02*
X13802353Y-12040650D01*
X13802353Y-12040650D02*
X13773782Y-12040650D01*
X13773782Y-12040650D02*
X13754734Y-12050174D01*
X13754734Y-12050174D02*
X13745210Y-12059698D01*
X13954734Y-12173984D02*
X13935687Y-12164460D01*
X13935687Y-12164460D02*
X13926163Y-12154936D01*
X13926163Y-12154936D02*
X13916639Y-12135888D01*
X13916639Y-12135888D02*
X13916639Y-12078746D01*
X13916639Y-12078746D02*
X13926163Y-12059698D01*
X13926163Y-12059698D02*
X13935687Y-12050174D01*
X13935687Y-12050174D02*
X13954734Y-12040650D01*
X13954734Y-12040650D02*
X13983306Y-12040650D01*
X13983306Y-12040650D02*
X14002353Y-12050174D01*
X14002353Y-12050174D02*
X14011877Y-12059698D01*
X14011877Y-12059698D02*
X14021401Y-12078746D01*
X14021401Y-12078746D02*
X14021401Y-12135888D01*
X14021401Y-12135888D02*
X14011877Y-12154936D01*
X14011877Y-12154936D02*
X14002353Y-12164460D01*
X14002353Y-12164460D02*
X13983306Y-12173984D01*
X13983306Y-12173984D02*
X13954734Y-12173984D01*
X14135687Y-12173984D02*
X14116639Y-12164460D01*
X14116639Y-12164460D02*
X14107115Y-12145412D01*
X14107115Y-12145412D02*
X14107115Y-11973984D01*
X14288068Y-12164460D02*
X14269020Y-12173984D01*
X14269020Y-12173984D02*
X14230925Y-12173984D01*
X14230925Y-12173984D02*
X14211877Y-12164460D01*
X14211877Y-12164460D02*
X14202353Y-12145412D01*
X14202353Y-12145412D02*
X14202353Y-12069222D01*
X14202353Y-12069222D02*
X14211877Y-12050174D01*
X14211877Y-12050174D02*
X14230925Y-12040650D01*
X14230925Y-12040650D02*
X14269020Y-12040650D01*
X14269020Y-12040650D02*
X14288068Y-12050174D01*
X14288068Y-12050174D02*
X14297591Y-12069222D01*
X14297591Y-12069222D02*
X14297591Y-12088269D01*
X14297591Y-12088269D02*
X14202353Y-12107317D01*
X14373782Y-12164460D02*
X14392830Y-12173984D01*
X14392830Y-12173984D02*
X14430925Y-12173984D01*
X14430925Y-12173984D02*
X14449972Y-12164460D01*
X14449972Y-12164460D02*
X14459496Y-12145412D01*
X14459496Y-12145412D02*
X14459496Y-12135888D01*
X14459496Y-12135888D02*
X14449972Y-12116841D01*
X14449972Y-12116841D02*
X14430925Y-12107317D01*
X14430925Y-12107317D02*
X14402353Y-12107317D01*
X14402353Y-12107317D02*
X14383306Y-12097793D01*
X14383306Y-12097793D02*
X14373782Y-12078746D01*
X14373782Y-12078746D02*
X14373782Y-12069222D01*
X14373782Y-12069222D02*
X14383306Y-12050174D01*
X14383306Y-12050174D02*
X14402353Y-12040650D01*
X14402353Y-12040650D02*
X14430925Y-12040650D01*
X14430925Y-12040650D02*
X14449972Y-12050174D01*
X14526163Y-12250174D02*
X14535687Y-12240650D01*
X14535687Y-12240650D02*
X14554734Y-12212079D01*
X14554734Y-12212079D02*
X14564258Y-12193031D01*
X14564258Y-12193031D02*
X14573782Y-12164460D01*
X14573782Y-12164460D02*
X14583306Y-12116841D01*
X14583306Y-12116841D02*
X14583306Y-12078746D01*
X14583306Y-12078746D02*
X14573782Y-12031127D01*
X14573782Y-12031127D02*
X14564258Y-12002555D01*
X14564258Y-12002555D02*
X14554734Y-11983508D01*
X14554734Y-11983508D02*
X14535687Y-11954936D01*
X14535687Y-11954936D02*
X14526163Y-11945412D01*
D12*
X9701100Y-12296500D02*
X9701100Y-12396500D01*
X9651100Y-12346500D02*
X9751100Y-12346500D01*
D11*
X10116639Y-12437984D02*
X10002353Y-12437984D01*
X10059496Y-12437984D02*
X10059496Y-12237984D01*
X10059496Y-12237984D02*
X10040448Y-12266555D01*
X10040448Y-12266555D02*
X10021401Y-12285603D01*
X10021401Y-12285603D02*
X10002353Y-12295127D01*
X10202353Y-12418936D02*
X10211877Y-12428460D01*
X10211877Y-12428460D02*
X10202353Y-12437984D01*
X10202353Y-12437984D02*
X10192829Y-12428460D01*
X10192829Y-12428460D02*
X10202353Y-12418936D01*
X10202353Y-12418936D02*
X10202353Y-12437984D01*
X10335686Y-12237984D02*
X10354734Y-12237984D01*
X10354734Y-12237984D02*
X10373782Y-12247508D01*
X10373782Y-12247508D02*
X10383305Y-12257031D01*
X10383305Y-12257031D02*
X10392829Y-12276079D01*
X10392829Y-12276079D02*
X10402353Y-12314174D01*
X10402353Y-12314174D02*
X10402353Y-12361793D01*
X10402353Y-12361793D02*
X10392829Y-12399888D01*
X10392829Y-12399888D02*
X10383305Y-12418936D01*
X10383305Y-12418936D02*
X10373782Y-12428460D01*
X10373782Y-12428460D02*
X10354734Y-12437984D01*
X10354734Y-12437984D02*
X10335686Y-12437984D01*
X10335686Y-12437984D02*
X10316639Y-12428460D01*
X10316639Y-12428460D02*
X10307115Y-12418936D01*
X10307115Y-12418936D02*
X10297591Y-12399888D01*
X10297591Y-12399888D02*
X10288067Y-12361793D01*
X10288067Y-12361793D02*
X10288067Y-12314174D01*
X10288067Y-12314174D02*
X10297591Y-12276079D01*
X10297591Y-12276079D02*
X10307115Y-12257031D01*
X10307115Y-12257031D02*
X10316639Y-12247508D01*
X10316639Y-12247508D02*
X10335686Y-12237984D01*
X10526163Y-12237984D02*
X10545210Y-12237984D01*
X10545210Y-12237984D02*
X10564258Y-12247508D01*
X10564258Y-12247508D02*
X10573782Y-12257031D01*
X10573782Y-12257031D02*
X10583305Y-12276079D01*
X10583305Y-12276079D02*
X10592829Y-12314174D01*
X10592829Y-12314174D02*
X10592829Y-12361793D01*
X10592829Y-12361793D02*
X10583305Y-12399888D01*
X10583305Y-12399888D02*
X10573782Y-12418936D01*
X10573782Y-12418936D02*
X10564258Y-12428460D01*
X10564258Y-12428460D02*
X10545210Y-12437984D01*
X10545210Y-12437984D02*
X10526163Y-12437984D01*
X10526163Y-12437984D02*
X10507115Y-12428460D01*
X10507115Y-12428460D02*
X10497591Y-12418936D01*
X10497591Y-12418936D02*
X10488067Y-12399888D01*
X10488067Y-12399888D02*
X10478544Y-12361793D01*
X10478544Y-12361793D02*
X10478544Y-12314174D01*
X10478544Y-12314174D02*
X10488067Y-12276079D01*
X10488067Y-12276079D02*
X10497591Y-12257031D01*
X10497591Y-12257031D02*
X10507115Y-12247508D01*
X10507115Y-12247508D02*
X10526163Y-12237984D01*
X10716639Y-12237984D02*
X10735686Y-12237984D01*
X10735686Y-12237984D02*
X10754734Y-12247508D01*
X10754734Y-12247508D02*
X10764258Y-12257031D01*
X10764258Y-12257031D02*
X10773782Y-12276079D01*
X10773782Y-12276079D02*
X10783305Y-12314174D01*
X10783305Y-12314174D02*
X10783305Y-12361793D01*
X10783305Y-12361793D02*
X10773782Y-12399888D01*
X10773782Y-12399888D02*
X10764258Y-12418936D01*
X10764258Y-12418936D02*
X10754734Y-12428460D01*
X10754734Y-12428460D02*
X10735686Y-12437984D01*
X10735686Y-12437984D02*
X10716639Y-12437984D01*
X10716639Y-12437984D02*
X10697591Y-12428460D01*
X10697591Y-12428460D02*
X10688067Y-12418936D01*
X10688067Y-12418936D02*
X10678544Y-12399888D01*
X10678544Y-12399888D02*
X10669020Y-12361793D01*
X10669020Y-12361793D02*
X10669020Y-12314174D01*
X10669020Y-12314174D02*
X10678544Y-12276079D01*
X10678544Y-12276079D02*
X10688067Y-12257031D01*
X10688067Y-12257031D02*
X10697591Y-12247508D01*
X10697591Y-12247508D02*
X10716639Y-12237984D01*
X10869020Y-12437984D02*
X10869020Y-12304650D01*
X10869020Y-12323698D02*
X10878544Y-12314174D01*
X10878544Y-12314174D02*
X10897591Y-12304650D01*
X10897591Y-12304650D02*
X10926163Y-12304650D01*
X10926163Y-12304650D02*
X10945210Y-12314174D01*
X10945210Y-12314174D02*
X10954734Y-12333222D01*
X10954734Y-12333222D02*
X10954734Y-12437984D01*
X10954734Y-12333222D02*
X10964258Y-12314174D01*
X10964258Y-12314174D02*
X10983305Y-12304650D01*
X10983305Y-12304650D02*
X11011877Y-12304650D01*
X11011877Y-12304650D02*
X11030925Y-12314174D01*
X11030925Y-12314174D02*
X11040448Y-12333222D01*
X11040448Y-12333222D02*
X11040448Y-12437984D01*
X11135686Y-12437984D02*
X11135686Y-12304650D01*
X11135686Y-12323698D02*
X11145210Y-12314174D01*
X11145210Y-12314174D02*
X11164258Y-12304650D01*
X11164258Y-12304650D02*
X11192829Y-12304650D01*
X11192829Y-12304650D02*
X11211877Y-12314174D01*
X11211877Y-12314174D02*
X11221401Y-12333222D01*
X11221401Y-12333222D02*
X11221401Y-12437984D01*
X11221401Y-12333222D02*
X11230924Y-12314174D01*
X11230924Y-12314174D02*
X11249972Y-12304650D01*
X11249972Y-12304650D02*
X11278543Y-12304650D01*
X11278543Y-12304650D02*
X11297591Y-12314174D01*
X11297591Y-12314174D02*
X11307115Y-12333222D01*
X11307115Y-12333222D02*
X11307115Y-12437984D01*
X11697591Y-12228460D02*
X11526163Y-12485603D01*
X11954734Y-12237984D02*
X11973782Y-12237984D01*
X11973782Y-12237984D02*
X11992829Y-12247508D01*
X11992829Y-12247508D02*
X12002353Y-12257031D01*
X12002353Y-12257031D02*
X12011877Y-12276079D01*
X12011877Y-12276079D02*
X12021401Y-12314174D01*
X12021401Y-12314174D02*
X12021401Y-12361793D01*
X12021401Y-12361793D02*
X12011877Y-12399888D01*
X12011877Y-12399888D02*
X12002353Y-12418936D01*
X12002353Y-12418936D02*
X11992829Y-12428460D01*
X11992829Y-12428460D02*
X11973782Y-12437984D01*
X11973782Y-12437984D02*
X11954734Y-12437984D01*
X11954734Y-12437984D02*
X11935686Y-12428460D01*
X11935686Y-12428460D02*
X11926163Y-12418936D01*
X11926163Y-12418936D02*
X11916639Y-12399888D01*
X11916639Y-12399888D02*
X11907115Y-12361793D01*
X11907115Y-12361793D02*
X11907115Y-12314174D01*
X11907115Y-12314174D02*
X11916639Y-12276079D01*
X11916639Y-12276079D02*
X11926163Y-12257031D01*
X11926163Y-12257031D02*
X11935686Y-12247508D01*
X11935686Y-12247508D02*
X11954734Y-12237984D01*
X12107115Y-12418936D02*
X12116639Y-12428460D01*
X12116639Y-12428460D02*
X12107115Y-12437984D01*
X12107115Y-12437984D02*
X12097591Y-12428460D01*
X12097591Y-12428460D02*
X12107115Y-12418936D01*
X12107115Y-12418936D02*
X12107115Y-12437984D01*
X12240448Y-12237984D02*
X12259496Y-12237984D01*
X12259496Y-12237984D02*
X12278544Y-12247508D01*
X12278544Y-12247508D02*
X12288067Y-12257031D01*
X12288067Y-12257031D02*
X12297591Y-12276079D01*
X12297591Y-12276079D02*
X12307115Y-12314174D01*
X12307115Y-12314174D02*
X12307115Y-12361793D01*
X12307115Y-12361793D02*
X12297591Y-12399888D01*
X12297591Y-12399888D02*
X12288067Y-12418936D01*
X12288067Y-12418936D02*
X12278544Y-12428460D01*
X12278544Y-12428460D02*
X12259496Y-12437984D01*
X12259496Y-12437984D02*
X12240448Y-12437984D01*
X12240448Y-12437984D02*
X12221401Y-12428460D01*
X12221401Y-12428460D02*
X12211877Y-12418936D01*
X12211877Y-12418936D02*
X12202353Y-12399888D01*
X12202353Y-12399888D02*
X12192829Y-12361793D01*
X12192829Y-12361793D02*
X12192829Y-12314174D01*
X12192829Y-12314174D02*
X12202353Y-12276079D01*
X12202353Y-12276079D02*
X12211877Y-12257031D01*
X12211877Y-12257031D02*
X12221401Y-12247508D01*
X12221401Y-12247508D02*
X12240448Y-12237984D01*
X12373782Y-12237984D02*
X12497591Y-12237984D01*
X12497591Y-12237984D02*
X12430925Y-12314174D01*
X12430925Y-12314174D02*
X12459496Y-12314174D01*
X12459496Y-12314174D02*
X12478544Y-12323698D01*
X12478544Y-12323698D02*
X12488067Y-12333222D01*
X12488067Y-12333222D02*
X12497591Y-12352269D01*
X12497591Y-12352269D02*
X12497591Y-12399888D01*
X12497591Y-12399888D02*
X12488067Y-12418936D01*
X12488067Y-12418936D02*
X12478544Y-12428460D01*
X12478544Y-12428460D02*
X12459496Y-12437984D01*
X12459496Y-12437984D02*
X12402353Y-12437984D01*
X12402353Y-12437984D02*
X12383306Y-12428460D01*
X12383306Y-12428460D02*
X12373782Y-12418936D01*
X12592829Y-12437984D02*
X12630925Y-12437984D01*
X12630925Y-12437984D02*
X12649972Y-12428460D01*
X12649972Y-12428460D02*
X12659496Y-12418936D01*
X12659496Y-12418936D02*
X12678544Y-12390365D01*
X12678544Y-12390365D02*
X12688067Y-12352269D01*
X12688067Y-12352269D02*
X12688067Y-12276079D01*
X12688067Y-12276079D02*
X12678544Y-12257031D01*
X12678544Y-12257031D02*
X12669020Y-12247508D01*
X12669020Y-12247508D02*
X12649972Y-12237984D01*
X12649972Y-12237984D02*
X12611877Y-12237984D01*
X12611877Y-12237984D02*
X12592829Y-12247508D01*
X12592829Y-12247508D02*
X12583306Y-12257031D01*
X12583306Y-12257031D02*
X12573782Y-12276079D01*
X12573782Y-12276079D02*
X12573782Y-12323698D01*
X12573782Y-12323698D02*
X12583306Y-12342746D01*
X12583306Y-12342746D02*
X12592829Y-12352269D01*
X12592829Y-12352269D02*
X12611877Y-12361793D01*
X12611877Y-12361793D02*
X12649972Y-12361793D01*
X12649972Y-12361793D02*
X12669020Y-12352269D01*
X12669020Y-12352269D02*
X12678544Y-12342746D01*
X12678544Y-12342746D02*
X12688067Y-12323698D01*
X12859496Y-12304650D02*
X12859496Y-12437984D01*
X12811877Y-12228460D02*
X12764258Y-12371317D01*
X12764258Y-12371317D02*
X12888067Y-12371317D01*
X12954734Y-12237984D02*
X12954734Y-12276079D01*
X13030925Y-12237984D02*
X13030925Y-12276079D01*
X13326163Y-12514174D02*
X13316639Y-12504650D01*
X13316639Y-12504650D02*
X13297591Y-12476079D01*
X13297591Y-12476079D02*
X13288068Y-12457031D01*
X13288068Y-12457031D02*
X13278544Y-12428460D01*
X13278544Y-12428460D02*
X13269020Y-12380841D01*
X13269020Y-12380841D02*
X13269020Y-12342746D01*
X13269020Y-12342746D02*
X13278544Y-12295127D01*
X13278544Y-12295127D02*
X13288068Y-12266555D01*
X13288068Y-12266555D02*
X13297591Y-12247508D01*
X13297591Y-12247508D02*
X13316639Y-12218936D01*
X13316639Y-12218936D02*
X13326163Y-12209412D01*
X13392829Y-12257031D02*
X13402353Y-12247508D01*
X13402353Y-12247508D02*
X13421401Y-12237984D01*
X13421401Y-12237984D02*
X13469020Y-12237984D01*
X13469020Y-12237984D02*
X13488068Y-12247508D01*
X13488068Y-12247508D02*
X13497591Y-12257031D01*
X13497591Y-12257031D02*
X13507115Y-12276079D01*
X13507115Y-12276079D02*
X13507115Y-12295127D01*
X13507115Y-12295127D02*
X13497591Y-12323698D01*
X13497591Y-12323698D02*
X13383306Y-12437984D01*
X13383306Y-12437984D02*
X13507115Y-12437984D01*
X13602353Y-12437984D02*
X13640448Y-12437984D01*
X13640448Y-12437984D02*
X13659496Y-12428460D01*
X13659496Y-12428460D02*
X13669020Y-12418936D01*
X13669020Y-12418936D02*
X13688068Y-12390365D01*
X13688068Y-12390365D02*
X13697591Y-12352269D01*
X13697591Y-12352269D02*
X13697591Y-12276079D01*
X13697591Y-12276079D02*
X13688068Y-12257031D01*
X13688068Y-12257031D02*
X13678544Y-12247508D01*
X13678544Y-12247508D02*
X13659496Y-12237984D01*
X13659496Y-12237984D02*
X13621401Y-12237984D01*
X13621401Y-12237984D02*
X13602353Y-12247508D01*
X13602353Y-12247508D02*
X13592829Y-12257031D01*
X13592829Y-12257031D02*
X13583306Y-12276079D01*
X13583306Y-12276079D02*
X13583306Y-12323698D01*
X13583306Y-12323698D02*
X13592829Y-12342746D01*
X13592829Y-12342746D02*
X13602353Y-12352269D01*
X13602353Y-12352269D02*
X13621401Y-12361793D01*
X13621401Y-12361793D02*
X13659496Y-12361793D01*
X13659496Y-12361793D02*
X13678544Y-12352269D01*
X13678544Y-12352269D02*
X13688068Y-12342746D01*
X13688068Y-12342746D02*
X13697591Y-12323698D01*
X13935687Y-12437984D02*
X13935687Y-12237984D01*
X14021401Y-12437984D02*
X14021401Y-12333222D01*
X14021401Y-12333222D02*
X14011877Y-12314174D01*
X14011877Y-12314174D02*
X13992830Y-12304650D01*
X13992830Y-12304650D02*
X13964258Y-12304650D01*
X13964258Y-12304650D02*
X13945210Y-12314174D01*
X13945210Y-12314174D02*
X13935687Y-12323698D01*
X14145210Y-12437984D02*
X14126163Y-12428460D01*
X14126163Y-12428460D02*
X14116639Y-12418936D01*
X14116639Y-12418936D02*
X14107115Y-12399888D01*
X14107115Y-12399888D02*
X14107115Y-12342746D01*
X14107115Y-12342746D02*
X14116639Y-12323698D01*
X14116639Y-12323698D02*
X14126163Y-12314174D01*
X14126163Y-12314174D02*
X14145210Y-12304650D01*
X14145210Y-12304650D02*
X14173782Y-12304650D01*
X14173782Y-12304650D02*
X14192830Y-12314174D01*
X14192830Y-12314174D02*
X14202353Y-12323698D01*
X14202353Y-12323698D02*
X14211877Y-12342746D01*
X14211877Y-12342746D02*
X14211877Y-12399888D01*
X14211877Y-12399888D02*
X14202353Y-12418936D01*
X14202353Y-12418936D02*
X14192830Y-12428460D01*
X14192830Y-12428460D02*
X14173782Y-12437984D01*
X14173782Y-12437984D02*
X14145210Y-12437984D01*
X14326163Y-12437984D02*
X14307115Y-12428460D01*
X14307115Y-12428460D02*
X14297591Y-12409412D01*
X14297591Y-12409412D02*
X14297591Y-12237984D01*
X14478544Y-12428460D02*
X14459496Y-12437984D01*
X14459496Y-12437984D02*
X14421401Y-12437984D01*
X14421401Y-12437984D02*
X14402353Y-12428460D01*
X14402353Y-12428460D02*
X14392830Y-12409412D01*
X14392830Y-12409412D02*
X14392830Y-12333222D01*
X14392830Y-12333222D02*
X14402353Y-12314174D01*
X14402353Y-12314174D02*
X14421401Y-12304650D01*
X14421401Y-12304650D02*
X14459496Y-12304650D01*
X14459496Y-12304650D02*
X14478544Y-12314174D01*
X14478544Y-12314174D02*
X14488068Y-12333222D01*
X14488068Y-12333222D02*
X14488068Y-12352269D01*
X14488068Y-12352269D02*
X14392830Y-12371317D01*
X14564258Y-12428460D02*
X14583306Y-12437984D01*
X14583306Y-12437984D02*
X14621401Y-12437984D01*
X14621401Y-12437984D02*
X14640449Y-12428460D01*
X14640449Y-12428460D02*
X14649972Y-12409412D01*
X14649972Y-12409412D02*
X14649972Y-12399888D01*
X14649972Y-12399888D02*
X14640449Y-12380841D01*
X14640449Y-12380841D02*
X14621401Y-12371317D01*
X14621401Y-12371317D02*
X14592830Y-12371317D01*
X14592830Y-12371317D02*
X14573782Y-12361793D01*
X14573782Y-12361793D02*
X14564258Y-12342746D01*
X14564258Y-12342746D02*
X14564258Y-12333222D01*
X14564258Y-12333222D02*
X14573782Y-12314174D01*
X14573782Y-12314174D02*
X14592830Y-12304650D01*
X14592830Y-12304650D02*
X14621401Y-12304650D01*
X14621401Y-12304650D02*
X14640449Y-12314174D01*
X14716639Y-12514174D02*
X14726163Y-12504650D01*
X14726163Y-12504650D02*
X14745211Y-12476079D01*
X14745211Y-12476079D02*
X14754734Y-12457031D01*
X14754734Y-12457031D02*
X14764258Y-12428460D01*
X14764258Y-12428460D02*
X14773782Y-12380841D01*
X14773782Y-12380841D02*
X14773782Y-12342746D01*
X14773782Y-12342746D02*
X14764258Y-12295127D01*
X14764258Y-12295127D02*
X14754734Y-12266555D01*
X14754734Y-12266555D02*
X14745211Y-12247508D01*
X14745211Y-12247508D02*
X14726163Y-12218936D01*
X14726163Y-12218936D02*
X14716639Y-12209412D01*
X9721811Y-12681211D02*
X9721811Y-12539789D01*
X9580389Y-12539789D01*
X9580389Y-12681211D01*
X9721811Y-12681211D01*
X10002353Y-12521031D02*
X10011877Y-12511508D01*
X10011877Y-12511508D02*
X10030924Y-12501984D01*
X10030924Y-12501984D02*
X10078544Y-12501984D01*
X10078544Y-12501984D02*
X10097591Y-12511508D01*
X10097591Y-12511508D02*
X10107115Y-12521031D01*
X10107115Y-12521031D02*
X10116639Y-12540079D01*
X10116639Y-12540079D02*
X10116639Y-12559127D01*
X10116639Y-12559127D02*
X10107115Y-12587698D01*
X10107115Y-12587698D02*
X9992829Y-12701984D01*
X9992829Y-12701984D02*
X10116639Y-12701984D01*
X10202353Y-12682936D02*
X10211877Y-12692460D01*
X10211877Y-12692460D02*
X10202353Y-12701984D01*
X10202353Y-12701984D02*
X10192829Y-12692460D01*
X10192829Y-12692460D02*
X10202353Y-12682936D01*
X10202353Y-12682936D02*
X10202353Y-12701984D01*
X10392829Y-12501984D02*
X10297591Y-12501984D01*
X10297591Y-12501984D02*
X10288067Y-12597222D01*
X10288067Y-12597222D02*
X10297591Y-12587698D01*
X10297591Y-12587698D02*
X10316639Y-12578174D01*
X10316639Y-12578174D02*
X10364258Y-12578174D01*
X10364258Y-12578174D02*
X10383305Y-12587698D01*
X10383305Y-12587698D02*
X10392829Y-12597222D01*
X10392829Y-12597222D02*
X10402353Y-12616269D01*
X10402353Y-12616269D02*
X10402353Y-12663888D01*
X10402353Y-12663888D02*
X10392829Y-12682936D01*
X10392829Y-12682936D02*
X10383305Y-12692460D01*
X10383305Y-12692460D02*
X10364258Y-12701984D01*
X10364258Y-12701984D02*
X10316639Y-12701984D01*
X10316639Y-12701984D02*
X10297591Y-12692460D01*
X10297591Y-12692460D02*
X10288067Y-12682936D01*
X10526163Y-12501984D02*
X10545210Y-12501984D01*
X10545210Y-12501984D02*
X10564258Y-12511508D01*
X10564258Y-12511508D02*
X10573782Y-12521031D01*
X10573782Y-12521031D02*
X10583305Y-12540079D01*
X10583305Y-12540079D02*
X10592829Y-12578174D01*
X10592829Y-12578174D02*
X10592829Y-12625793D01*
X10592829Y-12625793D02*
X10583305Y-12663888D01*
X10583305Y-12663888D02*
X10573782Y-12682936D01*
X10573782Y-12682936D02*
X10564258Y-12692460D01*
X10564258Y-12692460D02*
X10545210Y-12701984D01*
X10545210Y-12701984D02*
X10526163Y-12701984D01*
X10526163Y-12701984D02*
X10507115Y-12692460D01*
X10507115Y-12692460D02*
X10497591Y-12682936D01*
X10497591Y-12682936D02*
X10488067Y-12663888D01*
X10488067Y-12663888D02*
X10478544Y-12625793D01*
X10478544Y-12625793D02*
X10478544Y-12578174D01*
X10478544Y-12578174D02*
X10488067Y-12540079D01*
X10488067Y-12540079D02*
X10497591Y-12521031D01*
X10497591Y-12521031D02*
X10507115Y-12511508D01*
X10507115Y-12511508D02*
X10526163Y-12501984D01*
X10716639Y-12501984D02*
X10735686Y-12501984D01*
X10735686Y-12501984D02*
X10754734Y-12511508D01*
X10754734Y-12511508D02*
X10764258Y-12521031D01*
X10764258Y-12521031D02*
X10773782Y-12540079D01*
X10773782Y-12540079D02*
X10783305Y-12578174D01*
X10783305Y-12578174D02*
X10783305Y-12625793D01*
X10783305Y-12625793D02*
X10773782Y-12663888D01*
X10773782Y-12663888D02*
X10764258Y-12682936D01*
X10764258Y-12682936D02*
X10754734Y-12692460D01*
X10754734Y-12692460D02*
X10735686Y-12701984D01*
X10735686Y-12701984D02*
X10716639Y-12701984D01*
X10716639Y-12701984D02*
X10697591Y-12692460D01*
X10697591Y-12692460D02*
X10688067Y-12682936D01*
X10688067Y-12682936D02*
X10678544Y-12663888D01*
X10678544Y-12663888D02*
X10669020Y-12625793D01*
X10669020Y-12625793D02*
X10669020Y-12578174D01*
X10669020Y-12578174D02*
X10678544Y-12540079D01*
X10678544Y-12540079D02*
X10688067Y-12521031D01*
X10688067Y-12521031D02*
X10697591Y-12511508D01*
X10697591Y-12511508D02*
X10716639Y-12501984D01*
X10869020Y-12701984D02*
X10869020Y-12568650D01*
X10869020Y-12587698D02*
X10878544Y-12578174D01*
X10878544Y-12578174D02*
X10897591Y-12568650D01*
X10897591Y-12568650D02*
X10926163Y-12568650D01*
X10926163Y-12568650D02*
X10945210Y-12578174D01*
X10945210Y-12578174D02*
X10954734Y-12597222D01*
X10954734Y-12597222D02*
X10954734Y-12701984D01*
X10954734Y-12597222D02*
X10964258Y-12578174D01*
X10964258Y-12578174D02*
X10983305Y-12568650D01*
X10983305Y-12568650D02*
X11011877Y-12568650D01*
X11011877Y-12568650D02*
X11030925Y-12578174D01*
X11030925Y-12578174D02*
X11040448Y-12597222D01*
X11040448Y-12597222D02*
X11040448Y-12701984D01*
X11135686Y-12701984D02*
X11135686Y-12568650D01*
X11135686Y-12587698D02*
X11145210Y-12578174D01*
X11145210Y-12578174D02*
X11164258Y-12568650D01*
X11164258Y-12568650D02*
X11192829Y-12568650D01*
X11192829Y-12568650D02*
X11211877Y-12578174D01*
X11211877Y-12578174D02*
X11221401Y-12597222D01*
X11221401Y-12597222D02*
X11221401Y-12701984D01*
X11221401Y-12597222D02*
X11230924Y-12578174D01*
X11230924Y-12578174D02*
X11249972Y-12568650D01*
X11249972Y-12568650D02*
X11278543Y-12568650D01*
X11278543Y-12568650D02*
X11297591Y-12578174D01*
X11297591Y-12578174D02*
X11307115Y-12597222D01*
X11307115Y-12597222D02*
X11307115Y-12701984D01*
X11697591Y-12492460D02*
X11526163Y-12749603D01*
X11954734Y-12501984D02*
X11973782Y-12501984D01*
X11973782Y-12501984D02*
X11992829Y-12511508D01*
X11992829Y-12511508D02*
X12002353Y-12521031D01*
X12002353Y-12521031D02*
X12011877Y-12540079D01*
X12011877Y-12540079D02*
X12021401Y-12578174D01*
X12021401Y-12578174D02*
X12021401Y-12625793D01*
X12021401Y-12625793D02*
X12011877Y-12663888D01*
X12011877Y-12663888D02*
X12002353Y-12682936D01*
X12002353Y-12682936D02*
X11992829Y-12692460D01*
X11992829Y-12692460D02*
X11973782Y-12701984D01*
X11973782Y-12701984D02*
X11954734Y-12701984D01*
X11954734Y-12701984D02*
X11935686Y-12692460D01*
X11935686Y-12692460D02*
X11926163Y-12682936D01*
X11926163Y-12682936D02*
X11916639Y-12663888D01*
X11916639Y-12663888D02*
X11907115Y-12625793D01*
X11907115Y-12625793D02*
X11907115Y-12578174D01*
X11907115Y-12578174D02*
X11916639Y-12540079D01*
X11916639Y-12540079D02*
X11926163Y-12521031D01*
X11926163Y-12521031D02*
X11935686Y-12511508D01*
X11935686Y-12511508D02*
X11954734Y-12501984D01*
X12107115Y-12682936D02*
X12116639Y-12692460D01*
X12116639Y-12692460D02*
X12107115Y-12701984D01*
X12107115Y-12701984D02*
X12097591Y-12692460D01*
X12097591Y-12692460D02*
X12107115Y-12682936D01*
X12107115Y-12682936D02*
X12107115Y-12701984D01*
X12240448Y-12501984D02*
X12259496Y-12501984D01*
X12259496Y-12501984D02*
X12278544Y-12511508D01*
X12278544Y-12511508D02*
X12288067Y-12521031D01*
X12288067Y-12521031D02*
X12297591Y-12540079D01*
X12297591Y-12540079D02*
X12307115Y-12578174D01*
X12307115Y-12578174D02*
X12307115Y-12625793D01*
X12307115Y-12625793D02*
X12297591Y-12663888D01*
X12297591Y-12663888D02*
X12288067Y-12682936D01*
X12288067Y-12682936D02*
X12278544Y-12692460D01*
X12278544Y-12692460D02*
X12259496Y-12701984D01*
X12259496Y-12701984D02*
X12240448Y-12701984D01*
X12240448Y-12701984D02*
X12221401Y-12692460D01*
X12221401Y-12692460D02*
X12211877Y-12682936D01*
X12211877Y-12682936D02*
X12202353Y-12663888D01*
X12202353Y-12663888D02*
X12192829Y-12625793D01*
X12192829Y-12625793D02*
X12192829Y-12578174D01*
X12192829Y-12578174D02*
X12202353Y-12540079D01*
X12202353Y-12540079D02*
X12211877Y-12521031D01*
X12211877Y-12521031D02*
X12221401Y-12511508D01*
X12221401Y-12511508D02*
X12240448Y-12501984D01*
X12402353Y-12701984D02*
X12440448Y-12701984D01*
X12440448Y-12701984D02*
X12459496Y-12692460D01*
X12459496Y-12692460D02*
X12469020Y-12682936D01*
X12469020Y-12682936D02*
X12488067Y-12654365D01*
X12488067Y-12654365D02*
X12497591Y-12616269D01*
X12497591Y-12616269D02*
X12497591Y-12540079D01*
X12497591Y-12540079D02*
X12488067Y-12521031D01*
X12488067Y-12521031D02*
X12478544Y-12511508D01*
X12478544Y-12511508D02*
X12459496Y-12501984D01*
X12459496Y-12501984D02*
X12421401Y-12501984D01*
X12421401Y-12501984D02*
X12402353Y-12511508D01*
X12402353Y-12511508D02*
X12392829Y-12521031D01*
X12392829Y-12521031D02*
X12383306Y-12540079D01*
X12383306Y-12540079D02*
X12383306Y-12587698D01*
X12383306Y-12587698D02*
X12392829Y-12606746D01*
X12392829Y-12606746D02*
X12402353Y-12616269D01*
X12402353Y-12616269D02*
X12421401Y-12625793D01*
X12421401Y-12625793D02*
X12459496Y-12625793D01*
X12459496Y-12625793D02*
X12478544Y-12616269D01*
X12478544Y-12616269D02*
X12488067Y-12606746D01*
X12488067Y-12606746D02*
X12497591Y-12587698D01*
X12611877Y-12587698D02*
X12592829Y-12578174D01*
X12592829Y-12578174D02*
X12583306Y-12568650D01*
X12583306Y-12568650D02*
X12573782Y-12549603D01*
X12573782Y-12549603D02*
X12573782Y-12540079D01*
X12573782Y-12540079D02*
X12583306Y-12521031D01*
X12583306Y-12521031D02*
X12592829Y-12511508D01*
X12592829Y-12511508D02*
X12611877Y-12501984D01*
X12611877Y-12501984D02*
X12649972Y-12501984D01*
X12649972Y-12501984D02*
X12669020Y-12511508D01*
X12669020Y-12511508D02*
X12678544Y-12521031D01*
X12678544Y-12521031D02*
X12688067Y-12540079D01*
X12688067Y-12540079D02*
X12688067Y-12549603D01*
X12688067Y-12549603D02*
X12678544Y-12568650D01*
X12678544Y-12568650D02*
X12669020Y-12578174D01*
X12669020Y-12578174D02*
X12649972Y-12587698D01*
X12649972Y-12587698D02*
X12611877Y-12587698D01*
X12611877Y-12587698D02*
X12592829Y-12597222D01*
X12592829Y-12597222D02*
X12583306Y-12606746D01*
X12583306Y-12606746D02*
X12573782Y-12625793D01*
X12573782Y-12625793D02*
X12573782Y-12663888D01*
X12573782Y-12663888D02*
X12583306Y-12682936D01*
X12583306Y-12682936D02*
X12592829Y-12692460D01*
X12592829Y-12692460D02*
X12611877Y-12701984D01*
X12611877Y-12701984D02*
X12649972Y-12701984D01*
X12649972Y-12701984D02*
X12669020Y-12692460D01*
X12669020Y-12692460D02*
X12678544Y-12682936D01*
X12678544Y-12682936D02*
X12688067Y-12663888D01*
X12688067Y-12663888D02*
X12688067Y-12625793D01*
X12688067Y-12625793D02*
X12678544Y-12606746D01*
X12678544Y-12606746D02*
X12669020Y-12597222D01*
X12669020Y-12597222D02*
X12649972Y-12587698D01*
X12859496Y-12568650D02*
X12859496Y-12701984D01*
X12811877Y-12492460D02*
X12764258Y-12635317D01*
X12764258Y-12635317D02*
X12888067Y-12635317D01*
X12954734Y-12501984D02*
X12954734Y-12540079D01*
X13030925Y-12501984D02*
X13030925Y-12540079D01*
X13326163Y-12778174D02*
X13316639Y-12768650D01*
X13316639Y-12768650D02*
X13297591Y-12740079D01*
X13297591Y-12740079D02*
X13288068Y-12721031D01*
X13288068Y-12721031D02*
X13278544Y-12692460D01*
X13278544Y-12692460D02*
X13269020Y-12644841D01*
X13269020Y-12644841D02*
X13269020Y-12606746D01*
X13269020Y-12606746D02*
X13278544Y-12559127D01*
X13278544Y-12559127D02*
X13288068Y-12530555D01*
X13288068Y-12530555D02*
X13297591Y-12511508D01*
X13297591Y-12511508D02*
X13316639Y-12482936D01*
X13316639Y-12482936D02*
X13326163Y-12473412D01*
X13488068Y-12568650D02*
X13488068Y-12701984D01*
X13440448Y-12492460D02*
X13392829Y-12635317D01*
X13392829Y-12635317D02*
X13516639Y-12635317D01*
X13745210Y-12701984D02*
X13745210Y-12501984D01*
X13830925Y-12701984D02*
X13830925Y-12597222D01*
X13830925Y-12597222D02*
X13821401Y-12578174D01*
X13821401Y-12578174D02*
X13802353Y-12568650D01*
X13802353Y-12568650D02*
X13773782Y-12568650D01*
X13773782Y-12568650D02*
X13754734Y-12578174D01*
X13754734Y-12578174D02*
X13745210Y-12587698D01*
X13954734Y-12701984D02*
X13935687Y-12692460D01*
X13935687Y-12692460D02*
X13926163Y-12682936D01*
X13926163Y-12682936D02*
X13916639Y-12663888D01*
X13916639Y-12663888D02*
X13916639Y-12606746D01*
X13916639Y-12606746D02*
X13926163Y-12587698D01*
X13926163Y-12587698D02*
X13935687Y-12578174D01*
X13935687Y-12578174D02*
X13954734Y-12568650D01*
X13954734Y-12568650D02*
X13983306Y-12568650D01*
X13983306Y-12568650D02*
X14002353Y-12578174D01*
X14002353Y-12578174D02*
X14011877Y-12587698D01*
X14011877Y-12587698D02*
X14021401Y-12606746D01*
X14021401Y-12606746D02*
X14021401Y-12663888D01*
X14021401Y-12663888D02*
X14011877Y-12682936D01*
X14011877Y-12682936D02*
X14002353Y-12692460D01*
X14002353Y-12692460D02*
X13983306Y-12701984D01*
X13983306Y-12701984D02*
X13954734Y-12701984D01*
X14135687Y-12701984D02*
X14116639Y-12692460D01*
X14116639Y-12692460D02*
X14107115Y-12673412D01*
X14107115Y-12673412D02*
X14107115Y-12501984D01*
X14288068Y-12692460D02*
X14269020Y-12701984D01*
X14269020Y-12701984D02*
X14230925Y-12701984D01*
X14230925Y-12701984D02*
X14211877Y-12692460D01*
X14211877Y-12692460D02*
X14202353Y-12673412D01*
X14202353Y-12673412D02*
X14202353Y-12597222D01*
X14202353Y-12597222D02*
X14211877Y-12578174D01*
X14211877Y-12578174D02*
X14230925Y-12568650D01*
X14230925Y-12568650D02*
X14269020Y-12568650D01*
X14269020Y-12568650D02*
X14288068Y-12578174D01*
X14288068Y-12578174D02*
X14297591Y-12597222D01*
X14297591Y-12597222D02*
X14297591Y-12616269D01*
X14297591Y-12616269D02*
X14202353Y-12635317D01*
X14373782Y-12692460D02*
X14392830Y-12701984D01*
X14392830Y-12701984D02*
X14430925Y-12701984D01*
X14430925Y-12701984D02*
X14449972Y-12692460D01*
X14449972Y-12692460D02*
X14459496Y-12673412D01*
X14459496Y-12673412D02*
X14459496Y-12663888D01*
X14459496Y-12663888D02*
X14449972Y-12644841D01*
X14449972Y-12644841D02*
X14430925Y-12635317D01*
X14430925Y-12635317D02*
X14402353Y-12635317D01*
X14402353Y-12635317D02*
X14383306Y-12625793D01*
X14383306Y-12625793D02*
X14373782Y-12606746D01*
X14373782Y-12606746D02*
X14373782Y-12597222D01*
X14373782Y-12597222D02*
X14383306Y-12578174D01*
X14383306Y-12578174D02*
X14402353Y-12568650D01*
X14402353Y-12568650D02*
X14430925Y-12568650D01*
X14430925Y-12568650D02*
X14449972Y-12578174D01*
X14526163Y-12778174D02*
X14535687Y-12768650D01*
X14535687Y-12768650D02*
X14554734Y-12740079D01*
X14554734Y-12740079D02*
X14564258Y-12721031D01*
X14564258Y-12721031D02*
X14573782Y-12692460D01*
X14573782Y-12692460D02*
X14583306Y-12644841D01*
X14583306Y-12644841D02*
X14583306Y-12606746D01*
X14583306Y-12606746D02*
X14573782Y-12559127D01*
X14573782Y-12559127D02*
X14564258Y-12530555D01*
X14564258Y-12530555D02*
X14554734Y-12511508D01*
X14554734Y-12511508D02*
X14535687Y-12482936D01*
X14535687Y-12482936D02*
X14526163Y-12473412D01*
M02*
