%TF.GenerationSoftware,KiCad,Pcbnew,8.0.5*%
%TF.CreationDate,2025-06-23T12:16:39+02:00*%
%TF.ProjectId,SMD-Loetstation_v3,534d442d-4c6f-4657-9473-746174696f6e,rev?*%
%TF.SameCoordinates,Original*%
%TF.FileFunction,Soldermask,Top*%
%TF.FilePolarity,Negative*%
%FSLAX46Y46*%
G04 Gerber Fmt 4.6, Leading zero omitted, Abs format (unit mm)*
G04 Created by KiCad (PCBNEW 8.0.5) date 2025-06-23 12:16:39*
%MOMM*%
%LPD*%
G01*
G04 APERTURE LIST*
G04 Aperture macros list*
%AMRoundRect*
0 Rectangle with rounded corners*
0 $1 Rounding radius*
0 $2 $3 $4 $5 $6 $7 $8 $9 X,Y pos of 4 corners*
0 Add a 4 corners polygon primitive as box body*
4,1,4,$2,$3,$4,$5,$6,$7,$8,$9,$2,$3,0*
0 Add four circle primitives for the rounded corners*
1,1,$1+$1,$2,$3*
1,1,$1+$1,$4,$5*
1,1,$1+$1,$6,$7*
1,1,$1+$1,$8,$9*
0 Add four rect primitives between the rounded corners*
20,1,$1+$1,$2,$3,$4,$5,0*
20,1,$1+$1,$4,$5,$6,$7,0*
20,1,$1+$1,$6,$7,$8,$9,0*
20,1,$1+$1,$8,$9,$2,$3,0*%
G04 Aperture macros list end*
%ADD10RoundRect,0.250000X0.450000X-0.350000X0.450000X0.350000X-0.450000X0.350000X-0.450000X-0.350000X0*%
%ADD11RoundRect,0.250000X0.337500X0.475000X-0.337500X0.475000X-0.337500X-0.475000X0.337500X-0.475000X0*%
%ADD12RoundRect,0.250000X-0.350000X-0.450000X0.350000X-0.450000X0.350000X0.450000X-0.350000X0.450000X0*%
%ADD13RoundRect,0.250000X-0.450000X0.350000X-0.450000X-0.350000X0.450000X-0.350000X0.450000X0.350000X0*%
%ADD14C,5.000000*%
%ADD15R,1.700000X1.700000*%
%ADD16O,1.700000X1.700000*%
%ADD17RoundRect,0.150000X0.587500X0.150000X-0.587500X0.150000X-0.587500X-0.150000X0.587500X-0.150000X0*%
%ADD18RoundRect,0.200000X0.750000X0.200000X-0.750000X0.200000X-0.750000X-0.200000X0.750000X-0.200000X0*%
%ADD19RoundRect,0.150000X-0.150000X0.825000X-0.150000X-0.825000X0.150000X-0.825000X0.150000X0.825000X0*%
%ADD20RoundRect,0.250000X0.600000X0.750000X-0.600000X0.750000X-0.600000X-0.750000X0.600000X-0.750000X0*%
%ADD21O,1.700000X2.000000*%
%ADD22RoundRect,0.250000X0.475000X-0.337500X0.475000X0.337500X-0.475000X0.337500X-0.475000X-0.337500X0*%
%ADD23RoundRect,0.150000X-0.725000X-0.150000X0.725000X-0.150000X0.725000X0.150000X-0.725000X0.150000X0*%
%ADD24RoundRect,0.250000X-0.337500X-0.475000X0.337500X-0.475000X0.337500X0.475000X-0.337500X0.475000X0*%
%ADD25RoundRect,0.250000X0.350000X0.450000X-0.350000X0.450000X-0.350000X-0.450000X0.350000X-0.450000X0*%
%ADD26RoundRect,0.243750X-0.456250X0.243750X-0.456250X-0.243750X0.456250X-0.243750X0.456250X0.243750X0*%
%ADD27RoundRect,0.102000X-1.000000X-1.800000X1.000000X-1.800000X1.000000X1.800000X-1.000000X1.800000X0*%
%ADD28RoundRect,0.150000X-0.825000X-0.150000X0.825000X-0.150000X0.825000X0.150000X-0.825000X0.150000X0*%
%ADD29RoundRect,0.250000X0.600000X0.725000X-0.600000X0.725000X-0.600000X-0.725000X0.600000X-0.725000X0*%
%ADD30O,1.700000X1.950000*%
%ADD31R,2.000000X2.000000*%
G04 APERTURE END LIST*
D10*
%TO.C,R12*%
X139217400Y-86664800D03*
X139217400Y-84664800D03*
%TD*%
D11*
%TO.C,C3*%
X132863500Y-88138000D03*
X130788500Y-88138000D03*
%TD*%
D10*
%TO.C,R3*%
X125755400Y-101771200D03*
X125755400Y-99771200D03*
%TD*%
D12*
%TO.C,R10*%
X163379400Y-87814400D03*
X165379400Y-87814400D03*
%TD*%
D13*
%TO.C,R15*%
X104343200Y-84718600D03*
X104343200Y-86718600D03*
%TD*%
D11*
%TO.C,C5*%
X158226400Y-90849800D03*
X156151400Y-90849800D03*
%TD*%
D14*
%TO.C,H1*%
X106197400Y-78695800D03*
%TD*%
D13*
%TO.C,R17*%
X104343200Y-88627200D03*
X104343200Y-90627200D03*
%TD*%
%TO.C,R18*%
X136042400Y-84671400D03*
X136042400Y-86671400D03*
%TD*%
D15*
%TO.C,J2*%
X157962600Y-107308900D03*
D16*
X160502600Y-107308900D03*
X163042600Y-107308900D03*
X165582600Y-107308900D03*
%TD*%
D13*
%TO.C,R4*%
X122707400Y-94980200D03*
X122707400Y-96980200D03*
%TD*%
D10*
%TO.C,R21*%
X113080800Y-88579200D03*
X113080800Y-86579200D03*
%TD*%
%TO.C,R5*%
X130962400Y-96970600D03*
X130962400Y-94970600D03*
%TD*%
D17*
%TO.C,Q2*%
X127884400Y-96977200D03*
X127884400Y-95077200D03*
X126009400Y-96027200D03*
%TD*%
D10*
%TO.C,R19*%
X122707400Y-101803200D03*
X122707400Y-99803200D03*
%TD*%
D15*
%TO.C,J8*%
X161569400Y-75139800D03*
D16*
X161569400Y-77679800D03*
%TD*%
D15*
%TO.C,J4*%
X146100800Y-75082400D03*
D16*
X143560800Y-75082400D03*
%TD*%
D14*
%TO.C,H3*%
X106197400Y-104603800D03*
%TD*%
D15*
%TO.C,J7*%
X156108400Y-75139800D03*
D16*
X156108400Y-77679800D03*
X153568400Y-75139800D03*
X153568400Y-77679800D03*
X151028400Y-75139800D03*
X151028400Y-77679800D03*
%TD*%
D18*
%TO.C,U6*%
X116306600Y-83897800D03*
X116306600Y-81997800D03*
X113306600Y-82947800D03*
%TD*%
D19*
%TO.C,U5*%
X110591600Y-93827600D03*
X109321600Y-93827600D03*
X108051600Y-93827600D03*
X106781600Y-93827600D03*
X106781600Y-98777600D03*
X108051600Y-98777600D03*
X109321600Y-98777600D03*
X110591600Y-98777600D03*
%TD*%
D20*
%TO.C,J1*%
X117373400Y-77171800D03*
D21*
X114873400Y-77171800D03*
%TD*%
D22*
%TO.C,C1*%
X122961400Y-88496300D03*
X122961400Y-86421300D03*
%TD*%
D23*
%TO.C,U2*%
X127203200Y-81616800D03*
X127203200Y-82886800D03*
X127203200Y-84156800D03*
X127203200Y-85426800D03*
X132353200Y-85426800D03*
X132353200Y-84156800D03*
X132353200Y-82886800D03*
X132353200Y-81616800D03*
%TD*%
D14*
%TO.C,H2*%
X171221400Y-104095800D03*
%TD*%
D24*
%TO.C,C4*%
X156151400Y-87839800D03*
X158226400Y-87839800D03*
%TD*%
D25*
%TO.C,R8*%
X165379400Y-90811600D03*
X163379400Y-90811600D03*
%TD*%
D19*
%TO.C,Q1*%
X118600000Y-94298400D03*
X117330000Y-94298400D03*
X116060000Y-94298400D03*
X114790000Y-94298400D03*
X114790000Y-99248400D03*
X116060000Y-99248400D03*
X117330000Y-99248400D03*
X118600000Y-99248400D03*
%TD*%
D15*
%TO.C,J10*%
X101523800Y-87117000D03*
D16*
X101523800Y-89657000D03*
%TD*%
D25*
%TO.C,R9*%
X165347400Y-93910400D03*
X163347400Y-93910400D03*
%TD*%
D10*
%TO.C,R14*%
X130962400Y-101720400D03*
X130962400Y-99720400D03*
%TD*%
D13*
%TO.C,R20*%
X101498400Y-97161600D03*
X101498400Y-99161600D03*
%TD*%
D10*
%TO.C,R7*%
X164058600Y-103809800D03*
X164058600Y-101809800D03*
%TD*%
D24*
%TO.C,C7*%
X118752800Y-81997800D03*
X120827800Y-81997800D03*
%TD*%
D12*
%TO.C,R2*%
X126762000Y-88138000D03*
X128762000Y-88138000D03*
%TD*%
D10*
%TO.C,R1*%
X122961400Y-83870800D03*
X122961400Y-81870800D03*
%TD*%
D26*
%TO.C,D1*%
X134366000Y-99872800D03*
X134366000Y-101747800D03*
%TD*%
D13*
%TO.C,R16*%
X104317800Y-97161600D03*
X104317800Y-99161600D03*
%TD*%
D25*
%TO.C,R11*%
X165372800Y-84766400D03*
X163372800Y-84766400D03*
%TD*%
D22*
%TO.C,C8*%
X104317800Y-95274200D03*
X104317800Y-93199200D03*
%TD*%
D26*
%TO.C,D2*%
X101473000Y-93474300D03*
X101473000Y-95349300D03*
%TD*%
D27*
%TO.C,D3*%
X129384000Y-76835000D03*
X122584000Y-76835000D03*
%TD*%
D22*
%TO.C,C6*%
X118897400Y-85977800D03*
X118897400Y-83902800D03*
%TD*%
D15*
%TO.C,J3*%
X139578000Y-75057000D03*
D16*
X137038000Y-75057000D03*
%TD*%
D19*
%TO.C,U4*%
X110617000Y-85090000D03*
X109347000Y-85090000D03*
X108077000Y-85090000D03*
X106807000Y-85090000D03*
X106807000Y-90040000D03*
X108077000Y-90040000D03*
X109347000Y-90040000D03*
X110617000Y-90040000D03*
%TD*%
D28*
%TO.C,U1*%
X144627600Y-84683600D03*
X144627600Y-85953600D03*
X144627600Y-87223600D03*
X144627600Y-88493600D03*
X144627600Y-89763600D03*
X144627600Y-91033600D03*
X144627600Y-92303600D03*
X149577600Y-92303600D03*
X149577600Y-91033600D03*
X149577600Y-89763600D03*
X149577600Y-88493600D03*
X149577600Y-87223600D03*
X149577600Y-85953600D03*
X149577600Y-84683600D03*
%TD*%
D15*
%TO.C,J5*%
X171094400Y-95840800D03*
D16*
X171094400Y-93300800D03*
X171094400Y-90760800D03*
X171094400Y-88220800D03*
X171094400Y-85680800D03*
%TD*%
D10*
%TO.C,R6*%
X166344600Y-103809800D03*
X166344600Y-101809800D03*
%TD*%
D14*
%TO.C,H4*%
X171221400Y-78695800D03*
%TD*%
D12*
%TO.C,R13*%
X156167400Y-93935800D03*
X158167400Y-93935800D03*
%TD*%
D29*
%TO.C,J6*%
X125740800Y-107010200D03*
D30*
X123240800Y-107010200D03*
X120740800Y-107010200D03*
X118240800Y-107010200D03*
X115740800Y-107010200D03*
%TD*%
D31*
%TO.C,GND*%
X132588000Y-75057000D03*
%TD*%
D24*
%TO.C,C2*%
X156108400Y-84791800D03*
X158183400Y-84791800D03*
%TD*%
D15*
%TO.C,J9*%
X160502600Y-102876600D03*
D16*
X157962600Y-102876600D03*
X160502600Y-100336600D03*
X157962600Y-100336600D03*
%TD*%
M02*
