M48
; DRILL file {KiCad 8.0.1} date 2024-10-14T21:16:16+0200
; FORMAT={-:-/ absolute / inch / decimal}
; #@! TF.CreationDate,2024-10-14T21:16:16+02:00
; #@! TF.GenerationSoftware,Kicad,Pcbnew,8.0.1
; #@! TF.FileFunction,Plated,1,2,PTH
FMAT,2
INCH
; #@! TA.AperFunction,Plated,PTH,ViaDrill
T1C0.0118
; #@! TA.AperFunction,Plated,PTH,ComponentDrill
T2C0.0315
; #@! TA.AperFunction,Plated,PTH,ComponentDrill
T3C0.0374
; #@! TA.AperFunction,Plated,PTH,ComponentDrill
T4C0.0394
; #@! TA.AperFunction,Plated,PTH,ComponentDrill
T5C0.0984
%
G90
G05
T1
X4.205Y-3.783
X4.206Y-3.724
X4.633Y-3.2273
X4.831Y-4.0281
X5.063Y-3.3133
X5.151Y-3.9493
X5.152Y-3.2633
X5.74Y-3.7343
X5.783Y-3.7353
X5.891Y-3.4743
X6.112Y-3.7743
X6.253Y-3.0563
X6.293Y-3.3963
X6.37Y-3.6983
X6.371Y-3.3953
X6.3715Y-3.5888
X6.459Y-4.0373
T2
X5.2923Y-2.9473
X5.371Y-2.9473
X5.521Y-2.9473
X5.5997Y-2.9473
X5.661Y-3.3233
X5.661Y-3.4233
X5.661Y-3.5233
X5.661Y-3.6233
X5.661Y-3.7233
X5.661Y-3.8233
X5.661Y-3.9233
X5.961Y-3.3233
X5.961Y-3.4233
X5.961Y-3.5233
X5.961Y-3.6233
X5.961Y-3.7233
X5.961Y-3.8233
X5.961Y-3.9233
T3
X4.5567Y-4.2263
X4.6551Y-4.2263
X4.7536Y-4.2263
X4.852Y-4.2263
X4.9504Y-4.2263
T4
X3.997Y-3.4298
X3.997Y-3.5298
X4.5226Y-3.0383
X4.621Y-3.0383
X5.946Y-2.9583
X5.946Y-3.0583
X6.046Y-2.9583
X6.046Y-3.0583
X6.146Y-2.9583
X6.146Y-3.0583
X6.219Y-3.9503
X6.219Y-4.0503
X6.219Y-4.2248
X6.319Y-3.9503
X6.319Y-4.0503
X6.319Y-4.2248
X6.361Y-2.9583
X6.361Y-3.0583
X6.419Y-4.2248
X6.519Y-4.2248
X6.736Y-3.3733
X6.736Y-3.4733
X6.736Y-3.5733
X6.736Y-3.6733
X6.736Y-3.7733
T5
X4.181Y-3.0983
X4.181Y-4.1183
X6.741Y-3.0983
X6.741Y-4.0983
M30
