%TF.GenerationSoftware,KiCad,Pcbnew,8.0.1*%
%TF.CreationDate,2024-10-14T21:16:12+02:00*%
%TF.ProjectId,SMD-Loetstation,534d442d-4c6f-4657-9473-746174696f6e,rev?*%
%TF.SameCoordinates,Original*%
%TF.FileFunction,Legend,Bot*%
%TF.FilePolarity,Positive*%
%FSLAX46Y46*%
G04 Gerber Fmt 4.6, Leading zero omitted, Abs format (unit mm)*
G04 Created by KiCad (PCBNEW 8.0.1) date 2024-10-14 21:16:12*
%MOMM*%
%LPD*%
G01*
G04 APERTURE LIST*
%ADD10C,0.200000*%
%ADD11C,0.100000*%
%ADD12C,0.125000*%
%ADD13C,0.000000*%
%ADD14C,0.127000*%
G04 APERTURE END LIST*
D10*
X147687586Y-107758695D02*
X147687586Y-106958695D01*
X147687586Y-106958695D02*
X147497110Y-106958695D01*
X147497110Y-106958695D02*
X147382824Y-106996790D01*
X147382824Y-106996790D02*
X147306634Y-107072980D01*
X147306634Y-107072980D02*
X147268539Y-107149171D01*
X147268539Y-107149171D02*
X147230443Y-107301552D01*
X147230443Y-107301552D02*
X147230443Y-107415838D01*
X147230443Y-107415838D02*
X147268539Y-107568219D01*
X147268539Y-107568219D02*
X147306634Y-107644409D01*
X147306634Y-107644409D02*
X147382824Y-107720600D01*
X147382824Y-107720600D02*
X147497110Y-107758695D01*
X147497110Y-107758695D02*
X147687586Y-107758695D01*
X146887586Y-107758695D02*
X146887586Y-107225361D01*
X146887586Y-106958695D02*
X146925682Y-106996790D01*
X146925682Y-106996790D02*
X146887586Y-107034885D01*
X146887586Y-107034885D02*
X146849491Y-106996790D01*
X146849491Y-106996790D02*
X146887586Y-106958695D01*
X146887586Y-106958695D02*
X146887586Y-107034885D01*
X146163777Y-107225361D02*
X146163777Y-107872980D01*
X146163777Y-107872980D02*
X146201872Y-107949171D01*
X146201872Y-107949171D02*
X146239968Y-107987266D01*
X146239968Y-107987266D02*
X146316158Y-108025361D01*
X146316158Y-108025361D02*
X146430444Y-108025361D01*
X146430444Y-108025361D02*
X146506634Y-107987266D01*
X146163777Y-107720600D02*
X146239968Y-107758695D01*
X146239968Y-107758695D02*
X146392349Y-107758695D01*
X146392349Y-107758695D02*
X146468539Y-107720600D01*
X146468539Y-107720600D02*
X146506634Y-107682504D01*
X146506634Y-107682504D02*
X146544730Y-107606314D01*
X146544730Y-107606314D02*
X146544730Y-107377742D01*
X146544730Y-107377742D02*
X146506634Y-107301552D01*
X146506634Y-107301552D02*
X146468539Y-107263457D01*
X146468539Y-107263457D02*
X146392349Y-107225361D01*
X146392349Y-107225361D02*
X146239968Y-107225361D01*
X146239968Y-107225361D02*
X146163777Y-107263457D01*
X145782824Y-107758695D02*
X145782824Y-107225361D01*
X145782824Y-106958695D02*
X145820920Y-106996790D01*
X145820920Y-106996790D02*
X145782824Y-107034885D01*
X145782824Y-107034885D02*
X145744729Y-106996790D01*
X145744729Y-106996790D02*
X145782824Y-106958695D01*
X145782824Y-106958695D02*
X145782824Y-107034885D01*
X145516158Y-107225361D02*
X145211396Y-107225361D01*
X145401872Y-106958695D02*
X145401872Y-107644409D01*
X145401872Y-107644409D02*
X145363777Y-107720600D01*
X145363777Y-107720600D02*
X145287587Y-107758695D01*
X145287587Y-107758695D02*
X145211396Y-107758695D01*
X144601872Y-107758695D02*
X144601872Y-107339647D01*
X144601872Y-107339647D02*
X144639967Y-107263457D01*
X144639967Y-107263457D02*
X144716158Y-107225361D01*
X144716158Y-107225361D02*
X144868539Y-107225361D01*
X144868539Y-107225361D02*
X144944729Y-107263457D01*
X144601872Y-107720600D02*
X144678063Y-107758695D01*
X144678063Y-107758695D02*
X144868539Y-107758695D01*
X144868539Y-107758695D02*
X144944729Y-107720600D01*
X144944729Y-107720600D02*
X144982825Y-107644409D01*
X144982825Y-107644409D02*
X144982825Y-107568219D01*
X144982825Y-107568219D02*
X144944729Y-107492028D01*
X144944729Y-107492028D02*
X144868539Y-107453933D01*
X144868539Y-107453933D02*
X144678063Y-107453933D01*
X144678063Y-107453933D02*
X144601872Y-107415838D01*
X144106634Y-107758695D02*
X144182824Y-107720600D01*
X144182824Y-107720600D02*
X144220919Y-107644409D01*
X144220919Y-107644409D02*
X144220919Y-106958695D01*
X143497109Y-107720600D02*
X143573300Y-107758695D01*
X143573300Y-107758695D02*
X143725681Y-107758695D01*
X143725681Y-107758695D02*
X143801871Y-107720600D01*
X143801871Y-107720600D02*
X143839967Y-107644409D01*
X143839967Y-107644409D02*
X143839967Y-107339647D01*
X143839967Y-107339647D02*
X143801871Y-107263457D01*
X143801871Y-107263457D02*
X143725681Y-107225361D01*
X143725681Y-107225361D02*
X143573300Y-107225361D01*
X143573300Y-107225361D02*
X143497109Y-107263457D01*
X143497109Y-107263457D02*
X143459014Y-107339647D01*
X143459014Y-107339647D02*
X143459014Y-107415838D01*
X143459014Y-107415838D02*
X143839967Y-107492028D01*
X142125681Y-107758695D02*
X142506633Y-107758695D01*
X142506633Y-107758695D02*
X142506633Y-106958695D01*
X141744729Y-107758695D02*
X141820919Y-107720600D01*
X141820919Y-107720600D02*
X141859014Y-107682504D01*
X141859014Y-107682504D02*
X141897110Y-107606314D01*
X141897110Y-107606314D02*
X141897110Y-107377742D01*
X141897110Y-107377742D02*
X141859014Y-107301552D01*
X141859014Y-107301552D02*
X141820919Y-107263457D01*
X141820919Y-107263457D02*
X141744729Y-107225361D01*
X141744729Y-107225361D02*
X141630443Y-107225361D01*
X141630443Y-107225361D02*
X141554252Y-107263457D01*
X141554252Y-107263457D02*
X141516157Y-107301552D01*
X141516157Y-107301552D02*
X141478062Y-107377742D01*
X141478062Y-107377742D02*
X141478062Y-107606314D01*
X141478062Y-107606314D02*
X141516157Y-107682504D01*
X141516157Y-107682504D02*
X141554252Y-107720600D01*
X141554252Y-107720600D02*
X141630443Y-107758695D01*
X141630443Y-107758695D02*
X141744729Y-107758695D01*
X140830442Y-107720600D02*
X140906633Y-107758695D01*
X140906633Y-107758695D02*
X141059014Y-107758695D01*
X141059014Y-107758695D02*
X141135204Y-107720600D01*
X141135204Y-107720600D02*
X141173300Y-107644409D01*
X141173300Y-107644409D02*
X141173300Y-107339647D01*
X141173300Y-107339647D02*
X141135204Y-107263457D01*
X141135204Y-107263457D02*
X141059014Y-107225361D01*
X141059014Y-107225361D02*
X140906633Y-107225361D01*
X140906633Y-107225361D02*
X140830442Y-107263457D01*
X140830442Y-107263457D02*
X140792347Y-107339647D01*
X140792347Y-107339647D02*
X140792347Y-107415838D01*
X140792347Y-107415838D02*
X141173300Y-107492028D01*
X140563776Y-107225361D02*
X140259014Y-107225361D01*
X140449490Y-106958695D02*
X140449490Y-107644409D01*
X140449490Y-107644409D02*
X140411395Y-107720600D01*
X140411395Y-107720600D02*
X140335205Y-107758695D01*
X140335205Y-107758695D02*
X140259014Y-107758695D01*
X140030443Y-107720600D02*
X139954252Y-107758695D01*
X139954252Y-107758695D02*
X139801871Y-107758695D01*
X139801871Y-107758695D02*
X139725681Y-107720600D01*
X139725681Y-107720600D02*
X139687585Y-107644409D01*
X139687585Y-107644409D02*
X139687585Y-107606314D01*
X139687585Y-107606314D02*
X139725681Y-107530123D01*
X139725681Y-107530123D02*
X139801871Y-107492028D01*
X139801871Y-107492028D02*
X139916157Y-107492028D01*
X139916157Y-107492028D02*
X139992347Y-107453933D01*
X139992347Y-107453933D02*
X140030443Y-107377742D01*
X140030443Y-107377742D02*
X140030443Y-107339647D01*
X140030443Y-107339647D02*
X139992347Y-107263457D01*
X139992347Y-107263457D02*
X139916157Y-107225361D01*
X139916157Y-107225361D02*
X139801871Y-107225361D01*
X139801871Y-107225361D02*
X139725681Y-107263457D01*
X139459014Y-107225361D02*
X139154252Y-107225361D01*
X139344728Y-106958695D02*
X139344728Y-107644409D01*
X139344728Y-107644409D02*
X139306633Y-107720600D01*
X139306633Y-107720600D02*
X139230443Y-107758695D01*
X139230443Y-107758695D02*
X139154252Y-107758695D01*
X138544728Y-107758695D02*
X138544728Y-107339647D01*
X138544728Y-107339647D02*
X138582823Y-107263457D01*
X138582823Y-107263457D02*
X138659014Y-107225361D01*
X138659014Y-107225361D02*
X138811395Y-107225361D01*
X138811395Y-107225361D02*
X138887585Y-107263457D01*
X138544728Y-107720600D02*
X138620919Y-107758695D01*
X138620919Y-107758695D02*
X138811395Y-107758695D01*
X138811395Y-107758695D02*
X138887585Y-107720600D01*
X138887585Y-107720600D02*
X138925681Y-107644409D01*
X138925681Y-107644409D02*
X138925681Y-107568219D01*
X138925681Y-107568219D02*
X138887585Y-107492028D01*
X138887585Y-107492028D02*
X138811395Y-107453933D01*
X138811395Y-107453933D02*
X138620919Y-107453933D01*
X138620919Y-107453933D02*
X138544728Y-107415838D01*
X138278061Y-107225361D02*
X137973299Y-107225361D01*
X138163775Y-106958695D02*
X138163775Y-107644409D01*
X138163775Y-107644409D02*
X138125680Y-107720600D01*
X138125680Y-107720600D02*
X138049490Y-107758695D01*
X138049490Y-107758695D02*
X137973299Y-107758695D01*
X137706632Y-107758695D02*
X137706632Y-107225361D01*
X137706632Y-106958695D02*
X137744728Y-106996790D01*
X137744728Y-106996790D02*
X137706632Y-107034885D01*
X137706632Y-107034885D02*
X137668537Y-106996790D01*
X137668537Y-106996790D02*
X137706632Y-106958695D01*
X137706632Y-106958695D02*
X137706632Y-107034885D01*
X137211395Y-107758695D02*
X137287585Y-107720600D01*
X137287585Y-107720600D02*
X137325680Y-107682504D01*
X137325680Y-107682504D02*
X137363776Y-107606314D01*
X137363776Y-107606314D02*
X137363776Y-107377742D01*
X137363776Y-107377742D02*
X137325680Y-107301552D01*
X137325680Y-107301552D02*
X137287585Y-107263457D01*
X137287585Y-107263457D02*
X137211395Y-107225361D01*
X137211395Y-107225361D02*
X137097109Y-107225361D01*
X137097109Y-107225361D02*
X137020918Y-107263457D01*
X137020918Y-107263457D02*
X136982823Y-107301552D01*
X136982823Y-107301552D02*
X136944728Y-107377742D01*
X136944728Y-107377742D02*
X136944728Y-107606314D01*
X136944728Y-107606314D02*
X136982823Y-107682504D01*
X136982823Y-107682504D02*
X137020918Y-107720600D01*
X137020918Y-107720600D02*
X137097109Y-107758695D01*
X137097109Y-107758695D02*
X137211395Y-107758695D01*
X136601870Y-107225361D02*
X136601870Y-107758695D01*
X136601870Y-107301552D02*
X136563775Y-107263457D01*
X136563775Y-107263457D02*
X136487585Y-107225361D01*
X136487585Y-107225361D02*
X136373299Y-107225361D01*
X136373299Y-107225361D02*
X136297108Y-107263457D01*
X136297108Y-107263457D02*
X136259013Y-107339647D01*
X136259013Y-107339647D02*
X136259013Y-107758695D01*
X148639967Y-109046650D02*
X148639967Y-108246650D01*
X148639967Y-108551412D02*
X148563777Y-108513316D01*
X148563777Y-108513316D02*
X148411396Y-108513316D01*
X148411396Y-108513316D02*
X148335205Y-108551412D01*
X148335205Y-108551412D02*
X148297110Y-108589507D01*
X148297110Y-108589507D02*
X148259015Y-108665697D01*
X148259015Y-108665697D02*
X148259015Y-108894269D01*
X148259015Y-108894269D02*
X148297110Y-108970459D01*
X148297110Y-108970459D02*
X148335205Y-109008555D01*
X148335205Y-109008555D02*
X148411396Y-109046650D01*
X148411396Y-109046650D02*
X148563777Y-109046650D01*
X148563777Y-109046650D02*
X148639967Y-109008555D01*
X147992348Y-108513316D02*
X147801872Y-109046650D01*
X147611395Y-108513316D02*
X147801872Y-109046650D01*
X147801872Y-109046650D02*
X147878062Y-109237126D01*
X147878062Y-109237126D02*
X147916157Y-109275221D01*
X147916157Y-109275221D02*
X147992348Y-109313316D01*
X146544728Y-108246650D02*
X146392347Y-108246650D01*
X146392347Y-108246650D02*
X146316157Y-108284745D01*
X146316157Y-108284745D02*
X146239966Y-108360935D01*
X146239966Y-108360935D02*
X146201871Y-108513316D01*
X146201871Y-108513316D02*
X146201871Y-108779983D01*
X146201871Y-108779983D02*
X146239966Y-108932364D01*
X146239966Y-108932364D02*
X146316157Y-109008555D01*
X146316157Y-109008555D02*
X146392347Y-109046650D01*
X146392347Y-109046650D02*
X146544728Y-109046650D01*
X146544728Y-109046650D02*
X146620919Y-109008555D01*
X146620919Y-109008555D02*
X146697109Y-108932364D01*
X146697109Y-108932364D02*
X146735205Y-108779983D01*
X146735205Y-108779983D02*
X146735205Y-108513316D01*
X146735205Y-108513316D02*
X146697109Y-108360935D01*
X146697109Y-108360935D02*
X146620919Y-108284745D01*
X146620919Y-108284745D02*
X146544728Y-108246650D01*
X145859014Y-108627602D02*
X145592348Y-108627602D01*
X145478062Y-109046650D02*
X145859014Y-109046650D01*
X145859014Y-109046650D02*
X145859014Y-108246650D01*
X145859014Y-108246650D02*
X145478062Y-108246650D01*
X144716157Y-109046650D02*
X145173300Y-109046650D01*
X144944728Y-109046650D02*
X144944728Y-108246650D01*
X144944728Y-108246650D02*
X145020919Y-108360935D01*
X145020919Y-108360935D02*
X145097109Y-108437126D01*
X145097109Y-108437126D02*
X145173300Y-108475221D01*
X143916156Y-108970459D02*
X143954252Y-109008555D01*
X143954252Y-109008555D02*
X144068537Y-109046650D01*
X144068537Y-109046650D02*
X144144728Y-109046650D01*
X144144728Y-109046650D02*
X144259014Y-109008555D01*
X144259014Y-109008555D02*
X144335204Y-108932364D01*
X144335204Y-108932364D02*
X144373299Y-108856174D01*
X144373299Y-108856174D02*
X144411395Y-108703793D01*
X144411395Y-108703793D02*
X144411395Y-108589507D01*
X144411395Y-108589507D02*
X144373299Y-108437126D01*
X144373299Y-108437126D02*
X144335204Y-108360935D01*
X144335204Y-108360935D02*
X144259014Y-108284745D01*
X144259014Y-108284745D02*
X144144728Y-108246650D01*
X144144728Y-108246650D02*
X144068537Y-108246650D01*
X144068537Y-108246650D02*
X143954252Y-108284745D01*
X143954252Y-108284745D02*
X143916156Y-108322840D01*
X143154252Y-108284745D02*
X143230442Y-108246650D01*
X143230442Y-108246650D02*
X143344728Y-108246650D01*
X143344728Y-108246650D02*
X143459014Y-108284745D01*
X143459014Y-108284745D02*
X143535204Y-108360935D01*
X143535204Y-108360935D02*
X143573299Y-108437126D01*
X143573299Y-108437126D02*
X143611395Y-108589507D01*
X143611395Y-108589507D02*
X143611395Y-108703793D01*
X143611395Y-108703793D02*
X143573299Y-108856174D01*
X143573299Y-108856174D02*
X143535204Y-108932364D01*
X143535204Y-108932364D02*
X143459014Y-109008555D01*
X143459014Y-109008555D02*
X143344728Y-109046650D01*
X143344728Y-109046650D02*
X143268537Y-109046650D01*
X143268537Y-109046650D02*
X143154252Y-109008555D01*
X143154252Y-109008555D02*
X143116156Y-108970459D01*
X143116156Y-108970459D02*
X143116156Y-108703793D01*
X143116156Y-108703793D02*
X143268537Y-108703793D01*
X142811395Y-109008555D02*
X142697109Y-109046650D01*
X142697109Y-109046650D02*
X142506633Y-109046650D01*
X142506633Y-109046650D02*
X142430442Y-109008555D01*
X142430442Y-109008555D02*
X142392347Y-108970459D01*
X142392347Y-108970459D02*
X142354252Y-108894269D01*
X142354252Y-108894269D02*
X142354252Y-108818078D01*
X142354252Y-108818078D02*
X142392347Y-108741888D01*
X142392347Y-108741888D02*
X142430442Y-108703793D01*
X142430442Y-108703793D02*
X142506633Y-108665697D01*
X142506633Y-108665697D02*
X142659014Y-108627602D01*
X142659014Y-108627602D02*
X142735204Y-108589507D01*
X142735204Y-108589507D02*
X142773299Y-108551412D01*
X142773299Y-108551412D02*
X142811395Y-108475221D01*
X142811395Y-108475221D02*
X142811395Y-108399031D01*
X142811395Y-108399031D02*
X142773299Y-108322840D01*
X142773299Y-108322840D02*
X142735204Y-108284745D01*
X142735204Y-108284745D02*
X142659014Y-108246650D01*
X142659014Y-108246650D02*
X142468537Y-108246650D01*
X142468537Y-108246650D02*
X142354252Y-108284745D01*
X140754251Y-109046650D02*
X140792347Y-109046650D01*
X140792347Y-109046650D02*
X140868537Y-109008555D01*
X140868537Y-109008555D02*
X140982823Y-108894269D01*
X140982823Y-108894269D02*
X141173299Y-108665697D01*
X141173299Y-108665697D02*
X141249489Y-108551412D01*
X141249489Y-108551412D02*
X141287585Y-108437126D01*
X141287585Y-108437126D02*
X141287585Y-108360935D01*
X141287585Y-108360935D02*
X141249489Y-108284745D01*
X141249489Y-108284745D02*
X141173299Y-108246650D01*
X141173299Y-108246650D02*
X141135204Y-108246650D01*
X141135204Y-108246650D02*
X141059013Y-108284745D01*
X141059013Y-108284745D02*
X141020918Y-108360935D01*
X141020918Y-108360935D02*
X141020918Y-108399031D01*
X141020918Y-108399031D02*
X141059013Y-108475221D01*
X141059013Y-108475221D02*
X141097108Y-108513316D01*
X141097108Y-108513316D02*
X141325680Y-108665697D01*
X141325680Y-108665697D02*
X141363775Y-108703793D01*
X141363775Y-108703793D02*
X141401870Y-108779983D01*
X141401870Y-108779983D02*
X141401870Y-108894269D01*
X141401870Y-108894269D02*
X141363775Y-108970459D01*
X141363775Y-108970459D02*
X141325680Y-109008555D01*
X141325680Y-109008555D02*
X141249489Y-109046650D01*
X141249489Y-109046650D02*
X141135204Y-109046650D01*
X141135204Y-109046650D02*
X141059013Y-109008555D01*
X141059013Y-109008555D02*
X141020918Y-108970459D01*
X141020918Y-108970459D02*
X140906632Y-108818078D01*
X140906632Y-108818078D02*
X140868537Y-108703793D01*
X140868537Y-108703793D02*
X140868537Y-108627602D01*
X139801870Y-109046650D02*
X139801870Y-108246650D01*
X139801870Y-108246650D02*
X139611394Y-108246650D01*
X139611394Y-108246650D02*
X139497108Y-108284745D01*
X139497108Y-108284745D02*
X139420918Y-108360935D01*
X139420918Y-108360935D02*
X139382823Y-108437126D01*
X139382823Y-108437126D02*
X139344727Y-108589507D01*
X139344727Y-108589507D02*
X139344727Y-108703793D01*
X139344727Y-108703793D02*
X139382823Y-108856174D01*
X139382823Y-108856174D02*
X139420918Y-108932364D01*
X139420918Y-108932364D02*
X139497108Y-109008555D01*
X139497108Y-109008555D02*
X139611394Y-109046650D01*
X139611394Y-109046650D02*
X139801870Y-109046650D01*
X138544727Y-108970459D02*
X138582823Y-109008555D01*
X138582823Y-109008555D02*
X138697108Y-109046650D01*
X138697108Y-109046650D02*
X138773299Y-109046650D01*
X138773299Y-109046650D02*
X138887585Y-109008555D01*
X138887585Y-109008555D02*
X138963775Y-108932364D01*
X138963775Y-108932364D02*
X139001870Y-108856174D01*
X139001870Y-108856174D02*
X139039966Y-108703793D01*
X139039966Y-108703793D02*
X139039966Y-108589507D01*
X139039966Y-108589507D02*
X139001870Y-108437126D01*
X139001870Y-108437126D02*
X138963775Y-108360935D01*
X138963775Y-108360935D02*
X138887585Y-108284745D01*
X138887585Y-108284745D02*
X138773299Y-108246650D01*
X138773299Y-108246650D02*
X138697108Y-108246650D01*
X138697108Y-108246650D02*
X138582823Y-108284745D01*
X138582823Y-108284745D02*
X138544727Y-108322840D01*
X138278061Y-108246650D02*
X137782823Y-108246650D01*
X137782823Y-108246650D02*
X138049489Y-108551412D01*
X138049489Y-108551412D02*
X137935204Y-108551412D01*
X137935204Y-108551412D02*
X137859013Y-108589507D01*
X137859013Y-108589507D02*
X137820918Y-108627602D01*
X137820918Y-108627602D02*
X137782823Y-108703793D01*
X137782823Y-108703793D02*
X137782823Y-108894269D01*
X137782823Y-108894269D02*
X137820918Y-108970459D01*
X137820918Y-108970459D02*
X137859013Y-109008555D01*
X137859013Y-109008555D02*
X137935204Y-109046650D01*
X137935204Y-109046650D02*
X138163775Y-109046650D01*
X138163775Y-109046650D02*
X138239966Y-109008555D01*
X138239966Y-109008555D02*
X138278061Y-108970459D01*
X137439965Y-109046650D02*
X137439965Y-108246650D01*
X137439965Y-108246650D02*
X137173299Y-108818078D01*
X137173299Y-108818078D02*
X136906632Y-108246650D01*
X136906632Y-108246650D02*
X136906632Y-109046650D01*
X136525679Y-109046650D02*
X136525679Y-108246650D01*
X136068536Y-109046650D02*
X136411394Y-108589507D01*
X136068536Y-108246650D02*
X136525679Y-108703793D01*
X135459013Y-108627602D02*
X135344727Y-108665697D01*
X135344727Y-108665697D02*
X135306632Y-108703793D01*
X135306632Y-108703793D02*
X135268536Y-108779983D01*
X135268536Y-108779983D02*
X135268536Y-108894269D01*
X135268536Y-108894269D02*
X135306632Y-108970459D01*
X135306632Y-108970459D02*
X135344727Y-109008555D01*
X135344727Y-109008555D02*
X135420917Y-109046650D01*
X135420917Y-109046650D02*
X135725679Y-109046650D01*
X135725679Y-109046650D02*
X135725679Y-108246650D01*
X135725679Y-108246650D02*
X135459013Y-108246650D01*
X135459013Y-108246650D02*
X135382822Y-108284745D01*
X135382822Y-108284745D02*
X135344727Y-108322840D01*
X135344727Y-108322840D02*
X135306632Y-108399031D01*
X135306632Y-108399031D02*
X135306632Y-108475221D01*
X135306632Y-108475221D02*
X135344727Y-108551412D01*
X135344727Y-108551412D02*
X135382822Y-108589507D01*
X135382822Y-108589507D02*
X135459013Y-108627602D01*
X135459013Y-108627602D02*
X135725679Y-108627602D01*
X149573300Y-110334605D02*
X149573300Y-109534605D01*
X149573300Y-109534605D02*
X149268538Y-109534605D01*
X149268538Y-109534605D02*
X149192348Y-109572700D01*
X149192348Y-109572700D02*
X149154253Y-109610795D01*
X149154253Y-109610795D02*
X149116157Y-109686986D01*
X149116157Y-109686986D02*
X149116157Y-109801271D01*
X149116157Y-109801271D02*
X149154253Y-109877462D01*
X149154253Y-109877462D02*
X149192348Y-109915557D01*
X149192348Y-109915557D02*
X149268538Y-109953652D01*
X149268538Y-109953652D02*
X149573300Y-109953652D01*
X148316157Y-110258414D02*
X148354253Y-110296510D01*
X148354253Y-110296510D02*
X148468538Y-110334605D01*
X148468538Y-110334605D02*
X148544729Y-110334605D01*
X148544729Y-110334605D02*
X148659015Y-110296510D01*
X148659015Y-110296510D02*
X148735205Y-110220319D01*
X148735205Y-110220319D02*
X148773300Y-110144129D01*
X148773300Y-110144129D02*
X148811396Y-109991748D01*
X148811396Y-109991748D02*
X148811396Y-109877462D01*
X148811396Y-109877462D02*
X148773300Y-109725081D01*
X148773300Y-109725081D02*
X148735205Y-109648890D01*
X148735205Y-109648890D02*
X148659015Y-109572700D01*
X148659015Y-109572700D02*
X148544729Y-109534605D01*
X148544729Y-109534605D02*
X148468538Y-109534605D01*
X148468538Y-109534605D02*
X148354253Y-109572700D01*
X148354253Y-109572700D02*
X148316157Y-109610795D01*
X147706634Y-109915557D02*
X147592348Y-109953652D01*
X147592348Y-109953652D02*
X147554253Y-109991748D01*
X147554253Y-109991748D02*
X147516157Y-110067938D01*
X147516157Y-110067938D02*
X147516157Y-110182224D01*
X147516157Y-110182224D02*
X147554253Y-110258414D01*
X147554253Y-110258414D02*
X147592348Y-110296510D01*
X147592348Y-110296510D02*
X147668538Y-110334605D01*
X147668538Y-110334605D02*
X147973300Y-110334605D01*
X147973300Y-110334605D02*
X147973300Y-109534605D01*
X147973300Y-109534605D02*
X147706634Y-109534605D01*
X147706634Y-109534605D02*
X147630443Y-109572700D01*
X147630443Y-109572700D02*
X147592348Y-109610795D01*
X147592348Y-109610795D02*
X147554253Y-109686986D01*
X147554253Y-109686986D02*
X147554253Y-109763176D01*
X147554253Y-109763176D02*
X147592348Y-109839367D01*
X147592348Y-109839367D02*
X147630443Y-109877462D01*
X147630443Y-109877462D02*
X147706634Y-109915557D01*
X147706634Y-109915557D02*
X147973300Y-109915557D01*
X146563776Y-110334605D02*
X146563776Y-109534605D01*
X146563776Y-109839367D02*
X146487586Y-109801271D01*
X146487586Y-109801271D02*
X146335205Y-109801271D01*
X146335205Y-109801271D02*
X146259014Y-109839367D01*
X146259014Y-109839367D02*
X146220919Y-109877462D01*
X146220919Y-109877462D02*
X146182824Y-109953652D01*
X146182824Y-109953652D02*
X146182824Y-110182224D01*
X146182824Y-110182224D02*
X146220919Y-110258414D01*
X146220919Y-110258414D02*
X146259014Y-110296510D01*
X146259014Y-110296510D02*
X146335205Y-110334605D01*
X146335205Y-110334605D02*
X146487586Y-110334605D01*
X146487586Y-110334605D02*
X146563776Y-110296510D01*
X145916157Y-109801271D02*
X145725681Y-110334605D01*
X145535204Y-109801271D02*
X145725681Y-110334605D01*
X145725681Y-110334605D02*
X145801871Y-110525081D01*
X145801871Y-110525081D02*
X145839966Y-110563176D01*
X145839966Y-110563176D02*
X145916157Y-110601271D01*
X144468537Y-109534605D02*
X144316156Y-109534605D01*
X144316156Y-109534605D02*
X144239966Y-109572700D01*
X144239966Y-109572700D02*
X144163775Y-109648890D01*
X144163775Y-109648890D02*
X144125680Y-109801271D01*
X144125680Y-109801271D02*
X144125680Y-110067938D01*
X144125680Y-110067938D02*
X144163775Y-110220319D01*
X144163775Y-110220319D02*
X144239966Y-110296510D01*
X144239966Y-110296510D02*
X144316156Y-110334605D01*
X144316156Y-110334605D02*
X144468537Y-110334605D01*
X144468537Y-110334605D02*
X144544728Y-110296510D01*
X144544728Y-110296510D02*
X144620918Y-110220319D01*
X144620918Y-110220319D02*
X144659014Y-110067938D01*
X144659014Y-110067938D02*
X144659014Y-109801271D01*
X144659014Y-109801271D02*
X144620918Y-109648890D01*
X144620918Y-109648890D02*
X144544728Y-109572700D01*
X144544728Y-109572700D02*
X144468537Y-109534605D01*
X143782823Y-109915557D02*
X143516157Y-109915557D01*
X143401871Y-110334605D02*
X143782823Y-110334605D01*
X143782823Y-110334605D02*
X143782823Y-109534605D01*
X143782823Y-109534605D02*
X143401871Y-109534605D01*
X143020918Y-110334605D02*
X142868537Y-110334605D01*
X142868537Y-110334605D02*
X142792347Y-110296510D01*
X142792347Y-110296510D02*
X142754251Y-110258414D01*
X142754251Y-110258414D02*
X142678061Y-110144129D01*
X142678061Y-110144129D02*
X142639966Y-109991748D01*
X142639966Y-109991748D02*
X142639966Y-109686986D01*
X142639966Y-109686986D02*
X142678061Y-109610795D01*
X142678061Y-109610795D02*
X142716156Y-109572700D01*
X142716156Y-109572700D02*
X142792347Y-109534605D01*
X142792347Y-109534605D02*
X142944728Y-109534605D01*
X142944728Y-109534605D02*
X143020918Y-109572700D01*
X143020918Y-109572700D02*
X143059013Y-109610795D01*
X143059013Y-109610795D02*
X143097109Y-109686986D01*
X143097109Y-109686986D02*
X143097109Y-109877462D01*
X143097109Y-109877462D02*
X143059013Y-109953652D01*
X143059013Y-109953652D02*
X143020918Y-109991748D01*
X143020918Y-109991748D02*
X142944728Y-110029843D01*
X142944728Y-110029843D02*
X142792347Y-110029843D01*
X142792347Y-110029843D02*
X142716156Y-109991748D01*
X142716156Y-109991748D02*
X142678061Y-109953652D01*
X142678061Y-109953652D02*
X142639966Y-109877462D01*
X142335204Y-110296510D02*
X142220918Y-110334605D01*
X142220918Y-110334605D02*
X142030442Y-110334605D01*
X142030442Y-110334605D02*
X141954251Y-110296510D01*
X141954251Y-110296510D02*
X141916156Y-110258414D01*
X141916156Y-110258414D02*
X141878061Y-110182224D01*
X141878061Y-110182224D02*
X141878061Y-110106033D01*
X141878061Y-110106033D02*
X141916156Y-110029843D01*
X141916156Y-110029843D02*
X141954251Y-109991748D01*
X141954251Y-109991748D02*
X142030442Y-109953652D01*
X142030442Y-109953652D02*
X142182823Y-109915557D01*
X142182823Y-109915557D02*
X142259013Y-109877462D01*
X142259013Y-109877462D02*
X142297108Y-109839367D01*
X142297108Y-109839367D02*
X142335204Y-109763176D01*
X142335204Y-109763176D02*
X142335204Y-109686986D01*
X142335204Y-109686986D02*
X142297108Y-109610795D01*
X142297108Y-109610795D02*
X142259013Y-109572700D01*
X142259013Y-109572700D02*
X142182823Y-109534605D01*
X142182823Y-109534605D02*
X141992346Y-109534605D01*
X141992346Y-109534605D02*
X141878061Y-109572700D01*
X141573299Y-110106033D02*
X141192346Y-110106033D01*
X141649489Y-110334605D02*
X141382822Y-109534605D01*
X141382822Y-109534605D02*
X141116156Y-110334605D01*
X140849489Y-109534605D02*
X140849489Y-110182224D01*
X140849489Y-110182224D02*
X140811394Y-110258414D01*
X140811394Y-110258414D02*
X140773299Y-110296510D01*
X140773299Y-110296510D02*
X140697108Y-110334605D01*
X140697108Y-110334605D02*
X140544727Y-110334605D01*
X140544727Y-110334605D02*
X140468537Y-110296510D01*
X140468537Y-110296510D02*
X140430442Y-110258414D01*
X140430442Y-110258414D02*
X140392346Y-110182224D01*
X140392346Y-110182224D02*
X140392346Y-109534605D01*
X138982823Y-110334605D02*
X139439966Y-110334605D01*
X139211394Y-110334605D02*
X139211394Y-109534605D01*
X139211394Y-109534605D02*
X139287585Y-109648890D01*
X139287585Y-109648890D02*
X139363775Y-109725081D01*
X139363775Y-109725081D02*
X139439966Y-109763176D01*
X138487584Y-109534605D02*
X138411394Y-109534605D01*
X138411394Y-109534605D02*
X138335203Y-109572700D01*
X138335203Y-109572700D02*
X138297108Y-109610795D01*
X138297108Y-109610795D02*
X138259013Y-109686986D01*
X138259013Y-109686986D02*
X138220918Y-109839367D01*
X138220918Y-109839367D02*
X138220918Y-110029843D01*
X138220918Y-110029843D02*
X138259013Y-110182224D01*
X138259013Y-110182224D02*
X138297108Y-110258414D01*
X138297108Y-110258414D02*
X138335203Y-110296510D01*
X138335203Y-110296510D02*
X138411394Y-110334605D01*
X138411394Y-110334605D02*
X138487584Y-110334605D01*
X138487584Y-110334605D02*
X138563775Y-110296510D01*
X138563775Y-110296510D02*
X138601870Y-110258414D01*
X138601870Y-110258414D02*
X138639965Y-110182224D01*
X138639965Y-110182224D02*
X138678061Y-110029843D01*
X138678061Y-110029843D02*
X138678061Y-109839367D01*
X138678061Y-109839367D02*
X138639965Y-109686986D01*
X138639965Y-109686986D02*
X138601870Y-109610795D01*
X138601870Y-109610795D02*
X138563775Y-109572700D01*
X138563775Y-109572700D02*
X138487584Y-109534605D01*
X137306632Y-109496510D02*
X137992346Y-110525081D01*
X137078061Y-109610795D02*
X137039965Y-109572700D01*
X137039965Y-109572700D02*
X136963775Y-109534605D01*
X136963775Y-109534605D02*
X136773299Y-109534605D01*
X136773299Y-109534605D02*
X136697108Y-109572700D01*
X136697108Y-109572700D02*
X136659013Y-109610795D01*
X136659013Y-109610795D02*
X136620918Y-109686986D01*
X136620918Y-109686986D02*
X136620918Y-109763176D01*
X136620918Y-109763176D02*
X136659013Y-109877462D01*
X136659013Y-109877462D02*
X137116156Y-110334605D01*
X137116156Y-110334605D02*
X136620918Y-110334605D01*
X136125679Y-109534605D02*
X136049489Y-109534605D01*
X136049489Y-109534605D02*
X135973298Y-109572700D01*
X135973298Y-109572700D02*
X135935203Y-109610795D01*
X135935203Y-109610795D02*
X135897108Y-109686986D01*
X135897108Y-109686986D02*
X135859013Y-109839367D01*
X135859013Y-109839367D02*
X135859013Y-110029843D01*
X135859013Y-110029843D02*
X135897108Y-110182224D01*
X135897108Y-110182224D02*
X135935203Y-110258414D01*
X135935203Y-110258414D02*
X135973298Y-110296510D01*
X135973298Y-110296510D02*
X136049489Y-110334605D01*
X136049489Y-110334605D02*
X136125679Y-110334605D01*
X136125679Y-110334605D02*
X136201870Y-110296510D01*
X136201870Y-110296510D02*
X136239965Y-110258414D01*
X136239965Y-110258414D02*
X136278060Y-110182224D01*
X136278060Y-110182224D02*
X136316156Y-110029843D01*
X136316156Y-110029843D02*
X136316156Y-109839367D01*
X136316156Y-109839367D02*
X136278060Y-109686986D01*
X136278060Y-109686986D02*
X136239965Y-109610795D01*
X136239965Y-109610795D02*
X136201870Y-109572700D01*
X136201870Y-109572700D02*
X136125679Y-109534605D01*
X135554251Y-109610795D02*
X135516155Y-109572700D01*
X135516155Y-109572700D02*
X135439965Y-109534605D01*
X135439965Y-109534605D02*
X135249489Y-109534605D01*
X135249489Y-109534605D02*
X135173298Y-109572700D01*
X135173298Y-109572700D02*
X135135203Y-109610795D01*
X135135203Y-109610795D02*
X135097108Y-109686986D01*
X135097108Y-109686986D02*
X135097108Y-109763176D01*
X135097108Y-109763176D02*
X135135203Y-109877462D01*
X135135203Y-109877462D02*
X135592346Y-110334605D01*
X135592346Y-110334605D02*
X135097108Y-110334605D01*
X134411393Y-109801271D02*
X134411393Y-110334605D01*
X134601869Y-109496510D02*
X134792346Y-110067938D01*
X134792346Y-110067938D02*
X134297107Y-110067938D01*
D11*
X133019800Y-106331000D02*
X150926800Y-106331000D01*
X150926800Y-111030000D01*
X133019800Y-111030000D01*
X133019800Y-106331000D01*
D12*
X136263228Y-95151209D02*
X136501323Y-95151209D01*
X136501323Y-95151209D02*
X136501323Y-94651209D01*
X136120370Y-95127400D02*
X136048942Y-95151209D01*
X136048942Y-95151209D02*
X135929894Y-95151209D01*
X135929894Y-95151209D02*
X135882275Y-95127400D01*
X135882275Y-95127400D02*
X135858466Y-95103590D01*
X135858466Y-95103590D02*
X135834656Y-95055971D01*
X135834656Y-95055971D02*
X135834656Y-95008352D01*
X135834656Y-95008352D02*
X135858466Y-94960733D01*
X135858466Y-94960733D02*
X135882275Y-94936923D01*
X135882275Y-94936923D02*
X135929894Y-94913114D01*
X135929894Y-94913114D02*
X136025132Y-94889304D01*
X136025132Y-94889304D02*
X136072751Y-94865495D01*
X136072751Y-94865495D02*
X136096561Y-94841685D01*
X136096561Y-94841685D02*
X136120370Y-94794066D01*
X136120370Y-94794066D02*
X136120370Y-94746447D01*
X136120370Y-94746447D02*
X136096561Y-94698828D01*
X136096561Y-94698828D02*
X136072751Y-94675019D01*
X136072751Y-94675019D02*
X136025132Y-94651209D01*
X136025132Y-94651209D02*
X135906085Y-94651209D01*
X135906085Y-94651209D02*
X135834656Y-94675019D01*
X135358466Y-95151209D02*
X135644180Y-95151209D01*
X135501323Y-95151209D02*
X135501323Y-94651209D01*
X135501323Y-94651209D02*
X135548942Y-94722638D01*
X135548942Y-94722638D02*
X135596561Y-94770257D01*
X135596561Y-94770257D02*
X135644180Y-94794066D01*
D13*
%TO.C,G10*%
G36*
X136948803Y-104521791D02*
G01*
X137016930Y-104563319D01*
X137102948Y-104633627D01*
X137212545Y-104735131D01*
X137351409Y-104870245D01*
X137364546Y-104883161D01*
X137485516Y-105002828D01*
X137575269Y-105093937D01*
X137638398Y-105162127D01*
X137679501Y-105213039D01*
X137703170Y-105252314D01*
X137714002Y-105285592D01*
X137716592Y-105318513D01*
X137714361Y-105353177D01*
X137689729Y-105423683D01*
X137630431Y-105499229D01*
X137586295Y-105542037D01*
X137524868Y-105580105D01*
X137457162Y-105590585D01*
X137456266Y-105590584D01*
X137423892Y-105587512D01*
X137390063Y-105575516D01*
X137349195Y-105550079D01*
X137295706Y-105506681D01*
X137224015Y-105440805D01*
X137128540Y-105347932D01*
X137003697Y-105223544D01*
X136966146Y-105185870D01*
X136838856Y-105056281D01*
X136744552Y-104954404D01*
X136680715Y-104874552D01*
X136644823Y-104811033D01*
X136634354Y-104758160D01*
X136646789Y-104710242D01*
X136679605Y-104661590D01*
X136730282Y-104606515D01*
X136741437Y-104595179D01*
X136794884Y-104545738D01*
X136843468Y-104515416D01*
X136892879Y-104506629D01*
X136948803Y-104521791D01*
G37*
G36*
X137591098Y-104184407D02*
G01*
X137597301Y-104189125D01*
X137636613Y-104224545D01*
X137703436Y-104288115D01*
X137792010Y-104374251D01*
X137896574Y-104477367D01*
X138011366Y-104591878D01*
X138081184Y-104662017D01*
X138190759Y-104773170D01*
X138271323Y-104857521D01*
X138327310Y-104920629D01*
X138363151Y-104968048D01*
X138383278Y-105005338D01*
X138392125Y-105038054D01*
X138394123Y-105071753D01*
X138394011Y-105082974D01*
X138384770Y-105145136D01*
X138353896Y-105200167D01*
X138291816Y-105266269D01*
X138290972Y-105267078D01*
X138192276Y-105340820D01*
X138101645Y-105365645D01*
X138019771Y-105341361D01*
X138005571Y-105330593D01*
X137955434Y-105285971D01*
X137881372Y-105215843D01*
X137790047Y-105126927D01*
X137688123Y-105025937D01*
X137582264Y-104919589D01*
X137479132Y-104814599D01*
X137385392Y-104717683D01*
X137307707Y-104635556D01*
X137252739Y-104574934D01*
X137227154Y-104542533D01*
X137215320Y-104516407D01*
X137208378Y-104437326D01*
X137245940Y-104353825D01*
X137329809Y-104260955D01*
X137344369Y-104247839D01*
X137437569Y-104182002D01*
X137518187Y-104161334D01*
X137591098Y-104184407D01*
G37*
G36*
X138388424Y-103056466D02*
G01*
X138419655Y-103062995D01*
X138454473Y-103079635D01*
X138498120Y-103110691D01*
X138555838Y-103160469D01*
X138632872Y-103233273D01*
X138734463Y-103333409D01*
X138865854Y-103465181D01*
X138948325Y-103548417D01*
X139070083Y-103673468D01*
X139160503Y-103771797D01*
X139222473Y-103848815D01*
X139258885Y-103909935D01*
X139272627Y-103960570D01*
X139266589Y-104006132D01*
X139243660Y-104052033D01*
X139206730Y-104103686D01*
X139194476Y-104118766D01*
X139128898Y-104181455D01*
X139062412Y-104224086D01*
X139060659Y-104224843D01*
X139021410Y-104240228D01*
X138985212Y-104247896D01*
X138947853Y-104244689D01*
X138905123Y-104227451D01*
X138852811Y-104193025D01*
X138786706Y-104138252D01*
X138702597Y-104059977D01*
X138596274Y-103955042D01*
X138463525Y-103820290D01*
X138300139Y-103652564D01*
X138232682Y-103582377D01*
X138146371Y-103486150D01*
X138093345Y-103411469D01*
X138071476Y-103350323D01*
X138078641Y-103294701D01*
X138112713Y-103236593D01*
X138171567Y-103167989D01*
X138195643Y-103142398D01*
X138255470Y-103088035D01*
X138307269Y-103062176D01*
X138367075Y-103055605D01*
X138388424Y-103056466D01*
G37*
G36*
X137992030Y-103610297D02*
G01*
X138030549Y-103621885D01*
X138074727Y-103647853D01*
X138132000Y-103693501D01*
X138209807Y-103764131D01*
X138315583Y-103865042D01*
X138325965Y-103875061D01*
X138442249Y-103988695D01*
X138563241Y-104109089D01*
X138675221Y-104222486D01*
X138764467Y-104315129D01*
X138828980Y-104384579D01*
X138889774Y-104455568D01*
X138925433Y-104508702D01*
X138942229Y-104553828D01*
X138946434Y-104600794D01*
X138946064Y-104617639D01*
X138934827Y-104676289D01*
X138901349Y-104732727D01*
X138836791Y-104803275D01*
X138808500Y-104830934D01*
X138746412Y-104882442D01*
X138692211Y-104906789D01*
X138628944Y-104912917D01*
X138596285Y-104911287D01*
X138564809Y-104903568D01*
X138529370Y-104885530D01*
X138484747Y-104852943D01*
X138425720Y-104801578D01*
X138347066Y-104727204D01*
X138243564Y-104625592D01*
X138109993Y-104492512D01*
X138035798Y-104418159D01*
X137922189Y-104303412D01*
X137823085Y-104202221D01*
X137743772Y-104120033D01*
X137689534Y-104062297D01*
X137665655Y-104034459D01*
X137665069Y-104033499D01*
X137648685Y-103981931D01*
X137641680Y-103911937D01*
X137641688Y-103908112D01*
X137651406Y-103848754D01*
X137685006Y-103790204D01*
X137750937Y-103717421D01*
X137772778Y-103695962D01*
X137837448Y-103641058D01*
X137892570Y-103614620D01*
X137954622Y-103607779D01*
X137992030Y-103610297D01*
G37*
G36*
X136533814Y-104700331D02*
G01*
X136524983Y-104735383D01*
X136520575Y-104775218D01*
X136544419Y-104860401D01*
X136604704Y-104958810D01*
X136697223Y-105062461D01*
X136766418Y-105134072D01*
X136804643Y-105189040D01*
X136806419Y-105225437D01*
X136774026Y-105248800D01*
X136752616Y-105248598D01*
X136694702Y-105217900D01*
X136614556Y-105151090D01*
X136552978Y-105096205D01*
X136500199Y-105054503D01*
X136471597Y-105038633D01*
X136452894Y-105052724D01*
X136402302Y-105098728D01*
X136324327Y-105172785D01*
X136223123Y-105270869D01*
X136102838Y-105388954D01*
X135967624Y-105523015D01*
X135821631Y-105669026D01*
X135695065Y-105795299D01*
X135553258Y-105934736D01*
X135423636Y-106060040D01*
X135310792Y-106166868D01*
X135219321Y-106250881D01*
X135153814Y-106307739D01*
X135118864Y-106333102D01*
X135091068Y-106341711D01*
X135043284Y-106349146D01*
X134972495Y-106354833D01*
X134874171Y-106358901D01*
X134743782Y-106361479D01*
X134576796Y-106362695D01*
X134368682Y-106362677D01*
X134114912Y-106361553D01*
X133186256Y-106356099D01*
X133186256Y-106293352D01*
X133186256Y-106230605D01*
X134114912Y-106218056D01*
X134271481Y-106215754D01*
X134518352Y-106211103D01*
X134718396Y-106205768D01*
X134873786Y-106199656D01*
X134986696Y-106192672D01*
X135059298Y-106184723D01*
X135093766Y-106175715D01*
X135114083Y-106159192D01*
X135167959Y-106109688D01*
X135249167Y-106032260D01*
X135353249Y-105931238D01*
X135475751Y-105810954D01*
X135612217Y-105675738D01*
X135758192Y-105529921D01*
X136372421Y-104913918D01*
X136274994Y-104814145D01*
X136177568Y-104714371D01*
X136266467Y-104741655D01*
X136296071Y-104749812D01*
X136365340Y-104754131D01*
X136437463Y-104727984D01*
X136484619Y-104704913D01*
X136523540Y-104690443D01*
X136533814Y-104700331D01*
G37*
G36*
X140706180Y-100104793D02*
G01*
X140754251Y-100145340D01*
X140823969Y-100209161D01*
X140908042Y-100289060D01*
X140999181Y-100377846D01*
X141090096Y-100468322D01*
X141173498Y-100553297D01*
X141242096Y-100625577D01*
X141288601Y-100677967D01*
X141305722Y-100703274D01*
X141305718Y-100703452D01*
X141289271Y-100731176D01*
X141247026Y-100783564D01*
X141187998Y-100849422D01*
X141070275Y-100975278D01*
X143089175Y-102994295D01*
X143343892Y-103248728D01*
X143621669Y-103525465D01*
X143882220Y-103784250D01*
X144123736Y-104023312D01*
X144344404Y-104240882D01*
X144542415Y-104435188D01*
X144715959Y-104604459D01*
X144863225Y-104746924D01*
X144982403Y-104860813D01*
X145071682Y-104944354D01*
X145129252Y-104995778D01*
X145153303Y-105013313D01*
X145168777Y-105013827D01*
X145261105Y-105041159D01*
X145331024Y-105101628D01*
X145374387Y-105183474D01*
X145387047Y-105274939D01*
X145364858Y-105364263D01*
X145303671Y-105439687D01*
X145262977Y-105464986D01*
X145172552Y-105487692D01*
X145080638Y-105477000D01*
X144999634Y-105437675D01*
X144941939Y-105374485D01*
X144919951Y-105292194D01*
X144917547Y-105282743D01*
X144904129Y-105259682D01*
X144877406Y-105224380D01*
X144835660Y-105175062D01*
X144777169Y-105109952D01*
X144700215Y-105027273D01*
X144603076Y-104925252D01*
X144484033Y-104802111D01*
X144341366Y-104656075D01*
X144173355Y-104485369D01*
X143978279Y-104288217D01*
X143754419Y-104062843D01*
X143500054Y-103807471D01*
X143213465Y-103520326D01*
X142892931Y-103199632D01*
X140865911Y-101172727D01*
X140640836Y-101398850D01*
X140634811Y-101404895D01*
X140529285Y-101507270D01*
X140450484Y-101575367D01*
X140393228Y-101613248D01*
X140352336Y-101624973D01*
X140342067Y-101626773D01*
X140312201Y-101641987D01*
X140267330Y-101674875D01*
X140204608Y-101728063D01*
X140121192Y-101804181D01*
X140014239Y-101905854D01*
X139880902Y-102035711D01*
X139718340Y-102196380D01*
X139523706Y-102390487D01*
X139422785Y-102491253D01*
X139267210Y-102645795D01*
X139124555Y-102786538D01*
X138998563Y-102909847D01*
X138892975Y-103012084D01*
X138811533Y-103089613D01*
X138757979Y-103138797D01*
X138736055Y-103156000D01*
X138715420Y-103145969D01*
X138666727Y-103109527D01*
X138604692Y-103055605D01*
X138554545Y-103013860D01*
X138487778Y-102970402D01*
X138438743Y-102952432D01*
X138403438Y-102951309D01*
X138286531Y-102960675D01*
X138202621Y-102993591D01*
X138192324Y-103000029D01*
X138147351Y-103021228D01*
X138136491Y-103010517D01*
X138158291Y-102970730D01*
X138211298Y-102904703D01*
X138294057Y-102815269D01*
X138402362Y-102695436D01*
X138484168Y-102581576D01*
X138530342Y-102480309D01*
X138544853Y-102384826D01*
X138545028Y-102380674D01*
X138552449Y-102354752D01*
X138573164Y-102319213D01*
X138610424Y-102270440D01*
X138667477Y-102204815D01*
X138747572Y-102118720D01*
X138853959Y-102008537D01*
X138989888Y-101870648D01*
X139158606Y-101701435D01*
X139160487Y-101699556D01*
X139342218Y-101516442D01*
X139493319Y-101361072D01*
X139612582Y-101234751D01*
X139698797Y-101138787D01*
X139750757Y-101074486D01*
X139767253Y-101043156D01*
X139767336Y-101041598D01*
X139786819Y-101009861D01*
X139835898Y-100949764D01*
X139908817Y-100867237D01*
X139999821Y-100768214D01*
X140103154Y-100658625D01*
X140213061Y-100544403D01*
X140323787Y-100431479D01*
X140429575Y-100325785D01*
X140524671Y-100233253D01*
X140603319Y-100159814D01*
X140659763Y-100111401D01*
X140688248Y-100093945D01*
X140706180Y-100104793D01*
G37*
G36*
X135727605Y-101028873D02*
G01*
X136261481Y-101562226D01*
X136571778Y-101554141D01*
X136683969Y-101552952D01*
X136811657Y-101555884D01*
X136916483Y-101563023D01*
X136984822Y-101573724D01*
X137018027Y-101584673D01*
X137096018Y-101613692D01*
X137205945Y-101656392D01*
X137339722Y-101709478D01*
X137489263Y-101769656D01*
X137646482Y-101833632D01*
X137803292Y-101898112D01*
X137951607Y-101959800D01*
X138083341Y-102015402D01*
X138190408Y-102061624D01*
X138264720Y-102095172D01*
X138324013Y-102135184D01*
X138392750Y-102223370D01*
X138431902Y-102331646D01*
X138433559Y-102443680D01*
X138426415Y-102470895D01*
X138409685Y-102507022D01*
X138380378Y-102551150D01*
X138334593Y-102607780D01*
X138268430Y-102681413D01*
X138177988Y-102776548D01*
X138059369Y-102897688D01*
X137908670Y-103049330D01*
X137824722Y-103133362D01*
X137693271Y-103264143D01*
X137590076Y-103365030D01*
X137510628Y-103439863D01*
X137450417Y-103492480D01*
X137404935Y-103526721D01*
X137369672Y-103546425D01*
X137340119Y-103555432D01*
X137311767Y-103557581D01*
X137213575Y-103538178D01*
X137110507Y-103479957D01*
X137022637Y-103394212D01*
X136961474Y-103292403D01*
X136938528Y-103185988D01*
X136938638Y-103178276D01*
X136943515Y-103142464D01*
X136959287Y-103104615D01*
X136990975Y-103058139D01*
X137043598Y-102996447D01*
X137122176Y-102912947D01*
X137231728Y-102801049D01*
X137304360Y-102726910D01*
X137390594Y-102637070D01*
X137458006Y-102564652D01*
X137501027Y-102515670D01*
X137514090Y-102496136D01*
X137497264Y-102487512D01*
X137441649Y-102462987D01*
X137357110Y-102427346D01*
X137253055Y-102384390D01*
X137138893Y-102337919D01*
X137024032Y-102291733D01*
X136917882Y-102249631D01*
X136829852Y-102215414D01*
X136769349Y-102192882D01*
X136745783Y-102185834D01*
X136747129Y-102187816D01*
X136778004Y-102207549D01*
X136843273Y-102244401D01*
X136935107Y-102294031D01*
X137045680Y-102352101D01*
X137079839Y-102369837D01*
X137188205Y-102426411D01*
X137277302Y-102473396D01*
X137338684Y-102506315D01*
X137363903Y-102520694D01*
X137364120Y-102521004D01*
X137349958Y-102543349D01*
X137307032Y-102593549D01*
X137241713Y-102664459D01*
X137160376Y-102748931D01*
X137136637Y-102773163D01*
X137032089Y-102881957D01*
X136957855Y-102964970D01*
X136908895Y-103029658D01*
X136880165Y-103083478D01*
X136866625Y-103133885D01*
X136863232Y-103188334D01*
X136864003Y-103218592D01*
X136879744Y-103305928D01*
X136921789Y-103386803D01*
X136998012Y-103478152D01*
X137038509Y-103518279D01*
X137155936Y-103600530D01*
X137274951Y-103633040D01*
X137396353Y-103615752D01*
X137520940Y-103548610D01*
X137649513Y-103431555D01*
X137679270Y-103399339D01*
X137727468Y-103349791D01*
X137754213Y-103331613D01*
X137768217Y-103340887D01*
X137778190Y-103373699D01*
X137787064Y-103418149D01*
X137786835Y-103443177D01*
X137783142Y-103445726D01*
X137749839Y-103468734D01*
X137695536Y-103506261D01*
X137663602Y-103530305D01*
X137565057Y-103631960D01*
X137490590Y-103751315D01*
X137451784Y-103871037D01*
X137446271Y-103905036D01*
X137429626Y-103957914D01*
X137395179Y-103986131D01*
X137327198Y-104006833D01*
X137213963Y-104052651D01*
X137103146Y-104135168D01*
X137024828Y-104238239D01*
X137013114Y-104259510D01*
X136983779Y-104292959D01*
X136938949Y-104307423D01*
X136861341Y-104310546D01*
X136822404Y-104312079D01*
X136732530Y-104325174D01*
X136664185Y-104347293D01*
X136629884Y-104368516D01*
X136554422Y-104434113D01*
X136488692Y-104512497D01*
X136449657Y-104584884D01*
X136434075Y-104613526D01*
X136391450Y-104644855D01*
X136368533Y-104650466D01*
X136323979Y-104659018D01*
X136306398Y-104648670D01*
X136257903Y-104607810D01*
X136185709Y-104541311D01*
X136096044Y-104454941D01*
X135995138Y-104354469D01*
X135898935Y-104255818D01*
X135789719Y-104136497D01*
X135704208Y-104028702D01*
X135637066Y-103922260D01*
X135582957Y-103807000D01*
X135536547Y-103672750D01*
X135492499Y-103509338D01*
X135445478Y-103306593D01*
X135422839Y-103205223D01*
X135393245Y-103073596D01*
X135368150Y-102963012D01*
X135349675Y-102882795D01*
X135339938Y-102842265D01*
X135327592Y-102823208D01*
X135283075Y-102770262D01*
X135210322Y-102689843D01*
X135113547Y-102586438D01*
X134996963Y-102464536D01*
X134864782Y-102328624D01*
X134721218Y-102183190D01*
X134115811Y-101574313D01*
X134654770Y-101034917D01*
X135193728Y-100495521D01*
X135727605Y-101028873D01*
G37*
G36*
X145559195Y-104277473D02*
G01*
X145563598Y-104305760D01*
X145583328Y-104425724D01*
X145601315Y-104524929D01*
X145615728Y-104593737D01*
X145624737Y-104622509D01*
X145637348Y-104624902D01*
X145687021Y-104616921D01*
X145757866Y-104596286D01*
X145800242Y-104583177D01*
X145861362Y-104569955D01*
X145892114Y-104571576D01*
X145894368Y-104576353D01*
X145888889Y-104615712D01*
X145865655Y-104675645D01*
X145858244Y-104691517D01*
X145833497Y-104750637D01*
X145823509Y-104785284D01*
X145843037Y-104795937D01*
X145903107Y-104811883D01*
X145994014Y-104830160D01*
X146105870Y-104848551D01*
X146206968Y-104863983D01*
X146308981Y-104880452D01*
X146384236Y-104893631D01*
X146421269Y-104901590D01*
X146422676Y-104902403D01*
X146412632Y-104924693D01*
X146368777Y-104971311D01*
X146296589Y-105036906D01*
X146201549Y-105116127D01*
X146186985Y-105127870D01*
X146092761Y-105204693D01*
X146014349Y-105270044D01*
X145959569Y-105317326D01*
X145936242Y-105339940D01*
X145942860Y-105359940D01*
X145978863Y-105404033D01*
X146036718Y-105459733D01*
X146149743Y-105559222D01*
X146071335Y-105574904D01*
X146002463Y-105585515D01*
X145933316Y-105590585D01*
X145895173Y-105592048D01*
X145873755Y-105596860D01*
X145873790Y-105597102D01*
X145883484Y-105624005D01*
X145907916Y-105687835D01*
X145943542Y-105779413D01*
X145986817Y-105889562D01*
X145989538Y-105896469D01*
X146031403Y-106006338D01*
X146063766Y-106097882D01*
X146083471Y-106161716D01*
X146087362Y-106188458D01*
X146085679Y-106189053D01*
X146051365Y-106182141D01*
X145981176Y-106160277D01*
X145884224Y-106126463D01*
X145769620Y-106083703D01*
X145747196Y-106075120D01*
X145635811Y-106033348D01*
X145544351Y-106000455D01*
X145481756Y-105979579D01*
X145456965Y-105973862D01*
X145449929Y-105993767D01*
X145435027Y-106050764D01*
X145416457Y-106130555D01*
X145383333Y-106279866D01*
X145308510Y-106174200D01*
X145279890Y-106135222D01*
X145240557Y-106087043D01*
X145218911Y-106067999D01*
X145218819Y-106068000D01*
X145198128Y-106086915D01*
X145153436Y-106137815D01*
X145091262Y-106213013D01*
X145018121Y-106304824D01*
X144931723Y-106413242D01*
X144866756Y-106489711D01*
X144824424Y-106531725D01*
X144801399Y-106542567D01*
X144794356Y-106525516D01*
X144792089Y-106505381D01*
X144783471Y-106444331D01*
X144770129Y-106354803D01*
X144753887Y-106248697D01*
X144736571Y-106137910D01*
X144720008Y-106034338D01*
X144706023Y-105949881D01*
X144692402Y-105869947D01*
X144551070Y-105918572D01*
X144486919Y-105939350D01*
X144427223Y-105955472D01*
X144400677Y-105958136D01*
X144400865Y-105946662D01*
X144414972Y-105899969D01*
X144441967Y-105831606D01*
X144462606Y-105784727D01*
X144475237Y-105747877D01*
X144471031Y-105722451D01*
X144443469Y-105704416D01*
X144386033Y-105689737D01*
X144292204Y-105674382D01*
X144155463Y-105654316D01*
X144029543Y-105634961D01*
X143938100Y-105618755D01*
X143884725Y-105605611D01*
X143863346Y-105594011D01*
X143867893Y-105582438D01*
X143869423Y-105581229D01*
X143898565Y-105557933D01*
X143957751Y-105510514D01*
X144039356Y-105445082D01*
X144135759Y-105367747D01*
X144393167Y-105161203D01*
X144281677Y-105068434D01*
X144233841Y-105027252D01*
X144187241Y-104983299D01*
X144168587Y-104960074D01*
X144176673Y-104953244D01*
X144221402Y-104940088D01*
X144292481Y-104927836D01*
X144355227Y-104917034D01*
X144403803Y-104897699D01*
X144417975Y-104869179D01*
X144428375Y-104856830D01*
X144465372Y-104878420D01*
X144531183Y-104938275D01*
X144583508Y-104993834D01*
X144623242Y-105045573D01*
X144634853Y-105075269D01*
X144635371Y-105096732D01*
X144658816Y-105139819D01*
X144667552Y-105153079D01*
X144666841Y-105176790D01*
X144642732Y-105209269D01*
X144589463Y-105257399D01*
X144501277Y-105328060D01*
X144448677Y-105370652D01*
X144385164Y-105427346D01*
X144348456Y-105467559D01*
X144345282Y-105484543D01*
X144348278Y-105485120D01*
X144394543Y-105493438D01*
X144473034Y-105507114D01*
X144568568Y-105523500D01*
X144622755Y-105533293D01*
X144701551Y-105552085D01*
X144741571Y-105571307D01*
X144750414Y-105593900D01*
X144756270Y-105618941D01*
X144800612Y-105630239D01*
X144818412Y-105630743D01*
X144841081Y-105641303D01*
X144857292Y-105672503D01*
X144871122Y-105734085D01*
X144886650Y-105835789D01*
X144891190Y-105867377D01*
X144905541Y-105962069D01*
X144917575Y-106034229D01*
X144925064Y-106070252D01*
X144929101Y-106072949D01*
X144958770Y-106051755D01*
X145015270Y-105990945D01*
X145097466Y-105891798D01*
X145204224Y-105755593D01*
X145218353Y-105743145D01*
X145237689Y-105760002D01*
X145252324Y-105783322D01*
X145280340Y-105785489D01*
X145303143Y-105743331D01*
X145310966Y-105723131D01*
X145328087Y-105713571D01*
X145363292Y-105718679D01*
X145426014Y-105739965D01*
X145525685Y-105778937D01*
X145572937Y-105797153D01*
X145657994Y-105826430D01*
X145718366Y-105842336D01*
X145743286Y-105841761D01*
X145743623Y-105836935D01*
X145733966Y-105794348D01*
X145710431Y-105721352D01*
X145676949Y-105630463D01*
X145652848Y-105566469D01*
X145628959Y-105491782D01*
X145624447Y-105451834D01*
X145637952Y-105439992D01*
X145658435Y-105436730D01*
X145670724Y-105411815D01*
X145641752Y-105368671D01*
X145625569Y-105346228D01*
X145637958Y-105319728D01*
X145652764Y-105309533D01*
X145706164Y-105268928D01*
X145773932Y-105214265D01*
X145845335Y-105154602D01*
X145909637Y-105098995D01*
X145956107Y-105056501D01*
X145974008Y-105036178D01*
X145969870Y-105032668D01*
X145929588Y-105020583D01*
X145855578Y-105005344D01*
X145759165Y-104989418D01*
X145674051Y-104975633D01*
X145599355Y-104958898D01*
X145562803Y-104941982D01*
X145557587Y-104922630D01*
X145554978Y-104897994D01*
X145511192Y-104887819D01*
X145484958Y-104885334D01*
X145464419Y-104871010D01*
X145449381Y-104835333D01*
X145436034Y-104768806D01*
X145420569Y-104661929D01*
X145413086Y-104610456D01*
X145397554Y-104520946D01*
X145383299Y-104459113D01*
X145372669Y-104436040D01*
X145367909Y-104438397D01*
X145336672Y-104468353D01*
X145285835Y-104525507D01*
X145223720Y-104600661D01*
X145156199Y-104681842D01*
X145110453Y-104727613D01*
X145079429Y-104743649D01*
X145056074Y-104735631D01*
X145027584Y-104720176D01*
X145020347Y-104746702D01*
X145018877Y-104766620D01*
X145006229Y-104783323D01*
X144976294Y-104770889D01*
X144923881Y-104726380D01*
X144843797Y-104646861D01*
X144787848Y-104589188D01*
X144745683Y-104542757D01*
X144733221Y-104520529D01*
X144747395Y-104516006D01*
X144785134Y-104522692D01*
X144824144Y-104529621D01*
X144853607Y-104523577D01*
X144869322Y-104490293D01*
X144881699Y-104418540D01*
X144888129Y-104379150D01*
X144901860Y-104312163D01*
X144913361Y-104275881D01*
X144924972Y-104274857D01*
X144961582Y-104300362D01*
X145011181Y-104351178D01*
X145095381Y-104448589D01*
X145147910Y-104385842D01*
X145163277Y-104367377D01*
X145213887Y-104306074D01*
X145281004Y-104224392D01*
X145354330Y-104134854D01*
X145508220Y-103946613D01*
X145559195Y-104277473D01*
G37*
D14*
%TO.C,LS1*%
X127542400Y-85371800D02*
X127542400Y-87371800D01*
X127542400Y-92371800D02*
X127542400Y-94371800D01*
X127542400Y-94371800D02*
X136542400Y-94371800D01*
X136542400Y-85371800D02*
X127542400Y-85371800D01*
X136542400Y-87371800D02*
X136542400Y-85371800D01*
X136542400Y-94371800D02*
X136542400Y-92371800D01*
D10*
X137142400Y-93121800D02*
G75*
G02*
X136942400Y-93121800I-100000J0D01*
G01*
X136942400Y-93121800D02*
G75*
G02*
X137142400Y-93121800I100000J0D01*
G01*
%TD*%
M02*
