%TF.GenerationSoftware,KiCad,Pcbnew,8.0.1*%
%TF.CreationDate,2024-10-12T16:06:53+02:00*%
%TF.ProjectId,SMD-Loetstation,534d442d-4c6f-4657-9473-746174696f6e,rev?*%
%TF.SameCoordinates,Original*%
%TF.FileFunction,Soldermask,Bot*%
%TF.FilePolarity,Negative*%
%FSLAX46Y46*%
G04 Gerber Fmt 4.6, Leading zero omitted, Abs format (unit mm)*
G04 Created by KiCad (PCBNEW 8.0.1) date 2024-10-12 16:06:53*
%MOMM*%
%LPD*%
G01*
G04 APERTURE LIST*
G04 Aperture macros list*
%AMRoundRect*
0 Rectangle with rounded corners*
0 $1 Rounding radius*
0 $2 $3 $4 $5 $6 $7 $8 $9 X,Y pos of 4 corners*
0 Add a 4 corners polygon primitive as box body*
4,1,4,$2,$3,$4,$5,$6,$7,$8,$9,$2,$3,0*
0 Add four circle primitives for the rounded corners*
1,1,$1+$1,$2,$3*
1,1,$1+$1,$4,$5*
1,1,$1+$1,$6,$7*
1,1,$1+$1,$8,$9*
0 Add four rect primitives between the rounded corners*
20,1,$1+$1,$2,$3,$4,$5,0*
20,1,$1+$1,$4,$5,$6,$7,0*
20,1,$1+$1,$6,$7,$8,$9,0*
20,1,$1+$1,$8,$9,$2,$3,0*%
G04 Aperture macros list end*
%ADD10C,5.000000*%
%ADD11R,1.700000X1.700000*%
%ADD12O,1.700000X1.700000*%
%ADD13R,1.350000X1.350000*%
%ADD14O,1.350000X1.350000*%
%ADD15RoundRect,0.250000X0.600000X0.750000X-0.600000X0.750000X-0.600000X-0.750000X0.600000X-0.750000X0*%
%ADD16O,1.700000X2.000000*%
%ADD17R,2.400000X1.600000*%
%ADD18O,2.400000X1.600000*%
%ADD19RoundRect,0.250000X0.600000X0.725000X-0.600000X0.725000X-0.600000X-0.725000X0.600000X-0.725000X0*%
%ADD20O,1.700000X1.950000*%
G04 APERTURE END LIST*
D10*
%TO.C,H1*%
X104648000Y-78740000D03*
%TD*%
D11*
%TO.C,J2*%
X153416000Y-107416600D03*
D12*
X155956000Y-107416600D03*
X158496000Y-107416600D03*
X161036000Y-107416600D03*
%TD*%
D11*
%TO.C,J8*%
X160020000Y-75184000D03*
D12*
X160020000Y-77724000D03*
%TD*%
D13*
%TO.C,J4*%
X140684000Y-74803000D03*
D14*
X138684000Y-74803000D03*
%TD*%
D10*
%TO.C,H3*%
X104648000Y-104648000D03*
%TD*%
D11*
%TO.C,J7*%
X154559000Y-75184000D03*
D12*
X154559000Y-77724000D03*
X152019000Y-75184000D03*
X152019000Y-77724000D03*
X149479000Y-75184000D03*
X149479000Y-77724000D03*
%TD*%
D15*
%TO.C,J1*%
X115824000Y-77216000D03*
D16*
X113324000Y-77216000D03*
%TD*%
D17*
%TO.C,U3*%
X142240000Y-84455000D03*
D18*
X142240000Y-86995000D03*
X142240000Y-89535000D03*
X142240000Y-92075000D03*
X142240000Y-94615000D03*
X142240000Y-97155000D03*
X142240000Y-99695000D03*
X149860000Y-99695000D03*
X149860000Y-97155000D03*
X149860000Y-94615000D03*
X149860000Y-92075000D03*
X149860000Y-89535000D03*
X149860000Y-86995000D03*
X149860000Y-84455000D03*
%TD*%
D10*
%TO.C,H2*%
X169672000Y-104140000D03*
%TD*%
D13*
%TO.C,J3*%
X134874000Y-74803000D03*
D14*
X132874000Y-74803000D03*
%TD*%
D11*
%TO.C,J5*%
X169545000Y-96393000D03*
D12*
X169545000Y-93853000D03*
X169545000Y-91313000D03*
X169545000Y-88773000D03*
X169545000Y-86233000D03*
%TD*%
D10*
%TO.C,H4*%
X169672000Y-78740000D03*
%TD*%
D19*
%TO.C,J6*%
X124191400Y-107391200D03*
D20*
X121691400Y-107391200D03*
X119191400Y-107391200D03*
X116691400Y-107391200D03*
X114191400Y-107391200D03*
%TD*%
M02*
