%TF.GenerationSoftware,KiCad,Pcbnew,8.0.1*%
%TF.CreationDate,2024-10-12T16:06:50+02:00*%
%TF.ProjectId,SMD-Loetstation,534d442d-4c6f-4657-9473-746174696f6e,rev?*%
%TF.SameCoordinates,Original*%
%TF.FileFunction,Drillmap*%
%TF.FilePolarity,Positive*%
%FSLAX45Y45*%
G04 Gerber Fmt 4.5, Leading zero omitted, Abs format (unit mm)*
G04 Created by KiCad (PCBNEW 8.0.1) date 2024-10-12 16:06:50*
%MOMM*%
%LPD*%
G01*
G04 APERTURE LIST*
%ADD10C,0.050000*%
%ADD11C,0.200000*%
%ADD12C,0.100000*%
%ADD13C,0.250000*%
G04 APERTURE END LIST*
D10*
X9753600Y-7162800D02*
X17780000Y-7162800D01*
X17780000Y-7162800D02*
X17780000Y-11176000D01*
X17780000Y-11176000D02*
X9753600Y-11176000D01*
X9753600Y-11176000D02*
X9753600Y-7162800D01*
D11*
D12*
X11430240Y-8326360D02*
X11460240Y-8356360D01*
X11460240Y-8326360D02*
X11430240Y-8356360D01*
X12263360Y-9235680D02*
X12293360Y-9265680D01*
X12293360Y-9235680D02*
X12263360Y-9265680D01*
X12263360Y-10220900D02*
X12293360Y-10250900D01*
X12293360Y-10220900D02*
X12263360Y-10250900D01*
X12913600Y-10104360D02*
X12943600Y-10134360D01*
X12943600Y-10104360D02*
X12913600Y-10134360D01*
X13243800Y-8330000D02*
X13273800Y-8360000D01*
X13273800Y-8330000D02*
X13243800Y-8360000D01*
X14407120Y-9469360D02*
X14437120Y-9499360D01*
X14437120Y-9469360D02*
X14407120Y-9499360D01*
X14523960Y-9469360D02*
X14553960Y-9499360D01*
X14553960Y-9469360D02*
X14523960Y-9499360D01*
X15143720Y-8803880D02*
X15173720Y-8833880D01*
X15173720Y-8803880D02*
X15143720Y-8833880D01*
X15153880Y-9007080D02*
X15183880Y-9037080D01*
X15183880Y-9007080D02*
X15153880Y-9037080D01*
X15362160Y-9525240D02*
X15392160Y-9555240D01*
X15392160Y-9525240D02*
X15362160Y-9555240D01*
X15707600Y-8021560D02*
X15737600Y-8051560D01*
X15737600Y-8021560D02*
X15707600Y-8051560D01*
X15814280Y-8615920D02*
X15844280Y-8645920D01*
X15844280Y-8615920D02*
X15814280Y-8645920D01*
X15987000Y-9106140D02*
X16017000Y-9136140D01*
X16017000Y-9106140D02*
X15987000Y-9136140D01*
X15987000Y-9383000D02*
X16017000Y-9413000D01*
X16017000Y-9383000D02*
X15987000Y-9413000D01*
X15987000Y-10186300D02*
X16017000Y-10216300D01*
X16017000Y-10186300D02*
X15987000Y-10216300D01*
X16012400Y-8613380D02*
X16042400Y-8643380D01*
X16042400Y-8613380D02*
X16012400Y-8643380D01*
X13327400Y-7480300D02*
G75*
G02*
X13247400Y-7480300I-40000J0D01*
G01*
X13247400Y-7480300D02*
G75*
G02*
X13327400Y-7480300I40000J0D01*
G01*
X13527400Y-7480300D02*
G75*
G02*
X13447400Y-7480300I-40000J0D01*
G01*
X13447400Y-7480300D02*
G75*
G02*
X13527400Y-7480300I40000J0D01*
G01*
X13908400Y-7480300D02*
G75*
G02*
X13828400Y-7480300I-40000J0D01*
G01*
X13828400Y-7480300D02*
G75*
G02*
X13908400Y-7480300I40000J0D01*
G01*
X14108400Y-7480300D02*
G75*
G02*
X14028400Y-7480300I-40000J0D01*
G01*
X14028400Y-7480300D02*
G75*
G02*
X14108400Y-7480300I40000J0D01*
G01*
X14264000Y-8445500D02*
G75*
G02*
X14184000Y-8445500I-40000J0D01*
G01*
X14184000Y-8445500D02*
G75*
G02*
X14264000Y-8445500I40000J0D01*
G01*
X14264000Y-8699500D02*
G75*
G02*
X14184000Y-8699500I-40000J0D01*
G01*
X14184000Y-8699500D02*
G75*
G02*
X14264000Y-8699500I40000J0D01*
G01*
X14264000Y-8953500D02*
G75*
G02*
X14184000Y-8953500I-40000J0D01*
G01*
X14184000Y-8953500D02*
G75*
G02*
X14264000Y-8953500I40000J0D01*
G01*
X14264000Y-9207500D02*
G75*
G02*
X14184000Y-9207500I-40000J0D01*
G01*
X14184000Y-9207500D02*
G75*
G02*
X14264000Y-9207500I40000J0D01*
G01*
X14264000Y-9461500D02*
G75*
G02*
X14184000Y-9461500I-40000J0D01*
G01*
X14184000Y-9461500D02*
G75*
G02*
X14264000Y-9461500I40000J0D01*
G01*
X14264000Y-9715500D02*
G75*
G02*
X14184000Y-9715500I-40000J0D01*
G01*
X14184000Y-9715500D02*
G75*
G02*
X14264000Y-9715500I40000J0D01*
G01*
X14264000Y-9969500D02*
G75*
G02*
X14184000Y-9969500I-40000J0D01*
G01*
X14184000Y-9969500D02*
G75*
G02*
X14264000Y-9969500I40000J0D01*
G01*
X15026000Y-8445500D02*
G75*
G02*
X14946000Y-8445500I-40000J0D01*
G01*
X14946000Y-8445500D02*
G75*
G02*
X15026000Y-8445500I40000J0D01*
G01*
X15026000Y-8699500D02*
G75*
G02*
X14946000Y-8699500I-40000J0D01*
G01*
X14946000Y-8699500D02*
G75*
G02*
X15026000Y-8699500I40000J0D01*
G01*
X15026000Y-8953500D02*
G75*
G02*
X14946000Y-8953500I-40000J0D01*
G01*
X14946000Y-8953500D02*
G75*
G02*
X15026000Y-8953500I40000J0D01*
G01*
X15026000Y-9207500D02*
G75*
G02*
X14946000Y-9207500I-40000J0D01*
G01*
X14946000Y-9207500D02*
G75*
G02*
X15026000Y-9207500I40000J0D01*
G01*
X15026000Y-9461500D02*
G75*
G02*
X14946000Y-9461500I-40000J0D01*
G01*
X14946000Y-9461500D02*
G75*
G02*
X15026000Y-9461500I40000J0D01*
G01*
X15026000Y-9715500D02*
G75*
G02*
X14946000Y-9715500I-40000J0D01*
G01*
X14946000Y-9715500D02*
G75*
G02*
X15026000Y-9715500I40000J0D01*
G01*
X15026000Y-9969500D02*
G75*
G02*
X14946000Y-9969500I-40000J0D01*
G01*
X14946000Y-9969500D02*
G75*
G02*
X15026000Y-9969500I40000J0D01*
G01*
X11419140Y-10691620D02*
X11419140Y-10786620D01*
X11371640Y-10739120D02*
X11466640Y-10739120D01*
X11669140Y-10691620D02*
X11669140Y-10786620D01*
X11621640Y-10739120D02*
X11716640Y-10739120D01*
X11919140Y-10691620D02*
X11919140Y-10786620D01*
X11871640Y-10739120D02*
X11966640Y-10739120D01*
X12169140Y-10691620D02*
X12169140Y-10786620D01*
X12121640Y-10739120D02*
X12216640Y-10739120D01*
X12419140Y-10691620D02*
X12419140Y-10786620D01*
X12371640Y-10739120D02*
X12466640Y-10739120D01*
X11367756Y-7756956D02*
X11367756Y-7686244D01*
X11297044Y-7686244D01*
X11297044Y-7756956D01*
X11367756Y-7756956D01*
X11617756Y-7756956D02*
X11617756Y-7686244D01*
X11547044Y-7686244D01*
X11547044Y-7756956D01*
X11617756Y-7756956D01*
X14983256Y-7553756D02*
X14983256Y-7483044D01*
X14912544Y-7483044D01*
X14912544Y-7553756D01*
X14983256Y-7553756D01*
X14983256Y-7807756D02*
X14983256Y-7737044D01*
X14912544Y-7737044D01*
X14912544Y-7807756D01*
X14983256Y-7807756D01*
X15237256Y-7553756D02*
X15237256Y-7483044D01*
X15166544Y-7483044D01*
X15166544Y-7553756D01*
X15237256Y-7553756D01*
X15237256Y-7807756D02*
X15237256Y-7737044D01*
X15166544Y-7737044D01*
X15166544Y-7807756D01*
X15237256Y-7807756D01*
X15376956Y-10777016D02*
X15376956Y-10706304D01*
X15306244Y-10706304D01*
X15306244Y-10777016D01*
X15376956Y-10777016D01*
X15491256Y-7553756D02*
X15491256Y-7483044D01*
X15420544Y-7483044D01*
X15420544Y-7553756D01*
X15491256Y-7553756D01*
X15491256Y-7807756D02*
X15491256Y-7737044D01*
X15420544Y-7737044D01*
X15420544Y-7807756D01*
X15491256Y-7807756D01*
X15630956Y-10777016D02*
X15630956Y-10706304D01*
X15560244Y-10706304D01*
X15560244Y-10777016D01*
X15630956Y-10777016D01*
X15884956Y-10777016D02*
X15884956Y-10706304D01*
X15814244Y-10706304D01*
X15814244Y-10777016D01*
X15884956Y-10777016D01*
X16037356Y-7553756D02*
X16037356Y-7483044D01*
X15966644Y-7483044D01*
X15966644Y-7553756D01*
X16037356Y-7553756D01*
X16037356Y-7807756D02*
X16037356Y-7737044D01*
X15966644Y-7737044D01*
X15966644Y-7807756D01*
X16037356Y-7807756D01*
X16138956Y-10777016D02*
X16138956Y-10706304D01*
X16068244Y-10706304D01*
X16068244Y-10777016D01*
X16138956Y-10777016D01*
X16989856Y-8658656D02*
X16989856Y-8587944D01*
X16919144Y-8587944D01*
X16919144Y-8658656D01*
X16989856Y-8658656D01*
X16989856Y-8912656D02*
X16989856Y-8841944D01*
X16919144Y-8841944D01*
X16919144Y-8912656D01*
X16989856Y-8912656D01*
X16989856Y-9166656D02*
X16989856Y-9095944D01*
X16919144Y-9095944D01*
X16919144Y-9166656D01*
X16989856Y-9166656D01*
X16989856Y-9420656D02*
X16989856Y-9349944D01*
X16919144Y-9349944D01*
X16919144Y-9420656D01*
X16989856Y-9420656D01*
X16989856Y-9674656D02*
X16989856Y-9603944D01*
X16919144Y-9603944D01*
X16919144Y-9674656D01*
X16989856Y-9674656D01*
D13*
X10464800Y-7999000D02*
X10589800Y-7874000D01*
X10464800Y-7749000D01*
X10339800Y-7874000D01*
X10464800Y-7999000D01*
X10464800Y-10589800D02*
X10589800Y-10464800D01*
X10464800Y-10339800D01*
X10339800Y-10464800D01*
X10464800Y-10589800D01*
X16967200Y-7999000D02*
X17092200Y-7874000D01*
X16967200Y-7749000D01*
X16842200Y-7874000D01*
X16967200Y-7999000D01*
X16967200Y-10539000D02*
X17092200Y-10414000D01*
X16967200Y-10289000D01*
X16842200Y-10414000D01*
X16967200Y-10539000D01*
D11*
X10011877Y-11489984D02*
X10011877Y-11289984D01*
X10011877Y-11289984D02*
X10059496Y-11289984D01*
X10059496Y-11289984D02*
X10088067Y-11299508D01*
X10088067Y-11299508D02*
X10107115Y-11318555D01*
X10107115Y-11318555D02*
X10116639Y-11337603D01*
X10116639Y-11337603D02*
X10126163Y-11375698D01*
X10126163Y-11375698D02*
X10126163Y-11404269D01*
X10126163Y-11404269D02*
X10116639Y-11442365D01*
X10116639Y-11442365D02*
X10107115Y-11461412D01*
X10107115Y-11461412D02*
X10088067Y-11480460D01*
X10088067Y-11480460D02*
X10059496Y-11489984D01*
X10059496Y-11489984D02*
X10011877Y-11489984D01*
X10211877Y-11489984D02*
X10211877Y-11356650D01*
X10211877Y-11394746D02*
X10221401Y-11375698D01*
X10221401Y-11375698D02*
X10230924Y-11366174D01*
X10230924Y-11366174D02*
X10249972Y-11356650D01*
X10249972Y-11356650D02*
X10269020Y-11356650D01*
X10335686Y-11489984D02*
X10335686Y-11356650D01*
X10335686Y-11289984D02*
X10326163Y-11299508D01*
X10326163Y-11299508D02*
X10335686Y-11309031D01*
X10335686Y-11309031D02*
X10345210Y-11299508D01*
X10345210Y-11299508D02*
X10335686Y-11289984D01*
X10335686Y-11289984D02*
X10335686Y-11309031D01*
X10459496Y-11489984D02*
X10440448Y-11480460D01*
X10440448Y-11480460D02*
X10430924Y-11461412D01*
X10430924Y-11461412D02*
X10430924Y-11289984D01*
X10564258Y-11489984D02*
X10545210Y-11480460D01*
X10545210Y-11480460D02*
X10535686Y-11461412D01*
X10535686Y-11461412D02*
X10535686Y-11289984D01*
X10792829Y-11489984D02*
X10792829Y-11289984D01*
X10792829Y-11289984D02*
X10859496Y-11432841D01*
X10859496Y-11432841D02*
X10926163Y-11289984D01*
X10926163Y-11289984D02*
X10926163Y-11489984D01*
X11107115Y-11489984D02*
X11107115Y-11385222D01*
X11107115Y-11385222D02*
X11097591Y-11366174D01*
X11097591Y-11366174D02*
X11078544Y-11356650D01*
X11078544Y-11356650D02*
X11040448Y-11356650D01*
X11040448Y-11356650D02*
X11021401Y-11366174D01*
X11107115Y-11480460D02*
X11088067Y-11489984D01*
X11088067Y-11489984D02*
X11040448Y-11489984D01*
X11040448Y-11489984D02*
X11021401Y-11480460D01*
X11021401Y-11480460D02*
X11011877Y-11461412D01*
X11011877Y-11461412D02*
X11011877Y-11442365D01*
X11011877Y-11442365D02*
X11021401Y-11423317D01*
X11021401Y-11423317D02*
X11040448Y-11413793D01*
X11040448Y-11413793D02*
X11088067Y-11413793D01*
X11088067Y-11413793D02*
X11107115Y-11404269D01*
X11202353Y-11356650D02*
X11202353Y-11556650D01*
X11202353Y-11366174D02*
X11221401Y-11356650D01*
X11221401Y-11356650D02*
X11259496Y-11356650D01*
X11259496Y-11356650D02*
X11278543Y-11366174D01*
X11278543Y-11366174D02*
X11288067Y-11375698D01*
X11288067Y-11375698D02*
X11297591Y-11394746D01*
X11297591Y-11394746D02*
X11297591Y-11451888D01*
X11297591Y-11451888D02*
X11288067Y-11470936D01*
X11288067Y-11470936D02*
X11278543Y-11480460D01*
X11278543Y-11480460D02*
X11259496Y-11489984D01*
X11259496Y-11489984D02*
X11221401Y-11489984D01*
X11221401Y-11489984D02*
X11202353Y-11480460D01*
X11383305Y-11470936D02*
X11392829Y-11480460D01*
X11392829Y-11480460D02*
X11383305Y-11489984D01*
X11383305Y-11489984D02*
X11373782Y-11480460D01*
X11373782Y-11480460D02*
X11383305Y-11470936D01*
X11383305Y-11470936D02*
X11383305Y-11489984D01*
X11383305Y-11366174D02*
X11392829Y-11375698D01*
X11392829Y-11375698D02*
X11383305Y-11385222D01*
X11383305Y-11385222D02*
X11373782Y-11375698D01*
X11373782Y-11375698D02*
X11383305Y-11366174D01*
X11383305Y-11366174D02*
X11383305Y-11385222D01*
D12*
X9721100Y-11803500D02*
X9751100Y-11833500D01*
X9751100Y-11803500D02*
X9721100Y-11833500D01*
D11*
X10049972Y-11709984D02*
X10069020Y-11709984D01*
X10069020Y-11709984D02*
X10088067Y-11719508D01*
X10088067Y-11719508D02*
X10097591Y-11729031D01*
X10097591Y-11729031D02*
X10107115Y-11748079D01*
X10107115Y-11748079D02*
X10116639Y-11786174D01*
X10116639Y-11786174D02*
X10116639Y-11833793D01*
X10116639Y-11833793D02*
X10107115Y-11871888D01*
X10107115Y-11871888D02*
X10097591Y-11890936D01*
X10097591Y-11890936D02*
X10088067Y-11900460D01*
X10088067Y-11900460D02*
X10069020Y-11909984D01*
X10069020Y-11909984D02*
X10049972Y-11909984D01*
X10049972Y-11909984D02*
X10030924Y-11900460D01*
X10030924Y-11900460D02*
X10021401Y-11890936D01*
X10021401Y-11890936D02*
X10011877Y-11871888D01*
X10011877Y-11871888D02*
X10002353Y-11833793D01*
X10002353Y-11833793D02*
X10002353Y-11786174D01*
X10002353Y-11786174D02*
X10011877Y-11748079D01*
X10011877Y-11748079D02*
X10021401Y-11729031D01*
X10021401Y-11729031D02*
X10030924Y-11719508D01*
X10030924Y-11719508D02*
X10049972Y-11709984D01*
X10202353Y-11890936D02*
X10211877Y-11900460D01*
X10211877Y-11900460D02*
X10202353Y-11909984D01*
X10202353Y-11909984D02*
X10192829Y-11900460D01*
X10192829Y-11900460D02*
X10202353Y-11890936D01*
X10202353Y-11890936D02*
X10202353Y-11909984D01*
X10278544Y-11709984D02*
X10402353Y-11709984D01*
X10402353Y-11709984D02*
X10335686Y-11786174D01*
X10335686Y-11786174D02*
X10364258Y-11786174D01*
X10364258Y-11786174D02*
X10383305Y-11795698D01*
X10383305Y-11795698D02*
X10392829Y-11805222D01*
X10392829Y-11805222D02*
X10402353Y-11824269D01*
X10402353Y-11824269D02*
X10402353Y-11871888D01*
X10402353Y-11871888D02*
X10392829Y-11890936D01*
X10392829Y-11890936D02*
X10383305Y-11900460D01*
X10383305Y-11900460D02*
X10364258Y-11909984D01*
X10364258Y-11909984D02*
X10307115Y-11909984D01*
X10307115Y-11909984D02*
X10288067Y-11900460D01*
X10288067Y-11900460D02*
X10278544Y-11890936D01*
X10526163Y-11709984D02*
X10545210Y-11709984D01*
X10545210Y-11709984D02*
X10564258Y-11719508D01*
X10564258Y-11719508D02*
X10573782Y-11729031D01*
X10573782Y-11729031D02*
X10583305Y-11748079D01*
X10583305Y-11748079D02*
X10592829Y-11786174D01*
X10592829Y-11786174D02*
X10592829Y-11833793D01*
X10592829Y-11833793D02*
X10583305Y-11871888D01*
X10583305Y-11871888D02*
X10573782Y-11890936D01*
X10573782Y-11890936D02*
X10564258Y-11900460D01*
X10564258Y-11900460D02*
X10545210Y-11909984D01*
X10545210Y-11909984D02*
X10526163Y-11909984D01*
X10526163Y-11909984D02*
X10507115Y-11900460D01*
X10507115Y-11900460D02*
X10497591Y-11890936D01*
X10497591Y-11890936D02*
X10488067Y-11871888D01*
X10488067Y-11871888D02*
X10478544Y-11833793D01*
X10478544Y-11833793D02*
X10478544Y-11786174D01*
X10478544Y-11786174D02*
X10488067Y-11748079D01*
X10488067Y-11748079D02*
X10497591Y-11729031D01*
X10497591Y-11729031D02*
X10507115Y-11719508D01*
X10507115Y-11719508D02*
X10526163Y-11709984D01*
X10716639Y-11709984D02*
X10735686Y-11709984D01*
X10735686Y-11709984D02*
X10754734Y-11719508D01*
X10754734Y-11719508D02*
X10764258Y-11729031D01*
X10764258Y-11729031D02*
X10773782Y-11748079D01*
X10773782Y-11748079D02*
X10783305Y-11786174D01*
X10783305Y-11786174D02*
X10783305Y-11833793D01*
X10783305Y-11833793D02*
X10773782Y-11871888D01*
X10773782Y-11871888D02*
X10764258Y-11890936D01*
X10764258Y-11890936D02*
X10754734Y-11900460D01*
X10754734Y-11900460D02*
X10735686Y-11909984D01*
X10735686Y-11909984D02*
X10716639Y-11909984D01*
X10716639Y-11909984D02*
X10697591Y-11900460D01*
X10697591Y-11900460D02*
X10688067Y-11890936D01*
X10688067Y-11890936D02*
X10678544Y-11871888D01*
X10678544Y-11871888D02*
X10669020Y-11833793D01*
X10669020Y-11833793D02*
X10669020Y-11786174D01*
X10669020Y-11786174D02*
X10678544Y-11748079D01*
X10678544Y-11748079D02*
X10688067Y-11729031D01*
X10688067Y-11729031D02*
X10697591Y-11719508D01*
X10697591Y-11719508D02*
X10716639Y-11709984D01*
X10869020Y-11909984D02*
X10869020Y-11776650D01*
X10869020Y-11795698D02*
X10878544Y-11786174D01*
X10878544Y-11786174D02*
X10897591Y-11776650D01*
X10897591Y-11776650D02*
X10926163Y-11776650D01*
X10926163Y-11776650D02*
X10945210Y-11786174D01*
X10945210Y-11786174D02*
X10954734Y-11805222D01*
X10954734Y-11805222D02*
X10954734Y-11909984D01*
X10954734Y-11805222D02*
X10964258Y-11786174D01*
X10964258Y-11786174D02*
X10983305Y-11776650D01*
X10983305Y-11776650D02*
X11011877Y-11776650D01*
X11011877Y-11776650D02*
X11030925Y-11786174D01*
X11030925Y-11786174D02*
X11040448Y-11805222D01*
X11040448Y-11805222D02*
X11040448Y-11909984D01*
X11135686Y-11909984D02*
X11135686Y-11776650D01*
X11135686Y-11795698D02*
X11145210Y-11786174D01*
X11145210Y-11786174D02*
X11164258Y-11776650D01*
X11164258Y-11776650D02*
X11192829Y-11776650D01*
X11192829Y-11776650D02*
X11211877Y-11786174D01*
X11211877Y-11786174D02*
X11221401Y-11805222D01*
X11221401Y-11805222D02*
X11221401Y-11909984D01*
X11221401Y-11805222D02*
X11230924Y-11786174D01*
X11230924Y-11786174D02*
X11249972Y-11776650D01*
X11249972Y-11776650D02*
X11278543Y-11776650D01*
X11278543Y-11776650D02*
X11297591Y-11786174D01*
X11297591Y-11786174D02*
X11307115Y-11805222D01*
X11307115Y-11805222D02*
X11307115Y-11909984D01*
X11697591Y-11700460D02*
X11526163Y-11957603D01*
X11954734Y-11709984D02*
X11973782Y-11709984D01*
X11973782Y-11709984D02*
X11992829Y-11719508D01*
X11992829Y-11719508D02*
X12002353Y-11729031D01*
X12002353Y-11729031D02*
X12011877Y-11748079D01*
X12011877Y-11748079D02*
X12021401Y-11786174D01*
X12021401Y-11786174D02*
X12021401Y-11833793D01*
X12021401Y-11833793D02*
X12011877Y-11871888D01*
X12011877Y-11871888D02*
X12002353Y-11890936D01*
X12002353Y-11890936D02*
X11992829Y-11900460D01*
X11992829Y-11900460D02*
X11973782Y-11909984D01*
X11973782Y-11909984D02*
X11954734Y-11909984D01*
X11954734Y-11909984D02*
X11935686Y-11900460D01*
X11935686Y-11900460D02*
X11926163Y-11890936D01*
X11926163Y-11890936D02*
X11916639Y-11871888D01*
X11916639Y-11871888D02*
X11907115Y-11833793D01*
X11907115Y-11833793D02*
X11907115Y-11786174D01*
X11907115Y-11786174D02*
X11916639Y-11748079D01*
X11916639Y-11748079D02*
X11926163Y-11729031D01*
X11926163Y-11729031D02*
X11935686Y-11719508D01*
X11935686Y-11719508D02*
X11954734Y-11709984D01*
X12107115Y-11890936D02*
X12116639Y-11900460D01*
X12116639Y-11900460D02*
X12107115Y-11909984D01*
X12107115Y-11909984D02*
X12097591Y-11900460D01*
X12097591Y-11900460D02*
X12107115Y-11890936D01*
X12107115Y-11890936D02*
X12107115Y-11909984D01*
X12240448Y-11709984D02*
X12259496Y-11709984D01*
X12259496Y-11709984D02*
X12278544Y-11719508D01*
X12278544Y-11719508D02*
X12288067Y-11729031D01*
X12288067Y-11729031D02*
X12297591Y-11748079D01*
X12297591Y-11748079D02*
X12307115Y-11786174D01*
X12307115Y-11786174D02*
X12307115Y-11833793D01*
X12307115Y-11833793D02*
X12297591Y-11871888D01*
X12297591Y-11871888D02*
X12288067Y-11890936D01*
X12288067Y-11890936D02*
X12278544Y-11900460D01*
X12278544Y-11900460D02*
X12259496Y-11909984D01*
X12259496Y-11909984D02*
X12240448Y-11909984D01*
X12240448Y-11909984D02*
X12221401Y-11900460D01*
X12221401Y-11900460D02*
X12211877Y-11890936D01*
X12211877Y-11890936D02*
X12202353Y-11871888D01*
X12202353Y-11871888D02*
X12192829Y-11833793D01*
X12192829Y-11833793D02*
X12192829Y-11786174D01*
X12192829Y-11786174D02*
X12202353Y-11748079D01*
X12202353Y-11748079D02*
X12211877Y-11729031D01*
X12211877Y-11729031D02*
X12221401Y-11719508D01*
X12221401Y-11719508D02*
X12240448Y-11709984D01*
X12497591Y-11909984D02*
X12383306Y-11909984D01*
X12440448Y-11909984D02*
X12440448Y-11709984D01*
X12440448Y-11709984D02*
X12421401Y-11738555D01*
X12421401Y-11738555D02*
X12402353Y-11757603D01*
X12402353Y-11757603D02*
X12383306Y-11767127D01*
X12688067Y-11909984D02*
X12573782Y-11909984D01*
X12630925Y-11909984D02*
X12630925Y-11709984D01*
X12630925Y-11709984D02*
X12611877Y-11738555D01*
X12611877Y-11738555D02*
X12592829Y-11757603D01*
X12592829Y-11757603D02*
X12573782Y-11767127D01*
X12802353Y-11795698D02*
X12783306Y-11786174D01*
X12783306Y-11786174D02*
X12773782Y-11776650D01*
X12773782Y-11776650D02*
X12764258Y-11757603D01*
X12764258Y-11757603D02*
X12764258Y-11748079D01*
X12764258Y-11748079D02*
X12773782Y-11729031D01*
X12773782Y-11729031D02*
X12783306Y-11719508D01*
X12783306Y-11719508D02*
X12802353Y-11709984D01*
X12802353Y-11709984D02*
X12840448Y-11709984D01*
X12840448Y-11709984D02*
X12859496Y-11719508D01*
X12859496Y-11719508D02*
X12869020Y-11729031D01*
X12869020Y-11729031D02*
X12878544Y-11748079D01*
X12878544Y-11748079D02*
X12878544Y-11757603D01*
X12878544Y-11757603D02*
X12869020Y-11776650D01*
X12869020Y-11776650D02*
X12859496Y-11786174D01*
X12859496Y-11786174D02*
X12840448Y-11795698D01*
X12840448Y-11795698D02*
X12802353Y-11795698D01*
X12802353Y-11795698D02*
X12783306Y-11805222D01*
X12783306Y-11805222D02*
X12773782Y-11814746D01*
X12773782Y-11814746D02*
X12764258Y-11833793D01*
X12764258Y-11833793D02*
X12764258Y-11871888D01*
X12764258Y-11871888D02*
X12773782Y-11890936D01*
X12773782Y-11890936D02*
X12783306Y-11900460D01*
X12783306Y-11900460D02*
X12802353Y-11909984D01*
X12802353Y-11909984D02*
X12840448Y-11909984D01*
X12840448Y-11909984D02*
X12859496Y-11900460D01*
X12859496Y-11900460D02*
X12869020Y-11890936D01*
X12869020Y-11890936D02*
X12878544Y-11871888D01*
X12878544Y-11871888D02*
X12878544Y-11833793D01*
X12878544Y-11833793D02*
X12869020Y-11814746D01*
X12869020Y-11814746D02*
X12859496Y-11805222D01*
X12859496Y-11805222D02*
X12840448Y-11795698D01*
X12954734Y-11709984D02*
X12954734Y-11748079D01*
X13030925Y-11709984D02*
X13030925Y-11748079D01*
X13326163Y-11986174D02*
X13316639Y-11976650D01*
X13316639Y-11976650D02*
X13297591Y-11948079D01*
X13297591Y-11948079D02*
X13288068Y-11929031D01*
X13288068Y-11929031D02*
X13278544Y-11900460D01*
X13278544Y-11900460D02*
X13269020Y-11852841D01*
X13269020Y-11852841D02*
X13269020Y-11814746D01*
X13269020Y-11814746D02*
X13278544Y-11767127D01*
X13278544Y-11767127D02*
X13288068Y-11738555D01*
X13288068Y-11738555D02*
X13297591Y-11719508D01*
X13297591Y-11719508D02*
X13316639Y-11690936D01*
X13316639Y-11690936D02*
X13326163Y-11681412D01*
X13507115Y-11909984D02*
X13392829Y-11909984D01*
X13449972Y-11909984D02*
X13449972Y-11709984D01*
X13449972Y-11709984D02*
X13430925Y-11738555D01*
X13430925Y-11738555D02*
X13411877Y-11757603D01*
X13411877Y-11757603D02*
X13392829Y-11767127D01*
X13678544Y-11709984D02*
X13640448Y-11709984D01*
X13640448Y-11709984D02*
X13621401Y-11719508D01*
X13621401Y-11719508D02*
X13611877Y-11729031D01*
X13611877Y-11729031D02*
X13592829Y-11757603D01*
X13592829Y-11757603D02*
X13583306Y-11795698D01*
X13583306Y-11795698D02*
X13583306Y-11871888D01*
X13583306Y-11871888D02*
X13592829Y-11890936D01*
X13592829Y-11890936D02*
X13602353Y-11900460D01*
X13602353Y-11900460D02*
X13621401Y-11909984D01*
X13621401Y-11909984D02*
X13659496Y-11909984D01*
X13659496Y-11909984D02*
X13678544Y-11900460D01*
X13678544Y-11900460D02*
X13688068Y-11890936D01*
X13688068Y-11890936D02*
X13697591Y-11871888D01*
X13697591Y-11871888D02*
X13697591Y-11824269D01*
X13697591Y-11824269D02*
X13688068Y-11805222D01*
X13688068Y-11805222D02*
X13678544Y-11795698D01*
X13678544Y-11795698D02*
X13659496Y-11786174D01*
X13659496Y-11786174D02*
X13621401Y-11786174D01*
X13621401Y-11786174D02*
X13602353Y-11795698D01*
X13602353Y-11795698D02*
X13592829Y-11805222D01*
X13592829Y-11805222D02*
X13583306Y-11824269D01*
X13935687Y-11909984D02*
X13935687Y-11709984D01*
X14021401Y-11909984D02*
X14021401Y-11805222D01*
X14021401Y-11805222D02*
X14011877Y-11786174D01*
X14011877Y-11786174D02*
X13992830Y-11776650D01*
X13992830Y-11776650D02*
X13964258Y-11776650D01*
X13964258Y-11776650D02*
X13945210Y-11786174D01*
X13945210Y-11786174D02*
X13935687Y-11795698D01*
X14145210Y-11909984D02*
X14126163Y-11900460D01*
X14126163Y-11900460D02*
X14116639Y-11890936D01*
X14116639Y-11890936D02*
X14107115Y-11871888D01*
X14107115Y-11871888D02*
X14107115Y-11814746D01*
X14107115Y-11814746D02*
X14116639Y-11795698D01*
X14116639Y-11795698D02*
X14126163Y-11786174D01*
X14126163Y-11786174D02*
X14145210Y-11776650D01*
X14145210Y-11776650D02*
X14173782Y-11776650D01*
X14173782Y-11776650D02*
X14192830Y-11786174D01*
X14192830Y-11786174D02*
X14202353Y-11795698D01*
X14202353Y-11795698D02*
X14211877Y-11814746D01*
X14211877Y-11814746D02*
X14211877Y-11871888D01*
X14211877Y-11871888D02*
X14202353Y-11890936D01*
X14202353Y-11890936D02*
X14192830Y-11900460D01*
X14192830Y-11900460D02*
X14173782Y-11909984D01*
X14173782Y-11909984D02*
X14145210Y-11909984D01*
X14326163Y-11909984D02*
X14307115Y-11900460D01*
X14307115Y-11900460D02*
X14297591Y-11881412D01*
X14297591Y-11881412D02*
X14297591Y-11709984D01*
X14478544Y-11900460D02*
X14459496Y-11909984D01*
X14459496Y-11909984D02*
X14421401Y-11909984D01*
X14421401Y-11909984D02*
X14402353Y-11900460D01*
X14402353Y-11900460D02*
X14392830Y-11881412D01*
X14392830Y-11881412D02*
X14392830Y-11805222D01*
X14392830Y-11805222D02*
X14402353Y-11786174D01*
X14402353Y-11786174D02*
X14421401Y-11776650D01*
X14421401Y-11776650D02*
X14459496Y-11776650D01*
X14459496Y-11776650D02*
X14478544Y-11786174D01*
X14478544Y-11786174D02*
X14488068Y-11805222D01*
X14488068Y-11805222D02*
X14488068Y-11824269D01*
X14488068Y-11824269D02*
X14392830Y-11843317D01*
X14564258Y-11900460D02*
X14583306Y-11909984D01*
X14583306Y-11909984D02*
X14621401Y-11909984D01*
X14621401Y-11909984D02*
X14640449Y-11900460D01*
X14640449Y-11900460D02*
X14649972Y-11881412D01*
X14649972Y-11881412D02*
X14649972Y-11871888D01*
X14649972Y-11871888D02*
X14640449Y-11852841D01*
X14640449Y-11852841D02*
X14621401Y-11843317D01*
X14621401Y-11843317D02*
X14592830Y-11843317D01*
X14592830Y-11843317D02*
X14573782Y-11833793D01*
X14573782Y-11833793D02*
X14564258Y-11814746D01*
X14564258Y-11814746D02*
X14564258Y-11805222D01*
X14564258Y-11805222D02*
X14573782Y-11786174D01*
X14573782Y-11786174D02*
X14592830Y-11776650D01*
X14592830Y-11776650D02*
X14621401Y-11776650D01*
X14621401Y-11776650D02*
X14640449Y-11786174D01*
X14716639Y-11986174D02*
X14726163Y-11976650D01*
X14726163Y-11976650D02*
X14745211Y-11948079D01*
X14745211Y-11948079D02*
X14754734Y-11929031D01*
X14754734Y-11929031D02*
X14764258Y-11900460D01*
X14764258Y-11900460D02*
X14773782Y-11852841D01*
X14773782Y-11852841D02*
X14773782Y-11814746D01*
X14773782Y-11814746D02*
X14764258Y-11767127D01*
X14764258Y-11767127D02*
X14754734Y-11738555D01*
X14754734Y-11738555D02*
X14745211Y-11719508D01*
X14745211Y-11719508D02*
X14726163Y-11690936D01*
X14726163Y-11690936D02*
X14716639Y-11681412D01*
D12*
X9751100Y-12082500D02*
G75*
G02*
X9671100Y-12082500I-40000J0D01*
G01*
X9671100Y-12082500D02*
G75*
G02*
X9751100Y-12082500I40000J0D01*
G01*
D11*
X10049972Y-11973984D02*
X10069020Y-11973984D01*
X10069020Y-11973984D02*
X10088067Y-11983508D01*
X10088067Y-11983508D02*
X10097591Y-11993031D01*
X10097591Y-11993031D02*
X10107115Y-12012079D01*
X10107115Y-12012079D02*
X10116639Y-12050174D01*
X10116639Y-12050174D02*
X10116639Y-12097793D01*
X10116639Y-12097793D02*
X10107115Y-12135888D01*
X10107115Y-12135888D02*
X10097591Y-12154936D01*
X10097591Y-12154936D02*
X10088067Y-12164460D01*
X10088067Y-12164460D02*
X10069020Y-12173984D01*
X10069020Y-12173984D02*
X10049972Y-12173984D01*
X10049972Y-12173984D02*
X10030924Y-12164460D01*
X10030924Y-12164460D02*
X10021401Y-12154936D01*
X10021401Y-12154936D02*
X10011877Y-12135888D01*
X10011877Y-12135888D02*
X10002353Y-12097793D01*
X10002353Y-12097793D02*
X10002353Y-12050174D01*
X10002353Y-12050174D02*
X10011877Y-12012079D01*
X10011877Y-12012079D02*
X10021401Y-11993031D01*
X10021401Y-11993031D02*
X10030924Y-11983508D01*
X10030924Y-11983508D02*
X10049972Y-11973984D01*
X10202353Y-12154936D02*
X10211877Y-12164460D01*
X10211877Y-12164460D02*
X10202353Y-12173984D01*
X10202353Y-12173984D02*
X10192829Y-12164460D01*
X10192829Y-12164460D02*
X10202353Y-12154936D01*
X10202353Y-12154936D02*
X10202353Y-12173984D01*
X10326163Y-12059698D02*
X10307115Y-12050174D01*
X10307115Y-12050174D02*
X10297591Y-12040650D01*
X10297591Y-12040650D02*
X10288067Y-12021603D01*
X10288067Y-12021603D02*
X10288067Y-12012079D01*
X10288067Y-12012079D02*
X10297591Y-11993031D01*
X10297591Y-11993031D02*
X10307115Y-11983508D01*
X10307115Y-11983508D02*
X10326163Y-11973984D01*
X10326163Y-11973984D02*
X10364258Y-11973984D01*
X10364258Y-11973984D02*
X10383305Y-11983508D01*
X10383305Y-11983508D02*
X10392829Y-11993031D01*
X10392829Y-11993031D02*
X10402353Y-12012079D01*
X10402353Y-12012079D02*
X10402353Y-12021603D01*
X10402353Y-12021603D02*
X10392829Y-12040650D01*
X10392829Y-12040650D02*
X10383305Y-12050174D01*
X10383305Y-12050174D02*
X10364258Y-12059698D01*
X10364258Y-12059698D02*
X10326163Y-12059698D01*
X10326163Y-12059698D02*
X10307115Y-12069222D01*
X10307115Y-12069222D02*
X10297591Y-12078746D01*
X10297591Y-12078746D02*
X10288067Y-12097793D01*
X10288067Y-12097793D02*
X10288067Y-12135888D01*
X10288067Y-12135888D02*
X10297591Y-12154936D01*
X10297591Y-12154936D02*
X10307115Y-12164460D01*
X10307115Y-12164460D02*
X10326163Y-12173984D01*
X10326163Y-12173984D02*
X10364258Y-12173984D01*
X10364258Y-12173984D02*
X10383305Y-12164460D01*
X10383305Y-12164460D02*
X10392829Y-12154936D01*
X10392829Y-12154936D02*
X10402353Y-12135888D01*
X10402353Y-12135888D02*
X10402353Y-12097793D01*
X10402353Y-12097793D02*
X10392829Y-12078746D01*
X10392829Y-12078746D02*
X10383305Y-12069222D01*
X10383305Y-12069222D02*
X10364258Y-12059698D01*
X10526163Y-11973984D02*
X10545210Y-11973984D01*
X10545210Y-11973984D02*
X10564258Y-11983508D01*
X10564258Y-11983508D02*
X10573782Y-11993031D01*
X10573782Y-11993031D02*
X10583305Y-12012079D01*
X10583305Y-12012079D02*
X10592829Y-12050174D01*
X10592829Y-12050174D02*
X10592829Y-12097793D01*
X10592829Y-12097793D02*
X10583305Y-12135888D01*
X10583305Y-12135888D02*
X10573782Y-12154936D01*
X10573782Y-12154936D02*
X10564258Y-12164460D01*
X10564258Y-12164460D02*
X10545210Y-12173984D01*
X10545210Y-12173984D02*
X10526163Y-12173984D01*
X10526163Y-12173984D02*
X10507115Y-12164460D01*
X10507115Y-12164460D02*
X10497591Y-12154936D01*
X10497591Y-12154936D02*
X10488067Y-12135888D01*
X10488067Y-12135888D02*
X10478544Y-12097793D01*
X10478544Y-12097793D02*
X10478544Y-12050174D01*
X10478544Y-12050174D02*
X10488067Y-12012079D01*
X10488067Y-12012079D02*
X10497591Y-11993031D01*
X10497591Y-11993031D02*
X10507115Y-11983508D01*
X10507115Y-11983508D02*
X10526163Y-11973984D01*
X10716639Y-11973984D02*
X10735686Y-11973984D01*
X10735686Y-11973984D02*
X10754734Y-11983508D01*
X10754734Y-11983508D02*
X10764258Y-11993031D01*
X10764258Y-11993031D02*
X10773782Y-12012079D01*
X10773782Y-12012079D02*
X10783305Y-12050174D01*
X10783305Y-12050174D02*
X10783305Y-12097793D01*
X10783305Y-12097793D02*
X10773782Y-12135888D01*
X10773782Y-12135888D02*
X10764258Y-12154936D01*
X10764258Y-12154936D02*
X10754734Y-12164460D01*
X10754734Y-12164460D02*
X10735686Y-12173984D01*
X10735686Y-12173984D02*
X10716639Y-12173984D01*
X10716639Y-12173984D02*
X10697591Y-12164460D01*
X10697591Y-12164460D02*
X10688067Y-12154936D01*
X10688067Y-12154936D02*
X10678544Y-12135888D01*
X10678544Y-12135888D02*
X10669020Y-12097793D01*
X10669020Y-12097793D02*
X10669020Y-12050174D01*
X10669020Y-12050174D02*
X10678544Y-12012079D01*
X10678544Y-12012079D02*
X10688067Y-11993031D01*
X10688067Y-11993031D02*
X10697591Y-11983508D01*
X10697591Y-11983508D02*
X10716639Y-11973984D01*
X10869020Y-12173984D02*
X10869020Y-12040650D01*
X10869020Y-12059698D02*
X10878544Y-12050174D01*
X10878544Y-12050174D02*
X10897591Y-12040650D01*
X10897591Y-12040650D02*
X10926163Y-12040650D01*
X10926163Y-12040650D02*
X10945210Y-12050174D01*
X10945210Y-12050174D02*
X10954734Y-12069222D01*
X10954734Y-12069222D02*
X10954734Y-12173984D01*
X10954734Y-12069222D02*
X10964258Y-12050174D01*
X10964258Y-12050174D02*
X10983305Y-12040650D01*
X10983305Y-12040650D02*
X11011877Y-12040650D01*
X11011877Y-12040650D02*
X11030925Y-12050174D01*
X11030925Y-12050174D02*
X11040448Y-12069222D01*
X11040448Y-12069222D02*
X11040448Y-12173984D01*
X11135686Y-12173984D02*
X11135686Y-12040650D01*
X11135686Y-12059698D02*
X11145210Y-12050174D01*
X11145210Y-12050174D02*
X11164258Y-12040650D01*
X11164258Y-12040650D02*
X11192829Y-12040650D01*
X11192829Y-12040650D02*
X11211877Y-12050174D01*
X11211877Y-12050174D02*
X11221401Y-12069222D01*
X11221401Y-12069222D02*
X11221401Y-12173984D01*
X11221401Y-12069222D02*
X11230924Y-12050174D01*
X11230924Y-12050174D02*
X11249972Y-12040650D01*
X11249972Y-12040650D02*
X11278543Y-12040650D01*
X11278543Y-12040650D02*
X11297591Y-12050174D01*
X11297591Y-12050174D02*
X11307115Y-12069222D01*
X11307115Y-12069222D02*
X11307115Y-12173984D01*
X11697591Y-11964460D02*
X11526163Y-12221603D01*
X11954734Y-11973984D02*
X11973782Y-11973984D01*
X11973782Y-11973984D02*
X11992829Y-11983508D01*
X11992829Y-11983508D02*
X12002353Y-11993031D01*
X12002353Y-11993031D02*
X12011877Y-12012079D01*
X12011877Y-12012079D02*
X12021401Y-12050174D01*
X12021401Y-12050174D02*
X12021401Y-12097793D01*
X12021401Y-12097793D02*
X12011877Y-12135888D01*
X12011877Y-12135888D02*
X12002353Y-12154936D01*
X12002353Y-12154936D02*
X11992829Y-12164460D01*
X11992829Y-12164460D02*
X11973782Y-12173984D01*
X11973782Y-12173984D02*
X11954734Y-12173984D01*
X11954734Y-12173984D02*
X11935686Y-12164460D01*
X11935686Y-12164460D02*
X11926163Y-12154936D01*
X11926163Y-12154936D02*
X11916639Y-12135888D01*
X11916639Y-12135888D02*
X11907115Y-12097793D01*
X11907115Y-12097793D02*
X11907115Y-12050174D01*
X11907115Y-12050174D02*
X11916639Y-12012079D01*
X11916639Y-12012079D02*
X11926163Y-11993031D01*
X11926163Y-11993031D02*
X11935686Y-11983508D01*
X11935686Y-11983508D02*
X11954734Y-11973984D01*
X12107115Y-12154936D02*
X12116639Y-12164460D01*
X12116639Y-12164460D02*
X12107115Y-12173984D01*
X12107115Y-12173984D02*
X12097591Y-12164460D01*
X12097591Y-12164460D02*
X12107115Y-12154936D01*
X12107115Y-12154936D02*
X12107115Y-12173984D01*
X12240448Y-11973984D02*
X12259496Y-11973984D01*
X12259496Y-11973984D02*
X12278544Y-11983508D01*
X12278544Y-11983508D02*
X12288067Y-11993031D01*
X12288067Y-11993031D02*
X12297591Y-12012079D01*
X12297591Y-12012079D02*
X12307115Y-12050174D01*
X12307115Y-12050174D02*
X12307115Y-12097793D01*
X12307115Y-12097793D02*
X12297591Y-12135888D01*
X12297591Y-12135888D02*
X12288067Y-12154936D01*
X12288067Y-12154936D02*
X12278544Y-12164460D01*
X12278544Y-12164460D02*
X12259496Y-12173984D01*
X12259496Y-12173984D02*
X12240448Y-12173984D01*
X12240448Y-12173984D02*
X12221401Y-12164460D01*
X12221401Y-12164460D02*
X12211877Y-12154936D01*
X12211877Y-12154936D02*
X12202353Y-12135888D01*
X12202353Y-12135888D02*
X12192829Y-12097793D01*
X12192829Y-12097793D02*
X12192829Y-12050174D01*
X12192829Y-12050174D02*
X12202353Y-12012079D01*
X12202353Y-12012079D02*
X12211877Y-11993031D01*
X12211877Y-11993031D02*
X12221401Y-11983508D01*
X12221401Y-11983508D02*
X12240448Y-11973984D01*
X12373782Y-11973984D02*
X12497591Y-11973984D01*
X12497591Y-11973984D02*
X12430925Y-12050174D01*
X12430925Y-12050174D02*
X12459496Y-12050174D01*
X12459496Y-12050174D02*
X12478544Y-12059698D01*
X12478544Y-12059698D02*
X12488067Y-12069222D01*
X12488067Y-12069222D02*
X12497591Y-12088269D01*
X12497591Y-12088269D02*
X12497591Y-12135888D01*
X12497591Y-12135888D02*
X12488067Y-12154936D01*
X12488067Y-12154936D02*
X12478544Y-12164460D01*
X12478544Y-12164460D02*
X12459496Y-12173984D01*
X12459496Y-12173984D02*
X12402353Y-12173984D01*
X12402353Y-12173984D02*
X12383306Y-12164460D01*
X12383306Y-12164460D02*
X12373782Y-12154936D01*
X12688067Y-12173984D02*
X12573782Y-12173984D01*
X12630925Y-12173984D02*
X12630925Y-11973984D01*
X12630925Y-11973984D02*
X12611877Y-12002555D01*
X12611877Y-12002555D02*
X12592829Y-12021603D01*
X12592829Y-12021603D02*
X12573782Y-12031127D01*
X12869020Y-11973984D02*
X12773782Y-11973984D01*
X12773782Y-11973984D02*
X12764258Y-12069222D01*
X12764258Y-12069222D02*
X12773782Y-12059698D01*
X12773782Y-12059698D02*
X12792829Y-12050174D01*
X12792829Y-12050174D02*
X12840448Y-12050174D01*
X12840448Y-12050174D02*
X12859496Y-12059698D01*
X12859496Y-12059698D02*
X12869020Y-12069222D01*
X12869020Y-12069222D02*
X12878544Y-12088269D01*
X12878544Y-12088269D02*
X12878544Y-12135888D01*
X12878544Y-12135888D02*
X12869020Y-12154936D01*
X12869020Y-12154936D02*
X12859496Y-12164460D01*
X12859496Y-12164460D02*
X12840448Y-12173984D01*
X12840448Y-12173984D02*
X12792829Y-12173984D01*
X12792829Y-12173984D02*
X12773782Y-12164460D01*
X12773782Y-12164460D02*
X12764258Y-12154936D01*
X12954734Y-11973984D02*
X12954734Y-12012079D01*
X13030925Y-11973984D02*
X13030925Y-12012079D01*
X13326163Y-12250174D02*
X13316639Y-12240650D01*
X13316639Y-12240650D02*
X13297591Y-12212079D01*
X13297591Y-12212079D02*
X13288068Y-12193031D01*
X13288068Y-12193031D02*
X13278544Y-12164460D01*
X13278544Y-12164460D02*
X13269020Y-12116841D01*
X13269020Y-12116841D02*
X13269020Y-12078746D01*
X13269020Y-12078746D02*
X13278544Y-12031127D01*
X13278544Y-12031127D02*
X13288068Y-12002555D01*
X13288068Y-12002555D02*
X13297591Y-11983508D01*
X13297591Y-11983508D02*
X13316639Y-11954936D01*
X13316639Y-11954936D02*
X13326163Y-11945412D01*
X13507115Y-12173984D02*
X13392829Y-12173984D01*
X13449972Y-12173984D02*
X13449972Y-11973984D01*
X13449972Y-11973984D02*
X13430925Y-12002555D01*
X13430925Y-12002555D02*
X13411877Y-12021603D01*
X13411877Y-12021603D02*
X13392829Y-12031127D01*
X13621401Y-12059698D02*
X13602353Y-12050174D01*
X13602353Y-12050174D02*
X13592829Y-12040650D01*
X13592829Y-12040650D02*
X13583306Y-12021603D01*
X13583306Y-12021603D02*
X13583306Y-12012079D01*
X13583306Y-12012079D02*
X13592829Y-11993031D01*
X13592829Y-11993031D02*
X13602353Y-11983508D01*
X13602353Y-11983508D02*
X13621401Y-11973984D01*
X13621401Y-11973984D02*
X13659496Y-11973984D01*
X13659496Y-11973984D02*
X13678544Y-11983508D01*
X13678544Y-11983508D02*
X13688068Y-11993031D01*
X13688068Y-11993031D02*
X13697591Y-12012079D01*
X13697591Y-12012079D02*
X13697591Y-12021603D01*
X13697591Y-12021603D02*
X13688068Y-12040650D01*
X13688068Y-12040650D02*
X13678544Y-12050174D01*
X13678544Y-12050174D02*
X13659496Y-12059698D01*
X13659496Y-12059698D02*
X13621401Y-12059698D01*
X13621401Y-12059698D02*
X13602353Y-12069222D01*
X13602353Y-12069222D02*
X13592829Y-12078746D01*
X13592829Y-12078746D02*
X13583306Y-12097793D01*
X13583306Y-12097793D02*
X13583306Y-12135888D01*
X13583306Y-12135888D02*
X13592829Y-12154936D01*
X13592829Y-12154936D02*
X13602353Y-12164460D01*
X13602353Y-12164460D02*
X13621401Y-12173984D01*
X13621401Y-12173984D02*
X13659496Y-12173984D01*
X13659496Y-12173984D02*
X13678544Y-12164460D01*
X13678544Y-12164460D02*
X13688068Y-12154936D01*
X13688068Y-12154936D02*
X13697591Y-12135888D01*
X13697591Y-12135888D02*
X13697591Y-12097793D01*
X13697591Y-12097793D02*
X13688068Y-12078746D01*
X13688068Y-12078746D02*
X13678544Y-12069222D01*
X13678544Y-12069222D02*
X13659496Y-12059698D01*
X13935687Y-12173984D02*
X13935687Y-11973984D01*
X14021401Y-12173984D02*
X14021401Y-12069222D01*
X14021401Y-12069222D02*
X14011877Y-12050174D01*
X14011877Y-12050174D02*
X13992830Y-12040650D01*
X13992830Y-12040650D02*
X13964258Y-12040650D01*
X13964258Y-12040650D02*
X13945210Y-12050174D01*
X13945210Y-12050174D02*
X13935687Y-12059698D01*
X14145210Y-12173984D02*
X14126163Y-12164460D01*
X14126163Y-12164460D02*
X14116639Y-12154936D01*
X14116639Y-12154936D02*
X14107115Y-12135888D01*
X14107115Y-12135888D02*
X14107115Y-12078746D01*
X14107115Y-12078746D02*
X14116639Y-12059698D01*
X14116639Y-12059698D02*
X14126163Y-12050174D01*
X14126163Y-12050174D02*
X14145210Y-12040650D01*
X14145210Y-12040650D02*
X14173782Y-12040650D01*
X14173782Y-12040650D02*
X14192830Y-12050174D01*
X14192830Y-12050174D02*
X14202353Y-12059698D01*
X14202353Y-12059698D02*
X14211877Y-12078746D01*
X14211877Y-12078746D02*
X14211877Y-12135888D01*
X14211877Y-12135888D02*
X14202353Y-12154936D01*
X14202353Y-12154936D02*
X14192830Y-12164460D01*
X14192830Y-12164460D02*
X14173782Y-12173984D01*
X14173782Y-12173984D02*
X14145210Y-12173984D01*
X14326163Y-12173984D02*
X14307115Y-12164460D01*
X14307115Y-12164460D02*
X14297591Y-12145412D01*
X14297591Y-12145412D02*
X14297591Y-11973984D01*
X14478544Y-12164460D02*
X14459496Y-12173984D01*
X14459496Y-12173984D02*
X14421401Y-12173984D01*
X14421401Y-12173984D02*
X14402353Y-12164460D01*
X14402353Y-12164460D02*
X14392830Y-12145412D01*
X14392830Y-12145412D02*
X14392830Y-12069222D01*
X14392830Y-12069222D02*
X14402353Y-12050174D01*
X14402353Y-12050174D02*
X14421401Y-12040650D01*
X14421401Y-12040650D02*
X14459496Y-12040650D01*
X14459496Y-12040650D02*
X14478544Y-12050174D01*
X14478544Y-12050174D02*
X14488068Y-12069222D01*
X14488068Y-12069222D02*
X14488068Y-12088269D01*
X14488068Y-12088269D02*
X14392830Y-12107317D01*
X14564258Y-12164460D02*
X14583306Y-12173984D01*
X14583306Y-12173984D02*
X14621401Y-12173984D01*
X14621401Y-12173984D02*
X14640449Y-12164460D01*
X14640449Y-12164460D02*
X14649972Y-12145412D01*
X14649972Y-12145412D02*
X14649972Y-12135888D01*
X14649972Y-12135888D02*
X14640449Y-12116841D01*
X14640449Y-12116841D02*
X14621401Y-12107317D01*
X14621401Y-12107317D02*
X14592830Y-12107317D01*
X14592830Y-12107317D02*
X14573782Y-12097793D01*
X14573782Y-12097793D02*
X14564258Y-12078746D01*
X14564258Y-12078746D02*
X14564258Y-12069222D01*
X14564258Y-12069222D02*
X14573782Y-12050174D01*
X14573782Y-12050174D02*
X14592830Y-12040650D01*
X14592830Y-12040650D02*
X14621401Y-12040650D01*
X14621401Y-12040650D02*
X14640449Y-12050174D01*
X14716639Y-12250174D02*
X14726163Y-12240650D01*
X14726163Y-12240650D02*
X14745211Y-12212079D01*
X14745211Y-12212079D02*
X14754734Y-12193031D01*
X14754734Y-12193031D02*
X14764258Y-12164460D01*
X14764258Y-12164460D02*
X14773782Y-12116841D01*
X14773782Y-12116841D02*
X14773782Y-12078746D01*
X14773782Y-12078746D02*
X14764258Y-12031127D01*
X14764258Y-12031127D02*
X14754734Y-12002555D01*
X14754734Y-12002555D02*
X14745211Y-11983508D01*
X14745211Y-11983508D02*
X14726163Y-11954936D01*
X14726163Y-11954936D02*
X14716639Y-11945412D01*
D12*
X9703600Y-12299000D02*
X9703600Y-12394000D01*
X9656100Y-12346500D02*
X9751100Y-12346500D01*
D11*
X10049972Y-12237984D02*
X10069020Y-12237984D01*
X10069020Y-12237984D02*
X10088067Y-12247508D01*
X10088067Y-12247508D02*
X10097591Y-12257031D01*
X10097591Y-12257031D02*
X10107115Y-12276079D01*
X10107115Y-12276079D02*
X10116639Y-12314174D01*
X10116639Y-12314174D02*
X10116639Y-12361793D01*
X10116639Y-12361793D02*
X10107115Y-12399888D01*
X10107115Y-12399888D02*
X10097591Y-12418936D01*
X10097591Y-12418936D02*
X10088067Y-12428460D01*
X10088067Y-12428460D02*
X10069020Y-12437984D01*
X10069020Y-12437984D02*
X10049972Y-12437984D01*
X10049972Y-12437984D02*
X10030924Y-12428460D01*
X10030924Y-12428460D02*
X10021401Y-12418936D01*
X10021401Y-12418936D02*
X10011877Y-12399888D01*
X10011877Y-12399888D02*
X10002353Y-12361793D01*
X10002353Y-12361793D02*
X10002353Y-12314174D01*
X10002353Y-12314174D02*
X10011877Y-12276079D01*
X10011877Y-12276079D02*
X10021401Y-12257031D01*
X10021401Y-12257031D02*
X10030924Y-12247508D01*
X10030924Y-12247508D02*
X10049972Y-12237984D01*
X10202353Y-12418936D02*
X10211877Y-12428460D01*
X10211877Y-12428460D02*
X10202353Y-12437984D01*
X10202353Y-12437984D02*
X10192829Y-12428460D01*
X10192829Y-12428460D02*
X10202353Y-12418936D01*
X10202353Y-12418936D02*
X10202353Y-12437984D01*
X10307115Y-12437984D02*
X10345210Y-12437984D01*
X10345210Y-12437984D02*
X10364258Y-12428460D01*
X10364258Y-12428460D02*
X10373782Y-12418936D01*
X10373782Y-12418936D02*
X10392829Y-12390365D01*
X10392829Y-12390365D02*
X10402353Y-12352269D01*
X10402353Y-12352269D02*
X10402353Y-12276079D01*
X10402353Y-12276079D02*
X10392829Y-12257031D01*
X10392829Y-12257031D02*
X10383305Y-12247508D01*
X10383305Y-12247508D02*
X10364258Y-12237984D01*
X10364258Y-12237984D02*
X10326163Y-12237984D01*
X10326163Y-12237984D02*
X10307115Y-12247508D01*
X10307115Y-12247508D02*
X10297591Y-12257031D01*
X10297591Y-12257031D02*
X10288067Y-12276079D01*
X10288067Y-12276079D02*
X10288067Y-12323698D01*
X10288067Y-12323698D02*
X10297591Y-12342746D01*
X10297591Y-12342746D02*
X10307115Y-12352269D01*
X10307115Y-12352269D02*
X10326163Y-12361793D01*
X10326163Y-12361793D02*
X10364258Y-12361793D01*
X10364258Y-12361793D02*
X10383305Y-12352269D01*
X10383305Y-12352269D02*
X10392829Y-12342746D01*
X10392829Y-12342746D02*
X10402353Y-12323698D01*
X10583305Y-12237984D02*
X10488067Y-12237984D01*
X10488067Y-12237984D02*
X10478544Y-12333222D01*
X10478544Y-12333222D02*
X10488067Y-12323698D01*
X10488067Y-12323698D02*
X10507115Y-12314174D01*
X10507115Y-12314174D02*
X10554734Y-12314174D01*
X10554734Y-12314174D02*
X10573782Y-12323698D01*
X10573782Y-12323698D02*
X10583305Y-12333222D01*
X10583305Y-12333222D02*
X10592829Y-12352269D01*
X10592829Y-12352269D02*
X10592829Y-12399888D01*
X10592829Y-12399888D02*
X10583305Y-12418936D01*
X10583305Y-12418936D02*
X10573782Y-12428460D01*
X10573782Y-12428460D02*
X10554734Y-12437984D01*
X10554734Y-12437984D02*
X10507115Y-12437984D01*
X10507115Y-12437984D02*
X10488067Y-12428460D01*
X10488067Y-12428460D02*
X10478544Y-12418936D01*
X10716639Y-12237984D02*
X10735686Y-12237984D01*
X10735686Y-12237984D02*
X10754734Y-12247508D01*
X10754734Y-12247508D02*
X10764258Y-12257031D01*
X10764258Y-12257031D02*
X10773782Y-12276079D01*
X10773782Y-12276079D02*
X10783305Y-12314174D01*
X10783305Y-12314174D02*
X10783305Y-12361793D01*
X10783305Y-12361793D02*
X10773782Y-12399888D01*
X10773782Y-12399888D02*
X10764258Y-12418936D01*
X10764258Y-12418936D02*
X10754734Y-12428460D01*
X10754734Y-12428460D02*
X10735686Y-12437984D01*
X10735686Y-12437984D02*
X10716639Y-12437984D01*
X10716639Y-12437984D02*
X10697591Y-12428460D01*
X10697591Y-12428460D02*
X10688067Y-12418936D01*
X10688067Y-12418936D02*
X10678544Y-12399888D01*
X10678544Y-12399888D02*
X10669020Y-12361793D01*
X10669020Y-12361793D02*
X10669020Y-12314174D01*
X10669020Y-12314174D02*
X10678544Y-12276079D01*
X10678544Y-12276079D02*
X10688067Y-12257031D01*
X10688067Y-12257031D02*
X10697591Y-12247508D01*
X10697591Y-12247508D02*
X10716639Y-12237984D01*
X10869020Y-12437984D02*
X10869020Y-12304650D01*
X10869020Y-12323698D02*
X10878544Y-12314174D01*
X10878544Y-12314174D02*
X10897591Y-12304650D01*
X10897591Y-12304650D02*
X10926163Y-12304650D01*
X10926163Y-12304650D02*
X10945210Y-12314174D01*
X10945210Y-12314174D02*
X10954734Y-12333222D01*
X10954734Y-12333222D02*
X10954734Y-12437984D01*
X10954734Y-12333222D02*
X10964258Y-12314174D01*
X10964258Y-12314174D02*
X10983305Y-12304650D01*
X10983305Y-12304650D02*
X11011877Y-12304650D01*
X11011877Y-12304650D02*
X11030925Y-12314174D01*
X11030925Y-12314174D02*
X11040448Y-12333222D01*
X11040448Y-12333222D02*
X11040448Y-12437984D01*
X11135686Y-12437984D02*
X11135686Y-12304650D01*
X11135686Y-12323698D02*
X11145210Y-12314174D01*
X11145210Y-12314174D02*
X11164258Y-12304650D01*
X11164258Y-12304650D02*
X11192829Y-12304650D01*
X11192829Y-12304650D02*
X11211877Y-12314174D01*
X11211877Y-12314174D02*
X11221401Y-12333222D01*
X11221401Y-12333222D02*
X11221401Y-12437984D01*
X11221401Y-12333222D02*
X11230924Y-12314174D01*
X11230924Y-12314174D02*
X11249972Y-12304650D01*
X11249972Y-12304650D02*
X11278543Y-12304650D01*
X11278543Y-12304650D02*
X11297591Y-12314174D01*
X11297591Y-12314174D02*
X11307115Y-12333222D01*
X11307115Y-12333222D02*
X11307115Y-12437984D01*
X11697591Y-12228460D02*
X11526163Y-12485603D01*
X11954734Y-12237984D02*
X11973782Y-12237984D01*
X11973782Y-12237984D02*
X11992829Y-12247508D01*
X11992829Y-12247508D02*
X12002353Y-12257031D01*
X12002353Y-12257031D02*
X12011877Y-12276079D01*
X12011877Y-12276079D02*
X12021401Y-12314174D01*
X12021401Y-12314174D02*
X12021401Y-12361793D01*
X12021401Y-12361793D02*
X12011877Y-12399888D01*
X12011877Y-12399888D02*
X12002353Y-12418936D01*
X12002353Y-12418936D02*
X11992829Y-12428460D01*
X11992829Y-12428460D02*
X11973782Y-12437984D01*
X11973782Y-12437984D02*
X11954734Y-12437984D01*
X11954734Y-12437984D02*
X11935686Y-12428460D01*
X11935686Y-12428460D02*
X11926163Y-12418936D01*
X11926163Y-12418936D02*
X11916639Y-12399888D01*
X11916639Y-12399888D02*
X11907115Y-12361793D01*
X11907115Y-12361793D02*
X11907115Y-12314174D01*
X11907115Y-12314174D02*
X11916639Y-12276079D01*
X11916639Y-12276079D02*
X11926163Y-12257031D01*
X11926163Y-12257031D02*
X11935686Y-12247508D01*
X11935686Y-12247508D02*
X11954734Y-12237984D01*
X12107115Y-12418936D02*
X12116639Y-12428460D01*
X12116639Y-12428460D02*
X12107115Y-12437984D01*
X12107115Y-12437984D02*
X12097591Y-12428460D01*
X12097591Y-12428460D02*
X12107115Y-12418936D01*
X12107115Y-12418936D02*
X12107115Y-12437984D01*
X12240448Y-12237984D02*
X12259496Y-12237984D01*
X12259496Y-12237984D02*
X12278544Y-12247508D01*
X12278544Y-12247508D02*
X12288067Y-12257031D01*
X12288067Y-12257031D02*
X12297591Y-12276079D01*
X12297591Y-12276079D02*
X12307115Y-12314174D01*
X12307115Y-12314174D02*
X12307115Y-12361793D01*
X12307115Y-12361793D02*
X12297591Y-12399888D01*
X12297591Y-12399888D02*
X12288067Y-12418936D01*
X12288067Y-12418936D02*
X12278544Y-12428460D01*
X12278544Y-12428460D02*
X12259496Y-12437984D01*
X12259496Y-12437984D02*
X12240448Y-12437984D01*
X12240448Y-12437984D02*
X12221401Y-12428460D01*
X12221401Y-12428460D02*
X12211877Y-12418936D01*
X12211877Y-12418936D02*
X12202353Y-12399888D01*
X12202353Y-12399888D02*
X12192829Y-12361793D01*
X12192829Y-12361793D02*
X12192829Y-12314174D01*
X12192829Y-12314174D02*
X12202353Y-12276079D01*
X12202353Y-12276079D02*
X12211877Y-12257031D01*
X12211877Y-12257031D02*
X12221401Y-12247508D01*
X12221401Y-12247508D02*
X12240448Y-12237984D01*
X12373782Y-12237984D02*
X12497591Y-12237984D01*
X12497591Y-12237984D02*
X12430925Y-12314174D01*
X12430925Y-12314174D02*
X12459496Y-12314174D01*
X12459496Y-12314174D02*
X12478544Y-12323698D01*
X12478544Y-12323698D02*
X12488067Y-12333222D01*
X12488067Y-12333222D02*
X12497591Y-12352269D01*
X12497591Y-12352269D02*
X12497591Y-12399888D01*
X12497591Y-12399888D02*
X12488067Y-12418936D01*
X12488067Y-12418936D02*
X12478544Y-12428460D01*
X12478544Y-12428460D02*
X12459496Y-12437984D01*
X12459496Y-12437984D02*
X12402353Y-12437984D01*
X12402353Y-12437984D02*
X12383306Y-12428460D01*
X12383306Y-12428460D02*
X12373782Y-12418936D01*
X12564258Y-12237984D02*
X12697591Y-12237984D01*
X12697591Y-12237984D02*
X12611877Y-12437984D01*
X12859496Y-12304650D02*
X12859496Y-12437984D01*
X12811877Y-12228460D02*
X12764258Y-12371317D01*
X12764258Y-12371317D02*
X12888067Y-12371317D01*
X12954734Y-12237984D02*
X12954734Y-12276079D01*
X13030925Y-12237984D02*
X13030925Y-12276079D01*
X13326163Y-12514174D02*
X13316639Y-12504650D01*
X13316639Y-12504650D02*
X13297591Y-12476079D01*
X13297591Y-12476079D02*
X13288068Y-12457031D01*
X13288068Y-12457031D02*
X13278544Y-12428460D01*
X13278544Y-12428460D02*
X13269020Y-12380841D01*
X13269020Y-12380841D02*
X13269020Y-12342746D01*
X13269020Y-12342746D02*
X13278544Y-12295127D01*
X13278544Y-12295127D02*
X13288068Y-12266555D01*
X13288068Y-12266555D02*
X13297591Y-12247508D01*
X13297591Y-12247508D02*
X13316639Y-12218936D01*
X13316639Y-12218936D02*
X13326163Y-12209412D01*
X13497591Y-12237984D02*
X13402353Y-12237984D01*
X13402353Y-12237984D02*
X13392829Y-12333222D01*
X13392829Y-12333222D02*
X13402353Y-12323698D01*
X13402353Y-12323698D02*
X13421401Y-12314174D01*
X13421401Y-12314174D02*
X13469020Y-12314174D01*
X13469020Y-12314174D02*
X13488068Y-12323698D01*
X13488068Y-12323698D02*
X13497591Y-12333222D01*
X13497591Y-12333222D02*
X13507115Y-12352269D01*
X13507115Y-12352269D02*
X13507115Y-12399888D01*
X13507115Y-12399888D02*
X13497591Y-12418936D01*
X13497591Y-12418936D02*
X13488068Y-12428460D01*
X13488068Y-12428460D02*
X13469020Y-12437984D01*
X13469020Y-12437984D02*
X13421401Y-12437984D01*
X13421401Y-12437984D02*
X13402353Y-12428460D01*
X13402353Y-12428460D02*
X13392829Y-12418936D01*
X13745210Y-12437984D02*
X13745210Y-12237984D01*
X13830925Y-12437984D02*
X13830925Y-12333222D01*
X13830925Y-12333222D02*
X13821401Y-12314174D01*
X13821401Y-12314174D02*
X13802353Y-12304650D01*
X13802353Y-12304650D02*
X13773782Y-12304650D01*
X13773782Y-12304650D02*
X13754734Y-12314174D01*
X13754734Y-12314174D02*
X13745210Y-12323698D01*
X13954734Y-12437984D02*
X13935687Y-12428460D01*
X13935687Y-12428460D02*
X13926163Y-12418936D01*
X13926163Y-12418936D02*
X13916639Y-12399888D01*
X13916639Y-12399888D02*
X13916639Y-12342746D01*
X13916639Y-12342746D02*
X13926163Y-12323698D01*
X13926163Y-12323698D02*
X13935687Y-12314174D01*
X13935687Y-12314174D02*
X13954734Y-12304650D01*
X13954734Y-12304650D02*
X13983306Y-12304650D01*
X13983306Y-12304650D02*
X14002353Y-12314174D01*
X14002353Y-12314174D02*
X14011877Y-12323698D01*
X14011877Y-12323698D02*
X14021401Y-12342746D01*
X14021401Y-12342746D02*
X14021401Y-12399888D01*
X14021401Y-12399888D02*
X14011877Y-12418936D01*
X14011877Y-12418936D02*
X14002353Y-12428460D01*
X14002353Y-12428460D02*
X13983306Y-12437984D01*
X13983306Y-12437984D02*
X13954734Y-12437984D01*
X14135687Y-12437984D02*
X14116639Y-12428460D01*
X14116639Y-12428460D02*
X14107115Y-12409412D01*
X14107115Y-12409412D02*
X14107115Y-12237984D01*
X14288068Y-12428460D02*
X14269020Y-12437984D01*
X14269020Y-12437984D02*
X14230925Y-12437984D01*
X14230925Y-12437984D02*
X14211877Y-12428460D01*
X14211877Y-12428460D02*
X14202353Y-12409412D01*
X14202353Y-12409412D02*
X14202353Y-12333222D01*
X14202353Y-12333222D02*
X14211877Y-12314174D01*
X14211877Y-12314174D02*
X14230925Y-12304650D01*
X14230925Y-12304650D02*
X14269020Y-12304650D01*
X14269020Y-12304650D02*
X14288068Y-12314174D01*
X14288068Y-12314174D02*
X14297591Y-12333222D01*
X14297591Y-12333222D02*
X14297591Y-12352269D01*
X14297591Y-12352269D02*
X14202353Y-12371317D01*
X14373782Y-12428460D02*
X14392830Y-12437984D01*
X14392830Y-12437984D02*
X14430925Y-12437984D01*
X14430925Y-12437984D02*
X14449972Y-12428460D01*
X14449972Y-12428460D02*
X14459496Y-12409412D01*
X14459496Y-12409412D02*
X14459496Y-12399888D01*
X14459496Y-12399888D02*
X14449972Y-12380841D01*
X14449972Y-12380841D02*
X14430925Y-12371317D01*
X14430925Y-12371317D02*
X14402353Y-12371317D01*
X14402353Y-12371317D02*
X14383306Y-12361793D01*
X14383306Y-12361793D02*
X14373782Y-12342746D01*
X14373782Y-12342746D02*
X14373782Y-12333222D01*
X14373782Y-12333222D02*
X14383306Y-12314174D01*
X14383306Y-12314174D02*
X14402353Y-12304650D01*
X14402353Y-12304650D02*
X14430925Y-12304650D01*
X14430925Y-12304650D02*
X14449972Y-12314174D01*
X14526163Y-12514174D02*
X14535687Y-12504650D01*
X14535687Y-12504650D02*
X14554734Y-12476079D01*
X14554734Y-12476079D02*
X14564258Y-12457031D01*
X14564258Y-12457031D02*
X14573782Y-12428460D01*
X14573782Y-12428460D02*
X14583306Y-12380841D01*
X14583306Y-12380841D02*
X14583306Y-12342746D01*
X14583306Y-12342746D02*
X14573782Y-12295127D01*
X14573782Y-12295127D02*
X14564258Y-12266555D01*
X14564258Y-12266555D02*
X14554734Y-12247508D01*
X14554734Y-12247508D02*
X14535687Y-12218936D01*
X14535687Y-12218936D02*
X14526163Y-12209412D01*
D12*
X9736456Y-12645856D02*
X9736456Y-12575144D01*
X9665744Y-12575144D01*
X9665744Y-12645856D01*
X9736456Y-12645856D01*
D11*
X10116639Y-12701984D02*
X10002353Y-12701984D01*
X10059496Y-12701984D02*
X10059496Y-12501984D01*
X10059496Y-12501984D02*
X10040448Y-12530555D01*
X10040448Y-12530555D02*
X10021401Y-12549603D01*
X10021401Y-12549603D02*
X10002353Y-12559127D01*
X10202353Y-12682936D02*
X10211877Y-12692460D01*
X10211877Y-12692460D02*
X10202353Y-12701984D01*
X10202353Y-12701984D02*
X10192829Y-12692460D01*
X10192829Y-12692460D02*
X10202353Y-12682936D01*
X10202353Y-12682936D02*
X10202353Y-12701984D01*
X10335686Y-12501984D02*
X10354734Y-12501984D01*
X10354734Y-12501984D02*
X10373782Y-12511508D01*
X10373782Y-12511508D02*
X10383305Y-12521031D01*
X10383305Y-12521031D02*
X10392829Y-12540079D01*
X10392829Y-12540079D02*
X10402353Y-12578174D01*
X10402353Y-12578174D02*
X10402353Y-12625793D01*
X10402353Y-12625793D02*
X10392829Y-12663888D01*
X10392829Y-12663888D02*
X10383305Y-12682936D01*
X10383305Y-12682936D02*
X10373782Y-12692460D01*
X10373782Y-12692460D02*
X10354734Y-12701984D01*
X10354734Y-12701984D02*
X10335686Y-12701984D01*
X10335686Y-12701984D02*
X10316639Y-12692460D01*
X10316639Y-12692460D02*
X10307115Y-12682936D01*
X10307115Y-12682936D02*
X10297591Y-12663888D01*
X10297591Y-12663888D02*
X10288067Y-12625793D01*
X10288067Y-12625793D02*
X10288067Y-12578174D01*
X10288067Y-12578174D02*
X10297591Y-12540079D01*
X10297591Y-12540079D02*
X10307115Y-12521031D01*
X10307115Y-12521031D02*
X10316639Y-12511508D01*
X10316639Y-12511508D02*
X10335686Y-12501984D01*
X10526163Y-12501984D02*
X10545210Y-12501984D01*
X10545210Y-12501984D02*
X10564258Y-12511508D01*
X10564258Y-12511508D02*
X10573782Y-12521031D01*
X10573782Y-12521031D02*
X10583305Y-12540079D01*
X10583305Y-12540079D02*
X10592829Y-12578174D01*
X10592829Y-12578174D02*
X10592829Y-12625793D01*
X10592829Y-12625793D02*
X10583305Y-12663888D01*
X10583305Y-12663888D02*
X10573782Y-12682936D01*
X10573782Y-12682936D02*
X10564258Y-12692460D01*
X10564258Y-12692460D02*
X10545210Y-12701984D01*
X10545210Y-12701984D02*
X10526163Y-12701984D01*
X10526163Y-12701984D02*
X10507115Y-12692460D01*
X10507115Y-12692460D02*
X10497591Y-12682936D01*
X10497591Y-12682936D02*
X10488067Y-12663888D01*
X10488067Y-12663888D02*
X10478544Y-12625793D01*
X10478544Y-12625793D02*
X10478544Y-12578174D01*
X10478544Y-12578174D02*
X10488067Y-12540079D01*
X10488067Y-12540079D02*
X10497591Y-12521031D01*
X10497591Y-12521031D02*
X10507115Y-12511508D01*
X10507115Y-12511508D02*
X10526163Y-12501984D01*
X10716639Y-12501984D02*
X10735686Y-12501984D01*
X10735686Y-12501984D02*
X10754734Y-12511508D01*
X10754734Y-12511508D02*
X10764258Y-12521031D01*
X10764258Y-12521031D02*
X10773782Y-12540079D01*
X10773782Y-12540079D02*
X10783305Y-12578174D01*
X10783305Y-12578174D02*
X10783305Y-12625793D01*
X10783305Y-12625793D02*
X10773782Y-12663888D01*
X10773782Y-12663888D02*
X10764258Y-12682936D01*
X10764258Y-12682936D02*
X10754734Y-12692460D01*
X10754734Y-12692460D02*
X10735686Y-12701984D01*
X10735686Y-12701984D02*
X10716639Y-12701984D01*
X10716639Y-12701984D02*
X10697591Y-12692460D01*
X10697591Y-12692460D02*
X10688067Y-12682936D01*
X10688067Y-12682936D02*
X10678544Y-12663888D01*
X10678544Y-12663888D02*
X10669020Y-12625793D01*
X10669020Y-12625793D02*
X10669020Y-12578174D01*
X10669020Y-12578174D02*
X10678544Y-12540079D01*
X10678544Y-12540079D02*
X10688067Y-12521031D01*
X10688067Y-12521031D02*
X10697591Y-12511508D01*
X10697591Y-12511508D02*
X10716639Y-12501984D01*
X10869020Y-12701984D02*
X10869020Y-12568650D01*
X10869020Y-12587698D02*
X10878544Y-12578174D01*
X10878544Y-12578174D02*
X10897591Y-12568650D01*
X10897591Y-12568650D02*
X10926163Y-12568650D01*
X10926163Y-12568650D02*
X10945210Y-12578174D01*
X10945210Y-12578174D02*
X10954734Y-12597222D01*
X10954734Y-12597222D02*
X10954734Y-12701984D01*
X10954734Y-12597222D02*
X10964258Y-12578174D01*
X10964258Y-12578174D02*
X10983305Y-12568650D01*
X10983305Y-12568650D02*
X11011877Y-12568650D01*
X11011877Y-12568650D02*
X11030925Y-12578174D01*
X11030925Y-12578174D02*
X11040448Y-12597222D01*
X11040448Y-12597222D02*
X11040448Y-12701984D01*
X11135686Y-12701984D02*
X11135686Y-12568650D01*
X11135686Y-12587698D02*
X11145210Y-12578174D01*
X11145210Y-12578174D02*
X11164258Y-12568650D01*
X11164258Y-12568650D02*
X11192829Y-12568650D01*
X11192829Y-12568650D02*
X11211877Y-12578174D01*
X11211877Y-12578174D02*
X11221401Y-12597222D01*
X11221401Y-12597222D02*
X11221401Y-12701984D01*
X11221401Y-12597222D02*
X11230924Y-12578174D01*
X11230924Y-12578174D02*
X11249972Y-12568650D01*
X11249972Y-12568650D02*
X11278543Y-12568650D01*
X11278543Y-12568650D02*
X11297591Y-12578174D01*
X11297591Y-12578174D02*
X11307115Y-12597222D01*
X11307115Y-12597222D02*
X11307115Y-12701984D01*
X11697591Y-12492460D02*
X11526163Y-12749603D01*
X11954734Y-12501984D02*
X11973782Y-12501984D01*
X11973782Y-12501984D02*
X11992829Y-12511508D01*
X11992829Y-12511508D02*
X12002353Y-12521031D01*
X12002353Y-12521031D02*
X12011877Y-12540079D01*
X12011877Y-12540079D02*
X12021401Y-12578174D01*
X12021401Y-12578174D02*
X12021401Y-12625793D01*
X12021401Y-12625793D02*
X12011877Y-12663888D01*
X12011877Y-12663888D02*
X12002353Y-12682936D01*
X12002353Y-12682936D02*
X11992829Y-12692460D01*
X11992829Y-12692460D02*
X11973782Y-12701984D01*
X11973782Y-12701984D02*
X11954734Y-12701984D01*
X11954734Y-12701984D02*
X11935686Y-12692460D01*
X11935686Y-12692460D02*
X11926163Y-12682936D01*
X11926163Y-12682936D02*
X11916639Y-12663888D01*
X11916639Y-12663888D02*
X11907115Y-12625793D01*
X11907115Y-12625793D02*
X11907115Y-12578174D01*
X11907115Y-12578174D02*
X11916639Y-12540079D01*
X11916639Y-12540079D02*
X11926163Y-12521031D01*
X11926163Y-12521031D02*
X11935686Y-12511508D01*
X11935686Y-12511508D02*
X11954734Y-12501984D01*
X12107115Y-12682936D02*
X12116639Y-12692460D01*
X12116639Y-12692460D02*
X12107115Y-12701984D01*
X12107115Y-12701984D02*
X12097591Y-12692460D01*
X12097591Y-12692460D02*
X12107115Y-12682936D01*
X12107115Y-12682936D02*
X12107115Y-12701984D01*
X12240448Y-12501984D02*
X12259496Y-12501984D01*
X12259496Y-12501984D02*
X12278544Y-12511508D01*
X12278544Y-12511508D02*
X12288067Y-12521031D01*
X12288067Y-12521031D02*
X12297591Y-12540079D01*
X12297591Y-12540079D02*
X12307115Y-12578174D01*
X12307115Y-12578174D02*
X12307115Y-12625793D01*
X12307115Y-12625793D02*
X12297591Y-12663888D01*
X12297591Y-12663888D02*
X12288067Y-12682936D01*
X12288067Y-12682936D02*
X12278544Y-12692460D01*
X12278544Y-12692460D02*
X12259496Y-12701984D01*
X12259496Y-12701984D02*
X12240448Y-12701984D01*
X12240448Y-12701984D02*
X12221401Y-12692460D01*
X12221401Y-12692460D02*
X12211877Y-12682936D01*
X12211877Y-12682936D02*
X12202353Y-12663888D01*
X12202353Y-12663888D02*
X12192829Y-12625793D01*
X12192829Y-12625793D02*
X12192829Y-12578174D01*
X12192829Y-12578174D02*
X12202353Y-12540079D01*
X12202353Y-12540079D02*
X12211877Y-12521031D01*
X12211877Y-12521031D02*
X12221401Y-12511508D01*
X12221401Y-12511508D02*
X12240448Y-12501984D01*
X12373782Y-12501984D02*
X12497591Y-12501984D01*
X12497591Y-12501984D02*
X12430925Y-12578174D01*
X12430925Y-12578174D02*
X12459496Y-12578174D01*
X12459496Y-12578174D02*
X12478544Y-12587698D01*
X12478544Y-12587698D02*
X12488067Y-12597222D01*
X12488067Y-12597222D02*
X12497591Y-12616269D01*
X12497591Y-12616269D02*
X12497591Y-12663888D01*
X12497591Y-12663888D02*
X12488067Y-12682936D01*
X12488067Y-12682936D02*
X12478544Y-12692460D01*
X12478544Y-12692460D02*
X12459496Y-12701984D01*
X12459496Y-12701984D02*
X12402353Y-12701984D01*
X12402353Y-12701984D02*
X12383306Y-12692460D01*
X12383306Y-12692460D02*
X12373782Y-12682936D01*
X12592829Y-12701984D02*
X12630925Y-12701984D01*
X12630925Y-12701984D02*
X12649972Y-12692460D01*
X12649972Y-12692460D02*
X12659496Y-12682936D01*
X12659496Y-12682936D02*
X12678544Y-12654365D01*
X12678544Y-12654365D02*
X12688067Y-12616269D01*
X12688067Y-12616269D02*
X12688067Y-12540079D01*
X12688067Y-12540079D02*
X12678544Y-12521031D01*
X12678544Y-12521031D02*
X12669020Y-12511508D01*
X12669020Y-12511508D02*
X12649972Y-12501984D01*
X12649972Y-12501984D02*
X12611877Y-12501984D01*
X12611877Y-12501984D02*
X12592829Y-12511508D01*
X12592829Y-12511508D02*
X12583306Y-12521031D01*
X12583306Y-12521031D02*
X12573782Y-12540079D01*
X12573782Y-12540079D02*
X12573782Y-12587698D01*
X12573782Y-12587698D02*
X12583306Y-12606746D01*
X12583306Y-12606746D02*
X12592829Y-12616269D01*
X12592829Y-12616269D02*
X12611877Y-12625793D01*
X12611877Y-12625793D02*
X12649972Y-12625793D01*
X12649972Y-12625793D02*
X12669020Y-12616269D01*
X12669020Y-12616269D02*
X12678544Y-12606746D01*
X12678544Y-12606746D02*
X12688067Y-12587698D01*
X12859496Y-12568650D02*
X12859496Y-12701984D01*
X12811877Y-12492460D02*
X12764258Y-12635317D01*
X12764258Y-12635317D02*
X12888067Y-12635317D01*
X12954734Y-12501984D02*
X12954734Y-12540079D01*
X13030925Y-12501984D02*
X13030925Y-12540079D01*
X13326163Y-12778174D02*
X13316639Y-12768650D01*
X13316639Y-12768650D02*
X13297591Y-12740079D01*
X13297591Y-12740079D02*
X13288068Y-12721031D01*
X13288068Y-12721031D02*
X13278544Y-12692460D01*
X13278544Y-12692460D02*
X13269020Y-12644841D01*
X13269020Y-12644841D02*
X13269020Y-12606746D01*
X13269020Y-12606746D02*
X13278544Y-12559127D01*
X13278544Y-12559127D02*
X13288068Y-12530555D01*
X13288068Y-12530555D02*
X13297591Y-12511508D01*
X13297591Y-12511508D02*
X13316639Y-12482936D01*
X13316639Y-12482936D02*
X13326163Y-12473412D01*
X13507115Y-12701984D02*
X13392829Y-12701984D01*
X13449972Y-12701984D02*
X13449972Y-12501984D01*
X13449972Y-12501984D02*
X13430925Y-12530555D01*
X13430925Y-12530555D02*
X13411877Y-12549603D01*
X13411877Y-12549603D02*
X13392829Y-12559127D01*
X13602353Y-12701984D02*
X13640448Y-12701984D01*
X13640448Y-12701984D02*
X13659496Y-12692460D01*
X13659496Y-12692460D02*
X13669020Y-12682936D01*
X13669020Y-12682936D02*
X13688068Y-12654365D01*
X13688068Y-12654365D02*
X13697591Y-12616269D01*
X13697591Y-12616269D02*
X13697591Y-12540079D01*
X13697591Y-12540079D02*
X13688068Y-12521031D01*
X13688068Y-12521031D02*
X13678544Y-12511508D01*
X13678544Y-12511508D02*
X13659496Y-12501984D01*
X13659496Y-12501984D02*
X13621401Y-12501984D01*
X13621401Y-12501984D02*
X13602353Y-12511508D01*
X13602353Y-12511508D02*
X13592829Y-12521031D01*
X13592829Y-12521031D02*
X13583306Y-12540079D01*
X13583306Y-12540079D02*
X13583306Y-12587698D01*
X13583306Y-12587698D02*
X13592829Y-12606746D01*
X13592829Y-12606746D02*
X13602353Y-12616269D01*
X13602353Y-12616269D02*
X13621401Y-12625793D01*
X13621401Y-12625793D02*
X13659496Y-12625793D01*
X13659496Y-12625793D02*
X13678544Y-12616269D01*
X13678544Y-12616269D02*
X13688068Y-12606746D01*
X13688068Y-12606746D02*
X13697591Y-12587698D01*
X13935687Y-12701984D02*
X13935687Y-12501984D01*
X14021401Y-12701984D02*
X14021401Y-12597222D01*
X14021401Y-12597222D02*
X14011877Y-12578174D01*
X14011877Y-12578174D02*
X13992830Y-12568650D01*
X13992830Y-12568650D02*
X13964258Y-12568650D01*
X13964258Y-12568650D02*
X13945210Y-12578174D01*
X13945210Y-12578174D02*
X13935687Y-12587698D01*
X14145210Y-12701984D02*
X14126163Y-12692460D01*
X14126163Y-12692460D02*
X14116639Y-12682936D01*
X14116639Y-12682936D02*
X14107115Y-12663888D01*
X14107115Y-12663888D02*
X14107115Y-12606746D01*
X14107115Y-12606746D02*
X14116639Y-12587698D01*
X14116639Y-12587698D02*
X14126163Y-12578174D01*
X14126163Y-12578174D02*
X14145210Y-12568650D01*
X14145210Y-12568650D02*
X14173782Y-12568650D01*
X14173782Y-12568650D02*
X14192830Y-12578174D01*
X14192830Y-12578174D02*
X14202353Y-12587698D01*
X14202353Y-12587698D02*
X14211877Y-12606746D01*
X14211877Y-12606746D02*
X14211877Y-12663888D01*
X14211877Y-12663888D02*
X14202353Y-12682936D01*
X14202353Y-12682936D02*
X14192830Y-12692460D01*
X14192830Y-12692460D02*
X14173782Y-12701984D01*
X14173782Y-12701984D02*
X14145210Y-12701984D01*
X14326163Y-12701984D02*
X14307115Y-12692460D01*
X14307115Y-12692460D02*
X14297591Y-12673412D01*
X14297591Y-12673412D02*
X14297591Y-12501984D01*
X14478544Y-12692460D02*
X14459496Y-12701984D01*
X14459496Y-12701984D02*
X14421401Y-12701984D01*
X14421401Y-12701984D02*
X14402353Y-12692460D01*
X14402353Y-12692460D02*
X14392830Y-12673412D01*
X14392830Y-12673412D02*
X14392830Y-12597222D01*
X14392830Y-12597222D02*
X14402353Y-12578174D01*
X14402353Y-12578174D02*
X14421401Y-12568650D01*
X14421401Y-12568650D02*
X14459496Y-12568650D01*
X14459496Y-12568650D02*
X14478544Y-12578174D01*
X14478544Y-12578174D02*
X14488068Y-12597222D01*
X14488068Y-12597222D02*
X14488068Y-12616269D01*
X14488068Y-12616269D02*
X14392830Y-12635317D01*
X14564258Y-12692460D02*
X14583306Y-12701984D01*
X14583306Y-12701984D02*
X14621401Y-12701984D01*
X14621401Y-12701984D02*
X14640449Y-12692460D01*
X14640449Y-12692460D02*
X14649972Y-12673412D01*
X14649972Y-12673412D02*
X14649972Y-12663888D01*
X14649972Y-12663888D02*
X14640449Y-12644841D01*
X14640449Y-12644841D02*
X14621401Y-12635317D01*
X14621401Y-12635317D02*
X14592830Y-12635317D01*
X14592830Y-12635317D02*
X14573782Y-12625793D01*
X14573782Y-12625793D02*
X14564258Y-12606746D01*
X14564258Y-12606746D02*
X14564258Y-12597222D01*
X14564258Y-12597222D02*
X14573782Y-12578174D01*
X14573782Y-12578174D02*
X14592830Y-12568650D01*
X14592830Y-12568650D02*
X14621401Y-12568650D01*
X14621401Y-12568650D02*
X14640449Y-12578174D01*
X14716639Y-12778174D02*
X14726163Y-12768650D01*
X14726163Y-12768650D02*
X14745211Y-12740079D01*
X14745211Y-12740079D02*
X14754734Y-12721031D01*
X14754734Y-12721031D02*
X14764258Y-12692460D01*
X14764258Y-12692460D02*
X14773782Y-12644841D01*
X14773782Y-12644841D02*
X14773782Y-12606746D01*
X14773782Y-12606746D02*
X14764258Y-12559127D01*
X14764258Y-12559127D02*
X14754734Y-12530555D01*
X14754734Y-12530555D02*
X14745211Y-12511508D01*
X14745211Y-12511508D02*
X14726163Y-12482936D01*
X14726163Y-12482936D02*
X14716639Y-12473412D01*
X9651100Y-12974500D02*
X9751100Y-12874500D01*
X9651100Y-12774500D01*
X9551100Y-12874500D01*
X9651100Y-12974500D01*
X10002353Y-12785031D02*
X10011877Y-12775508D01*
X10011877Y-12775508D02*
X10030924Y-12765984D01*
X10030924Y-12765984D02*
X10078544Y-12765984D01*
X10078544Y-12765984D02*
X10097591Y-12775508D01*
X10097591Y-12775508D02*
X10107115Y-12785031D01*
X10107115Y-12785031D02*
X10116639Y-12804079D01*
X10116639Y-12804079D02*
X10116639Y-12823127D01*
X10116639Y-12823127D02*
X10107115Y-12851698D01*
X10107115Y-12851698D02*
X9992829Y-12965984D01*
X9992829Y-12965984D02*
X10116639Y-12965984D01*
X10202353Y-12946936D02*
X10211877Y-12956460D01*
X10211877Y-12956460D02*
X10202353Y-12965984D01*
X10202353Y-12965984D02*
X10192829Y-12956460D01*
X10192829Y-12956460D02*
X10202353Y-12946936D01*
X10202353Y-12946936D02*
X10202353Y-12965984D01*
X10392829Y-12765984D02*
X10297591Y-12765984D01*
X10297591Y-12765984D02*
X10288067Y-12861222D01*
X10288067Y-12861222D02*
X10297591Y-12851698D01*
X10297591Y-12851698D02*
X10316639Y-12842174D01*
X10316639Y-12842174D02*
X10364258Y-12842174D01*
X10364258Y-12842174D02*
X10383305Y-12851698D01*
X10383305Y-12851698D02*
X10392829Y-12861222D01*
X10392829Y-12861222D02*
X10402353Y-12880269D01*
X10402353Y-12880269D02*
X10402353Y-12927888D01*
X10402353Y-12927888D02*
X10392829Y-12946936D01*
X10392829Y-12946936D02*
X10383305Y-12956460D01*
X10383305Y-12956460D02*
X10364258Y-12965984D01*
X10364258Y-12965984D02*
X10316639Y-12965984D01*
X10316639Y-12965984D02*
X10297591Y-12956460D01*
X10297591Y-12956460D02*
X10288067Y-12946936D01*
X10526163Y-12765984D02*
X10545210Y-12765984D01*
X10545210Y-12765984D02*
X10564258Y-12775508D01*
X10564258Y-12775508D02*
X10573782Y-12785031D01*
X10573782Y-12785031D02*
X10583305Y-12804079D01*
X10583305Y-12804079D02*
X10592829Y-12842174D01*
X10592829Y-12842174D02*
X10592829Y-12889793D01*
X10592829Y-12889793D02*
X10583305Y-12927888D01*
X10583305Y-12927888D02*
X10573782Y-12946936D01*
X10573782Y-12946936D02*
X10564258Y-12956460D01*
X10564258Y-12956460D02*
X10545210Y-12965984D01*
X10545210Y-12965984D02*
X10526163Y-12965984D01*
X10526163Y-12965984D02*
X10507115Y-12956460D01*
X10507115Y-12956460D02*
X10497591Y-12946936D01*
X10497591Y-12946936D02*
X10488067Y-12927888D01*
X10488067Y-12927888D02*
X10478544Y-12889793D01*
X10478544Y-12889793D02*
X10478544Y-12842174D01*
X10478544Y-12842174D02*
X10488067Y-12804079D01*
X10488067Y-12804079D02*
X10497591Y-12785031D01*
X10497591Y-12785031D02*
X10507115Y-12775508D01*
X10507115Y-12775508D02*
X10526163Y-12765984D01*
X10716639Y-12765984D02*
X10735686Y-12765984D01*
X10735686Y-12765984D02*
X10754734Y-12775508D01*
X10754734Y-12775508D02*
X10764258Y-12785031D01*
X10764258Y-12785031D02*
X10773782Y-12804079D01*
X10773782Y-12804079D02*
X10783305Y-12842174D01*
X10783305Y-12842174D02*
X10783305Y-12889793D01*
X10783305Y-12889793D02*
X10773782Y-12927888D01*
X10773782Y-12927888D02*
X10764258Y-12946936D01*
X10764258Y-12946936D02*
X10754734Y-12956460D01*
X10754734Y-12956460D02*
X10735686Y-12965984D01*
X10735686Y-12965984D02*
X10716639Y-12965984D01*
X10716639Y-12965984D02*
X10697591Y-12956460D01*
X10697591Y-12956460D02*
X10688067Y-12946936D01*
X10688067Y-12946936D02*
X10678544Y-12927888D01*
X10678544Y-12927888D02*
X10669020Y-12889793D01*
X10669020Y-12889793D02*
X10669020Y-12842174D01*
X10669020Y-12842174D02*
X10678544Y-12804079D01*
X10678544Y-12804079D02*
X10688067Y-12785031D01*
X10688067Y-12785031D02*
X10697591Y-12775508D01*
X10697591Y-12775508D02*
X10716639Y-12765984D01*
X10869020Y-12965984D02*
X10869020Y-12832650D01*
X10869020Y-12851698D02*
X10878544Y-12842174D01*
X10878544Y-12842174D02*
X10897591Y-12832650D01*
X10897591Y-12832650D02*
X10926163Y-12832650D01*
X10926163Y-12832650D02*
X10945210Y-12842174D01*
X10945210Y-12842174D02*
X10954734Y-12861222D01*
X10954734Y-12861222D02*
X10954734Y-12965984D01*
X10954734Y-12861222D02*
X10964258Y-12842174D01*
X10964258Y-12842174D02*
X10983305Y-12832650D01*
X10983305Y-12832650D02*
X11011877Y-12832650D01*
X11011877Y-12832650D02*
X11030925Y-12842174D01*
X11030925Y-12842174D02*
X11040448Y-12861222D01*
X11040448Y-12861222D02*
X11040448Y-12965984D01*
X11135686Y-12965984D02*
X11135686Y-12832650D01*
X11135686Y-12851698D02*
X11145210Y-12842174D01*
X11145210Y-12842174D02*
X11164258Y-12832650D01*
X11164258Y-12832650D02*
X11192829Y-12832650D01*
X11192829Y-12832650D02*
X11211877Y-12842174D01*
X11211877Y-12842174D02*
X11221401Y-12861222D01*
X11221401Y-12861222D02*
X11221401Y-12965984D01*
X11221401Y-12861222D02*
X11230924Y-12842174D01*
X11230924Y-12842174D02*
X11249972Y-12832650D01*
X11249972Y-12832650D02*
X11278543Y-12832650D01*
X11278543Y-12832650D02*
X11297591Y-12842174D01*
X11297591Y-12842174D02*
X11307115Y-12861222D01*
X11307115Y-12861222D02*
X11307115Y-12965984D01*
X11697591Y-12756460D02*
X11526163Y-13013603D01*
X11954734Y-12765984D02*
X11973782Y-12765984D01*
X11973782Y-12765984D02*
X11992829Y-12775508D01*
X11992829Y-12775508D02*
X12002353Y-12785031D01*
X12002353Y-12785031D02*
X12011877Y-12804079D01*
X12011877Y-12804079D02*
X12021401Y-12842174D01*
X12021401Y-12842174D02*
X12021401Y-12889793D01*
X12021401Y-12889793D02*
X12011877Y-12927888D01*
X12011877Y-12927888D02*
X12002353Y-12946936D01*
X12002353Y-12946936D02*
X11992829Y-12956460D01*
X11992829Y-12956460D02*
X11973782Y-12965984D01*
X11973782Y-12965984D02*
X11954734Y-12965984D01*
X11954734Y-12965984D02*
X11935686Y-12956460D01*
X11935686Y-12956460D02*
X11926163Y-12946936D01*
X11926163Y-12946936D02*
X11916639Y-12927888D01*
X11916639Y-12927888D02*
X11907115Y-12889793D01*
X11907115Y-12889793D02*
X11907115Y-12842174D01*
X11907115Y-12842174D02*
X11916639Y-12804079D01*
X11916639Y-12804079D02*
X11926163Y-12785031D01*
X11926163Y-12785031D02*
X11935686Y-12775508D01*
X11935686Y-12775508D02*
X11954734Y-12765984D01*
X12107115Y-12946936D02*
X12116639Y-12956460D01*
X12116639Y-12956460D02*
X12107115Y-12965984D01*
X12107115Y-12965984D02*
X12097591Y-12956460D01*
X12097591Y-12956460D02*
X12107115Y-12946936D01*
X12107115Y-12946936D02*
X12107115Y-12965984D01*
X12240448Y-12765984D02*
X12259496Y-12765984D01*
X12259496Y-12765984D02*
X12278544Y-12775508D01*
X12278544Y-12775508D02*
X12288067Y-12785031D01*
X12288067Y-12785031D02*
X12297591Y-12804079D01*
X12297591Y-12804079D02*
X12307115Y-12842174D01*
X12307115Y-12842174D02*
X12307115Y-12889793D01*
X12307115Y-12889793D02*
X12297591Y-12927888D01*
X12297591Y-12927888D02*
X12288067Y-12946936D01*
X12288067Y-12946936D02*
X12278544Y-12956460D01*
X12278544Y-12956460D02*
X12259496Y-12965984D01*
X12259496Y-12965984D02*
X12240448Y-12965984D01*
X12240448Y-12965984D02*
X12221401Y-12956460D01*
X12221401Y-12956460D02*
X12211877Y-12946936D01*
X12211877Y-12946936D02*
X12202353Y-12927888D01*
X12202353Y-12927888D02*
X12192829Y-12889793D01*
X12192829Y-12889793D02*
X12192829Y-12842174D01*
X12192829Y-12842174D02*
X12202353Y-12804079D01*
X12202353Y-12804079D02*
X12211877Y-12785031D01*
X12211877Y-12785031D02*
X12221401Y-12775508D01*
X12221401Y-12775508D02*
X12240448Y-12765984D01*
X12402353Y-12965984D02*
X12440448Y-12965984D01*
X12440448Y-12965984D02*
X12459496Y-12956460D01*
X12459496Y-12956460D02*
X12469020Y-12946936D01*
X12469020Y-12946936D02*
X12488067Y-12918365D01*
X12488067Y-12918365D02*
X12497591Y-12880269D01*
X12497591Y-12880269D02*
X12497591Y-12804079D01*
X12497591Y-12804079D02*
X12488067Y-12785031D01*
X12488067Y-12785031D02*
X12478544Y-12775508D01*
X12478544Y-12775508D02*
X12459496Y-12765984D01*
X12459496Y-12765984D02*
X12421401Y-12765984D01*
X12421401Y-12765984D02*
X12402353Y-12775508D01*
X12402353Y-12775508D02*
X12392829Y-12785031D01*
X12392829Y-12785031D02*
X12383306Y-12804079D01*
X12383306Y-12804079D02*
X12383306Y-12851698D01*
X12383306Y-12851698D02*
X12392829Y-12870746D01*
X12392829Y-12870746D02*
X12402353Y-12880269D01*
X12402353Y-12880269D02*
X12421401Y-12889793D01*
X12421401Y-12889793D02*
X12459496Y-12889793D01*
X12459496Y-12889793D02*
X12478544Y-12880269D01*
X12478544Y-12880269D02*
X12488067Y-12870746D01*
X12488067Y-12870746D02*
X12497591Y-12851698D01*
X12611877Y-12851698D02*
X12592829Y-12842174D01*
X12592829Y-12842174D02*
X12583306Y-12832650D01*
X12583306Y-12832650D02*
X12573782Y-12813603D01*
X12573782Y-12813603D02*
X12573782Y-12804079D01*
X12573782Y-12804079D02*
X12583306Y-12785031D01*
X12583306Y-12785031D02*
X12592829Y-12775508D01*
X12592829Y-12775508D02*
X12611877Y-12765984D01*
X12611877Y-12765984D02*
X12649972Y-12765984D01*
X12649972Y-12765984D02*
X12669020Y-12775508D01*
X12669020Y-12775508D02*
X12678544Y-12785031D01*
X12678544Y-12785031D02*
X12688067Y-12804079D01*
X12688067Y-12804079D02*
X12688067Y-12813603D01*
X12688067Y-12813603D02*
X12678544Y-12832650D01*
X12678544Y-12832650D02*
X12669020Y-12842174D01*
X12669020Y-12842174D02*
X12649972Y-12851698D01*
X12649972Y-12851698D02*
X12611877Y-12851698D01*
X12611877Y-12851698D02*
X12592829Y-12861222D01*
X12592829Y-12861222D02*
X12583306Y-12870746D01*
X12583306Y-12870746D02*
X12573782Y-12889793D01*
X12573782Y-12889793D02*
X12573782Y-12927888D01*
X12573782Y-12927888D02*
X12583306Y-12946936D01*
X12583306Y-12946936D02*
X12592829Y-12956460D01*
X12592829Y-12956460D02*
X12611877Y-12965984D01*
X12611877Y-12965984D02*
X12649972Y-12965984D01*
X12649972Y-12965984D02*
X12669020Y-12956460D01*
X12669020Y-12956460D02*
X12678544Y-12946936D01*
X12678544Y-12946936D02*
X12688067Y-12927888D01*
X12688067Y-12927888D02*
X12688067Y-12889793D01*
X12688067Y-12889793D02*
X12678544Y-12870746D01*
X12678544Y-12870746D02*
X12669020Y-12861222D01*
X12669020Y-12861222D02*
X12649972Y-12851698D01*
X12859496Y-12832650D02*
X12859496Y-12965984D01*
X12811877Y-12756460D02*
X12764258Y-12899317D01*
X12764258Y-12899317D02*
X12888067Y-12899317D01*
X12954734Y-12765984D02*
X12954734Y-12804079D01*
X13030925Y-12765984D02*
X13030925Y-12804079D01*
X13326163Y-13042174D02*
X13316639Y-13032650D01*
X13316639Y-13032650D02*
X13297591Y-13004079D01*
X13297591Y-13004079D02*
X13288068Y-12985031D01*
X13288068Y-12985031D02*
X13278544Y-12956460D01*
X13278544Y-12956460D02*
X13269020Y-12908841D01*
X13269020Y-12908841D02*
X13269020Y-12870746D01*
X13269020Y-12870746D02*
X13278544Y-12823127D01*
X13278544Y-12823127D02*
X13288068Y-12794555D01*
X13288068Y-12794555D02*
X13297591Y-12775508D01*
X13297591Y-12775508D02*
X13316639Y-12746936D01*
X13316639Y-12746936D02*
X13326163Y-12737412D01*
X13488068Y-12832650D02*
X13488068Y-12965984D01*
X13440448Y-12756460D02*
X13392829Y-12899317D01*
X13392829Y-12899317D02*
X13516639Y-12899317D01*
X13745210Y-12965984D02*
X13745210Y-12765984D01*
X13830925Y-12965984D02*
X13830925Y-12861222D01*
X13830925Y-12861222D02*
X13821401Y-12842174D01*
X13821401Y-12842174D02*
X13802353Y-12832650D01*
X13802353Y-12832650D02*
X13773782Y-12832650D01*
X13773782Y-12832650D02*
X13754734Y-12842174D01*
X13754734Y-12842174D02*
X13745210Y-12851698D01*
X13954734Y-12965984D02*
X13935687Y-12956460D01*
X13935687Y-12956460D02*
X13926163Y-12946936D01*
X13926163Y-12946936D02*
X13916639Y-12927888D01*
X13916639Y-12927888D02*
X13916639Y-12870746D01*
X13916639Y-12870746D02*
X13926163Y-12851698D01*
X13926163Y-12851698D02*
X13935687Y-12842174D01*
X13935687Y-12842174D02*
X13954734Y-12832650D01*
X13954734Y-12832650D02*
X13983306Y-12832650D01*
X13983306Y-12832650D02*
X14002353Y-12842174D01*
X14002353Y-12842174D02*
X14011877Y-12851698D01*
X14011877Y-12851698D02*
X14021401Y-12870746D01*
X14021401Y-12870746D02*
X14021401Y-12927888D01*
X14021401Y-12927888D02*
X14011877Y-12946936D01*
X14011877Y-12946936D02*
X14002353Y-12956460D01*
X14002353Y-12956460D02*
X13983306Y-12965984D01*
X13983306Y-12965984D02*
X13954734Y-12965984D01*
X14135687Y-12965984D02*
X14116639Y-12956460D01*
X14116639Y-12956460D02*
X14107115Y-12937412D01*
X14107115Y-12937412D02*
X14107115Y-12765984D01*
X14288068Y-12956460D02*
X14269020Y-12965984D01*
X14269020Y-12965984D02*
X14230925Y-12965984D01*
X14230925Y-12965984D02*
X14211877Y-12956460D01*
X14211877Y-12956460D02*
X14202353Y-12937412D01*
X14202353Y-12937412D02*
X14202353Y-12861222D01*
X14202353Y-12861222D02*
X14211877Y-12842174D01*
X14211877Y-12842174D02*
X14230925Y-12832650D01*
X14230925Y-12832650D02*
X14269020Y-12832650D01*
X14269020Y-12832650D02*
X14288068Y-12842174D01*
X14288068Y-12842174D02*
X14297591Y-12861222D01*
X14297591Y-12861222D02*
X14297591Y-12880269D01*
X14297591Y-12880269D02*
X14202353Y-12899317D01*
X14373782Y-12956460D02*
X14392830Y-12965984D01*
X14392830Y-12965984D02*
X14430925Y-12965984D01*
X14430925Y-12965984D02*
X14449972Y-12956460D01*
X14449972Y-12956460D02*
X14459496Y-12937412D01*
X14459496Y-12937412D02*
X14459496Y-12927888D01*
X14459496Y-12927888D02*
X14449972Y-12908841D01*
X14449972Y-12908841D02*
X14430925Y-12899317D01*
X14430925Y-12899317D02*
X14402353Y-12899317D01*
X14402353Y-12899317D02*
X14383306Y-12889793D01*
X14383306Y-12889793D02*
X14373782Y-12870746D01*
X14373782Y-12870746D02*
X14373782Y-12861222D01*
X14373782Y-12861222D02*
X14383306Y-12842174D01*
X14383306Y-12842174D02*
X14402353Y-12832650D01*
X14402353Y-12832650D02*
X14430925Y-12832650D01*
X14430925Y-12832650D02*
X14449972Y-12842174D01*
X14526163Y-13042174D02*
X14535687Y-13032650D01*
X14535687Y-13032650D02*
X14554734Y-13004079D01*
X14554734Y-13004079D02*
X14564258Y-12985031D01*
X14564258Y-12985031D02*
X14573782Y-12956460D01*
X14573782Y-12956460D02*
X14583306Y-12908841D01*
X14583306Y-12908841D02*
X14583306Y-12870746D01*
X14583306Y-12870746D02*
X14573782Y-12823127D01*
X14573782Y-12823127D02*
X14564258Y-12794555D01*
X14564258Y-12794555D02*
X14554734Y-12775508D01*
X14554734Y-12775508D02*
X14535687Y-12746936D01*
X14535687Y-12746936D02*
X14526163Y-12737412D01*
M02*
