M48
; DRILL file {KiCad 8.0.1} date 2024-10-12T16:06:50+0200
; FORMAT={-:-/ absolute / inch / decimal}
; #@! TF.CreationDate,2024-10-12T16:06:50+02:00
; #@! TF.GenerationSoftware,Kicad,Pcbnew,8.0.1
; #@! TF.FileFunction,Plated,1,2,PTH
FMAT,2
INCH
; #@! TA.AperFunction,Plated,PTH,ViaDrill
T1C0.0118
; #@! TA.AperFunction,Plated,PTH,ComponentDrill
T2C0.0315
; #@! TA.AperFunction,Plated,PTH,ComponentDrill
T3C0.0374
; #@! TA.AperFunction,Plated,PTH,ComponentDrill
T4C0.0394
; #@! TA.AperFunction,Plated,PTH,ComponentDrill
T5C0.0984
%
G90
G05
T1
X4.506Y-3.284
X4.834Y-3.642
X4.834Y-4.0299
X5.09Y-3.984
X5.22Y-3.2854
X5.678Y-3.734
X5.724Y-3.734
X5.968Y-3.472
X5.972Y-3.552
X6.054Y-3.756
X6.19Y-3.164
X6.232Y-3.398
X6.3Y-3.591
X6.3Y-3.7
X6.3Y-4.0163
X6.31Y-3.397
T2
X5.2313Y-2.945
X5.31Y-2.945
X5.46Y-2.945
X5.5387Y-2.945
X5.6Y-3.325
X5.6Y-3.425
X5.6Y-3.525
X5.6Y-3.625
X5.6Y-3.725
X5.6Y-3.825
X5.6Y-3.925
X5.9Y-3.325
X5.9Y-3.425
X5.9Y-3.525
X5.9Y-3.625
X5.9Y-3.725
X5.9Y-3.825
X5.9Y-3.925
T3
X4.4957Y-4.228
X4.5941Y-4.228
X4.6926Y-4.228
X4.791Y-4.228
X4.8894Y-4.228
T4
X4.4616Y-3.04
X4.56Y-3.04
X5.885Y-2.96
X5.885Y-3.06
X5.985Y-2.96
X5.985Y-3.06
X6.04Y-4.229
X6.085Y-2.96
X6.085Y-3.06
X6.14Y-4.229
X6.24Y-4.229
X6.3Y-2.96
X6.3Y-3.06
X6.34Y-4.229
X6.675Y-3.395
X6.675Y-3.495
X6.675Y-3.595
X6.675Y-3.695
X6.675Y-3.795
T5
X4.12Y-3.1
X4.12Y-4.12
X6.68Y-3.1
X6.68Y-4.1
M30
