%TF.GenerationSoftware,KiCad,Pcbnew,8.0.1*%
%TF.CreationDate,2024-10-14T21:16:12+02:00*%
%TF.ProjectId,SMD-Loetstation,534d442d-4c6f-4657-9473-746174696f6e,rev?*%
%TF.SameCoordinates,Original*%
%TF.FileFunction,Copper,L2,Bot*%
%TF.FilePolarity,Positive*%
%FSLAX46Y46*%
G04 Gerber Fmt 4.6, Leading zero omitted, Abs format (unit mm)*
G04 Created by KiCad (PCBNEW 8.0.1) date 2024-10-14 21:16:12*
%MOMM*%
%LPD*%
G01*
G04 APERTURE LIST*
G04 Aperture macros list*
%AMRoundRect*
0 Rectangle with rounded corners*
0 $1 Rounding radius*
0 $2 $3 $4 $5 $6 $7 $8 $9 X,Y pos of 4 corners*
0 Add a 4 corners polygon primitive as box body*
4,1,4,$2,$3,$4,$5,$6,$7,$8,$9,$2,$3,0*
0 Add four circle primitives for the rounded corners*
1,1,$1+$1,$2,$3*
1,1,$1+$1,$4,$5*
1,1,$1+$1,$6,$7*
1,1,$1+$1,$8,$9*
0 Add four rect primitives between the rounded corners*
20,1,$1+$1,$2,$3,$4,$5,0*
20,1,$1+$1,$4,$5,$6,$7,0*
20,1,$1+$1,$6,$7,$8,$9,0*
20,1,$1+$1,$8,$9,$2,$3,0*%
G04 Aperture macros list end*
%TA.AperFunction,ComponentPad*%
%ADD10C,5.000000*%
%TD*%
%TA.AperFunction,ComponentPad*%
%ADD11R,1.700000X1.700000*%
%TD*%
%TA.AperFunction,ComponentPad*%
%ADD12O,1.700000X1.700000*%
%TD*%
%TA.AperFunction,ComponentPad*%
%ADD13R,1.350000X1.350000*%
%TD*%
%TA.AperFunction,ComponentPad*%
%ADD14O,1.350000X1.350000*%
%TD*%
%TA.AperFunction,ComponentPad*%
%ADD15RoundRect,0.250000X0.600000X0.750000X-0.600000X0.750000X-0.600000X-0.750000X0.600000X-0.750000X0*%
%TD*%
%TA.AperFunction,ComponentPad*%
%ADD16O,1.700000X2.000000*%
%TD*%
%TA.AperFunction,ComponentPad*%
%ADD17R,2.400000X1.600000*%
%TD*%
%TA.AperFunction,ComponentPad*%
%ADD18O,2.400000X1.600000*%
%TD*%
%TA.AperFunction,ComponentPad*%
%ADD19RoundRect,0.250000X0.600000X0.725000X-0.600000X0.725000X-0.600000X-0.725000X0.600000X-0.725000X0*%
%TD*%
%TA.AperFunction,ComponentPad*%
%ADD20O,1.700000X1.950000*%
%TD*%
%TA.AperFunction,SMDPad,CuDef*%
%ADD21R,2.000000X4.200000*%
%TD*%
%TA.AperFunction,ViaPad*%
%ADD22C,0.600000*%
%TD*%
%TA.AperFunction,Conductor*%
%ADD23C,0.200000*%
%TD*%
G04 APERTURE END LIST*
D10*
%TO.P,H1,1,1*%
%TO.N,GND*%
X106197400Y-78695800D03*
%TD*%
D11*
%TO.P,J2,1,Pin_1*%
%TO.N,GND*%
X157962600Y-107308900D03*
D12*
%TO.P,J2,2,Pin_2*%
%TO.N,Net-(J2-Pin_2)*%
X160502600Y-107308900D03*
%TO.P,J2,3,Pin_3*%
%TO.N,Net-(J2-Pin_3)*%
X163042600Y-107308900D03*
%TO.P,J2,4,Pin_4*%
%TO.N,+5V*%
X165582600Y-107308900D03*
%TD*%
D11*
%TO.P,J8,1,Pin_1*%
%TO.N,Net-(J7-MISO)*%
X161569400Y-75139800D03*
D12*
%TO.P,J8,2,Pin_2*%
%TO.N,Net-(J8-Pin_2)*%
X161569400Y-77679800D03*
%TD*%
D13*
%TO.P,J4,1,Pin_1*%
%TO.N,GND*%
X142233400Y-74860400D03*
D14*
%TO.P,J4,2,Pin_2*%
%TO.N,Net-(J4-Pin_2)*%
X140233400Y-74860400D03*
%TD*%
D10*
%TO.P,H3,1,1*%
%TO.N,GND*%
X106197400Y-104603800D03*
%TD*%
D11*
%TO.P,J7,1,MISO*%
%TO.N,Net-(J7-MISO)*%
X156108400Y-75139800D03*
D12*
%TO.P,J7,2,VCC*%
%TO.N,+5V*%
X156108400Y-77679800D03*
%TO.P,J7,3,SCK*%
%TO.N,Net-(J7-SCK)*%
X153568400Y-75139800D03*
%TO.P,J7,4,MOSI*%
%TO.N,Net-(J7-MOSI)*%
X153568400Y-77679800D03*
%TO.P,J7,5,~{RST}*%
%TO.N,Net-(J7-~{RST})*%
X151028400Y-75139800D03*
%TO.P,J7,6,GND*%
%TO.N,GND*%
X151028400Y-77679800D03*
%TD*%
D15*
%TO.P,J1,1,Pin_1*%
%TO.N,GND*%
X117373400Y-77171800D03*
D16*
%TO.P,J1,2,Pin_2*%
%TO.N,+12V*%
X114873400Y-77171800D03*
%TD*%
D17*
%TO.P,U3,1,VCC*%
%TO.N,+5V*%
X143789400Y-84410800D03*
D18*
%TO.P,U3,2,XTAL1/PB0*%
%TO.N,Net-(J3-Pin_2)*%
X143789400Y-86950800D03*
%TO.P,U3,3,XTAL2/PB1*%
%TO.N,Net-(J4-Pin_2)*%
X143789400Y-89490800D03*
%TO.P,U3,4,~{RESET}/PB3*%
%TO.N,Net-(J7-~{RST})*%
X143789400Y-92030800D03*
%TO.P,U3,5,PB2*%
%TO.N,Net-(U3-PB2)*%
X143789400Y-94570800D03*
%TO.P,U3,6,PA7*%
%TO.N,unconnected-(U3-PA7-Pad6)*%
X143789400Y-97110800D03*
%TO.P,U3,7,PA6*%
%TO.N,Net-(J7-MOSI)*%
X143789400Y-99650800D03*
%TO.P,U3,8,PA5*%
%TO.N,Net-(J7-MISO)*%
X151409400Y-99650800D03*
%TO.P,U3,9,PA4*%
%TO.N,Net-(J7-SCK)*%
X151409400Y-97110800D03*
%TO.P,U3,10,PA3*%
%TO.N,Net-(U3-PA3)*%
X151409400Y-94570800D03*
%TO.P,U3,11,PA2*%
%TO.N,Net-(J5-Pin_1)*%
X151409400Y-92030800D03*
%TO.P,U3,12,PA1*%
%TO.N,Net-(U3-PA1)*%
X151409400Y-89490800D03*
%TO.P,U3,13,AREF/PA0*%
%TO.N,Net-(U3-AREF{slash}PA0)*%
X151409400Y-86950800D03*
%TO.P,U3,14,GND*%
%TO.N,GND*%
X151409400Y-84410800D03*
%TD*%
D10*
%TO.P,H2,1,1*%
%TO.N,GND*%
X171221400Y-104095800D03*
%TD*%
D11*
%TO.P,J10,1,Pin_1*%
%TO.N,GND*%
X101523800Y-87117000D03*
D12*
%TO.P,J10,2,Pin_2*%
%TO.N,Net-(J10-Pin_2)*%
X101523800Y-89657000D03*
%TD*%
D13*
%TO.P,J3,1,Pin_1*%
%TO.N,GND*%
X136423400Y-74860400D03*
D14*
%TO.P,J3,2,Pin_2*%
%TO.N,Net-(J3-Pin_2)*%
X134423400Y-74860400D03*
%TD*%
D11*
%TO.P,J5,1,Pin_1*%
%TO.N,Net-(J5-Pin_1)*%
X171094400Y-95840800D03*
D12*
%TO.P,J5,2,Pin_2*%
%TO.N,GND*%
X171094400Y-93300800D03*
%TO.P,J5,3,Pin_3*%
%TO.N,Net-(J5-Pin_3)*%
X171094400Y-90760800D03*
%TO.P,J5,4,Pin_4*%
%TO.N,GND*%
X171094400Y-88220800D03*
%TO.P,J5,5,Pin_5*%
%TO.N,Net-(J5-Pin_5)*%
X171094400Y-85680800D03*
%TD*%
D10*
%TO.P,H4,1,1*%
%TO.N,GND*%
X171221400Y-78695800D03*
%TD*%
D19*
%TO.P,J6,1,Pin_1*%
%TO.N,Net-(J6-Pin_1)*%
X125740800Y-107347000D03*
D20*
%TO.P,J6,2,Pin_2*%
%TO.N,Net-(J6-Pin_2)*%
X123240800Y-107347000D03*
%TO.P,J6,3,Pin_3*%
X120740800Y-107347000D03*
%TO.P,J6,4,Pin_4*%
%TO.N,GND*%
X118240800Y-107347000D03*
%TO.P,J6,5,Pin_5*%
X115740800Y-107347000D03*
%TD*%
D11*
%TO.P,J9,1,Pin_1*%
%TO.N,Net-(J7-SCK)*%
X160502600Y-102876600D03*
D12*
%TO.P,J9,2,Pin_2*%
%TO.N,Net-(J7-MOSI)*%
X157962600Y-102876600D03*
%TO.P,J9,3,Pin_3*%
%TO.N,Net-(J2-Pin_2)*%
X160502600Y-100336600D03*
%TO.P,J9,4,Pin_4*%
%TO.N,Net-(J2-Pin_3)*%
X157962600Y-100336600D03*
%TD*%
D21*
%TO.P,LS1,1*%
%TO.N,Net-(J4-Pin_2)*%
X136042400Y-89871800D03*
%TO.P,LS1,2*%
%TO.N,GND*%
X128042400Y-89871800D03*
%TD*%
D22*
%TO.N,GND*%
X106807000Y-96088200D03*
X146888200Y-94875600D03*
X149631400Y-88246200D03*
X161823400Y-86239600D03*
X159842200Y-86265000D03*
X158826200Y-77629000D03*
X106832400Y-94589600D03*
%TO.N,Net-(U2-+)*%
X122707400Y-102314800D03*
X128600200Y-84156800D03*
%TO.N,+5V*%
X161836100Y-91154500D03*
X161798000Y-93935800D03*
X117678200Y-81972400D03*
X164058600Y-102546400D03*
X130860800Y-82886800D03*
%TO.N,Net-(J8-Pin_2)*%
X155244800Y-95866200D03*
%TO.N,Net-(U3-PB2)*%
X130835400Y-100311200D03*
X145796000Y-94850200D03*
%TD*%
D23*
%TO.N,Net-(U2-+)*%
X124637800Y-84156800D02*
X128600200Y-84156800D01*
X124333000Y-102038400D02*
X124333000Y-84461600D01*
X124333000Y-84461600D02*
X124637800Y-84156800D01*
X124056600Y-102314800D02*
X124333000Y-102038400D01*
X122707400Y-102314800D02*
X124056600Y-102314800D01*
%TO.N,+5V*%
X161798000Y-95536000D02*
X161798000Y-93935800D01*
X165354000Y-105543600D02*
X164312600Y-105543600D01*
X163855400Y-95764600D02*
X162026600Y-95764600D01*
X164312600Y-105543600D02*
X164058600Y-105289600D01*
X117932200Y-82886800D02*
X117678200Y-82632800D01*
X161772600Y-93910400D02*
X161798000Y-93935800D01*
X164058600Y-105289600D02*
X164058600Y-102546400D01*
X161836100Y-91154500D02*
X161772600Y-91218000D01*
X165582600Y-107308900D02*
X165582600Y-105772200D01*
X161772600Y-91218000D02*
X161772600Y-93910400D01*
X162026600Y-95764600D02*
X161798000Y-95536000D01*
X165582600Y-105772200D02*
X165354000Y-105543600D01*
X164058600Y-95967800D02*
X163855400Y-95764600D01*
X164058600Y-102546400D02*
X164058600Y-95967800D01*
X117678200Y-82632800D02*
X117678200Y-81972400D01*
X130860800Y-82886800D02*
X117932200Y-82886800D01*
%TO.N,Net-(J2-Pin_3)*%
X162839400Y-105543600D02*
X163042600Y-105746800D01*
X158978600Y-100336600D02*
X159207200Y-100565200D01*
X157962600Y-100336600D02*
X158978600Y-100336600D01*
X159207200Y-100565200D02*
X159207200Y-105315000D01*
X159207200Y-105315000D02*
X159435800Y-105543600D01*
X163042600Y-105746800D02*
X163042600Y-107308900D01*
X159435800Y-105543600D02*
X162839400Y-105543600D01*
%TO.N,Net-(J3-Pin_2)*%
X137541000Y-86925400D02*
X143764000Y-86925400D01*
X134423400Y-74860400D02*
X134423400Y-80861400D01*
X134423400Y-80861400D02*
X134747000Y-81185000D01*
X137388600Y-86773000D02*
X137541000Y-86925400D01*
X134747000Y-81185000D02*
X137134600Y-81185000D01*
X137134600Y-81185000D02*
X137388600Y-81439000D01*
X137388600Y-81439000D02*
X137388600Y-86773000D01*
X143764000Y-86925400D02*
X143789400Y-86950800D01*
%TO.N,Net-(J4-Pin_2)*%
X136423400Y-89490800D02*
X143789400Y-89490800D01*
X146431000Y-89109800D02*
X146050000Y-89490800D01*
X146050000Y-89490800D02*
X143789400Y-89490800D01*
X140233400Y-80829400D02*
X140436600Y-81032600D01*
X146431000Y-81286600D02*
X146431000Y-89109800D01*
X140233400Y-74860400D02*
X140233400Y-80829400D01*
X140436600Y-81032600D02*
X146177000Y-81032600D01*
X146177000Y-81032600D02*
X146431000Y-81286600D01*
X136042400Y-89871800D02*
X136423400Y-89490800D01*
%TO.N,Net-(J8-Pin_2)*%
X161315400Y-81388200D02*
X161569400Y-81134200D01*
X155321000Y-81743800D02*
X155676600Y-81388200D01*
X155321000Y-95790000D02*
X155321000Y-81743800D01*
X155676600Y-81388200D02*
X161315400Y-81388200D01*
X155244800Y-95866200D02*
X155321000Y-95790000D01*
X161569400Y-81134200D02*
X161569400Y-77801800D01*
%TO.N,Net-(J7-MISO)*%
X157403800Y-80550000D02*
X157124400Y-80829400D01*
X161569400Y-75261800D02*
X161447400Y-75139800D01*
X157124400Y-80829400D02*
X154838400Y-80829400D01*
X161447400Y-75139800D02*
X156108400Y-75139800D01*
X154508200Y-81159600D02*
X154508200Y-99371400D01*
X154228800Y-99650800D02*
X151409400Y-99650800D01*
X154508200Y-99371400D02*
X154228800Y-99650800D01*
X154838400Y-80829400D02*
X154508200Y-81159600D01*
X157403800Y-75139800D02*
X157403800Y-80550000D01*
%TO.N,Net-(J7-~{RST})*%
X147345400Y-75139800D02*
X151028400Y-75139800D01*
X147091400Y-75393800D02*
X147345400Y-75139800D01*
X146812000Y-92030800D02*
X147091400Y-91751400D01*
X143789400Y-92030800D02*
X146812000Y-92030800D01*
X147091400Y-91751400D02*
X147091400Y-75393800D01*
%TO.N,Net-(U3-PB2)*%
X145770600Y-94799400D02*
X145821400Y-94850200D01*
X145821400Y-98203000D02*
X145618200Y-98406200D01*
X130835400Y-98660200D02*
X130835400Y-100311200D01*
X131089400Y-98406200D02*
X130835400Y-98660200D01*
X145821400Y-94850200D02*
X145821400Y-98203000D01*
X145618200Y-98406200D02*
X131089400Y-98406200D01*
%TO.N,Net-(J7-MOSI)*%
X143789400Y-99650800D02*
X147366600Y-99650800D01*
X147853400Y-81185000D02*
X148056600Y-80981800D01*
X147366600Y-99650800D02*
X147853400Y-99650800D01*
X147853400Y-99650800D02*
X147853400Y-81185000D01*
X148056600Y-80981800D02*
X153238200Y-80981800D01*
X153238200Y-80981800D02*
X153568400Y-80651600D01*
X153568400Y-80651600D02*
X153568400Y-77679800D01*
X148209000Y-102876600D02*
X157962600Y-102876600D01*
X147853400Y-99650800D02*
X147853400Y-102521000D01*
X147853400Y-102521000D02*
X148209000Y-102876600D01*
%TO.N,Net-(J7-SCK)*%
X153898600Y-80887086D02*
X154863800Y-79921886D01*
X153898600Y-96882200D02*
X153898600Y-80887086D01*
X151409400Y-97110800D02*
X153670000Y-97110800D01*
X154863800Y-76435200D02*
X153568400Y-75139800D01*
X154863800Y-79921886D02*
X154863800Y-76435200D01*
X153670000Y-97110800D02*
X153898600Y-96882200D01*
%TD*%
%TA.AperFunction,Conductor*%
%TO.N,GND*%
G36*
X117798170Y-107163657D02*
G01*
X117765800Y-107284465D01*
X117765800Y-107409535D01*
X117798170Y-107530343D01*
X117836654Y-107597000D01*
X116144946Y-107597000D01*
X116183430Y-107530343D01*
X116215800Y-107409535D01*
X116215800Y-107284465D01*
X116183430Y-107163657D01*
X116144946Y-107097000D01*
X117836654Y-107097000D01*
X117798170Y-107163657D01*
G37*
%TD.AperFunction*%
%TA.AperFunction,Conductor*%
G36*
X149963804Y-75509985D02*
G01*
X150007765Y-75559028D01*
X150088727Y-75721621D01*
X150211637Y-75884381D01*
X150362358Y-76021780D01*
X150362360Y-76021782D01*
X150384354Y-76035400D01*
X150535763Y-76129148D01*
X150616683Y-76160496D01*
X150672085Y-76203069D01*
X150695676Y-76268835D01*
X150679965Y-76336916D01*
X150629942Y-76385695D01*
X150603986Y-76395897D01*
X150564919Y-76406365D01*
X150564907Y-76406370D01*
X150350822Y-76506199D01*
X150350820Y-76506200D01*
X150157326Y-76641686D01*
X150157320Y-76641691D01*
X149990291Y-76808720D01*
X149990286Y-76808726D01*
X149854800Y-77002220D01*
X149854799Y-77002222D01*
X149754970Y-77216307D01*
X149754967Y-77216313D01*
X149697764Y-77429799D01*
X149697764Y-77429800D01*
X150595388Y-77429800D01*
X150562475Y-77486807D01*
X150528400Y-77613974D01*
X150528400Y-77745626D01*
X150562475Y-77872793D01*
X150595388Y-77929800D01*
X149697764Y-77929800D01*
X149754967Y-78143286D01*
X149754970Y-78143292D01*
X149854799Y-78357378D01*
X149990294Y-78550882D01*
X150157317Y-78717905D01*
X150350821Y-78853400D01*
X150564907Y-78953229D01*
X150564916Y-78953233D01*
X150778400Y-79010434D01*
X150778400Y-78112812D01*
X150835407Y-78145725D01*
X150962574Y-78179800D01*
X151094226Y-78179800D01*
X151221393Y-78145725D01*
X151278400Y-78112812D01*
X151278400Y-79010433D01*
X151491883Y-78953233D01*
X151491892Y-78953229D01*
X151705978Y-78853400D01*
X151899482Y-78717905D01*
X152066505Y-78550882D01*
X152202000Y-78357378D01*
X152301829Y-78143292D01*
X152301831Y-78143289D01*
X152310806Y-78109792D01*
X152347170Y-78050131D01*
X152410016Y-78019600D01*
X152479392Y-78027894D01*
X152533271Y-78072378D01*
X152541582Y-78086611D01*
X152628727Y-78261621D01*
X152751637Y-78424381D01*
X152902358Y-78561780D01*
X152902360Y-78561782D01*
X152902362Y-78561783D01*
X153075763Y-78669148D01*
X153075768Y-78669149D01*
X153075770Y-78669151D01*
X153082606Y-78671799D01*
X153138692Y-78693526D01*
X153194094Y-78736098D01*
X153217686Y-78801864D01*
X153217900Y-78809153D01*
X153217900Y-80455056D01*
X153198215Y-80522095D01*
X153181581Y-80542737D01*
X153129337Y-80594981D01*
X153068014Y-80628466D01*
X153041656Y-80631300D01*
X148010456Y-80631300D01*
X147921312Y-80655186D01*
X147921309Y-80655187D01*
X147841391Y-80701327D01*
X147841386Y-80701331D01*
X147653581Y-80889137D01*
X147592258Y-80922622D01*
X147522566Y-80917638D01*
X147466633Y-80875766D01*
X147442216Y-80810302D01*
X147441900Y-80801456D01*
X147441900Y-75614300D01*
X147461585Y-75547261D01*
X147514389Y-75501506D01*
X147565900Y-75490300D01*
X149896765Y-75490300D01*
X149963804Y-75509985D01*
G37*
%TD.AperFunction*%
%TA.AperFunction,Conductor*%
G36*
X177242539Y-72148185D02*
G01*
X177288294Y-72200989D01*
X177299500Y-72252500D01*
X177299500Y-111135500D01*
X177279815Y-111202539D01*
X177227011Y-111248294D01*
X177175500Y-111259500D01*
X98160500Y-111259500D01*
X98093461Y-111239815D01*
X98047706Y-111187011D01*
X98036500Y-111135500D01*
X98036500Y-104603803D01*
X103192316Y-104603803D01*
X103212635Y-104952669D01*
X103212636Y-104952680D01*
X103273314Y-105296802D01*
X103273316Y-105296811D01*
X103373545Y-105631600D01*
X103511955Y-105952470D01*
X103511961Y-105952483D01*
X103686689Y-106255122D01*
X103895367Y-106535425D01*
X103903548Y-106544096D01*
X105153720Y-105293925D01*
X105243954Y-105418120D01*
X105383080Y-105557246D01*
X105507273Y-105647478D01*
X104260218Y-106894533D01*
X104260219Y-106894534D01*
X104402884Y-107014245D01*
X104694861Y-107206280D01*
X105007139Y-107363114D01*
X105007145Y-107363116D01*
X105335530Y-107482638D01*
X105335533Y-107482639D01*
X105675571Y-107563229D01*
X106022676Y-107603799D01*
X106022677Y-107603800D01*
X106372123Y-107603800D01*
X106372123Y-107603799D01*
X106430293Y-107597000D01*
X114393770Y-107597000D01*
X114424042Y-107788127D01*
X114424042Y-107788130D01*
X114489704Y-107990217D01*
X114586179Y-108179557D01*
X114711072Y-108351459D01*
X114711076Y-108351464D01*
X114861335Y-108501723D01*
X114861340Y-108501727D01*
X115033242Y-108626620D01*
X115222582Y-108723095D01*
X115424671Y-108788757D01*
X115490800Y-108799231D01*
X115490800Y-107751145D01*
X115557457Y-107789630D01*
X115678265Y-107822000D01*
X115803335Y-107822000D01*
X115924143Y-107789630D01*
X115990800Y-107751145D01*
X115990800Y-108799230D01*
X116056926Y-108788757D01*
X116056929Y-108788757D01*
X116259017Y-108723095D01*
X116448357Y-108626620D01*
X116620259Y-108501727D01*
X116620264Y-108501723D01*
X116770527Y-108351460D01*
X116890482Y-108186355D01*
X116945811Y-108143689D01*
X117015425Y-108137710D01*
X117077220Y-108170315D01*
X117091118Y-108186355D01*
X117211072Y-108351460D01*
X117361335Y-108501723D01*
X117361340Y-108501727D01*
X117533242Y-108626620D01*
X117722582Y-108723095D01*
X117924671Y-108788757D01*
X117990800Y-108799231D01*
X117990800Y-107751145D01*
X118057457Y-107789630D01*
X118178265Y-107822000D01*
X118303335Y-107822000D01*
X118424143Y-107789630D01*
X118490800Y-107751145D01*
X118490800Y-108799230D01*
X118556926Y-108788757D01*
X118556929Y-108788757D01*
X118759017Y-108723095D01*
X118948357Y-108626620D01*
X119120259Y-108501727D01*
X119120264Y-108501723D01*
X119270523Y-108351464D01*
X119270527Y-108351459D01*
X119395420Y-108179557D01*
X119491894Y-107990219D01*
X119507568Y-107941978D01*
X119547005Y-107884302D01*
X119611363Y-107857103D01*
X119680209Y-107869016D01*
X119731686Y-107916259D01*
X119735985Y-107923999D01*
X119799568Y-108048788D01*
X119901386Y-108188928D01*
X120023872Y-108311414D01*
X120164012Y-108413232D01*
X120318355Y-108491873D01*
X120483099Y-108545402D01*
X120654189Y-108572500D01*
X120654190Y-108572500D01*
X120827410Y-108572500D01*
X120827411Y-108572500D01*
X120998501Y-108545402D01*
X121163245Y-108491873D01*
X121317588Y-108413232D01*
X121457728Y-108311414D01*
X121580214Y-108188928D01*
X121682032Y-108048788D01*
X121760673Y-107894445D01*
X121814202Y-107729701D01*
X121841300Y-107558611D01*
X122140300Y-107558611D01*
X122146380Y-107597000D01*
X122163984Y-107708150D01*
X122167398Y-107729701D01*
X122220927Y-107894445D01*
X122299568Y-108048788D01*
X122401386Y-108188928D01*
X122523872Y-108311414D01*
X122664012Y-108413232D01*
X122818355Y-108491873D01*
X122983099Y-108545402D01*
X123154189Y-108572500D01*
X123154190Y-108572500D01*
X123327410Y-108572500D01*
X123327411Y-108572500D01*
X123498501Y-108545402D01*
X123663245Y-108491873D01*
X123817588Y-108413232D01*
X123957728Y-108311414D01*
X124080214Y-108188928D01*
X124130388Y-108119870D01*
X124640300Y-108119870D01*
X124640301Y-108119876D01*
X124646708Y-108179483D01*
X124697002Y-108314328D01*
X124697006Y-108314335D01*
X124783252Y-108429544D01*
X124783255Y-108429547D01*
X124898464Y-108515793D01*
X124898471Y-108515797D01*
X125033317Y-108566091D01*
X125033316Y-108566091D01*
X125040244Y-108566835D01*
X125092927Y-108572500D01*
X126388672Y-108572499D01*
X126448283Y-108566091D01*
X126583131Y-108515796D01*
X126698346Y-108429546D01*
X126784596Y-108314331D01*
X126824723Y-108206744D01*
X156612600Y-108206744D01*
X156619001Y-108266272D01*
X156619003Y-108266279D01*
X156669245Y-108400986D01*
X156669249Y-108400993D01*
X156755409Y-108516087D01*
X156755412Y-108516090D01*
X156870506Y-108602250D01*
X156870513Y-108602254D01*
X157005220Y-108652496D01*
X157005227Y-108652498D01*
X157064755Y-108658899D01*
X157064772Y-108658900D01*
X157712600Y-108658900D01*
X157712600Y-107741912D01*
X157769607Y-107774825D01*
X157896774Y-107808900D01*
X158028426Y-107808900D01*
X158155593Y-107774825D01*
X158212600Y-107741912D01*
X158212600Y-108658900D01*
X158860428Y-108658900D01*
X158860444Y-108658899D01*
X158919972Y-108652498D01*
X158919979Y-108652496D01*
X159054686Y-108602254D01*
X159054693Y-108602250D01*
X159169787Y-108516090D01*
X159169790Y-108516087D01*
X159255950Y-108400993D01*
X159255954Y-108400986D01*
X159306196Y-108266279D01*
X159306198Y-108266272D01*
X159312599Y-108206744D01*
X159312600Y-108206727D01*
X159312600Y-107915212D01*
X159332285Y-107848173D01*
X159385089Y-107802418D01*
X159454247Y-107792474D01*
X159517803Y-107821499D01*
X159547600Y-107859941D01*
X159562925Y-107890719D01*
X159685837Y-108053481D01*
X159836558Y-108190880D01*
X159836560Y-108190882D01*
X159935741Y-108252292D01*
X160009963Y-108298248D01*
X160200144Y-108371924D01*
X160400624Y-108409400D01*
X160400626Y-108409400D01*
X160604574Y-108409400D01*
X160604576Y-108409400D01*
X160805056Y-108371924D01*
X160995237Y-108298248D01*
X161168641Y-108190881D01*
X161319364Y-108053479D01*
X161442273Y-107890721D01*
X161533182Y-107708150D01*
X161588997Y-107511983D01*
X161607815Y-107308900D01*
X161601715Y-107243074D01*
X161588997Y-107105817D01*
X161562942Y-107014245D01*
X161533182Y-106909650D01*
X161532759Y-106908801D01*
X161480869Y-106804591D01*
X161442273Y-106727079D01*
X161319364Y-106564321D01*
X161319362Y-106564318D01*
X161168641Y-106426919D01*
X161168639Y-106426917D01*
X160995242Y-106319555D01*
X160995239Y-106319553D01*
X160995237Y-106319552D01*
X160995236Y-106319551D01*
X160995235Y-106319551D01*
X160853014Y-106264455D01*
X160805056Y-106245876D01*
X160604576Y-106208400D01*
X160400624Y-106208400D01*
X160200144Y-106245876D01*
X160200141Y-106245876D01*
X160200141Y-106245877D01*
X160009964Y-106319551D01*
X160009957Y-106319555D01*
X159836560Y-106426917D01*
X159836558Y-106426919D01*
X159685837Y-106564318D01*
X159562928Y-106727076D01*
X159547600Y-106757860D01*
X159500096Y-106809096D01*
X159432433Y-106826517D01*
X159366093Y-106804591D01*
X159322138Y-106750279D01*
X159312600Y-106702587D01*
X159312600Y-106411072D01*
X159312599Y-106411055D01*
X159306198Y-106351527D01*
X159306196Y-106351520D01*
X159255954Y-106216813D01*
X159255950Y-106216806D01*
X159169790Y-106101712D01*
X159169787Y-106101709D01*
X159054693Y-106015549D01*
X159054686Y-106015545D01*
X158919979Y-105965303D01*
X158919972Y-105965301D01*
X158860444Y-105958900D01*
X158212600Y-105958900D01*
X158212600Y-106875888D01*
X158155593Y-106842975D01*
X158028426Y-106808900D01*
X157896774Y-106808900D01*
X157769607Y-106842975D01*
X157712600Y-106875888D01*
X157712600Y-105958900D01*
X157064755Y-105958900D01*
X157005227Y-105965301D01*
X157005220Y-105965303D01*
X156870513Y-106015545D01*
X156870506Y-106015549D01*
X156755412Y-106101709D01*
X156755409Y-106101712D01*
X156669249Y-106216806D01*
X156669245Y-106216813D01*
X156619003Y-106351520D01*
X156619001Y-106351527D01*
X156612600Y-106411055D01*
X156612600Y-107058900D01*
X157529588Y-107058900D01*
X157496675Y-107115907D01*
X157462600Y-107243074D01*
X157462600Y-107374726D01*
X157496675Y-107501893D01*
X157529588Y-107558900D01*
X156612600Y-107558900D01*
X156612600Y-108206744D01*
X126824723Y-108206744D01*
X126834891Y-108179483D01*
X126841300Y-108119873D01*
X126841299Y-106574128D01*
X126834891Y-106514517D01*
X126831807Y-106506249D01*
X126784597Y-106379671D01*
X126784593Y-106379664D01*
X126698347Y-106264455D01*
X126698344Y-106264452D01*
X126583135Y-106178206D01*
X126583128Y-106178202D01*
X126448282Y-106127908D01*
X126448283Y-106127908D01*
X126388683Y-106121501D01*
X126388681Y-106121500D01*
X126388673Y-106121500D01*
X126388664Y-106121500D01*
X125092929Y-106121500D01*
X125092923Y-106121501D01*
X125033316Y-106127908D01*
X124898471Y-106178202D01*
X124898464Y-106178206D01*
X124783255Y-106264452D01*
X124783252Y-106264455D01*
X124697006Y-106379664D01*
X124697002Y-106379671D01*
X124646708Y-106514517D01*
X124641354Y-106564321D01*
X124640301Y-106574123D01*
X124640300Y-106574135D01*
X124640300Y-108119870D01*
X124130388Y-108119870D01*
X124182032Y-108048788D01*
X124260673Y-107894445D01*
X124314202Y-107729701D01*
X124341300Y-107558611D01*
X124341300Y-107135389D01*
X124314202Y-106964299D01*
X124260673Y-106799555D01*
X124182032Y-106645212D01*
X124080214Y-106505072D01*
X123957728Y-106382586D01*
X123817588Y-106280768D01*
X123663245Y-106202127D01*
X123498501Y-106148598D01*
X123498499Y-106148597D01*
X123498498Y-106148597D01*
X123367071Y-106127781D01*
X123327411Y-106121500D01*
X123154189Y-106121500D01*
X123114528Y-106127781D01*
X122983102Y-106148597D01*
X122818352Y-106202128D01*
X122664011Y-106280768D01*
X122610629Y-106319553D01*
X122523872Y-106382586D01*
X122523870Y-106382588D01*
X122523869Y-106382588D01*
X122401388Y-106505069D01*
X122401388Y-106505070D01*
X122401386Y-106505072D01*
X122373033Y-106544097D01*
X122299568Y-106645211D01*
X122220928Y-106799552D01*
X122167397Y-106964302D01*
X122146570Y-107095799D01*
X122140300Y-107135389D01*
X122140300Y-107558611D01*
X121841300Y-107558611D01*
X121841300Y-107135389D01*
X121814202Y-106964299D01*
X121760673Y-106799555D01*
X121682032Y-106645212D01*
X121580214Y-106505072D01*
X121457728Y-106382586D01*
X121317588Y-106280768D01*
X121163245Y-106202127D01*
X120998501Y-106148598D01*
X120998499Y-106148597D01*
X120998498Y-106148597D01*
X120867071Y-106127781D01*
X120827411Y-106121500D01*
X120654189Y-106121500D01*
X120614528Y-106127781D01*
X120483102Y-106148597D01*
X120318352Y-106202128D01*
X120164011Y-106280768D01*
X120110629Y-106319553D01*
X120023872Y-106382586D01*
X120023870Y-106382588D01*
X120023869Y-106382588D01*
X119901388Y-106505069D01*
X119901388Y-106505070D01*
X119901386Y-106505072D01*
X119873033Y-106544097D01*
X119799568Y-106645211D01*
X119735985Y-106770000D01*
X119688010Y-106820796D01*
X119620189Y-106837591D01*
X119554054Y-106815053D01*
X119510603Y-106760338D01*
X119507568Y-106752022D01*
X119491893Y-106703778D01*
X119395420Y-106514442D01*
X119270527Y-106342540D01*
X119270523Y-106342535D01*
X119120264Y-106192276D01*
X119120259Y-106192272D01*
X118948357Y-106067379D01*
X118759015Y-105970903D01*
X118556924Y-105905241D01*
X118490800Y-105894768D01*
X118490800Y-106942854D01*
X118424143Y-106904370D01*
X118303335Y-106872000D01*
X118178265Y-106872000D01*
X118057457Y-106904370D01*
X117990800Y-106942854D01*
X117990800Y-105894768D01*
X117990799Y-105894768D01*
X117924675Y-105905241D01*
X117722584Y-105970903D01*
X117533242Y-106067379D01*
X117361340Y-106192272D01*
X117361335Y-106192276D01*
X117211076Y-106342535D01*
X117211072Y-106342540D01*
X117091118Y-106507644D01*
X117035788Y-106550310D01*
X116966175Y-106556289D01*
X116904380Y-106523684D01*
X116890482Y-106507644D01*
X116770527Y-106342540D01*
X116770523Y-106342535D01*
X116620264Y-106192276D01*
X116620259Y-106192272D01*
X116448357Y-106067379D01*
X116259015Y-105970903D01*
X116056924Y-105905241D01*
X115990800Y-105894768D01*
X115990800Y-106942854D01*
X115924143Y-106904370D01*
X115803335Y-106872000D01*
X115678265Y-106872000D01*
X115557457Y-106904370D01*
X115490800Y-106942854D01*
X115490800Y-105894768D01*
X115490799Y-105894768D01*
X115424675Y-105905241D01*
X115222584Y-105970903D01*
X115033242Y-106067379D01*
X114861340Y-106192272D01*
X114861335Y-106192276D01*
X114711076Y-106342535D01*
X114711072Y-106342540D01*
X114586179Y-106514442D01*
X114489704Y-106703782D01*
X114424042Y-106905869D01*
X114424042Y-106905872D01*
X114393770Y-107097000D01*
X115336654Y-107097000D01*
X115298170Y-107163657D01*
X115265800Y-107284465D01*
X115265800Y-107409535D01*
X115298170Y-107530343D01*
X115336654Y-107597000D01*
X114393770Y-107597000D01*
X106430293Y-107597000D01*
X106719227Y-107563229D01*
X106719229Y-107563229D01*
X107059266Y-107482639D01*
X107059269Y-107482638D01*
X107387654Y-107363116D01*
X107387660Y-107363114D01*
X107699938Y-107206280D01*
X107991909Y-107014249D01*
X107991910Y-107014248D01*
X108134579Y-106894534D01*
X108134580Y-106894533D01*
X106887526Y-105647478D01*
X107011720Y-105557246D01*
X107150846Y-105418120D01*
X107241078Y-105293926D01*
X108491249Y-106544097D01*
X108491251Y-106544096D01*
X108499422Y-106535436D01*
X108499433Y-106535423D01*
X108708110Y-106255122D01*
X108882838Y-105952483D01*
X108882844Y-105952470D01*
X109021254Y-105631600D01*
X109121483Y-105296811D01*
X109121485Y-105296802D01*
X109182163Y-104952680D01*
X109182164Y-104952669D01*
X109202484Y-104603803D01*
X109202484Y-104603796D01*
X109182164Y-104254930D01*
X109182163Y-104254919D01*
X109121485Y-103910797D01*
X109121483Y-103910788D01*
X109021254Y-103575999D01*
X108882844Y-103255129D01*
X108882838Y-103255116D01*
X108708110Y-102952477D01*
X108499432Y-102672174D01*
X108491250Y-102663502D01*
X107241078Y-103913673D01*
X107150846Y-103789480D01*
X107011720Y-103650354D01*
X106887525Y-103560120D01*
X108132845Y-102314800D01*
X122152150Y-102314800D01*
X122171070Y-102458508D01*
X122171071Y-102458512D01*
X122226537Y-102592422D01*
X122226538Y-102592424D01*
X122226539Y-102592425D01*
X122314779Y-102707421D01*
X122429775Y-102795661D01*
X122563691Y-102851130D01*
X122690680Y-102867848D01*
X122707399Y-102870050D01*
X122707400Y-102870050D01*
X122707401Y-102870050D01*
X122722377Y-102868078D01*
X122851109Y-102851130D01*
X122985025Y-102795661D01*
X123100021Y-102707421D01*
X123100023Y-102707417D01*
X123100027Y-102707415D01*
X123105772Y-102701671D01*
X123108288Y-102704187D01*
X123151583Y-102672597D01*
X123193492Y-102665300D01*
X124102742Y-102665300D01*
X124102744Y-102665300D01*
X124191888Y-102641414D01*
X124271812Y-102595270D01*
X124613470Y-102253612D01*
X124659614Y-102173688D01*
X124668397Y-102140908D01*
X124683500Y-102084544D01*
X124683500Y-100311200D01*
X130280150Y-100311200D01*
X130299070Y-100454908D01*
X130299071Y-100454912D01*
X130354537Y-100588822D01*
X130354538Y-100588824D01*
X130354539Y-100588825D01*
X130442779Y-100703821D01*
X130557775Y-100792061D01*
X130691691Y-100847530D01*
X130818680Y-100864248D01*
X130835399Y-100866450D01*
X130835400Y-100866450D01*
X130835401Y-100866450D01*
X130850377Y-100864478D01*
X130979109Y-100847530D01*
X131113025Y-100792061D01*
X131228021Y-100703821D01*
X131316261Y-100588825D01*
X131371730Y-100454909D01*
X131390650Y-100311200D01*
X131371730Y-100167491D01*
X131325604Y-100056131D01*
X131316262Y-100033577D01*
X131316261Y-100033576D01*
X131316261Y-100033575D01*
X131228021Y-99918579D01*
X131228019Y-99918577D01*
X131228015Y-99918572D01*
X131222271Y-99912828D01*
X131224787Y-99910311D01*
X131193197Y-99867017D01*
X131185900Y-99825108D01*
X131185900Y-98880700D01*
X131205585Y-98813661D01*
X131258389Y-98767906D01*
X131309900Y-98756700D01*
X142498505Y-98756700D01*
X142565544Y-98776385D01*
X142611299Y-98829189D01*
X142621243Y-98898347D01*
X142592218Y-98961903D01*
X142586186Y-98968381D01*
X142573425Y-98981141D01*
X142573424Y-98981142D01*
X142458458Y-99153203D01*
X142379270Y-99344379D01*
X142379268Y-99344387D01*
X142338900Y-99547330D01*
X142338900Y-99754269D01*
X142379268Y-99957212D01*
X142379270Y-99957220D01*
X142437251Y-100097199D01*
X142458459Y-100148398D01*
X142515941Y-100234426D01*
X142573424Y-100320457D01*
X142719742Y-100466775D01*
X142719745Y-100466777D01*
X142891802Y-100581741D01*
X143082980Y-100660930D01*
X143285930Y-100701299D01*
X143285934Y-100701300D01*
X143285935Y-100701300D01*
X144292866Y-100701300D01*
X144292867Y-100701299D01*
X144495820Y-100660930D01*
X144686998Y-100581741D01*
X144859055Y-100466777D01*
X145005377Y-100320455D01*
X145120341Y-100148398D01*
X145127091Y-100132104D01*
X145149564Y-100077848D01*
X145193405Y-100023444D01*
X145259699Y-100001379D01*
X145264125Y-100001300D01*
X147320456Y-100001300D01*
X147378900Y-100001300D01*
X147445939Y-100020985D01*
X147491694Y-100073789D01*
X147502900Y-100125300D01*
X147502900Y-102567144D01*
X147510437Y-102595272D01*
X147522801Y-102641414D01*
X147522801Y-102641415D01*
X147526786Y-102656288D01*
X147572927Y-102736208D01*
X147572929Y-102736211D01*
X147572930Y-102736212D01*
X147928531Y-103091812D01*
X147993788Y-103157069D01*
X147993791Y-103157070D01*
X147993794Y-103157073D01*
X148073706Y-103203211D01*
X148073707Y-103203211D01*
X148073712Y-103203214D01*
X148162856Y-103227100D01*
X156830965Y-103227100D01*
X156898004Y-103246785D01*
X156941965Y-103295828D01*
X157022927Y-103458421D01*
X157145837Y-103621181D01*
X157296558Y-103758580D01*
X157296560Y-103758582D01*
X157368445Y-103803091D01*
X157469963Y-103865948D01*
X157660144Y-103939624D01*
X157860624Y-103977100D01*
X157860626Y-103977100D01*
X158064574Y-103977100D01*
X158064576Y-103977100D01*
X158265056Y-103939624D01*
X158455237Y-103865948D01*
X158628641Y-103758581D01*
X158649162Y-103739874D01*
X158711966Y-103709257D01*
X158781353Y-103717454D01*
X158835293Y-103761864D01*
X158856661Y-103828387D01*
X158856700Y-103831511D01*
X158856700Y-105361143D01*
X158872925Y-105421699D01*
X158880584Y-105450283D01*
X158880587Y-105450290D01*
X158926727Y-105530208D01*
X158926729Y-105530211D01*
X158926730Y-105530212D01*
X159220588Y-105824070D01*
X159300512Y-105870214D01*
X159389656Y-105894100D01*
X162568100Y-105894100D01*
X162635139Y-105913785D01*
X162680894Y-105966589D01*
X162692100Y-106018100D01*
X162692100Y-106179545D01*
X162672415Y-106246584D01*
X162619611Y-106292339D01*
X162612894Y-106295171D01*
X162549974Y-106319546D01*
X162549959Y-106319553D01*
X162376560Y-106426917D01*
X162376558Y-106426919D01*
X162225837Y-106564318D01*
X162102927Y-106727078D01*
X162012022Y-106909639D01*
X162012017Y-106909652D01*
X161956202Y-107105817D01*
X161937385Y-107308899D01*
X161937385Y-107308900D01*
X161956202Y-107511982D01*
X162012017Y-107708147D01*
X162012022Y-107708160D01*
X162102927Y-107890721D01*
X162225837Y-108053481D01*
X162376558Y-108190880D01*
X162376560Y-108190882D01*
X162475741Y-108252292D01*
X162549963Y-108298248D01*
X162740144Y-108371924D01*
X162940624Y-108409400D01*
X162940626Y-108409400D01*
X163144574Y-108409400D01*
X163144576Y-108409400D01*
X163345056Y-108371924D01*
X163535237Y-108298248D01*
X163708641Y-108190881D01*
X163859364Y-108053479D01*
X163982273Y-107890721D01*
X164073182Y-107708150D01*
X164128997Y-107511983D01*
X164147815Y-107308900D01*
X164141715Y-107243074D01*
X164128997Y-107105817D01*
X164102942Y-107014245D01*
X164073182Y-106909650D01*
X164072759Y-106908801D01*
X164020869Y-106804591D01*
X163982273Y-106727079D01*
X163859364Y-106564321D01*
X163859362Y-106564318D01*
X163708641Y-106426919D01*
X163708639Y-106426917D01*
X163535240Y-106319553D01*
X163535225Y-106319546D01*
X163472306Y-106295171D01*
X163416904Y-106252598D01*
X163393314Y-106186831D01*
X163393100Y-106179545D01*
X163393100Y-105700658D01*
X163393100Y-105700656D01*
X163369214Y-105611512D01*
X163337735Y-105556988D01*
X163323072Y-105531591D01*
X163323068Y-105531586D01*
X163054613Y-105263131D01*
X163054608Y-105263127D01*
X162974690Y-105216987D01*
X162974689Y-105216986D01*
X162974688Y-105216986D01*
X162885544Y-105193100D01*
X162885543Y-105193100D01*
X159681700Y-105193100D01*
X159614661Y-105173415D01*
X159568906Y-105120611D01*
X159557700Y-105069100D01*
X159557700Y-104101100D01*
X159577385Y-104034061D01*
X159630189Y-103988306D01*
X159681700Y-103977100D01*
X161377276Y-103977100D01*
X161377277Y-103977099D01*
X161450340Y-103962566D01*
X161533201Y-103907201D01*
X161588566Y-103824340D01*
X161603100Y-103751274D01*
X161603100Y-102001926D01*
X161603100Y-102001923D01*
X161603099Y-102001921D01*
X161588567Y-101928864D01*
X161588566Y-101928860D01*
X161564751Y-101893218D01*
X161533201Y-101845999D01*
X161450340Y-101790634D01*
X161450339Y-101790633D01*
X161450335Y-101790632D01*
X161377277Y-101776100D01*
X161377274Y-101776100D01*
X159681700Y-101776100D01*
X159614661Y-101756415D01*
X159568906Y-101703611D01*
X159557700Y-101652100D01*
X159557700Y-101245200D01*
X159577385Y-101178161D01*
X159630189Y-101132406D01*
X159699347Y-101122462D01*
X159762903Y-101151487D01*
X159765181Y-101153512D01*
X159836559Y-101218581D01*
X160009963Y-101325948D01*
X160200144Y-101399624D01*
X160400624Y-101437100D01*
X160400626Y-101437100D01*
X160604574Y-101437100D01*
X160604576Y-101437100D01*
X160805056Y-101399624D01*
X160995237Y-101325948D01*
X161168641Y-101218581D01*
X161319364Y-101081179D01*
X161442273Y-100918421D01*
X161533182Y-100735850D01*
X161588997Y-100539683D01*
X161607815Y-100336600D01*
X161588997Y-100133517D01*
X161533182Y-99937350D01*
X161531419Y-99933810D01*
X161442273Y-99754780D01*
X161442273Y-99754779D01*
X161383304Y-99676691D01*
X161319362Y-99592018D01*
X161168641Y-99454619D01*
X161168639Y-99454617D01*
X160995242Y-99347255D01*
X160995235Y-99347251D01*
X160874039Y-99300300D01*
X160805056Y-99273576D01*
X160604576Y-99236100D01*
X160400624Y-99236100D01*
X160200144Y-99273576D01*
X160200141Y-99273576D01*
X160200141Y-99273577D01*
X160009964Y-99347251D01*
X160009957Y-99347255D01*
X159836560Y-99454617D01*
X159836558Y-99454619D01*
X159685837Y-99592018D01*
X159562927Y-99754778D01*
X159472022Y-99937339D01*
X159472018Y-99937350D01*
X159441828Y-100043454D01*
X159404548Y-100102547D01*
X159341238Y-100132104D01*
X159271998Y-100122740D01*
X159234881Y-100097199D01*
X159193813Y-100056131D01*
X159193808Y-100056127D01*
X159113890Y-100009987D01*
X159113889Y-100009986D01*
X159095649Y-100005099D01*
X159070324Y-99998313D01*
X159010666Y-99961949D01*
X158991420Y-99933810D01*
X158902274Y-99754780D01*
X158779362Y-99592018D01*
X158628641Y-99454619D01*
X158628639Y-99454617D01*
X158455242Y-99347255D01*
X158455235Y-99347251D01*
X158334039Y-99300300D01*
X158265056Y-99273576D01*
X158064576Y-99236100D01*
X157860624Y-99236100D01*
X157660144Y-99273576D01*
X157660141Y-99273576D01*
X157660141Y-99273577D01*
X157469964Y-99347251D01*
X157469957Y-99347255D01*
X157296560Y-99454617D01*
X157296558Y-99454619D01*
X157145837Y-99592018D01*
X157022927Y-99754778D01*
X156932022Y-99937339D01*
X156932017Y-99937352D01*
X156876202Y-100133517D01*
X156857385Y-100336599D01*
X156857385Y-100336600D01*
X156876202Y-100539682D01*
X156932017Y-100735847D01*
X156932022Y-100735860D01*
X157022927Y-100918421D01*
X157145837Y-101081181D01*
X157296558Y-101218580D01*
X157296560Y-101218582D01*
X157296562Y-101218583D01*
X157469963Y-101325948D01*
X157660144Y-101399624D01*
X157860624Y-101437100D01*
X157860626Y-101437100D01*
X158064574Y-101437100D01*
X158064576Y-101437100D01*
X158265056Y-101399624D01*
X158455237Y-101325948D01*
X158628641Y-101218581D01*
X158649162Y-101199874D01*
X158711966Y-101169257D01*
X158781353Y-101177454D01*
X158835293Y-101221864D01*
X158856661Y-101288387D01*
X158856700Y-101291511D01*
X158856700Y-101921688D01*
X158837015Y-101988727D01*
X158784211Y-102034482D01*
X158715053Y-102044426D01*
X158651497Y-102015401D01*
X158649164Y-102013327D01*
X158628641Y-101994619D01*
X158628639Y-101994617D01*
X158455242Y-101887255D01*
X158455235Y-101887251D01*
X158317614Y-101833937D01*
X158265056Y-101813576D01*
X158064576Y-101776100D01*
X157860624Y-101776100D01*
X157660144Y-101813576D01*
X157660141Y-101813576D01*
X157660141Y-101813577D01*
X157469964Y-101887251D01*
X157469957Y-101887255D01*
X157296560Y-101994617D01*
X157296558Y-101994619D01*
X157145837Y-102132018D01*
X157022927Y-102294778D01*
X156941965Y-102457372D01*
X156894462Y-102508609D01*
X156830965Y-102526100D01*
X148405544Y-102526100D01*
X148338505Y-102506415D01*
X148317862Y-102489781D01*
X148240218Y-102412136D01*
X148206734Y-102350812D01*
X148203900Y-102324455D01*
X148203900Y-94674269D01*
X149958900Y-94674269D01*
X149993895Y-94850199D01*
X149999270Y-94877220D01*
X150078459Y-95068398D01*
X150118165Y-95127823D01*
X150193424Y-95240457D01*
X150339742Y-95386775D01*
X150339745Y-95386777D01*
X150511802Y-95501741D01*
X150702980Y-95580930D01*
X150905930Y-95621299D01*
X150905934Y-95621300D01*
X150905935Y-95621300D01*
X151912866Y-95621300D01*
X151912867Y-95621299D01*
X152115820Y-95580930D01*
X152306998Y-95501741D01*
X152479055Y-95386777D01*
X152625377Y-95240455D01*
X152740341Y-95068398D01*
X152819530Y-94877220D01*
X152859900Y-94674265D01*
X152859900Y-94467335D01*
X152819530Y-94264380D01*
X152740341Y-94073202D01*
X152625377Y-93901145D01*
X152625375Y-93901142D01*
X152479057Y-93754824D01*
X152334413Y-93658177D01*
X152306998Y-93639859D01*
X152115820Y-93560670D01*
X152115812Y-93560668D01*
X151912869Y-93520300D01*
X151912865Y-93520300D01*
X150905935Y-93520300D01*
X150905930Y-93520300D01*
X150702987Y-93560668D01*
X150702979Y-93560670D01*
X150511803Y-93639858D01*
X150339742Y-93754824D01*
X150193424Y-93901142D01*
X150078458Y-94073203D01*
X149999270Y-94264379D01*
X149999268Y-94264387D01*
X149958900Y-94467330D01*
X149958900Y-94674269D01*
X148203900Y-94674269D01*
X148203900Y-92134269D01*
X149958900Y-92134269D01*
X149999268Y-92337212D01*
X149999270Y-92337220D01*
X150078458Y-92528396D01*
X150193424Y-92700457D01*
X150339742Y-92846775D01*
X150339745Y-92846777D01*
X150511802Y-92961741D01*
X150702980Y-93040930D01*
X150905930Y-93081299D01*
X150905934Y-93081300D01*
X150905935Y-93081300D01*
X151912866Y-93081300D01*
X151912867Y-93081299D01*
X152115820Y-93040930D01*
X152306998Y-92961741D01*
X152479055Y-92846777D01*
X152625377Y-92700455D01*
X152740341Y-92528398D01*
X152819530Y-92337220D01*
X152859900Y-92134265D01*
X152859900Y-91927335D01*
X152819530Y-91724380D01*
X152740341Y-91533202D01*
X152625377Y-91361145D01*
X152625375Y-91361142D01*
X152479057Y-91214824D01*
X152388773Y-91154499D01*
X152306998Y-91099859D01*
X152115820Y-91020670D01*
X152115812Y-91020668D01*
X151912869Y-90980300D01*
X151912865Y-90980300D01*
X150905935Y-90980300D01*
X150905930Y-90980300D01*
X150702987Y-91020668D01*
X150702979Y-91020670D01*
X150511803Y-91099858D01*
X150339742Y-91214824D01*
X150193424Y-91361142D01*
X150078458Y-91533203D01*
X149999270Y-91724379D01*
X149999268Y-91724387D01*
X149958900Y-91927330D01*
X149958900Y-92134269D01*
X148203900Y-92134269D01*
X148203900Y-89594269D01*
X149958900Y-89594269D01*
X149999268Y-89797212D01*
X149999270Y-89797220D01*
X150078458Y-89988396D01*
X150193424Y-90160457D01*
X150339742Y-90306775D01*
X150339745Y-90306777D01*
X150511802Y-90421741D01*
X150702980Y-90500930D01*
X150894277Y-90538981D01*
X150905930Y-90541299D01*
X150905934Y-90541300D01*
X150905935Y-90541300D01*
X151912866Y-90541300D01*
X151912867Y-90541299D01*
X152115820Y-90500930D01*
X152306998Y-90421741D01*
X152479055Y-90306777D01*
X152625377Y-90160455D01*
X152740341Y-89988398D01*
X152819530Y-89797220D01*
X152859900Y-89594265D01*
X152859900Y-89387335D01*
X152819530Y-89184380D01*
X152740341Y-88993202D01*
X152625377Y-88821145D01*
X152625375Y-88821142D01*
X152479057Y-88674824D01*
X152330282Y-88575417D01*
X152306998Y-88559859D01*
X152115820Y-88480670D01*
X152115812Y-88480668D01*
X151912869Y-88440300D01*
X151912865Y-88440300D01*
X150905935Y-88440300D01*
X150905930Y-88440300D01*
X150702987Y-88480668D01*
X150702979Y-88480670D01*
X150511803Y-88559858D01*
X150339742Y-88674824D01*
X150193424Y-88821142D01*
X150078458Y-88993203D01*
X149999270Y-89184379D01*
X149999268Y-89184387D01*
X149958900Y-89387330D01*
X149958900Y-89594269D01*
X148203900Y-89594269D01*
X148203900Y-84660800D01*
X149732791Y-84660800D01*
X149741409Y-84715213D01*
X149804644Y-84909829D01*
X149897540Y-85092149D01*
X150017817Y-85257694D01*
X150017817Y-85257695D01*
X150162504Y-85402382D01*
X150328050Y-85522659D01*
X150510368Y-85615555D01*
X150704977Y-85678788D01*
X150750986Y-85686075D01*
X150814122Y-85716004D01*
X150851053Y-85775315D01*
X150850057Y-85845178D01*
X150811447Y-85903411D01*
X150755783Y-85930166D01*
X150702984Y-85940668D01*
X150702979Y-85940670D01*
X150511803Y-86019858D01*
X150339742Y-86134824D01*
X150193424Y-86281142D01*
X150078458Y-86453203D01*
X149999270Y-86644379D01*
X149999268Y-86644387D01*
X149958900Y-86847330D01*
X149958900Y-87054269D01*
X149999268Y-87257212D01*
X149999270Y-87257220D01*
X150078458Y-87448396D01*
X150193424Y-87620457D01*
X150339742Y-87766775D01*
X150339745Y-87766777D01*
X150511802Y-87881741D01*
X150702980Y-87960930D01*
X150905930Y-88001299D01*
X150905934Y-88001300D01*
X150905935Y-88001300D01*
X151912866Y-88001300D01*
X151912867Y-88001299D01*
X152115820Y-87960930D01*
X152306998Y-87881741D01*
X152479055Y-87766777D01*
X152625377Y-87620455D01*
X152740341Y-87448398D01*
X152819530Y-87257220D01*
X152859900Y-87054265D01*
X152859900Y-86847335D01*
X152819530Y-86644380D01*
X152740341Y-86453202D01*
X152625377Y-86281145D01*
X152625375Y-86281142D01*
X152479057Y-86134824D01*
X152393026Y-86077341D01*
X152306998Y-86019859D01*
X152115820Y-85940670D01*
X152115814Y-85940668D01*
X152063017Y-85930166D01*
X152001106Y-85897781D01*
X151966532Y-85837065D01*
X151970273Y-85767295D01*
X152011139Y-85710623D01*
X152067813Y-85686075D01*
X152113822Y-85678788D01*
X152308431Y-85615555D01*
X152490749Y-85522659D01*
X152656294Y-85402382D01*
X152656295Y-85402382D01*
X152800982Y-85257695D01*
X152800982Y-85257694D01*
X152921259Y-85092149D01*
X153014155Y-84909829D01*
X153077390Y-84715213D01*
X153086009Y-84660800D01*
X151725086Y-84660800D01*
X151729480Y-84656406D01*
X151782141Y-84565194D01*
X151809400Y-84463461D01*
X151809400Y-84358139D01*
X151782141Y-84256406D01*
X151729480Y-84165194D01*
X151725086Y-84160800D01*
X153086009Y-84160800D01*
X153077390Y-84106386D01*
X153014155Y-83911770D01*
X152921259Y-83729450D01*
X152800982Y-83563905D01*
X152800982Y-83563904D01*
X152656295Y-83419217D01*
X152490749Y-83298940D01*
X152308431Y-83206044D01*
X152113817Y-83142809D01*
X151911717Y-83110800D01*
X151659400Y-83110800D01*
X151659400Y-84095114D01*
X151655006Y-84090720D01*
X151563794Y-84038059D01*
X151462061Y-84010800D01*
X151356739Y-84010800D01*
X151255006Y-84038059D01*
X151163794Y-84090720D01*
X151159400Y-84095114D01*
X151159400Y-83110800D01*
X150907083Y-83110800D01*
X150704982Y-83142809D01*
X150510368Y-83206044D01*
X150328050Y-83298940D01*
X150162505Y-83419217D01*
X150162504Y-83419217D01*
X150017817Y-83563904D01*
X150017817Y-83563905D01*
X149897540Y-83729450D01*
X149804644Y-83911770D01*
X149741409Y-84106386D01*
X149732791Y-84160800D01*
X151093714Y-84160800D01*
X151089320Y-84165194D01*
X151036659Y-84256406D01*
X151009400Y-84358139D01*
X151009400Y-84463461D01*
X151036659Y-84565194D01*
X151089320Y-84656406D01*
X151093714Y-84660800D01*
X149732791Y-84660800D01*
X148203900Y-84660800D01*
X148203900Y-81456300D01*
X148223585Y-81389261D01*
X148276389Y-81343506D01*
X148327900Y-81332300D01*
X153284342Y-81332300D01*
X153284344Y-81332300D01*
X153373488Y-81308414D01*
X153373492Y-81308411D01*
X153376646Y-81307106D01*
X153379522Y-81306796D01*
X153381339Y-81306310D01*
X153381414Y-81306593D01*
X153446115Y-81299636D01*
X153508595Y-81330910D01*
X153544248Y-81390998D01*
X153548100Y-81421666D01*
X153548100Y-96636300D01*
X153528415Y-96703339D01*
X153475611Y-96749094D01*
X153424100Y-96760300D01*
X152884125Y-96760300D01*
X152817086Y-96740615D01*
X152771331Y-96687811D01*
X152769564Y-96683752D01*
X152740343Y-96613205D01*
X152625375Y-96441142D01*
X152479057Y-96294824D01*
X152393026Y-96237341D01*
X152306998Y-96179859D01*
X152198180Y-96134785D01*
X152115820Y-96100670D01*
X152115812Y-96100668D01*
X151912869Y-96060300D01*
X151912865Y-96060300D01*
X150905935Y-96060300D01*
X150905930Y-96060300D01*
X150702987Y-96100668D01*
X150702979Y-96100670D01*
X150511803Y-96179858D01*
X150339742Y-96294824D01*
X150193424Y-96441142D01*
X150078458Y-96613203D01*
X149999270Y-96804379D01*
X149999268Y-96804387D01*
X149958900Y-97007330D01*
X149958900Y-97214269D01*
X149999268Y-97417212D01*
X149999270Y-97417220D01*
X150078458Y-97608396D01*
X150193424Y-97780457D01*
X150339742Y-97926775D01*
X150339745Y-97926777D01*
X150511802Y-98041741D01*
X150702980Y-98120930D01*
X150905930Y-98161299D01*
X150905934Y-98161300D01*
X150905935Y-98161300D01*
X151912866Y-98161300D01*
X151912867Y-98161299D01*
X152115820Y-98120930D01*
X152306998Y-98041741D01*
X152479055Y-97926777D01*
X152625377Y-97780455D01*
X152740341Y-97608398D01*
X152769564Y-97537848D01*
X152813405Y-97483444D01*
X152879699Y-97461379D01*
X152884125Y-97461300D01*
X153716142Y-97461300D01*
X153716144Y-97461300D01*
X153805288Y-97437414D01*
X153885212Y-97391270D01*
X153946019Y-97330463D01*
X154007342Y-97296978D01*
X154077034Y-97301962D01*
X154132967Y-97343834D01*
X154157384Y-97409298D01*
X154157700Y-97418144D01*
X154157700Y-99174856D01*
X154138015Y-99241895D01*
X154121381Y-99262537D01*
X154119937Y-99263981D01*
X154058614Y-99297466D01*
X154032256Y-99300300D01*
X152884125Y-99300300D01*
X152817086Y-99280615D01*
X152771331Y-99227811D01*
X152769564Y-99223752D01*
X152740343Y-99153205D01*
X152625375Y-98981142D01*
X152479057Y-98834824D01*
X152362133Y-98756699D01*
X152306998Y-98719859D01*
X152226868Y-98686668D01*
X152115820Y-98640670D01*
X152115812Y-98640668D01*
X151912869Y-98600300D01*
X151912865Y-98600300D01*
X150905935Y-98600300D01*
X150905930Y-98600300D01*
X150702987Y-98640668D01*
X150702979Y-98640670D01*
X150511803Y-98719858D01*
X150339742Y-98834824D01*
X150193424Y-98981142D01*
X150078458Y-99153203D01*
X149999270Y-99344379D01*
X149999268Y-99344387D01*
X149958900Y-99547330D01*
X149958900Y-99754269D01*
X149999268Y-99957212D01*
X149999270Y-99957220D01*
X150057251Y-100097199D01*
X150078459Y-100148398D01*
X150135941Y-100234426D01*
X150193424Y-100320457D01*
X150339742Y-100466775D01*
X150339745Y-100466777D01*
X150511802Y-100581741D01*
X150702980Y-100660930D01*
X150905930Y-100701299D01*
X150905934Y-100701300D01*
X150905935Y-100701300D01*
X151912866Y-100701300D01*
X151912867Y-100701299D01*
X152115820Y-100660930D01*
X152306998Y-100581741D01*
X152479055Y-100466777D01*
X152625377Y-100320455D01*
X152740341Y-100148398D01*
X152747091Y-100132104D01*
X152769564Y-100077848D01*
X152813405Y-100023444D01*
X152879699Y-100001379D01*
X152884125Y-100001300D01*
X154274942Y-100001300D01*
X154274944Y-100001300D01*
X154364088Y-99977414D01*
X154444012Y-99931270D01*
X154788669Y-99586612D01*
X154834814Y-99506688D01*
X154838090Y-99494460D01*
X154847042Y-99461055D01*
X154852870Y-99439300D01*
X154858700Y-99417544D01*
X154858700Y-96487707D01*
X154878385Y-96420668D01*
X154931189Y-96374913D01*
X155000347Y-96364969D01*
X155030146Y-96373144D01*
X155101091Y-96402530D01*
X155228080Y-96419248D01*
X155244799Y-96421450D01*
X155244800Y-96421450D01*
X155244801Y-96421450D01*
X155259777Y-96419478D01*
X155388509Y-96402530D01*
X155522425Y-96347061D01*
X155637421Y-96258821D01*
X155725661Y-96143825D01*
X155781130Y-96009909D01*
X155800050Y-95866200D01*
X155781130Y-95722491D01*
X155725661Y-95588575D01*
X155725661Y-95588574D01*
X155697124Y-95551384D01*
X155671930Y-95486215D01*
X155671500Y-95475898D01*
X155671500Y-93935800D01*
X161242750Y-93935800D01*
X161261670Y-94079508D01*
X161261671Y-94079512D01*
X161317138Y-94213423D01*
X161317139Y-94213425D01*
X161405380Y-94328423D01*
X161411126Y-94334169D01*
X161408574Y-94336720D01*
X161440091Y-94379673D01*
X161447500Y-94421892D01*
X161447500Y-95582143D01*
X161471386Y-95671287D01*
X161471387Y-95671290D01*
X161517527Y-95751208D01*
X161517529Y-95751211D01*
X161517530Y-95751212D01*
X161811388Y-96045070D01*
X161891312Y-96091214D01*
X161980456Y-96115100D01*
X163584100Y-96115100D01*
X163651139Y-96134785D01*
X163696894Y-96187589D01*
X163708100Y-96239100D01*
X163708100Y-102060308D01*
X163688415Y-102127347D01*
X163670513Y-102146812D01*
X163671729Y-102148028D01*
X163665984Y-102153772D01*
X163577737Y-102268777D01*
X163522271Y-102402687D01*
X163522270Y-102402691D01*
X163506023Y-102526100D01*
X163503350Y-102546400D01*
X163519964Y-102672597D01*
X163522270Y-102690108D01*
X163522271Y-102690112D01*
X163577738Y-102824023D01*
X163577739Y-102824025D01*
X163665980Y-102939023D01*
X163671726Y-102944769D01*
X163669174Y-102947320D01*
X163700691Y-102990273D01*
X163708100Y-103032492D01*
X163708100Y-105335745D01*
X163730725Y-105420184D01*
X163731984Y-105424885D01*
X163731985Y-105424887D01*
X163731986Y-105424888D01*
X163778130Y-105504812D01*
X164032131Y-105758812D01*
X164097388Y-105824069D01*
X164097391Y-105824070D01*
X164097394Y-105824073D01*
X164177306Y-105870211D01*
X164177307Y-105870211D01*
X164177312Y-105870214D01*
X164266456Y-105894100D01*
X165108100Y-105894100D01*
X165175139Y-105913785D01*
X165220894Y-105966589D01*
X165232100Y-106018100D01*
X165232100Y-106179545D01*
X165212415Y-106246584D01*
X165159611Y-106292339D01*
X165152894Y-106295171D01*
X165089974Y-106319546D01*
X165089959Y-106319553D01*
X164916560Y-106426917D01*
X164916558Y-106426919D01*
X164765837Y-106564318D01*
X164642927Y-106727078D01*
X164552022Y-106909639D01*
X164552017Y-106909652D01*
X164496202Y-107105817D01*
X164477385Y-107308899D01*
X164477385Y-107308900D01*
X164496202Y-107511982D01*
X164552017Y-107708147D01*
X164552022Y-107708160D01*
X164642927Y-107890721D01*
X164765837Y-108053481D01*
X164916558Y-108190880D01*
X164916560Y-108190882D01*
X165015741Y-108252292D01*
X165089963Y-108298248D01*
X165280144Y-108371924D01*
X165480624Y-108409400D01*
X165480626Y-108409400D01*
X165684574Y-108409400D01*
X165684576Y-108409400D01*
X165885056Y-108371924D01*
X166075237Y-108298248D01*
X166248641Y-108190881D01*
X166399364Y-108053479D01*
X166522273Y-107890721D01*
X166613182Y-107708150D01*
X166668997Y-107511983D01*
X166687815Y-107308900D01*
X166681715Y-107243074D01*
X166668997Y-107105817D01*
X166642942Y-107014245D01*
X166613182Y-106909650D01*
X166612759Y-106908801D01*
X166560869Y-106804591D01*
X166522273Y-106727079D01*
X166399364Y-106564321D01*
X166399362Y-106564318D01*
X166248641Y-106426919D01*
X166248639Y-106426917D01*
X166075240Y-106319553D01*
X166075225Y-106319546D01*
X166012306Y-106295171D01*
X165956904Y-106252598D01*
X165933314Y-106186831D01*
X165933100Y-106179545D01*
X165933100Y-105726058D01*
X165933100Y-105726056D01*
X165909214Y-105636912D01*
X165894549Y-105611512D01*
X165894549Y-105611511D01*
X165863072Y-105556991D01*
X165863068Y-105556986D01*
X165569213Y-105263131D01*
X165569208Y-105263127D01*
X165489290Y-105216987D01*
X165489289Y-105216986D01*
X165489288Y-105216986D01*
X165400144Y-105193100D01*
X165400143Y-105193100D01*
X164533100Y-105193100D01*
X164466061Y-105173415D01*
X164420306Y-105120611D01*
X164409100Y-105069100D01*
X164409100Y-104095803D01*
X168216316Y-104095803D01*
X168236635Y-104444669D01*
X168236636Y-104444680D01*
X168297314Y-104788802D01*
X168297316Y-104788811D01*
X168397545Y-105123600D01*
X168535955Y-105444470D01*
X168535961Y-105444483D01*
X168710689Y-105747122D01*
X168919367Y-106027425D01*
X168927548Y-106036096D01*
X170177719Y-104785924D01*
X170267954Y-104910120D01*
X170407080Y-105049246D01*
X170531273Y-105139478D01*
X169284218Y-106386533D01*
X169284219Y-106386534D01*
X169426884Y-106506245D01*
X169718861Y-106698280D01*
X170031139Y-106855114D01*
X170031145Y-106855116D01*
X170359530Y-106974638D01*
X170359533Y-106974639D01*
X170699571Y-107055229D01*
X171046676Y-107095799D01*
X171046677Y-107095800D01*
X171396123Y-107095800D01*
X171396123Y-107095799D01*
X171743227Y-107055229D01*
X171743229Y-107055229D01*
X172083266Y-106974639D01*
X172083269Y-106974638D01*
X172411654Y-106855116D01*
X172411660Y-106855114D01*
X172723938Y-106698280D01*
X173015909Y-106506249D01*
X173015910Y-106506248D01*
X173158579Y-106386534D01*
X173158580Y-106386533D01*
X171911526Y-105139478D01*
X172035720Y-105049246D01*
X172174846Y-104910120D01*
X172265078Y-104785926D01*
X173515249Y-106036097D01*
X173515251Y-106036096D01*
X173523422Y-106027436D01*
X173523433Y-106027423D01*
X173732110Y-105747122D01*
X173906838Y-105444483D01*
X173906844Y-105444470D01*
X174045254Y-105123600D01*
X174145483Y-104788811D01*
X174145485Y-104788802D01*
X174206163Y-104444680D01*
X174206164Y-104444669D01*
X174226484Y-104095803D01*
X174226484Y-104095796D01*
X174206164Y-103746930D01*
X174206163Y-103746919D01*
X174145485Y-103402797D01*
X174145483Y-103402788D01*
X174045254Y-103067999D01*
X173906844Y-102747129D01*
X173906838Y-102747116D01*
X173732110Y-102444477D01*
X173523432Y-102164174D01*
X173515250Y-102155502D01*
X172265078Y-103405673D01*
X172174846Y-103281480D01*
X172035720Y-103142354D01*
X171911525Y-103052120D01*
X173158580Y-101805065D01*
X173158579Y-101805064D01*
X173015919Y-101685357D01*
X172723938Y-101493319D01*
X172411660Y-101336485D01*
X172411654Y-101336483D01*
X172083269Y-101216961D01*
X172083266Y-101216960D01*
X171743228Y-101136370D01*
X171396123Y-101095800D01*
X171046677Y-101095800D01*
X170699572Y-101136370D01*
X170699570Y-101136370D01*
X170359533Y-101216960D01*
X170359530Y-101216961D01*
X170031145Y-101336483D01*
X170031139Y-101336485D01*
X169718861Y-101493319D01*
X169426880Y-101685357D01*
X169284219Y-101805064D01*
X169284218Y-101805065D01*
X170531274Y-103052120D01*
X170407080Y-103142354D01*
X170267954Y-103281480D01*
X170177720Y-103405673D01*
X168927548Y-102155501D01*
X168927547Y-102155502D01*
X168919376Y-102164163D01*
X168919372Y-102164168D01*
X168710689Y-102444477D01*
X168535961Y-102747116D01*
X168535955Y-102747129D01*
X168397545Y-103067999D01*
X168297316Y-103402788D01*
X168297314Y-103402797D01*
X168236636Y-103746919D01*
X168236635Y-103746930D01*
X168216316Y-104095796D01*
X168216316Y-104095803D01*
X164409100Y-104095803D01*
X164409100Y-103032492D01*
X164428785Y-102965453D01*
X164446714Y-102946009D01*
X164445474Y-102944769D01*
X164451219Y-102939023D01*
X164452480Y-102937380D01*
X164539461Y-102824025D01*
X164594930Y-102690109D01*
X164613850Y-102546400D01*
X164594930Y-102402691D01*
X164539461Y-102268775D01*
X164451221Y-102153779D01*
X164451219Y-102153777D01*
X164451215Y-102153772D01*
X164445471Y-102148028D01*
X164447987Y-102145511D01*
X164416397Y-102102217D01*
X164409100Y-102060308D01*
X164409100Y-95921658D01*
X164409100Y-95921656D01*
X164385214Y-95832512D01*
X164339070Y-95752588D01*
X164070612Y-95484130D01*
X164070611Y-95484129D01*
X164070608Y-95484127D01*
X163990690Y-95437987D01*
X163990689Y-95437986D01*
X163990688Y-95437986D01*
X163901544Y-95414100D01*
X163901543Y-95414100D01*
X162272500Y-95414100D01*
X162205461Y-95394415D01*
X162159706Y-95341611D01*
X162148500Y-95290100D01*
X162148500Y-94421892D01*
X162168185Y-94354853D01*
X162186114Y-94335409D01*
X162184874Y-94334169D01*
X162190619Y-94328423D01*
X162190621Y-94328421D01*
X162278861Y-94213425D01*
X162334330Y-94079509D01*
X162353250Y-93935800D01*
X162334330Y-93792091D01*
X162278861Y-93658175D01*
X162196469Y-93550800D01*
X169763764Y-93550800D01*
X169820967Y-93764286D01*
X169820970Y-93764292D01*
X169920799Y-93978378D01*
X170056294Y-94171882D01*
X170223317Y-94338905D01*
X170416821Y-94474400D01*
X170480123Y-94503918D01*
X170532562Y-94550090D01*
X170551714Y-94617284D01*
X170531498Y-94684165D01*
X170478333Y-94729500D01*
X170427718Y-94740300D01*
X170219723Y-94740300D01*
X170146664Y-94754832D01*
X170146660Y-94754833D01*
X170063799Y-94810199D01*
X170008433Y-94893060D01*
X170008432Y-94893064D01*
X169993900Y-94966121D01*
X169993900Y-96715478D01*
X170008432Y-96788535D01*
X170008433Y-96788539D01*
X170008434Y-96788540D01*
X170063799Y-96871401D01*
X170121053Y-96909656D01*
X170146660Y-96926766D01*
X170146664Y-96926767D01*
X170219721Y-96941299D01*
X170219724Y-96941300D01*
X170219726Y-96941300D01*
X171969076Y-96941300D01*
X171969077Y-96941299D01*
X172042140Y-96926766D01*
X172125001Y-96871401D01*
X172180366Y-96788540D01*
X172194900Y-96715474D01*
X172194900Y-94966126D01*
X172194900Y-94966123D01*
X172194899Y-94966121D01*
X172180367Y-94893064D01*
X172180366Y-94893060D01*
X172151728Y-94850200D01*
X172125001Y-94810199D01*
X172042140Y-94754834D01*
X172042139Y-94754833D01*
X172042135Y-94754832D01*
X171969077Y-94740300D01*
X171969074Y-94740300D01*
X171761082Y-94740300D01*
X171694043Y-94720615D01*
X171648288Y-94667811D01*
X171638344Y-94598653D01*
X171667369Y-94535097D01*
X171708677Y-94503918D01*
X171771978Y-94474400D01*
X171965482Y-94338905D01*
X172132505Y-94171882D01*
X172268000Y-93978378D01*
X172367829Y-93764292D01*
X172367832Y-93764286D01*
X172425036Y-93550800D01*
X171527412Y-93550800D01*
X171560325Y-93493793D01*
X171594400Y-93366626D01*
X171594400Y-93234974D01*
X171560325Y-93107807D01*
X171527412Y-93050800D01*
X172425036Y-93050800D01*
X172425035Y-93050799D01*
X172367832Y-92837313D01*
X172367829Y-92837307D01*
X172268000Y-92623222D01*
X172267999Y-92623220D01*
X172132513Y-92429726D01*
X172132508Y-92429720D01*
X171965482Y-92262694D01*
X171771978Y-92127199D01*
X171557892Y-92027370D01*
X171557877Y-92027364D01*
X171518814Y-92016897D01*
X171459154Y-91980532D01*
X171428626Y-91917685D01*
X171436921Y-91848309D01*
X171481407Y-91794432D01*
X171506110Y-91781498D01*
X171587037Y-91750148D01*
X171760441Y-91642781D01*
X171911164Y-91505379D01*
X172034073Y-91342621D01*
X172124982Y-91160050D01*
X172180797Y-90963883D01*
X172199615Y-90760800D01*
X172195836Y-90720022D01*
X172180797Y-90557717D01*
X172164640Y-90500931D01*
X172124982Y-90361550D01*
X172097708Y-90306777D01*
X172080672Y-90272564D01*
X172034073Y-90178979D01*
X171941400Y-90056260D01*
X171911162Y-90016218D01*
X171760441Y-89878819D01*
X171760439Y-89878817D01*
X171587042Y-89771455D01*
X171587035Y-89771451D01*
X171506115Y-89740103D01*
X171450713Y-89697530D01*
X171427123Y-89631763D01*
X171442834Y-89563683D01*
X171492858Y-89514904D01*
X171518817Y-89504701D01*
X171557881Y-89494234D01*
X171557892Y-89494229D01*
X171771978Y-89394400D01*
X171965482Y-89258905D01*
X172132505Y-89091882D01*
X172268000Y-88898378D01*
X172367829Y-88684292D01*
X172367832Y-88684286D01*
X172425036Y-88470800D01*
X171527412Y-88470800D01*
X171560325Y-88413793D01*
X171594400Y-88286626D01*
X171594400Y-88154974D01*
X171560325Y-88027807D01*
X171527412Y-87970800D01*
X172425036Y-87970800D01*
X172425035Y-87970799D01*
X172367832Y-87757313D01*
X172367829Y-87757307D01*
X172268000Y-87543222D01*
X172267999Y-87543220D01*
X172132513Y-87349726D01*
X172132508Y-87349720D01*
X171965482Y-87182694D01*
X171771978Y-87047199D01*
X171557892Y-86947370D01*
X171557877Y-86947364D01*
X171518814Y-86936897D01*
X171459154Y-86900532D01*
X171428626Y-86837685D01*
X171436921Y-86768309D01*
X171481407Y-86714432D01*
X171506110Y-86701498D01*
X171587037Y-86670148D01*
X171760441Y-86562781D01*
X171911164Y-86425379D01*
X172034073Y-86262621D01*
X172124982Y-86080050D01*
X172180797Y-85883883D01*
X172199615Y-85680800D01*
X172180797Y-85477717D01*
X172124982Y-85281550D01*
X172113103Y-85257694D01*
X172080672Y-85192564D01*
X172034073Y-85098979D01*
X171911164Y-84936221D01*
X171911162Y-84936218D01*
X171760441Y-84798819D01*
X171760439Y-84798817D01*
X171587042Y-84691455D01*
X171587035Y-84691451D01*
X171448185Y-84637661D01*
X171396856Y-84617776D01*
X171196376Y-84580300D01*
X170992424Y-84580300D01*
X170791944Y-84617776D01*
X170791941Y-84617776D01*
X170791941Y-84617777D01*
X170601764Y-84691451D01*
X170601757Y-84691455D01*
X170428360Y-84798817D01*
X170428358Y-84798819D01*
X170277637Y-84936218D01*
X170154727Y-85098978D01*
X170063822Y-85281539D01*
X170063817Y-85281552D01*
X170008002Y-85477717D01*
X169989185Y-85680799D01*
X169989185Y-85680800D01*
X170008002Y-85883882D01*
X170063817Y-86080047D01*
X170063822Y-86080060D01*
X170154727Y-86262621D01*
X170277637Y-86425381D01*
X170362136Y-86502411D01*
X170420059Y-86555215D01*
X170428358Y-86562780D01*
X170428360Y-86562782D01*
X170515926Y-86617000D01*
X170601763Y-86670148D01*
X170682683Y-86701496D01*
X170738085Y-86744069D01*
X170761676Y-86809835D01*
X170745965Y-86877916D01*
X170695942Y-86926695D01*
X170669986Y-86936897D01*
X170630919Y-86947365D01*
X170630907Y-86947370D01*
X170416822Y-87047199D01*
X170416820Y-87047200D01*
X170223326Y-87182686D01*
X170223320Y-87182691D01*
X170056291Y-87349720D01*
X170056286Y-87349726D01*
X169920800Y-87543220D01*
X169920799Y-87543222D01*
X169820970Y-87757307D01*
X169820967Y-87757313D01*
X169763764Y-87970799D01*
X169763764Y-87970800D01*
X170661388Y-87970800D01*
X170628475Y-88027807D01*
X170594400Y-88154974D01*
X170594400Y-88286626D01*
X170628475Y-88413793D01*
X170661388Y-88470800D01*
X169763764Y-88470800D01*
X169820967Y-88684286D01*
X169820970Y-88684292D01*
X169920799Y-88898378D01*
X170056294Y-89091882D01*
X170223317Y-89258905D01*
X170416821Y-89394400D01*
X170630907Y-89494229D01*
X170630916Y-89494233D01*
X170669983Y-89504701D01*
X170729644Y-89541066D01*
X170760173Y-89603913D01*
X170751879Y-89673288D01*
X170707393Y-89727166D01*
X170682684Y-89740102D01*
X170601773Y-89771447D01*
X170601757Y-89771455D01*
X170428360Y-89878817D01*
X170428358Y-89878819D01*
X170277637Y-90016218D01*
X170154727Y-90178978D01*
X170063822Y-90361539D01*
X170063817Y-90361552D01*
X170008002Y-90557717D01*
X169989185Y-90760799D01*
X169989185Y-90760800D01*
X170008002Y-90963882D01*
X170063817Y-91160047D01*
X170063822Y-91160060D01*
X170154727Y-91342621D01*
X170277637Y-91505381D01*
X170428358Y-91642780D01*
X170428360Y-91642782D01*
X170457162Y-91660615D01*
X170601763Y-91750148D01*
X170682683Y-91781496D01*
X170738085Y-91824069D01*
X170761676Y-91889835D01*
X170745965Y-91957916D01*
X170695942Y-92006695D01*
X170669986Y-92016897D01*
X170630919Y-92027365D01*
X170630907Y-92027370D01*
X170416822Y-92127199D01*
X170416820Y-92127200D01*
X170223326Y-92262686D01*
X170223320Y-92262691D01*
X170056291Y-92429720D01*
X170056286Y-92429726D01*
X169920800Y-92623220D01*
X169920799Y-92623222D01*
X169820970Y-92837307D01*
X169820967Y-92837313D01*
X169763764Y-93050799D01*
X169763764Y-93050800D01*
X170661388Y-93050800D01*
X170628475Y-93107807D01*
X170594400Y-93234974D01*
X170594400Y-93366626D01*
X170628475Y-93493793D01*
X170661388Y-93550800D01*
X169763764Y-93550800D01*
X162196469Y-93550800D01*
X162190621Y-93543179D01*
X162171611Y-93528592D01*
X162130410Y-93472164D01*
X162123100Y-93430218D01*
X162123100Y-91689317D01*
X162142785Y-91622278D01*
X162171613Y-91590942D01*
X162185185Y-91580527D01*
X162228721Y-91547121D01*
X162316961Y-91432125D01*
X162372430Y-91298209D01*
X162391350Y-91154500D01*
X162372430Y-91010791D01*
X162316961Y-90876875D01*
X162228721Y-90761879D01*
X162113725Y-90673639D01*
X162113724Y-90673638D01*
X162113722Y-90673637D01*
X161979812Y-90618171D01*
X161979810Y-90618170D01*
X161979809Y-90618170D01*
X161907954Y-90608710D01*
X161836101Y-90599250D01*
X161836099Y-90599250D01*
X161692391Y-90618170D01*
X161692387Y-90618171D01*
X161558477Y-90673637D01*
X161443479Y-90761879D01*
X161355237Y-90876877D01*
X161299771Y-91010787D01*
X161299770Y-91010791D01*
X161280850Y-91154499D01*
X161280850Y-91154500D01*
X161299770Y-91298208D01*
X161299771Y-91298212D01*
X161355238Y-91432123D01*
X161355239Y-91432125D01*
X161396475Y-91485864D01*
X161421670Y-91551033D01*
X161422100Y-91561351D01*
X161422100Y-93479295D01*
X161402415Y-93546334D01*
X161396476Y-93554781D01*
X161317139Y-93658174D01*
X161317138Y-93658176D01*
X161261671Y-93792087D01*
X161261670Y-93792091D01*
X161242750Y-93935799D01*
X161242750Y-93935800D01*
X155671500Y-93935800D01*
X155671500Y-81940343D01*
X155691185Y-81873304D01*
X155707819Y-81852662D01*
X155785462Y-81775019D01*
X155846785Y-81741534D01*
X155873143Y-81738700D01*
X161361542Y-81738700D01*
X161361544Y-81738700D01*
X161450688Y-81714814D01*
X161530612Y-81668670D01*
X161849869Y-81349412D01*
X161896014Y-81269488D01*
X161897948Y-81262269D01*
X161919900Y-81180344D01*
X161919900Y-78809153D01*
X161939585Y-78742114D01*
X161992389Y-78696359D01*
X161993707Y-78695803D01*
X168216316Y-78695803D01*
X168236635Y-79044669D01*
X168236636Y-79044680D01*
X168297314Y-79388802D01*
X168297316Y-79388811D01*
X168397545Y-79723600D01*
X168535955Y-80044470D01*
X168535961Y-80044483D01*
X168710689Y-80347122D01*
X168919367Y-80627425D01*
X168927548Y-80636096D01*
X170177719Y-79385924D01*
X170267954Y-79510120D01*
X170407080Y-79649246D01*
X170531273Y-79739478D01*
X169284218Y-80986533D01*
X169284219Y-80986534D01*
X169426884Y-81106245D01*
X169718861Y-81298280D01*
X170031139Y-81455114D01*
X170031145Y-81455116D01*
X170359530Y-81574638D01*
X170359533Y-81574639D01*
X170699571Y-81655229D01*
X171046676Y-81695799D01*
X171046677Y-81695800D01*
X171396123Y-81695800D01*
X171396123Y-81695799D01*
X171743227Y-81655229D01*
X171743229Y-81655229D01*
X172083266Y-81574639D01*
X172083269Y-81574638D01*
X172411654Y-81455116D01*
X172411660Y-81455114D01*
X172723938Y-81298280D01*
X173015909Y-81106249D01*
X173015910Y-81106248D01*
X173158579Y-80986534D01*
X173158580Y-80986533D01*
X171911526Y-79739478D01*
X172035720Y-79649246D01*
X172174846Y-79510120D01*
X172265078Y-79385926D01*
X173515249Y-80636097D01*
X173515251Y-80636096D01*
X173523422Y-80627436D01*
X173523433Y-80627423D01*
X173732110Y-80347122D01*
X173906838Y-80044483D01*
X173906844Y-80044470D01*
X174045254Y-79723600D01*
X174145483Y-79388811D01*
X174145485Y-79388802D01*
X174206163Y-79044680D01*
X174206164Y-79044669D01*
X174226484Y-78695803D01*
X174226484Y-78695796D01*
X174206164Y-78346930D01*
X174206163Y-78346919D01*
X174145485Y-78002797D01*
X174145483Y-78002788D01*
X174045254Y-77667999D01*
X173906844Y-77347129D01*
X173906838Y-77347116D01*
X173732110Y-77044477D01*
X173523432Y-76764174D01*
X173515250Y-76755502D01*
X172265078Y-78005673D01*
X172174846Y-77881480D01*
X172035720Y-77742354D01*
X171911525Y-77652120D01*
X173158580Y-76405065D01*
X173158579Y-76405064D01*
X173015919Y-76285357D01*
X172723938Y-76093319D01*
X172411660Y-75936485D01*
X172411654Y-75936483D01*
X172083269Y-75816961D01*
X172083266Y-75816960D01*
X171743228Y-75736370D01*
X171396123Y-75695800D01*
X171046677Y-75695800D01*
X170699572Y-75736370D01*
X170699570Y-75736370D01*
X170359533Y-75816960D01*
X170359530Y-75816961D01*
X170031145Y-75936483D01*
X170031139Y-75936485D01*
X169718861Y-76093319D01*
X169426880Y-76285357D01*
X169284219Y-76405064D01*
X169284218Y-76405065D01*
X170531274Y-77652120D01*
X170407080Y-77742354D01*
X170267954Y-77881480D01*
X170177720Y-78005673D01*
X168927548Y-76755501D01*
X168927547Y-76755502D01*
X168919376Y-76764163D01*
X168919372Y-76764168D01*
X168710689Y-77044477D01*
X168535961Y-77347116D01*
X168535955Y-77347129D01*
X168397545Y-77667999D01*
X168297316Y-78002788D01*
X168297314Y-78002797D01*
X168236636Y-78346919D01*
X168236635Y-78346930D01*
X168216316Y-78695796D01*
X168216316Y-78695803D01*
X161993707Y-78695803D01*
X161999099Y-78693529D01*
X162062037Y-78669148D01*
X162235441Y-78561781D01*
X162386164Y-78424379D01*
X162509073Y-78261621D01*
X162599982Y-78079050D01*
X162655797Y-77882883D01*
X162674615Y-77679800D01*
X162668515Y-77613974D01*
X162655797Y-77476717D01*
X162642448Y-77429800D01*
X162599982Y-77280550D01*
X162599559Y-77279701D01*
X162549815Y-77179800D01*
X162509073Y-77097979D01*
X162386164Y-76935221D01*
X162386162Y-76935218D01*
X162235441Y-76797819D01*
X162235439Y-76797817D01*
X162062042Y-76690455D01*
X162062035Y-76690451D01*
X161936169Y-76641691D01*
X161871856Y-76616776D01*
X161671376Y-76579300D01*
X161467424Y-76579300D01*
X161266944Y-76616776D01*
X161266941Y-76616776D01*
X161266941Y-76616777D01*
X161076764Y-76690451D01*
X161076757Y-76690455D01*
X160903360Y-76797817D01*
X160903358Y-76797819D01*
X160752637Y-76935218D01*
X160629727Y-77097978D01*
X160538822Y-77280539D01*
X160538817Y-77280552D01*
X160483002Y-77476717D01*
X160464185Y-77679799D01*
X160464185Y-77679800D01*
X160483002Y-77882882D01*
X160538817Y-78079047D01*
X160538822Y-78079060D01*
X160629727Y-78261621D01*
X160752637Y-78424381D01*
X160903358Y-78561780D01*
X160903360Y-78561782D01*
X160903362Y-78561783D01*
X161076763Y-78669148D01*
X161076768Y-78669149D01*
X161076770Y-78669151D01*
X161083606Y-78671799D01*
X161139692Y-78693526D01*
X161195094Y-78736098D01*
X161218686Y-78801864D01*
X161218900Y-78809153D01*
X161218900Y-80913700D01*
X161199215Y-80980739D01*
X161146411Y-81026494D01*
X161094900Y-81037700D01*
X157711143Y-81037700D01*
X157644104Y-81018015D01*
X157598349Y-80965211D01*
X157588405Y-80896053D01*
X157617430Y-80832497D01*
X157623462Y-80826019D01*
X157651300Y-80798181D01*
X157684269Y-80765212D01*
X157691587Y-80752537D01*
X157730413Y-80685291D01*
X157731268Y-80682100D01*
X157734006Y-80671879D01*
X157734009Y-80671875D01*
X157734008Y-80671875D01*
X157738480Y-80655186D01*
X157754300Y-80596144D01*
X157754300Y-75614300D01*
X157773985Y-75547261D01*
X157826789Y-75501506D01*
X157878300Y-75490300D01*
X160344900Y-75490300D01*
X160411939Y-75509985D01*
X160457694Y-75562789D01*
X160468900Y-75614300D01*
X160468900Y-76014478D01*
X160483432Y-76087535D01*
X160483433Y-76087539D01*
X160483434Y-76087540D01*
X160538799Y-76170401D01*
X160621660Y-76225766D01*
X160621664Y-76225767D01*
X160694721Y-76240299D01*
X160694724Y-76240300D01*
X160694726Y-76240300D01*
X162444076Y-76240300D01*
X162444077Y-76240299D01*
X162517140Y-76225766D01*
X162600001Y-76170401D01*
X162655366Y-76087540D01*
X162669900Y-76014474D01*
X162669900Y-74265126D01*
X162669900Y-74265123D01*
X162669899Y-74265121D01*
X162655367Y-74192064D01*
X162655366Y-74192060D01*
X162600001Y-74109199D01*
X162517140Y-74053834D01*
X162517139Y-74053833D01*
X162517135Y-74053832D01*
X162444077Y-74039300D01*
X162444074Y-74039300D01*
X160694726Y-74039300D01*
X160694723Y-74039300D01*
X160621664Y-74053832D01*
X160621660Y-74053833D01*
X160538799Y-74109199D01*
X160483433Y-74192060D01*
X160483432Y-74192064D01*
X160468900Y-74265121D01*
X160468900Y-74665300D01*
X160449215Y-74732339D01*
X160396411Y-74778094D01*
X160344900Y-74789300D01*
X157332900Y-74789300D01*
X157265861Y-74769615D01*
X157220106Y-74716811D01*
X157208900Y-74665300D01*
X157208900Y-74265123D01*
X157208899Y-74265121D01*
X157194367Y-74192064D01*
X157194366Y-74192060D01*
X157139001Y-74109199D01*
X157056140Y-74053834D01*
X157056139Y-74053833D01*
X157056135Y-74053832D01*
X156983077Y-74039300D01*
X156983074Y-74039300D01*
X155233726Y-74039300D01*
X155233723Y-74039300D01*
X155160664Y-74053832D01*
X155160660Y-74053833D01*
X155077799Y-74109199D01*
X155022433Y-74192060D01*
X155022432Y-74192064D01*
X155007900Y-74265121D01*
X155007900Y-75784257D01*
X154988215Y-75851296D01*
X154935411Y-75897051D01*
X154866253Y-75906995D01*
X154802697Y-75877970D01*
X154796219Y-75871938D01*
X154616976Y-75692695D01*
X154583491Y-75631372D01*
X154588475Y-75561680D01*
X154593648Y-75549761D01*
X154598982Y-75539050D01*
X154654797Y-75342883D01*
X154673615Y-75139800D01*
X154654797Y-74936717D01*
X154598982Y-74740550D01*
X154594893Y-74732339D01*
X154534175Y-74610400D01*
X154508073Y-74557979D01*
X154385164Y-74395221D01*
X154385162Y-74395218D01*
X154234441Y-74257819D01*
X154234439Y-74257817D01*
X154061042Y-74150455D01*
X154061035Y-74150451D01*
X153874067Y-74078020D01*
X153870856Y-74076776D01*
X153670376Y-74039300D01*
X153466424Y-74039300D01*
X153265944Y-74076776D01*
X153265941Y-74076776D01*
X153265941Y-74076777D01*
X153075764Y-74150451D01*
X153075757Y-74150455D01*
X152902360Y-74257817D01*
X152902358Y-74257819D01*
X152751637Y-74395218D01*
X152628727Y-74557978D01*
X152537822Y-74740539D01*
X152537817Y-74740552D01*
X152482002Y-74936717D01*
X152463185Y-75139799D01*
X152463185Y-75139800D01*
X152482002Y-75342882D01*
X152537817Y-75539047D01*
X152537822Y-75539060D01*
X152628727Y-75721621D01*
X152751637Y-75884381D01*
X152902358Y-76021780D01*
X152902360Y-76021782D01*
X152924354Y-76035400D01*
X153075763Y-76129148D01*
X153265944Y-76202824D01*
X153466424Y-76240300D01*
X153466426Y-76240300D01*
X153670374Y-76240300D01*
X153670376Y-76240300D01*
X153870856Y-76202824D01*
X153986437Y-76158047D01*
X154056058Y-76152185D01*
X154117799Y-76184894D01*
X154118911Y-76185993D01*
X154476981Y-76544062D01*
X154510466Y-76605385D01*
X154513300Y-76631743D01*
X154513300Y-76771199D01*
X154493615Y-76838238D01*
X154440811Y-76883993D01*
X154371653Y-76893937D01*
X154308097Y-76864912D01*
X154305762Y-76862836D01*
X154234441Y-76797819D01*
X154234439Y-76797817D01*
X154061042Y-76690455D01*
X154061035Y-76690451D01*
X153935169Y-76641691D01*
X153870856Y-76616776D01*
X153670376Y-76579300D01*
X153466424Y-76579300D01*
X153265944Y-76616776D01*
X153265941Y-76616776D01*
X153265941Y-76616777D01*
X153075764Y-76690451D01*
X153075757Y-76690455D01*
X152902360Y-76797817D01*
X152902358Y-76797819D01*
X152751637Y-76935218D01*
X152628727Y-77097978D01*
X152541582Y-77272988D01*
X152494079Y-77324225D01*
X152426416Y-77341646D01*
X152360076Y-77319720D01*
X152316121Y-77265409D01*
X152310807Y-77249808D01*
X152301834Y-77216318D01*
X152301829Y-77216307D01*
X152202000Y-77002222D01*
X152201999Y-77002220D01*
X152066513Y-76808726D01*
X152066508Y-76808720D01*
X151899482Y-76641694D01*
X151705978Y-76506199D01*
X151491892Y-76406370D01*
X151491877Y-76406364D01*
X151452814Y-76395897D01*
X151393154Y-76359532D01*
X151362626Y-76296685D01*
X151370921Y-76227309D01*
X151415407Y-76173432D01*
X151440110Y-76160498D01*
X151521037Y-76129148D01*
X151694441Y-76021781D01*
X151822522Y-75905019D01*
X151845162Y-75884381D01*
X151845164Y-75884379D01*
X151968073Y-75721621D01*
X152058982Y-75539050D01*
X152114797Y-75342883D01*
X152133615Y-75139800D01*
X152114797Y-74936717D01*
X152058982Y-74740550D01*
X152054893Y-74732339D01*
X151994175Y-74610400D01*
X151968073Y-74557979D01*
X151845164Y-74395221D01*
X151845162Y-74395218D01*
X151694441Y-74257819D01*
X151694439Y-74257817D01*
X151521042Y-74150455D01*
X151521035Y-74150451D01*
X151334067Y-74078020D01*
X151330856Y-74076776D01*
X151130376Y-74039300D01*
X150926424Y-74039300D01*
X150725944Y-74076776D01*
X150725941Y-74076776D01*
X150725941Y-74076777D01*
X150535764Y-74150451D01*
X150535757Y-74150455D01*
X150362360Y-74257817D01*
X150362358Y-74257819D01*
X150211637Y-74395218D01*
X150088727Y-74557978D01*
X150007765Y-74720572D01*
X149960262Y-74771809D01*
X149896765Y-74789300D01*
X147299256Y-74789300D01*
X147210112Y-74813186D01*
X147210111Y-74813186D01*
X147210109Y-74813187D01*
X147210106Y-74813188D01*
X147130194Y-74859326D01*
X147130185Y-74859333D01*
X146810931Y-75178586D01*
X146810927Y-75178591D01*
X146764787Y-75258509D01*
X146764786Y-75258512D01*
X146740900Y-75347656D01*
X146740900Y-80801456D01*
X146721215Y-80868495D01*
X146668411Y-80914250D01*
X146599253Y-80924194D01*
X146535697Y-80895169D01*
X146529219Y-80889137D01*
X146392213Y-80752131D01*
X146392212Y-80752130D01*
X146312288Y-80705986D01*
X146294915Y-80701331D01*
X146294911Y-80701330D01*
X146294910Y-80701329D01*
X146235053Y-80685291D01*
X146223144Y-80682100D01*
X146223143Y-80682100D01*
X140707900Y-80682100D01*
X140640861Y-80662415D01*
X140595106Y-80609611D01*
X140583900Y-80558100D01*
X140583900Y-75797960D01*
X140603585Y-75730921D01*
X140656389Y-75685166D01*
X140657466Y-75684680D01*
X140671636Y-75678370D01*
X140698699Y-75666322D01*
X140856092Y-75551969D01*
X140856100Y-75551960D01*
X140857148Y-75551017D01*
X140857895Y-75550658D01*
X140861349Y-75548149D01*
X140861807Y-75548780D01*
X140920137Y-75520782D01*
X140989473Y-75529401D01*
X141043142Y-75574138D01*
X141063417Y-75629899D01*
X141064801Y-75642774D01*
X141064803Y-75642779D01*
X141115045Y-75777486D01*
X141115049Y-75777493D01*
X141201209Y-75892587D01*
X141201212Y-75892590D01*
X141316306Y-75978750D01*
X141316313Y-75978754D01*
X141451020Y-76028996D01*
X141451027Y-76028998D01*
X141510555Y-76035399D01*
X141510572Y-76035400D01*
X141983400Y-76035400D01*
X141983400Y-75176086D01*
X141987794Y-75180480D01*
X142079006Y-75233141D01*
X142180739Y-75260400D01*
X142286061Y-75260400D01*
X142387794Y-75233141D01*
X142479006Y-75180480D01*
X142483400Y-75176086D01*
X142483400Y-76035400D01*
X142956228Y-76035400D01*
X142956244Y-76035399D01*
X143015772Y-76028998D01*
X143015779Y-76028996D01*
X143150486Y-75978754D01*
X143150493Y-75978750D01*
X143265587Y-75892590D01*
X143265590Y-75892587D01*
X143351750Y-75777493D01*
X143351754Y-75777486D01*
X143401996Y-75642779D01*
X143401998Y-75642772D01*
X143408399Y-75583244D01*
X143408400Y-75583227D01*
X143408400Y-75110400D01*
X142549086Y-75110400D01*
X142553480Y-75106006D01*
X142606141Y-75014794D01*
X142633400Y-74913061D01*
X142633400Y-74807739D01*
X142606141Y-74706006D01*
X142553480Y-74614794D01*
X142549086Y-74610400D01*
X143408400Y-74610400D01*
X143408400Y-74137572D01*
X143408399Y-74137555D01*
X143401998Y-74078027D01*
X143401996Y-74078020D01*
X143351754Y-73943313D01*
X143351750Y-73943306D01*
X143265590Y-73828212D01*
X143265587Y-73828209D01*
X143150493Y-73742049D01*
X143150486Y-73742045D01*
X143015779Y-73691803D01*
X143015772Y-73691801D01*
X142956244Y-73685400D01*
X142483400Y-73685400D01*
X142483400Y-74544714D01*
X142479006Y-74540320D01*
X142387794Y-74487659D01*
X142286061Y-74460400D01*
X142180739Y-74460400D01*
X142079006Y-74487659D01*
X141987794Y-74540320D01*
X141983400Y-74544714D01*
X141983400Y-73685400D01*
X141510555Y-73685400D01*
X141451027Y-73691801D01*
X141451020Y-73691803D01*
X141316313Y-73742045D01*
X141316306Y-73742049D01*
X141201212Y-73828209D01*
X141201209Y-73828212D01*
X141115049Y-73943306D01*
X141115045Y-73943313D01*
X141064803Y-74078020D01*
X141064802Y-74078025D01*
X141063417Y-74090901D01*
X141036675Y-74155451D01*
X140979280Y-74195296D01*
X140909455Y-74197785D01*
X140861671Y-74172206D01*
X140861349Y-74172651D01*
X140858122Y-74170306D01*
X140857157Y-74169790D01*
X140856094Y-74168833D01*
X140856093Y-74168832D01*
X140856092Y-74168831D01*
X140748831Y-74090901D01*
X140698697Y-74054476D01*
X140562248Y-73993726D01*
X140520971Y-73975349D01*
X140520969Y-73975348D01*
X140330674Y-73934900D01*
X140136126Y-73934900D01*
X139945831Y-73975348D01*
X139768102Y-74054476D01*
X139610705Y-74168833D01*
X139610702Y-74168835D01*
X139480529Y-74313409D01*
X139383257Y-74481888D01*
X139383256Y-74481889D01*
X139323138Y-74666916D01*
X139302802Y-74860400D01*
X139323138Y-75053883D01*
X139383256Y-75238910D01*
X139383257Y-75238911D01*
X139463559Y-75377997D01*
X139480530Y-75407392D01*
X139525876Y-75457754D01*
X139610702Y-75551964D01*
X139610705Y-75551966D01*
X139610708Y-75551969D01*
X139768101Y-75666322D01*
X139768102Y-75666322D01*
X139768103Y-75666323D01*
X139809334Y-75684680D01*
X139862571Y-75729929D01*
X139882894Y-75796778D01*
X139882900Y-75797960D01*
X139882900Y-80875544D01*
X139894540Y-80918987D01*
X139906785Y-80964685D01*
X139906787Y-80964690D01*
X139952927Y-81044608D01*
X139952929Y-81044611D01*
X139952930Y-81044612D01*
X140221388Y-81313070D01*
X140301312Y-81359214D01*
X140390456Y-81383100D01*
X145956500Y-81383100D01*
X146023539Y-81402785D01*
X146069294Y-81455589D01*
X146080500Y-81507100D01*
X146080500Y-88913256D01*
X146060815Y-88980295D01*
X146044181Y-89000937D01*
X145941137Y-89103981D01*
X145879814Y-89137466D01*
X145853456Y-89140300D01*
X145264125Y-89140300D01*
X145197086Y-89120615D01*
X145151331Y-89067811D01*
X145149564Y-89063752D01*
X145120343Y-88993205D01*
X145005375Y-88821142D01*
X144859057Y-88674824D01*
X144710282Y-88575417D01*
X144686998Y-88559859D01*
X144495820Y-88480670D01*
X144495812Y-88480668D01*
X144292869Y-88440300D01*
X144292865Y-88440300D01*
X143285935Y-88440300D01*
X143285930Y-88440300D01*
X143082987Y-88480668D01*
X143082979Y-88480670D01*
X142891803Y-88559858D01*
X142719742Y-88674824D01*
X142573424Y-88821142D01*
X142458456Y-88993205D01*
X142429236Y-89063752D01*
X142385395Y-89118156D01*
X142319101Y-89140221D01*
X142314675Y-89140300D01*
X137416900Y-89140300D01*
X137349861Y-89120615D01*
X137304106Y-89067811D01*
X137292900Y-89016300D01*
X137292900Y-87747123D01*
X137292899Y-87747121D01*
X137278367Y-87674064D01*
X137278366Y-87674060D01*
X137223001Y-87591199D01*
X137140140Y-87535834D01*
X137140139Y-87535833D01*
X137140135Y-87535832D01*
X137067077Y-87521300D01*
X137067074Y-87521300D01*
X135017726Y-87521300D01*
X135017723Y-87521300D01*
X134944664Y-87535832D01*
X134944660Y-87535833D01*
X134861799Y-87591199D01*
X134806433Y-87674060D01*
X134806432Y-87674064D01*
X134791900Y-87747121D01*
X134791900Y-91996478D01*
X134806432Y-92069535D01*
X134806433Y-92069539D01*
X134806434Y-92069540D01*
X134861799Y-92152401D01*
X134944660Y-92207766D01*
X134944664Y-92207767D01*
X135017721Y-92222299D01*
X135017724Y-92222300D01*
X135017726Y-92222300D01*
X137067076Y-92222300D01*
X137067077Y-92222299D01*
X137140140Y-92207766D01*
X137223001Y-92152401D01*
X137278366Y-92069540D01*
X137292900Y-91996474D01*
X137292900Y-89965300D01*
X137312585Y-89898261D01*
X137365389Y-89852506D01*
X137416900Y-89841300D01*
X142314675Y-89841300D01*
X142381714Y-89860985D01*
X142427469Y-89913789D01*
X142429236Y-89917848D01*
X142458456Y-89988394D01*
X142573424Y-90160457D01*
X142719742Y-90306775D01*
X142719745Y-90306777D01*
X142891802Y-90421741D01*
X143082980Y-90500930D01*
X143274277Y-90538981D01*
X143285930Y-90541299D01*
X143285934Y-90541300D01*
X143285935Y-90541300D01*
X144292866Y-90541300D01*
X144292867Y-90541299D01*
X144495820Y-90500930D01*
X144686998Y-90421741D01*
X144859055Y-90306777D01*
X145005377Y-90160455D01*
X145120341Y-89988398D01*
X145149564Y-89917848D01*
X145193405Y-89863444D01*
X145259699Y-89841379D01*
X145264125Y-89841300D01*
X146096142Y-89841300D01*
X146096144Y-89841300D01*
X146185288Y-89817414D01*
X146265212Y-89771270D01*
X146529219Y-89507261D01*
X146590542Y-89473777D01*
X146660233Y-89478761D01*
X146716167Y-89520632D01*
X146740584Y-89586097D01*
X146740900Y-89594943D01*
X146740900Y-91554856D01*
X146721215Y-91621895D01*
X146704581Y-91642537D01*
X146703137Y-91643981D01*
X146641814Y-91677466D01*
X146615456Y-91680300D01*
X145264125Y-91680300D01*
X145197086Y-91660615D01*
X145151331Y-91607811D01*
X145149564Y-91603752D01*
X145120343Y-91533205D01*
X145005375Y-91361142D01*
X144859057Y-91214824D01*
X144768773Y-91154499D01*
X144686998Y-91099859D01*
X144495820Y-91020670D01*
X144495812Y-91020668D01*
X144292869Y-90980300D01*
X144292865Y-90980300D01*
X143285935Y-90980300D01*
X143285930Y-90980300D01*
X143082987Y-91020668D01*
X143082979Y-91020670D01*
X142891803Y-91099858D01*
X142719742Y-91214824D01*
X142573424Y-91361142D01*
X142458458Y-91533203D01*
X142379270Y-91724379D01*
X142379268Y-91724387D01*
X142338900Y-91927330D01*
X142338900Y-92134269D01*
X142379268Y-92337212D01*
X142379270Y-92337220D01*
X142458458Y-92528396D01*
X142573424Y-92700457D01*
X142719742Y-92846775D01*
X142719745Y-92846777D01*
X142891802Y-92961741D01*
X143082980Y-93040930D01*
X143285930Y-93081299D01*
X143285934Y-93081300D01*
X143285935Y-93081300D01*
X144292866Y-93081300D01*
X144292867Y-93081299D01*
X144495820Y-93040930D01*
X144686998Y-92961741D01*
X144859055Y-92846777D01*
X145005377Y-92700455D01*
X145120341Y-92528398D01*
X145146437Y-92465398D01*
X145149564Y-92457848D01*
X145193405Y-92403444D01*
X145259699Y-92381379D01*
X145264125Y-92381300D01*
X146858142Y-92381300D01*
X146858144Y-92381300D01*
X146947288Y-92357414D01*
X147027212Y-92311270D01*
X147291219Y-92047261D01*
X147352542Y-92013777D01*
X147422233Y-92018761D01*
X147478167Y-92060632D01*
X147502584Y-92126097D01*
X147502900Y-92134943D01*
X147502900Y-99176300D01*
X147483215Y-99243339D01*
X147430411Y-99289094D01*
X147378900Y-99300300D01*
X145264125Y-99300300D01*
X145197086Y-99280615D01*
X145151331Y-99227811D01*
X145149564Y-99223752D01*
X145120343Y-99153205D01*
X145005375Y-98981142D01*
X144992614Y-98968381D01*
X144959129Y-98907058D01*
X144964113Y-98837366D01*
X145005985Y-98781433D01*
X145071449Y-98757016D01*
X145080295Y-98756700D01*
X145664342Y-98756700D01*
X145664344Y-98756700D01*
X145753488Y-98732814D01*
X145833412Y-98686670D01*
X146101870Y-98418212D01*
X146148014Y-98338288D01*
X146166067Y-98270912D01*
X146171900Y-98249144D01*
X146171900Y-95306705D01*
X146191585Y-95239666D01*
X146197524Y-95231219D01*
X146221197Y-95200366D01*
X146276861Y-95127825D01*
X146332330Y-94993909D01*
X146351250Y-94850200D01*
X146332330Y-94706491D01*
X146276861Y-94572575D01*
X146188621Y-94457579D01*
X146073625Y-94369339D01*
X146073624Y-94369338D01*
X146073622Y-94369337D01*
X145939712Y-94313871D01*
X145939710Y-94313870D01*
X145939709Y-94313870D01*
X145867854Y-94304410D01*
X145796001Y-94294950D01*
X145795999Y-94294950D01*
X145652291Y-94313870D01*
X145652287Y-94313871D01*
X145518377Y-94369337D01*
X145481221Y-94397848D01*
X145418063Y-94446310D01*
X145352897Y-94471504D01*
X145284452Y-94457466D01*
X145234462Y-94408652D01*
X145220962Y-94372125D01*
X145199531Y-94264387D01*
X145199530Y-94264380D01*
X145120341Y-94073202D01*
X145005377Y-93901145D01*
X145005375Y-93901142D01*
X144859057Y-93754824D01*
X144714413Y-93658177D01*
X144686998Y-93639859D01*
X144495820Y-93560670D01*
X144495812Y-93560668D01*
X144292869Y-93520300D01*
X144292865Y-93520300D01*
X143285935Y-93520300D01*
X143285930Y-93520300D01*
X143082987Y-93560668D01*
X143082979Y-93560670D01*
X142891803Y-93639858D01*
X142719742Y-93754824D01*
X142573424Y-93901142D01*
X142458458Y-94073203D01*
X142379270Y-94264379D01*
X142379268Y-94264387D01*
X142338900Y-94467330D01*
X142338900Y-94674269D01*
X142373895Y-94850199D01*
X142379270Y-94877220D01*
X142458459Y-95068398D01*
X142498165Y-95127823D01*
X142573424Y-95240457D01*
X142719742Y-95386775D01*
X142719745Y-95386777D01*
X142891802Y-95501741D01*
X143082980Y-95580930D01*
X143285930Y-95621299D01*
X143285934Y-95621300D01*
X143285935Y-95621300D01*
X144292866Y-95621300D01*
X144292867Y-95621299D01*
X144495820Y-95580930D01*
X144686998Y-95501741D01*
X144859055Y-95386777D01*
X145005377Y-95240455D01*
X145096513Y-95104059D01*
X145150123Y-95059256D01*
X145219448Y-95050548D01*
X145282476Y-95080702D01*
X145310908Y-95120881D01*
X145311075Y-95120786D01*
X145312111Y-95122581D01*
X145314174Y-95125496D01*
X145315138Y-95127823D01*
X145315139Y-95127825D01*
X145403379Y-95242821D01*
X145422383Y-95257403D01*
X145463588Y-95313829D01*
X145470900Y-95355781D01*
X145470900Y-96909656D01*
X145451215Y-96976695D01*
X145398411Y-97022450D01*
X145329253Y-97032394D01*
X145265697Y-97003369D01*
X145227923Y-96944591D01*
X145225283Y-96933847D01*
X145199531Y-96804387D01*
X145199530Y-96804380D01*
X145120341Y-96613202D01*
X145005377Y-96441145D01*
X145005375Y-96441142D01*
X144859057Y-96294824D01*
X144773026Y-96237341D01*
X144686998Y-96179859D01*
X144578180Y-96134785D01*
X144495820Y-96100670D01*
X144495812Y-96100668D01*
X144292869Y-96060300D01*
X144292865Y-96060300D01*
X143285935Y-96060300D01*
X143285930Y-96060300D01*
X143082987Y-96100668D01*
X143082979Y-96100670D01*
X142891803Y-96179858D01*
X142719742Y-96294824D01*
X142573424Y-96441142D01*
X142458458Y-96613203D01*
X142379270Y-96804379D01*
X142379268Y-96804387D01*
X142338900Y-97007330D01*
X142338900Y-97214269D01*
X142379268Y-97417212D01*
X142379270Y-97417220D01*
X142458458Y-97608396D01*
X142573424Y-97780457D01*
X142636986Y-97844019D01*
X142670471Y-97905342D01*
X142665487Y-97975034D01*
X142623615Y-98030967D01*
X142558151Y-98055384D01*
X142549305Y-98055700D01*
X131043256Y-98055700D01*
X130954112Y-98079586D01*
X130954111Y-98079586D01*
X130954109Y-98079587D01*
X130954106Y-98079588D01*
X130874194Y-98125726D01*
X130874185Y-98125733D01*
X130554931Y-98444986D01*
X130554927Y-98444991D01*
X130508787Y-98524909D01*
X130508786Y-98524912D01*
X130484900Y-98614056D01*
X130484900Y-99825108D01*
X130465215Y-99892147D01*
X130447313Y-99911612D01*
X130448529Y-99912828D01*
X130442784Y-99918572D01*
X130354537Y-100033577D01*
X130299071Y-100167487D01*
X130299070Y-100167491D01*
X130280150Y-100311199D01*
X130280150Y-100311200D01*
X124683500Y-100311200D01*
X124683500Y-90121800D01*
X126542400Y-90121800D01*
X126542400Y-92019644D01*
X126548801Y-92079172D01*
X126548803Y-92079179D01*
X126599045Y-92213886D01*
X126599049Y-92213893D01*
X126685209Y-92328987D01*
X126685212Y-92328990D01*
X126800306Y-92415150D01*
X126800313Y-92415154D01*
X126935020Y-92465396D01*
X126935027Y-92465398D01*
X126994555Y-92471799D01*
X126994572Y-92471800D01*
X127792400Y-92471800D01*
X127792400Y-90121800D01*
X128292400Y-90121800D01*
X128292400Y-92471800D01*
X129090228Y-92471800D01*
X129090244Y-92471799D01*
X129149772Y-92465398D01*
X129149779Y-92465396D01*
X129284486Y-92415154D01*
X129284493Y-92415150D01*
X129399587Y-92328990D01*
X129399590Y-92328987D01*
X129485750Y-92213893D01*
X129485754Y-92213886D01*
X129535996Y-92079179D01*
X129535998Y-92079172D01*
X129542399Y-92019644D01*
X129542400Y-92019627D01*
X129542400Y-90121800D01*
X128292400Y-90121800D01*
X127792400Y-90121800D01*
X126542400Y-90121800D01*
X124683500Y-90121800D01*
X124683500Y-89621800D01*
X126542400Y-89621800D01*
X127792400Y-89621800D01*
X127792400Y-87271800D01*
X128292400Y-87271800D01*
X128292400Y-89621800D01*
X129542400Y-89621800D01*
X129542400Y-87723972D01*
X129542399Y-87723955D01*
X129535998Y-87664427D01*
X129535996Y-87664420D01*
X129485754Y-87529713D01*
X129485750Y-87529706D01*
X129399590Y-87414612D01*
X129399587Y-87414609D01*
X129284493Y-87328449D01*
X129284486Y-87328445D01*
X129149779Y-87278203D01*
X129149772Y-87278201D01*
X129090244Y-87271800D01*
X128292400Y-87271800D01*
X127792400Y-87271800D01*
X126994555Y-87271800D01*
X126935027Y-87278201D01*
X126935020Y-87278203D01*
X126800313Y-87328445D01*
X126800306Y-87328449D01*
X126685212Y-87414609D01*
X126685209Y-87414612D01*
X126599049Y-87529706D01*
X126599045Y-87529713D01*
X126548803Y-87664420D01*
X126548801Y-87664427D01*
X126542400Y-87723955D01*
X126542400Y-89621800D01*
X124683500Y-89621800D01*
X124683500Y-84658143D01*
X124703185Y-84591104D01*
X124719819Y-84570462D01*
X124746662Y-84543619D01*
X124807985Y-84510134D01*
X124834343Y-84507300D01*
X128114108Y-84507300D01*
X128181147Y-84526985D01*
X128200612Y-84544886D01*
X128201828Y-84543671D01*
X128207572Y-84549415D01*
X128207577Y-84549419D01*
X128207579Y-84549421D01*
X128322575Y-84637661D01*
X128456491Y-84693130D01*
X128583480Y-84709848D01*
X128600199Y-84712050D01*
X128600200Y-84712050D01*
X128600201Y-84712050D01*
X128615177Y-84710078D01*
X128743909Y-84693130D01*
X128877825Y-84637661D01*
X128992821Y-84549421D01*
X129081061Y-84434425D01*
X129136530Y-84300509D01*
X129155450Y-84156800D01*
X129136530Y-84013091D01*
X129081061Y-83879175D01*
X128992821Y-83764179D01*
X128877825Y-83675939D01*
X128877824Y-83675938D01*
X128877822Y-83675937D01*
X128743912Y-83620471D01*
X128743910Y-83620470D01*
X128743909Y-83620470D01*
X128672054Y-83611010D01*
X128600201Y-83601550D01*
X128600199Y-83601550D01*
X128456491Y-83620470D01*
X128456487Y-83620471D01*
X128322577Y-83675937D01*
X128207572Y-83764184D01*
X128201828Y-83769929D01*
X128199311Y-83767412D01*
X128156017Y-83799003D01*
X128114108Y-83806300D01*
X124591656Y-83806300D01*
X124507873Y-83828748D01*
X124507874Y-83828749D01*
X124502515Y-83830185D01*
X124502512Y-83830186D01*
X124422591Y-83876328D01*
X124422585Y-83876333D01*
X124052531Y-84246386D01*
X124052527Y-84246391D01*
X124006387Y-84326309D01*
X124006386Y-84326312D01*
X123982500Y-84415456D01*
X123982500Y-101840300D01*
X123962815Y-101907339D01*
X123910011Y-101953094D01*
X123858500Y-101964300D01*
X123193492Y-101964300D01*
X123126453Y-101944615D01*
X123106987Y-101926713D01*
X123105772Y-101927929D01*
X123100027Y-101922184D01*
X123100021Y-101922179D01*
X122985025Y-101833939D01*
X122985024Y-101833938D01*
X122985022Y-101833937D01*
X122851112Y-101778471D01*
X122851110Y-101778470D01*
X122851109Y-101778470D01*
X122779254Y-101769010D01*
X122707401Y-101759550D01*
X122707399Y-101759550D01*
X122563691Y-101778470D01*
X122563687Y-101778471D01*
X122429777Y-101833937D01*
X122314779Y-101922179D01*
X122226537Y-102037177D01*
X122171071Y-102171087D01*
X122171070Y-102171091D01*
X122152150Y-102314799D01*
X122152150Y-102314800D01*
X108132845Y-102314800D01*
X108134580Y-102313065D01*
X108134579Y-102313064D01*
X107991919Y-102193357D01*
X107699938Y-102001319D01*
X107387660Y-101844485D01*
X107387654Y-101844483D01*
X107059269Y-101724961D01*
X107059266Y-101724960D01*
X106719228Y-101644370D01*
X106372123Y-101603800D01*
X106022677Y-101603800D01*
X105675572Y-101644370D01*
X105675570Y-101644370D01*
X105335533Y-101724960D01*
X105335530Y-101724961D01*
X105007145Y-101844483D01*
X105007139Y-101844485D01*
X104694861Y-102001319D01*
X104402880Y-102193357D01*
X104260219Y-102313064D01*
X104260218Y-102313065D01*
X105507274Y-103560120D01*
X105383080Y-103650354D01*
X105243954Y-103789480D01*
X105153720Y-103913673D01*
X103903548Y-102663501D01*
X103903547Y-102663502D01*
X103895376Y-102672163D01*
X103895372Y-102672168D01*
X103686689Y-102952477D01*
X103511961Y-103255116D01*
X103511955Y-103255129D01*
X103373545Y-103575999D01*
X103273316Y-103910788D01*
X103273314Y-103910797D01*
X103212636Y-104254919D01*
X103212635Y-104254930D01*
X103192316Y-104603796D01*
X103192316Y-104603803D01*
X98036500Y-104603803D01*
X98036500Y-88014844D01*
X100173800Y-88014844D01*
X100180201Y-88074372D01*
X100180203Y-88074379D01*
X100230445Y-88209086D01*
X100230449Y-88209093D01*
X100316609Y-88324187D01*
X100316612Y-88324190D01*
X100431706Y-88410350D01*
X100431713Y-88410354D01*
X100566420Y-88460596D01*
X100566427Y-88460598D01*
X100625955Y-88466999D01*
X100625972Y-88467000D01*
X100919412Y-88467000D01*
X100986451Y-88486685D01*
X101032206Y-88539489D01*
X101042150Y-88608647D01*
X101013125Y-88672203D01*
X100984689Y-88696427D01*
X100857760Y-88775017D01*
X100857758Y-88775019D01*
X100707037Y-88912418D01*
X100584127Y-89075178D01*
X100493222Y-89257739D01*
X100493217Y-89257752D01*
X100437402Y-89453917D01*
X100418585Y-89656999D01*
X100418585Y-89657000D01*
X100437402Y-89860082D01*
X100493217Y-90056247D01*
X100493222Y-90056260D01*
X100584127Y-90238821D01*
X100707037Y-90401581D01*
X100857758Y-90538980D01*
X100857760Y-90538982D01*
X100955097Y-90599250D01*
X101031163Y-90646348D01*
X101221344Y-90720024D01*
X101421824Y-90757500D01*
X101421826Y-90757500D01*
X101625774Y-90757500D01*
X101625776Y-90757500D01*
X101826256Y-90720024D01*
X102016437Y-90646348D01*
X102189841Y-90538981D01*
X102340564Y-90401579D01*
X102463473Y-90238821D01*
X102554382Y-90056250D01*
X102610197Y-89860083D01*
X102629015Y-89657000D01*
X102626676Y-89631763D01*
X102610197Y-89453917D01*
X102593263Y-89394400D01*
X102554382Y-89257750D01*
X102463473Y-89075179D01*
X102340564Y-88912421D01*
X102340562Y-88912418D01*
X102189841Y-88775019D01*
X102189839Y-88775017D01*
X102062911Y-88696427D01*
X102016275Y-88644399D01*
X102005171Y-88575417D01*
X102033124Y-88511383D01*
X102091259Y-88472627D01*
X102128188Y-88467000D01*
X102421628Y-88467000D01*
X102421644Y-88466999D01*
X102481172Y-88460598D01*
X102481179Y-88460596D01*
X102615886Y-88410354D01*
X102615893Y-88410350D01*
X102730987Y-88324190D01*
X102730990Y-88324187D01*
X102817150Y-88209093D01*
X102817154Y-88209086D01*
X102867396Y-88074379D01*
X102867398Y-88074372D01*
X102873799Y-88014844D01*
X102873800Y-88014827D01*
X102873800Y-87367000D01*
X101956812Y-87367000D01*
X101989725Y-87309993D01*
X102023800Y-87182826D01*
X102023800Y-87051174D01*
X101989725Y-86924007D01*
X101956812Y-86867000D01*
X102873800Y-86867000D01*
X102873800Y-86219172D01*
X102873799Y-86219155D01*
X102867398Y-86159627D01*
X102867396Y-86159620D01*
X102817154Y-86024913D01*
X102817150Y-86024906D01*
X102730990Y-85909812D01*
X102730987Y-85909809D01*
X102615893Y-85823649D01*
X102615886Y-85823645D01*
X102481179Y-85773403D01*
X102481172Y-85773401D01*
X102421644Y-85767000D01*
X101773800Y-85767000D01*
X101773800Y-86683988D01*
X101716793Y-86651075D01*
X101589626Y-86617000D01*
X101457974Y-86617000D01*
X101330807Y-86651075D01*
X101273800Y-86683988D01*
X101273800Y-85767000D01*
X100625955Y-85767000D01*
X100566427Y-85773401D01*
X100566420Y-85773403D01*
X100431713Y-85823645D01*
X100431706Y-85823649D01*
X100316612Y-85909809D01*
X100316609Y-85909812D01*
X100230449Y-86024906D01*
X100230445Y-86024913D01*
X100180203Y-86159620D01*
X100180201Y-86159627D01*
X100173800Y-86219155D01*
X100173800Y-86867000D01*
X101090788Y-86867000D01*
X101057875Y-86924007D01*
X101023800Y-87051174D01*
X101023800Y-87182826D01*
X101057875Y-87309993D01*
X101090788Y-87367000D01*
X100173800Y-87367000D01*
X100173800Y-88014844D01*
X98036500Y-88014844D01*
X98036500Y-81972400D01*
X117122950Y-81972400D01*
X117141870Y-82116108D01*
X117141871Y-82116112D01*
X117197338Y-82250023D01*
X117197339Y-82250025D01*
X117285580Y-82365023D01*
X117291326Y-82370769D01*
X117288774Y-82373320D01*
X117320291Y-82416273D01*
X117327700Y-82458492D01*
X117327700Y-82678943D01*
X117349813Y-82761472D01*
X117349822Y-82761503D01*
X117351585Y-82768087D01*
X117351586Y-82768088D01*
X117397730Y-82848012D01*
X117651731Y-83102012D01*
X117716988Y-83167269D01*
X117716991Y-83167270D01*
X117716994Y-83167273D01*
X117796906Y-83213411D01*
X117796907Y-83213411D01*
X117796912Y-83213414D01*
X117886056Y-83237300D01*
X130374708Y-83237300D01*
X130441747Y-83256985D01*
X130461212Y-83274886D01*
X130462428Y-83273671D01*
X130468172Y-83279415D01*
X130468177Y-83279419D01*
X130468179Y-83279421D01*
X130583175Y-83367661D01*
X130583176Y-83367661D01*
X130583177Y-83367662D01*
X130600490Y-83374833D01*
X130717091Y-83423130D01*
X130844080Y-83439848D01*
X130860799Y-83442050D01*
X130860800Y-83442050D01*
X130860801Y-83442050D01*
X130875777Y-83440078D01*
X131004509Y-83423130D01*
X131138425Y-83367661D01*
X131253421Y-83279421D01*
X131341661Y-83164425D01*
X131397130Y-83030509D01*
X131416050Y-82886800D01*
X131397130Y-82743091D01*
X131341661Y-82609175D01*
X131253421Y-82494179D01*
X131138425Y-82405939D01*
X131138424Y-82405938D01*
X131138422Y-82405937D01*
X131004512Y-82350471D01*
X131004510Y-82350470D01*
X131004509Y-82350470D01*
X130900776Y-82336813D01*
X130860801Y-82331550D01*
X130860799Y-82331550D01*
X130717091Y-82350470D01*
X130717087Y-82350471D01*
X130583177Y-82405937D01*
X130468172Y-82494184D01*
X130462428Y-82499929D01*
X130459911Y-82497412D01*
X130416617Y-82529003D01*
X130374708Y-82536300D01*
X118190841Y-82536300D01*
X118123802Y-82516615D01*
X118078047Y-82463811D01*
X118068103Y-82394653D01*
X118092463Y-82336815D01*
X118159061Y-82250025D01*
X118214530Y-82116109D01*
X118233450Y-81972400D01*
X118214530Y-81828691D01*
X118167361Y-81714813D01*
X118159062Y-81694777D01*
X118159061Y-81694776D01*
X118159061Y-81694775D01*
X118070821Y-81579779D01*
X117955825Y-81491539D01*
X117955824Y-81491538D01*
X117955822Y-81491537D01*
X117821912Y-81436071D01*
X117821910Y-81436070D01*
X117821909Y-81436070D01*
X117712502Y-81421666D01*
X117678201Y-81417150D01*
X117678199Y-81417150D01*
X117534491Y-81436070D01*
X117534487Y-81436071D01*
X117400577Y-81491537D01*
X117285579Y-81579779D01*
X117197337Y-81694777D01*
X117141871Y-81828687D01*
X117141870Y-81828691D01*
X117122950Y-81972399D01*
X117122950Y-81972400D01*
X98036500Y-81972400D01*
X98036500Y-78695803D01*
X103192316Y-78695803D01*
X103212635Y-79044669D01*
X103212636Y-79044680D01*
X103273314Y-79388802D01*
X103273316Y-79388811D01*
X103373545Y-79723600D01*
X103511955Y-80044470D01*
X103511961Y-80044483D01*
X103686689Y-80347122D01*
X103895367Y-80627425D01*
X103903548Y-80636096D01*
X105153720Y-79385925D01*
X105243954Y-79510120D01*
X105383080Y-79649246D01*
X105507273Y-79739478D01*
X104260218Y-80986533D01*
X104260219Y-80986534D01*
X104402884Y-81106245D01*
X104694861Y-81298280D01*
X105007139Y-81455114D01*
X105007145Y-81455116D01*
X105335530Y-81574638D01*
X105335533Y-81574639D01*
X105675571Y-81655229D01*
X106022676Y-81695799D01*
X106022677Y-81695800D01*
X106372123Y-81695800D01*
X106372123Y-81695799D01*
X106719227Y-81655229D01*
X106719229Y-81655229D01*
X107059266Y-81574639D01*
X107059269Y-81574638D01*
X107387654Y-81455116D01*
X107387660Y-81455114D01*
X107699938Y-81298280D01*
X107991909Y-81106249D01*
X107991910Y-81106248D01*
X108134579Y-80986534D01*
X108134580Y-80986533D01*
X106887526Y-79739478D01*
X107011720Y-79649246D01*
X107150846Y-79510120D01*
X107241078Y-79385926D01*
X108491249Y-80636097D01*
X108491251Y-80636096D01*
X108499422Y-80627436D01*
X108499433Y-80627423D01*
X108708110Y-80347122D01*
X108882838Y-80044483D01*
X108882844Y-80044470D01*
X109021254Y-79723600D01*
X109121483Y-79388811D01*
X109121485Y-79388802D01*
X109182163Y-79044680D01*
X109182164Y-79044669D01*
X109202484Y-78695803D01*
X109202484Y-78695796D01*
X109182164Y-78346930D01*
X109182163Y-78346919D01*
X109121485Y-78002797D01*
X109121483Y-78002788D01*
X109021254Y-77667999D01*
X108909279Y-77408411D01*
X113772900Y-77408411D01*
X113781077Y-77460039D01*
X113793326Y-77537380D01*
X113799998Y-77579501D01*
X113853527Y-77744245D01*
X113932168Y-77898588D01*
X114033986Y-78038728D01*
X114156472Y-78161214D01*
X114296612Y-78263032D01*
X114450955Y-78341673D01*
X114615699Y-78395202D01*
X114786789Y-78422300D01*
X114786790Y-78422300D01*
X114960010Y-78422300D01*
X114960011Y-78422300D01*
X115131101Y-78395202D01*
X115295845Y-78341673D01*
X115450188Y-78263032D01*
X115590328Y-78161214D01*
X115712814Y-78038728D01*
X115800406Y-77918167D01*
X115855736Y-77875502D01*
X115925349Y-77869523D01*
X115987144Y-77902129D01*
X116021501Y-77962967D01*
X116024082Y-77978451D01*
X116033894Y-78074497D01*
X116089041Y-78240919D01*
X116089043Y-78240924D01*
X116181084Y-78390145D01*
X116305054Y-78514115D01*
X116454275Y-78606156D01*
X116454280Y-78606158D01*
X116620702Y-78661305D01*
X116620709Y-78661306D01*
X116723419Y-78671799D01*
X117123399Y-78671799D01*
X117123400Y-78671798D01*
X117123400Y-77604812D01*
X117180407Y-77637725D01*
X117307574Y-77671800D01*
X117439226Y-77671800D01*
X117566393Y-77637725D01*
X117623400Y-77604812D01*
X117623400Y-78671799D01*
X118023372Y-78671799D01*
X118023386Y-78671798D01*
X118126097Y-78661305D01*
X118292519Y-78606158D01*
X118292524Y-78606156D01*
X118441745Y-78514115D01*
X118565715Y-78390145D01*
X118657756Y-78240924D01*
X118657758Y-78240919D01*
X118712905Y-78074497D01*
X118712906Y-78074490D01*
X118723399Y-77971786D01*
X118723400Y-77971773D01*
X118723400Y-77421800D01*
X117806412Y-77421800D01*
X117839325Y-77364793D01*
X117873400Y-77237626D01*
X117873400Y-77105974D01*
X117839325Y-76978807D01*
X117806412Y-76921800D01*
X118723399Y-76921800D01*
X118723399Y-76371828D01*
X118723398Y-76371813D01*
X118712905Y-76269102D01*
X118657758Y-76102680D01*
X118657756Y-76102675D01*
X118565715Y-75953454D01*
X118441745Y-75829484D01*
X118292524Y-75737443D01*
X118292519Y-75737441D01*
X118126097Y-75682294D01*
X118126090Y-75682293D01*
X118023386Y-75671800D01*
X117623400Y-75671800D01*
X117623400Y-76738788D01*
X117566393Y-76705875D01*
X117439226Y-76671800D01*
X117307574Y-76671800D01*
X117180407Y-76705875D01*
X117123400Y-76738788D01*
X117123400Y-75671800D01*
X116723428Y-75671800D01*
X116723412Y-75671801D01*
X116620702Y-75682294D01*
X116454280Y-75737441D01*
X116454275Y-75737443D01*
X116305054Y-75829484D01*
X116181084Y-75953454D01*
X116089043Y-76102675D01*
X116089041Y-76102680D01*
X116033894Y-76269102D01*
X116033893Y-76269109D01*
X116024081Y-76365149D01*
X115997684Y-76429840D01*
X115940503Y-76469991D01*
X115870692Y-76472854D01*
X115810416Y-76437519D01*
X115800409Y-76425436D01*
X115712814Y-76304872D01*
X115590328Y-76182386D01*
X115450188Y-76080568D01*
X115295845Y-76001927D01*
X115131101Y-75948398D01*
X115131099Y-75948397D01*
X115131098Y-75948397D01*
X114999671Y-75927581D01*
X114960011Y-75921300D01*
X114786789Y-75921300D01*
X114747128Y-75927581D01*
X114615702Y-75948397D01*
X114450952Y-76001928D01*
X114296611Y-76080568D01*
X114229746Y-76129149D01*
X114156472Y-76182386D01*
X114156470Y-76182388D01*
X114156469Y-76182388D01*
X114033988Y-76304869D01*
X114033988Y-76304870D01*
X114033986Y-76304872D01*
X114010705Y-76336916D01*
X113932168Y-76445011D01*
X113853528Y-76599352D01*
X113799997Y-76764102D01*
X113779434Y-76893937D01*
X113772900Y-76935189D01*
X113772900Y-77408411D01*
X108909279Y-77408411D01*
X108882844Y-77347129D01*
X108882838Y-77347116D01*
X108708110Y-77044477D01*
X108499432Y-76764174D01*
X108491250Y-76755502D01*
X107241078Y-78005673D01*
X107150846Y-77881480D01*
X107011720Y-77742354D01*
X106887525Y-77652120D01*
X108134580Y-76405065D01*
X108134579Y-76405064D01*
X107991919Y-76285357D01*
X107699938Y-76093319D01*
X107387660Y-75936485D01*
X107387654Y-75936483D01*
X107059269Y-75816961D01*
X107059266Y-75816960D01*
X106719228Y-75736370D01*
X106372123Y-75695800D01*
X106022677Y-75695800D01*
X105675572Y-75736370D01*
X105675570Y-75736370D01*
X105335533Y-75816960D01*
X105335530Y-75816961D01*
X105007145Y-75936483D01*
X105007139Y-75936485D01*
X104694861Y-76093319D01*
X104402880Y-76285357D01*
X104260219Y-76405064D01*
X104260218Y-76405065D01*
X105507274Y-77652120D01*
X105383080Y-77742354D01*
X105243954Y-77881480D01*
X105153720Y-78005673D01*
X103903548Y-76755501D01*
X103903547Y-76755502D01*
X103895376Y-76764163D01*
X103895372Y-76764168D01*
X103686689Y-77044477D01*
X103511961Y-77347116D01*
X103511955Y-77347129D01*
X103373545Y-77667999D01*
X103273316Y-78002788D01*
X103273314Y-78002797D01*
X103212636Y-78346919D01*
X103212635Y-78346930D01*
X103192316Y-78695796D01*
X103192316Y-78695803D01*
X98036500Y-78695803D01*
X98036500Y-74860400D01*
X133492802Y-74860400D01*
X133513138Y-75053883D01*
X133573256Y-75238910D01*
X133573257Y-75238911D01*
X133653559Y-75377997D01*
X133670530Y-75407392D01*
X133715876Y-75457754D01*
X133800702Y-75551964D01*
X133800705Y-75551966D01*
X133800708Y-75551969D01*
X133958101Y-75666322D01*
X133958102Y-75666322D01*
X133958103Y-75666323D01*
X133999334Y-75684680D01*
X134052571Y-75729929D01*
X134072894Y-75796778D01*
X134072900Y-75797960D01*
X134072900Y-80907544D01*
X134079926Y-80933765D01*
X134086952Y-80959987D01*
X134096785Y-80996687D01*
X134142927Y-81076608D01*
X134142929Y-81076611D01*
X134142930Y-81076612D01*
X134531788Y-81465470D01*
X134609088Y-81510099D01*
X134611712Y-81511614D01*
X134700856Y-81535500D01*
X134700857Y-81535500D01*
X134793144Y-81535500D01*
X136914100Y-81535500D01*
X136981139Y-81555185D01*
X137026894Y-81607989D01*
X137038100Y-81659500D01*
X137038100Y-86819146D01*
X137045636Y-86847272D01*
X137045654Y-86847335D01*
X137061986Y-86908289D01*
X137061987Y-86908290D01*
X137108127Y-86988208D01*
X137108129Y-86988211D01*
X137108130Y-86988212D01*
X137325788Y-87205870D01*
X137405712Y-87252014D01*
X137494856Y-87275900D01*
X142304154Y-87275900D01*
X142371193Y-87295585D01*
X142416948Y-87348389D01*
X142418715Y-87352448D01*
X142458456Y-87448394D01*
X142573424Y-87620457D01*
X142719742Y-87766775D01*
X142719745Y-87766777D01*
X142891802Y-87881741D01*
X143082980Y-87960930D01*
X143285930Y-88001299D01*
X143285934Y-88001300D01*
X143285935Y-88001300D01*
X144292866Y-88001300D01*
X144292867Y-88001299D01*
X144495820Y-87960930D01*
X144686998Y-87881741D01*
X144859055Y-87766777D01*
X145005377Y-87620455D01*
X145120341Y-87448398D01*
X145199530Y-87257220D01*
X145239900Y-87054265D01*
X145239900Y-86847335D01*
X145199530Y-86644380D01*
X145120341Y-86453202D01*
X145005377Y-86281145D01*
X145005375Y-86281142D01*
X144859057Y-86134824D01*
X144773026Y-86077341D01*
X144686998Y-86019859D01*
X144495820Y-85940670D01*
X144495812Y-85940668D01*
X144292869Y-85900300D01*
X144292865Y-85900300D01*
X143285935Y-85900300D01*
X143285930Y-85900300D01*
X143082987Y-85940668D01*
X143082979Y-85940670D01*
X142891803Y-86019858D01*
X142719742Y-86134824D01*
X142573424Y-86281142D01*
X142458457Y-86453205D01*
X142439757Y-86498352D01*
X142395917Y-86552756D01*
X142329623Y-86574821D01*
X142325196Y-86574900D01*
X137863100Y-86574900D01*
X137796061Y-86555215D01*
X137750306Y-86502411D01*
X137739100Y-86450900D01*
X137739100Y-85235478D01*
X142338900Y-85235478D01*
X142353432Y-85308535D01*
X142353433Y-85308539D01*
X142353434Y-85308540D01*
X142408799Y-85391401D01*
X142491660Y-85446766D01*
X142491664Y-85446767D01*
X142564721Y-85461299D01*
X142564724Y-85461300D01*
X142564726Y-85461300D01*
X145014076Y-85461300D01*
X145014077Y-85461299D01*
X145087140Y-85446766D01*
X145170001Y-85391401D01*
X145225366Y-85308540D01*
X145239900Y-85235474D01*
X145239900Y-83586126D01*
X145239900Y-83586123D01*
X145239899Y-83586121D01*
X145225367Y-83513064D01*
X145225366Y-83513060D01*
X145177919Y-83442050D01*
X145170001Y-83430199D01*
X145087140Y-83374834D01*
X145087139Y-83374833D01*
X145087135Y-83374832D01*
X145014077Y-83360300D01*
X145014074Y-83360300D01*
X142564726Y-83360300D01*
X142564723Y-83360300D01*
X142491664Y-83374832D01*
X142491660Y-83374833D01*
X142408799Y-83430199D01*
X142353433Y-83513060D01*
X142353432Y-83513064D01*
X142338900Y-83586121D01*
X142338900Y-85235478D01*
X137739100Y-85235478D01*
X137739100Y-81392858D01*
X137739100Y-81392856D01*
X137715214Y-81303712D01*
X137712078Y-81298280D01*
X137669073Y-81223794D01*
X137669070Y-81223791D01*
X137669069Y-81223788D01*
X137603812Y-81158531D01*
X137349812Y-80904530D01*
X137269888Y-80858386D01*
X137252515Y-80853731D01*
X137252511Y-80853730D01*
X137252510Y-80853729D01*
X137201460Y-80840050D01*
X137180744Y-80834500D01*
X137180743Y-80834500D01*
X134943544Y-80834500D01*
X134876505Y-80814815D01*
X134855863Y-80798181D01*
X134810219Y-80752537D01*
X134776734Y-80691214D01*
X134773900Y-80664856D01*
X134773900Y-75797960D01*
X134793585Y-75730921D01*
X134846389Y-75685166D01*
X134847466Y-75684680D01*
X134861636Y-75678370D01*
X134888699Y-75666322D01*
X135046092Y-75551969D01*
X135046100Y-75551960D01*
X135047148Y-75551017D01*
X135047895Y-75550658D01*
X135051349Y-75548149D01*
X135051807Y-75548780D01*
X135110137Y-75520782D01*
X135179473Y-75529401D01*
X135233142Y-75574138D01*
X135253417Y-75629899D01*
X135254801Y-75642774D01*
X135254803Y-75642779D01*
X135305045Y-75777486D01*
X135305049Y-75777493D01*
X135391209Y-75892587D01*
X135391212Y-75892590D01*
X135506306Y-75978750D01*
X135506313Y-75978754D01*
X135641020Y-76028996D01*
X135641027Y-76028998D01*
X135700555Y-76035399D01*
X135700572Y-76035400D01*
X136173400Y-76035400D01*
X136173400Y-75176086D01*
X136177794Y-75180480D01*
X136269006Y-75233141D01*
X136370739Y-75260400D01*
X136476061Y-75260400D01*
X136577794Y-75233141D01*
X136669006Y-75180480D01*
X136673400Y-75176086D01*
X136673400Y-76035400D01*
X137146228Y-76035400D01*
X137146244Y-76035399D01*
X137205772Y-76028998D01*
X137205779Y-76028996D01*
X137340486Y-75978754D01*
X137340493Y-75978750D01*
X137455587Y-75892590D01*
X137455590Y-75892587D01*
X137541750Y-75777493D01*
X137541754Y-75777486D01*
X137591996Y-75642779D01*
X137591998Y-75642772D01*
X137598399Y-75583244D01*
X137598400Y-75583227D01*
X137598400Y-75110400D01*
X136739086Y-75110400D01*
X136743480Y-75106006D01*
X136796141Y-75014794D01*
X136823400Y-74913061D01*
X136823400Y-74807739D01*
X136796141Y-74706006D01*
X136743480Y-74614794D01*
X136739086Y-74610400D01*
X137598400Y-74610400D01*
X137598400Y-74137572D01*
X137598399Y-74137555D01*
X137591998Y-74078027D01*
X137591996Y-74078020D01*
X137541754Y-73943313D01*
X137541750Y-73943306D01*
X137455590Y-73828212D01*
X137455587Y-73828209D01*
X137340493Y-73742049D01*
X137340486Y-73742045D01*
X137205779Y-73691803D01*
X137205772Y-73691801D01*
X137146244Y-73685400D01*
X136673400Y-73685400D01*
X136673400Y-74544714D01*
X136669006Y-74540320D01*
X136577794Y-74487659D01*
X136476061Y-74460400D01*
X136370739Y-74460400D01*
X136269006Y-74487659D01*
X136177794Y-74540320D01*
X136173400Y-74544714D01*
X136173400Y-73685400D01*
X135700555Y-73685400D01*
X135641027Y-73691801D01*
X135641020Y-73691803D01*
X135506313Y-73742045D01*
X135506306Y-73742049D01*
X135391212Y-73828209D01*
X135391209Y-73828212D01*
X135305049Y-73943306D01*
X135305045Y-73943313D01*
X135254803Y-74078020D01*
X135254802Y-74078025D01*
X135253417Y-74090901D01*
X135226675Y-74155451D01*
X135169280Y-74195296D01*
X135099455Y-74197785D01*
X135051671Y-74172206D01*
X135051349Y-74172651D01*
X135048122Y-74170306D01*
X135047157Y-74169790D01*
X135046094Y-74168833D01*
X135046093Y-74168832D01*
X135046092Y-74168831D01*
X134938831Y-74090901D01*
X134888697Y-74054476D01*
X134752248Y-73993726D01*
X134710971Y-73975349D01*
X134710969Y-73975348D01*
X134520674Y-73934900D01*
X134326126Y-73934900D01*
X134135831Y-73975348D01*
X133958102Y-74054476D01*
X133800705Y-74168833D01*
X133800702Y-74168835D01*
X133670529Y-74313409D01*
X133573257Y-74481888D01*
X133573256Y-74481889D01*
X133513138Y-74666916D01*
X133492802Y-74860400D01*
X98036500Y-74860400D01*
X98036500Y-72252500D01*
X98056185Y-72185461D01*
X98108989Y-72139706D01*
X98160500Y-72128500D01*
X177175500Y-72128500D01*
X177242539Y-72148185D01*
G37*
%TD.AperFunction*%
%TD*%
M02*
