%TF.GenerationSoftware,KiCad,Pcbnew,8.0.5*%
%TF.CreationDate,2024-10-11T14:34:10+02:00*%
%TF.ProjectId,SMD-Loetstation,534d442d-4c6f-4657-9473-746174696f6e,rev?*%
%TF.SameCoordinates,Original*%
%TF.FileFunction,Legend,Top*%
%TF.FilePolarity,Positive*%
%FSLAX46Y46*%
G04 Gerber Fmt 4.6, Leading zero omitted, Abs format (unit mm)*
G04 Created by KiCad (PCBNEW 8.0.5) date 2024-10-11 14:34:10*
%MOMM*%
%LPD*%
G01*
G04 APERTURE LIST*
%ADD10C,0.350000*%
%ADD11C,0.125000*%
%ADD12C,0.200000*%
%ADD13C,0.100000*%
%ADD14C,0.120000*%
%ADD15C,0.000000*%
G04 APERTURE END LIST*
D10*
X156685000Y-75184000D02*
G75*
G02*
X156335000Y-75184000I-175000J0D01*
G01*
X156335000Y-75184000D02*
G75*
G02*
X156685000Y-75184000I175000J0D01*
G01*
D11*
X158332140Y-79594709D02*
X158332140Y-79951852D01*
X158332140Y-79951852D02*
X158308331Y-80023280D01*
X158308331Y-80023280D02*
X158260712Y-80070900D01*
X158260712Y-80070900D02*
X158189283Y-80094709D01*
X158189283Y-80094709D02*
X158141664Y-80094709D01*
X158570235Y-79594709D02*
X158570235Y-79999471D01*
X158570235Y-79999471D02*
X158594045Y-80047090D01*
X158594045Y-80047090D02*
X158617854Y-80070900D01*
X158617854Y-80070900D02*
X158665473Y-80094709D01*
X158665473Y-80094709D02*
X158760711Y-80094709D01*
X158760711Y-80094709D02*
X158808330Y-80070900D01*
X158808330Y-80070900D02*
X158832140Y-80047090D01*
X158832140Y-80047090D02*
X158855949Y-79999471D01*
X158855949Y-79999471D02*
X158855949Y-79594709D01*
X159094045Y-80094709D02*
X159094045Y-79594709D01*
X159094045Y-79594709D02*
X159260712Y-79951852D01*
X159260712Y-79951852D02*
X159427378Y-79594709D01*
X159427378Y-79594709D02*
X159427378Y-80094709D01*
X159665474Y-80094709D02*
X159665474Y-79594709D01*
X159665474Y-79594709D02*
X159855950Y-79594709D01*
X159855950Y-79594709D02*
X159903569Y-79618519D01*
X159903569Y-79618519D02*
X159927379Y-79642328D01*
X159927379Y-79642328D02*
X159951188Y-79689947D01*
X159951188Y-79689947D02*
X159951188Y-79761376D01*
X159951188Y-79761376D02*
X159927379Y-79808995D01*
X159927379Y-79808995D02*
X159903569Y-79832804D01*
X159903569Y-79832804D02*
X159855950Y-79856614D01*
X159855950Y-79856614D02*
X159665474Y-79856614D01*
X160713093Y-79832804D02*
X160546426Y-79832804D01*
X160546426Y-80094709D02*
X160546426Y-79594709D01*
X160546426Y-79594709D02*
X160784521Y-79594709D01*
X161070235Y-79594709D02*
X161165473Y-79594709D01*
X161165473Y-79594709D02*
X161213092Y-79618519D01*
X161213092Y-79618519D02*
X161260711Y-79666138D01*
X161260711Y-79666138D02*
X161284521Y-79761376D01*
X161284521Y-79761376D02*
X161284521Y-79928042D01*
X161284521Y-79928042D02*
X161260711Y-80023280D01*
X161260711Y-80023280D02*
X161213092Y-80070900D01*
X161213092Y-80070900D02*
X161165473Y-80094709D01*
X161165473Y-80094709D02*
X161070235Y-80094709D01*
X161070235Y-80094709D02*
X161022616Y-80070900D01*
X161022616Y-80070900D02*
X160974997Y-80023280D01*
X160974997Y-80023280D02*
X160951188Y-79928042D01*
X160951188Y-79928042D02*
X160951188Y-79761376D01*
X160951188Y-79761376D02*
X160974997Y-79666138D01*
X160974997Y-79666138D02*
X161022616Y-79618519D01*
X161022616Y-79618519D02*
X161070235Y-79594709D01*
X161784521Y-80094709D02*
X161617855Y-79856614D01*
X161498807Y-80094709D02*
X161498807Y-79594709D01*
X161498807Y-79594709D02*
X161689283Y-79594709D01*
X161689283Y-79594709D02*
X161736902Y-79618519D01*
X161736902Y-79618519D02*
X161760712Y-79642328D01*
X161760712Y-79642328D02*
X161784521Y-79689947D01*
X161784521Y-79689947D02*
X161784521Y-79761376D01*
X161784521Y-79761376D02*
X161760712Y-79808995D01*
X161760712Y-79808995D02*
X161736902Y-79832804D01*
X161736902Y-79832804D02*
X161689283Y-79856614D01*
X161689283Y-79856614D02*
X161498807Y-79856614D01*
X162665473Y-80094709D02*
X162498807Y-79856614D01*
X162379759Y-80094709D02*
X162379759Y-79594709D01*
X162379759Y-79594709D02*
X162570235Y-79594709D01*
X162570235Y-79594709D02*
X162617854Y-79618519D01*
X162617854Y-79618519D02*
X162641664Y-79642328D01*
X162641664Y-79642328D02*
X162665473Y-79689947D01*
X162665473Y-79689947D02*
X162665473Y-79761376D01*
X162665473Y-79761376D02*
X162641664Y-79808995D01*
X162641664Y-79808995D02*
X162617854Y-79832804D01*
X162617854Y-79832804D02*
X162570235Y-79856614D01*
X162570235Y-79856614D02*
X162379759Y-79856614D01*
X162879759Y-79594709D02*
X162879759Y-79999471D01*
X162879759Y-79999471D02*
X162903569Y-80047090D01*
X162903569Y-80047090D02*
X162927378Y-80070900D01*
X162927378Y-80070900D02*
X162974997Y-80094709D01*
X162974997Y-80094709D02*
X163070235Y-80094709D01*
X163070235Y-80094709D02*
X163117854Y-80070900D01*
X163117854Y-80070900D02*
X163141664Y-80047090D01*
X163141664Y-80047090D02*
X163165473Y-79999471D01*
X163165473Y-79999471D02*
X163165473Y-79594709D01*
X163403569Y-80094709D02*
X163403569Y-79594709D01*
X163403569Y-79594709D02*
X163689283Y-80094709D01*
X163689283Y-80094709D02*
X163689283Y-79594709D01*
X163927379Y-80094709D02*
X163927379Y-79594709D01*
X163927379Y-79594709D02*
X164213093Y-80094709D01*
X164213093Y-80094709D02*
X164213093Y-79594709D01*
X164451189Y-80094709D02*
X164451189Y-79594709D01*
X164689284Y-80094709D02*
X164689284Y-79594709D01*
X164689284Y-79594709D02*
X164974998Y-80094709D01*
X164974998Y-80094709D02*
X164974998Y-79594709D01*
X165474999Y-79618519D02*
X165427380Y-79594709D01*
X165427380Y-79594709D02*
X165355951Y-79594709D01*
X165355951Y-79594709D02*
X165284523Y-79618519D01*
X165284523Y-79618519D02*
X165236904Y-79666138D01*
X165236904Y-79666138D02*
X165213094Y-79713757D01*
X165213094Y-79713757D02*
X165189285Y-79808995D01*
X165189285Y-79808995D02*
X165189285Y-79880423D01*
X165189285Y-79880423D02*
X165213094Y-79975661D01*
X165213094Y-79975661D02*
X165236904Y-80023280D01*
X165236904Y-80023280D02*
X165284523Y-80070900D01*
X165284523Y-80070900D02*
X165355951Y-80094709D01*
X165355951Y-80094709D02*
X165403570Y-80094709D01*
X165403570Y-80094709D02*
X165474999Y-80070900D01*
X165474999Y-80070900D02*
X165498808Y-80047090D01*
X165498808Y-80047090D02*
X165498808Y-79880423D01*
X165498808Y-79880423D02*
X165403570Y-79880423D01*
D12*
X151401254Y-73094495D02*
X151401254Y-72294495D01*
X152239349Y-73018304D02*
X152201253Y-73056400D01*
X152201253Y-73056400D02*
X152086968Y-73094495D01*
X152086968Y-73094495D02*
X152010777Y-73094495D01*
X152010777Y-73094495D02*
X151896491Y-73056400D01*
X151896491Y-73056400D02*
X151820301Y-72980209D01*
X151820301Y-72980209D02*
X151782206Y-72904019D01*
X151782206Y-72904019D02*
X151744110Y-72751638D01*
X151744110Y-72751638D02*
X151744110Y-72637352D01*
X151744110Y-72637352D02*
X151782206Y-72484971D01*
X151782206Y-72484971D02*
X151820301Y-72408780D01*
X151820301Y-72408780D02*
X151896491Y-72332590D01*
X151896491Y-72332590D02*
X152010777Y-72294495D01*
X152010777Y-72294495D02*
X152086968Y-72294495D01*
X152086968Y-72294495D02*
X152201253Y-72332590D01*
X152201253Y-72332590D02*
X152239349Y-72370685D01*
X152544110Y-73056400D02*
X152658396Y-73094495D01*
X152658396Y-73094495D02*
X152848872Y-73094495D01*
X152848872Y-73094495D02*
X152925063Y-73056400D01*
X152925063Y-73056400D02*
X152963158Y-73018304D01*
X152963158Y-73018304D02*
X153001253Y-72942114D01*
X153001253Y-72942114D02*
X153001253Y-72865923D01*
X153001253Y-72865923D02*
X152963158Y-72789733D01*
X152963158Y-72789733D02*
X152925063Y-72751638D01*
X152925063Y-72751638D02*
X152848872Y-72713542D01*
X152848872Y-72713542D02*
X152696491Y-72675447D01*
X152696491Y-72675447D02*
X152620301Y-72637352D01*
X152620301Y-72637352D02*
X152582206Y-72599257D01*
X152582206Y-72599257D02*
X152544110Y-72523066D01*
X152544110Y-72523066D02*
X152544110Y-72446876D01*
X152544110Y-72446876D02*
X152582206Y-72370685D01*
X152582206Y-72370685D02*
X152620301Y-72332590D01*
X152620301Y-72332590D02*
X152696491Y-72294495D01*
X152696491Y-72294495D02*
X152886968Y-72294495D01*
X152886968Y-72294495D02*
X153001253Y-72332590D01*
X153344111Y-73094495D02*
X153344111Y-72294495D01*
X153344111Y-72294495D02*
X153648873Y-72294495D01*
X153648873Y-72294495D02*
X153725063Y-72332590D01*
X153725063Y-72332590D02*
X153763158Y-72370685D01*
X153763158Y-72370685D02*
X153801254Y-72446876D01*
X153801254Y-72446876D02*
X153801254Y-72561161D01*
X153801254Y-72561161D02*
X153763158Y-72637352D01*
X153763158Y-72637352D02*
X153725063Y-72675447D01*
X153725063Y-72675447D02*
X153648873Y-72713542D01*
X153648873Y-72713542D02*
X153344111Y-72713542D01*
X172339740Y-97008247D02*
X171539740Y-97008247D01*
X171539740Y-97008247D02*
X171539740Y-96703485D01*
X171539740Y-96703485D02*
X171577835Y-96627295D01*
X171577835Y-96627295D02*
X171615930Y-96589200D01*
X171615930Y-96589200D02*
X171692121Y-96551104D01*
X171692121Y-96551104D02*
X171806406Y-96551104D01*
X171806406Y-96551104D02*
X171882597Y-96589200D01*
X171882597Y-96589200D02*
X171920692Y-96627295D01*
X171920692Y-96627295D02*
X171958787Y-96703485D01*
X171958787Y-96703485D02*
X171958787Y-97008247D01*
X171920692Y-95941581D02*
X171958787Y-95827295D01*
X171958787Y-95827295D02*
X171996883Y-95789200D01*
X171996883Y-95789200D02*
X172073073Y-95751104D01*
X172073073Y-95751104D02*
X172187359Y-95751104D01*
X172187359Y-95751104D02*
X172263549Y-95789200D01*
X172263549Y-95789200D02*
X172301645Y-95827295D01*
X172301645Y-95827295D02*
X172339740Y-95903485D01*
X172339740Y-95903485D02*
X172339740Y-96208247D01*
X172339740Y-96208247D02*
X171539740Y-96208247D01*
X171539740Y-96208247D02*
X171539740Y-95941581D01*
X171539740Y-95941581D02*
X171577835Y-95865390D01*
X171577835Y-95865390D02*
X171615930Y-95827295D01*
X171615930Y-95827295D02*
X171692121Y-95789200D01*
X171692121Y-95789200D02*
X171768311Y-95789200D01*
X171768311Y-95789200D02*
X171844502Y-95827295D01*
X171844502Y-95827295D02*
X171882597Y-95865390D01*
X171882597Y-95865390D02*
X171920692Y-95941581D01*
X171920692Y-95941581D02*
X171920692Y-96208247D01*
X171577835Y-94379676D02*
X171539740Y-94455866D01*
X171539740Y-94455866D02*
X171539740Y-94570152D01*
X171539740Y-94570152D02*
X171577835Y-94684438D01*
X171577835Y-94684438D02*
X171654025Y-94760628D01*
X171654025Y-94760628D02*
X171730216Y-94798723D01*
X171730216Y-94798723D02*
X171882597Y-94836819D01*
X171882597Y-94836819D02*
X171996883Y-94836819D01*
X171996883Y-94836819D02*
X172149264Y-94798723D01*
X172149264Y-94798723D02*
X172225454Y-94760628D01*
X172225454Y-94760628D02*
X172301645Y-94684438D01*
X172301645Y-94684438D02*
X172339740Y-94570152D01*
X172339740Y-94570152D02*
X172339740Y-94493961D01*
X172339740Y-94493961D02*
X172301645Y-94379676D01*
X172301645Y-94379676D02*
X172263549Y-94341580D01*
X172263549Y-94341580D02*
X171996883Y-94341580D01*
X171996883Y-94341580D02*
X171996883Y-94493961D01*
X172339740Y-93998723D02*
X171539740Y-93998723D01*
X171539740Y-93998723D02*
X172339740Y-93541580D01*
X172339740Y-93541580D02*
X171539740Y-93541580D01*
X172339740Y-93160628D02*
X171539740Y-93160628D01*
X171539740Y-93160628D02*
X171539740Y-92970152D01*
X171539740Y-92970152D02*
X171577835Y-92855866D01*
X171577835Y-92855866D02*
X171654025Y-92779676D01*
X171654025Y-92779676D02*
X171730216Y-92741581D01*
X171730216Y-92741581D02*
X171882597Y-92703485D01*
X171882597Y-92703485D02*
X171996883Y-92703485D01*
X171996883Y-92703485D02*
X172149264Y-92741581D01*
X172149264Y-92741581D02*
X172225454Y-92779676D01*
X172225454Y-92779676D02*
X172301645Y-92855866D01*
X172301645Y-92855866D02*
X172339740Y-92970152D01*
X172339740Y-92970152D02*
X172339740Y-93160628D01*
X172111168Y-91179676D02*
X172111168Y-90798723D01*
X172339740Y-91255866D02*
X171539740Y-90989199D01*
X171539740Y-90989199D02*
X172339740Y-90722533D01*
X171577835Y-89427295D02*
X171539740Y-89503485D01*
X171539740Y-89503485D02*
X171539740Y-89617771D01*
X171539740Y-89617771D02*
X171577835Y-89732057D01*
X171577835Y-89732057D02*
X171654025Y-89808247D01*
X171654025Y-89808247D02*
X171730216Y-89846342D01*
X171730216Y-89846342D02*
X171882597Y-89884438D01*
X171882597Y-89884438D02*
X171996883Y-89884438D01*
X171996883Y-89884438D02*
X172149264Y-89846342D01*
X172149264Y-89846342D02*
X172225454Y-89808247D01*
X172225454Y-89808247D02*
X172301645Y-89732057D01*
X172301645Y-89732057D02*
X172339740Y-89617771D01*
X172339740Y-89617771D02*
X172339740Y-89541580D01*
X172339740Y-89541580D02*
X172301645Y-89427295D01*
X172301645Y-89427295D02*
X172263549Y-89389199D01*
X172263549Y-89389199D02*
X171996883Y-89389199D01*
X171996883Y-89389199D02*
X171996883Y-89541580D01*
X172339740Y-89046342D02*
X171539740Y-89046342D01*
X171539740Y-89046342D02*
X172339740Y-88589199D01*
X172339740Y-88589199D02*
X171539740Y-88589199D01*
X172339740Y-88208247D02*
X171539740Y-88208247D01*
X171539740Y-88208247D02*
X171539740Y-88017771D01*
X171539740Y-88017771D02*
X171577835Y-87903485D01*
X171577835Y-87903485D02*
X171654025Y-87827295D01*
X171654025Y-87827295D02*
X171730216Y-87789200D01*
X171730216Y-87789200D02*
X171882597Y-87751104D01*
X171882597Y-87751104D02*
X171996883Y-87751104D01*
X171996883Y-87751104D02*
X172149264Y-87789200D01*
X172149264Y-87789200D02*
X172225454Y-87827295D01*
X172225454Y-87827295D02*
X172301645Y-87903485D01*
X172301645Y-87903485D02*
X172339740Y-88017771D01*
X172339740Y-88017771D02*
X172339740Y-88208247D01*
X171920692Y-85922533D02*
X171958787Y-85808247D01*
X171958787Y-85808247D02*
X171996883Y-85770152D01*
X171996883Y-85770152D02*
X172073073Y-85732056D01*
X172073073Y-85732056D02*
X172187359Y-85732056D01*
X172187359Y-85732056D02*
X172263549Y-85770152D01*
X172263549Y-85770152D02*
X172301645Y-85808247D01*
X172301645Y-85808247D02*
X172339740Y-85884437D01*
X172339740Y-85884437D02*
X172339740Y-86189199D01*
X172339740Y-86189199D02*
X171539740Y-86189199D01*
X171539740Y-86189199D02*
X171539740Y-85922533D01*
X171539740Y-85922533D02*
X171577835Y-85846342D01*
X171577835Y-85846342D02*
X171615930Y-85808247D01*
X171615930Y-85808247D02*
X171692121Y-85770152D01*
X171692121Y-85770152D02*
X171768311Y-85770152D01*
X171768311Y-85770152D02*
X171844502Y-85808247D01*
X171844502Y-85808247D02*
X171882597Y-85846342D01*
X171882597Y-85846342D02*
X171920692Y-85922533D01*
X171920692Y-85922533D02*
X171920692Y-86189199D01*
X173627695Y-92951103D02*
X173246742Y-93217770D01*
X173627695Y-93408246D02*
X172827695Y-93408246D01*
X172827695Y-93408246D02*
X172827695Y-93103484D01*
X172827695Y-93103484D02*
X172865790Y-93027294D01*
X172865790Y-93027294D02*
X172903885Y-92989199D01*
X172903885Y-92989199D02*
X172980076Y-92951103D01*
X172980076Y-92951103D02*
X173094361Y-92951103D01*
X173094361Y-92951103D02*
X173170552Y-92989199D01*
X173170552Y-92989199D02*
X173208647Y-93027294D01*
X173208647Y-93027294D02*
X173246742Y-93103484D01*
X173246742Y-93103484D02*
X173246742Y-93408246D01*
X172827695Y-92455865D02*
X172827695Y-92303484D01*
X172827695Y-92303484D02*
X172865790Y-92227294D01*
X172865790Y-92227294D02*
X172941980Y-92151103D01*
X172941980Y-92151103D02*
X173094361Y-92113008D01*
X173094361Y-92113008D02*
X173361028Y-92113008D01*
X173361028Y-92113008D02*
X173513409Y-92151103D01*
X173513409Y-92151103D02*
X173589600Y-92227294D01*
X173589600Y-92227294D02*
X173627695Y-92303484D01*
X173627695Y-92303484D02*
X173627695Y-92455865D01*
X173627695Y-92455865D02*
X173589600Y-92532056D01*
X173589600Y-92532056D02*
X173513409Y-92608246D01*
X173513409Y-92608246D02*
X173361028Y-92646342D01*
X173361028Y-92646342D02*
X173094361Y-92646342D01*
X173094361Y-92646342D02*
X172941980Y-92608246D01*
X172941980Y-92608246D02*
X172865790Y-92532056D01*
X172865790Y-92532056D02*
X172827695Y-92455865D01*
X172827695Y-91884437D02*
X172827695Y-91427294D01*
X173627695Y-91655866D02*
X172827695Y-91655866D01*
X173399123Y-91198723D02*
X173399123Y-90817770D01*
X173627695Y-91274913D02*
X172827695Y-91008246D01*
X172827695Y-91008246D02*
X173627695Y-90741580D01*
X173627695Y-90017770D02*
X173246742Y-90284437D01*
X173627695Y-90474913D02*
X172827695Y-90474913D01*
X172827695Y-90474913D02*
X172827695Y-90170151D01*
X172827695Y-90170151D02*
X172865790Y-90093961D01*
X172865790Y-90093961D02*
X172903885Y-90055866D01*
X172903885Y-90055866D02*
X172980076Y-90017770D01*
X172980076Y-90017770D02*
X173094361Y-90017770D01*
X173094361Y-90017770D02*
X173170552Y-90055866D01*
X173170552Y-90055866D02*
X173208647Y-90093961D01*
X173208647Y-90093961D02*
X173246742Y-90170151D01*
X173246742Y-90170151D02*
X173246742Y-90474913D01*
X173246742Y-89522532D02*
X173627695Y-89522532D01*
X172827695Y-89789199D02*
X173246742Y-89522532D01*
X173246742Y-89522532D02*
X172827695Y-89255866D01*
X104243093Y-111207200D02*
X104357379Y-111245295D01*
X104357379Y-111245295D02*
X104547855Y-111245295D01*
X104547855Y-111245295D02*
X104624046Y-111207200D01*
X104624046Y-111207200D02*
X104662141Y-111169104D01*
X104662141Y-111169104D02*
X104700236Y-111092914D01*
X104700236Y-111092914D02*
X104700236Y-111016723D01*
X104700236Y-111016723D02*
X104662141Y-110940533D01*
X104662141Y-110940533D02*
X104624046Y-110902438D01*
X104624046Y-110902438D02*
X104547855Y-110864342D01*
X104547855Y-110864342D02*
X104395474Y-110826247D01*
X104395474Y-110826247D02*
X104319284Y-110788152D01*
X104319284Y-110788152D02*
X104281189Y-110750057D01*
X104281189Y-110750057D02*
X104243093Y-110673866D01*
X104243093Y-110673866D02*
X104243093Y-110597676D01*
X104243093Y-110597676D02*
X104281189Y-110521485D01*
X104281189Y-110521485D02*
X104319284Y-110483390D01*
X104319284Y-110483390D02*
X104395474Y-110445295D01*
X104395474Y-110445295D02*
X104585951Y-110445295D01*
X104585951Y-110445295D02*
X104700236Y-110483390D01*
X105157379Y-111245295D02*
X105081189Y-111207200D01*
X105081189Y-111207200D02*
X105043094Y-111169104D01*
X105043094Y-111169104D02*
X105004998Y-111092914D01*
X105004998Y-111092914D02*
X105004998Y-110864342D01*
X105004998Y-110864342D02*
X105043094Y-110788152D01*
X105043094Y-110788152D02*
X105081189Y-110750057D01*
X105081189Y-110750057D02*
X105157379Y-110711961D01*
X105157379Y-110711961D02*
X105271665Y-110711961D01*
X105271665Y-110711961D02*
X105347856Y-110750057D01*
X105347856Y-110750057D02*
X105385951Y-110788152D01*
X105385951Y-110788152D02*
X105424046Y-110864342D01*
X105424046Y-110864342D02*
X105424046Y-111092914D01*
X105424046Y-111092914D02*
X105385951Y-111169104D01*
X105385951Y-111169104D02*
X105347856Y-111207200D01*
X105347856Y-111207200D02*
X105271665Y-111245295D01*
X105271665Y-111245295D02*
X105157379Y-111245295D01*
X105881189Y-111245295D02*
X105804999Y-111207200D01*
X105804999Y-111207200D02*
X105766904Y-111131009D01*
X105766904Y-111131009D02*
X105766904Y-110445295D01*
X106528809Y-111245295D02*
X106528809Y-110445295D01*
X106528809Y-111207200D02*
X106452618Y-111245295D01*
X106452618Y-111245295D02*
X106300237Y-111245295D01*
X106300237Y-111245295D02*
X106224047Y-111207200D01*
X106224047Y-111207200D02*
X106185952Y-111169104D01*
X106185952Y-111169104D02*
X106147856Y-111092914D01*
X106147856Y-111092914D02*
X106147856Y-110864342D01*
X106147856Y-110864342D02*
X106185952Y-110788152D01*
X106185952Y-110788152D02*
X106224047Y-110750057D01*
X106224047Y-110750057D02*
X106300237Y-110711961D01*
X106300237Y-110711961D02*
X106452618Y-110711961D01*
X106452618Y-110711961D02*
X106528809Y-110750057D01*
X107214524Y-111207200D02*
X107138333Y-111245295D01*
X107138333Y-111245295D02*
X106985952Y-111245295D01*
X106985952Y-111245295D02*
X106909762Y-111207200D01*
X106909762Y-111207200D02*
X106871666Y-111131009D01*
X106871666Y-111131009D02*
X106871666Y-110826247D01*
X106871666Y-110826247D02*
X106909762Y-110750057D01*
X106909762Y-110750057D02*
X106985952Y-110711961D01*
X106985952Y-110711961D02*
X107138333Y-110711961D01*
X107138333Y-110711961D02*
X107214524Y-110750057D01*
X107214524Y-110750057D02*
X107252619Y-110826247D01*
X107252619Y-110826247D02*
X107252619Y-110902438D01*
X107252619Y-110902438D02*
X106871666Y-110978628D01*
X107595476Y-111245295D02*
X107595476Y-110711961D01*
X107595476Y-110864342D02*
X107633571Y-110788152D01*
X107633571Y-110788152D02*
X107671666Y-110750057D01*
X107671666Y-110750057D02*
X107747857Y-110711961D01*
X107747857Y-110711961D02*
X107824047Y-110711961D01*
X108585952Y-110445295D02*
X109043095Y-110445295D01*
X108814523Y-111245295D02*
X108814523Y-110445295D01*
X109309762Y-111245295D02*
X109309762Y-110445295D01*
X109690714Y-111245295D02*
X109690714Y-110445295D01*
X109690714Y-110445295D02*
X109995476Y-110445295D01*
X109995476Y-110445295D02*
X110071666Y-110483390D01*
X110071666Y-110483390D02*
X110109761Y-110521485D01*
X110109761Y-110521485D02*
X110147857Y-110597676D01*
X110147857Y-110597676D02*
X110147857Y-110711961D01*
X110147857Y-110711961D02*
X110109761Y-110788152D01*
X110109761Y-110788152D02*
X110071666Y-110826247D01*
X110071666Y-110826247D02*
X109995476Y-110864342D01*
X109995476Y-110864342D02*
X109690714Y-110864342D01*
X111100238Y-110940533D02*
X111709762Y-110940533D01*
X113119285Y-110483390D02*
X113043095Y-110445295D01*
X113043095Y-110445295D02*
X112928809Y-110445295D01*
X112928809Y-110445295D02*
X112814523Y-110483390D01*
X112814523Y-110483390D02*
X112738333Y-110559580D01*
X112738333Y-110559580D02*
X112700238Y-110635771D01*
X112700238Y-110635771D02*
X112662142Y-110788152D01*
X112662142Y-110788152D02*
X112662142Y-110902438D01*
X112662142Y-110902438D02*
X112700238Y-111054819D01*
X112700238Y-111054819D02*
X112738333Y-111131009D01*
X112738333Y-111131009D02*
X112814523Y-111207200D01*
X112814523Y-111207200D02*
X112928809Y-111245295D01*
X112928809Y-111245295D02*
X113005000Y-111245295D01*
X113005000Y-111245295D02*
X113119285Y-111207200D01*
X113119285Y-111207200D02*
X113157381Y-111169104D01*
X113157381Y-111169104D02*
X113157381Y-110902438D01*
X113157381Y-110902438D02*
X113005000Y-110902438D01*
X113500238Y-111245295D02*
X113500238Y-110445295D01*
X113500238Y-110445295D02*
X113957381Y-111245295D01*
X113957381Y-111245295D02*
X113957381Y-110445295D01*
X114338333Y-111245295D02*
X114338333Y-110445295D01*
X114338333Y-110445295D02*
X114528809Y-110445295D01*
X114528809Y-110445295D02*
X114643095Y-110483390D01*
X114643095Y-110483390D02*
X114719285Y-110559580D01*
X114719285Y-110559580D02*
X114757380Y-110635771D01*
X114757380Y-110635771D02*
X114795476Y-110788152D01*
X114795476Y-110788152D02*
X114795476Y-110902438D01*
X114795476Y-110902438D02*
X114757380Y-111054819D01*
X114757380Y-111054819D02*
X114719285Y-111131009D01*
X114719285Y-111131009D02*
X114643095Y-111207200D01*
X114643095Y-111207200D02*
X114528809Y-111245295D01*
X114528809Y-111245295D02*
X114338333Y-111245295D01*
X116166904Y-110483390D02*
X116090714Y-110445295D01*
X116090714Y-110445295D02*
X115976428Y-110445295D01*
X115976428Y-110445295D02*
X115862142Y-110483390D01*
X115862142Y-110483390D02*
X115785952Y-110559580D01*
X115785952Y-110559580D02*
X115747857Y-110635771D01*
X115747857Y-110635771D02*
X115709761Y-110788152D01*
X115709761Y-110788152D02*
X115709761Y-110902438D01*
X115709761Y-110902438D02*
X115747857Y-111054819D01*
X115747857Y-111054819D02*
X115785952Y-111131009D01*
X115785952Y-111131009D02*
X115862142Y-111207200D01*
X115862142Y-111207200D02*
X115976428Y-111245295D01*
X115976428Y-111245295D02*
X116052619Y-111245295D01*
X116052619Y-111245295D02*
X116166904Y-111207200D01*
X116166904Y-111207200D02*
X116205000Y-111169104D01*
X116205000Y-111169104D02*
X116205000Y-110902438D01*
X116205000Y-110902438D02*
X116052619Y-110902438D01*
X116547857Y-111245295D02*
X116547857Y-110445295D01*
X116547857Y-110445295D02*
X117005000Y-111245295D01*
X117005000Y-111245295D02*
X117005000Y-110445295D01*
X117385952Y-111245295D02*
X117385952Y-110445295D01*
X117385952Y-110445295D02*
X117576428Y-110445295D01*
X117576428Y-110445295D02*
X117690714Y-110483390D01*
X117690714Y-110483390D02*
X117766904Y-110559580D01*
X117766904Y-110559580D02*
X117804999Y-110635771D01*
X117804999Y-110635771D02*
X117843095Y-110788152D01*
X117843095Y-110788152D02*
X117843095Y-110902438D01*
X117843095Y-110902438D02*
X117804999Y-111054819D01*
X117804999Y-111054819D02*
X117766904Y-111131009D01*
X117766904Y-111131009D02*
X117690714Y-111207200D01*
X117690714Y-111207200D02*
X117576428Y-111245295D01*
X117576428Y-111245295D02*
X117385952Y-111245295D01*
X118795476Y-111245295D02*
X118795476Y-110445295D01*
X118795476Y-110826247D02*
X119252619Y-110826247D01*
X119252619Y-111245295D02*
X119252619Y-110445295D01*
X119633571Y-110826247D02*
X119900237Y-110826247D01*
X120014523Y-111245295D02*
X119633571Y-111245295D01*
X119633571Y-111245295D02*
X119633571Y-110445295D01*
X119633571Y-110445295D02*
X120014523Y-110445295D01*
X120319285Y-111016723D02*
X120700238Y-111016723D01*
X120243095Y-111245295D02*
X120509762Y-110445295D01*
X120509762Y-110445295D02*
X120776428Y-111245295D01*
X120928809Y-110445295D02*
X121385952Y-110445295D01*
X121157380Y-111245295D02*
X121157380Y-110445295D01*
X121652619Y-110826247D02*
X121919285Y-110826247D01*
X122033571Y-111245295D02*
X121652619Y-111245295D01*
X121652619Y-111245295D02*
X121652619Y-110445295D01*
X121652619Y-110445295D02*
X122033571Y-110445295D01*
X122833572Y-111245295D02*
X122566905Y-110864342D01*
X122376429Y-111245295D02*
X122376429Y-110445295D01*
X122376429Y-110445295D02*
X122681191Y-110445295D01*
X122681191Y-110445295D02*
X122757381Y-110483390D01*
X122757381Y-110483390D02*
X122795476Y-110521485D01*
X122795476Y-110521485D02*
X122833572Y-110597676D01*
X122833572Y-110597676D02*
X122833572Y-110711961D01*
X122833572Y-110711961D02*
X122795476Y-110788152D01*
X122795476Y-110788152D02*
X122757381Y-110826247D01*
X122757381Y-110826247D02*
X122681191Y-110864342D01*
X122681191Y-110864342D02*
X122376429Y-110864342D01*
X123747857Y-111207200D02*
X123862143Y-111245295D01*
X123862143Y-111245295D02*
X124052619Y-111245295D01*
X124052619Y-111245295D02*
X124128810Y-111207200D01*
X124128810Y-111207200D02*
X124166905Y-111169104D01*
X124166905Y-111169104D02*
X124205000Y-111092914D01*
X124205000Y-111092914D02*
X124205000Y-111016723D01*
X124205000Y-111016723D02*
X124166905Y-110940533D01*
X124166905Y-110940533D02*
X124128810Y-110902438D01*
X124128810Y-110902438D02*
X124052619Y-110864342D01*
X124052619Y-110864342D02*
X123900238Y-110826247D01*
X123900238Y-110826247D02*
X123824048Y-110788152D01*
X123824048Y-110788152D02*
X123785953Y-110750057D01*
X123785953Y-110750057D02*
X123747857Y-110673866D01*
X123747857Y-110673866D02*
X123747857Y-110597676D01*
X123747857Y-110597676D02*
X123785953Y-110521485D01*
X123785953Y-110521485D02*
X123824048Y-110483390D01*
X123824048Y-110483390D02*
X123900238Y-110445295D01*
X123900238Y-110445295D02*
X124090715Y-110445295D01*
X124090715Y-110445295D02*
X124205000Y-110483390D01*
X124547858Y-110826247D02*
X124814524Y-110826247D01*
X124928810Y-111245295D02*
X124547858Y-111245295D01*
X124547858Y-111245295D02*
X124547858Y-110445295D01*
X124547858Y-110445295D02*
X124928810Y-110445295D01*
X125271668Y-111245295D02*
X125271668Y-110445295D01*
X125271668Y-110445295D02*
X125728811Y-111245295D01*
X125728811Y-111245295D02*
X125728811Y-110445295D01*
X126071667Y-111207200D02*
X126185953Y-111245295D01*
X126185953Y-111245295D02*
X126376429Y-111245295D01*
X126376429Y-111245295D02*
X126452620Y-111207200D01*
X126452620Y-111207200D02*
X126490715Y-111169104D01*
X126490715Y-111169104D02*
X126528810Y-111092914D01*
X126528810Y-111092914D02*
X126528810Y-111016723D01*
X126528810Y-111016723D02*
X126490715Y-110940533D01*
X126490715Y-110940533D02*
X126452620Y-110902438D01*
X126452620Y-110902438D02*
X126376429Y-110864342D01*
X126376429Y-110864342D02*
X126224048Y-110826247D01*
X126224048Y-110826247D02*
X126147858Y-110788152D01*
X126147858Y-110788152D02*
X126109763Y-110750057D01*
X126109763Y-110750057D02*
X126071667Y-110673866D01*
X126071667Y-110673866D02*
X126071667Y-110597676D01*
X126071667Y-110597676D02*
X126109763Y-110521485D01*
X126109763Y-110521485D02*
X126147858Y-110483390D01*
X126147858Y-110483390D02*
X126224048Y-110445295D01*
X126224048Y-110445295D02*
X126414525Y-110445295D01*
X126414525Y-110445295D02*
X126528810Y-110483390D01*
X127024049Y-110445295D02*
X127176430Y-110445295D01*
X127176430Y-110445295D02*
X127252620Y-110483390D01*
X127252620Y-110483390D02*
X127328811Y-110559580D01*
X127328811Y-110559580D02*
X127366906Y-110711961D01*
X127366906Y-110711961D02*
X127366906Y-110978628D01*
X127366906Y-110978628D02*
X127328811Y-111131009D01*
X127328811Y-111131009D02*
X127252620Y-111207200D01*
X127252620Y-111207200D02*
X127176430Y-111245295D01*
X127176430Y-111245295D02*
X127024049Y-111245295D01*
X127024049Y-111245295D02*
X126947858Y-111207200D01*
X126947858Y-111207200D02*
X126871668Y-111131009D01*
X126871668Y-111131009D02*
X126833572Y-110978628D01*
X126833572Y-110978628D02*
X126833572Y-110711961D01*
X126833572Y-110711961D02*
X126871668Y-110559580D01*
X126871668Y-110559580D02*
X126947858Y-110483390D01*
X126947858Y-110483390D02*
X127024049Y-110445295D01*
X128166906Y-111245295D02*
X127900239Y-110864342D01*
X127709763Y-111245295D02*
X127709763Y-110445295D01*
X127709763Y-110445295D02*
X128014525Y-110445295D01*
X128014525Y-110445295D02*
X128090715Y-110483390D01*
X128090715Y-110483390D02*
X128128810Y-110521485D01*
X128128810Y-110521485D02*
X128166906Y-110597676D01*
X128166906Y-110597676D02*
X128166906Y-110711961D01*
X128166906Y-110711961D02*
X128128810Y-110788152D01*
X128128810Y-110788152D02*
X128090715Y-110826247D01*
X128090715Y-110826247D02*
X128014525Y-110864342D01*
X128014525Y-110864342D02*
X127709763Y-110864342D01*
X131601958Y-72904000D02*
X131716244Y-72942095D01*
X131716244Y-72942095D02*
X131906720Y-72942095D01*
X131906720Y-72942095D02*
X131982911Y-72904000D01*
X131982911Y-72904000D02*
X132021006Y-72865904D01*
X132021006Y-72865904D02*
X132059101Y-72789714D01*
X132059101Y-72789714D02*
X132059101Y-72713523D01*
X132059101Y-72713523D02*
X132021006Y-72637333D01*
X132021006Y-72637333D02*
X131982911Y-72599238D01*
X131982911Y-72599238D02*
X131906720Y-72561142D01*
X131906720Y-72561142D02*
X131754339Y-72523047D01*
X131754339Y-72523047D02*
X131678149Y-72484952D01*
X131678149Y-72484952D02*
X131640054Y-72446857D01*
X131640054Y-72446857D02*
X131601958Y-72370666D01*
X131601958Y-72370666D02*
X131601958Y-72294476D01*
X131601958Y-72294476D02*
X131640054Y-72218285D01*
X131640054Y-72218285D02*
X131678149Y-72180190D01*
X131678149Y-72180190D02*
X131754339Y-72142095D01*
X131754339Y-72142095D02*
X131944816Y-72142095D01*
X131944816Y-72142095D02*
X132059101Y-72180190D01*
X132287673Y-72408761D02*
X132592435Y-72408761D01*
X132401959Y-72142095D02*
X132401959Y-72827809D01*
X132401959Y-72827809D02*
X132440054Y-72904000D01*
X132440054Y-72904000D02*
X132516244Y-72942095D01*
X132516244Y-72942095D02*
X132592435Y-72942095D01*
X132859102Y-72865904D02*
X132897197Y-72904000D01*
X132897197Y-72904000D02*
X132859102Y-72942095D01*
X132859102Y-72942095D02*
X132821006Y-72904000D01*
X132821006Y-72904000D02*
X132859102Y-72865904D01*
X132859102Y-72865904D02*
X132859102Y-72942095D01*
X133240054Y-72942095D02*
X133240054Y-72142095D01*
X133240054Y-72446857D02*
X133316244Y-72408761D01*
X133316244Y-72408761D02*
X133468625Y-72408761D01*
X133468625Y-72408761D02*
X133544816Y-72446857D01*
X133544816Y-72446857D02*
X133582911Y-72484952D01*
X133582911Y-72484952D02*
X133621006Y-72561142D01*
X133621006Y-72561142D02*
X133621006Y-72789714D01*
X133621006Y-72789714D02*
X133582911Y-72865904D01*
X133582911Y-72865904D02*
X133544816Y-72904000D01*
X133544816Y-72904000D02*
X133468625Y-72942095D01*
X133468625Y-72942095D02*
X133316244Y-72942095D01*
X133316244Y-72942095D02*
X133240054Y-72904000D01*
X133887673Y-72408761D02*
X134078149Y-72942095D01*
X134268626Y-72408761D02*
X134078149Y-72942095D01*
X134078149Y-72942095D02*
X134001959Y-73132571D01*
X134001959Y-73132571D02*
X133963864Y-73170666D01*
X133963864Y-73170666D02*
X133887673Y-73208761D01*
X135449578Y-72523047D02*
X135563864Y-72561142D01*
X135563864Y-72561142D02*
X135601959Y-72599238D01*
X135601959Y-72599238D02*
X135640055Y-72675428D01*
X135640055Y-72675428D02*
X135640055Y-72789714D01*
X135640055Y-72789714D02*
X135601959Y-72865904D01*
X135601959Y-72865904D02*
X135563864Y-72904000D01*
X135563864Y-72904000D02*
X135487674Y-72942095D01*
X135487674Y-72942095D02*
X135182912Y-72942095D01*
X135182912Y-72942095D02*
X135182912Y-72142095D01*
X135182912Y-72142095D02*
X135449578Y-72142095D01*
X135449578Y-72142095D02*
X135525769Y-72180190D01*
X135525769Y-72180190D02*
X135563864Y-72218285D01*
X135563864Y-72218285D02*
X135601959Y-72294476D01*
X135601959Y-72294476D02*
X135601959Y-72370666D01*
X135601959Y-72370666D02*
X135563864Y-72446857D01*
X135563864Y-72446857D02*
X135525769Y-72484952D01*
X135525769Y-72484952D02*
X135449578Y-72523047D01*
X135449578Y-72523047D02*
X135182912Y-72523047D01*
X135868626Y-72142095D02*
X136325769Y-72142095D01*
X136097197Y-72942095D02*
X136097197Y-72142095D01*
X152572009Y-109144635D02*
X152495819Y-109106540D01*
X152495819Y-109106540D02*
X152381533Y-109106540D01*
X152381533Y-109106540D02*
X152267247Y-109144635D01*
X152267247Y-109144635D02*
X152191057Y-109220825D01*
X152191057Y-109220825D02*
X152152962Y-109297016D01*
X152152962Y-109297016D02*
X152114866Y-109449397D01*
X152114866Y-109449397D02*
X152114866Y-109563683D01*
X152114866Y-109563683D02*
X152152962Y-109716064D01*
X152152962Y-109716064D02*
X152191057Y-109792254D01*
X152191057Y-109792254D02*
X152267247Y-109868445D01*
X152267247Y-109868445D02*
X152381533Y-109906540D01*
X152381533Y-109906540D02*
X152457724Y-109906540D01*
X152457724Y-109906540D02*
X152572009Y-109868445D01*
X152572009Y-109868445D02*
X152610105Y-109830349D01*
X152610105Y-109830349D02*
X152610105Y-109563683D01*
X152610105Y-109563683D02*
X152457724Y-109563683D01*
X152952962Y-109906540D02*
X152952962Y-109106540D01*
X152952962Y-109106540D02*
X153410105Y-109906540D01*
X153410105Y-109906540D02*
X153410105Y-109106540D01*
X153791057Y-109906540D02*
X153791057Y-109106540D01*
X153791057Y-109106540D02*
X153981533Y-109106540D01*
X153981533Y-109106540D02*
X154095819Y-109144635D01*
X154095819Y-109144635D02*
X154172009Y-109220825D01*
X154172009Y-109220825D02*
X154210104Y-109297016D01*
X154210104Y-109297016D02*
X154248200Y-109449397D01*
X154248200Y-109449397D02*
X154248200Y-109563683D01*
X154248200Y-109563683D02*
X154210104Y-109716064D01*
X154210104Y-109716064D02*
X154172009Y-109792254D01*
X154172009Y-109792254D02*
X154095819Y-109868445D01*
X154095819Y-109868445D02*
X153981533Y-109906540D01*
X153981533Y-109906540D02*
X153791057Y-109906540D01*
X155162485Y-109868445D02*
X155276771Y-109906540D01*
X155276771Y-109906540D02*
X155467247Y-109906540D01*
X155467247Y-109906540D02*
X155543438Y-109868445D01*
X155543438Y-109868445D02*
X155581533Y-109830349D01*
X155581533Y-109830349D02*
X155619628Y-109754159D01*
X155619628Y-109754159D02*
X155619628Y-109677968D01*
X155619628Y-109677968D02*
X155581533Y-109601778D01*
X155581533Y-109601778D02*
X155543438Y-109563683D01*
X155543438Y-109563683D02*
X155467247Y-109525587D01*
X155467247Y-109525587D02*
X155314866Y-109487492D01*
X155314866Y-109487492D02*
X155238676Y-109449397D01*
X155238676Y-109449397D02*
X155200581Y-109411302D01*
X155200581Y-109411302D02*
X155162485Y-109335111D01*
X155162485Y-109335111D02*
X155162485Y-109258921D01*
X155162485Y-109258921D02*
X155200581Y-109182730D01*
X155200581Y-109182730D02*
X155238676Y-109144635D01*
X155238676Y-109144635D02*
X155314866Y-109106540D01*
X155314866Y-109106540D02*
X155505343Y-109106540D01*
X155505343Y-109106540D02*
X155619628Y-109144635D01*
X156419629Y-109830349D02*
X156381533Y-109868445D01*
X156381533Y-109868445D02*
X156267248Y-109906540D01*
X156267248Y-109906540D02*
X156191057Y-109906540D01*
X156191057Y-109906540D02*
X156076771Y-109868445D01*
X156076771Y-109868445D02*
X156000581Y-109792254D01*
X156000581Y-109792254D02*
X155962486Y-109716064D01*
X155962486Y-109716064D02*
X155924390Y-109563683D01*
X155924390Y-109563683D02*
X155924390Y-109449397D01*
X155924390Y-109449397D02*
X155962486Y-109297016D01*
X155962486Y-109297016D02*
X156000581Y-109220825D01*
X156000581Y-109220825D02*
X156076771Y-109144635D01*
X156076771Y-109144635D02*
X156191057Y-109106540D01*
X156191057Y-109106540D02*
X156267248Y-109106540D01*
X156267248Y-109106540D02*
X156381533Y-109144635D01*
X156381533Y-109144635D02*
X156419629Y-109182730D01*
X157143438Y-109906540D02*
X156762486Y-109906540D01*
X156762486Y-109906540D02*
X156762486Y-109106540D01*
X157981533Y-109868445D02*
X158095819Y-109906540D01*
X158095819Y-109906540D02*
X158286295Y-109906540D01*
X158286295Y-109906540D02*
X158362486Y-109868445D01*
X158362486Y-109868445D02*
X158400581Y-109830349D01*
X158400581Y-109830349D02*
X158438676Y-109754159D01*
X158438676Y-109754159D02*
X158438676Y-109677968D01*
X158438676Y-109677968D02*
X158400581Y-109601778D01*
X158400581Y-109601778D02*
X158362486Y-109563683D01*
X158362486Y-109563683D02*
X158286295Y-109525587D01*
X158286295Y-109525587D02*
X158133914Y-109487492D01*
X158133914Y-109487492D02*
X158057724Y-109449397D01*
X158057724Y-109449397D02*
X158019629Y-109411302D01*
X158019629Y-109411302D02*
X157981533Y-109335111D01*
X157981533Y-109335111D02*
X157981533Y-109258921D01*
X157981533Y-109258921D02*
X158019629Y-109182730D01*
X158019629Y-109182730D02*
X158057724Y-109144635D01*
X158057724Y-109144635D02*
X158133914Y-109106540D01*
X158133914Y-109106540D02*
X158324391Y-109106540D01*
X158324391Y-109106540D02*
X158438676Y-109144635D01*
X158781534Y-109906540D02*
X158781534Y-109106540D01*
X158781534Y-109106540D02*
X158972010Y-109106540D01*
X158972010Y-109106540D02*
X159086296Y-109144635D01*
X159086296Y-109144635D02*
X159162486Y-109220825D01*
X159162486Y-109220825D02*
X159200581Y-109297016D01*
X159200581Y-109297016D02*
X159238677Y-109449397D01*
X159238677Y-109449397D02*
X159238677Y-109563683D01*
X159238677Y-109563683D02*
X159200581Y-109716064D01*
X159200581Y-109716064D02*
X159162486Y-109792254D01*
X159162486Y-109792254D02*
X159086296Y-109868445D01*
X159086296Y-109868445D02*
X158972010Y-109906540D01*
X158972010Y-109906540D02*
X158781534Y-109906540D01*
X159543438Y-109677968D02*
X159924391Y-109677968D01*
X159467248Y-109906540D02*
X159733915Y-109106540D01*
X159733915Y-109106540D02*
X160000581Y-109906540D01*
X161257724Y-109106540D02*
X160876772Y-109106540D01*
X160876772Y-109106540D02*
X160838676Y-109487492D01*
X160838676Y-109487492D02*
X160876772Y-109449397D01*
X160876772Y-109449397D02*
X160952962Y-109411302D01*
X160952962Y-109411302D02*
X161143438Y-109411302D01*
X161143438Y-109411302D02*
X161219629Y-109449397D01*
X161219629Y-109449397D02*
X161257724Y-109487492D01*
X161257724Y-109487492D02*
X161295819Y-109563683D01*
X161295819Y-109563683D02*
X161295819Y-109754159D01*
X161295819Y-109754159D02*
X161257724Y-109830349D01*
X161257724Y-109830349D02*
X161219629Y-109868445D01*
X161219629Y-109868445D02*
X161143438Y-109906540D01*
X161143438Y-109906540D02*
X160952962Y-109906540D01*
X160952962Y-109906540D02*
X160876772Y-109868445D01*
X160876772Y-109868445D02*
X160838676Y-109830349D01*
X161524391Y-109106540D02*
X161791058Y-109906540D01*
X161791058Y-109906540D02*
X162057724Y-109106540D01*
X153810104Y-111194495D02*
X153810104Y-110394495D01*
X154152960Y-110470685D02*
X154191056Y-110432590D01*
X154191056Y-110432590D02*
X154267246Y-110394495D01*
X154267246Y-110394495D02*
X154457722Y-110394495D01*
X154457722Y-110394495D02*
X154533913Y-110432590D01*
X154533913Y-110432590D02*
X154572008Y-110470685D01*
X154572008Y-110470685D02*
X154610103Y-110546876D01*
X154610103Y-110546876D02*
X154610103Y-110623066D01*
X154610103Y-110623066D02*
X154572008Y-110737352D01*
X154572008Y-110737352D02*
X154114865Y-111194495D01*
X154114865Y-111194495D02*
X154610103Y-111194495D01*
X155410104Y-111118304D02*
X155372008Y-111156400D01*
X155372008Y-111156400D02*
X155257723Y-111194495D01*
X155257723Y-111194495D02*
X155181532Y-111194495D01*
X155181532Y-111194495D02*
X155067246Y-111156400D01*
X155067246Y-111156400D02*
X154991056Y-111080209D01*
X154991056Y-111080209D02*
X154952961Y-111004019D01*
X154952961Y-111004019D02*
X154914865Y-110851638D01*
X154914865Y-110851638D02*
X154914865Y-110737352D01*
X154914865Y-110737352D02*
X154952961Y-110584971D01*
X154952961Y-110584971D02*
X154991056Y-110508780D01*
X154991056Y-110508780D02*
X155067246Y-110432590D01*
X155067246Y-110432590D02*
X155181532Y-110394495D01*
X155181532Y-110394495D02*
X155257723Y-110394495D01*
X155257723Y-110394495D02*
X155372008Y-110432590D01*
X155372008Y-110432590D02*
X155410104Y-110470685D01*
X156362485Y-111194495D02*
X156362485Y-110394495D01*
X156362485Y-110394495D02*
X156552961Y-110394495D01*
X156552961Y-110394495D02*
X156667247Y-110432590D01*
X156667247Y-110432590D02*
X156743437Y-110508780D01*
X156743437Y-110508780D02*
X156781532Y-110584971D01*
X156781532Y-110584971D02*
X156819628Y-110737352D01*
X156819628Y-110737352D02*
X156819628Y-110851638D01*
X156819628Y-110851638D02*
X156781532Y-111004019D01*
X156781532Y-111004019D02*
X156743437Y-111080209D01*
X156743437Y-111080209D02*
X156667247Y-111156400D01*
X156667247Y-111156400D02*
X156552961Y-111194495D01*
X156552961Y-111194495D02*
X156362485Y-111194495D01*
X157162485Y-111194495D02*
X157162485Y-110661161D01*
X157162485Y-110394495D02*
X157124389Y-110432590D01*
X157124389Y-110432590D02*
X157162485Y-110470685D01*
X157162485Y-110470685D02*
X157200580Y-110432590D01*
X157200580Y-110432590D02*
X157162485Y-110394495D01*
X157162485Y-110394495D02*
X157162485Y-110470685D01*
X157505341Y-111156400D02*
X157581532Y-111194495D01*
X157581532Y-111194495D02*
X157733913Y-111194495D01*
X157733913Y-111194495D02*
X157810103Y-111156400D01*
X157810103Y-111156400D02*
X157848199Y-111080209D01*
X157848199Y-111080209D02*
X157848199Y-111042114D01*
X157848199Y-111042114D02*
X157810103Y-110965923D01*
X157810103Y-110965923D02*
X157733913Y-110927828D01*
X157733913Y-110927828D02*
X157619627Y-110927828D01*
X157619627Y-110927828D02*
X157543437Y-110889733D01*
X157543437Y-110889733D02*
X157505341Y-110813542D01*
X157505341Y-110813542D02*
X157505341Y-110775447D01*
X157505341Y-110775447D02*
X157543437Y-110699257D01*
X157543437Y-110699257D02*
X157619627Y-110661161D01*
X157619627Y-110661161D02*
X157733913Y-110661161D01*
X157733913Y-110661161D02*
X157810103Y-110699257D01*
X158191056Y-110661161D02*
X158191056Y-111461161D01*
X158191056Y-110699257D02*
X158267246Y-110661161D01*
X158267246Y-110661161D02*
X158419627Y-110661161D01*
X158419627Y-110661161D02*
X158495818Y-110699257D01*
X158495818Y-110699257D02*
X158533913Y-110737352D01*
X158533913Y-110737352D02*
X158572008Y-110813542D01*
X158572008Y-110813542D02*
X158572008Y-111042114D01*
X158572008Y-111042114D02*
X158533913Y-111118304D01*
X158533913Y-111118304D02*
X158495818Y-111156400D01*
X158495818Y-111156400D02*
X158419627Y-111194495D01*
X158419627Y-111194495D02*
X158267246Y-111194495D01*
X158267246Y-111194495D02*
X158191056Y-111156400D01*
X159029151Y-111194495D02*
X158952961Y-111156400D01*
X158952961Y-111156400D02*
X158914866Y-111080209D01*
X158914866Y-111080209D02*
X158914866Y-110394495D01*
X159676771Y-111194495D02*
X159676771Y-110775447D01*
X159676771Y-110775447D02*
X159638676Y-110699257D01*
X159638676Y-110699257D02*
X159562485Y-110661161D01*
X159562485Y-110661161D02*
X159410104Y-110661161D01*
X159410104Y-110661161D02*
X159333914Y-110699257D01*
X159676771Y-111156400D02*
X159600580Y-111194495D01*
X159600580Y-111194495D02*
X159410104Y-111194495D01*
X159410104Y-111194495D02*
X159333914Y-111156400D01*
X159333914Y-111156400D02*
X159295818Y-111080209D01*
X159295818Y-111080209D02*
X159295818Y-111004019D01*
X159295818Y-111004019D02*
X159333914Y-110927828D01*
X159333914Y-110927828D02*
X159410104Y-110889733D01*
X159410104Y-110889733D02*
X159600580Y-110889733D01*
X159600580Y-110889733D02*
X159676771Y-110851638D01*
X159981533Y-110661161D02*
X160172009Y-111194495D01*
X160362486Y-110661161D02*
X160172009Y-111194495D01*
X160172009Y-111194495D02*
X160095819Y-111384971D01*
X160095819Y-111384971D02*
X160057724Y-111423066D01*
X160057724Y-111423066D02*
X159981533Y-111461161D01*
X138244054Y-72942095D02*
X138244054Y-72142095D01*
X138244054Y-72142095D02*
X138548816Y-72142095D01*
X138548816Y-72142095D02*
X138625006Y-72180190D01*
X138625006Y-72180190D02*
X138663101Y-72218285D01*
X138663101Y-72218285D02*
X138701197Y-72294476D01*
X138701197Y-72294476D02*
X138701197Y-72408761D01*
X138701197Y-72408761D02*
X138663101Y-72484952D01*
X138663101Y-72484952D02*
X138625006Y-72523047D01*
X138625006Y-72523047D02*
X138548816Y-72561142D01*
X138548816Y-72561142D02*
X138244054Y-72561142D01*
X139044054Y-72942095D02*
X139044054Y-72408761D01*
X139044054Y-72142095D02*
X139005958Y-72180190D01*
X139005958Y-72180190D02*
X139044054Y-72218285D01*
X139044054Y-72218285D02*
X139082149Y-72180190D01*
X139082149Y-72180190D02*
X139044054Y-72142095D01*
X139044054Y-72142095D02*
X139044054Y-72218285D01*
X139729768Y-72904000D02*
X139653577Y-72942095D01*
X139653577Y-72942095D02*
X139501196Y-72942095D01*
X139501196Y-72942095D02*
X139425006Y-72904000D01*
X139425006Y-72904000D02*
X139386910Y-72827809D01*
X139386910Y-72827809D02*
X139386910Y-72523047D01*
X139386910Y-72523047D02*
X139425006Y-72446857D01*
X139425006Y-72446857D02*
X139501196Y-72408761D01*
X139501196Y-72408761D02*
X139653577Y-72408761D01*
X139653577Y-72408761D02*
X139729768Y-72446857D01*
X139729768Y-72446857D02*
X139767863Y-72523047D01*
X139767863Y-72523047D02*
X139767863Y-72599238D01*
X139767863Y-72599238D02*
X139386910Y-72675428D01*
X140034529Y-72408761D02*
X140453577Y-72408761D01*
X140453577Y-72408761D02*
X140034529Y-72942095D01*
X140034529Y-72942095D02*
X140453577Y-72942095D01*
X140872624Y-72942095D02*
X140796434Y-72904000D01*
X140796434Y-72904000D02*
X140758339Y-72865904D01*
X140758339Y-72865904D02*
X140720243Y-72789714D01*
X140720243Y-72789714D02*
X140720243Y-72561142D01*
X140720243Y-72561142D02*
X140758339Y-72484952D01*
X140758339Y-72484952D02*
X140796434Y-72446857D01*
X140796434Y-72446857D02*
X140872624Y-72408761D01*
X140872624Y-72408761D02*
X140986910Y-72408761D01*
X140986910Y-72408761D02*
X141063101Y-72446857D01*
X141063101Y-72446857D02*
X141101196Y-72484952D01*
X141101196Y-72484952D02*
X141139291Y-72561142D01*
X141139291Y-72561142D02*
X141139291Y-72789714D01*
X141139291Y-72789714D02*
X141101196Y-72865904D01*
X141101196Y-72865904D02*
X141063101Y-72904000D01*
X141063101Y-72904000D02*
X140986910Y-72942095D01*
X140986910Y-72942095D02*
X140872624Y-72942095D01*
X112894854Y-72637333D02*
X113504378Y-72637333D01*
X113199616Y-72942095D02*
X113199616Y-72332571D01*
X114304377Y-72942095D02*
X113847234Y-72942095D01*
X114075806Y-72942095D02*
X114075806Y-72142095D01*
X114075806Y-72142095D02*
X113999615Y-72256380D01*
X113999615Y-72256380D02*
X113923425Y-72332571D01*
X113923425Y-72332571D02*
X113847234Y-72370666D01*
X114609139Y-72218285D02*
X114647235Y-72180190D01*
X114647235Y-72180190D02*
X114723425Y-72142095D01*
X114723425Y-72142095D02*
X114913901Y-72142095D01*
X114913901Y-72142095D02*
X114990092Y-72180190D01*
X114990092Y-72180190D02*
X115028187Y-72218285D01*
X115028187Y-72218285D02*
X115066282Y-72294476D01*
X115066282Y-72294476D02*
X115066282Y-72370666D01*
X115066282Y-72370666D02*
X115028187Y-72484952D01*
X115028187Y-72484952D02*
X114571044Y-72942095D01*
X114571044Y-72942095D02*
X115066282Y-72942095D01*
X115294854Y-72142095D02*
X115561521Y-72942095D01*
X115561521Y-72942095D02*
X115828187Y-72142095D01*
X116094854Y-72637333D02*
X116704378Y-72637333D01*
X134112713Y-107498095D02*
X134112713Y-106698095D01*
X134112713Y-106698095D02*
X134303189Y-106698095D01*
X134303189Y-106698095D02*
X134417475Y-106736190D01*
X134417475Y-106736190D02*
X134493665Y-106812380D01*
X134493665Y-106812380D02*
X134531760Y-106888571D01*
X134531760Y-106888571D02*
X134569856Y-107040952D01*
X134569856Y-107040952D02*
X134569856Y-107155238D01*
X134569856Y-107155238D02*
X134531760Y-107307619D01*
X134531760Y-107307619D02*
X134493665Y-107383809D01*
X134493665Y-107383809D02*
X134417475Y-107460000D01*
X134417475Y-107460000D02*
X134303189Y-107498095D01*
X134303189Y-107498095D02*
X134112713Y-107498095D01*
X134912713Y-107498095D02*
X134912713Y-106964761D01*
X134912713Y-106698095D02*
X134874617Y-106736190D01*
X134874617Y-106736190D02*
X134912713Y-106774285D01*
X134912713Y-106774285D02*
X134950808Y-106736190D01*
X134950808Y-106736190D02*
X134912713Y-106698095D01*
X134912713Y-106698095D02*
X134912713Y-106774285D01*
X135636522Y-106964761D02*
X135636522Y-107612380D01*
X135636522Y-107612380D02*
X135598427Y-107688571D01*
X135598427Y-107688571D02*
X135560331Y-107726666D01*
X135560331Y-107726666D02*
X135484141Y-107764761D01*
X135484141Y-107764761D02*
X135369855Y-107764761D01*
X135369855Y-107764761D02*
X135293665Y-107726666D01*
X135636522Y-107460000D02*
X135560331Y-107498095D01*
X135560331Y-107498095D02*
X135407950Y-107498095D01*
X135407950Y-107498095D02*
X135331760Y-107460000D01*
X135331760Y-107460000D02*
X135293665Y-107421904D01*
X135293665Y-107421904D02*
X135255569Y-107345714D01*
X135255569Y-107345714D02*
X135255569Y-107117142D01*
X135255569Y-107117142D02*
X135293665Y-107040952D01*
X135293665Y-107040952D02*
X135331760Y-107002857D01*
X135331760Y-107002857D02*
X135407950Y-106964761D01*
X135407950Y-106964761D02*
X135560331Y-106964761D01*
X135560331Y-106964761D02*
X135636522Y-107002857D01*
X136017475Y-107498095D02*
X136017475Y-106964761D01*
X136017475Y-106698095D02*
X135979379Y-106736190D01*
X135979379Y-106736190D02*
X136017475Y-106774285D01*
X136017475Y-106774285D02*
X136055570Y-106736190D01*
X136055570Y-106736190D02*
X136017475Y-106698095D01*
X136017475Y-106698095D02*
X136017475Y-106774285D01*
X136284141Y-106964761D02*
X136588903Y-106964761D01*
X136398427Y-106698095D02*
X136398427Y-107383809D01*
X136398427Y-107383809D02*
X136436522Y-107460000D01*
X136436522Y-107460000D02*
X136512712Y-107498095D01*
X136512712Y-107498095D02*
X136588903Y-107498095D01*
X137198427Y-107498095D02*
X137198427Y-107079047D01*
X137198427Y-107079047D02*
X137160332Y-107002857D01*
X137160332Y-107002857D02*
X137084141Y-106964761D01*
X137084141Y-106964761D02*
X136931760Y-106964761D01*
X136931760Y-106964761D02*
X136855570Y-107002857D01*
X137198427Y-107460000D02*
X137122236Y-107498095D01*
X137122236Y-107498095D02*
X136931760Y-107498095D01*
X136931760Y-107498095D02*
X136855570Y-107460000D01*
X136855570Y-107460000D02*
X136817474Y-107383809D01*
X136817474Y-107383809D02*
X136817474Y-107307619D01*
X136817474Y-107307619D02*
X136855570Y-107231428D01*
X136855570Y-107231428D02*
X136931760Y-107193333D01*
X136931760Y-107193333D02*
X137122236Y-107193333D01*
X137122236Y-107193333D02*
X137198427Y-107155238D01*
X137693665Y-107498095D02*
X137617475Y-107460000D01*
X137617475Y-107460000D02*
X137579380Y-107383809D01*
X137579380Y-107383809D02*
X137579380Y-106698095D01*
X138303190Y-107460000D02*
X138226999Y-107498095D01*
X138226999Y-107498095D02*
X138074618Y-107498095D01*
X138074618Y-107498095D02*
X137998428Y-107460000D01*
X137998428Y-107460000D02*
X137960332Y-107383809D01*
X137960332Y-107383809D02*
X137960332Y-107079047D01*
X137960332Y-107079047D02*
X137998428Y-107002857D01*
X137998428Y-107002857D02*
X138074618Y-106964761D01*
X138074618Y-106964761D02*
X138226999Y-106964761D01*
X138226999Y-106964761D02*
X138303190Y-107002857D01*
X138303190Y-107002857D02*
X138341285Y-107079047D01*
X138341285Y-107079047D02*
X138341285Y-107155238D01*
X138341285Y-107155238D02*
X137960332Y-107231428D01*
X139674618Y-107498095D02*
X139293666Y-107498095D01*
X139293666Y-107498095D02*
X139293666Y-106698095D01*
X140055570Y-107498095D02*
X139979380Y-107460000D01*
X139979380Y-107460000D02*
X139941285Y-107421904D01*
X139941285Y-107421904D02*
X139903189Y-107345714D01*
X139903189Y-107345714D02*
X139903189Y-107117142D01*
X139903189Y-107117142D02*
X139941285Y-107040952D01*
X139941285Y-107040952D02*
X139979380Y-107002857D01*
X139979380Y-107002857D02*
X140055570Y-106964761D01*
X140055570Y-106964761D02*
X140169856Y-106964761D01*
X140169856Y-106964761D02*
X140246047Y-107002857D01*
X140246047Y-107002857D02*
X140284142Y-107040952D01*
X140284142Y-107040952D02*
X140322237Y-107117142D01*
X140322237Y-107117142D02*
X140322237Y-107345714D01*
X140322237Y-107345714D02*
X140284142Y-107421904D01*
X140284142Y-107421904D02*
X140246047Y-107460000D01*
X140246047Y-107460000D02*
X140169856Y-107498095D01*
X140169856Y-107498095D02*
X140055570Y-107498095D01*
X140969857Y-107460000D02*
X140893666Y-107498095D01*
X140893666Y-107498095D02*
X140741285Y-107498095D01*
X140741285Y-107498095D02*
X140665095Y-107460000D01*
X140665095Y-107460000D02*
X140626999Y-107383809D01*
X140626999Y-107383809D02*
X140626999Y-107079047D01*
X140626999Y-107079047D02*
X140665095Y-107002857D01*
X140665095Y-107002857D02*
X140741285Y-106964761D01*
X140741285Y-106964761D02*
X140893666Y-106964761D01*
X140893666Y-106964761D02*
X140969857Y-107002857D01*
X140969857Y-107002857D02*
X141007952Y-107079047D01*
X141007952Y-107079047D02*
X141007952Y-107155238D01*
X141007952Y-107155238D02*
X140626999Y-107231428D01*
X141236523Y-106964761D02*
X141541285Y-106964761D01*
X141350809Y-106698095D02*
X141350809Y-107383809D01*
X141350809Y-107383809D02*
X141388904Y-107460000D01*
X141388904Y-107460000D02*
X141465094Y-107498095D01*
X141465094Y-107498095D02*
X141541285Y-107498095D01*
X141769856Y-107460000D02*
X141846047Y-107498095D01*
X141846047Y-107498095D02*
X141998428Y-107498095D01*
X141998428Y-107498095D02*
X142074618Y-107460000D01*
X142074618Y-107460000D02*
X142112714Y-107383809D01*
X142112714Y-107383809D02*
X142112714Y-107345714D01*
X142112714Y-107345714D02*
X142074618Y-107269523D01*
X142074618Y-107269523D02*
X141998428Y-107231428D01*
X141998428Y-107231428D02*
X141884142Y-107231428D01*
X141884142Y-107231428D02*
X141807952Y-107193333D01*
X141807952Y-107193333D02*
X141769856Y-107117142D01*
X141769856Y-107117142D02*
X141769856Y-107079047D01*
X141769856Y-107079047D02*
X141807952Y-107002857D01*
X141807952Y-107002857D02*
X141884142Y-106964761D01*
X141884142Y-106964761D02*
X141998428Y-106964761D01*
X141998428Y-106964761D02*
X142074618Y-107002857D01*
X142341285Y-106964761D02*
X142646047Y-106964761D01*
X142455571Y-106698095D02*
X142455571Y-107383809D01*
X142455571Y-107383809D02*
X142493666Y-107460000D01*
X142493666Y-107460000D02*
X142569856Y-107498095D01*
X142569856Y-107498095D02*
X142646047Y-107498095D01*
X143255571Y-107498095D02*
X143255571Y-107079047D01*
X143255571Y-107079047D02*
X143217476Y-107002857D01*
X143217476Y-107002857D02*
X143141285Y-106964761D01*
X143141285Y-106964761D02*
X142988904Y-106964761D01*
X142988904Y-106964761D02*
X142912714Y-107002857D01*
X143255571Y-107460000D02*
X143179380Y-107498095D01*
X143179380Y-107498095D02*
X142988904Y-107498095D01*
X142988904Y-107498095D02*
X142912714Y-107460000D01*
X142912714Y-107460000D02*
X142874618Y-107383809D01*
X142874618Y-107383809D02*
X142874618Y-107307619D01*
X142874618Y-107307619D02*
X142912714Y-107231428D01*
X142912714Y-107231428D02*
X142988904Y-107193333D01*
X142988904Y-107193333D02*
X143179380Y-107193333D01*
X143179380Y-107193333D02*
X143255571Y-107155238D01*
X143522238Y-106964761D02*
X143827000Y-106964761D01*
X143636524Y-106698095D02*
X143636524Y-107383809D01*
X143636524Y-107383809D02*
X143674619Y-107460000D01*
X143674619Y-107460000D02*
X143750809Y-107498095D01*
X143750809Y-107498095D02*
X143827000Y-107498095D01*
X144093667Y-107498095D02*
X144093667Y-106964761D01*
X144093667Y-106698095D02*
X144055571Y-106736190D01*
X144055571Y-106736190D02*
X144093667Y-106774285D01*
X144093667Y-106774285D02*
X144131762Y-106736190D01*
X144131762Y-106736190D02*
X144093667Y-106698095D01*
X144093667Y-106698095D02*
X144093667Y-106774285D01*
X144588904Y-107498095D02*
X144512714Y-107460000D01*
X144512714Y-107460000D02*
X144474619Y-107421904D01*
X144474619Y-107421904D02*
X144436523Y-107345714D01*
X144436523Y-107345714D02*
X144436523Y-107117142D01*
X144436523Y-107117142D02*
X144474619Y-107040952D01*
X144474619Y-107040952D02*
X144512714Y-107002857D01*
X144512714Y-107002857D02*
X144588904Y-106964761D01*
X144588904Y-106964761D02*
X144703190Y-106964761D01*
X144703190Y-106964761D02*
X144779381Y-107002857D01*
X144779381Y-107002857D02*
X144817476Y-107040952D01*
X144817476Y-107040952D02*
X144855571Y-107117142D01*
X144855571Y-107117142D02*
X144855571Y-107345714D01*
X144855571Y-107345714D02*
X144817476Y-107421904D01*
X144817476Y-107421904D02*
X144779381Y-107460000D01*
X144779381Y-107460000D02*
X144703190Y-107498095D01*
X144703190Y-107498095D02*
X144588904Y-107498095D01*
X145198429Y-106964761D02*
X145198429Y-107498095D01*
X145198429Y-107040952D02*
X145236524Y-107002857D01*
X145236524Y-107002857D02*
X145312714Y-106964761D01*
X145312714Y-106964761D02*
X145427000Y-106964761D01*
X145427000Y-106964761D02*
X145503191Y-107002857D01*
X145503191Y-107002857D02*
X145541286Y-107079047D01*
X145541286Y-107079047D02*
X145541286Y-107498095D01*
X134474618Y-108176526D02*
X134398427Y-108138431D01*
X134398427Y-108138431D02*
X134246046Y-108138431D01*
X134246046Y-108138431D02*
X134169856Y-108176526D01*
X134169856Y-108176526D02*
X134093665Y-108252716D01*
X134093665Y-108252716D02*
X134055570Y-108328907D01*
X134055570Y-108328907D02*
X134055570Y-108481288D01*
X134055570Y-108481288D02*
X134093665Y-108557478D01*
X134093665Y-108557478D02*
X134169856Y-108633669D01*
X134169856Y-108633669D02*
X134246046Y-108671764D01*
X134246046Y-108671764D02*
X134398427Y-108671764D01*
X134398427Y-108671764D02*
X134474618Y-108633669D01*
X134322237Y-107871764D02*
X134131761Y-107909859D01*
X134131761Y-107909859D02*
X133941284Y-108024145D01*
X133941284Y-108024145D02*
X133826999Y-108214621D01*
X133826999Y-108214621D02*
X133788903Y-108405097D01*
X133788903Y-108405097D02*
X133826999Y-108595574D01*
X133826999Y-108595574D02*
X133941284Y-108786050D01*
X133941284Y-108786050D02*
X134131761Y-108900335D01*
X134131761Y-108900335D02*
X134322237Y-108938431D01*
X134322237Y-108938431D02*
X134512713Y-108900335D01*
X134512713Y-108900335D02*
X134703189Y-108786050D01*
X134703189Y-108786050D02*
X134817475Y-108595574D01*
X134817475Y-108595574D02*
X134855570Y-108405097D01*
X134855570Y-108405097D02*
X134817475Y-108214621D01*
X134817475Y-108214621D02*
X134703189Y-108024145D01*
X134703189Y-108024145D02*
X134512713Y-107909859D01*
X134512713Y-107909859D02*
X134322237Y-107871764D01*
X135807952Y-108786050D02*
X135807952Y-107986050D01*
X135807952Y-107986050D02*
X135998428Y-107986050D01*
X135998428Y-107986050D02*
X136112714Y-108024145D01*
X136112714Y-108024145D02*
X136188904Y-108100335D01*
X136188904Y-108100335D02*
X136226999Y-108176526D01*
X136226999Y-108176526D02*
X136265095Y-108328907D01*
X136265095Y-108328907D02*
X136265095Y-108443193D01*
X136265095Y-108443193D02*
X136226999Y-108595574D01*
X136226999Y-108595574D02*
X136188904Y-108671764D01*
X136188904Y-108671764D02*
X136112714Y-108747955D01*
X136112714Y-108747955D02*
X135998428Y-108786050D01*
X135998428Y-108786050D02*
X135807952Y-108786050D01*
X137065095Y-108709859D02*
X137026999Y-108747955D01*
X137026999Y-108747955D02*
X136912714Y-108786050D01*
X136912714Y-108786050D02*
X136836523Y-108786050D01*
X136836523Y-108786050D02*
X136722237Y-108747955D01*
X136722237Y-108747955D02*
X136646047Y-108671764D01*
X136646047Y-108671764D02*
X136607952Y-108595574D01*
X136607952Y-108595574D02*
X136569856Y-108443193D01*
X136569856Y-108443193D02*
X136569856Y-108328907D01*
X136569856Y-108328907D02*
X136607952Y-108176526D01*
X136607952Y-108176526D02*
X136646047Y-108100335D01*
X136646047Y-108100335D02*
X136722237Y-108024145D01*
X136722237Y-108024145D02*
X136836523Y-107986050D01*
X136836523Y-107986050D02*
X136912714Y-107986050D01*
X136912714Y-107986050D02*
X137026999Y-108024145D01*
X137026999Y-108024145D02*
X137065095Y-108062240D01*
X137331761Y-107986050D02*
X137826999Y-107986050D01*
X137826999Y-107986050D02*
X137560333Y-108290812D01*
X137560333Y-108290812D02*
X137674618Y-108290812D01*
X137674618Y-108290812D02*
X137750809Y-108328907D01*
X137750809Y-108328907D02*
X137788904Y-108367002D01*
X137788904Y-108367002D02*
X137826999Y-108443193D01*
X137826999Y-108443193D02*
X137826999Y-108633669D01*
X137826999Y-108633669D02*
X137788904Y-108709859D01*
X137788904Y-108709859D02*
X137750809Y-108747955D01*
X137750809Y-108747955D02*
X137674618Y-108786050D01*
X137674618Y-108786050D02*
X137446047Y-108786050D01*
X137446047Y-108786050D02*
X137369856Y-108747955D01*
X137369856Y-108747955D02*
X137331761Y-108709859D01*
X138169857Y-108786050D02*
X138169857Y-107986050D01*
X138169857Y-107986050D02*
X138436523Y-108557478D01*
X138436523Y-108557478D02*
X138703190Y-107986050D01*
X138703190Y-107986050D02*
X138703190Y-108786050D01*
X139084143Y-108786050D02*
X139084143Y-107986050D01*
X139541286Y-108786050D02*
X139198428Y-108328907D01*
X139541286Y-107986050D02*
X139084143Y-108443193D01*
X140150809Y-108367002D02*
X140265095Y-108405097D01*
X140265095Y-108405097D02*
X140303190Y-108443193D01*
X140303190Y-108443193D02*
X140341286Y-108519383D01*
X140341286Y-108519383D02*
X140341286Y-108633669D01*
X140341286Y-108633669D02*
X140303190Y-108709859D01*
X140303190Y-108709859D02*
X140265095Y-108747955D01*
X140265095Y-108747955D02*
X140188905Y-108786050D01*
X140188905Y-108786050D02*
X139884143Y-108786050D01*
X139884143Y-108786050D02*
X139884143Y-107986050D01*
X139884143Y-107986050D02*
X140150809Y-107986050D01*
X140150809Y-107986050D02*
X140227000Y-108024145D01*
X140227000Y-108024145D02*
X140265095Y-108062240D01*
X140265095Y-108062240D02*
X140303190Y-108138431D01*
X140303190Y-108138431D02*
X140303190Y-108214621D01*
X140303190Y-108214621D02*
X140265095Y-108290812D01*
X140265095Y-108290812D02*
X140227000Y-108328907D01*
X140227000Y-108328907D02*
X140150809Y-108367002D01*
X140150809Y-108367002D02*
X139884143Y-108367002D01*
X141255571Y-107947955D02*
X140569857Y-108976526D01*
X141674619Y-107986050D02*
X141827000Y-107986050D01*
X141827000Y-107986050D02*
X141903190Y-108024145D01*
X141903190Y-108024145D02*
X141979381Y-108100335D01*
X141979381Y-108100335D02*
X142017476Y-108252716D01*
X142017476Y-108252716D02*
X142017476Y-108519383D01*
X142017476Y-108519383D02*
X141979381Y-108671764D01*
X141979381Y-108671764D02*
X141903190Y-108747955D01*
X141903190Y-108747955D02*
X141827000Y-108786050D01*
X141827000Y-108786050D02*
X141674619Y-108786050D01*
X141674619Y-108786050D02*
X141598428Y-108747955D01*
X141598428Y-108747955D02*
X141522238Y-108671764D01*
X141522238Y-108671764D02*
X141484142Y-108519383D01*
X141484142Y-108519383D02*
X141484142Y-108252716D01*
X141484142Y-108252716D02*
X141522238Y-108100335D01*
X141522238Y-108100335D02*
X141598428Y-108024145D01*
X141598428Y-108024145D02*
X141674619Y-107986050D01*
X142360333Y-108367002D02*
X142626999Y-108367002D01*
X142741285Y-108786050D02*
X142360333Y-108786050D01*
X142360333Y-108786050D02*
X142360333Y-107986050D01*
X142360333Y-107986050D02*
X142741285Y-107986050D01*
X143503190Y-108786050D02*
X143046047Y-108786050D01*
X143274619Y-108786050D02*
X143274619Y-107986050D01*
X143274619Y-107986050D02*
X143198428Y-108100335D01*
X143198428Y-108100335D02*
X143122238Y-108176526D01*
X143122238Y-108176526D02*
X143046047Y-108214621D01*
X144303191Y-108709859D02*
X144265095Y-108747955D01*
X144265095Y-108747955D02*
X144150810Y-108786050D01*
X144150810Y-108786050D02*
X144074619Y-108786050D01*
X144074619Y-108786050D02*
X143960333Y-108747955D01*
X143960333Y-108747955D02*
X143884143Y-108671764D01*
X143884143Y-108671764D02*
X143846048Y-108595574D01*
X143846048Y-108595574D02*
X143807952Y-108443193D01*
X143807952Y-108443193D02*
X143807952Y-108328907D01*
X143807952Y-108328907D02*
X143846048Y-108176526D01*
X143846048Y-108176526D02*
X143884143Y-108100335D01*
X143884143Y-108100335D02*
X143960333Y-108024145D01*
X143960333Y-108024145D02*
X144074619Y-107986050D01*
X144074619Y-107986050D02*
X144150810Y-107986050D01*
X144150810Y-107986050D02*
X144265095Y-108024145D01*
X144265095Y-108024145D02*
X144303191Y-108062240D01*
X145065095Y-108024145D02*
X144988905Y-107986050D01*
X144988905Y-107986050D02*
X144874619Y-107986050D01*
X144874619Y-107986050D02*
X144760333Y-108024145D01*
X144760333Y-108024145D02*
X144684143Y-108100335D01*
X144684143Y-108100335D02*
X144646048Y-108176526D01*
X144646048Y-108176526D02*
X144607952Y-108328907D01*
X144607952Y-108328907D02*
X144607952Y-108443193D01*
X144607952Y-108443193D02*
X144646048Y-108595574D01*
X144646048Y-108595574D02*
X144684143Y-108671764D01*
X144684143Y-108671764D02*
X144760333Y-108747955D01*
X144760333Y-108747955D02*
X144874619Y-108786050D01*
X144874619Y-108786050D02*
X144950810Y-108786050D01*
X144950810Y-108786050D02*
X145065095Y-108747955D01*
X145065095Y-108747955D02*
X145103191Y-108709859D01*
X145103191Y-108709859D02*
X145103191Y-108443193D01*
X145103191Y-108443193D02*
X144950810Y-108443193D01*
X145407952Y-108747955D02*
X145522238Y-108786050D01*
X145522238Y-108786050D02*
X145712714Y-108786050D01*
X145712714Y-108786050D02*
X145788905Y-108747955D01*
X145788905Y-108747955D02*
X145827000Y-108709859D01*
X145827000Y-108709859D02*
X145865095Y-108633669D01*
X145865095Y-108633669D02*
X145865095Y-108557478D01*
X145865095Y-108557478D02*
X145827000Y-108481288D01*
X145827000Y-108481288D02*
X145788905Y-108443193D01*
X145788905Y-108443193D02*
X145712714Y-108405097D01*
X145712714Y-108405097D02*
X145560333Y-108367002D01*
X145560333Y-108367002D02*
X145484143Y-108328907D01*
X145484143Y-108328907D02*
X145446048Y-108290812D01*
X145446048Y-108290812D02*
X145407952Y-108214621D01*
X145407952Y-108214621D02*
X145407952Y-108138431D01*
X145407952Y-108138431D02*
X145446048Y-108062240D01*
X145446048Y-108062240D02*
X145484143Y-108024145D01*
X145484143Y-108024145D02*
X145560333Y-107986050D01*
X145560333Y-107986050D02*
X145750810Y-107986050D01*
X145750810Y-107986050D02*
X145865095Y-108024145D01*
X132226999Y-110074005D02*
X132226999Y-109274005D01*
X132226999Y-109274005D02*
X132531761Y-109274005D01*
X132531761Y-109274005D02*
X132607951Y-109312100D01*
X132607951Y-109312100D02*
X132646046Y-109350195D01*
X132646046Y-109350195D02*
X132684142Y-109426386D01*
X132684142Y-109426386D02*
X132684142Y-109540671D01*
X132684142Y-109540671D02*
X132646046Y-109616862D01*
X132646046Y-109616862D02*
X132607951Y-109654957D01*
X132607951Y-109654957D02*
X132531761Y-109693052D01*
X132531761Y-109693052D02*
X132226999Y-109693052D01*
X133484142Y-109997814D02*
X133446046Y-110035910D01*
X133446046Y-110035910D02*
X133331761Y-110074005D01*
X133331761Y-110074005D02*
X133255570Y-110074005D01*
X133255570Y-110074005D02*
X133141284Y-110035910D01*
X133141284Y-110035910D02*
X133065094Y-109959719D01*
X133065094Y-109959719D02*
X133026999Y-109883529D01*
X133026999Y-109883529D02*
X132988903Y-109731148D01*
X132988903Y-109731148D02*
X132988903Y-109616862D01*
X132988903Y-109616862D02*
X133026999Y-109464481D01*
X133026999Y-109464481D02*
X133065094Y-109388290D01*
X133065094Y-109388290D02*
X133141284Y-109312100D01*
X133141284Y-109312100D02*
X133255570Y-109274005D01*
X133255570Y-109274005D02*
X133331761Y-109274005D01*
X133331761Y-109274005D02*
X133446046Y-109312100D01*
X133446046Y-109312100D02*
X133484142Y-109350195D01*
X134093665Y-109654957D02*
X134207951Y-109693052D01*
X134207951Y-109693052D02*
X134246046Y-109731148D01*
X134246046Y-109731148D02*
X134284142Y-109807338D01*
X134284142Y-109807338D02*
X134284142Y-109921624D01*
X134284142Y-109921624D02*
X134246046Y-109997814D01*
X134246046Y-109997814D02*
X134207951Y-110035910D01*
X134207951Y-110035910D02*
X134131761Y-110074005D01*
X134131761Y-110074005D02*
X133826999Y-110074005D01*
X133826999Y-110074005D02*
X133826999Y-109274005D01*
X133826999Y-109274005D02*
X134093665Y-109274005D01*
X134093665Y-109274005D02*
X134169856Y-109312100D01*
X134169856Y-109312100D02*
X134207951Y-109350195D01*
X134207951Y-109350195D02*
X134246046Y-109426386D01*
X134246046Y-109426386D02*
X134246046Y-109502576D01*
X134246046Y-109502576D02*
X134207951Y-109578767D01*
X134207951Y-109578767D02*
X134169856Y-109616862D01*
X134169856Y-109616862D02*
X134093665Y-109654957D01*
X134093665Y-109654957D02*
X133826999Y-109654957D01*
X135236523Y-110074005D02*
X135236523Y-109274005D01*
X135236523Y-109578767D02*
X135312713Y-109540671D01*
X135312713Y-109540671D02*
X135465094Y-109540671D01*
X135465094Y-109540671D02*
X135541285Y-109578767D01*
X135541285Y-109578767D02*
X135579380Y-109616862D01*
X135579380Y-109616862D02*
X135617475Y-109693052D01*
X135617475Y-109693052D02*
X135617475Y-109921624D01*
X135617475Y-109921624D02*
X135579380Y-109997814D01*
X135579380Y-109997814D02*
X135541285Y-110035910D01*
X135541285Y-110035910D02*
X135465094Y-110074005D01*
X135465094Y-110074005D02*
X135312713Y-110074005D01*
X135312713Y-110074005D02*
X135236523Y-110035910D01*
X135884142Y-109540671D02*
X136074618Y-110074005D01*
X136265095Y-109540671D02*
X136074618Y-110074005D01*
X136074618Y-110074005D02*
X135998428Y-110264481D01*
X135998428Y-110264481D02*
X135960333Y-110302576D01*
X135960333Y-110302576D02*
X135884142Y-110340671D01*
X137331762Y-109274005D02*
X137484143Y-109274005D01*
X137484143Y-109274005D02*
X137560333Y-109312100D01*
X137560333Y-109312100D02*
X137636524Y-109388290D01*
X137636524Y-109388290D02*
X137674619Y-109540671D01*
X137674619Y-109540671D02*
X137674619Y-109807338D01*
X137674619Y-109807338D02*
X137636524Y-109959719D01*
X137636524Y-109959719D02*
X137560333Y-110035910D01*
X137560333Y-110035910D02*
X137484143Y-110074005D01*
X137484143Y-110074005D02*
X137331762Y-110074005D01*
X137331762Y-110074005D02*
X137255571Y-110035910D01*
X137255571Y-110035910D02*
X137179381Y-109959719D01*
X137179381Y-109959719D02*
X137141285Y-109807338D01*
X137141285Y-109807338D02*
X137141285Y-109540671D01*
X137141285Y-109540671D02*
X137179381Y-109388290D01*
X137179381Y-109388290D02*
X137255571Y-109312100D01*
X137255571Y-109312100D02*
X137331762Y-109274005D01*
X138017476Y-109654957D02*
X138284142Y-109654957D01*
X138398428Y-110074005D02*
X138017476Y-110074005D01*
X138017476Y-110074005D02*
X138017476Y-109274005D01*
X138017476Y-109274005D02*
X138398428Y-109274005D01*
X138779381Y-110074005D02*
X138931762Y-110074005D01*
X138931762Y-110074005D02*
X139007952Y-110035910D01*
X139007952Y-110035910D02*
X139046048Y-109997814D01*
X139046048Y-109997814D02*
X139122238Y-109883529D01*
X139122238Y-109883529D02*
X139160333Y-109731148D01*
X139160333Y-109731148D02*
X139160333Y-109426386D01*
X139160333Y-109426386D02*
X139122238Y-109350195D01*
X139122238Y-109350195D02*
X139084143Y-109312100D01*
X139084143Y-109312100D02*
X139007952Y-109274005D01*
X139007952Y-109274005D02*
X138855571Y-109274005D01*
X138855571Y-109274005D02*
X138779381Y-109312100D01*
X138779381Y-109312100D02*
X138741286Y-109350195D01*
X138741286Y-109350195D02*
X138703190Y-109426386D01*
X138703190Y-109426386D02*
X138703190Y-109616862D01*
X138703190Y-109616862D02*
X138741286Y-109693052D01*
X138741286Y-109693052D02*
X138779381Y-109731148D01*
X138779381Y-109731148D02*
X138855571Y-109769243D01*
X138855571Y-109769243D02*
X139007952Y-109769243D01*
X139007952Y-109769243D02*
X139084143Y-109731148D01*
X139084143Y-109731148D02*
X139122238Y-109693052D01*
X139122238Y-109693052D02*
X139160333Y-109616862D01*
X139465095Y-110035910D02*
X139579381Y-110074005D01*
X139579381Y-110074005D02*
X139769857Y-110074005D01*
X139769857Y-110074005D02*
X139846048Y-110035910D01*
X139846048Y-110035910D02*
X139884143Y-109997814D01*
X139884143Y-109997814D02*
X139922238Y-109921624D01*
X139922238Y-109921624D02*
X139922238Y-109845433D01*
X139922238Y-109845433D02*
X139884143Y-109769243D01*
X139884143Y-109769243D02*
X139846048Y-109731148D01*
X139846048Y-109731148D02*
X139769857Y-109693052D01*
X139769857Y-109693052D02*
X139617476Y-109654957D01*
X139617476Y-109654957D02*
X139541286Y-109616862D01*
X139541286Y-109616862D02*
X139503191Y-109578767D01*
X139503191Y-109578767D02*
X139465095Y-109502576D01*
X139465095Y-109502576D02*
X139465095Y-109426386D01*
X139465095Y-109426386D02*
X139503191Y-109350195D01*
X139503191Y-109350195D02*
X139541286Y-109312100D01*
X139541286Y-109312100D02*
X139617476Y-109274005D01*
X139617476Y-109274005D02*
X139807953Y-109274005D01*
X139807953Y-109274005D02*
X139922238Y-109312100D01*
X140227000Y-109845433D02*
X140607953Y-109845433D01*
X140150810Y-110074005D02*
X140417477Y-109274005D01*
X140417477Y-109274005D02*
X140684143Y-110074005D01*
X140950810Y-109274005D02*
X140950810Y-109921624D01*
X140950810Y-109921624D02*
X140988905Y-109997814D01*
X140988905Y-109997814D02*
X141027000Y-110035910D01*
X141027000Y-110035910D02*
X141103191Y-110074005D01*
X141103191Y-110074005D02*
X141255572Y-110074005D01*
X141255572Y-110074005D02*
X141331762Y-110035910D01*
X141331762Y-110035910D02*
X141369857Y-109997814D01*
X141369857Y-109997814D02*
X141407953Y-109921624D01*
X141407953Y-109921624D02*
X141407953Y-109274005D01*
X142817476Y-110074005D02*
X142360333Y-110074005D01*
X142588905Y-110074005D02*
X142588905Y-109274005D01*
X142588905Y-109274005D02*
X142512714Y-109388290D01*
X142512714Y-109388290D02*
X142436524Y-109464481D01*
X142436524Y-109464481D02*
X142360333Y-109502576D01*
X143312715Y-109274005D02*
X143388905Y-109274005D01*
X143388905Y-109274005D02*
X143465096Y-109312100D01*
X143465096Y-109312100D02*
X143503191Y-109350195D01*
X143503191Y-109350195D02*
X143541286Y-109426386D01*
X143541286Y-109426386D02*
X143579381Y-109578767D01*
X143579381Y-109578767D02*
X143579381Y-109769243D01*
X143579381Y-109769243D02*
X143541286Y-109921624D01*
X143541286Y-109921624D02*
X143503191Y-109997814D01*
X143503191Y-109997814D02*
X143465096Y-110035910D01*
X143465096Y-110035910D02*
X143388905Y-110074005D01*
X143388905Y-110074005D02*
X143312715Y-110074005D01*
X143312715Y-110074005D02*
X143236524Y-110035910D01*
X143236524Y-110035910D02*
X143198429Y-109997814D01*
X143198429Y-109997814D02*
X143160334Y-109921624D01*
X143160334Y-109921624D02*
X143122238Y-109769243D01*
X143122238Y-109769243D02*
X143122238Y-109578767D01*
X143122238Y-109578767D02*
X143160334Y-109426386D01*
X143160334Y-109426386D02*
X143198429Y-109350195D01*
X143198429Y-109350195D02*
X143236524Y-109312100D01*
X143236524Y-109312100D02*
X143312715Y-109274005D01*
X144493667Y-109235910D02*
X143807953Y-110264481D01*
X144722238Y-109350195D02*
X144760334Y-109312100D01*
X144760334Y-109312100D02*
X144836524Y-109274005D01*
X144836524Y-109274005D02*
X145027000Y-109274005D01*
X145027000Y-109274005D02*
X145103191Y-109312100D01*
X145103191Y-109312100D02*
X145141286Y-109350195D01*
X145141286Y-109350195D02*
X145179381Y-109426386D01*
X145179381Y-109426386D02*
X145179381Y-109502576D01*
X145179381Y-109502576D02*
X145141286Y-109616862D01*
X145141286Y-109616862D02*
X144684143Y-110074005D01*
X144684143Y-110074005D02*
X145179381Y-110074005D01*
X145674620Y-109274005D02*
X145750810Y-109274005D01*
X145750810Y-109274005D02*
X145827001Y-109312100D01*
X145827001Y-109312100D02*
X145865096Y-109350195D01*
X145865096Y-109350195D02*
X145903191Y-109426386D01*
X145903191Y-109426386D02*
X145941286Y-109578767D01*
X145941286Y-109578767D02*
X145941286Y-109769243D01*
X145941286Y-109769243D02*
X145903191Y-109921624D01*
X145903191Y-109921624D02*
X145865096Y-109997814D01*
X145865096Y-109997814D02*
X145827001Y-110035910D01*
X145827001Y-110035910D02*
X145750810Y-110074005D01*
X145750810Y-110074005D02*
X145674620Y-110074005D01*
X145674620Y-110074005D02*
X145598429Y-110035910D01*
X145598429Y-110035910D02*
X145560334Y-109997814D01*
X145560334Y-109997814D02*
X145522239Y-109921624D01*
X145522239Y-109921624D02*
X145484143Y-109769243D01*
X145484143Y-109769243D02*
X145484143Y-109578767D01*
X145484143Y-109578767D02*
X145522239Y-109426386D01*
X145522239Y-109426386D02*
X145560334Y-109350195D01*
X145560334Y-109350195D02*
X145598429Y-109312100D01*
X145598429Y-109312100D02*
X145674620Y-109274005D01*
X146246048Y-109350195D02*
X146284144Y-109312100D01*
X146284144Y-109312100D02*
X146360334Y-109274005D01*
X146360334Y-109274005D02*
X146550810Y-109274005D01*
X146550810Y-109274005D02*
X146627001Y-109312100D01*
X146627001Y-109312100D02*
X146665096Y-109350195D01*
X146665096Y-109350195D02*
X146703191Y-109426386D01*
X146703191Y-109426386D02*
X146703191Y-109502576D01*
X146703191Y-109502576D02*
X146665096Y-109616862D01*
X146665096Y-109616862D02*
X146207953Y-110074005D01*
X146207953Y-110074005D02*
X146703191Y-110074005D01*
X147388906Y-109540671D02*
X147388906Y-110074005D01*
X147198430Y-109235910D02*
X147007953Y-109807338D01*
X147007953Y-109807338D02*
X147503192Y-109807338D01*
D13*
X130873500Y-106070400D02*
X148780500Y-106070400D01*
X148780500Y-110769400D01*
X130873500Y-110769400D01*
X130873500Y-106070400D01*
D11*
X137346571Y-83663809D02*
X137179905Y-83425714D01*
X137060857Y-83663809D02*
X137060857Y-83163809D01*
X137060857Y-83163809D02*
X137251333Y-83163809D01*
X137251333Y-83163809D02*
X137298952Y-83187619D01*
X137298952Y-83187619D02*
X137322762Y-83211428D01*
X137322762Y-83211428D02*
X137346571Y-83259047D01*
X137346571Y-83259047D02*
X137346571Y-83330476D01*
X137346571Y-83330476D02*
X137322762Y-83378095D01*
X137322762Y-83378095D02*
X137298952Y-83401904D01*
X137298952Y-83401904D02*
X137251333Y-83425714D01*
X137251333Y-83425714D02*
X137060857Y-83425714D01*
X137822762Y-83663809D02*
X137537048Y-83663809D01*
X137679905Y-83663809D02*
X137679905Y-83163809D01*
X137679905Y-83163809D02*
X137632286Y-83235238D01*
X137632286Y-83235238D02*
X137584667Y-83282857D01*
X137584667Y-83282857D02*
X137537048Y-83306666D01*
X138013238Y-83211428D02*
X138037047Y-83187619D01*
X138037047Y-83187619D02*
X138084666Y-83163809D01*
X138084666Y-83163809D02*
X138203714Y-83163809D01*
X138203714Y-83163809D02*
X138251333Y-83187619D01*
X138251333Y-83187619D02*
X138275142Y-83211428D01*
X138275142Y-83211428D02*
X138298952Y-83259047D01*
X138298952Y-83259047D02*
X138298952Y-83306666D01*
X138298952Y-83306666D02*
X138275142Y-83378095D01*
X138275142Y-83378095D02*
X137989428Y-83663809D01*
X137989428Y-83663809D02*
X138298952Y-83663809D01*
X128059666Y-87680190D02*
X128035857Y-87704000D01*
X128035857Y-87704000D02*
X127964428Y-87727809D01*
X127964428Y-87727809D02*
X127916809Y-87727809D01*
X127916809Y-87727809D02*
X127845381Y-87704000D01*
X127845381Y-87704000D02*
X127797762Y-87656380D01*
X127797762Y-87656380D02*
X127773952Y-87608761D01*
X127773952Y-87608761D02*
X127750143Y-87513523D01*
X127750143Y-87513523D02*
X127750143Y-87442095D01*
X127750143Y-87442095D02*
X127773952Y-87346857D01*
X127773952Y-87346857D02*
X127797762Y-87299238D01*
X127797762Y-87299238D02*
X127845381Y-87251619D01*
X127845381Y-87251619D02*
X127916809Y-87227809D01*
X127916809Y-87227809D02*
X127964428Y-87227809D01*
X127964428Y-87227809D02*
X128035857Y-87251619D01*
X128035857Y-87251619D02*
X128059666Y-87275428D01*
X128226333Y-87227809D02*
X128535857Y-87227809D01*
X128535857Y-87227809D02*
X128369190Y-87418285D01*
X128369190Y-87418285D02*
X128440619Y-87418285D01*
X128440619Y-87418285D02*
X128488238Y-87442095D01*
X128488238Y-87442095D02*
X128512047Y-87465904D01*
X128512047Y-87465904D02*
X128535857Y-87513523D01*
X128535857Y-87513523D02*
X128535857Y-87632571D01*
X128535857Y-87632571D02*
X128512047Y-87680190D01*
X128512047Y-87680190D02*
X128488238Y-87704000D01*
X128488238Y-87704000D02*
X128440619Y-87727809D01*
X128440619Y-87727809D02*
X128297762Y-87727809D01*
X128297762Y-87727809D02*
X128250143Y-87704000D01*
X128250143Y-87704000D02*
X128226333Y-87680190D01*
X124122666Y-99281809D02*
X123956000Y-99043714D01*
X123836952Y-99281809D02*
X123836952Y-98781809D01*
X123836952Y-98781809D02*
X124027428Y-98781809D01*
X124027428Y-98781809D02*
X124075047Y-98805619D01*
X124075047Y-98805619D02*
X124098857Y-98829428D01*
X124098857Y-98829428D02*
X124122666Y-98877047D01*
X124122666Y-98877047D02*
X124122666Y-98948476D01*
X124122666Y-98948476D02*
X124098857Y-98996095D01*
X124098857Y-98996095D02*
X124075047Y-99019904D01*
X124075047Y-99019904D02*
X124027428Y-99043714D01*
X124027428Y-99043714D02*
X123836952Y-99043714D01*
X124289333Y-98781809D02*
X124598857Y-98781809D01*
X124598857Y-98781809D02*
X124432190Y-98972285D01*
X124432190Y-98972285D02*
X124503619Y-98972285D01*
X124503619Y-98972285D02*
X124551238Y-98996095D01*
X124551238Y-98996095D02*
X124575047Y-99019904D01*
X124575047Y-99019904D02*
X124598857Y-99067523D01*
X124598857Y-99067523D02*
X124598857Y-99186571D01*
X124598857Y-99186571D02*
X124575047Y-99234190D01*
X124575047Y-99234190D02*
X124551238Y-99258000D01*
X124551238Y-99258000D02*
X124503619Y-99281809D01*
X124503619Y-99281809D02*
X124360762Y-99281809D01*
X124360762Y-99281809D02*
X124313143Y-99258000D01*
X124313143Y-99258000D02*
X124289333Y-99234190D01*
X162508571Y-86686409D02*
X162341905Y-86448314D01*
X162222857Y-86686409D02*
X162222857Y-86186409D01*
X162222857Y-86186409D02*
X162413333Y-86186409D01*
X162413333Y-86186409D02*
X162460952Y-86210219D01*
X162460952Y-86210219D02*
X162484762Y-86234028D01*
X162484762Y-86234028D02*
X162508571Y-86281647D01*
X162508571Y-86281647D02*
X162508571Y-86353076D01*
X162508571Y-86353076D02*
X162484762Y-86400695D01*
X162484762Y-86400695D02*
X162460952Y-86424504D01*
X162460952Y-86424504D02*
X162413333Y-86448314D01*
X162413333Y-86448314D02*
X162222857Y-86448314D01*
X162984762Y-86686409D02*
X162699048Y-86686409D01*
X162841905Y-86686409D02*
X162841905Y-86186409D01*
X162841905Y-86186409D02*
X162794286Y-86257838D01*
X162794286Y-86257838D02*
X162746667Y-86305457D01*
X162746667Y-86305457D02*
X162699048Y-86329266D01*
X163294285Y-86186409D02*
X163341904Y-86186409D01*
X163341904Y-86186409D02*
X163389523Y-86210219D01*
X163389523Y-86210219D02*
X163413333Y-86234028D01*
X163413333Y-86234028D02*
X163437142Y-86281647D01*
X163437142Y-86281647D02*
X163460952Y-86376885D01*
X163460952Y-86376885D02*
X163460952Y-86495933D01*
X163460952Y-86495933D02*
X163437142Y-86591171D01*
X163437142Y-86591171D02*
X163413333Y-86638790D01*
X163413333Y-86638790D02*
X163389523Y-86662600D01*
X163389523Y-86662600D02*
X163341904Y-86686409D01*
X163341904Y-86686409D02*
X163294285Y-86686409D01*
X163294285Y-86686409D02*
X163246666Y-86662600D01*
X163246666Y-86662600D02*
X163222857Y-86638790D01*
X163222857Y-86638790D02*
X163199047Y-86591171D01*
X163199047Y-86591171D02*
X163175238Y-86495933D01*
X163175238Y-86495933D02*
X163175238Y-86376885D01*
X163175238Y-86376885D02*
X163199047Y-86281647D01*
X163199047Y-86281647D02*
X163222857Y-86234028D01*
X163222857Y-86234028D02*
X163246666Y-86210219D01*
X163246666Y-86210219D02*
X163294285Y-86186409D01*
X155542466Y-89686790D02*
X155518657Y-89710600D01*
X155518657Y-89710600D02*
X155447228Y-89734409D01*
X155447228Y-89734409D02*
X155399609Y-89734409D01*
X155399609Y-89734409D02*
X155328181Y-89710600D01*
X155328181Y-89710600D02*
X155280562Y-89662980D01*
X155280562Y-89662980D02*
X155256752Y-89615361D01*
X155256752Y-89615361D02*
X155232943Y-89520123D01*
X155232943Y-89520123D02*
X155232943Y-89448695D01*
X155232943Y-89448695D02*
X155256752Y-89353457D01*
X155256752Y-89353457D02*
X155280562Y-89305838D01*
X155280562Y-89305838D02*
X155328181Y-89258219D01*
X155328181Y-89258219D02*
X155399609Y-89234409D01*
X155399609Y-89234409D02*
X155447228Y-89234409D01*
X155447228Y-89234409D02*
X155518657Y-89258219D01*
X155518657Y-89258219D02*
X155542466Y-89282028D01*
X155994847Y-89234409D02*
X155756752Y-89234409D01*
X155756752Y-89234409D02*
X155732943Y-89472504D01*
X155732943Y-89472504D02*
X155756752Y-89448695D01*
X155756752Y-89448695D02*
X155804371Y-89424885D01*
X155804371Y-89424885D02*
X155923419Y-89424885D01*
X155923419Y-89424885D02*
X155971038Y-89448695D01*
X155971038Y-89448695D02*
X155994847Y-89472504D01*
X155994847Y-89472504D02*
X156018657Y-89520123D01*
X156018657Y-89520123D02*
X156018657Y-89639171D01*
X156018657Y-89639171D02*
X155994847Y-89686790D01*
X155994847Y-89686790D02*
X155971038Y-89710600D01*
X155971038Y-89710600D02*
X155923419Y-89734409D01*
X155923419Y-89734409D02*
X155804371Y-89734409D01*
X155804371Y-89734409D02*
X155756752Y-89710600D01*
X155756752Y-89710600D02*
X155732943Y-89686790D01*
X133917571Y-83663809D02*
X133750905Y-83425714D01*
X133631857Y-83663809D02*
X133631857Y-83163809D01*
X133631857Y-83163809D02*
X133822333Y-83163809D01*
X133822333Y-83163809D02*
X133869952Y-83187619D01*
X133869952Y-83187619D02*
X133893762Y-83211428D01*
X133893762Y-83211428D02*
X133917571Y-83259047D01*
X133917571Y-83259047D02*
X133917571Y-83330476D01*
X133917571Y-83330476D02*
X133893762Y-83378095D01*
X133893762Y-83378095D02*
X133869952Y-83401904D01*
X133869952Y-83401904D02*
X133822333Y-83425714D01*
X133822333Y-83425714D02*
X133631857Y-83425714D01*
X134393762Y-83663809D02*
X134108048Y-83663809D01*
X134250905Y-83663809D02*
X134250905Y-83163809D01*
X134250905Y-83163809D02*
X134203286Y-83235238D01*
X134203286Y-83235238D02*
X134155667Y-83282857D01*
X134155667Y-83282857D02*
X134108048Y-83306666D01*
X134679476Y-83378095D02*
X134631857Y-83354285D01*
X134631857Y-83354285D02*
X134608047Y-83330476D01*
X134608047Y-83330476D02*
X134584238Y-83282857D01*
X134584238Y-83282857D02*
X134584238Y-83259047D01*
X134584238Y-83259047D02*
X134608047Y-83211428D01*
X134608047Y-83211428D02*
X134631857Y-83187619D01*
X134631857Y-83187619D02*
X134679476Y-83163809D01*
X134679476Y-83163809D02*
X134774714Y-83163809D01*
X134774714Y-83163809D02*
X134822333Y-83187619D01*
X134822333Y-83187619D02*
X134846142Y-83211428D01*
X134846142Y-83211428D02*
X134869952Y-83259047D01*
X134869952Y-83259047D02*
X134869952Y-83282857D01*
X134869952Y-83282857D02*
X134846142Y-83330476D01*
X134846142Y-83330476D02*
X134822333Y-83354285D01*
X134822333Y-83354285D02*
X134774714Y-83378095D01*
X134774714Y-83378095D02*
X134679476Y-83378095D01*
X134679476Y-83378095D02*
X134631857Y-83401904D01*
X134631857Y-83401904D02*
X134608047Y-83425714D01*
X134608047Y-83425714D02*
X134584238Y-83473333D01*
X134584238Y-83473333D02*
X134584238Y-83568571D01*
X134584238Y-83568571D02*
X134608047Y-83616190D01*
X134608047Y-83616190D02*
X134631857Y-83640000D01*
X134631857Y-83640000D02*
X134679476Y-83663809D01*
X134679476Y-83663809D02*
X134774714Y-83663809D01*
X134774714Y-83663809D02*
X134822333Y-83640000D01*
X134822333Y-83640000D02*
X134846142Y-83616190D01*
X134846142Y-83616190D02*
X134869952Y-83568571D01*
X134869952Y-83568571D02*
X134869952Y-83473333D01*
X134869952Y-83473333D02*
X134846142Y-83425714D01*
X134846142Y-83425714D02*
X134822333Y-83401904D01*
X134822333Y-83401904D02*
X134774714Y-83378095D01*
X162799733Y-106074609D02*
X162799733Y-106431752D01*
X162799733Y-106431752D02*
X162775924Y-106503180D01*
X162775924Y-106503180D02*
X162728305Y-106550800D01*
X162728305Y-106550800D02*
X162656876Y-106574609D01*
X162656876Y-106574609D02*
X162609257Y-106574609D01*
X163014019Y-106122228D02*
X163037828Y-106098419D01*
X163037828Y-106098419D02*
X163085447Y-106074609D01*
X163085447Y-106074609D02*
X163204495Y-106074609D01*
X163204495Y-106074609D02*
X163252114Y-106098419D01*
X163252114Y-106098419D02*
X163275923Y-106122228D01*
X163275923Y-106122228D02*
X163299733Y-106169847D01*
X163299733Y-106169847D02*
X163299733Y-106217466D01*
X163299733Y-106217466D02*
X163275923Y-106288895D01*
X163275923Y-106288895D02*
X162990209Y-106574609D01*
X162990209Y-106574609D02*
X163299733Y-106574609D01*
X121074666Y-94474809D02*
X120908000Y-94236714D01*
X120788952Y-94474809D02*
X120788952Y-93974809D01*
X120788952Y-93974809D02*
X120979428Y-93974809D01*
X120979428Y-93974809D02*
X121027047Y-93998619D01*
X121027047Y-93998619D02*
X121050857Y-94022428D01*
X121050857Y-94022428D02*
X121074666Y-94070047D01*
X121074666Y-94070047D02*
X121074666Y-94141476D01*
X121074666Y-94141476D02*
X121050857Y-94189095D01*
X121050857Y-94189095D02*
X121027047Y-94212904D01*
X121027047Y-94212904D02*
X120979428Y-94236714D01*
X120979428Y-94236714D02*
X120788952Y-94236714D01*
X121503238Y-94141476D02*
X121503238Y-94474809D01*
X121384190Y-93951000D02*
X121265143Y-94308142D01*
X121265143Y-94308142D02*
X121574666Y-94308142D01*
X129202666Y-94074809D02*
X129036000Y-93836714D01*
X128916952Y-94074809D02*
X128916952Y-93574809D01*
X128916952Y-93574809D02*
X129107428Y-93574809D01*
X129107428Y-93574809D02*
X129155047Y-93598619D01*
X129155047Y-93598619D02*
X129178857Y-93622428D01*
X129178857Y-93622428D02*
X129202666Y-93670047D01*
X129202666Y-93670047D02*
X129202666Y-93741476D01*
X129202666Y-93741476D02*
X129178857Y-93789095D01*
X129178857Y-93789095D02*
X129155047Y-93812904D01*
X129155047Y-93812904D02*
X129107428Y-93836714D01*
X129107428Y-93836714D02*
X128916952Y-93836714D01*
X129655047Y-93574809D02*
X129416952Y-93574809D01*
X129416952Y-93574809D02*
X129393143Y-93812904D01*
X129393143Y-93812904D02*
X129416952Y-93789095D01*
X129416952Y-93789095D02*
X129464571Y-93765285D01*
X129464571Y-93765285D02*
X129583619Y-93765285D01*
X129583619Y-93765285D02*
X129631238Y-93789095D01*
X129631238Y-93789095D02*
X129655047Y-93812904D01*
X129655047Y-93812904D02*
X129678857Y-93860523D01*
X129678857Y-93860523D02*
X129678857Y-93979571D01*
X129678857Y-93979571D02*
X129655047Y-94027190D01*
X129655047Y-94027190D02*
X129631238Y-94051000D01*
X129631238Y-94051000D02*
X129583619Y-94074809D01*
X129583619Y-94074809D02*
X129464571Y-94074809D01*
X129464571Y-94074809D02*
X129416952Y-94051000D01*
X129416952Y-94051000D02*
X129393143Y-94027190D01*
X125428380Y-94249428D02*
X125380761Y-94225619D01*
X125380761Y-94225619D02*
X125333142Y-94178000D01*
X125333142Y-94178000D02*
X125261714Y-94106571D01*
X125261714Y-94106571D02*
X125214095Y-94082761D01*
X125214095Y-94082761D02*
X125166476Y-94082761D01*
X125190285Y-94201809D02*
X125142666Y-94178000D01*
X125142666Y-94178000D02*
X125095047Y-94130380D01*
X125095047Y-94130380D02*
X125071238Y-94035142D01*
X125071238Y-94035142D02*
X125071238Y-93868476D01*
X125071238Y-93868476D02*
X125095047Y-93773238D01*
X125095047Y-93773238D02*
X125142666Y-93725619D01*
X125142666Y-93725619D02*
X125190285Y-93701809D01*
X125190285Y-93701809D02*
X125285523Y-93701809D01*
X125285523Y-93701809D02*
X125333142Y-93725619D01*
X125333142Y-93725619D02*
X125380761Y-93773238D01*
X125380761Y-93773238D02*
X125404571Y-93868476D01*
X125404571Y-93868476D02*
X125404571Y-94035142D01*
X125404571Y-94035142D02*
X125380761Y-94130380D01*
X125380761Y-94130380D02*
X125333142Y-94178000D01*
X125333142Y-94178000D02*
X125285523Y-94201809D01*
X125285523Y-94201809D02*
X125190285Y-94201809D01*
X125595048Y-93749428D02*
X125618857Y-93725619D01*
X125618857Y-93725619D02*
X125666476Y-93701809D01*
X125666476Y-93701809D02*
X125785524Y-93701809D01*
X125785524Y-93701809D02*
X125833143Y-93725619D01*
X125833143Y-93725619D02*
X125856952Y-93749428D01*
X125856952Y-93749428D02*
X125880762Y-93797047D01*
X125880762Y-93797047D02*
X125880762Y-93844666D01*
X125880762Y-93844666D02*
X125856952Y-93916095D01*
X125856952Y-93916095D02*
X125571238Y-94201809D01*
X125571238Y-94201809D02*
X125880762Y-94201809D01*
X120836571Y-99281809D02*
X120669905Y-99043714D01*
X120550857Y-99281809D02*
X120550857Y-98781809D01*
X120550857Y-98781809D02*
X120741333Y-98781809D01*
X120741333Y-98781809D02*
X120788952Y-98805619D01*
X120788952Y-98805619D02*
X120812762Y-98829428D01*
X120812762Y-98829428D02*
X120836571Y-98877047D01*
X120836571Y-98877047D02*
X120836571Y-98948476D01*
X120836571Y-98948476D02*
X120812762Y-98996095D01*
X120812762Y-98996095D02*
X120788952Y-99019904D01*
X120788952Y-99019904D02*
X120741333Y-99043714D01*
X120741333Y-99043714D02*
X120550857Y-99043714D01*
X121312762Y-99281809D02*
X121027048Y-99281809D01*
X121169905Y-99281809D02*
X121169905Y-98781809D01*
X121169905Y-98781809D02*
X121122286Y-98853238D01*
X121122286Y-98853238D02*
X121074667Y-98900857D01*
X121074667Y-98900857D02*
X121027048Y-98924666D01*
X121550857Y-99281809D02*
X121646095Y-99281809D01*
X121646095Y-99281809D02*
X121693714Y-99258000D01*
X121693714Y-99258000D02*
X121717523Y-99234190D01*
X121717523Y-99234190D02*
X121765142Y-99162761D01*
X121765142Y-99162761D02*
X121788952Y-99067523D01*
X121788952Y-99067523D02*
X121788952Y-98877047D01*
X121788952Y-98877047D02*
X121765142Y-98829428D01*
X121765142Y-98829428D02*
X121741333Y-98805619D01*
X121741333Y-98805619D02*
X121693714Y-98781809D01*
X121693714Y-98781809D02*
X121598476Y-98781809D01*
X121598476Y-98781809D02*
X121550857Y-98805619D01*
X121550857Y-98805619D02*
X121527047Y-98829428D01*
X121527047Y-98829428D02*
X121503238Y-98877047D01*
X121503238Y-98877047D02*
X121503238Y-98996095D01*
X121503238Y-98996095D02*
X121527047Y-99043714D01*
X121527047Y-99043714D02*
X121550857Y-99067523D01*
X121550857Y-99067523D02*
X121598476Y-99091333D01*
X121598476Y-99091333D02*
X121693714Y-99091333D01*
X121693714Y-99091333D02*
X121741333Y-99067523D01*
X121741333Y-99067523D02*
X121765142Y-99043714D01*
X121765142Y-99043714D02*
X121788952Y-98996095D01*
X161885333Y-78596809D02*
X161885333Y-78953952D01*
X161885333Y-78953952D02*
X161861524Y-79025380D01*
X161861524Y-79025380D02*
X161813905Y-79073000D01*
X161813905Y-79073000D02*
X161742476Y-79096809D01*
X161742476Y-79096809D02*
X161694857Y-79096809D01*
X162194857Y-78811095D02*
X162147238Y-78787285D01*
X162147238Y-78787285D02*
X162123428Y-78763476D01*
X162123428Y-78763476D02*
X162099619Y-78715857D01*
X162099619Y-78715857D02*
X162099619Y-78692047D01*
X162099619Y-78692047D02*
X162123428Y-78644428D01*
X162123428Y-78644428D02*
X162147238Y-78620619D01*
X162147238Y-78620619D02*
X162194857Y-78596809D01*
X162194857Y-78596809D02*
X162290095Y-78596809D01*
X162290095Y-78596809D02*
X162337714Y-78620619D01*
X162337714Y-78620619D02*
X162361523Y-78644428D01*
X162361523Y-78644428D02*
X162385333Y-78692047D01*
X162385333Y-78692047D02*
X162385333Y-78715857D01*
X162385333Y-78715857D02*
X162361523Y-78763476D01*
X162361523Y-78763476D02*
X162337714Y-78787285D01*
X162337714Y-78787285D02*
X162290095Y-78811095D01*
X162290095Y-78811095D02*
X162194857Y-78811095D01*
X162194857Y-78811095D02*
X162147238Y-78834904D01*
X162147238Y-78834904D02*
X162123428Y-78858714D01*
X162123428Y-78858714D02*
X162099619Y-78906333D01*
X162099619Y-78906333D02*
X162099619Y-79001571D01*
X162099619Y-79001571D02*
X162123428Y-79049190D01*
X162123428Y-79049190D02*
X162147238Y-79073000D01*
X162147238Y-79073000D02*
X162194857Y-79096809D01*
X162194857Y-79096809D02*
X162290095Y-79096809D01*
X162290095Y-79096809D02*
X162337714Y-79073000D01*
X162337714Y-79073000D02*
X162361523Y-79049190D01*
X162361523Y-79049190D02*
X162385333Y-79001571D01*
X162385333Y-79001571D02*
X162385333Y-78906333D01*
X162385333Y-78906333D02*
X162361523Y-78858714D01*
X162361523Y-78858714D02*
X162337714Y-78834904D01*
X162337714Y-78834904D02*
X162290095Y-78811095D01*
X142200333Y-75416809D02*
X142200333Y-75773952D01*
X142200333Y-75773952D02*
X142176524Y-75845380D01*
X142176524Y-75845380D02*
X142128905Y-75893000D01*
X142128905Y-75893000D02*
X142057476Y-75916809D01*
X142057476Y-75916809D02*
X142009857Y-75916809D01*
X142652714Y-75583476D02*
X142652714Y-75916809D01*
X142533666Y-75393000D02*
X142414619Y-75750142D01*
X142414619Y-75750142D02*
X142724142Y-75750142D01*
X156424333Y-78591809D02*
X156424333Y-78948952D01*
X156424333Y-78948952D02*
X156400524Y-79020380D01*
X156400524Y-79020380D02*
X156352905Y-79068000D01*
X156352905Y-79068000D02*
X156281476Y-79091809D01*
X156281476Y-79091809D02*
X156233857Y-79091809D01*
X156614809Y-78591809D02*
X156948142Y-78591809D01*
X156948142Y-78591809D02*
X156733857Y-79091809D01*
X105054447Y-83036809D02*
X105054447Y-83441571D01*
X105054447Y-83441571D02*
X105078257Y-83489190D01*
X105078257Y-83489190D02*
X105102066Y-83513000D01*
X105102066Y-83513000D02*
X105149685Y-83536809D01*
X105149685Y-83536809D02*
X105244923Y-83536809D01*
X105244923Y-83536809D02*
X105292542Y-83513000D01*
X105292542Y-83513000D02*
X105316352Y-83489190D01*
X105316352Y-83489190D02*
X105340161Y-83441571D01*
X105340161Y-83441571D02*
X105340161Y-83036809D01*
X105840162Y-83536809D02*
X105554448Y-83536809D01*
X105697305Y-83536809D02*
X105697305Y-83036809D01*
X105697305Y-83036809D02*
X105649686Y-83108238D01*
X105649686Y-83108238D02*
X105602067Y-83155857D01*
X105602067Y-83155857D02*
X105554448Y-83179666D01*
X115141380Y-94125428D02*
X115093761Y-94101619D01*
X115093761Y-94101619D02*
X115046142Y-94054000D01*
X115046142Y-94054000D02*
X114974714Y-93982571D01*
X114974714Y-93982571D02*
X114927095Y-93958761D01*
X114927095Y-93958761D02*
X114879476Y-93958761D01*
X114903285Y-94077809D02*
X114855666Y-94054000D01*
X114855666Y-94054000D02*
X114808047Y-94006380D01*
X114808047Y-94006380D02*
X114784238Y-93911142D01*
X114784238Y-93911142D02*
X114784238Y-93744476D01*
X114784238Y-93744476D02*
X114808047Y-93649238D01*
X114808047Y-93649238D02*
X114855666Y-93601619D01*
X114855666Y-93601619D02*
X114903285Y-93577809D01*
X114903285Y-93577809D02*
X114998523Y-93577809D01*
X114998523Y-93577809D02*
X115046142Y-93601619D01*
X115046142Y-93601619D02*
X115093761Y-93649238D01*
X115093761Y-93649238D02*
X115117571Y-93744476D01*
X115117571Y-93744476D02*
X115117571Y-93911142D01*
X115117571Y-93911142D02*
X115093761Y-94006380D01*
X115093761Y-94006380D02*
X115046142Y-94054000D01*
X115046142Y-94054000D02*
X114998523Y-94077809D01*
X114998523Y-94077809D02*
X114903285Y-94077809D01*
X115593762Y-94077809D02*
X115308048Y-94077809D01*
X115450905Y-94077809D02*
X115450905Y-93577809D01*
X115450905Y-93577809D02*
X115403286Y-93649238D01*
X115403286Y-93649238D02*
X115355667Y-93696857D01*
X115355667Y-93696857D02*
X115308048Y-93720666D01*
X119213333Y-79480809D02*
X119213333Y-79837952D01*
X119213333Y-79837952D02*
X119189524Y-79909380D01*
X119189524Y-79909380D02*
X119141905Y-79957000D01*
X119141905Y-79957000D02*
X119070476Y-79980809D01*
X119070476Y-79980809D02*
X119022857Y-79980809D01*
X119713333Y-79980809D02*
X119427619Y-79980809D01*
X119570476Y-79980809D02*
X119570476Y-79480809D01*
X119570476Y-79480809D02*
X119522857Y-79552238D01*
X119522857Y-79552238D02*
X119475238Y-79599857D01*
X119475238Y-79599857D02*
X119427619Y-79623666D01*
X145669047Y-81849809D02*
X145669047Y-82254571D01*
X145669047Y-82254571D02*
X145692857Y-82302190D01*
X145692857Y-82302190D02*
X145716666Y-82326000D01*
X145716666Y-82326000D02*
X145764285Y-82349809D01*
X145764285Y-82349809D02*
X145859523Y-82349809D01*
X145859523Y-82349809D02*
X145907142Y-82326000D01*
X145907142Y-82326000D02*
X145930952Y-82302190D01*
X145930952Y-82302190D02*
X145954761Y-82254571D01*
X145954761Y-82254571D02*
X145954761Y-81849809D01*
X146145238Y-81849809D02*
X146454762Y-81849809D01*
X146454762Y-81849809D02*
X146288095Y-82040285D01*
X146288095Y-82040285D02*
X146359524Y-82040285D01*
X146359524Y-82040285D02*
X146407143Y-82064095D01*
X146407143Y-82064095D02*
X146430952Y-82087904D01*
X146430952Y-82087904D02*
X146454762Y-82135523D01*
X146454762Y-82135523D02*
X146454762Y-82254571D01*
X146454762Y-82254571D02*
X146430952Y-82302190D01*
X146430952Y-82302190D02*
X146407143Y-82326000D01*
X146407143Y-82326000D02*
X146359524Y-82349809D01*
X146359524Y-82349809D02*
X146216667Y-82349809D01*
X146216667Y-82349809D02*
X146169048Y-82326000D01*
X146169048Y-82326000D02*
X146145238Y-82302190D01*
X121328666Y-89331190D02*
X121304857Y-89355000D01*
X121304857Y-89355000D02*
X121233428Y-89378809D01*
X121233428Y-89378809D02*
X121185809Y-89378809D01*
X121185809Y-89378809D02*
X121114381Y-89355000D01*
X121114381Y-89355000D02*
X121066762Y-89307380D01*
X121066762Y-89307380D02*
X121042952Y-89259761D01*
X121042952Y-89259761D02*
X121019143Y-89164523D01*
X121019143Y-89164523D02*
X121019143Y-89093095D01*
X121019143Y-89093095D02*
X121042952Y-88997857D01*
X121042952Y-88997857D02*
X121066762Y-88950238D01*
X121066762Y-88950238D02*
X121114381Y-88902619D01*
X121114381Y-88902619D02*
X121185809Y-88878809D01*
X121185809Y-88878809D02*
X121233428Y-88878809D01*
X121233428Y-88878809D02*
X121304857Y-88902619D01*
X121304857Y-88902619D02*
X121328666Y-88926428D01*
X121804857Y-89378809D02*
X121519143Y-89378809D01*
X121662000Y-89378809D02*
X121662000Y-88878809D01*
X121662000Y-88878809D02*
X121614381Y-88950238D01*
X121614381Y-88950238D02*
X121566762Y-88997857D01*
X121566762Y-88997857D02*
X121519143Y-89021666D01*
X127854047Y-80750809D02*
X127854047Y-81155571D01*
X127854047Y-81155571D02*
X127877857Y-81203190D01*
X127877857Y-81203190D02*
X127901666Y-81227000D01*
X127901666Y-81227000D02*
X127949285Y-81250809D01*
X127949285Y-81250809D02*
X128044523Y-81250809D01*
X128044523Y-81250809D02*
X128092142Y-81227000D01*
X128092142Y-81227000D02*
X128115952Y-81203190D01*
X128115952Y-81203190D02*
X128139761Y-81155571D01*
X128139761Y-81155571D02*
X128139761Y-80750809D01*
X128354048Y-80798428D02*
X128377857Y-80774619D01*
X128377857Y-80774619D02*
X128425476Y-80750809D01*
X128425476Y-80750809D02*
X128544524Y-80750809D01*
X128544524Y-80750809D02*
X128592143Y-80774619D01*
X128592143Y-80774619D02*
X128615952Y-80798428D01*
X128615952Y-80798428D02*
X128639762Y-80846047D01*
X128639762Y-80846047D02*
X128639762Y-80893666D01*
X128639762Y-80893666D02*
X128615952Y-80965095D01*
X128615952Y-80965095D02*
X128330238Y-81250809D01*
X128330238Y-81250809D02*
X128639762Y-81250809D01*
X155567866Y-86664190D02*
X155544057Y-86688000D01*
X155544057Y-86688000D02*
X155472628Y-86711809D01*
X155472628Y-86711809D02*
X155425009Y-86711809D01*
X155425009Y-86711809D02*
X155353581Y-86688000D01*
X155353581Y-86688000D02*
X155305962Y-86640380D01*
X155305962Y-86640380D02*
X155282152Y-86592761D01*
X155282152Y-86592761D02*
X155258343Y-86497523D01*
X155258343Y-86497523D02*
X155258343Y-86426095D01*
X155258343Y-86426095D02*
X155282152Y-86330857D01*
X155282152Y-86330857D02*
X155305962Y-86283238D01*
X155305962Y-86283238D02*
X155353581Y-86235619D01*
X155353581Y-86235619D02*
X155425009Y-86211809D01*
X155425009Y-86211809D02*
X155472628Y-86211809D01*
X155472628Y-86211809D02*
X155544057Y-86235619D01*
X155544057Y-86235619D02*
X155567866Y-86259428D01*
X155996438Y-86378476D02*
X155996438Y-86711809D01*
X155877390Y-86188000D02*
X155758343Y-86545142D01*
X155758343Y-86545142D02*
X156067866Y-86545142D01*
X162730666Y-89810609D02*
X162564000Y-89572514D01*
X162444952Y-89810609D02*
X162444952Y-89310609D01*
X162444952Y-89310609D02*
X162635428Y-89310609D01*
X162635428Y-89310609D02*
X162683047Y-89334419D01*
X162683047Y-89334419D02*
X162706857Y-89358228D01*
X162706857Y-89358228D02*
X162730666Y-89405847D01*
X162730666Y-89405847D02*
X162730666Y-89477276D01*
X162730666Y-89477276D02*
X162706857Y-89524895D01*
X162706857Y-89524895D02*
X162683047Y-89548704D01*
X162683047Y-89548704D02*
X162635428Y-89572514D01*
X162635428Y-89572514D02*
X162444952Y-89572514D01*
X163016381Y-89524895D02*
X162968762Y-89501085D01*
X162968762Y-89501085D02*
X162944952Y-89477276D01*
X162944952Y-89477276D02*
X162921143Y-89429657D01*
X162921143Y-89429657D02*
X162921143Y-89405847D01*
X162921143Y-89405847D02*
X162944952Y-89358228D01*
X162944952Y-89358228D02*
X162968762Y-89334419D01*
X162968762Y-89334419D02*
X163016381Y-89310609D01*
X163016381Y-89310609D02*
X163111619Y-89310609D01*
X163111619Y-89310609D02*
X163159238Y-89334419D01*
X163159238Y-89334419D02*
X163183047Y-89358228D01*
X163183047Y-89358228D02*
X163206857Y-89405847D01*
X163206857Y-89405847D02*
X163206857Y-89429657D01*
X163206857Y-89429657D02*
X163183047Y-89477276D01*
X163183047Y-89477276D02*
X163159238Y-89501085D01*
X163159238Y-89501085D02*
X163111619Y-89524895D01*
X163111619Y-89524895D02*
X163016381Y-89524895D01*
X163016381Y-89524895D02*
X162968762Y-89548704D01*
X162968762Y-89548704D02*
X162944952Y-89572514D01*
X162944952Y-89572514D02*
X162921143Y-89620133D01*
X162921143Y-89620133D02*
X162921143Y-89715371D01*
X162921143Y-89715371D02*
X162944952Y-89762990D01*
X162944952Y-89762990D02*
X162968762Y-89786800D01*
X162968762Y-89786800D02*
X163016381Y-89810609D01*
X163016381Y-89810609D02*
X163111619Y-89810609D01*
X163111619Y-89810609D02*
X163159238Y-89786800D01*
X163159238Y-89786800D02*
X163183047Y-89762990D01*
X163183047Y-89762990D02*
X163206857Y-89715371D01*
X163206857Y-89715371D02*
X163206857Y-89620133D01*
X163206857Y-89620133D02*
X163183047Y-89572514D01*
X163183047Y-89572514D02*
X163159238Y-89548704D01*
X163159238Y-89548704D02*
X163111619Y-89524895D01*
X162730666Y-92782409D02*
X162564000Y-92544314D01*
X162444952Y-92782409D02*
X162444952Y-92282409D01*
X162444952Y-92282409D02*
X162635428Y-92282409D01*
X162635428Y-92282409D02*
X162683047Y-92306219D01*
X162683047Y-92306219D02*
X162706857Y-92330028D01*
X162706857Y-92330028D02*
X162730666Y-92377647D01*
X162730666Y-92377647D02*
X162730666Y-92449076D01*
X162730666Y-92449076D02*
X162706857Y-92496695D01*
X162706857Y-92496695D02*
X162683047Y-92520504D01*
X162683047Y-92520504D02*
X162635428Y-92544314D01*
X162635428Y-92544314D02*
X162444952Y-92544314D01*
X162968762Y-92782409D02*
X163064000Y-92782409D01*
X163064000Y-92782409D02*
X163111619Y-92758600D01*
X163111619Y-92758600D02*
X163135428Y-92734790D01*
X163135428Y-92734790D02*
X163183047Y-92663361D01*
X163183047Y-92663361D02*
X163206857Y-92568123D01*
X163206857Y-92568123D02*
X163206857Y-92377647D01*
X163206857Y-92377647D02*
X163183047Y-92330028D01*
X163183047Y-92330028D02*
X163159238Y-92306219D01*
X163159238Y-92306219D02*
X163111619Y-92282409D01*
X163111619Y-92282409D02*
X163016381Y-92282409D01*
X163016381Y-92282409D02*
X162968762Y-92306219D01*
X162968762Y-92306219D02*
X162944952Y-92330028D01*
X162944952Y-92330028D02*
X162921143Y-92377647D01*
X162921143Y-92377647D02*
X162921143Y-92496695D01*
X162921143Y-92496695D02*
X162944952Y-92544314D01*
X162944952Y-92544314D02*
X162968762Y-92568123D01*
X162968762Y-92568123D02*
X163016381Y-92591933D01*
X163016381Y-92591933D02*
X163111619Y-92591933D01*
X163111619Y-92591933D02*
X163159238Y-92568123D01*
X163159238Y-92568123D02*
X163183047Y-92544314D01*
X163183047Y-92544314D02*
X163206857Y-92496695D01*
X155872666Y-101062809D02*
X155706000Y-100824714D01*
X155586952Y-101062809D02*
X155586952Y-100562809D01*
X155586952Y-100562809D02*
X155777428Y-100562809D01*
X155777428Y-100562809D02*
X155825047Y-100586619D01*
X155825047Y-100586619D02*
X155848857Y-100610428D01*
X155848857Y-100610428D02*
X155872666Y-100658047D01*
X155872666Y-100658047D02*
X155872666Y-100729476D01*
X155872666Y-100729476D02*
X155848857Y-100777095D01*
X155848857Y-100777095D02*
X155825047Y-100800904D01*
X155825047Y-100800904D02*
X155777428Y-100824714D01*
X155777428Y-100824714D02*
X155586952Y-100824714D01*
X156039333Y-100562809D02*
X156372666Y-100562809D01*
X156372666Y-100562809D02*
X156158381Y-101062809D01*
X115422166Y-83743190D02*
X115398357Y-83767000D01*
X115398357Y-83767000D02*
X115326928Y-83790809D01*
X115326928Y-83790809D02*
X115279309Y-83790809D01*
X115279309Y-83790809D02*
X115207881Y-83767000D01*
X115207881Y-83767000D02*
X115160262Y-83719380D01*
X115160262Y-83719380D02*
X115136452Y-83671761D01*
X115136452Y-83671761D02*
X115112643Y-83576523D01*
X115112643Y-83576523D02*
X115112643Y-83505095D01*
X115112643Y-83505095D02*
X115136452Y-83409857D01*
X115136452Y-83409857D02*
X115160262Y-83362238D01*
X115160262Y-83362238D02*
X115207881Y-83314619D01*
X115207881Y-83314619D02*
X115279309Y-83290809D01*
X115279309Y-83290809D02*
X115326928Y-83290809D01*
X115326928Y-83290809D02*
X115398357Y-83314619D01*
X115398357Y-83314619D02*
X115422166Y-83338428D01*
X115588833Y-83290809D02*
X115922166Y-83290809D01*
X115922166Y-83290809D02*
X115707881Y-83790809D01*
X128043666Y-78064809D02*
X127877000Y-77826714D01*
X127757952Y-78064809D02*
X127757952Y-77564809D01*
X127757952Y-77564809D02*
X127948428Y-77564809D01*
X127948428Y-77564809D02*
X127996047Y-77588619D01*
X127996047Y-77588619D02*
X128019857Y-77612428D01*
X128019857Y-77612428D02*
X128043666Y-77660047D01*
X128043666Y-77660047D02*
X128043666Y-77731476D01*
X128043666Y-77731476D02*
X128019857Y-77779095D01*
X128019857Y-77779095D02*
X127996047Y-77802904D01*
X127996047Y-77802904D02*
X127948428Y-77826714D01*
X127948428Y-77826714D02*
X127757952Y-77826714D01*
X128234143Y-77612428D02*
X128257952Y-77588619D01*
X128257952Y-77588619D02*
X128305571Y-77564809D01*
X128305571Y-77564809D02*
X128424619Y-77564809D01*
X128424619Y-77564809D02*
X128472238Y-77588619D01*
X128472238Y-77588619D02*
X128496047Y-77612428D01*
X128496047Y-77612428D02*
X128519857Y-77660047D01*
X128519857Y-77660047D02*
X128519857Y-77707666D01*
X128519857Y-77707666D02*
X128496047Y-77779095D01*
X128496047Y-77779095D02*
X128210333Y-78064809D01*
X128210333Y-78064809D02*
X128519857Y-78064809D01*
X121328666Y-80869809D02*
X121162000Y-80631714D01*
X121042952Y-80869809D02*
X121042952Y-80369809D01*
X121042952Y-80369809D02*
X121233428Y-80369809D01*
X121233428Y-80369809D02*
X121281047Y-80393619D01*
X121281047Y-80393619D02*
X121304857Y-80417428D01*
X121304857Y-80417428D02*
X121328666Y-80465047D01*
X121328666Y-80465047D02*
X121328666Y-80536476D01*
X121328666Y-80536476D02*
X121304857Y-80584095D01*
X121304857Y-80584095D02*
X121281047Y-80607904D01*
X121281047Y-80607904D02*
X121233428Y-80631714D01*
X121233428Y-80631714D02*
X121042952Y-80631714D01*
X121804857Y-80869809D02*
X121519143Y-80869809D01*
X121662000Y-80869809D02*
X121662000Y-80369809D01*
X121662000Y-80369809D02*
X121614381Y-80441238D01*
X121614381Y-80441238D02*
X121566762Y-80488857D01*
X121566762Y-80488857D02*
X121519143Y-80512666D01*
X162501971Y-83638409D02*
X162335305Y-83400314D01*
X162216257Y-83638409D02*
X162216257Y-83138409D01*
X162216257Y-83138409D02*
X162406733Y-83138409D01*
X162406733Y-83138409D02*
X162454352Y-83162219D01*
X162454352Y-83162219D02*
X162478162Y-83186028D01*
X162478162Y-83186028D02*
X162501971Y-83233647D01*
X162501971Y-83233647D02*
X162501971Y-83305076D01*
X162501971Y-83305076D02*
X162478162Y-83352695D01*
X162478162Y-83352695D02*
X162454352Y-83376504D01*
X162454352Y-83376504D02*
X162406733Y-83400314D01*
X162406733Y-83400314D02*
X162216257Y-83400314D01*
X162978162Y-83638409D02*
X162692448Y-83638409D01*
X162835305Y-83638409D02*
X162835305Y-83138409D01*
X162835305Y-83138409D02*
X162787686Y-83209838D01*
X162787686Y-83209838D02*
X162740067Y-83257457D01*
X162740067Y-83257457D02*
X162692448Y-83281266D01*
X163454352Y-83638409D02*
X163168638Y-83638409D01*
X163311495Y-83638409D02*
X163311495Y-83138409D01*
X163311495Y-83138409D02*
X163263876Y-83209838D01*
X163263876Y-83209838D02*
X163216257Y-83257457D01*
X163216257Y-83257457D02*
X163168638Y-83281266D01*
X115465166Y-88315190D02*
X115441357Y-88339000D01*
X115441357Y-88339000D02*
X115369928Y-88362809D01*
X115369928Y-88362809D02*
X115322309Y-88362809D01*
X115322309Y-88362809D02*
X115250881Y-88339000D01*
X115250881Y-88339000D02*
X115203262Y-88291380D01*
X115203262Y-88291380D02*
X115179452Y-88243761D01*
X115179452Y-88243761D02*
X115155643Y-88148523D01*
X115155643Y-88148523D02*
X115155643Y-88077095D01*
X115155643Y-88077095D02*
X115179452Y-87981857D01*
X115179452Y-87981857D02*
X115203262Y-87934238D01*
X115203262Y-87934238D02*
X115250881Y-87886619D01*
X115250881Y-87886619D02*
X115322309Y-87862809D01*
X115322309Y-87862809D02*
X115369928Y-87862809D01*
X115369928Y-87862809D02*
X115441357Y-87886619D01*
X115441357Y-87886619D02*
X115465166Y-87910428D01*
X115893738Y-87862809D02*
X115798500Y-87862809D01*
X115798500Y-87862809D02*
X115750881Y-87886619D01*
X115750881Y-87886619D02*
X115727071Y-87910428D01*
X115727071Y-87910428D02*
X115679452Y-87981857D01*
X115679452Y-87981857D02*
X115655643Y-88077095D01*
X115655643Y-88077095D02*
X115655643Y-88267571D01*
X115655643Y-88267571D02*
X115679452Y-88315190D01*
X115679452Y-88315190D02*
X115703262Y-88339000D01*
X115703262Y-88339000D02*
X115750881Y-88362809D01*
X115750881Y-88362809D02*
X115846119Y-88362809D01*
X115846119Y-88362809D02*
X115893738Y-88339000D01*
X115893738Y-88339000D02*
X115917547Y-88315190D01*
X115917547Y-88315190D02*
X115941357Y-88267571D01*
X115941357Y-88267571D02*
X115941357Y-88148523D01*
X115941357Y-88148523D02*
X115917547Y-88100904D01*
X115917547Y-88100904D02*
X115893738Y-88077095D01*
X115893738Y-88077095D02*
X115846119Y-88053285D01*
X115846119Y-88053285D02*
X115750881Y-88053285D01*
X115750881Y-88053285D02*
X115703262Y-88077095D01*
X115703262Y-88077095D02*
X115679452Y-88100904D01*
X115679452Y-88100904D02*
X115655643Y-88148523D01*
X136434533Y-75416809D02*
X136434533Y-75773952D01*
X136434533Y-75773952D02*
X136410724Y-75845380D01*
X136410724Y-75845380D02*
X136363105Y-75893000D01*
X136363105Y-75893000D02*
X136291676Y-75916809D01*
X136291676Y-75916809D02*
X136244057Y-75916809D01*
X136625009Y-75416809D02*
X136934533Y-75416809D01*
X136934533Y-75416809D02*
X136767866Y-75607285D01*
X136767866Y-75607285D02*
X136839295Y-75607285D01*
X136839295Y-75607285D02*
X136886914Y-75631095D01*
X136886914Y-75631095D02*
X136910723Y-75654904D01*
X136910723Y-75654904D02*
X136934533Y-75702523D01*
X136934533Y-75702523D02*
X136934533Y-75821571D01*
X136934533Y-75821571D02*
X136910723Y-75869190D01*
X136910723Y-75869190D02*
X136886914Y-75893000D01*
X136886914Y-75893000D02*
X136839295Y-75916809D01*
X136839295Y-75916809D02*
X136696438Y-75916809D01*
X136696438Y-75916809D02*
X136648819Y-75893000D01*
X136648819Y-75893000D02*
X136625009Y-75869190D01*
X170368933Y-98226009D02*
X170368933Y-98583152D01*
X170368933Y-98583152D02*
X170345124Y-98654580D01*
X170345124Y-98654580D02*
X170297505Y-98702200D01*
X170297505Y-98702200D02*
X170226076Y-98726009D01*
X170226076Y-98726009D02*
X170178457Y-98726009D01*
X170845123Y-98226009D02*
X170607028Y-98226009D01*
X170607028Y-98226009D02*
X170583219Y-98464104D01*
X170583219Y-98464104D02*
X170607028Y-98440295D01*
X170607028Y-98440295D02*
X170654647Y-98416485D01*
X170654647Y-98416485D02*
X170773695Y-98416485D01*
X170773695Y-98416485D02*
X170821314Y-98440295D01*
X170821314Y-98440295D02*
X170845123Y-98464104D01*
X170845123Y-98464104D02*
X170868933Y-98511723D01*
X170868933Y-98511723D02*
X170868933Y-98630771D01*
X170868933Y-98630771D02*
X170845123Y-98678390D01*
X170845123Y-98678390D02*
X170821314Y-98702200D01*
X170821314Y-98702200D02*
X170773695Y-98726009D01*
X170773695Y-98726009D02*
X170654647Y-98726009D01*
X170654647Y-98726009D02*
X170607028Y-98702200D01*
X170607028Y-98702200D02*
X170583219Y-98678390D01*
X158412666Y-101062809D02*
X158246000Y-100824714D01*
X158126952Y-101062809D02*
X158126952Y-100562809D01*
X158126952Y-100562809D02*
X158317428Y-100562809D01*
X158317428Y-100562809D02*
X158365047Y-100586619D01*
X158365047Y-100586619D02*
X158388857Y-100610428D01*
X158388857Y-100610428D02*
X158412666Y-100658047D01*
X158412666Y-100658047D02*
X158412666Y-100729476D01*
X158412666Y-100729476D02*
X158388857Y-100777095D01*
X158388857Y-100777095D02*
X158365047Y-100800904D01*
X158365047Y-100800904D02*
X158317428Y-100824714D01*
X158317428Y-100824714D02*
X158126952Y-100824714D01*
X158841238Y-100562809D02*
X158746000Y-100562809D01*
X158746000Y-100562809D02*
X158698381Y-100586619D01*
X158698381Y-100586619D02*
X158674571Y-100610428D01*
X158674571Y-100610428D02*
X158626952Y-100681857D01*
X158626952Y-100681857D02*
X158603143Y-100777095D01*
X158603143Y-100777095D02*
X158603143Y-100967571D01*
X158603143Y-100967571D02*
X158626952Y-101015190D01*
X158626952Y-101015190D02*
X158650762Y-101039000D01*
X158650762Y-101039000D02*
X158698381Y-101062809D01*
X158698381Y-101062809D02*
X158793619Y-101062809D01*
X158793619Y-101062809D02*
X158841238Y-101039000D01*
X158841238Y-101039000D02*
X158865047Y-101015190D01*
X158865047Y-101015190D02*
X158888857Y-100967571D01*
X158888857Y-100967571D02*
X158888857Y-100848523D01*
X158888857Y-100848523D02*
X158865047Y-100800904D01*
X158865047Y-100800904D02*
X158841238Y-100777095D01*
X158841238Y-100777095D02*
X158793619Y-100753285D01*
X158793619Y-100753285D02*
X158698381Y-100753285D01*
X158698381Y-100753285D02*
X158650762Y-100777095D01*
X158650762Y-100777095D02*
X158626952Y-100800904D01*
X158626952Y-100800904D02*
X158603143Y-100848523D01*
X155296571Y-92807809D02*
X155129905Y-92569714D01*
X155010857Y-92807809D02*
X155010857Y-92307809D01*
X155010857Y-92307809D02*
X155201333Y-92307809D01*
X155201333Y-92307809D02*
X155248952Y-92331619D01*
X155248952Y-92331619D02*
X155272762Y-92355428D01*
X155272762Y-92355428D02*
X155296571Y-92403047D01*
X155296571Y-92403047D02*
X155296571Y-92474476D01*
X155296571Y-92474476D02*
X155272762Y-92522095D01*
X155272762Y-92522095D02*
X155248952Y-92545904D01*
X155248952Y-92545904D02*
X155201333Y-92569714D01*
X155201333Y-92569714D02*
X155010857Y-92569714D01*
X155772762Y-92807809D02*
X155487048Y-92807809D01*
X155629905Y-92807809D02*
X155629905Y-92307809D01*
X155629905Y-92307809D02*
X155582286Y-92379238D01*
X155582286Y-92379238D02*
X155534667Y-92426857D01*
X155534667Y-92426857D02*
X155487048Y-92450666D01*
X155939428Y-92307809D02*
X156248952Y-92307809D01*
X156248952Y-92307809D02*
X156082285Y-92498285D01*
X156082285Y-92498285D02*
X156153714Y-92498285D01*
X156153714Y-92498285D02*
X156201333Y-92522095D01*
X156201333Y-92522095D02*
X156225142Y-92545904D01*
X156225142Y-92545904D02*
X156248952Y-92593523D01*
X156248952Y-92593523D02*
X156248952Y-92712571D01*
X156248952Y-92712571D02*
X156225142Y-92760190D01*
X156225142Y-92760190D02*
X156201333Y-92784000D01*
X156201333Y-92784000D02*
X156153714Y-92807809D01*
X156153714Y-92807809D02*
X156010857Y-92807809D01*
X156010857Y-92807809D02*
X155963238Y-92784000D01*
X155963238Y-92784000D02*
X155939428Y-92760190D01*
X127174333Y-103898609D02*
X127174333Y-104255752D01*
X127174333Y-104255752D02*
X127150524Y-104327180D01*
X127150524Y-104327180D02*
X127102905Y-104374800D01*
X127102905Y-104374800D02*
X127031476Y-104398609D01*
X127031476Y-104398609D02*
X126983857Y-104398609D01*
X127626714Y-103898609D02*
X127531476Y-103898609D01*
X127531476Y-103898609D02*
X127483857Y-103922419D01*
X127483857Y-103922419D02*
X127460047Y-103946228D01*
X127460047Y-103946228D02*
X127412428Y-104017657D01*
X127412428Y-104017657D02*
X127388619Y-104112895D01*
X127388619Y-104112895D02*
X127388619Y-104303371D01*
X127388619Y-104303371D02*
X127412428Y-104350990D01*
X127412428Y-104350990D02*
X127436238Y-104374800D01*
X127436238Y-104374800D02*
X127483857Y-104398609D01*
X127483857Y-104398609D02*
X127579095Y-104398609D01*
X127579095Y-104398609D02*
X127626714Y-104374800D01*
X127626714Y-104374800D02*
X127650523Y-104350990D01*
X127650523Y-104350990D02*
X127674333Y-104303371D01*
X127674333Y-104303371D02*
X127674333Y-104184323D01*
X127674333Y-104184323D02*
X127650523Y-104136704D01*
X127650523Y-104136704D02*
X127626714Y-104112895D01*
X127626714Y-104112895D02*
X127579095Y-104089085D01*
X127579095Y-104089085D02*
X127483857Y-104089085D01*
X127483857Y-104089085D02*
X127436238Y-104112895D01*
X127436238Y-104112895D02*
X127412428Y-104136704D01*
X127412428Y-104136704D02*
X127388619Y-104184323D01*
X155513166Y-83616190D02*
X155489357Y-83640000D01*
X155489357Y-83640000D02*
X155417928Y-83663809D01*
X155417928Y-83663809D02*
X155370309Y-83663809D01*
X155370309Y-83663809D02*
X155298881Y-83640000D01*
X155298881Y-83640000D02*
X155251262Y-83592380D01*
X155251262Y-83592380D02*
X155227452Y-83544761D01*
X155227452Y-83544761D02*
X155203643Y-83449523D01*
X155203643Y-83449523D02*
X155203643Y-83378095D01*
X155203643Y-83378095D02*
X155227452Y-83282857D01*
X155227452Y-83282857D02*
X155251262Y-83235238D01*
X155251262Y-83235238D02*
X155298881Y-83187619D01*
X155298881Y-83187619D02*
X155370309Y-83163809D01*
X155370309Y-83163809D02*
X155417928Y-83163809D01*
X155417928Y-83163809D02*
X155489357Y-83187619D01*
X155489357Y-83187619D02*
X155513166Y-83211428D01*
X155703643Y-83211428D02*
X155727452Y-83187619D01*
X155727452Y-83187619D02*
X155775071Y-83163809D01*
X155775071Y-83163809D02*
X155894119Y-83163809D01*
X155894119Y-83163809D02*
X155941738Y-83187619D01*
X155941738Y-83187619D02*
X155965547Y-83211428D01*
X155965547Y-83211428D02*
X155989357Y-83259047D01*
X155989357Y-83259047D02*
X155989357Y-83306666D01*
X155989357Y-83306666D02*
X155965547Y-83378095D01*
X155965547Y-83378095D02*
X155679833Y-83663809D01*
X155679833Y-83663809D02*
X155989357Y-83663809D01*
D14*
%TO.C,R12*%
X136933000Y-85936064D02*
X136933000Y-85481936D01*
X138403000Y-85936064D02*
X138403000Y-85481936D01*
%TO.C,C3*%
X128382752Y-88176000D02*
X127860248Y-88176000D01*
X128382752Y-89646000D02*
X127860248Y-89646000D01*
%TO.C,R3*%
X123471000Y-101099936D02*
X123471000Y-101554064D01*
X124941000Y-101099936D02*
X124941000Y-101554064D01*
%TO.C,R10*%
X162602936Y-87123600D02*
X163057064Y-87123600D01*
X162602936Y-88593600D02*
X163057064Y-88593600D01*
%TO.C,C5*%
X155378248Y-90159000D02*
X155900752Y-90159000D01*
X155378248Y-91629000D02*
X155900752Y-91629000D01*
%TO.C,R18*%
X133504000Y-85492936D02*
X133504000Y-85947064D01*
X134974000Y-85492936D02*
X134974000Y-85947064D01*
%TO.C,J2*%
X152086000Y-108746600D02*
X152086000Y-107416600D01*
X153416000Y-108746600D02*
X152086000Y-108746600D01*
X154686000Y-106086600D02*
X162366000Y-106086600D01*
X154686000Y-108746600D02*
X154686000Y-106086600D01*
X154686000Y-108746600D02*
X162366000Y-108746600D01*
X162366000Y-108746600D02*
X162366000Y-106086600D01*
D15*
%TO.C,G3*%
G36*
X137433918Y-97358893D02*
G01*
X137616996Y-97408481D01*
X137780038Y-97488539D01*
X137920909Y-97594975D01*
X138037473Y-97723699D01*
X138127594Y-97870621D01*
X138189138Y-98031650D01*
X138219968Y-98202695D01*
X138217949Y-98379667D01*
X138180947Y-98558473D01*
X138129221Y-98690756D01*
X138116276Y-98715881D01*
X138099777Y-98743015D01*
X138077862Y-98774135D01*
X138048666Y-98811221D01*
X138010324Y-98856249D01*
X137960974Y-98911198D01*
X137898750Y-98978045D01*
X137821790Y-99058768D01*
X137728228Y-99155345D01*
X137616201Y-99269754D01*
X137483845Y-99403973D01*
X137329295Y-99559979D01*
X137150689Y-99739751D01*
X136959918Y-99931449D01*
X136727924Y-100164915D01*
X136523382Y-100371752D01*
X136345717Y-100552558D01*
X136194353Y-100707933D01*
X136068715Y-100838477D01*
X135968227Y-100944790D01*
X135892314Y-101027470D01*
X135840401Y-101087117D01*
X135811910Y-101124331D01*
X135807621Y-101131650D01*
X135761713Y-101263322D01*
X135751239Y-101397251D01*
X135773384Y-101527683D01*
X135825335Y-101648867D01*
X135904277Y-101755050D01*
X136007397Y-101840479D01*
X136131881Y-101899401D01*
X136190835Y-101915064D01*
X136261296Y-101925499D01*
X136324741Y-101927957D01*
X136351078Y-101925165D01*
X136380311Y-101916942D01*
X136395813Y-101902096D01*
X136400906Y-101870849D01*
X136398912Y-101813422D01*
X136397380Y-101788862D01*
X136396726Y-101748164D01*
X136698565Y-101748164D01*
X136715139Y-101823932D01*
X136761249Y-101876929D01*
X136831476Y-101901723D01*
X136852901Y-101902880D01*
X136890878Y-101898902D01*
X136927403Y-101883371D01*
X136970900Y-101850888D01*
X137029794Y-101796055D01*
X137048720Y-101777421D01*
X137104373Y-101721135D01*
X137147558Y-101675314D01*
X137172032Y-101646686D01*
X137175303Y-101640961D01*
X137162377Y-101622985D01*
X137128130Y-101585287D01*
X137079365Y-101535280D01*
X137067597Y-101523592D01*
X136959891Y-101417223D01*
X136829228Y-101547886D01*
X136766334Y-101612769D01*
X136727225Y-101659734D01*
X136706580Y-101696938D01*
X136699078Y-101732537D01*
X136698565Y-101748164D01*
X136396726Y-101748164D01*
X136395897Y-101696579D01*
X136407283Y-101619603D01*
X136435624Y-101548922D01*
X136485007Y-101475524D01*
X136559519Y-101390396D01*
X136594729Y-101353655D01*
X136750861Y-101193245D01*
X136706456Y-101055147D01*
X136675214Y-100921807D01*
X136674652Y-100896150D01*
X136984065Y-100896150D01*
X137007214Y-100982269D01*
X137030991Y-101018091D01*
X137077944Y-101074200D01*
X137142592Y-101145159D01*
X137219452Y-101225526D01*
X137303042Y-101309863D01*
X137387880Y-101392731D01*
X137468484Y-101468690D01*
X137539372Y-101532301D01*
X137595061Y-101578125D01*
X137630070Y-101600722D01*
X137630845Y-101601022D01*
X137729260Y-101620980D01*
X137825797Y-101605296D01*
X137923742Y-101552968D01*
X138001190Y-101488031D01*
X138074845Y-101417457D01*
X137630497Y-100972794D01*
X137186150Y-100528131D01*
X137120399Y-100591251D01*
X137037675Y-100690548D01*
X136992011Y-100792939D01*
X136984065Y-100896150D01*
X136674652Y-100896150D01*
X136672506Y-100798182D01*
X136700000Y-100679433D01*
X136759360Y-100560719D01*
X136852251Y-100437203D01*
X136957303Y-100326304D01*
X137042480Y-100244689D01*
X137107768Y-100190434D01*
X137160569Y-100162929D01*
X137208282Y-100161566D01*
X137258311Y-100185735D01*
X137318056Y-100234828D01*
X137377895Y-100291709D01*
X137517707Y-100427277D01*
X137656808Y-100291709D01*
X137737837Y-100217646D01*
X137801255Y-100173156D01*
X137852832Y-100156503D01*
X137898340Y-100165949D01*
X137943548Y-100199759D01*
X137947961Y-100204099D01*
X137986577Y-100254272D01*
X137998426Y-100305298D01*
X137982066Y-100362498D01*
X137936056Y-100431194D01*
X137864993Y-100510479D01*
X137734067Y-100646095D01*
X137844708Y-100756736D01*
X137955349Y-100867378D01*
X138090965Y-100736452D01*
X138175213Y-100661434D01*
X138242992Y-100617413D01*
X138299624Y-100602947D01*
X138350431Y-100616595D01*
X138397345Y-100653484D01*
X138433219Y-100698777D01*
X138445023Y-100743857D01*
X138431017Y-100794511D01*
X138389460Y-100856525D01*
X138318614Y-100935686D01*
X138309736Y-100944887D01*
X138174168Y-101084698D01*
X138309736Y-101223799D01*
X138378425Y-101296397D01*
X138422652Y-101353465D01*
X138441809Y-101402382D01*
X138435290Y-101450525D01*
X138402486Y-101505274D01*
X138342790Y-101574005D01*
X138275141Y-101644142D01*
X138143957Y-101766396D01*
X138021668Y-101853749D01*
X137903405Y-101907873D01*
X137784301Y-101930441D01*
X137729260Y-101927214D01*
X137659487Y-101923124D01*
X137545579Y-101894757D01*
X137406761Y-101850121D01*
X137256840Y-101998777D01*
X137187094Y-102064033D01*
X137118916Y-102121118D01*
X137061752Y-102162445D01*
X137034277Y-102177556D01*
X136958746Y-102197539D01*
X136865991Y-102206518D01*
X136852901Y-102206153D01*
X136773732Y-102203945D01*
X136699692Y-102189268D01*
X136696349Y-102188041D01*
X136648115Y-102179291D01*
X136584239Y-102187413D01*
X136535946Y-102200018D01*
X136445115Y-102218796D01*
X136337295Y-102225553D01*
X136246646Y-102223736D01*
X136153247Y-102217959D01*
X136083167Y-102207696D01*
X136020651Y-102189073D01*
X135949948Y-102158215D01*
X135919112Y-102143195D01*
X135768556Y-102048380D01*
X135643175Y-101927715D01*
X135545622Y-101786294D01*
X135478548Y-101629212D01*
X135444605Y-101461562D01*
X135446445Y-101288438D01*
X135452460Y-101246912D01*
X135460703Y-101198858D01*
X135469069Y-101155571D01*
X135479314Y-101114963D01*
X135493196Y-101074946D01*
X135512473Y-101033431D01*
X135538902Y-100988331D01*
X135574240Y-100937556D01*
X135620246Y-100879020D01*
X135678676Y-100810634D01*
X135751288Y-100730309D01*
X135839840Y-100635957D01*
X135946089Y-100525491D01*
X136071793Y-100396822D01*
X136218709Y-100247862D01*
X136388595Y-100076522D01*
X136583208Y-99880715D01*
X136707619Y-99755603D01*
X136916600Y-99545519D01*
X137099865Y-99361213D01*
X137259097Y-99200601D01*
X137395981Y-99061600D01*
X137512201Y-98942128D01*
X137609440Y-98840100D01*
X137689383Y-98753434D01*
X137753713Y-98680046D01*
X137804116Y-98617853D01*
X137842274Y-98564772D01*
X137869872Y-98518720D01*
X137888593Y-98477614D01*
X137900123Y-98439370D01*
X137906144Y-98401905D01*
X137908340Y-98363136D01*
X137908397Y-98320979D01*
X137907997Y-98273353D01*
X137907996Y-98270680D01*
X137895956Y-98128969D01*
X137857071Y-98008889D01*
X137787194Y-97900260D01*
X137732664Y-97840319D01*
X137616928Y-97749867D01*
X137485250Y-97689642D01*
X137344673Y-97660091D01*
X137202240Y-97661657D01*
X137064996Y-97694788D01*
X136939982Y-97759927D01*
X136903385Y-97787877D01*
X136837456Y-97842917D01*
X136872429Y-97948210D01*
X136902920Y-98096748D01*
X136899396Y-98248129D01*
X136862321Y-98391405D01*
X136852710Y-98414179D01*
X136841400Y-98436461D01*
X136825319Y-98462160D01*
X136802709Y-98493118D01*
X136771816Y-98531177D01*
X136730884Y-98578180D01*
X136678158Y-98635969D01*
X136611880Y-98706388D01*
X136530296Y-98791278D01*
X136431651Y-98892482D01*
X136314188Y-99011844D01*
X136176151Y-99151205D01*
X136015785Y-99312408D01*
X135831335Y-99497295D01*
X135621043Y-99707710D01*
X135602496Y-99726257D01*
X134402743Y-100925890D01*
X134489716Y-101018871D01*
X134536043Y-101071472D01*
X134564382Y-101116033D01*
X134573027Y-101158298D01*
X134560273Y-101204007D01*
X134524412Y-101258904D01*
X134463738Y-101328731D01*
X134376546Y-101419230D01*
X134368259Y-101427651D01*
X134298792Y-101498874D01*
X134253150Y-101548644D01*
X134227400Y-101583013D01*
X134217609Y-101608033D01*
X134219844Y-101629755D01*
X134226357Y-101646018D01*
X134239892Y-101700326D01*
X134238069Y-101742316D01*
X134220968Y-101770072D01*
X134180328Y-101819729D01*
X134120786Y-101886109D01*
X134046983Y-101964039D01*
X133970771Y-102041088D01*
X133965316Y-102046603D01*
X133862343Y-102148338D01*
X133781854Y-102223966D01*
X133717953Y-102274241D01*
X133664746Y-102299920D01*
X133647871Y-102300560D01*
X133616337Y-102301757D01*
X133566831Y-102280509D01*
X133510333Y-102236931D01*
X133440948Y-102171778D01*
X133388514Y-102120530D01*
X133199227Y-101935689D01*
X131694097Y-103439997D01*
X130188968Y-104944305D01*
X129906328Y-105003002D01*
X129799392Y-105025209D01*
X129623688Y-105061698D01*
X129457225Y-105227073D01*
X129384361Y-105298255D01*
X129331615Y-105345702D01*
X129292265Y-105374087D01*
X129259594Y-105388079D01*
X129226880Y-105392350D01*
X129219297Y-105392449D01*
X129157587Y-105382612D01*
X129112581Y-105347409D01*
X129107337Y-105340968D01*
X129078731Y-105297683D01*
X129067778Y-105257124D01*
X129076836Y-105213470D01*
X129108263Y-105160901D01*
X129164415Y-105093595D01*
X129239894Y-105013702D01*
X129412946Y-104835603D01*
X129441451Y-104685657D01*
X129772849Y-104685657D01*
X129776083Y-104701434D01*
X129799392Y-104703535D01*
X129849048Y-104698187D01*
X129900562Y-104689178D01*
X130014457Y-104666339D01*
X131494414Y-103188024D01*
X132974370Y-101709709D01*
X132866829Y-101602169D01*
X132759289Y-101494628D01*
X131275954Y-102979500D01*
X129792620Y-104464372D01*
X129779061Y-104577612D01*
X129773438Y-104640215D01*
X129772849Y-104685657D01*
X129441451Y-104685657D01*
X129446375Y-104659756D01*
X129465140Y-104565278D01*
X129485252Y-104470719D01*
X129503065Y-104393069D01*
X129506984Y-104377297D01*
X129511644Y-104360147D01*
X129517623Y-104343061D01*
X129526482Y-104324396D01*
X129539780Y-104302513D01*
X129559077Y-104275770D01*
X129585933Y-104242526D01*
X129621906Y-104201141D01*
X129668558Y-104149974D01*
X129727446Y-104087383D01*
X129800132Y-104011729D01*
X129888175Y-103921369D01*
X129993134Y-103814664D01*
X130116568Y-103689972D01*
X130260039Y-103545652D01*
X130425105Y-103380064D01*
X130613326Y-103191566D01*
X130826261Y-102978519D01*
X131033869Y-102770883D01*
X132533574Y-101271083D01*
X132353516Y-101087475D01*
X132279541Y-101011147D01*
X132229068Y-100955734D01*
X132197667Y-100914827D01*
X132180903Y-100882014D01*
X132174347Y-100850886D01*
X132173457Y-100827033D01*
X132173793Y-100820533D01*
X132535260Y-100820533D01*
X133091566Y-101377095D01*
X133647871Y-101933658D01*
X133750818Y-101831990D01*
X133800798Y-101780057D01*
X133837393Y-101737123D01*
X133853537Y-101711566D01*
X133853765Y-101709985D01*
X133840382Y-101692142D01*
X133802205Y-101649856D01*
X133742193Y-101586195D01*
X133663305Y-101504226D01*
X133638842Y-101479142D01*
X133568500Y-101407016D01*
X133460737Y-101297634D01*
X133432877Y-101269602D01*
X133864191Y-101269602D01*
X133917481Y-101322892D01*
X133970771Y-101376182D01*
X134078345Y-101269944D01*
X134129337Y-101218152D01*
X134167259Y-101176905D01*
X134185296Y-101153689D01*
X134185919Y-101151791D01*
X134185765Y-101151551D01*
X134173068Y-101131730D01*
X134141611Y-101098316D01*
X134136420Y-101093374D01*
X134086921Y-101046872D01*
X133975556Y-101158237D01*
X133864191Y-101269602D01*
X133432877Y-101269602D01*
X133342974Y-101179146D01*
X133306729Y-101142874D01*
X133197413Y-101033610D01*
X132995159Y-100831453D01*
X133423818Y-100831453D01*
X133531330Y-100937630D01*
X133638842Y-101043806D01*
X133746303Y-100937680D01*
X133797248Y-100886032D01*
X133835131Y-100845081D01*
X133853144Y-100822255D01*
X133853765Y-100820449D01*
X133840855Y-100802338D01*
X133806762Y-100764728D01*
X133758441Y-100715237D01*
X133750575Y-100707437D01*
X133647385Y-100605528D01*
X133535601Y-100718491D01*
X133423818Y-100831453D01*
X132995159Y-100831453D01*
X132759693Y-100596100D01*
X132647476Y-100708316D01*
X132535260Y-100820533D01*
X132173793Y-100820533D01*
X132174928Y-100798614D01*
X132181829Y-100771982D01*
X132197890Y-100742341D01*
X132226843Y-100704896D01*
X132272419Y-100654853D01*
X132338348Y-100587417D01*
X132428362Y-100497793D01*
X132429773Y-100496396D01*
X133092215Y-100496396D01*
X133144814Y-100551297D01*
X133197413Y-100606199D01*
X133310441Y-100494350D01*
X133423469Y-100382502D01*
X133370870Y-100327600D01*
X133319172Y-100273639D01*
X133746788Y-100273639D01*
X133966277Y-100493128D01*
X134185765Y-100712617D01*
X134459665Y-100439264D01*
X134733564Y-100165910D01*
X134615481Y-100164477D01*
X134299310Y-100160641D01*
X133865055Y-100155371D01*
X133805922Y-100214505D01*
X133746788Y-100273639D01*
X133319172Y-100273639D01*
X133318271Y-100272699D01*
X133205243Y-100384547D01*
X133092215Y-100496396D01*
X132429773Y-100496396D01*
X132433962Y-100492248D01*
X132529319Y-100398780D01*
X132602031Y-100330156D01*
X132656379Y-100282901D01*
X132696646Y-100253540D01*
X132727114Y-100238598D01*
X132751462Y-100234594D01*
X132803433Y-100240914D01*
X132837497Y-100253254D01*
X132856596Y-100254461D01*
X132887625Y-100237772D01*
X132934551Y-100200148D01*
X133001341Y-100138546D01*
X133054568Y-100086878D01*
X133133140Y-100010813D01*
X133190706Y-99958680D01*
X133233246Y-99926149D01*
X133266741Y-99908890D01*
X133297171Y-99902574D01*
X133309755Y-99902141D01*
X133359213Y-99909536D01*
X133405826Y-99936451D01*
X133453652Y-99980730D01*
X133530392Y-100059320D01*
X133746519Y-99843526D01*
X134176446Y-99843526D01*
X134615481Y-99843526D01*
X135054516Y-99843526D01*
X135206854Y-99692103D01*
X135359193Y-99540680D01*
X135240711Y-99539244D01*
X134924512Y-99535410D01*
X134489832Y-99530140D01*
X134333139Y-99686833D01*
X134176446Y-99843526D01*
X133746519Y-99843526D01*
X134372716Y-99218295D01*
X134801676Y-99218295D01*
X135240711Y-99218295D01*
X135679747Y-99218295D01*
X135832085Y-99066872D01*
X135984424Y-98915449D01*
X135868230Y-98914040D01*
X135549743Y-98910179D01*
X135115063Y-98904909D01*
X134958369Y-99061602D01*
X134801676Y-99218295D01*
X134372716Y-99218295D01*
X134732502Y-98859064D01*
X134973939Y-98618415D01*
X134999479Y-98593064D01*
X135427042Y-98593064D01*
X135868230Y-98593064D01*
X136309417Y-98593064D01*
X136430158Y-98467325D01*
X136518080Y-98368119D01*
X136574781Y-98283254D01*
X136602192Y-98206386D01*
X136602246Y-98131175D01*
X136576876Y-98051277D01*
X136564727Y-98025704D01*
X136513747Y-97951093D01*
X136441912Y-97898867D01*
X136433587Y-97894564D01*
X136375186Y-97868600D01*
X136321437Y-97854685D01*
X136268419Y-97854945D01*
X136212217Y-97871505D01*
X136148910Y-97906490D01*
X136074581Y-97962024D01*
X135985313Y-98040234D01*
X135877186Y-98143243D01*
X135758981Y-98260443D01*
X135427042Y-98593064D01*
X134999479Y-98593064D01*
X135188758Y-98405189D01*
X135377578Y-98218791D01*
X135541016Y-98058621D01*
X135679692Y-97924084D01*
X135794223Y-97814581D01*
X135885230Y-97729517D01*
X135953329Y-97668294D01*
X135999141Y-97630314D01*
X136019866Y-97616408D01*
X136142188Y-97572781D01*
X136275736Y-97554027D01*
X136407925Y-97560474D01*
X136526170Y-97592447D01*
X136548596Y-97602706D01*
X136582523Y-97616885D01*
X136610483Y-97616044D01*
X136644958Y-97596584D01*
X136689505Y-97562072D01*
X136843444Y-97461372D01*
X137012855Y-97391112D01*
X137190011Y-97353402D01*
X137367180Y-97350352D01*
X137433918Y-97358893D01*
G37*
D14*
%TO.C,R4*%
X120423000Y-96308936D02*
X120423000Y-96763064D01*
X121893000Y-96308936D02*
X121893000Y-96763064D01*
%TO.C,R5*%
X128678000Y-96363064D02*
X128678000Y-95908936D01*
X130148000Y-96363064D02*
X130148000Y-95908936D01*
%TO.C,Q2*%
X125397500Y-94576000D02*
X124747500Y-94576000D01*
X125397500Y-94576000D02*
X126047500Y-94576000D01*
X125397500Y-97696000D02*
X124747500Y-97696000D01*
X125397500Y-97696000D02*
X126047500Y-97696000D01*
X126800000Y-97976000D02*
X126320000Y-97976000D01*
X126560000Y-97646000D01*
X126800000Y-97976000D01*
G36*
X126800000Y-97976000D02*
G01*
X126320000Y-97976000D01*
X126560000Y-97646000D01*
X126800000Y-97976000D01*
G37*
%TO.C,R19*%
X120423000Y-101131936D02*
X120423000Y-101586064D01*
X121893000Y-101131936D02*
X121893000Y-101586064D01*
%TO.C,J8*%
X158690000Y-73854000D02*
X160020000Y-73854000D01*
X158690000Y-75184000D02*
X158690000Y-73854000D01*
X158690000Y-76454000D02*
X158690000Y-79054000D01*
X158690000Y-76454000D02*
X161350000Y-76454000D01*
X158690000Y-79054000D02*
X161350000Y-79054000D01*
X161350000Y-76454000D02*
X161350000Y-79054000D01*
%TO.C,J4*%
X137624000Y-73743000D02*
X137624000Y-75863000D01*
X139684000Y-73743000D02*
X137624000Y-73743000D01*
X139684000Y-73743000D02*
X139684000Y-75863000D01*
X139684000Y-75863000D02*
X137624000Y-75863000D01*
X140684000Y-73743000D02*
X141744000Y-73743000D01*
X141744000Y-73743000D02*
X141744000Y-74803000D01*
%TO.C,J7*%
X148149000Y-73854000D02*
X148149000Y-79054000D01*
X153289000Y-73854000D02*
X148149000Y-73854000D01*
X153289000Y-73854000D02*
X153289000Y-76454000D01*
X153289000Y-76454000D02*
X155889000Y-76454000D01*
X154559000Y-73854000D02*
X155889000Y-73854000D01*
X155889000Y-73854000D02*
X155889000Y-75184000D01*
X155889000Y-76454000D02*
X155889000Y-79054000D01*
X155889000Y-79054000D02*
X148149000Y-79054000D01*
%TO.C,U1*%
X103577000Y-83798000D02*
X109997000Y-83798000D01*
X103577000Y-90698000D02*
X109997000Y-90698000D01*
X109997000Y-83798000D02*
X109997000Y-84068000D01*
X109997000Y-90698000D02*
X109997000Y-90428000D01*
X111657000Y-90718000D02*
X111177000Y-90718000D01*
X111417000Y-90388000D01*
X111657000Y-90718000D01*
G36*
X111657000Y-90718000D02*
G01*
X111177000Y-90718000D01*
X111417000Y-90388000D01*
X111657000Y-90718000D01*
G37*
%TO.C,Q1*%
X112629000Y-97979000D02*
X112629000Y-96029000D01*
X112629000Y-97979000D02*
X112629000Y-99929000D01*
X117749000Y-97979000D02*
X117749000Y-96029000D01*
X117749000Y-97979000D02*
X117749000Y-99929000D01*
X112724000Y-100679000D02*
X112394000Y-100919000D01*
X112394000Y-100439000D01*
X112724000Y-100679000D01*
G36*
X112724000Y-100679000D02*
G01*
X112394000Y-100919000D01*
X112394000Y-100439000D01*
X112724000Y-100679000D01*
G37*
%TO.C,J1*%
X110764000Y-73706000D02*
X110764000Y-79676000D01*
X110764000Y-79676000D02*
X118384000Y-79676000D01*
X110774000Y-77416000D02*
X111524000Y-77416000D01*
X110774000Y-78916000D02*
X110774000Y-79666000D01*
X110774000Y-79666000D02*
X112574000Y-79666000D01*
X111524000Y-74466000D02*
X114574000Y-74466000D01*
X111524000Y-77416000D02*
X111524000Y-74466000D01*
X112574000Y-78916000D02*
X110774000Y-78916000D01*
X112574000Y-79666000D02*
X112574000Y-78916000D01*
X114074000Y-78916000D02*
X114074000Y-79666000D01*
X114074000Y-79666000D02*
X115074000Y-79666000D01*
X115074000Y-78916000D02*
X114074000Y-78916000D01*
X115074000Y-79666000D02*
X115074000Y-78916000D01*
X116574000Y-78916000D02*
X116574000Y-79666000D01*
X116574000Y-79666000D02*
X118374000Y-79666000D01*
X117424000Y-79966000D02*
X118674000Y-79966000D01*
X117624000Y-74466000D02*
X114574000Y-74466000D01*
X117624000Y-77416000D02*
X117624000Y-74466000D01*
X118374000Y-77416000D02*
X117624000Y-77416000D01*
X118374000Y-78916000D02*
X116574000Y-78916000D01*
X118374000Y-79666000D02*
X118374000Y-78916000D01*
X118384000Y-73706000D02*
X110764000Y-73706000D01*
X118384000Y-79676000D02*
X118384000Y-73706000D01*
X118674000Y-79966000D02*
X118674000Y-78716000D01*
%TO.C,U3*%
X143800000Y-83125000D02*
X143800000Y-101025000D01*
X143800000Y-101025000D02*
X148300000Y-101025000D01*
X145050000Y-83125000D02*
X143800000Y-83125000D01*
X148300000Y-83125000D02*
X147050000Y-83125000D01*
X148300000Y-101025000D02*
X148300000Y-83125000D01*
X147050000Y-83125000D02*
G75*
G02*
X145050000Y-83125000I-1000000J0D01*
G01*
%TO.C,C1*%
X120677000Y-86596248D02*
X120677000Y-87118752D01*
X122147000Y-86596248D02*
X122147000Y-87118752D01*
%TO.C,U2*%
X128235000Y-81525000D02*
X126285000Y-81525000D01*
X128235000Y-81525000D02*
X130185000Y-81525000D01*
X128235000Y-86645000D02*
X126285000Y-86645000D01*
X128235000Y-86645000D02*
X130185000Y-86645000D01*
X125535000Y-81620000D02*
X125295000Y-81290000D01*
X125775000Y-81290000D01*
X125535000Y-81620000D01*
G36*
X125535000Y-81620000D02*
G01*
X125295000Y-81290000D01*
X125775000Y-81290000D01*
X125535000Y-81620000D01*
G37*
%TO.C,C4*%
X155900752Y-87149000D02*
X155378248Y-87149000D01*
X155900752Y-88619000D02*
X155378248Y-88619000D01*
%TO.C,R8*%
X163057064Y-90120800D02*
X162602936Y-90120800D01*
X163057064Y-91590800D02*
X162602936Y-91590800D01*
%TO.C,R9*%
X163025064Y-93219600D02*
X162570936Y-93219600D01*
X163025064Y-94689600D02*
X162570936Y-94689600D01*
%TO.C,R7*%
X155221000Y-103240064D02*
X155221000Y-102785936D01*
X156691000Y-103240064D02*
X156691000Y-102785936D01*
%TO.C,C7*%
X115244248Y-84228000D02*
X115766752Y-84228000D01*
X115244248Y-85698000D02*
X115766752Y-85698000D01*
%TO.C,R2*%
X127915936Y-78386000D02*
X128370064Y-78386000D01*
X127915936Y-79856000D02*
X128370064Y-79856000D01*
%TO.C,R1*%
X120677000Y-83142064D02*
X120677000Y-82687936D01*
X122147000Y-83142064D02*
X122147000Y-82687936D01*
%TO.C,R11*%
X163050464Y-84075600D02*
X162596336Y-84075600D01*
X163050464Y-85545600D02*
X162596336Y-85545600D01*
%TO.C,C6*%
X115287248Y-88800000D02*
X115809752Y-88800000D01*
X115287248Y-90270000D02*
X115809752Y-90270000D01*
%TO.C,J3*%
X131814000Y-73743000D02*
X131814000Y-75863000D01*
X133874000Y-73743000D02*
X131814000Y-73743000D01*
X133874000Y-73743000D02*
X133874000Y-75863000D01*
X133874000Y-75863000D02*
X131814000Y-75863000D01*
X134874000Y-73743000D02*
X135934000Y-73743000D01*
X135934000Y-73743000D02*
X135934000Y-74803000D01*
%TO.C,J5*%
X168215000Y-95123000D02*
X168215000Y-84903000D01*
X170875000Y-84903000D02*
X168215000Y-84903000D01*
X170875000Y-95123000D02*
X168215000Y-95123000D01*
X170875000Y-95123000D02*
X170875000Y-84903000D01*
X170875000Y-96393000D02*
X170875000Y-97723000D01*
X170875000Y-97723000D02*
X169545000Y-97723000D01*
%TO.C,R6*%
X157761000Y-103240064D02*
X157761000Y-102785936D01*
X159231000Y-103240064D02*
X159231000Y-102785936D01*
%TO.C,R13*%
X155390936Y-93245000D02*
X155845064Y-93245000D01*
X155390936Y-94715000D02*
X155845064Y-94715000D01*
%TO.C,J6*%
X111631400Y-103881200D02*
X111631400Y-109851200D01*
X111631400Y-109851200D02*
X126751400Y-109851200D01*
X111641400Y-107591200D02*
X112391400Y-107591200D01*
X111641400Y-109091200D02*
X111641400Y-109841200D01*
X111641400Y-109841200D02*
X113441400Y-109841200D01*
X112391400Y-104641200D02*
X119191400Y-104641200D01*
X112391400Y-107591200D02*
X112391400Y-104641200D01*
X113441400Y-109091200D02*
X111641400Y-109091200D01*
X113441400Y-109841200D02*
X113441400Y-109091200D01*
X114941400Y-109091200D02*
X114941400Y-109841200D01*
X114941400Y-109841200D02*
X123441400Y-109841200D01*
X123441400Y-109091200D02*
X114941400Y-109091200D01*
X123441400Y-109841200D02*
X123441400Y-109091200D01*
X124941400Y-109091200D02*
X124941400Y-109841200D01*
X124941400Y-109841200D02*
X126741400Y-109841200D01*
X125791400Y-110141200D02*
X127041400Y-110141200D01*
X125991400Y-104641200D02*
X119191400Y-104641200D01*
X125991400Y-107591200D02*
X125991400Y-104641200D01*
X126741400Y-107591200D02*
X125991400Y-107591200D01*
X126741400Y-109091200D02*
X124941400Y-109091200D01*
X126741400Y-109841200D02*
X126741400Y-109091200D01*
X126751400Y-103881200D02*
X111631400Y-103881200D01*
X126751400Y-109851200D02*
X126751400Y-103881200D01*
X127041400Y-110141200D02*
X127041400Y-108891200D01*
%TO.C,C2*%
X155857752Y-84101000D02*
X155335248Y-84101000D01*
X155857752Y-85571000D02*
X155335248Y-85571000D01*
%TD*%
M02*
