%TF.GenerationSoftware,KiCad,Pcbnew,8.0.5*%
%TF.CreationDate,2024-10-11T14:34:09+02:00*%
%TF.ProjectId,SMD-Loetstation,534d442d-4c6f-4657-9473-746174696f6e,rev?*%
%TF.SameCoordinates,Original*%
%TF.FileFunction,Copper,L1,Top*%
%TF.FilePolarity,Positive*%
%FSLAX46Y46*%
G04 Gerber Fmt 4.6, Leading zero omitted, Abs format (unit mm)*
G04 Created by KiCad (PCBNEW 8.0.5) date 2024-10-11 14:34:09*
%MOMM*%
%LPD*%
G01*
G04 APERTURE LIST*
G04 Aperture macros list*
%AMRoundRect*
0 Rectangle with rounded corners*
0 $1 Rounding radius*
0 $2 $3 $4 $5 $6 $7 $8 $9 X,Y pos of 4 corners*
0 Add a 4 corners polygon primitive as box body*
4,1,4,$2,$3,$4,$5,$6,$7,$8,$9,$2,$3,0*
0 Add four circle primitives for the rounded corners*
1,1,$1+$1,$2,$3*
1,1,$1+$1,$4,$5*
1,1,$1+$1,$6,$7*
1,1,$1+$1,$8,$9*
0 Add four rect primitives between the rounded corners*
20,1,$1+$1,$2,$3,$4,$5,0*
20,1,$1+$1,$4,$5,$6,$7,0*
20,1,$1+$1,$6,$7,$8,$9,0*
20,1,$1+$1,$8,$9,$2,$3,0*%
G04 Aperture macros list end*
%TA.AperFunction,SMDPad,CuDef*%
%ADD10RoundRect,0.250000X0.450000X-0.350000X0.450000X0.350000X-0.450000X0.350000X-0.450000X-0.350000X0*%
%TD*%
%TA.AperFunction,SMDPad,CuDef*%
%ADD11RoundRect,0.250000X0.337500X0.475000X-0.337500X0.475000X-0.337500X-0.475000X0.337500X-0.475000X0*%
%TD*%
%TA.AperFunction,SMDPad,CuDef*%
%ADD12RoundRect,0.250000X-0.450000X0.350000X-0.450000X-0.350000X0.450000X-0.350000X0.450000X0.350000X0*%
%TD*%
%TA.AperFunction,SMDPad,CuDef*%
%ADD13RoundRect,0.250000X-0.350000X-0.450000X0.350000X-0.450000X0.350000X0.450000X-0.350000X0.450000X0*%
%TD*%
%TA.AperFunction,SMDPad,CuDef*%
%ADD14RoundRect,0.250000X-0.337500X-0.475000X0.337500X-0.475000X0.337500X0.475000X-0.337500X0.475000X0*%
%TD*%
%TA.AperFunction,ComponentPad*%
%ADD15C,5.000000*%
%TD*%
%TA.AperFunction,ComponentPad*%
%ADD16R,1.700000X1.700000*%
%TD*%
%TA.AperFunction,ComponentPad*%
%ADD17O,1.700000X1.700000*%
%TD*%
%TA.AperFunction,SMDPad,CuDef*%
%ADD18RoundRect,0.150000X0.587500X0.150000X-0.587500X0.150000X-0.587500X-0.150000X0.587500X-0.150000X0*%
%TD*%
%TA.AperFunction,ComponentPad*%
%ADD19R,1.350000X1.350000*%
%TD*%
%TA.AperFunction,ComponentPad*%
%ADD20O,1.350000X1.350000*%
%TD*%
%TA.AperFunction,SMDPad,CuDef*%
%ADD21RoundRect,0.250000X0.850000X0.350000X-0.850000X0.350000X-0.850000X-0.350000X0.850000X-0.350000X0*%
%TD*%
%TA.AperFunction,SMDPad,CuDef*%
%ADD22RoundRect,0.250000X1.275000X1.125000X-1.275000X1.125000X-1.275000X-1.125000X1.275000X-1.125000X0*%
%TD*%
%TA.AperFunction,SMDPad,CuDef*%
%ADD23RoundRect,0.249997X2.950003X2.650003X-2.950003X2.650003X-2.950003X-2.650003X2.950003X-2.650003X0*%
%TD*%
%TA.AperFunction,SMDPad,CuDef*%
%ADD24RoundRect,0.150000X0.150000X-0.825000X0.150000X0.825000X-0.150000X0.825000X-0.150000X-0.825000X0*%
%TD*%
%TA.AperFunction,ComponentPad*%
%ADD25RoundRect,0.250000X0.600000X0.750000X-0.600000X0.750000X-0.600000X-0.750000X0.600000X-0.750000X0*%
%TD*%
%TA.AperFunction,ComponentPad*%
%ADD26O,1.700000X2.000000*%
%TD*%
%TA.AperFunction,ComponentPad*%
%ADD27R,2.400000X1.600000*%
%TD*%
%TA.AperFunction,ComponentPad*%
%ADD28O,2.400000X1.600000*%
%TD*%
%TA.AperFunction,SMDPad,CuDef*%
%ADD29RoundRect,0.250000X-0.475000X0.337500X-0.475000X-0.337500X0.475000X-0.337500X0.475000X0.337500X0*%
%TD*%
%TA.AperFunction,SMDPad,CuDef*%
%ADD30RoundRect,0.150000X-0.725000X-0.150000X0.725000X-0.150000X0.725000X0.150000X-0.725000X0.150000X0*%
%TD*%
%TA.AperFunction,SMDPad,CuDef*%
%ADD31RoundRect,0.250000X0.350000X0.450000X-0.350000X0.450000X-0.350000X-0.450000X0.350000X-0.450000X0*%
%TD*%
%TA.AperFunction,ComponentPad*%
%ADD32RoundRect,0.250000X0.600000X0.725000X-0.600000X0.725000X-0.600000X-0.725000X0.600000X-0.725000X0*%
%TD*%
%TA.AperFunction,ComponentPad*%
%ADD33O,1.700000X1.950000*%
%TD*%
%TA.AperFunction,ViaPad*%
%ADD34C,0.600000*%
%TD*%
%TA.AperFunction,Conductor*%
%ADD35C,0.200000*%
%TD*%
%TA.AperFunction,Conductor*%
%ADD36C,0.500000*%
%TD*%
%TA.AperFunction,Conductor*%
%ADD37C,1.000000*%
%TD*%
G04 APERTURE END LIST*
D10*
%TO.P,R12,1*%
%TO.N,Net-(J3-Pin_2)*%
X137668000Y-86709000D03*
%TO.P,R12,2*%
%TO.N,+5V*%
X137668000Y-84709000D03*
%TD*%
D11*
%TO.P,C3,1*%
%TO.N,Net-(U3-PA3)*%
X129159000Y-88911000D03*
%TO.P,C3,2*%
%TO.N,GND*%
X127084000Y-88911000D03*
%TD*%
D12*
%TO.P,R3,1*%
%TO.N,Net-(J6-Pin_1)*%
X124206000Y-100327000D03*
%TO.P,R3,2*%
%TO.N,Net-(U2-+)*%
X124206000Y-102327000D03*
%TD*%
D13*
%TO.P,R10,1*%
%TO.N,+5V*%
X161830000Y-87858600D03*
%TO.P,R10,2*%
%TO.N,Net-(J5-Pin_5)*%
X163830000Y-87858600D03*
%TD*%
D14*
%TO.P,C5,1*%
%TO.N,GND*%
X154602000Y-90894000D03*
%TO.P,C5,2*%
%TO.N,Net-(U3-PA1)*%
X156677000Y-90894000D03*
%TD*%
D15*
%TO.P,H1,1,1*%
%TO.N,GND*%
X104648000Y-78740000D03*
%TD*%
D12*
%TO.P,R18,1*%
%TO.N,Net-(R18-Pad1)*%
X134239000Y-84720000D03*
%TO.P,R18,2*%
%TO.N,Net-(U3-PA3)*%
X134239000Y-86720000D03*
%TD*%
D16*
%TO.P,J2,1,Pin_1*%
%TO.N,GND*%
X153416000Y-107416600D03*
D17*
%TO.P,J2,2,Pin_2*%
%TO.N,Net-(J2-Pin_2)*%
X155956000Y-107416600D03*
%TO.P,J2,3,Pin_3*%
%TO.N,Net-(J2-Pin_3)*%
X158496000Y-107416600D03*
%TO.P,J2,4,Pin_4*%
%TO.N,+5V*%
X161036000Y-107416600D03*
%TD*%
D12*
%TO.P,R4,1*%
%TO.N,+12V*%
X121158000Y-95536000D03*
%TO.P,R4,2*%
%TO.N,Net-(Q1-G)*%
X121158000Y-97536000D03*
%TD*%
D10*
%TO.P,R5,1*%
%TO.N,Net-(Q2-G)*%
X129413000Y-97136000D03*
%TO.P,R5,2*%
%TO.N,Net-(J8-Pin_2)*%
X129413000Y-95136000D03*
%TD*%
D18*
%TO.P,Q2,1,G*%
%TO.N,Net-(Q2-G)*%
X126335000Y-97086000D03*
%TO.P,Q2,2,S*%
%TO.N,GND*%
X126335000Y-95186000D03*
%TO.P,Q2,3,D*%
%TO.N,Net-(Q1-G)*%
X124460000Y-96136000D03*
%TD*%
D12*
%TO.P,R19,1*%
%TO.N,GND*%
X121158000Y-100359000D03*
%TO.P,R19,2*%
%TO.N,Net-(U2-+)*%
X121158000Y-102359000D03*
%TD*%
D16*
%TO.P,J8,1,Pin_1*%
%TO.N,Net-(J7-MISO)*%
X160020000Y-75184000D03*
D17*
%TO.P,J8,2,Pin_2*%
%TO.N,Net-(J8-Pin_2)*%
X160020000Y-77724000D03*
%TD*%
D19*
%TO.P,J4,1,Pin_1*%
%TO.N,GND*%
X140684000Y-74803000D03*
D20*
%TO.P,J4,2,Pin_2*%
%TO.N,Net-(J4-Pin_2)*%
X138684000Y-74803000D03*
%TD*%
D15*
%TO.P,H3,1,1*%
%TO.N,GND*%
X104648000Y-104648000D03*
%TD*%
D16*
%TO.P,J7,1,MISO*%
%TO.N,Net-(J7-MISO)*%
X154559000Y-75184000D03*
D17*
%TO.P,J7,2,VCC*%
%TO.N,+5V*%
X154559000Y-77724000D03*
%TO.P,J7,3,SCK*%
%TO.N,Net-(J2-Pin_2)*%
X152019000Y-75184000D03*
%TO.P,J7,4,MOSI*%
%TO.N,Net-(J2-Pin_3)*%
X152019000Y-77724000D03*
%TO.P,J7,5,~{RST}*%
%TO.N,Net-(J7-~{RST})*%
X149479000Y-75184000D03*
%TO.P,J7,6,GND*%
%TO.N,GND*%
X149479000Y-77724000D03*
%TD*%
D21*
%TO.P,U1,1,VI*%
%TO.N,+12V*%
X111727000Y-89528000D03*
D22*
%TO.P,U1,2,GND*%
%TO.N,GND*%
X107102000Y-88773000D03*
X107102000Y-85723000D03*
D23*
X105427000Y-87248000D03*
D22*
X103752000Y-88773000D03*
X103752000Y-85723000D03*
D21*
%TO.P,U1,3,VO*%
%TO.N,+5V*%
X111727000Y-84968000D03*
%TD*%
D24*
%TO.P,Q1,1,S*%
%TO.N,Net-(J6-Pin_2)*%
X113284000Y-100454000D03*
%TO.P,Q1,2,S*%
X114554000Y-100454000D03*
%TO.P,Q1,3,S*%
X115824000Y-100454000D03*
%TO.P,Q1,4,G*%
%TO.N,Net-(Q1-G)*%
X117094000Y-100454000D03*
%TO.P,Q1,5,D*%
%TO.N,+12V*%
X117094000Y-95504000D03*
%TO.P,Q1,6,D*%
X115824000Y-95504000D03*
%TO.P,Q1,7,D*%
X114554000Y-95504000D03*
%TO.P,Q1,8,D*%
X113284000Y-95504000D03*
%TD*%
D25*
%TO.P,J1,1,Pin_1*%
%TO.N,GND*%
X115824000Y-77216000D03*
D26*
%TO.P,J1,2,Pin_2*%
%TO.N,+12V*%
X113324000Y-77216000D03*
%TD*%
D27*
%TO.P,U3,1,VCC*%
%TO.N,+5V*%
X142240000Y-84455000D03*
D28*
%TO.P,U3,2,XTAL1/PB0*%
%TO.N,Net-(J3-Pin_2)*%
X142240000Y-86995000D03*
%TO.P,U3,3,XTAL2/PB1*%
%TO.N,Net-(J4-Pin_2)*%
X142240000Y-89535000D03*
%TO.P,U3,4,~{RESET}/PB3*%
%TO.N,Net-(J7-~{RST})*%
X142240000Y-92075000D03*
%TO.P,U3,5,PB2*%
%TO.N,unconnected-(U3-PB2-Pad5)*%
X142240000Y-94615000D03*
%TO.P,U3,6,PA7*%
%TO.N,unconnected-(U3-PA7-Pad6)*%
X142240000Y-97155000D03*
%TO.P,U3,7,PA6*%
%TO.N,Net-(J2-Pin_3)*%
X142240000Y-99695000D03*
%TO.P,U3,8,PA5*%
%TO.N,Net-(J7-MISO)*%
X149860000Y-99695000D03*
%TO.P,U3,9,PA4*%
%TO.N,Net-(J2-Pin_2)*%
X149860000Y-97155000D03*
%TO.P,U3,10,PA3*%
%TO.N,Net-(U3-PA3)*%
X149860000Y-94615000D03*
%TO.P,U3,11,PA2*%
%TO.N,Net-(J5-Pin_1)*%
X149860000Y-92075000D03*
%TO.P,U3,12,PA1*%
%TO.N,Net-(U3-PA1)*%
X149860000Y-89535000D03*
%TO.P,U3,13,AREF/PA0*%
%TO.N,Net-(U3-AREF{slash}PA0)*%
X149860000Y-86995000D03*
%TO.P,U3,14,GND*%
%TO.N,GND*%
X149860000Y-84455000D03*
%TD*%
D29*
%TO.P,C1,1*%
%TO.N,Net-(U2-+)*%
X121412000Y-85820000D03*
%TO.P,C1,2*%
%TO.N,GND*%
X121412000Y-87895000D03*
%TD*%
D30*
%TO.P,U2,1,NC*%
%TO.N,unconnected-(U2-NC-Pad1)*%
X125660000Y-82180000D03*
%TO.P,U2,2,-*%
%TO.N,Net-(U2--)*%
X125660000Y-83450000D03*
%TO.P,U2,3,+*%
%TO.N,Net-(U2-+)*%
X125660000Y-84720000D03*
%TO.P,U2,4,V-*%
%TO.N,GND*%
X125660000Y-85990000D03*
%TO.P,U2,5,NC*%
%TO.N,unconnected-(U2-NC-Pad5)*%
X130810000Y-85990000D03*
%TO.P,U2,6*%
%TO.N,Net-(R18-Pad1)*%
X130810000Y-84720000D03*
%TO.P,U2,7,V+*%
%TO.N,+5V*%
X130810000Y-83450000D03*
%TO.P,U2,8,NC*%
%TO.N,unconnected-(U2-NC-Pad8)*%
X130810000Y-82180000D03*
%TD*%
D15*
%TO.P,H2,1,1*%
%TO.N,GND*%
X169672000Y-104140000D03*
%TD*%
D11*
%TO.P,C4,1*%
%TO.N,Net-(U3-AREF{slash}PA0)*%
X156677000Y-87884000D03*
%TO.P,C4,2*%
%TO.N,GND*%
X154602000Y-87884000D03*
%TD*%
D31*
%TO.P,R8,1*%
%TO.N,Net-(J5-Pin_3)*%
X163830000Y-90855800D03*
%TO.P,R8,2*%
%TO.N,+5V*%
X161830000Y-90855800D03*
%TD*%
%TO.P,R9,1*%
%TO.N,Net-(J5-Pin_3)*%
X163798000Y-93954600D03*
%TO.P,R9,2*%
%TO.N,Net-(U3-AREF{slash}PA0)*%
X161798000Y-93954600D03*
%TD*%
D10*
%TO.P,R7,1*%
%TO.N,Net-(J2-Pin_2)*%
X155956000Y-104013000D03*
%TO.P,R7,2*%
%TO.N,+5V*%
X155956000Y-102013000D03*
%TD*%
D14*
%TO.P,C7,1*%
%TO.N,+5V*%
X114468000Y-84963000D03*
%TO.P,C7,2*%
%TO.N,GND*%
X116543000Y-84963000D03*
%TD*%
D13*
%TO.P,R2,1*%
%TO.N,Net-(U2--)*%
X127143000Y-79121000D03*
%TO.P,R2,2*%
%TO.N,Net-(R18-Pad1)*%
X129143000Y-79121000D03*
%TD*%
D10*
%TO.P,R1,1*%
%TO.N,GND*%
X121412000Y-83915000D03*
%TO.P,R1,2*%
%TO.N,Net-(U2--)*%
X121412000Y-81915000D03*
%TD*%
D31*
%TO.P,R11,1*%
%TO.N,Net-(J5-Pin_5)*%
X163823400Y-84810600D03*
%TO.P,R11,2*%
%TO.N,Net-(U3-PA1)*%
X161823400Y-84810600D03*
%TD*%
D14*
%TO.P,C6,1*%
%TO.N,+12V*%
X114511000Y-89535000D03*
%TO.P,C6,2*%
%TO.N,GND*%
X116586000Y-89535000D03*
%TD*%
D19*
%TO.P,J3,1,Pin_1*%
%TO.N,GND*%
X134874000Y-74803000D03*
D20*
%TO.P,J3,2,Pin_2*%
%TO.N,Net-(J3-Pin_2)*%
X132874000Y-74803000D03*
%TD*%
D16*
%TO.P,J5,1,Pin_1*%
%TO.N,Net-(J5-Pin_1)*%
X169545000Y-96393000D03*
D17*
%TO.P,J5,2,Pin_2*%
%TO.N,GND*%
X169545000Y-93853000D03*
%TO.P,J5,3,Pin_3*%
%TO.N,Net-(J5-Pin_3)*%
X169545000Y-91313000D03*
%TO.P,J5,4,Pin_4*%
%TO.N,GND*%
X169545000Y-88773000D03*
%TO.P,J5,5,Pin_5*%
%TO.N,Net-(J5-Pin_5)*%
X169545000Y-86233000D03*
%TD*%
D10*
%TO.P,R6,1*%
%TO.N,Net-(J2-Pin_3)*%
X158496000Y-104013000D03*
%TO.P,R6,2*%
%TO.N,+5V*%
X158496000Y-102013000D03*
%TD*%
D15*
%TO.P,H4,1,1*%
%TO.N,GND*%
X169672000Y-78740000D03*
%TD*%
D13*
%TO.P,R13,1*%
%TO.N,Net-(J5-Pin_1)*%
X154618000Y-93980000D03*
%TO.P,R13,2*%
%TO.N,+5V*%
X156618000Y-93980000D03*
%TD*%
D32*
%TO.P,J6,1,Pin_1*%
%TO.N,Net-(J6-Pin_1)*%
X124191400Y-107391200D03*
D33*
%TO.P,J6,2,Pin_2*%
%TO.N,Net-(J6-Pin_2)*%
X121691400Y-107391200D03*
%TO.P,J6,3,Pin_3*%
X119191400Y-107391200D03*
%TO.P,J6,4,Pin_4*%
%TO.N,GND*%
X116691400Y-107391200D03*
%TO.P,J6,5,Pin_5*%
X114191400Y-107391200D03*
%TD*%
D11*
%TO.P,C2,1*%
%TO.N,+5V*%
X156634000Y-84836000D03*
%TO.P,C2,2*%
%TO.N,GND*%
X154559000Y-84836000D03*
%TD*%
D34*
%TO.N,GND*%
X151688800Y-90220800D03*
X151587200Y-88188800D03*
X160274000Y-86283800D03*
X158292800Y-86309200D03*
X157226000Y-80365600D03*
X144856200Y-94665800D03*
%TO.N,Net-(U2-+)*%
X122783600Y-99009200D03*
X122783600Y-92506800D03*
%TO.N,+5V*%
X160020000Y-91211400D03*
X160020000Y-93980000D03*
X114452400Y-83413600D03*
X160020000Y-102013000D03*
X132588000Y-83450000D03*
%TO.N,Net-(J8-Pin_2)*%
X153771600Y-95402400D03*
%TD*%
D35*
%TO.N,Net-(U2-+)*%
X122047000Y-85820000D02*
X122548400Y-85820000D01*
X123001200Y-84720000D02*
X125660000Y-84720000D01*
X122783600Y-92506800D02*
X122783600Y-84937600D01*
X122783600Y-99009200D02*
X122783600Y-102359000D01*
X124238000Y-102359000D02*
X124206000Y-102327000D01*
X122548400Y-85820000D02*
X122783600Y-86055200D01*
X121158000Y-102359000D02*
X124238000Y-102359000D01*
X122783600Y-84937600D02*
X123001200Y-84720000D01*
%TO.N,+5V*%
X142439300Y-82934900D02*
X154559000Y-82934900D01*
X114468000Y-84769600D02*
X114468000Y-84963000D01*
X160020000Y-91211400D02*
X160401000Y-90830400D01*
X162736400Y-87504400D02*
X162736400Y-83234400D01*
X114468000Y-83429200D02*
X114468000Y-84963000D01*
X130810000Y-83450000D02*
X131994300Y-83450000D01*
X142240000Y-84455000D02*
X142240000Y-83134200D01*
X114452400Y-83413600D02*
X114468000Y-83429200D01*
X156870400Y-82956400D02*
X156634000Y-83192800D01*
D36*
X114468000Y-84963000D02*
X111732000Y-84963000D01*
D35*
X160737800Y-102013000D02*
X161036000Y-102311200D01*
X160020000Y-102013000D02*
X160737800Y-102013000D01*
X137668000Y-84709000D02*
X137922000Y-84455000D01*
X156340900Y-82934900D02*
X156634000Y-83228000D01*
X162483800Y-87757000D02*
X162736400Y-87504400D01*
X111732000Y-84963000D02*
X111727000Y-84968000D01*
X137501200Y-83450000D02*
X137668000Y-83616800D01*
X154559000Y-77724000D02*
X154559000Y-78875700D01*
X114452400Y-83515200D02*
X114452400Y-83413600D01*
X156634000Y-83228000D02*
X156634000Y-84836000D01*
X132588000Y-83450000D02*
X137501200Y-83450000D01*
X159993800Y-94004600D02*
X160020000Y-94030800D01*
X162458400Y-82956400D02*
X156870400Y-82956400D01*
X156634000Y-83192800D02*
X156634000Y-84836000D01*
X137668000Y-83616800D02*
X137668000Y-84709000D01*
X158496000Y-102013000D02*
X155956000Y-102013000D01*
X161036000Y-102311200D02*
X161036000Y-107416600D01*
X154559000Y-78875700D02*
X154559000Y-82934900D01*
X154559000Y-82934900D02*
X156340900Y-82934900D01*
X156642600Y-94004600D02*
X159993800Y-94004600D01*
X137922000Y-84455000D02*
X142240000Y-84455000D01*
X142240000Y-83134200D02*
X142439300Y-82934900D01*
X160020000Y-102013000D02*
X158496000Y-102013000D01*
X161830000Y-87757000D02*
X162483800Y-87757000D01*
X156618000Y-93980000D02*
X157123400Y-94485400D01*
X160401000Y-90830400D02*
X161830000Y-90830400D01*
X131994300Y-83450000D02*
X132588000Y-83450000D01*
X161830000Y-90830400D02*
X161830000Y-87757000D01*
X162736400Y-83234400D02*
X162458400Y-82956400D01*
X156618000Y-93980000D02*
X156642600Y-94004600D01*
%TO.N,Net-(U3-PA3)*%
X134239000Y-88722200D02*
X134239000Y-86720000D01*
X145364200Y-93345000D02*
X146634200Y-94615000D01*
X129159000Y-88911000D02*
X134050200Y-88911000D01*
X146634200Y-94615000D02*
X149860000Y-94615000D01*
X134239000Y-86720000D02*
X134239000Y-93040200D01*
X134239000Y-93040200D02*
X134543800Y-93345000D01*
X134543800Y-93345000D02*
X145364200Y-93345000D01*
X134050200Y-88911000D02*
X134239000Y-88722200D01*
D37*
%TO.N,+12V*%
X110286800Y-77216000D02*
X109626400Y-77876400D01*
X115824000Y-95504000D02*
X116687600Y-95504000D01*
X114554000Y-95504000D02*
X115824000Y-95504000D01*
X116814600Y-94792800D02*
X112572800Y-94792800D01*
D35*
X120790000Y-95504000D02*
X121158000Y-95136000D01*
X111734000Y-89535000D02*
X114511000Y-89535000D01*
D37*
X109626400Y-88976200D02*
X110178200Y-89528000D01*
X112293400Y-90094400D02*
X112293400Y-94513400D01*
X113284000Y-95504000D02*
X114554000Y-95504000D01*
D35*
X117126000Y-95536000D02*
X117094000Y-95504000D01*
X121158000Y-95536000D02*
X117126000Y-95536000D01*
D37*
X116687600Y-95504000D02*
X116713000Y-95478600D01*
D36*
X117144800Y-95453200D02*
X117094000Y-95504000D01*
D37*
X112572800Y-94792800D02*
X113284000Y-95504000D01*
X113324000Y-77216000D02*
X110286800Y-77216000D01*
X109626400Y-77876400D02*
X109626400Y-88976200D01*
X110178200Y-89528000D02*
X111727000Y-89528000D01*
X112293400Y-94513400D02*
X113284000Y-95504000D01*
D35*
%TO.N,Net-(J2-Pin_2)*%
X149860000Y-97155000D02*
X152019000Y-97155000D01*
X152527000Y-104013000D02*
X155956000Y-104013000D01*
X152298400Y-97434400D02*
X152298400Y-103784400D01*
X152019000Y-97155000D02*
X152298400Y-97434400D01*
X152298400Y-103784400D02*
X152527000Y-104013000D01*
X155956000Y-104013000D02*
X155956000Y-107416600D01*
%TO.N,Net-(J2-Pin_3)*%
X158496000Y-104013000D02*
X158496000Y-107416600D01*
%TO.N,Net-(J3-Pin_2)*%
X142240000Y-86995000D02*
X137954000Y-86995000D01*
X137954000Y-86995000D02*
X137668000Y-86709000D01*
%TO.N,Net-(J5-Pin_1)*%
X154863800Y-96393000D02*
X154618000Y-96147200D01*
X153416000Y-93980000D02*
X154618000Y-93980000D01*
X151511000Y-92075000D02*
X153416000Y-93980000D01*
X154618000Y-96147200D02*
X154618000Y-93980000D01*
X169545000Y-96393000D02*
X154863800Y-96393000D01*
X149860000Y-92075000D02*
X151511000Y-92075000D01*
%TO.N,Net-(J5-Pin_3)*%
X163798000Y-91141800D02*
X163798000Y-93954600D01*
X169545000Y-91313000D02*
X166649400Y-91313000D01*
X166166800Y-90830400D02*
X164109400Y-90830400D01*
X166649400Y-91313000D02*
X166166800Y-90830400D01*
X164109400Y-90830400D02*
X163798000Y-91141800D01*
%TO.N,Net-(J5-Pin_5)*%
X169545000Y-86233000D02*
X167259000Y-86233000D01*
X163830000Y-84836000D02*
X163830000Y-87757000D01*
X167259000Y-86233000D02*
X165862000Y-84836000D01*
X165862000Y-84836000D02*
X163830000Y-84836000D01*
D37*
%TO.N,Net-(J6-Pin_2)*%
X115824000Y-100454000D02*
X115824000Y-101193600D01*
X115824000Y-100454000D02*
X113639600Y-100454000D01*
X115824000Y-103987600D02*
X116332000Y-104495600D01*
X119206000Y-105083600D02*
X119206000Y-107391200D01*
X115824000Y-101193600D02*
X114023600Y-101193600D01*
X113284000Y-100454000D02*
X113334800Y-100504800D01*
X113309400Y-101193600D02*
X114630200Y-101193600D01*
X114023600Y-101193600D02*
X113284000Y-100454000D01*
X118618000Y-104495600D02*
X119206000Y-105083600D01*
X115824000Y-101193600D02*
X115824000Y-103987600D01*
X113284000Y-100454000D02*
X113284000Y-101168200D01*
X119206000Y-107391200D02*
X121536600Y-107391200D01*
X113284000Y-101168200D02*
X113309400Y-101193600D01*
X121536600Y-107391200D02*
X121706000Y-107560600D01*
X116332000Y-104495600D02*
X118618000Y-104495600D01*
D35*
%TO.N,Net-(J6-Pin_1)*%
X125882400Y-107289600D02*
X125780800Y-107391200D01*
X125727000Y-100327000D02*
X125882400Y-100482400D01*
X125780800Y-107391200D02*
X124191400Y-107391200D01*
X125882400Y-100482400D02*
X125882400Y-107289600D01*
X124206000Y-100327000D02*
X125727000Y-100327000D01*
%TO.N,Net-(J8-Pin_2)*%
X129413000Y-95681800D02*
X129413000Y-95136000D01*
X153263600Y-95910400D02*
X129641600Y-95910400D01*
X129641600Y-95910400D02*
X129413000Y-95681800D01*
X153771600Y-95402400D02*
X153263600Y-95910400D01*
%TO.N,Net-(Q1-G)*%
X124256800Y-97536000D02*
X124460000Y-97332800D01*
X117094000Y-100454000D02*
X117094000Y-97790000D01*
X117094000Y-97790000D02*
X117348000Y-97536000D01*
X124460000Y-97332800D02*
X124460000Y-96136000D01*
X117348000Y-97536000D02*
X121158000Y-97536000D01*
X121158000Y-97536000D02*
X124256800Y-97536000D01*
%TO.N,Net-(Q2-G)*%
X129363000Y-97086000D02*
X129413000Y-97136000D01*
X126335000Y-97086000D02*
X129363000Y-97086000D01*
%TO.N,Net-(U2--)*%
X121412000Y-81915000D02*
X121437400Y-81940400D01*
X123647200Y-83210400D02*
X123647200Y-81940400D01*
X123647200Y-81940400D02*
X123647200Y-79451200D01*
X125660000Y-83450000D02*
X123886800Y-83450000D01*
X123647200Y-79451200D02*
X123977400Y-79121000D01*
X123886800Y-83450000D02*
X123647200Y-83210400D01*
X123977400Y-79121000D02*
X127143000Y-79121000D01*
X121437400Y-81940400D02*
X123647200Y-81940400D01*
%TO.N,Net-(R18-Pad1)*%
X129474800Y-84720000D02*
X129143000Y-84388200D01*
X130810000Y-84720000D02*
X129474800Y-84720000D01*
X134239000Y-84720000D02*
X130810000Y-84720000D01*
X129143000Y-84388200D02*
X129143000Y-79121000D01*
%TO.N,Net-(U3-PA1)*%
X156667200Y-89712800D02*
X156667200Y-89979200D01*
X156677000Y-89989000D02*
X156677000Y-90894000D01*
X159207200Y-89509600D02*
X156870400Y-89509600D01*
X159562800Y-84836000D02*
X159359600Y-85039200D01*
X159359600Y-89357200D02*
X159207200Y-89509600D01*
X149860000Y-89535000D02*
X156489400Y-89535000D01*
X156667200Y-89979200D02*
X156677000Y-89989000D01*
X161830000Y-84836000D02*
X159562800Y-84836000D01*
X156870400Y-89509600D02*
X156667200Y-89712800D01*
X156489400Y-89535000D02*
X156667200Y-89712800D01*
X159359600Y-85039200D02*
X159359600Y-89357200D01*
%TO.N,Net-(U3-AREF{slash}PA0)*%
X147447000Y-90805000D02*
X147142200Y-90500200D01*
X156413200Y-86537800D02*
X152425400Y-86537800D01*
X147142200Y-90500200D02*
X147142200Y-87249000D01*
X152425400Y-86537800D02*
X151968200Y-86995000D01*
X151968200Y-86995000D02*
X149860000Y-86995000D01*
X161594800Y-92379800D02*
X152781000Y-92379800D01*
X156677000Y-87884000D02*
X156677000Y-86801600D01*
X161798000Y-92583000D02*
X161594800Y-92379800D01*
X156677000Y-86801600D02*
X156413200Y-86537800D01*
X151206200Y-90805000D02*
X147447000Y-90805000D01*
X152781000Y-92379800D02*
X151206200Y-90805000D01*
X147396200Y-86995000D02*
X149860000Y-86995000D01*
X161798000Y-93954600D02*
X161798000Y-92583000D01*
X147142200Y-87249000D02*
X147396200Y-86995000D01*
%TD*%
%TA.AperFunction,Conductor*%
%TO.N,GND*%
G36*
X116248770Y-107207857D02*
G01*
X116216400Y-107328665D01*
X116216400Y-107453735D01*
X116248770Y-107574543D01*
X116287254Y-107641200D01*
X114595546Y-107641200D01*
X114634030Y-107574543D01*
X114666400Y-107453735D01*
X114666400Y-107328665D01*
X114634030Y-107207857D01*
X114595546Y-107141200D01*
X116287254Y-107141200D01*
X116248770Y-107207857D01*
G37*
%TD.AperFunction*%
%TA.AperFunction,Conductor*%
G36*
X165732495Y-85206185D02*
G01*
X165753137Y-85222819D01*
X166369441Y-85839122D01*
X166978531Y-86448212D01*
X167043788Y-86513469D01*
X167043791Y-86513470D01*
X167043794Y-86513473D01*
X167123706Y-86559611D01*
X167123707Y-86559611D01*
X167123712Y-86559614D01*
X167212856Y-86583500D01*
X168413365Y-86583500D01*
X168480404Y-86603185D01*
X168524365Y-86652228D01*
X168605327Y-86814821D01*
X168728237Y-86977581D01*
X168878958Y-87114980D01*
X168878960Y-87114982D01*
X168961784Y-87166264D01*
X169052363Y-87222348D01*
X169133283Y-87253696D01*
X169188685Y-87296269D01*
X169212276Y-87362035D01*
X169196565Y-87430116D01*
X169146542Y-87478895D01*
X169120586Y-87489097D01*
X169081519Y-87499565D01*
X169081507Y-87499570D01*
X168867422Y-87599399D01*
X168867420Y-87599400D01*
X168673926Y-87734886D01*
X168673920Y-87734891D01*
X168506891Y-87901920D01*
X168506886Y-87901926D01*
X168371400Y-88095420D01*
X168371399Y-88095422D01*
X168271570Y-88309507D01*
X168271567Y-88309513D01*
X168214364Y-88522999D01*
X168214364Y-88523000D01*
X169111988Y-88523000D01*
X169079075Y-88580007D01*
X169045000Y-88707174D01*
X169045000Y-88838826D01*
X169079075Y-88965993D01*
X169111988Y-89023000D01*
X168214364Y-89023000D01*
X168271567Y-89236486D01*
X168271570Y-89236492D01*
X168371399Y-89450578D01*
X168506894Y-89644082D01*
X168673917Y-89811105D01*
X168867421Y-89946600D01*
X169081507Y-90046429D01*
X169081516Y-90046433D01*
X169120583Y-90056901D01*
X169180244Y-90093266D01*
X169210773Y-90156113D01*
X169202479Y-90225488D01*
X169157993Y-90279366D01*
X169133284Y-90292302D01*
X169052373Y-90323647D01*
X169052357Y-90323655D01*
X168878960Y-90431017D01*
X168878958Y-90431019D01*
X168728237Y-90568418D01*
X168605327Y-90731178D01*
X168524365Y-90893772D01*
X168476862Y-90945009D01*
X168413365Y-90962500D01*
X166845944Y-90962500D01*
X166778905Y-90942815D01*
X166758263Y-90926181D01*
X166382013Y-90549931D01*
X166382008Y-90549927D01*
X166302090Y-90503787D01*
X166302089Y-90503786D01*
X166302088Y-90503786D01*
X166212944Y-90479900D01*
X166212943Y-90479900D01*
X164804499Y-90479900D01*
X164737460Y-90460215D01*
X164691705Y-90407411D01*
X164681648Y-90361183D01*
X164680900Y-90361223D01*
X164680854Y-90361229D01*
X164680853Y-90361226D01*
X164680676Y-90361236D01*
X164680499Y-90357935D01*
X164680499Y-90357928D01*
X164674665Y-90303655D01*
X164674091Y-90298316D01*
X164623797Y-90163471D01*
X164623793Y-90163464D01*
X164537547Y-90048255D01*
X164537544Y-90048252D01*
X164422335Y-89962006D01*
X164422328Y-89962002D01*
X164287482Y-89911708D01*
X164287483Y-89911708D01*
X164227883Y-89905301D01*
X164227881Y-89905300D01*
X164227873Y-89905300D01*
X164227864Y-89905300D01*
X163432129Y-89905300D01*
X163432123Y-89905301D01*
X163372516Y-89911708D01*
X163237671Y-89962002D01*
X163237664Y-89962006D01*
X163122455Y-90048252D01*
X163122452Y-90048255D01*
X163036206Y-90163464D01*
X163036202Y-90163471D01*
X162985908Y-90298317D01*
X162982501Y-90330011D01*
X162979501Y-90357923D01*
X162979500Y-90357935D01*
X162979500Y-91353670D01*
X162979501Y-91353676D01*
X162985908Y-91413283D01*
X163036202Y-91548128D01*
X163036206Y-91548135D01*
X163122452Y-91663344D01*
X163122455Y-91663347D01*
X163237664Y-91749593D01*
X163237671Y-91749597D01*
X163366833Y-91797771D01*
X163422767Y-91839642D01*
X163447184Y-91905106D01*
X163447500Y-91913953D01*
X163447500Y-92887623D01*
X163427815Y-92954662D01*
X163375011Y-93000417D01*
X163347865Y-93007866D01*
X163348068Y-93008724D01*
X163340520Y-93010507D01*
X163205671Y-93060802D01*
X163205664Y-93060806D01*
X163090455Y-93147052D01*
X163090452Y-93147055D01*
X163004206Y-93262264D01*
X163004202Y-93262271D01*
X162953908Y-93397117D01*
X162947911Y-93452901D01*
X162947501Y-93456723D01*
X162947500Y-93456735D01*
X162947500Y-94452470D01*
X162947501Y-94452476D01*
X162953908Y-94512083D01*
X163004202Y-94646928D01*
X163004206Y-94646935D01*
X163090452Y-94762144D01*
X163090455Y-94762147D01*
X163205664Y-94848393D01*
X163205671Y-94848397D01*
X163340517Y-94898691D01*
X163340516Y-94898691D01*
X163347444Y-94899435D01*
X163400127Y-94905100D01*
X164195872Y-94905099D01*
X164255483Y-94898691D01*
X164390331Y-94848396D01*
X164505546Y-94762146D01*
X164591796Y-94646931D01*
X164642091Y-94512083D01*
X164648500Y-94452473D01*
X164648499Y-93456728D01*
X164642091Y-93397117D01*
X164625636Y-93353000D01*
X164591797Y-93262271D01*
X164591793Y-93262264D01*
X164505547Y-93147055D01*
X164505544Y-93147052D01*
X164390335Y-93060806D01*
X164390328Y-93060802D01*
X164255482Y-93010508D01*
X164247938Y-93008726D01*
X164248474Y-93006453D01*
X164194688Y-92984171D01*
X164154843Y-92926777D01*
X164148500Y-92887624D01*
X164148500Y-91926216D01*
X164168185Y-91859177D01*
X164220989Y-91813422D01*
X164259246Y-91802926D01*
X164287483Y-91799891D01*
X164422331Y-91749596D01*
X164537546Y-91663346D01*
X164623796Y-91548131D01*
X164674091Y-91413283D01*
X164680500Y-91353673D01*
X164680500Y-91304900D01*
X164700185Y-91237861D01*
X164752989Y-91192106D01*
X164804500Y-91180900D01*
X165970256Y-91180900D01*
X166037295Y-91200585D01*
X166057937Y-91217219D01*
X166434187Y-91593469D01*
X166434188Y-91593470D01*
X166434190Y-91593471D01*
X166465122Y-91611329D01*
X166465124Y-91611331D01*
X166465125Y-91611331D01*
X166514112Y-91639614D01*
X166603256Y-91663500D01*
X168413365Y-91663500D01*
X168480404Y-91683185D01*
X168524365Y-91732228D01*
X168605327Y-91894821D01*
X168728237Y-92057581D01*
X168878958Y-92194980D01*
X168878960Y-92194982D01*
X168978141Y-92256392D01*
X169052363Y-92302348D01*
X169133283Y-92333696D01*
X169188685Y-92376269D01*
X169212276Y-92442035D01*
X169196565Y-92510116D01*
X169146542Y-92558895D01*
X169120586Y-92569097D01*
X169081519Y-92579565D01*
X169081507Y-92579570D01*
X168867422Y-92679399D01*
X168867420Y-92679400D01*
X168673926Y-92814886D01*
X168673920Y-92814891D01*
X168506891Y-92981920D01*
X168506886Y-92981926D01*
X168371400Y-93175420D01*
X168371399Y-93175422D01*
X168271570Y-93389507D01*
X168271567Y-93389513D01*
X168214364Y-93602999D01*
X168214364Y-93603000D01*
X169111988Y-93603000D01*
X169079075Y-93660007D01*
X169045000Y-93787174D01*
X169045000Y-93918826D01*
X169079075Y-94045993D01*
X169111988Y-94103000D01*
X168214364Y-94103000D01*
X168271567Y-94316486D01*
X168271570Y-94316492D01*
X168371399Y-94530578D01*
X168506894Y-94724082D01*
X168673917Y-94891105D01*
X168867421Y-95026600D01*
X168930723Y-95056118D01*
X168983162Y-95102290D01*
X169002314Y-95169484D01*
X168982098Y-95236365D01*
X168928933Y-95281700D01*
X168878318Y-95292500D01*
X168670323Y-95292500D01*
X168597264Y-95307032D01*
X168597260Y-95307033D01*
X168514399Y-95362399D01*
X168459033Y-95445260D01*
X168459032Y-95445264D01*
X168444500Y-95518321D01*
X168444500Y-95918500D01*
X168424815Y-95985539D01*
X168372011Y-96031294D01*
X168320500Y-96042500D01*
X155092500Y-96042500D01*
X155025461Y-96022815D01*
X154979706Y-95970011D01*
X154968500Y-95918500D01*
X154968500Y-95046976D01*
X154988185Y-94979937D01*
X155040989Y-94934182D01*
X155068135Y-94926736D01*
X155067932Y-94925876D01*
X155075479Y-94924092D01*
X155075481Y-94924091D01*
X155075483Y-94924091D01*
X155210331Y-94873796D01*
X155325546Y-94787546D01*
X155411796Y-94672331D01*
X155462091Y-94537483D01*
X155468500Y-94477873D01*
X155468499Y-93482135D01*
X155767500Y-93482135D01*
X155767500Y-94477870D01*
X155767501Y-94477876D01*
X155773908Y-94537483D01*
X155824202Y-94672328D01*
X155824206Y-94672335D01*
X155910452Y-94787544D01*
X155910455Y-94787547D01*
X156025664Y-94873793D01*
X156025671Y-94873797D01*
X156160517Y-94924091D01*
X156160516Y-94924091D01*
X156167444Y-94924835D01*
X156220127Y-94930500D01*
X157015872Y-94930499D01*
X157075483Y-94924091D01*
X157210331Y-94873796D01*
X157325546Y-94787546D01*
X157334338Y-94775801D01*
X157345869Y-94760398D01*
X157357448Y-94747033D01*
X157403870Y-94700613D01*
X157450014Y-94620688D01*
X157473900Y-94531544D01*
X157473900Y-94479100D01*
X157493585Y-94412061D01*
X157546389Y-94366306D01*
X157597900Y-94355100D01*
X159562452Y-94355100D01*
X159629491Y-94374785D01*
X159637938Y-94380724D01*
X159700143Y-94428455D01*
X159742375Y-94460861D01*
X159876291Y-94516330D01*
X159991851Y-94531544D01*
X160019999Y-94535250D01*
X160020000Y-94535250D01*
X160020001Y-94535250D01*
X160034977Y-94533278D01*
X160163709Y-94516330D01*
X160297625Y-94460861D01*
X160412621Y-94372621D01*
X160500861Y-94257625D01*
X160556330Y-94123709D01*
X160575250Y-93980000D01*
X160556330Y-93836291D01*
X160500861Y-93702375D01*
X160412621Y-93587379D01*
X160297625Y-93499139D01*
X160297624Y-93499138D01*
X160297622Y-93499137D01*
X160163712Y-93443671D01*
X160163710Y-93443670D01*
X160163709Y-93443670D01*
X160091854Y-93434210D01*
X160020001Y-93424750D01*
X160019999Y-93424750D01*
X159876291Y-93443670D01*
X159876287Y-93443671D01*
X159742377Y-93499137D01*
X159734085Y-93505500D01*
X159627379Y-93587379D01*
X159615394Y-93602999D01*
X159613407Y-93605588D01*
X159556978Y-93646790D01*
X159515032Y-93654100D01*
X157592499Y-93654100D01*
X157525460Y-93634415D01*
X157479705Y-93581611D01*
X157468499Y-93530100D01*
X157468499Y-93482129D01*
X157468498Y-93482123D01*
X157468497Y-93482116D01*
X157462091Y-93422517D01*
X157452617Y-93397117D01*
X157411797Y-93287671D01*
X157411793Y-93287664D01*
X157325547Y-93172455D01*
X157325544Y-93172452D01*
X157210335Y-93086206D01*
X157210328Y-93086202D01*
X157075482Y-93035908D01*
X157075483Y-93035908D01*
X157015883Y-93029501D01*
X157015881Y-93029500D01*
X157015873Y-93029500D01*
X157015864Y-93029500D01*
X156220129Y-93029500D01*
X156220123Y-93029501D01*
X156160516Y-93035908D01*
X156025671Y-93086202D01*
X156025664Y-93086206D01*
X155910455Y-93172452D01*
X155910452Y-93172455D01*
X155824206Y-93287664D01*
X155824202Y-93287671D01*
X155773908Y-93422517D01*
X155770230Y-93456735D01*
X155767501Y-93482123D01*
X155767500Y-93482135D01*
X155468499Y-93482135D01*
X155468499Y-93482128D01*
X155462091Y-93422517D01*
X155452617Y-93397117D01*
X155411797Y-93287671D01*
X155411793Y-93287664D01*
X155325547Y-93172455D01*
X155325544Y-93172452D01*
X155210335Y-93086206D01*
X155210328Y-93086202D01*
X155075482Y-93035908D01*
X155075483Y-93035908D01*
X155015883Y-93029501D01*
X155015881Y-93029500D01*
X155015873Y-93029500D01*
X155015864Y-93029500D01*
X154220129Y-93029500D01*
X154220123Y-93029501D01*
X154160516Y-93035908D01*
X154025671Y-93086202D01*
X154025664Y-93086206D01*
X153910455Y-93172452D01*
X153910452Y-93172455D01*
X153824206Y-93287664D01*
X153824202Y-93287671D01*
X153773908Y-93422517D01*
X153770230Y-93456735D01*
X153767501Y-93482123D01*
X153767500Y-93482135D01*
X153767500Y-93505500D01*
X153747815Y-93572539D01*
X153695011Y-93618294D01*
X153643500Y-93629500D01*
X153612544Y-93629500D01*
X153545505Y-93609815D01*
X153524863Y-93593181D01*
X152873663Y-92941981D01*
X152840178Y-92880658D01*
X152845162Y-92810966D01*
X152887034Y-92755033D01*
X152952498Y-92730616D01*
X152961344Y-92730300D01*
X161323500Y-92730300D01*
X161390539Y-92749985D01*
X161436294Y-92802789D01*
X161447500Y-92854300D01*
X161447500Y-92887623D01*
X161427815Y-92954662D01*
X161375011Y-93000417D01*
X161347865Y-93007866D01*
X161348068Y-93008724D01*
X161340520Y-93010507D01*
X161205671Y-93060802D01*
X161205664Y-93060806D01*
X161090455Y-93147052D01*
X161090452Y-93147055D01*
X161004206Y-93262264D01*
X161004202Y-93262271D01*
X160953908Y-93397117D01*
X160947911Y-93452901D01*
X160947501Y-93456723D01*
X160947500Y-93456735D01*
X160947500Y-94452470D01*
X160947501Y-94452476D01*
X160953908Y-94512083D01*
X161004202Y-94646928D01*
X161004206Y-94646935D01*
X161090452Y-94762144D01*
X161090455Y-94762147D01*
X161205664Y-94848393D01*
X161205671Y-94848397D01*
X161340517Y-94898691D01*
X161340516Y-94898691D01*
X161347444Y-94899435D01*
X161400127Y-94905100D01*
X162195872Y-94905099D01*
X162255483Y-94898691D01*
X162390331Y-94848396D01*
X162505546Y-94762146D01*
X162591796Y-94646931D01*
X162642091Y-94512083D01*
X162648500Y-94452473D01*
X162648499Y-93456728D01*
X162642091Y-93397117D01*
X162625636Y-93353000D01*
X162591797Y-93262271D01*
X162591793Y-93262264D01*
X162505547Y-93147055D01*
X162505544Y-93147052D01*
X162390335Y-93060806D01*
X162390328Y-93060802D01*
X162255482Y-93010508D01*
X162247938Y-93008726D01*
X162248474Y-93006453D01*
X162194688Y-92984171D01*
X162154843Y-92926777D01*
X162148500Y-92887624D01*
X162148500Y-92536858D01*
X162148500Y-92536856D01*
X162124614Y-92447712D01*
X162111790Y-92425500D01*
X162078470Y-92367788D01*
X161810012Y-92099330D01*
X161810011Y-92099329D01*
X161810008Y-92099327D01*
X161730090Y-92053187D01*
X161730085Y-92053185D01*
X161718471Y-92050073D01*
X161658812Y-92013707D01*
X161628283Y-91950860D01*
X161636580Y-91881484D01*
X161681066Y-91827607D01*
X161747618Y-91806334D01*
X161750516Y-91806299D01*
X162227872Y-91806299D01*
X162287483Y-91799891D01*
X162422331Y-91749596D01*
X162537546Y-91663346D01*
X162623796Y-91548131D01*
X162674091Y-91413283D01*
X162680500Y-91353673D01*
X162680499Y-90357928D01*
X162674665Y-90303655D01*
X162674091Y-90298316D01*
X162623797Y-90163471D01*
X162623793Y-90163464D01*
X162537547Y-90048255D01*
X162537544Y-90048252D01*
X162422335Y-89962006D01*
X162422328Y-89962002D01*
X162287482Y-89911708D01*
X162279938Y-89909926D01*
X162280474Y-89907653D01*
X162226688Y-89885371D01*
X162186843Y-89827977D01*
X162180500Y-89788824D01*
X162180500Y-88925576D01*
X162200185Y-88858537D01*
X162252989Y-88812782D01*
X162280135Y-88805336D01*
X162279932Y-88804476D01*
X162287479Y-88802692D01*
X162287481Y-88802691D01*
X162287483Y-88802691D01*
X162422331Y-88752396D01*
X162537546Y-88666146D01*
X162623796Y-88550931D01*
X162674091Y-88416083D01*
X162680500Y-88356473D01*
X162680499Y-88107343D01*
X162700183Y-88040305D01*
X162716814Y-88019667D01*
X162767820Y-87968661D01*
X162829142Y-87935177D01*
X162898834Y-87940161D01*
X162954767Y-87982033D01*
X162979184Y-88047497D01*
X162979500Y-88056343D01*
X162979500Y-88356469D01*
X162979501Y-88356476D01*
X162985908Y-88416083D01*
X163036202Y-88550928D01*
X163036206Y-88550935D01*
X163122452Y-88666144D01*
X163122455Y-88666147D01*
X163237664Y-88752393D01*
X163237671Y-88752397D01*
X163372517Y-88802691D01*
X163372516Y-88802691D01*
X163379444Y-88803435D01*
X163432127Y-88809100D01*
X164227872Y-88809099D01*
X164287483Y-88802691D01*
X164422331Y-88752396D01*
X164537546Y-88666146D01*
X164623796Y-88550931D01*
X164674091Y-88416083D01*
X164680500Y-88356473D01*
X164680499Y-87360728D01*
X164674123Y-87301412D01*
X164674091Y-87301116D01*
X164623797Y-87166271D01*
X164623793Y-87166264D01*
X164537547Y-87051055D01*
X164537544Y-87051052D01*
X164422335Y-86964806D01*
X164422328Y-86964802D01*
X164287482Y-86914508D01*
X164279938Y-86912726D01*
X164280474Y-86910453D01*
X164226688Y-86888171D01*
X164186843Y-86830777D01*
X164180500Y-86791624D01*
X164180500Y-85876525D01*
X164200185Y-85809486D01*
X164252989Y-85763731D01*
X164275988Y-85755847D01*
X164280876Y-85754691D01*
X164280883Y-85754691D01*
X164415731Y-85704396D01*
X164530946Y-85618146D01*
X164617196Y-85502931D01*
X164667491Y-85368083D01*
X164673900Y-85308473D01*
X164673900Y-85308445D01*
X164674078Y-85305148D01*
X164675449Y-85305221D01*
X164693585Y-85243461D01*
X164746389Y-85197706D01*
X164797900Y-85186500D01*
X165665456Y-85186500D01*
X165732495Y-85206185D01*
G37*
%TD.AperFunction*%
%TA.AperFunction,Conductor*%
G36*
X145234695Y-93715185D02*
G01*
X145255337Y-93731819D01*
X146418988Y-94895470D01*
X146479662Y-94930500D01*
X146498912Y-94941614D01*
X146588056Y-94965500D01*
X148385275Y-94965500D01*
X148452314Y-94985185D01*
X148498069Y-95037989D01*
X148499836Y-95042048D01*
X148529056Y-95112594D01*
X148644024Y-95284657D01*
X148707586Y-95348219D01*
X148741071Y-95409542D01*
X148736087Y-95479234D01*
X148694215Y-95535167D01*
X148628751Y-95559584D01*
X148619905Y-95559900D01*
X143480095Y-95559900D01*
X143413056Y-95540215D01*
X143367301Y-95487411D01*
X143357357Y-95418253D01*
X143386382Y-95354697D01*
X143392414Y-95348219D01*
X143455974Y-95284658D01*
X143455975Y-95284657D01*
X143455977Y-95284655D01*
X143570941Y-95112598D01*
X143650130Y-94921420D01*
X143690500Y-94718465D01*
X143690500Y-94511535D01*
X143650130Y-94308580D01*
X143570941Y-94117402D01*
X143455977Y-93945345D01*
X143455975Y-93945342D01*
X143417814Y-93907181D01*
X143384329Y-93845858D01*
X143389313Y-93776166D01*
X143431185Y-93720233D01*
X143496649Y-93695816D01*
X143505495Y-93695500D01*
X145167656Y-93695500D01*
X145234695Y-93715185D01*
G37*
%TD.AperFunction*%
%TA.AperFunction,Conductor*%
G36*
X153557236Y-89905185D02*
G01*
X153602991Y-89957989D01*
X153612935Y-90027147D01*
X153595736Y-90074597D01*
X153580143Y-90099875D01*
X153580141Y-90099880D01*
X153524994Y-90266302D01*
X153524993Y-90266309D01*
X153514500Y-90369013D01*
X153514500Y-90644000D01*
X154728000Y-90644000D01*
X154795039Y-90663685D01*
X154840794Y-90716489D01*
X154852000Y-90768000D01*
X154852000Y-91020000D01*
X154832315Y-91087039D01*
X154779511Y-91132794D01*
X154728000Y-91144000D01*
X153514501Y-91144000D01*
X153514501Y-91418986D01*
X153524994Y-91521697D01*
X153580141Y-91688119D01*
X153580143Y-91688124D01*
X153673947Y-91840203D01*
X153692387Y-91907596D01*
X153671465Y-91974259D01*
X153617823Y-92019029D01*
X153568408Y-92029300D01*
X152977544Y-92029300D01*
X152910505Y-92009615D01*
X152889863Y-91992981D01*
X151421413Y-90524531D01*
X151421408Y-90524527D01*
X151341490Y-90478387D01*
X151341489Y-90478386D01*
X151341488Y-90478386D01*
X151252344Y-90454500D01*
X151252343Y-90454500D01*
X151125495Y-90454500D01*
X151058456Y-90434815D01*
X151012701Y-90382011D01*
X151002757Y-90312853D01*
X151031782Y-90249297D01*
X151037814Y-90242819D01*
X151075974Y-90204658D01*
X151075975Y-90204657D01*
X151075977Y-90204655D01*
X151190941Y-90032598D01*
X151212320Y-89980986D01*
X151220164Y-89962048D01*
X151264005Y-89907644D01*
X151330299Y-89885579D01*
X151334725Y-89885500D01*
X153490197Y-89885500D01*
X153557236Y-89905185D01*
G37*
%TD.AperFunction*%
%TA.AperFunction,Conductor*%
G36*
X160915940Y-85206185D02*
G01*
X160961695Y-85258989D01*
X160971751Y-85305216D01*
X160972499Y-85305176D01*
X160972546Y-85305171D01*
X160972546Y-85305173D01*
X160972724Y-85305164D01*
X160972901Y-85308476D01*
X160979308Y-85368083D01*
X161029602Y-85502928D01*
X161029606Y-85502935D01*
X161115852Y-85618144D01*
X161115855Y-85618147D01*
X161231064Y-85704393D01*
X161231071Y-85704397D01*
X161365917Y-85754691D01*
X161365916Y-85754691D01*
X161368744Y-85754995D01*
X161425527Y-85761100D01*
X162221272Y-85761099D01*
X162248646Y-85758156D01*
X162317405Y-85770562D01*
X162368542Y-85818173D01*
X162385900Y-85881446D01*
X162385900Y-86787044D01*
X162366215Y-86854083D01*
X162313411Y-86899838D01*
X162248648Y-86910333D01*
X162227873Y-86908100D01*
X162227865Y-86908100D01*
X161432129Y-86908100D01*
X161432123Y-86908101D01*
X161372516Y-86914508D01*
X161237671Y-86964802D01*
X161237664Y-86964806D01*
X161122455Y-87051052D01*
X161122452Y-87051055D01*
X161036206Y-87166264D01*
X161036202Y-87166271D01*
X160985908Y-87301117D01*
X160979932Y-87356706D01*
X160979501Y-87360723D01*
X160979500Y-87360735D01*
X160979500Y-88356470D01*
X160979501Y-88356476D01*
X160985908Y-88416083D01*
X161036202Y-88550928D01*
X161036206Y-88550935D01*
X161122452Y-88666144D01*
X161122455Y-88666147D01*
X161237664Y-88752393D01*
X161237671Y-88752397D01*
X161372517Y-88802691D01*
X161380062Y-88804474D01*
X161379523Y-88806751D01*
X161433287Y-88829008D01*
X161473147Y-88886393D01*
X161479500Y-88925575D01*
X161479500Y-89788823D01*
X161459815Y-89855862D01*
X161407011Y-89901617D01*
X161379865Y-89909066D01*
X161380068Y-89909924D01*
X161372520Y-89911707D01*
X161237671Y-89962002D01*
X161237664Y-89962006D01*
X161122455Y-90048252D01*
X161122452Y-90048255D01*
X161036206Y-90163464D01*
X161036202Y-90163471D01*
X160985908Y-90298317D01*
X160982501Y-90330011D01*
X160979501Y-90357923D01*
X160979322Y-90361252D01*
X160977950Y-90361178D01*
X160959815Y-90422939D01*
X160907011Y-90468694D01*
X160855500Y-90479900D01*
X160354856Y-90479900D01*
X160265712Y-90503786D01*
X160265711Y-90503786D01*
X160265709Y-90503787D01*
X160265706Y-90503788D01*
X160185794Y-90549926D01*
X160185784Y-90549934D01*
X160115876Y-90619841D01*
X160054552Y-90653326D01*
X160028127Y-90654442D01*
X160028127Y-90656150D01*
X160019999Y-90656150D01*
X159876291Y-90675070D01*
X159876287Y-90675071D01*
X159742377Y-90730537D01*
X159627379Y-90818779D01*
X159539137Y-90933777D01*
X159483671Y-91067687D01*
X159483670Y-91067691D01*
X159464750Y-91211399D01*
X159464750Y-91211400D01*
X159483670Y-91355108D01*
X159483671Y-91355112D01*
X159539137Y-91489022D01*
X159539138Y-91489024D01*
X159539139Y-91489025D01*
X159627379Y-91604021D01*
X159742375Y-91692261D01*
X159876291Y-91747730D01*
X160003280Y-91764448D01*
X160019999Y-91766650D01*
X160020000Y-91766650D01*
X160020001Y-91766650D01*
X160034977Y-91764678D01*
X160163709Y-91747730D01*
X160297625Y-91692261D01*
X160412621Y-91604021D01*
X160500861Y-91489025D01*
X160556330Y-91355109D01*
X160565071Y-91288713D01*
X160593338Y-91224818D01*
X160651662Y-91186347D01*
X160688010Y-91180900D01*
X160855501Y-91180900D01*
X160922540Y-91200585D01*
X160968295Y-91253389D01*
X160979501Y-91304900D01*
X160979501Y-91353676D01*
X160985908Y-91413283D01*
X161036202Y-91548128D01*
X161036206Y-91548135D01*
X161122452Y-91663344D01*
X161122455Y-91663347D01*
X161237664Y-91749593D01*
X161237671Y-91749597D01*
X161343632Y-91789118D01*
X161399566Y-91830989D01*
X161423983Y-91896453D01*
X161409131Y-91964726D01*
X161359726Y-92014132D01*
X161300299Y-92029300D01*
X157340176Y-92029300D01*
X157273137Y-92009615D01*
X157227382Y-91956811D01*
X157217438Y-91887653D01*
X157246463Y-91824097D01*
X157265865Y-91806034D01*
X157341259Y-91749593D01*
X157372046Y-91726546D01*
X157458296Y-91611331D01*
X157508591Y-91476483D01*
X157515000Y-91416873D01*
X157514999Y-90371128D01*
X157508591Y-90311517D01*
X157505840Y-90304142D01*
X157458297Y-90176671D01*
X157458295Y-90176668D01*
X157448414Y-90163469D01*
X157372046Y-90061454D01*
X157372044Y-90061452D01*
X157369768Y-90058412D01*
X157345350Y-89992947D01*
X157360201Y-89924674D01*
X157409606Y-89875268D01*
X157469034Y-89860100D01*
X159253342Y-89860100D01*
X159253344Y-89860100D01*
X159342488Y-89836214D01*
X159353604Y-89829796D01*
X159422412Y-89790070D01*
X159640070Y-89572412D01*
X159686214Y-89492488D01*
X159688680Y-89483281D01*
X159693994Y-89463455D01*
X159699888Y-89441452D01*
X159710100Y-89403344D01*
X159710100Y-85310500D01*
X159729785Y-85243461D01*
X159782589Y-85197706D01*
X159834100Y-85186500D01*
X160848901Y-85186500D01*
X160915940Y-85206185D01*
G37*
%TD.AperFunction*%
%TA.AperFunction,Conductor*%
G36*
X153549341Y-86907985D02*
G01*
X153595096Y-86960789D01*
X153605040Y-87029947D01*
X153587840Y-87077397D01*
X153580146Y-87089869D01*
X153580141Y-87089880D01*
X153524994Y-87256302D01*
X153524993Y-87256309D01*
X153514500Y-87359013D01*
X153514500Y-87634000D01*
X154728000Y-87634000D01*
X154795039Y-87653685D01*
X154840794Y-87706489D01*
X154852000Y-87758000D01*
X154852000Y-88010000D01*
X154832315Y-88077039D01*
X154779511Y-88122794D01*
X154728000Y-88134000D01*
X153514501Y-88134000D01*
X153514501Y-88408986D01*
X153524994Y-88511697D01*
X153580141Y-88678119D01*
X153580143Y-88678124D01*
X153672184Y-88827345D01*
X153796156Y-88951317D01*
X153802064Y-88954961D01*
X153848789Y-89006908D01*
X153860012Y-89075870D01*
X153832169Y-89139953D01*
X153774101Y-89178810D01*
X153736968Y-89184500D01*
X151334725Y-89184500D01*
X151267686Y-89164815D01*
X151221931Y-89112011D01*
X151220164Y-89107952D01*
X151190943Y-89037405D01*
X151075975Y-88865342D01*
X150929657Y-88719024D01*
X150772431Y-88613970D01*
X150757598Y-88604059D01*
X150751007Y-88601329D01*
X150566420Y-88524870D01*
X150566412Y-88524868D01*
X150363469Y-88484500D01*
X150363465Y-88484500D01*
X149356535Y-88484500D01*
X149356530Y-88484500D01*
X149153587Y-88524868D01*
X149153579Y-88524870D01*
X148962403Y-88604058D01*
X148790342Y-88719024D01*
X148644024Y-88865342D01*
X148529058Y-89037403D01*
X148449870Y-89228579D01*
X148449868Y-89228587D01*
X148409500Y-89431530D01*
X148409500Y-89638469D01*
X148449868Y-89841412D01*
X148449870Y-89841420D01*
X148482530Y-89920269D01*
X148529059Y-90032598D01*
X148545947Y-90057873D01*
X148644024Y-90204657D01*
X148682186Y-90242819D01*
X148715671Y-90304142D01*
X148710687Y-90373834D01*
X148668815Y-90429767D01*
X148603351Y-90454184D01*
X148594505Y-90454500D01*
X147643544Y-90454500D01*
X147576505Y-90434815D01*
X147555861Y-90418180D01*
X147529017Y-90391335D01*
X147495533Y-90330011D01*
X147492700Y-90303655D01*
X147492700Y-87469500D01*
X147512385Y-87402461D01*
X147565189Y-87356706D01*
X147616700Y-87345500D01*
X148385275Y-87345500D01*
X148452314Y-87365185D01*
X148498069Y-87417989D01*
X148499836Y-87422048D01*
X148529056Y-87492594D01*
X148644024Y-87664657D01*
X148790342Y-87810975D01*
X148790345Y-87810977D01*
X148962402Y-87925941D01*
X149153580Y-88005130D01*
X149330418Y-88040305D01*
X149356530Y-88045499D01*
X149356534Y-88045500D01*
X149356535Y-88045500D01*
X150363466Y-88045500D01*
X150363467Y-88045499D01*
X150566420Y-88005130D01*
X150757598Y-87925941D01*
X150929655Y-87810977D01*
X151075977Y-87664655D01*
X151190941Y-87492598D01*
X151217887Y-87427546D01*
X151220164Y-87422048D01*
X151264005Y-87367644D01*
X151330299Y-87345579D01*
X151334725Y-87345500D01*
X152014342Y-87345500D01*
X152014344Y-87345500D01*
X152103488Y-87321614D01*
X152183412Y-87275470D01*
X152534263Y-86924619D01*
X152595586Y-86891134D01*
X152621944Y-86888300D01*
X153482302Y-86888300D01*
X153549341Y-86907985D01*
G37*
%TD.AperFunction*%
%TA.AperFunction,Conductor*%
G36*
X162328894Y-83326585D02*
G01*
X162348546Y-83342239D01*
X162348591Y-83342283D01*
X162382762Y-83403226D01*
X162385900Y-83430944D01*
X162385900Y-83739753D01*
X162366215Y-83806792D01*
X162313411Y-83852547D01*
X162248648Y-83863043D01*
X162240263Y-83862141D01*
X162221273Y-83860100D01*
X162221268Y-83860100D01*
X161425529Y-83860100D01*
X161425523Y-83860101D01*
X161365916Y-83866508D01*
X161231071Y-83916802D01*
X161231064Y-83916806D01*
X161115855Y-84003052D01*
X161115852Y-84003055D01*
X161029606Y-84118264D01*
X161029602Y-84118271D01*
X160979308Y-84253117D01*
X160975822Y-84285549D01*
X160972901Y-84312723D01*
X160972900Y-84312735D01*
X160972900Y-84361500D01*
X160953215Y-84428539D01*
X160900411Y-84474294D01*
X160848900Y-84485500D01*
X159516656Y-84485500D01*
X159427512Y-84509386D01*
X159427509Y-84509387D01*
X159347591Y-84555527D01*
X159347586Y-84555531D01*
X159079132Y-84823985D01*
X159079128Y-84823991D01*
X159036913Y-84897110D01*
X159032987Y-84903909D01*
X159032984Y-84903915D01*
X159009100Y-84993056D01*
X159009100Y-89035100D01*
X158989415Y-89102139D01*
X158936611Y-89147894D01*
X158885100Y-89159100D01*
X156824256Y-89159100D01*
X156735115Y-89182985D01*
X156735113Y-89182985D01*
X156735112Y-89182986D01*
X156735109Y-89182987D01*
X156735106Y-89182989D01*
X156714537Y-89194864D01*
X156646637Y-89211334D01*
X156620448Y-89207250D01*
X156575152Y-89195113D01*
X156535544Y-89184500D01*
X156535543Y-89184500D01*
X155467032Y-89184500D01*
X155399993Y-89164815D01*
X155354238Y-89112011D01*
X155344294Y-89042853D01*
X155373319Y-88979297D01*
X155401936Y-88954961D01*
X155407843Y-88951317D01*
X155531815Y-88827345D01*
X155623856Y-88678124D01*
X155623859Y-88678117D01*
X155654430Y-88585860D01*
X155694202Y-88528415D01*
X155758718Y-88501591D01*
X155827494Y-88513906D01*
X155878694Y-88561448D01*
X155888318Y-88581529D01*
X155895703Y-88601329D01*
X155895706Y-88601335D01*
X155981952Y-88716544D01*
X155981955Y-88716547D01*
X156097164Y-88802793D01*
X156097171Y-88802797D01*
X156123943Y-88812782D01*
X156232017Y-88853091D01*
X156291627Y-88859500D01*
X157062372Y-88859499D01*
X157121983Y-88853091D01*
X157256831Y-88802796D01*
X157372046Y-88716546D01*
X157458296Y-88601331D01*
X157508591Y-88466483D01*
X157515000Y-88406873D01*
X157514999Y-87361128D01*
X157508591Y-87301517D01*
X157508441Y-87301116D01*
X157458297Y-87166671D01*
X157458293Y-87166664D01*
X157372047Y-87051455D01*
X157372044Y-87051452D01*
X157256835Y-86965206D01*
X157256828Y-86965202D01*
X157114715Y-86912198D01*
X157115256Y-86910747D01*
X157062259Y-86880562D01*
X157029880Y-86818647D01*
X157027500Y-86794468D01*
X157027500Y-86755458D01*
X157027500Y-86755456D01*
X157003614Y-86666312D01*
X156998815Y-86658000D01*
X156957470Y-86586388D01*
X156628412Y-86257330D01*
X156628411Y-86257329D01*
X156628408Y-86257327D01*
X156548490Y-86211187D01*
X156548489Y-86211186D01*
X156548488Y-86211186D01*
X156459344Y-86187300D01*
X155341673Y-86187300D01*
X155274634Y-86167615D01*
X155228879Y-86114811D01*
X155218935Y-86045653D01*
X155247960Y-85982097D01*
X155276576Y-85957762D01*
X155364840Y-85903319D01*
X155364844Y-85903316D01*
X155488815Y-85779345D01*
X155580856Y-85630124D01*
X155580859Y-85630117D01*
X155611430Y-85537860D01*
X155651202Y-85480415D01*
X155715718Y-85453591D01*
X155784494Y-85465906D01*
X155835694Y-85513448D01*
X155845318Y-85533529D01*
X155852703Y-85553329D01*
X155852706Y-85553335D01*
X155938952Y-85668544D01*
X155938955Y-85668547D01*
X156054164Y-85754793D01*
X156054171Y-85754797D01*
X156073961Y-85762178D01*
X156189017Y-85805091D01*
X156248627Y-85811500D01*
X157019372Y-85811499D01*
X157078983Y-85805091D01*
X157213831Y-85754796D01*
X157329046Y-85668546D01*
X157415296Y-85553331D01*
X157465591Y-85418483D01*
X157472000Y-85358873D01*
X157471999Y-84313128D01*
X157466337Y-84260454D01*
X157465591Y-84253516D01*
X157415297Y-84118671D01*
X157415293Y-84118664D01*
X157329047Y-84003455D01*
X157329044Y-84003452D01*
X157213835Y-83917206D01*
X157213828Y-83917202D01*
X157071715Y-83864198D01*
X157072256Y-83862747D01*
X157019259Y-83832562D01*
X156986880Y-83770647D01*
X156984500Y-83746468D01*
X156984500Y-83430900D01*
X157004185Y-83363861D01*
X157056989Y-83318106D01*
X157108500Y-83306900D01*
X162261855Y-83306900D01*
X162328894Y-83326585D01*
G37*
%TD.AperFunction*%
%TA.AperFunction,Conductor*%
G36*
X156211395Y-83305085D02*
G01*
X156232037Y-83321719D01*
X156247181Y-83336863D01*
X156280666Y-83398186D01*
X156283500Y-83424544D01*
X156283500Y-83746468D01*
X156263815Y-83813507D01*
X156211011Y-83859262D01*
X156192532Y-83865597D01*
X156054171Y-83917202D01*
X156054164Y-83917206D01*
X155938955Y-84003452D01*
X155938952Y-84003455D01*
X155852706Y-84118664D01*
X155852701Y-84118674D01*
X155845317Y-84138471D01*
X155803445Y-84194404D01*
X155737980Y-84218820D01*
X155669707Y-84203967D01*
X155620303Y-84154561D01*
X155611430Y-84134140D01*
X155580858Y-84041880D01*
X155580856Y-84041875D01*
X155488815Y-83892654D01*
X155364845Y-83768684D01*
X155215624Y-83676643D01*
X155215619Y-83676641D01*
X155049197Y-83621494D01*
X155049190Y-83621493D01*
X154946486Y-83611000D01*
X154809000Y-83611000D01*
X154809000Y-84962000D01*
X154789315Y-85029039D01*
X154736511Y-85074794D01*
X154685000Y-85086000D01*
X153471501Y-85086000D01*
X153471501Y-85360986D01*
X153481994Y-85463697D01*
X153537141Y-85630119D01*
X153537143Y-85630124D01*
X153629184Y-85779345D01*
X153753155Y-85903316D01*
X153753159Y-85903319D01*
X153841424Y-85957762D01*
X153888149Y-86009710D01*
X153899370Y-86078672D01*
X153871527Y-86142754D01*
X153813458Y-86181610D01*
X153776327Y-86187300D01*
X152379256Y-86187300D01*
X152290111Y-86211186D01*
X152210187Y-86257331D01*
X152210184Y-86257333D01*
X151859337Y-86608181D01*
X151798014Y-86641666D01*
X151771656Y-86644500D01*
X151334725Y-86644500D01*
X151267686Y-86624815D01*
X151221931Y-86572011D01*
X151220164Y-86567952D01*
X151190943Y-86497405D01*
X151075975Y-86325342D01*
X150929657Y-86179024D01*
X150836335Y-86116669D01*
X150757598Y-86064059D01*
X150713162Y-86045653D01*
X150566420Y-85984870D01*
X150566414Y-85984868D01*
X150513617Y-85974366D01*
X150451706Y-85941981D01*
X150417132Y-85881265D01*
X150420873Y-85811495D01*
X150461739Y-85754823D01*
X150518413Y-85730275D01*
X150564422Y-85722988D01*
X150759031Y-85659755D01*
X150941349Y-85566859D01*
X151106894Y-85446582D01*
X151106895Y-85446582D01*
X151251582Y-85301895D01*
X151251582Y-85301894D01*
X151371859Y-85136349D01*
X151464755Y-84954029D01*
X151527990Y-84759413D01*
X151536609Y-84705000D01*
X150175686Y-84705000D01*
X150180080Y-84700606D01*
X150232741Y-84609394D01*
X150260000Y-84507661D01*
X150260000Y-84402339D01*
X150235530Y-84311013D01*
X153471500Y-84311013D01*
X153471500Y-84586000D01*
X154309000Y-84586000D01*
X154309000Y-83611000D01*
X154171527Y-83611000D01*
X154171512Y-83611001D01*
X154068802Y-83621494D01*
X153902380Y-83676641D01*
X153902375Y-83676643D01*
X153753154Y-83768684D01*
X153629184Y-83892654D01*
X153537143Y-84041875D01*
X153537141Y-84041880D01*
X153481994Y-84208302D01*
X153481993Y-84208309D01*
X153471500Y-84311013D01*
X150235530Y-84311013D01*
X150232741Y-84300606D01*
X150180080Y-84209394D01*
X150175686Y-84205000D01*
X151536609Y-84205000D01*
X151527990Y-84150586D01*
X151464755Y-83955970D01*
X151371859Y-83773650D01*
X151251582Y-83608105D01*
X151251582Y-83608104D01*
X151140559Y-83497081D01*
X151107074Y-83435758D01*
X151112058Y-83366066D01*
X151153930Y-83310133D01*
X151219394Y-83285716D01*
X151228240Y-83285400D01*
X154512856Y-83285400D01*
X156144356Y-83285400D01*
X156211395Y-83305085D01*
G37*
%TD.AperFunction*%
%TA.AperFunction,Conductor*%
G36*
X177242539Y-72148185D02*
G01*
X177288294Y-72200989D01*
X177299500Y-72252500D01*
X177299500Y-111135500D01*
X177279815Y-111202539D01*
X177227011Y-111248294D01*
X177175500Y-111259500D01*
X98160500Y-111259500D01*
X98093461Y-111239815D01*
X98047706Y-111187011D01*
X98036500Y-111135500D01*
X98036500Y-104647996D01*
X101642916Y-104647996D01*
X101642916Y-104648003D01*
X101663235Y-104996869D01*
X101663236Y-104996880D01*
X101723914Y-105341002D01*
X101723916Y-105341011D01*
X101824145Y-105675800D01*
X101962555Y-105996670D01*
X101962561Y-105996683D01*
X102137289Y-106299322D01*
X102345967Y-106579625D01*
X102354148Y-106588296D01*
X103604319Y-105338124D01*
X103694554Y-105462320D01*
X103833680Y-105601446D01*
X103957873Y-105691678D01*
X102710818Y-106938733D01*
X102710819Y-106938734D01*
X102853484Y-107058445D01*
X103145461Y-107250480D01*
X103457739Y-107407314D01*
X103457745Y-107407316D01*
X103786130Y-107526838D01*
X103786133Y-107526839D01*
X104126171Y-107607429D01*
X104473276Y-107647999D01*
X104473277Y-107648000D01*
X104822723Y-107648000D01*
X104822723Y-107647999D01*
X105169827Y-107607429D01*
X105169829Y-107607429D01*
X105509866Y-107526839D01*
X105509869Y-107526838D01*
X105838254Y-107407316D01*
X105838260Y-107407314D01*
X106150538Y-107250480D01*
X106442509Y-107058449D01*
X106442510Y-107058448D01*
X106585179Y-106938734D01*
X106585180Y-106938733D01*
X105338126Y-105691678D01*
X105462320Y-105601446D01*
X105601446Y-105462320D01*
X105691678Y-105338126D01*
X106941849Y-106588297D01*
X106941851Y-106588296D01*
X106950022Y-106579636D01*
X106950033Y-106579623D01*
X107158710Y-106299322D01*
X107333438Y-105996683D01*
X107333444Y-105996670D01*
X107471854Y-105675800D01*
X107572083Y-105341011D01*
X107572085Y-105341002D01*
X107632763Y-104996880D01*
X107632764Y-104996869D01*
X107653084Y-104648003D01*
X107653084Y-104647996D01*
X107632764Y-104299130D01*
X107632763Y-104299119D01*
X107572085Y-103954997D01*
X107572083Y-103954988D01*
X107471854Y-103620199D01*
X107333444Y-103299329D01*
X107333438Y-103299316D01*
X107158710Y-102996677D01*
X106950032Y-102716374D01*
X106941850Y-102707702D01*
X105691678Y-103957873D01*
X105601446Y-103833680D01*
X105462320Y-103694554D01*
X105338125Y-103604320D01*
X106585180Y-102357265D01*
X106585179Y-102357264D01*
X106442519Y-102237557D01*
X106150538Y-102045519D01*
X105838260Y-101888685D01*
X105838254Y-101888683D01*
X105509869Y-101769161D01*
X105509866Y-101769160D01*
X105169828Y-101688570D01*
X104822723Y-101648000D01*
X104473277Y-101648000D01*
X104126172Y-101688570D01*
X104126170Y-101688570D01*
X103786133Y-101769160D01*
X103786130Y-101769161D01*
X103457745Y-101888683D01*
X103457739Y-101888685D01*
X103145461Y-102045519D01*
X102853480Y-102237557D01*
X102710819Y-102357264D01*
X102710818Y-102357265D01*
X103957874Y-103604320D01*
X103833680Y-103694554D01*
X103694554Y-103833680D01*
X103604320Y-103957873D01*
X102354148Y-102707701D01*
X102354147Y-102707702D01*
X102345976Y-102716363D01*
X102345972Y-102716368D01*
X102137289Y-102996677D01*
X101962561Y-103299316D01*
X101962555Y-103299329D01*
X101824145Y-103620199D01*
X101723916Y-103954988D01*
X101723914Y-103954997D01*
X101663236Y-104299119D01*
X101663235Y-104299130D01*
X101642916Y-104647996D01*
X98036500Y-104647996D01*
X98036500Y-101242120D01*
X112533499Y-101242120D01*
X112562340Y-101387107D01*
X112562343Y-101387117D01*
X112618913Y-101523690D01*
X112618918Y-101523699D01*
X112625270Y-101533205D01*
X112625271Y-101533206D01*
X112701048Y-101646616D01*
X112830984Y-101776552D01*
X112830987Y-101776554D01*
X112830989Y-101776556D01*
X112830990Y-101776557D01*
X112862765Y-101797787D01*
X112862767Y-101797788D01*
X112953905Y-101858684D01*
X112953906Y-101858684D01*
X112953907Y-101858685D01*
X112980058Y-101869517D01*
X113090487Y-101915258D01*
X113090491Y-101915258D01*
X113090492Y-101915259D01*
X113235479Y-101944100D01*
X113235482Y-101944100D01*
X113235483Y-101944100D01*
X113383317Y-101944100D01*
X113949682Y-101944100D01*
X114097517Y-101944100D01*
X114949500Y-101944100D01*
X115016539Y-101963785D01*
X115062294Y-102016589D01*
X115073500Y-102068100D01*
X115073500Y-104061518D01*
X115073500Y-104061520D01*
X115073499Y-104061520D01*
X115102340Y-104206507D01*
X115102343Y-104206517D01*
X115158914Y-104343092D01*
X115158915Y-104343094D01*
X115158916Y-104343095D01*
X115172549Y-104363499D01*
X115191812Y-104392327D01*
X115191813Y-104392330D01*
X115241046Y-104466014D01*
X115241052Y-104466021D01*
X115632122Y-104857089D01*
X115749048Y-104974015D01*
X115749049Y-104974016D01*
X115853584Y-105078551D01*
X115853585Y-105078552D01*
X115976498Y-105160680D01*
X115976511Y-105160687D01*
X116093382Y-105209096D01*
X116113087Y-105217258D01*
X116113091Y-105217258D01*
X116113092Y-105217259D01*
X116258079Y-105246100D01*
X116258082Y-105246100D01*
X118255769Y-105246100D01*
X118322808Y-105265785D01*
X118343450Y-105282418D01*
X118419181Y-105358148D01*
X118452666Y-105419471D01*
X118455500Y-105445830D01*
X118455500Y-106394396D01*
X118435815Y-106461435D01*
X118419181Y-106482077D01*
X118351988Y-106549269D01*
X118351988Y-106549270D01*
X118351986Y-106549272D01*
X118319119Y-106594510D01*
X118250168Y-106689411D01*
X118186585Y-106814200D01*
X118138610Y-106864996D01*
X118070789Y-106881791D01*
X118004654Y-106859253D01*
X117961203Y-106804538D01*
X117958168Y-106796222D01*
X117942493Y-106747978D01*
X117846020Y-106558642D01*
X117721127Y-106386740D01*
X117721123Y-106386735D01*
X117570864Y-106236476D01*
X117570859Y-106236472D01*
X117398957Y-106111579D01*
X117209615Y-106015103D01*
X117007524Y-105949441D01*
X116941400Y-105938968D01*
X116941400Y-106987054D01*
X116874743Y-106948570D01*
X116753935Y-106916200D01*
X116628865Y-106916200D01*
X116508057Y-106948570D01*
X116441400Y-106987054D01*
X116441400Y-105938968D01*
X116441399Y-105938968D01*
X116375275Y-105949441D01*
X116173184Y-106015103D01*
X115983842Y-106111579D01*
X115811940Y-106236472D01*
X115811935Y-106236476D01*
X115661676Y-106386735D01*
X115661672Y-106386740D01*
X115541718Y-106551844D01*
X115486388Y-106594510D01*
X115416775Y-106600489D01*
X115354980Y-106567884D01*
X115341082Y-106551844D01*
X115221127Y-106386740D01*
X115221123Y-106386735D01*
X115070864Y-106236476D01*
X115070859Y-106236472D01*
X114898957Y-106111579D01*
X114709615Y-106015103D01*
X114507524Y-105949441D01*
X114441400Y-105938968D01*
X114441400Y-106987054D01*
X114374743Y-106948570D01*
X114253935Y-106916200D01*
X114128865Y-106916200D01*
X114008057Y-106948570D01*
X113941400Y-106987054D01*
X113941400Y-105938968D01*
X113941399Y-105938968D01*
X113875275Y-105949441D01*
X113673184Y-106015103D01*
X113483842Y-106111579D01*
X113311940Y-106236472D01*
X113311935Y-106236476D01*
X113161676Y-106386735D01*
X113161672Y-106386740D01*
X113036779Y-106558642D01*
X112940304Y-106747982D01*
X112874642Y-106950069D01*
X112874642Y-106950072D01*
X112844370Y-107141200D01*
X113787254Y-107141200D01*
X113748770Y-107207857D01*
X113716400Y-107328665D01*
X113716400Y-107453735D01*
X113748770Y-107574543D01*
X113787254Y-107641200D01*
X112844370Y-107641200D01*
X112874642Y-107832327D01*
X112874642Y-107832330D01*
X112940304Y-108034417D01*
X113036779Y-108223757D01*
X113161672Y-108395659D01*
X113161676Y-108395664D01*
X113311935Y-108545923D01*
X113311940Y-108545927D01*
X113483842Y-108670820D01*
X113673182Y-108767295D01*
X113875271Y-108832957D01*
X113941400Y-108843431D01*
X113941400Y-107795345D01*
X114008057Y-107833830D01*
X114128865Y-107866200D01*
X114253935Y-107866200D01*
X114374743Y-107833830D01*
X114441400Y-107795345D01*
X114441400Y-108843430D01*
X114507526Y-108832957D01*
X114507529Y-108832957D01*
X114709617Y-108767295D01*
X114898957Y-108670820D01*
X115070859Y-108545927D01*
X115070864Y-108545923D01*
X115221127Y-108395660D01*
X115341082Y-108230555D01*
X115396411Y-108187889D01*
X115466025Y-108181910D01*
X115527820Y-108214515D01*
X115541718Y-108230555D01*
X115661672Y-108395660D01*
X115811935Y-108545923D01*
X115811940Y-108545927D01*
X115983842Y-108670820D01*
X116173182Y-108767295D01*
X116375271Y-108832957D01*
X116441400Y-108843431D01*
X116441400Y-107795345D01*
X116508057Y-107833830D01*
X116628865Y-107866200D01*
X116753935Y-107866200D01*
X116874743Y-107833830D01*
X116941400Y-107795345D01*
X116941400Y-108843430D01*
X117007526Y-108832957D01*
X117007529Y-108832957D01*
X117209617Y-108767295D01*
X117398957Y-108670820D01*
X117570859Y-108545927D01*
X117570864Y-108545923D01*
X117721123Y-108395664D01*
X117721127Y-108395659D01*
X117846020Y-108223757D01*
X117942494Y-108034419D01*
X117958168Y-107986178D01*
X117997605Y-107928502D01*
X118061963Y-107901303D01*
X118130809Y-107913216D01*
X118182286Y-107960459D01*
X118186585Y-107968199D01*
X118250168Y-108092988D01*
X118351986Y-108233128D01*
X118474472Y-108355614D01*
X118614612Y-108457432D01*
X118768955Y-108536073D01*
X118933699Y-108589602D01*
X119104789Y-108616700D01*
X119104790Y-108616700D01*
X119278010Y-108616700D01*
X119278011Y-108616700D01*
X119449101Y-108589602D01*
X119613845Y-108536073D01*
X119768188Y-108457432D01*
X119908328Y-108355614D01*
X120030814Y-108233128D01*
X120060105Y-108192813D01*
X120115435Y-108150148D01*
X120160422Y-108141700D01*
X120722378Y-108141700D01*
X120789417Y-108161385D01*
X120822695Y-108192813D01*
X120850116Y-108230555D01*
X120851986Y-108233128D01*
X120974472Y-108355614D01*
X121114612Y-108457432D01*
X121268955Y-108536073D01*
X121433699Y-108589602D01*
X121604789Y-108616700D01*
X121604790Y-108616700D01*
X121778010Y-108616700D01*
X121778011Y-108616700D01*
X121949101Y-108589602D01*
X122113845Y-108536073D01*
X122268188Y-108457432D01*
X122408328Y-108355614D01*
X122530814Y-108233128D01*
X122632632Y-108092988D01*
X122711273Y-107938645D01*
X122764802Y-107773901D01*
X122791900Y-107602811D01*
X122791900Y-107179589D01*
X122764802Y-107008499D01*
X122711273Y-106843755D01*
X122632632Y-106689412D01*
X122530814Y-106549272D01*
X122408328Y-106426786D01*
X122268188Y-106324968D01*
X122113845Y-106246327D01*
X121949101Y-106192798D01*
X121949099Y-106192797D01*
X121949098Y-106192797D01*
X121817671Y-106171981D01*
X121778011Y-106165700D01*
X121604789Y-106165700D01*
X121565128Y-106171981D01*
X121433702Y-106192797D01*
X121268952Y-106246328D01*
X121114611Y-106324968D01*
X121049619Y-106372188D01*
X120974472Y-106426786D01*
X120974470Y-106426788D01*
X120974469Y-106426788D01*
X120851985Y-106549272D01*
X120822695Y-106589587D01*
X120767365Y-106632252D01*
X120722378Y-106640700D01*
X120160422Y-106640700D01*
X120093383Y-106621015D01*
X120060105Y-106589587D01*
X120030814Y-106549272D01*
X119992819Y-106511277D01*
X119959334Y-106449954D01*
X119956500Y-106423596D01*
X119956500Y-105009682D01*
X119949405Y-104974017D01*
X119949405Y-104974015D01*
X119927659Y-104864688D01*
X119873408Y-104733717D01*
X119871765Y-104729125D01*
X119871084Y-104728105D01*
X119816205Y-104645973D01*
X119788952Y-104605185D01*
X119616476Y-104432709D01*
X119096421Y-103912652D01*
X119096414Y-103912646D01*
X119022729Y-103863412D01*
X119022729Y-103863413D01*
X118973491Y-103830513D01*
X118836917Y-103773943D01*
X118836907Y-103773940D01*
X118691920Y-103745100D01*
X118691918Y-103745100D01*
X116698500Y-103745100D01*
X116631461Y-103725415D01*
X116585706Y-103672611D01*
X116574500Y-103621100D01*
X116574500Y-101742571D01*
X116594185Y-101675532D01*
X116646989Y-101629777D01*
X116716147Y-101619833D01*
X116754791Y-101632084D01*
X116818696Y-101664646D01*
X116818697Y-101664646D01*
X116818699Y-101664647D01*
X116818698Y-101664647D01*
X116912475Y-101679499D01*
X116912481Y-101679500D01*
X117275518Y-101679499D01*
X117369304Y-101664646D01*
X117482342Y-101607050D01*
X117572050Y-101517342D01*
X117629646Y-101404304D01*
X117629646Y-101404302D01*
X117629647Y-101404301D01*
X117644499Y-101310524D01*
X117644500Y-101310519D01*
X117644499Y-100609000D01*
X119958001Y-100609000D01*
X119958001Y-100758986D01*
X119968494Y-100861697D01*
X120023641Y-101028119D01*
X120023643Y-101028124D01*
X120115684Y-101177345D01*
X120239654Y-101301315D01*
X120388877Y-101393356D01*
X120389924Y-101393845D01*
X120390522Y-101394371D01*
X120395025Y-101397149D01*
X120394550Y-101397917D01*
X120442368Y-101440012D01*
X120461526Y-101507204D01*
X120441317Y-101574087D01*
X120411842Y-101605498D01*
X120350452Y-101651455D01*
X120264206Y-101766664D01*
X120264202Y-101766671D01*
X120213908Y-101901517D01*
X120207501Y-101961116D01*
X120207500Y-101961135D01*
X120207500Y-102756870D01*
X120207501Y-102756876D01*
X120213908Y-102816483D01*
X120264202Y-102951328D01*
X120264206Y-102951335D01*
X120350452Y-103066544D01*
X120350455Y-103066547D01*
X120465664Y-103152793D01*
X120465671Y-103152797D01*
X120600517Y-103203091D01*
X120600516Y-103203091D01*
X120607444Y-103203835D01*
X120660127Y-103209500D01*
X121655872Y-103209499D01*
X121715483Y-103203091D01*
X121850331Y-103152796D01*
X121965546Y-103066546D01*
X122051796Y-102951331D01*
X122102091Y-102816483D01*
X122102091Y-102816481D01*
X122103874Y-102808938D01*
X122106146Y-102809474D01*
X122128429Y-102755688D01*
X122185823Y-102715843D01*
X122224976Y-102709500D01*
X122737456Y-102709500D01*
X122829744Y-102709500D01*
X123147847Y-102709500D01*
X123214886Y-102729185D01*
X123260641Y-102781989D01*
X123264029Y-102790167D01*
X123312202Y-102919328D01*
X123312206Y-102919335D01*
X123398452Y-103034544D01*
X123398455Y-103034547D01*
X123513664Y-103120793D01*
X123513671Y-103120797D01*
X123648517Y-103171091D01*
X123648516Y-103171091D01*
X123655444Y-103171835D01*
X123708127Y-103177500D01*
X124703872Y-103177499D01*
X124763483Y-103171091D01*
X124898331Y-103120796D01*
X125013546Y-103034546D01*
X125099796Y-102919331D01*
X125150091Y-102784483D01*
X125156500Y-102724873D01*
X125156499Y-101929128D01*
X125150091Y-101869517D01*
X125123338Y-101797789D01*
X125099797Y-101734671D01*
X125099793Y-101734664D01*
X125013547Y-101619455D01*
X125013544Y-101619452D01*
X124898335Y-101533206D01*
X124898328Y-101533202D01*
X124763482Y-101482908D01*
X124763483Y-101482908D01*
X124703883Y-101476501D01*
X124703881Y-101476500D01*
X124703873Y-101476500D01*
X124703864Y-101476500D01*
X123708129Y-101476500D01*
X123708123Y-101476501D01*
X123648516Y-101482908D01*
X123513671Y-101533202D01*
X123513664Y-101533206D01*
X123398455Y-101619452D01*
X123357366Y-101674340D01*
X123301432Y-101716210D01*
X123231740Y-101721194D01*
X123170418Y-101687708D01*
X123136933Y-101626384D01*
X123134100Y-101600028D01*
X123134100Y-101053971D01*
X123153785Y-100986932D01*
X123206589Y-100941177D01*
X123275747Y-100931233D01*
X123339303Y-100960258D01*
X123357363Y-100979656D01*
X123398454Y-101034546D01*
X123444643Y-101069123D01*
X123513664Y-101120793D01*
X123513671Y-101120797D01*
X123648517Y-101171091D01*
X123648516Y-101171091D01*
X123655444Y-101171835D01*
X123708127Y-101177500D01*
X124703872Y-101177499D01*
X124763483Y-101171091D01*
X124898331Y-101120796D01*
X125013546Y-101034546D01*
X125099796Y-100919331D01*
X125150091Y-100784483D01*
X125150091Y-100784481D01*
X125151874Y-100776938D01*
X125154146Y-100777474D01*
X125176429Y-100723688D01*
X125233823Y-100683843D01*
X125272976Y-100677500D01*
X125407900Y-100677500D01*
X125474939Y-100697185D01*
X125520694Y-100749989D01*
X125531900Y-100801500D01*
X125531900Y-106537530D01*
X125512215Y-106604569D01*
X125459411Y-106650324D01*
X125390253Y-106660268D01*
X125326697Y-106631243D01*
X125288923Y-106572465D01*
X125287224Y-106566048D01*
X125285492Y-106558719D01*
X125235197Y-106423871D01*
X125235193Y-106423864D01*
X125148947Y-106308655D01*
X125148944Y-106308652D01*
X125033735Y-106222406D01*
X125033728Y-106222402D01*
X124898882Y-106172108D01*
X124898883Y-106172108D01*
X124839283Y-106165701D01*
X124839281Y-106165700D01*
X124839273Y-106165700D01*
X124839264Y-106165700D01*
X123543529Y-106165700D01*
X123543523Y-106165701D01*
X123483916Y-106172108D01*
X123349071Y-106222402D01*
X123349064Y-106222406D01*
X123233855Y-106308652D01*
X123233852Y-106308655D01*
X123147606Y-106423864D01*
X123147602Y-106423871D01*
X123097308Y-106558717D01*
X123090901Y-106618316D01*
X123090900Y-106618335D01*
X123090900Y-108164070D01*
X123090901Y-108164076D01*
X123097308Y-108223683D01*
X123147602Y-108358528D01*
X123147606Y-108358535D01*
X123233852Y-108473744D01*
X123233855Y-108473747D01*
X123349064Y-108559993D01*
X123349071Y-108559997D01*
X123483917Y-108610291D01*
X123483916Y-108610291D01*
X123490844Y-108611035D01*
X123543527Y-108616700D01*
X124839272Y-108616699D01*
X124898883Y-108610291D01*
X125033731Y-108559996D01*
X125148946Y-108473746D01*
X125235196Y-108358531D01*
X125285491Y-108223683D01*
X125291900Y-108164073D01*
X125291900Y-107865700D01*
X125311585Y-107798661D01*
X125364389Y-107752906D01*
X125415900Y-107741700D01*
X125826942Y-107741700D01*
X125826944Y-107741700D01*
X125916088Y-107717814D01*
X125996012Y-107671670D01*
X126162870Y-107504812D01*
X126209014Y-107424888D01*
X126211235Y-107416600D01*
X126232900Y-107335744D01*
X126232900Y-100436256D01*
X126209014Y-100347112D01*
X126209013Y-100347111D01*
X126209013Y-100347109D01*
X126193651Y-100320503D01*
X126193649Y-100320500D01*
X126162870Y-100267188D01*
X125942212Y-100046530D01*
X125942208Y-100046527D01*
X125862290Y-100000387D01*
X125862289Y-100000386D01*
X125862288Y-100000386D01*
X125773144Y-99976500D01*
X125773143Y-99976500D01*
X125272977Y-99976500D01*
X125205938Y-99956815D01*
X125160183Y-99904011D01*
X125152733Y-99876865D01*
X125151876Y-99877068D01*
X125150092Y-99869520D01*
X125099797Y-99734671D01*
X125099793Y-99734664D01*
X125013547Y-99619455D01*
X125013544Y-99619452D01*
X124976245Y-99591530D01*
X140789500Y-99591530D01*
X140789500Y-99798469D01*
X140829868Y-100001412D01*
X140829870Y-100001420D01*
X140909059Y-100192598D01*
X140958897Y-100267186D01*
X141024024Y-100364657D01*
X141170342Y-100510975D01*
X141170345Y-100510977D01*
X141342402Y-100625941D01*
X141533580Y-100705130D01*
X141736530Y-100745499D01*
X141736534Y-100745500D01*
X141736535Y-100745500D01*
X142743466Y-100745500D01*
X142743467Y-100745499D01*
X142946420Y-100705130D01*
X143137598Y-100625941D01*
X143309655Y-100510977D01*
X143455977Y-100364655D01*
X143570941Y-100192598D01*
X143650130Y-100001420D01*
X143690500Y-99798465D01*
X143690500Y-99591535D01*
X143690499Y-99591530D01*
X148409500Y-99591530D01*
X148409500Y-99798469D01*
X148449868Y-100001412D01*
X148449870Y-100001420D01*
X148529059Y-100192598D01*
X148578897Y-100267186D01*
X148644024Y-100364657D01*
X148790342Y-100510975D01*
X148790345Y-100510977D01*
X148962402Y-100625941D01*
X149153580Y-100705130D01*
X149356530Y-100745499D01*
X149356534Y-100745500D01*
X149356535Y-100745500D01*
X150363466Y-100745500D01*
X150363467Y-100745499D01*
X150566420Y-100705130D01*
X150757598Y-100625941D01*
X150929655Y-100510977D01*
X151075977Y-100364655D01*
X151190941Y-100192598D01*
X151270130Y-100001420D01*
X151310500Y-99798465D01*
X151310500Y-99591535D01*
X151270130Y-99388580D01*
X151190941Y-99197402D01*
X151075977Y-99025345D01*
X151075975Y-99025342D01*
X150929657Y-98879024D01*
X150843626Y-98821541D01*
X150757598Y-98764059D01*
X150566420Y-98684870D01*
X150566412Y-98684868D01*
X150363469Y-98644500D01*
X150363465Y-98644500D01*
X149356535Y-98644500D01*
X149356530Y-98644500D01*
X149153587Y-98684868D01*
X149153579Y-98684870D01*
X148962403Y-98764058D01*
X148790342Y-98879024D01*
X148644024Y-99025342D01*
X148529058Y-99197403D01*
X148449870Y-99388579D01*
X148449868Y-99388587D01*
X148409500Y-99591530D01*
X143690499Y-99591530D01*
X143650130Y-99388580D01*
X143570941Y-99197402D01*
X143455977Y-99025345D01*
X143455975Y-99025342D01*
X143309657Y-98879024D01*
X143223626Y-98821541D01*
X143137598Y-98764059D01*
X142946420Y-98684870D01*
X142946412Y-98684868D01*
X142743469Y-98644500D01*
X142743465Y-98644500D01*
X141736535Y-98644500D01*
X141736530Y-98644500D01*
X141533587Y-98684868D01*
X141533579Y-98684870D01*
X141342403Y-98764058D01*
X141170342Y-98879024D01*
X141024024Y-99025342D01*
X140909058Y-99197403D01*
X140829870Y-99388579D01*
X140829868Y-99388587D01*
X140789500Y-99591530D01*
X124976245Y-99591530D01*
X124898335Y-99533206D01*
X124898328Y-99533202D01*
X124763482Y-99482908D01*
X124763483Y-99482908D01*
X124703883Y-99476501D01*
X124703881Y-99476500D01*
X124703873Y-99476500D01*
X124703864Y-99476500D01*
X123708129Y-99476500D01*
X123708123Y-99476501D01*
X123648516Y-99482908D01*
X123513671Y-99533202D01*
X123513664Y-99533206D01*
X123398455Y-99619452D01*
X123357366Y-99674340D01*
X123301432Y-99716210D01*
X123231740Y-99721194D01*
X123170418Y-99687708D01*
X123136933Y-99626384D01*
X123134100Y-99600028D01*
X123134100Y-99495292D01*
X123153785Y-99428253D01*
X123171714Y-99408809D01*
X123170474Y-99407569D01*
X123176219Y-99401823D01*
X123176221Y-99401821D01*
X123264461Y-99286825D01*
X123319930Y-99152909D01*
X123338850Y-99009200D01*
X123319930Y-98865491D01*
X123264461Y-98731575D01*
X123176221Y-98616579D01*
X123061225Y-98528339D01*
X123061224Y-98528338D01*
X123061222Y-98528337D01*
X122927312Y-98472871D01*
X122927310Y-98472870D01*
X122927309Y-98472870D01*
X122855454Y-98463410D01*
X122783601Y-98453950D01*
X122783599Y-98453950D01*
X122639891Y-98472870D01*
X122639887Y-98472871D01*
X122505977Y-98528337D01*
X122390979Y-98616579D01*
X122302737Y-98731577D01*
X122247271Y-98865487D01*
X122247270Y-98865491D01*
X122228350Y-99009199D01*
X122228350Y-99009200D01*
X122247270Y-99152908D01*
X122247271Y-99152912D01*
X122302738Y-99286823D01*
X122302739Y-99286825D01*
X122325919Y-99317034D01*
X122351113Y-99382203D01*
X122337075Y-99450648D01*
X122288260Y-99500637D01*
X122220169Y-99516301D01*
X122154419Y-99492664D01*
X122139862Y-99480201D01*
X122076345Y-99416684D01*
X121927124Y-99324643D01*
X121927119Y-99324641D01*
X121760697Y-99269494D01*
X121760690Y-99269493D01*
X121657986Y-99259000D01*
X121408000Y-99259000D01*
X121408000Y-100485000D01*
X121388315Y-100552039D01*
X121335511Y-100597794D01*
X121284000Y-100609000D01*
X119958001Y-100609000D01*
X117644499Y-100609000D01*
X117644499Y-99959013D01*
X119958000Y-99959013D01*
X119958000Y-100109000D01*
X120908000Y-100109000D01*
X120908000Y-99259000D01*
X120658029Y-99259000D01*
X120658012Y-99259001D01*
X120555302Y-99269494D01*
X120388880Y-99324641D01*
X120388875Y-99324643D01*
X120239654Y-99416684D01*
X120115684Y-99540654D01*
X120023643Y-99689875D01*
X120023641Y-99689880D01*
X119968494Y-99856302D01*
X119968493Y-99856309D01*
X119958000Y-99959013D01*
X117644499Y-99959013D01*
X117644499Y-99597482D01*
X117629646Y-99503696D01*
X117572050Y-99390658D01*
X117572046Y-99390654D01*
X117572045Y-99390652D01*
X117480819Y-99299426D01*
X117447334Y-99238103D01*
X117444500Y-99211745D01*
X117444500Y-98010500D01*
X117464185Y-97943461D01*
X117516989Y-97897706D01*
X117568500Y-97886500D01*
X120091023Y-97886500D01*
X120158062Y-97906185D01*
X120203817Y-97958989D01*
X120211266Y-97986134D01*
X120212124Y-97985932D01*
X120213907Y-97993479D01*
X120264202Y-98128328D01*
X120264206Y-98128335D01*
X120350452Y-98243544D01*
X120350455Y-98243547D01*
X120465664Y-98329793D01*
X120465671Y-98329797D01*
X120600517Y-98380091D01*
X120600516Y-98380091D01*
X120607444Y-98380835D01*
X120660127Y-98386500D01*
X121655872Y-98386499D01*
X121715483Y-98380091D01*
X121850331Y-98329796D01*
X121965546Y-98243546D01*
X122051796Y-98128331D01*
X122102091Y-97993483D01*
X122102091Y-97993481D01*
X122103874Y-97985938D01*
X122106146Y-97986474D01*
X122128429Y-97932688D01*
X122185823Y-97892843D01*
X122224976Y-97886500D01*
X124302942Y-97886500D01*
X124302944Y-97886500D01*
X124392088Y-97862614D01*
X124472012Y-97816470D01*
X124740470Y-97548012D01*
X124786614Y-97468088D01*
X124798534Y-97423601D01*
X124810500Y-97378944D01*
X124810500Y-96810499D01*
X124830185Y-96743460D01*
X124882989Y-96697705D01*
X124934500Y-96686499D01*
X125079017Y-96686499D01*
X125079018Y-96686499D01*
X125172804Y-96671646D01*
X125186773Y-96664528D01*
X125255438Y-96651632D01*
X125320179Y-96677907D01*
X125360437Y-96735012D01*
X125363268Y-96801039D01*
X125363380Y-96801057D01*
X125363293Y-96801605D01*
X125363431Y-96804818D01*
X125361981Y-96809888D01*
X125347000Y-96904475D01*
X125347000Y-97267517D01*
X125357792Y-97335657D01*
X125361854Y-97361304D01*
X125419450Y-97474342D01*
X125419452Y-97474344D01*
X125419454Y-97474347D01*
X125509152Y-97564045D01*
X125509154Y-97564046D01*
X125509158Y-97564050D01*
X125588632Y-97604544D01*
X125622198Y-97621647D01*
X125715975Y-97636499D01*
X125715981Y-97636500D01*
X126954018Y-97636499D01*
X127047804Y-97621646D01*
X127160842Y-97564050D01*
X127199707Y-97525185D01*
X127252074Y-97472819D01*
X127313397Y-97439334D01*
X127339755Y-97436500D01*
X128340649Y-97436500D01*
X128407688Y-97456185D01*
X128453443Y-97508989D01*
X128463939Y-97547248D01*
X128468908Y-97593483D01*
X128519202Y-97728328D01*
X128519206Y-97728335D01*
X128605452Y-97843544D01*
X128605455Y-97843547D01*
X128720664Y-97929793D01*
X128720671Y-97929797D01*
X128855517Y-97980091D01*
X128855516Y-97980091D01*
X128862444Y-97980835D01*
X128915127Y-97986500D01*
X129910872Y-97986499D01*
X129970483Y-97980091D01*
X130105331Y-97929796D01*
X130220546Y-97843546D01*
X130306796Y-97728331D01*
X130357091Y-97593483D01*
X130363500Y-97533873D01*
X130363499Y-96738128D01*
X130357091Y-96678517D01*
X130356863Y-96677907D01*
X130306797Y-96543671D01*
X130306795Y-96543668D01*
X130300681Y-96535501D01*
X130243570Y-96459210D01*
X130219153Y-96393747D01*
X130234004Y-96325474D01*
X130283409Y-96276068D01*
X130342837Y-96260900D01*
X140949105Y-96260900D01*
X141016144Y-96280585D01*
X141061899Y-96333389D01*
X141071843Y-96402547D01*
X141042818Y-96466103D01*
X141036786Y-96472581D01*
X141024025Y-96485341D01*
X141024024Y-96485342D01*
X140909058Y-96657403D01*
X140829870Y-96848579D01*
X140829868Y-96848587D01*
X140789500Y-97051530D01*
X140789500Y-97258469D01*
X140829868Y-97461412D01*
X140829870Y-97461420D01*
X140902390Y-97636499D01*
X140909059Y-97652598D01*
X140966541Y-97738626D01*
X141024024Y-97824657D01*
X141170342Y-97970975D01*
X141170345Y-97970977D01*
X141342402Y-98085941D01*
X141533580Y-98165130D01*
X141736530Y-98205499D01*
X141736534Y-98205500D01*
X141736535Y-98205500D01*
X142743466Y-98205500D01*
X142743467Y-98205499D01*
X142946420Y-98165130D01*
X143137598Y-98085941D01*
X143309655Y-97970977D01*
X143455977Y-97824655D01*
X143570941Y-97652598D01*
X143650130Y-97461420D01*
X143690500Y-97258465D01*
X143690500Y-97051535D01*
X143650130Y-96848580D01*
X143570941Y-96657402D01*
X143455977Y-96485345D01*
X143455975Y-96485342D01*
X143443214Y-96472581D01*
X143409729Y-96411258D01*
X143414713Y-96341566D01*
X143456585Y-96285633D01*
X143522049Y-96261216D01*
X143530895Y-96260900D01*
X148569105Y-96260900D01*
X148636144Y-96280585D01*
X148681899Y-96333389D01*
X148691843Y-96402547D01*
X148662818Y-96466103D01*
X148656786Y-96472581D01*
X148644025Y-96485341D01*
X148644024Y-96485342D01*
X148529058Y-96657403D01*
X148449870Y-96848579D01*
X148449868Y-96848587D01*
X148409500Y-97051530D01*
X148409500Y-97258469D01*
X148449868Y-97461412D01*
X148449870Y-97461420D01*
X148522390Y-97636499D01*
X148529059Y-97652598D01*
X148586541Y-97738626D01*
X148644024Y-97824657D01*
X148790342Y-97970975D01*
X148790345Y-97970977D01*
X148962402Y-98085941D01*
X149153580Y-98165130D01*
X149356530Y-98205499D01*
X149356534Y-98205500D01*
X149356535Y-98205500D01*
X150363466Y-98205500D01*
X150363467Y-98205499D01*
X150566420Y-98165130D01*
X150757598Y-98085941D01*
X150929655Y-97970977D01*
X151075977Y-97824655D01*
X151190941Y-97652598D01*
X151197610Y-97636499D01*
X151220164Y-97582048D01*
X151264005Y-97527644D01*
X151330299Y-97505579D01*
X151334725Y-97505500D01*
X151822455Y-97505500D01*
X151889494Y-97525185D01*
X151910106Y-97541788D01*
X151911551Y-97543232D01*
X151945057Y-97604544D01*
X151947900Y-97630944D01*
X151947900Y-103830544D01*
X151960539Y-103877712D01*
X151960539Y-103877713D01*
X151971785Y-103919686D01*
X152017927Y-103999608D01*
X152017929Y-103999611D01*
X152017930Y-103999612D01*
X152311788Y-104293470D01*
X152391712Y-104339614D01*
X152480856Y-104363500D01*
X154889023Y-104363500D01*
X154956062Y-104383185D01*
X155001817Y-104435989D01*
X155009266Y-104463134D01*
X155010124Y-104462932D01*
X155011907Y-104470479D01*
X155062202Y-104605328D01*
X155062206Y-104605335D01*
X155148452Y-104720544D01*
X155148455Y-104720547D01*
X155263664Y-104806793D01*
X155263671Y-104806797D01*
X155308618Y-104823561D01*
X155398517Y-104857091D01*
X155458127Y-104863500D01*
X155481497Y-104863499D01*
X155548536Y-104883181D01*
X155594292Y-104935983D01*
X155605500Y-104987499D01*
X155605500Y-106287245D01*
X155585815Y-106354284D01*
X155533011Y-106400039D01*
X155526294Y-106402871D01*
X155463374Y-106427246D01*
X155463359Y-106427253D01*
X155289960Y-106534617D01*
X155289958Y-106534619D01*
X155139237Y-106672018D01*
X155016328Y-106834776D01*
X155001000Y-106865560D01*
X154953496Y-106916796D01*
X154885833Y-106934217D01*
X154819493Y-106912291D01*
X154775538Y-106857979D01*
X154766000Y-106810287D01*
X154766000Y-106518772D01*
X154765999Y-106518755D01*
X154759598Y-106459227D01*
X154759596Y-106459220D01*
X154709354Y-106324513D01*
X154709350Y-106324506D01*
X154623190Y-106209412D01*
X154623187Y-106209409D01*
X154508093Y-106123249D01*
X154508086Y-106123245D01*
X154373379Y-106073003D01*
X154373372Y-106073001D01*
X154313844Y-106066600D01*
X153666000Y-106066600D01*
X153666000Y-106983588D01*
X153608993Y-106950675D01*
X153481826Y-106916600D01*
X153350174Y-106916600D01*
X153223007Y-106950675D01*
X153166000Y-106983588D01*
X153166000Y-106066600D01*
X152518155Y-106066600D01*
X152458627Y-106073001D01*
X152458620Y-106073003D01*
X152323913Y-106123245D01*
X152323906Y-106123249D01*
X152208812Y-106209409D01*
X152208809Y-106209412D01*
X152122649Y-106324506D01*
X152122645Y-106324513D01*
X152072403Y-106459220D01*
X152072401Y-106459227D01*
X152066000Y-106518755D01*
X152066000Y-107166600D01*
X152982988Y-107166600D01*
X152950075Y-107223607D01*
X152916000Y-107350774D01*
X152916000Y-107482426D01*
X152950075Y-107609593D01*
X152982988Y-107666600D01*
X152066000Y-107666600D01*
X152066000Y-108314444D01*
X152072401Y-108373972D01*
X152072403Y-108373979D01*
X152122645Y-108508686D01*
X152122649Y-108508693D01*
X152208809Y-108623787D01*
X152208812Y-108623790D01*
X152323906Y-108709950D01*
X152323913Y-108709954D01*
X152458620Y-108760196D01*
X152458627Y-108760198D01*
X152518155Y-108766599D01*
X152518172Y-108766600D01*
X153166000Y-108766600D01*
X153166000Y-107849612D01*
X153223007Y-107882525D01*
X153350174Y-107916600D01*
X153481826Y-107916600D01*
X153608993Y-107882525D01*
X153666000Y-107849612D01*
X153666000Y-108766600D01*
X154313828Y-108766600D01*
X154313844Y-108766599D01*
X154373372Y-108760198D01*
X154373379Y-108760196D01*
X154508086Y-108709954D01*
X154508093Y-108709950D01*
X154623187Y-108623790D01*
X154623190Y-108623787D01*
X154709350Y-108508693D01*
X154709354Y-108508686D01*
X154759596Y-108373979D01*
X154759598Y-108373972D01*
X154765999Y-108314444D01*
X154766000Y-108314427D01*
X154766000Y-108022912D01*
X154785685Y-107955873D01*
X154838489Y-107910118D01*
X154907647Y-107900174D01*
X154971203Y-107929199D01*
X155001000Y-107967641D01*
X155016325Y-107998419D01*
X155139237Y-108161181D01*
X155289958Y-108298580D01*
X155289960Y-108298582D01*
X155382066Y-108355611D01*
X155463363Y-108405948D01*
X155653544Y-108479624D01*
X155854024Y-108517100D01*
X155854026Y-108517100D01*
X156057974Y-108517100D01*
X156057976Y-108517100D01*
X156258456Y-108479624D01*
X156448637Y-108405948D01*
X156622041Y-108298581D01*
X156750122Y-108181819D01*
X156772762Y-108161181D01*
X156781094Y-108150148D01*
X156895673Y-107998421D01*
X156986582Y-107815850D01*
X157042397Y-107619683D01*
X157061215Y-107416600D01*
X157061215Y-107416598D01*
X157390785Y-107416598D01*
X157409602Y-107619682D01*
X157465417Y-107815847D01*
X157465422Y-107815860D01*
X157556327Y-107998421D01*
X157679237Y-108161181D01*
X157829958Y-108298580D01*
X157829960Y-108298582D01*
X157922066Y-108355611D01*
X158003363Y-108405948D01*
X158193544Y-108479624D01*
X158394024Y-108517100D01*
X158394026Y-108517100D01*
X158597974Y-108517100D01*
X158597976Y-108517100D01*
X158798456Y-108479624D01*
X158988637Y-108405948D01*
X159162041Y-108298581D01*
X159290122Y-108181819D01*
X159312762Y-108161181D01*
X159321094Y-108150148D01*
X159435673Y-107998421D01*
X159526582Y-107815850D01*
X159582397Y-107619683D01*
X159601215Y-107416600D01*
X159595115Y-107350774D01*
X159582397Y-107213517D01*
X159580787Y-107207857D01*
X159526582Y-107017350D01*
X159526159Y-107016501D01*
X159450719Y-106864996D01*
X159435673Y-106834779D01*
X159325897Y-106689412D01*
X159312762Y-106672018D01*
X159162041Y-106534619D01*
X159162039Y-106534617D01*
X158988640Y-106427253D01*
X158988625Y-106427246D01*
X158925706Y-106402871D01*
X158870304Y-106360298D01*
X158846714Y-106294531D01*
X158846500Y-106287245D01*
X158846500Y-104987499D01*
X158866185Y-104920460D01*
X158918989Y-104874705D01*
X158970500Y-104863499D01*
X158993871Y-104863499D01*
X158993872Y-104863499D01*
X159053483Y-104857091D01*
X159188331Y-104806796D01*
X159303546Y-104720546D01*
X159389796Y-104605331D01*
X159440091Y-104470483D01*
X159446500Y-104410873D01*
X159446499Y-103615128D01*
X159440091Y-103555517D01*
X159399612Y-103446988D01*
X159389797Y-103420671D01*
X159389793Y-103420664D01*
X159303547Y-103305455D01*
X159303544Y-103305452D01*
X159188335Y-103219206D01*
X159188328Y-103219202D01*
X159053482Y-103168908D01*
X159053483Y-103168908D01*
X158993883Y-103162501D01*
X158993881Y-103162500D01*
X158993873Y-103162500D01*
X158993864Y-103162500D01*
X157998129Y-103162500D01*
X157998123Y-103162501D01*
X157938516Y-103168908D01*
X157803671Y-103219202D01*
X157803664Y-103219206D01*
X157688455Y-103305452D01*
X157688452Y-103305455D01*
X157602206Y-103420664D01*
X157602202Y-103420671D01*
X157551908Y-103555517D01*
X157548200Y-103590011D01*
X157545501Y-103615123D01*
X157545500Y-103615135D01*
X157545500Y-104410870D01*
X157545501Y-104410876D01*
X157551908Y-104470483D01*
X157602202Y-104605328D01*
X157602206Y-104605335D01*
X157688452Y-104720544D01*
X157688455Y-104720547D01*
X157803664Y-104806793D01*
X157803671Y-104806797D01*
X157848618Y-104823561D01*
X157938517Y-104857091D01*
X157998127Y-104863500D01*
X158021497Y-104863499D01*
X158088536Y-104883181D01*
X158134292Y-104935983D01*
X158145500Y-104987499D01*
X158145500Y-106287245D01*
X158125815Y-106354284D01*
X158073011Y-106400039D01*
X158066294Y-106402871D01*
X158003374Y-106427246D01*
X158003359Y-106427253D01*
X157829960Y-106534617D01*
X157829958Y-106534619D01*
X157679237Y-106672018D01*
X157556327Y-106834778D01*
X157465422Y-107017339D01*
X157465417Y-107017352D01*
X157409602Y-107213517D01*
X157390785Y-107416598D01*
X157061215Y-107416598D01*
X157055115Y-107350774D01*
X157042397Y-107213517D01*
X157040787Y-107207857D01*
X156986582Y-107017350D01*
X156986159Y-107016501D01*
X156910719Y-106864996D01*
X156895673Y-106834779D01*
X156785897Y-106689412D01*
X156772762Y-106672018D01*
X156622041Y-106534619D01*
X156622039Y-106534617D01*
X156448640Y-106427253D01*
X156448625Y-106427246D01*
X156385706Y-106402871D01*
X156330304Y-106360298D01*
X156306714Y-106294531D01*
X156306500Y-106287245D01*
X156306500Y-104987499D01*
X156326185Y-104920460D01*
X156378989Y-104874705D01*
X156430500Y-104863499D01*
X156453871Y-104863499D01*
X156453872Y-104863499D01*
X156513483Y-104857091D01*
X156648331Y-104806796D01*
X156763546Y-104720546D01*
X156849796Y-104605331D01*
X156900091Y-104470483D01*
X156906500Y-104410873D01*
X156906499Y-103615128D01*
X156900091Y-103555517D01*
X156859612Y-103446988D01*
X156849797Y-103420671D01*
X156849793Y-103420664D01*
X156763547Y-103305455D01*
X156763544Y-103305452D01*
X156648335Y-103219206D01*
X156648328Y-103219202D01*
X156513482Y-103168908D01*
X156513483Y-103168908D01*
X156453883Y-103162501D01*
X156453881Y-103162500D01*
X156453873Y-103162500D01*
X156453864Y-103162500D01*
X155458129Y-103162500D01*
X155458123Y-103162501D01*
X155398516Y-103168908D01*
X155263671Y-103219202D01*
X155263664Y-103219206D01*
X155148455Y-103305452D01*
X155148452Y-103305455D01*
X155062206Y-103420664D01*
X155062202Y-103420671D01*
X155011908Y-103555517D01*
X155010126Y-103563062D01*
X155007853Y-103562525D01*
X154985571Y-103616312D01*
X154928177Y-103656157D01*
X154889024Y-103662500D01*
X152772900Y-103662500D01*
X152705861Y-103642815D01*
X152660106Y-103590011D01*
X152648900Y-103538500D01*
X152648900Y-101615135D01*
X155005500Y-101615135D01*
X155005500Y-102410870D01*
X155005501Y-102410876D01*
X155011908Y-102470483D01*
X155062202Y-102605328D01*
X155062206Y-102605335D01*
X155148452Y-102720544D01*
X155148455Y-102720547D01*
X155263664Y-102806793D01*
X155263671Y-102806797D01*
X155398517Y-102857091D01*
X155398516Y-102857091D01*
X155405444Y-102857835D01*
X155458127Y-102863500D01*
X156453872Y-102863499D01*
X156513483Y-102857091D01*
X156648331Y-102806796D01*
X156763546Y-102720546D01*
X156849796Y-102605331D01*
X156900091Y-102470483D01*
X156900091Y-102470481D01*
X156901874Y-102462938D01*
X156904146Y-102463474D01*
X156926429Y-102409688D01*
X156983823Y-102369843D01*
X157022976Y-102363500D01*
X157429023Y-102363500D01*
X157496062Y-102383185D01*
X157541817Y-102435989D01*
X157549266Y-102463134D01*
X157550124Y-102462932D01*
X157551907Y-102470479D01*
X157602202Y-102605328D01*
X157602206Y-102605335D01*
X157688452Y-102720544D01*
X157688455Y-102720547D01*
X157803664Y-102806793D01*
X157803671Y-102806797D01*
X157938517Y-102857091D01*
X157938516Y-102857091D01*
X157945444Y-102857835D01*
X157998127Y-102863500D01*
X158993872Y-102863499D01*
X159053483Y-102857091D01*
X159188331Y-102806796D01*
X159303546Y-102720546D01*
X159389796Y-102605331D01*
X159440091Y-102470483D01*
X159440091Y-102470480D01*
X159441963Y-102465462D01*
X159483833Y-102409528D01*
X159549297Y-102385110D01*
X159617570Y-102399961D01*
X159633630Y-102410418D01*
X159646200Y-102420063D01*
X159742373Y-102493860D01*
X159742374Y-102493860D01*
X159742375Y-102493861D01*
X159876291Y-102549330D01*
X160003280Y-102566048D01*
X160019999Y-102568250D01*
X160020000Y-102568250D01*
X160020001Y-102568250D01*
X160034977Y-102566278D01*
X160163709Y-102549330D01*
X160297625Y-102493861D01*
X160412621Y-102405621D01*
X160412623Y-102405617D01*
X160412627Y-102405615D01*
X160418372Y-102399871D01*
X160420888Y-102402387D01*
X160464183Y-102370797D01*
X160506092Y-102363500D01*
X160541256Y-102363500D01*
X160608295Y-102383185D01*
X160628937Y-102399819D01*
X160649181Y-102420063D01*
X160682666Y-102481386D01*
X160685500Y-102507744D01*
X160685500Y-106287245D01*
X160665815Y-106354284D01*
X160613011Y-106400039D01*
X160606294Y-106402871D01*
X160543374Y-106427246D01*
X160543359Y-106427253D01*
X160369960Y-106534617D01*
X160369958Y-106534619D01*
X160219237Y-106672018D01*
X160096327Y-106834778D01*
X160005422Y-107017339D01*
X160005417Y-107017352D01*
X159949602Y-107213517D01*
X159930785Y-107416598D01*
X159949602Y-107619682D01*
X160005417Y-107815847D01*
X160005422Y-107815860D01*
X160096327Y-107998421D01*
X160219237Y-108161181D01*
X160369958Y-108298580D01*
X160369960Y-108298582D01*
X160462066Y-108355611D01*
X160543363Y-108405948D01*
X160733544Y-108479624D01*
X160934024Y-108517100D01*
X160934026Y-108517100D01*
X161137974Y-108517100D01*
X161137976Y-108517100D01*
X161338456Y-108479624D01*
X161528637Y-108405948D01*
X161702041Y-108298581D01*
X161830122Y-108181819D01*
X161852762Y-108161181D01*
X161861094Y-108150148D01*
X161975673Y-107998421D01*
X162066582Y-107815850D01*
X162122397Y-107619683D01*
X162141215Y-107416600D01*
X162135115Y-107350774D01*
X162122397Y-107213517D01*
X162120787Y-107207857D01*
X162066582Y-107017350D01*
X162066159Y-107016501D01*
X161990719Y-106864996D01*
X161975673Y-106834779D01*
X161865897Y-106689412D01*
X161852762Y-106672018D01*
X161702041Y-106534619D01*
X161702039Y-106534617D01*
X161528640Y-106427253D01*
X161528625Y-106427246D01*
X161465706Y-106402871D01*
X161410304Y-106360298D01*
X161386714Y-106294531D01*
X161386500Y-106287245D01*
X161386500Y-104139996D01*
X166666916Y-104139996D01*
X166666916Y-104140003D01*
X166687235Y-104488869D01*
X166687236Y-104488880D01*
X166747914Y-104833002D01*
X166747916Y-104833011D01*
X166848145Y-105167800D01*
X166986555Y-105488670D01*
X166986561Y-105488683D01*
X167161289Y-105791322D01*
X167369967Y-106071625D01*
X167378148Y-106080296D01*
X168628320Y-104830125D01*
X168718554Y-104954320D01*
X168857680Y-105093446D01*
X168981873Y-105183678D01*
X167734818Y-106430733D01*
X167734819Y-106430734D01*
X167877484Y-106550445D01*
X168169461Y-106742480D01*
X168481739Y-106899314D01*
X168481745Y-106899316D01*
X168810130Y-107018838D01*
X168810133Y-107018839D01*
X169150171Y-107099429D01*
X169497276Y-107139999D01*
X169497277Y-107140000D01*
X169846723Y-107140000D01*
X169846723Y-107139999D01*
X170193827Y-107099429D01*
X170193829Y-107099429D01*
X170533866Y-107018839D01*
X170533869Y-107018838D01*
X170862254Y-106899316D01*
X170862260Y-106899314D01*
X171174538Y-106742480D01*
X171466509Y-106550449D01*
X171466510Y-106550448D01*
X171609179Y-106430734D01*
X171609180Y-106430733D01*
X170362126Y-105183678D01*
X170486320Y-105093446D01*
X170625446Y-104954320D01*
X170715678Y-104830126D01*
X171965849Y-106080297D01*
X171965851Y-106080296D01*
X171974022Y-106071636D01*
X171974033Y-106071623D01*
X172182710Y-105791322D01*
X172357438Y-105488683D01*
X172357444Y-105488670D01*
X172495854Y-105167800D01*
X172596083Y-104833011D01*
X172596085Y-104833002D01*
X172656763Y-104488880D01*
X172656764Y-104488869D01*
X172677084Y-104140003D01*
X172677084Y-104139996D01*
X172656764Y-103791130D01*
X172656763Y-103791119D01*
X172596085Y-103446997D01*
X172596083Y-103446988D01*
X172495854Y-103112199D01*
X172357444Y-102791329D01*
X172357438Y-102791316D01*
X172182710Y-102488677D01*
X171974032Y-102208374D01*
X171965850Y-102199702D01*
X170715678Y-103449873D01*
X170625446Y-103325680D01*
X170486320Y-103186554D01*
X170362125Y-103096320D01*
X171609180Y-101849265D01*
X171609179Y-101849264D01*
X171466519Y-101729557D01*
X171174538Y-101537519D01*
X170862260Y-101380685D01*
X170862254Y-101380683D01*
X170533869Y-101261161D01*
X170533866Y-101261160D01*
X170193828Y-101180570D01*
X169846723Y-101140000D01*
X169497277Y-101140000D01*
X169150172Y-101180570D01*
X169150170Y-101180570D01*
X168810133Y-101261160D01*
X168810130Y-101261161D01*
X168481745Y-101380683D01*
X168481739Y-101380685D01*
X168169461Y-101537519D01*
X167877480Y-101729557D01*
X167734819Y-101849264D01*
X167734818Y-101849265D01*
X168981874Y-103096320D01*
X168857680Y-103186554D01*
X168718554Y-103325680D01*
X168628320Y-103449873D01*
X167378148Y-102199701D01*
X167378147Y-102199702D01*
X167369976Y-102208363D01*
X167369972Y-102208368D01*
X167161289Y-102488677D01*
X166986561Y-102791316D01*
X166986555Y-102791329D01*
X166848145Y-103112199D01*
X166747916Y-103446988D01*
X166747914Y-103446997D01*
X166687236Y-103791119D01*
X166687235Y-103791130D01*
X166666916Y-104139996D01*
X161386500Y-104139996D01*
X161386500Y-102265058D01*
X161386500Y-102265056D01*
X161362614Y-102175912D01*
X161340901Y-102138304D01*
X161316469Y-102095987D01*
X160953012Y-101732530D01*
X160953011Y-101732529D01*
X160953008Y-101732527D01*
X160873091Y-101686387D01*
X160873087Y-101686385D01*
X160867726Y-101684949D01*
X160867726Y-101684948D01*
X160799276Y-101666608D01*
X160783944Y-101662500D01*
X160783943Y-101662500D01*
X160506092Y-101662500D01*
X160439053Y-101642815D01*
X160419587Y-101624913D01*
X160418372Y-101626129D01*
X160412627Y-101620384D01*
X160412621Y-101620379D01*
X160297625Y-101532139D01*
X160297624Y-101532138D01*
X160297622Y-101532137D01*
X160163712Y-101476671D01*
X160163710Y-101476670D01*
X160163709Y-101476670D01*
X160091854Y-101467210D01*
X160020001Y-101457750D01*
X160019999Y-101457750D01*
X159876291Y-101476670D01*
X159876287Y-101476671D01*
X159742376Y-101532138D01*
X159742374Y-101532139D01*
X159633631Y-101615581D01*
X159568462Y-101640775D01*
X159500017Y-101626737D01*
X159450028Y-101577923D01*
X159441963Y-101560537D01*
X159437870Y-101549564D01*
X159411877Y-101479872D01*
X159389798Y-101420673D01*
X159389793Y-101420664D01*
X159303547Y-101305455D01*
X159303544Y-101305452D01*
X159188335Y-101219206D01*
X159188328Y-101219202D01*
X159053482Y-101168908D01*
X159053483Y-101168908D01*
X158993883Y-101162501D01*
X158993881Y-101162500D01*
X158993873Y-101162500D01*
X158993864Y-101162500D01*
X157998129Y-101162500D01*
X157998123Y-101162501D01*
X157938516Y-101168908D01*
X157803671Y-101219202D01*
X157803664Y-101219206D01*
X157688455Y-101305452D01*
X157688452Y-101305455D01*
X157602206Y-101420664D01*
X157602202Y-101420671D01*
X157551908Y-101555517D01*
X157550126Y-101563062D01*
X157547853Y-101562525D01*
X157525571Y-101616312D01*
X157468177Y-101656157D01*
X157429024Y-101662500D01*
X157022977Y-101662500D01*
X156955938Y-101642815D01*
X156910183Y-101590011D01*
X156902733Y-101562865D01*
X156901876Y-101563068D01*
X156900092Y-101555520D01*
X156891769Y-101533206D01*
X156863626Y-101457750D01*
X156849797Y-101420671D01*
X156849793Y-101420664D01*
X156763547Y-101305455D01*
X156763544Y-101305452D01*
X156648335Y-101219206D01*
X156648328Y-101219202D01*
X156513482Y-101168908D01*
X156513483Y-101168908D01*
X156453883Y-101162501D01*
X156453881Y-101162500D01*
X156453873Y-101162500D01*
X156453864Y-101162500D01*
X155458129Y-101162500D01*
X155458123Y-101162501D01*
X155398516Y-101168908D01*
X155263671Y-101219202D01*
X155263664Y-101219206D01*
X155148455Y-101305452D01*
X155148452Y-101305455D01*
X155062206Y-101420664D01*
X155062202Y-101420671D01*
X155011908Y-101555517D01*
X155005501Y-101615116D01*
X155005500Y-101615135D01*
X152648900Y-101615135D01*
X152648900Y-97388258D01*
X152648900Y-97388256D01*
X152625014Y-97299112D01*
X152625011Y-97299106D01*
X152578873Y-97219194D01*
X152578870Y-97219191D01*
X152578869Y-97219188D01*
X152513612Y-97153931D01*
X152234212Y-96874530D01*
X152154406Y-96828454D01*
X152154290Y-96828387D01*
X152154289Y-96828386D01*
X152154288Y-96828386D01*
X152065144Y-96804500D01*
X152065143Y-96804500D01*
X151334725Y-96804500D01*
X151267686Y-96784815D01*
X151221931Y-96732011D01*
X151220164Y-96727952D01*
X151190943Y-96657405D01*
X151075975Y-96485342D01*
X151063214Y-96472581D01*
X151029729Y-96411258D01*
X151034713Y-96341566D01*
X151076585Y-96285633D01*
X151142049Y-96261216D01*
X151150895Y-96260900D01*
X153309742Y-96260900D01*
X153309744Y-96260900D01*
X153398888Y-96237014D01*
X153418557Y-96225658D01*
X153478812Y-96190870D01*
X153675724Y-95993956D01*
X153737043Y-95960474D01*
X153763471Y-95959544D01*
X153763471Y-95957650D01*
X153771600Y-95957650D01*
X153915309Y-95938730D01*
X154049225Y-95883261D01*
X154068012Y-95868844D01*
X154133180Y-95843649D01*
X154201626Y-95857686D01*
X154251616Y-95906499D01*
X154267500Y-95967219D01*
X154267500Y-96193344D01*
X154285602Y-96260900D01*
X154285601Y-96260900D01*
X154285602Y-96260902D01*
X154291385Y-96282486D01*
X154337527Y-96362408D01*
X154337529Y-96362411D01*
X154337530Y-96362412D01*
X154648588Y-96673470D01*
X154719907Y-96714646D01*
X154728512Y-96719614D01*
X154817656Y-96743500D01*
X154817657Y-96743500D01*
X154909944Y-96743500D01*
X168320500Y-96743500D01*
X168387539Y-96763185D01*
X168433294Y-96815989D01*
X168444500Y-96867500D01*
X168444500Y-97267678D01*
X168459032Y-97340735D01*
X168459033Y-97340739D01*
X168459034Y-97340740D01*
X168514399Y-97423601D01*
X168580980Y-97468088D01*
X168597260Y-97478966D01*
X168597264Y-97478967D01*
X168670321Y-97493499D01*
X168670324Y-97493500D01*
X168670326Y-97493500D01*
X170419676Y-97493500D01*
X170419677Y-97493499D01*
X170492740Y-97478966D01*
X170575601Y-97423601D01*
X170630966Y-97340740D01*
X170645500Y-97267674D01*
X170645500Y-95518326D01*
X170645500Y-95518323D01*
X170645499Y-95518321D01*
X170630967Y-95445264D01*
X170630966Y-95445260D01*
X170626934Y-95439226D01*
X170575601Y-95362399D01*
X170492740Y-95307034D01*
X170492739Y-95307033D01*
X170492735Y-95307032D01*
X170419677Y-95292500D01*
X170419674Y-95292500D01*
X170211682Y-95292500D01*
X170144643Y-95272815D01*
X170098888Y-95220011D01*
X170088944Y-95150853D01*
X170117969Y-95087297D01*
X170159277Y-95056118D01*
X170222578Y-95026600D01*
X170416082Y-94891105D01*
X170583105Y-94724082D01*
X170718600Y-94530578D01*
X170818429Y-94316492D01*
X170818432Y-94316486D01*
X170875636Y-94103000D01*
X169978012Y-94103000D01*
X170010925Y-94045993D01*
X170045000Y-93918826D01*
X170045000Y-93787174D01*
X170010925Y-93660007D01*
X169978012Y-93603000D01*
X170875636Y-93603000D01*
X170875635Y-93602999D01*
X170818432Y-93389513D01*
X170818429Y-93389507D01*
X170718600Y-93175422D01*
X170718599Y-93175420D01*
X170583113Y-92981926D01*
X170583108Y-92981920D01*
X170416082Y-92814894D01*
X170222578Y-92679399D01*
X170008492Y-92579570D01*
X170008477Y-92579564D01*
X169969414Y-92569097D01*
X169909754Y-92532732D01*
X169879226Y-92469885D01*
X169887521Y-92400509D01*
X169932007Y-92346632D01*
X169956710Y-92333698D01*
X170037637Y-92302348D01*
X170211041Y-92194981D01*
X170361764Y-92057579D01*
X170484673Y-91894821D01*
X170575582Y-91712250D01*
X170631397Y-91516083D01*
X170650215Y-91313000D01*
X170649464Y-91304900D01*
X170631397Y-91109917D01*
X170624440Y-91085466D01*
X170575582Y-90913750D01*
X170565634Y-90893772D01*
X170528292Y-90818779D01*
X170484673Y-90731179D01*
X170387360Y-90602315D01*
X170361762Y-90568418D01*
X170211041Y-90431019D01*
X170211039Y-90431017D01*
X170037642Y-90323655D01*
X170037635Y-90323651D01*
X169972237Y-90298316D01*
X169956714Y-90292302D01*
X169901313Y-90249730D01*
X169877723Y-90183963D01*
X169893434Y-90115883D01*
X169943458Y-90067104D01*
X169969417Y-90056901D01*
X170008481Y-90046434D01*
X170008492Y-90046429D01*
X170222578Y-89946600D01*
X170416082Y-89811105D01*
X170583105Y-89644082D01*
X170718600Y-89450578D01*
X170818429Y-89236492D01*
X170818432Y-89236486D01*
X170875636Y-89023000D01*
X169978012Y-89023000D01*
X170010925Y-88965993D01*
X170045000Y-88838826D01*
X170045000Y-88707174D01*
X170010925Y-88580007D01*
X169978012Y-88523000D01*
X170875636Y-88523000D01*
X170875635Y-88522999D01*
X170818432Y-88309513D01*
X170818429Y-88309507D01*
X170718600Y-88095422D01*
X170718599Y-88095420D01*
X170583113Y-87901926D01*
X170583108Y-87901920D01*
X170416082Y-87734894D01*
X170222578Y-87599399D01*
X170008492Y-87499570D01*
X170008477Y-87499564D01*
X169969414Y-87489097D01*
X169909754Y-87452732D01*
X169879226Y-87389885D01*
X169887521Y-87320509D01*
X169932007Y-87266632D01*
X169956710Y-87253698D01*
X170037637Y-87222348D01*
X170211041Y-87114981D01*
X170361764Y-86977579D01*
X170484673Y-86814821D01*
X170575582Y-86632250D01*
X170631397Y-86436083D01*
X170650215Y-86233000D01*
X170645213Y-86179024D01*
X170631397Y-86029917D01*
X170626428Y-86012452D01*
X170575582Y-85833750D01*
X170567988Y-85818500D01*
X170516712Y-85715522D01*
X170484673Y-85651179D01*
X170410779Y-85553328D01*
X170361762Y-85488418D01*
X170211041Y-85351019D01*
X170211039Y-85351017D01*
X170037642Y-85243655D01*
X170037635Y-85243651D01*
X169910760Y-85194500D01*
X169847456Y-85169976D01*
X169646976Y-85132500D01*
X169443024Y-85132500D01*
X169242544Y-85169976D01*
X169242541Y-85169976D01*
X169242541Y-85169977D01*
X169052364Y-85243651D01*
X169052357Y-85243655D01*
X168878960Y-85351017D01*
X168878958Y-85351019D01*
X168728237Y-85488418D01*
X168605327Y-85651178D01*
X168524365Y-85813772D01*
X168476862Y-85865009D01*
X168413365Y-85882500D01*
X167455543Y-85882500D01*
X167388504Y-85862815D01*
X167367862Y-85846181D01*
X166734681Y-85213000D01*
X166077212Y-84555530D01*
X166077211Y-84555529D01*
X166077208Y-84555527D01*
X165997290Y-84509387D01*
X165997289Y-84509386D01*
X165997288Y-84509386D01*
X165908144Y-84485500D01*
X165908143Y-84485500D01*
X164797899Y-84485500D01*
X164730860Y-84465815D01*
X164685105Y-84413011D01*
X164673899Y-84361500D01*
X164673899Y-84312729D01*
X164673898Y-84312723D01*
X164673897Y-84312716D01*
X164668280Y-84260454D01*
X164667491Y-84253116D01*
X164617197Y-84118271D01*
X164617193Y-84118264D01*
X164530947Y-84003055D01*
X164530944Y-84003052D01*
X164415735Y-83916806D01*
X164415728Y-83916802D01*
X164280882Y-83866508D01*
X164280883Y-83866508D01*
X164221283Y-83860101D01*
X164221281Y-83860100D01*
X164221273Y-83860100D01*
X164221264Y-83860100D01*
X163425529Y-83860100D01*
X163425523Y-83860101D01*
X163365916Y-83866508D01*
X163254233Y-83908164D01*
X163184541Y-83913148D01*
X163123218Y-83879663D01*
X163089734Y-83818339D01*
X163086900Y-83791982D01*
X163086900Y-83188258D01*
X163086900Y-83188256D01*
X163063014Y-83099112D01*
X163042239Y-83063129D01*
X163016873Y-83019194D01*
X163016870Y-83019191D01*
X163016869Y-83019188D01*
X162951612Y-82953931D01*
X162673612Y-82675930D01*
X162615104Y-82642151D01*
X162593690Y-82629787D01*
X162593689Y-82629786D01*
X162593688Y-82629786D01*
X162504544Y-82605900D01*
X156824256Y-82605900D01*
X156735112Y-82629786D01*
X156735107Y-82629788D01*
X156686267Y-82657985D01*
X156618366Y-82674456D01*
X156562270Y-82657985D01*
X156476187Y-82608285D01*
X156469167Y-82606404D01*
X156467285Y-82605900D01*
X156467284Y-82605900D01*
X156427163Y-82595150D01*
X156387044Y-82584400D01*
X156387043Y-82584400D01*
X155033500Y-82584400D01*
X154966461Y-82564715D01*
X154920706Y-82511911D01*
X154909500Y-82460400D01*
X154909500Y-78853353D01*
X154929185Y-78786314D01*
X154981989Y-78740559D01*
X154988699Y-78737729D01*
X155051637Y-78713348D01*
X155225041Y-78605981D01*
X155375764Y-78468579D01*
X155498673Y-78305821D01*
X155589582Y-78123250D01*
X155645397Y-77927083D01*
X155664215Y-77724000D01*
X155664215Y-77723999D01*
X158914785Y-77723999D01*
X158914785Y-77724000D01*
X158933602Y-77927082D01*
X158989417Y-78123247D01*
X158989422Y-78123260D01*
X159080327Y-78305821D01*
X159203237Y-78468581D01*
X159353958Y-78605980D01*
X159353960Y-78605982D01*
X159425627Y-78650356D01*
X159527363Y-78713348D01*
X159717544Y-78787024D01*
X159918024Y-78824500D01*
X159918026Y-78824500D01*
X160121974Y-78824500D01*
X160121976Y-78824500D01*
X160322456Y-78787024D01*
X160443850Y-78739996D01*
X166666916Y-78739996D01*
X166666916Y-78740003D01*
X166687235Y-79088869D01*
X166687236Y-79088880D01*
X166747914Y-79433002D01*
X166747916Y-79433011D01*
X166848145Y-79767800D01*
X166986555Y-80088670D01*
X166986561Y-80088683D01*
X167161289Y-80391322D01*
X167369967Y-80671625D01*
X167378148Y-80680296D01*
X168628320Y-79430125D01*
X168718554Y-79554320D01*
X168857680Y-79693446D01*
X168981873Y-79783678D01*
X167734818Y-81030733D01*
X167734819Y-81030734D01*
X167877484Y-81150445D01*
X168169461Y-81342480D01*
X168481739Y-81499314D01*
X168481745Y-81499316D01*
X168810130Y-81618838D01*
X168810133Y-81618839D01*
X169150171Y-81699429D01*
X169497276Y-81739999D01*
X169497277Y-81740000D01*
X169846723Y-81740000D01*
X169846723Y-81739999D01*
X170193827Y-81699429D01*
X170193829Y-81699429D01*
X170533866Y-81618839D01*
X170533869Y-81618838D01*
X170862254Y-81499316D01*
X170862260Y-81499314D01*
X171174538Y-81342480D01*
X171466509Y-81150449D01*
X171466510Y-81150448D01*
X171609179Y-81030734D01*
X171609180Y-81030733D01*
X170362126Y-79783678D01*
X170486320Y-79693446D01*
X170625446Y-79554320D01*
X170715678Y-79430126D01*
X171965849Y-80680297D01*
X171965851Y-80680296D01*
X171974022Y-80671636D01*
X171974033Y-80671623D01*
X172182710Y-80391322D01*
X172357438Y-80088683D01*
X172357444Y-80088670D01*
X172495854Y-79767800D01*
X172596083Y-79433011D01*
X172596085Y-79433002D01*
X172656763Y-79088880D01*
X172656764Y-79088869D01*
X172677084Y-78740003D01*
X172677084Y-78739996D01*
X172656764Y-78391130D01*
X172656763Y-78391119D01*
X172596085Y-78046997D01*
X172596083Y-78046988D01*
X172495854Y-77712199D01*
X172357444Y-77391329D01*
X172357438Y-77391316D01*
X172182710Y-77088677D01*
X171974032Y-76808374D01*
X171965850Y-76799702D01*
X170715678Y-78049873D01*
X170625446Y-77925680D01*
X170486320Y-77786554D01*
X170362125Y-77696320D01*
X171609180Y-76449265D01*
X171609179Y-76449264D01*
X171466519Y-76329557D01*
X171174538Y-76137519D01*
X170862260Y-75980685D01*
X170862254Y-75980683D01*
X170533869Y-75861161D01*
X170533866Y-75861160D01*
X170193828Y-75780570D01*
X169846723Y-75740000D01*
X169497277Y-75740000D01*
X169150172Y-75780570D01*
X169150170Y-75780570D01*
X168810133Y-75861160D01*
X168810130Y-75861161D01*
X168481745Y-75980683D01*
X168481739Y-75980685D01*
X168169461Y-76137519D01*
X167877480Y-76329557D01*
X167734819Y-76449264D01*
X167734818Y-76449265D01*
X168981874Y-77696320D01*
X168857680Y-77786554D01*
X168718554Y-77925680D01*
X168628320Y-78049873D01*
X167378148Y-76799701D01*
X167378147Y-76799702D01*
X167369976Y-76808363D01*
X167369972Y-76808368D01*
X167161289Y-77088677D01*
X166986561Y-77391316D01*
X166986555Y-77391329D01*
X166848145Y-77712199D01*
X166747916Y-78046988D01*
X166747914Y-78046997D01*
X166687236Y-78391119D01*
X166687235Y-78391130D01*
X166666916Y-78739996D01*
X160443850Y-78739996D01*
X160512637Y-78713348D01*
X160686041Y-78605981D01*
X160836764Y-78468579D01*
X160959673Y-78305821D01*
X161050582Y-78123250D01*
X161106397Y-77927083D01*
X161125215Y-77724000D01*
X161119115Y-77658174D01*
X161106397Y-77520917D01*
X161093048Y-77474000D01*
X161050582Y-77324750D01*
X161050159Y-77323901D01*
X160963654Y-77150174D01*
X160959673Y-77142179D01*
X160836764Y-76979421D01*
X160836762Y-76979418D01*
X160686041Y-76842019D01*
X160686039Y-76842017D01*
X160512642Y-76734655D01*
X160512635Y-76734651D01*
X160386769Y-76685891D01*
X160322456Y-76660976D01*
X160121976Y-76623500D01*
X159918024Y-76623500D01*
X159717544Y-76660976D01*
X159717541Y-76660976D01*
X159717541Y-76660977D01*
X159527364Y-76734651D01*
X159527357Y-76734655D01*
X159353960Y-76842017D01*
X159353958Y-76842019D01*
X159203237Y-76979418D01*
X159080327Y-77142178D01*
X158989422Y-77324739D01*
X158989417Y-77324752D01*
X158933602Y-77520917D01*
X158914785Y-77723999D01*
X155664215Y-77723999D01*
X155658115Y-77658174D01*
X155645397Y-77520917D01*
X155632048Y-77474000D01*
X155589582Y-77324750D01*
X155589159Y-77323901D01*
X155502654Y-77150174D01*
X155498673Y-77142179D01*
X155375764Y-76979421D01*
X155375762Y-76979418D01*
X155225041Y-76842019D01*
X155225039Y-76842017D01*
X155051642Y-76734655D01*
X155051635Y-76734651D01*
X154925769Y-76685891D01*
X154861456Y-76660976D01*
X154660976Y-76623500D01*
X154457024Y-76623500D01*
X154256544Y-76660976D01*
X154256541Y-76660976D01*
X154256541Y-76660977D01*
X154066364Y-76734651D01*
X154066357Y-76734655D01*
X153892960Y-76842017D01*
X153892958Y-76842019D01*
X153742237Y-76979418D01*
X153619327Y-77142178D01*
X153528422Y-77324739D01*
X153528417Y-77324752D01*
X153472602Y-77520917D01*
X153453785Y-77723999D01*
X153453785Y-77724000D01*
X153472602Y-77927082D01*
X153528417Y-78123247D01*
X153528422Y-78123260D01*
X153619327Y-78305821D01*
X153742237Y-78468581D01*
X153892958Y-78605980D01*
X153892960Y-78605982D01*
X153964627Y-78650356D01*
X154066363Y-78713348D01*
X154066368Y-78713349D01*
X154066370Y-78713351D01*
X154073206Y-78715999D01*
X154129292Y-78737726D01*
X154184694Y-78780298D01*
X154208286Y-78846064D01*
X154208500Y-78853353D01*
X154208500Y-82460400D01*
X154188815Y-82527439D01*
X154136011Y-82573194D01*
X154084500Y-82584400D01*
X142393156Y-82584400D01*
X142312916Y-82605900D01*
X142312915Y-82605900D01*
X142304014Y-82608284D01*
X142304013Y-82608285D01*
X142224091Y-82654427D01*
X142224086Y-82654431D01*
X141959531Y-82918986D01*
X141959525Y-82918994D01*
X141923702Y-82981043D01*
X141923702Y-82981044D01*
X141913386Y-82998910D01*
X141889500Y-83088056D01*
X141889500Y-83280500D01*
X141869815Y-83347539D01*
X141817011Y-83393294D01*
X141765500Y-83404500D01*
X141015323Y-83404500D01*
X140942264Y-83419032D01*
X140942260Y-83419033D01*
X140859399Y-83474399D01*
X140804033Y-83557260D01*
X140804032Y-83557264D01*
X140789500Y-83630321D01*
X140789500Y-83980500D01*
X140769815Y-84047539D01*
X140717011Y-84093294D01*
X140665500Y-84104500D01*
X138614756Y-84104500D01*
X138547717Y-84084815D01*
X138515490Y-84054812D01*
X138499860Y-84033933D01*
X138475546Y-84001454D01*
X138475544Y-84001453D01*
X138475544Y-84001452D01*
X138360335Y-83915206D01*
X138360328Y-83915202D01*
X138225482Y-83864908D01*
X138225483Y-83864908D01*
X138165883Y-83858501D01*
X138165881Y-83858500D01*
X138165873Y-83858500D01*
X138165865Y-83858500D01*
X138142500Y-83858500D01*
X138075461Y-83838815D01*
X138029706Y-83786011D01*
X138018500Y-83734500D01*
X138018500Y-83570658D01*
X138018500Y-83570656D01*
X137994614Y-83481512D01*
X137982046Y-83459744D01*
X137948470Y-83401588D01*
X137716412Y-83169530D01*
X137716411Y-83169529D01*
X137716408Y-83169527D01*
X137636491Y-83123387D01*
X137636487Y-83123385D01*
X137631126Y-83121949D01*
X137631126Y-83121948D01*
X137562676Y-83103608D01*
X137547344Y-83099500D01*
X137547343Y-83099500D01*
X133074092Y-83099500D01*
X133007053Y-83079815D01*
X132987587Y-83061913D01*
X132986372Y-83063129D01*
X132980627Y-83057384D01*
X132980621Y-83057379D01*
X132865625Y-82969139D01*
X132865624Y-82969138D01*
X132865622Y-82969137D01*
X132731712Y-82913671D01*
X132731710Y-82913670D01*
X132731709Y-82913670D01*
X132624087Y-82899501D01*
X132588001Y-82894750D01*
X132587999Y-82894750D01*
X132444291Y-82913670D01*
X132444287Y-82913671D01*
X132310377Y-82969137D01*
X132195372Y-83057384D01*
X132189628Y-83063129D01*
X132187111Y-83060612D01*
X132143817Y-83092203D01*
X132101908Y-83099500D01*
X131952255Y-83099500D01*
X131885216Y-83079815D01*
X131864574Y-83063181D01*
X131773347Y-82971954D01*
X131773343Y-82971951D01*
X131773342Y-82971950D01*
X131737978Y-82953931D01*
X131682147Y-82925483D01*
X131631352Y-82877509D01*
X131614557Y-82809687D01*
X131637095Y-82743553D01*
X131682145Y-82704517D01*
X131773342Y-82658050D01*
X131863050Y-82568342D01*
X131920646Y-82455304D01*
X131920646Y-82455302D01*
X131920647Y-82455301D01*
X131933763Y-82372483D01*
X131935500Y-82361519D01*
X131935499Y-81998482D01*
X131920646Y-81904696D01*
X131863050Y-81791658D01*
X131863046Y-81791654D01*
X131863045Y-81791652D01*
X131773347Y-81701954D01*
X131773344Y-81701952D01*
X131773342Y-81701950D01*
X131696517Y-81662805D01*
X131660301Y-81644352D01*
X131566524Y-81629500D01*
X130053482Y-81629500D01*
X129972519Y-81642323D01*
X129959696Y-81644354D01*
X129846658Y-81701950D01*
X129846657Y-81701951D01*
X129846652Y-81701954D01*
X129756954Y-81791652D01*
X129756949Y-81791659D01*
X129727984Y-81848506D01*
X129680010Y-81899301D01*
X129612188Y-81916096D01*
X129546054Y-81893558D01*
X129502603Y-81838843D01*
X129493500Y-81792210D01*
X129493500Y-80187976D01*
X129513185Y-80120937D01*
X129565989Y-80075182D01*
X129593135Y-80067736D01*
X129592932Y-80066876D01*
X129600479Y-80065092D01*
X129600481Y-80065091D01*
X129600483Y-80065091D01*
X129735331Y-80014796D01*
X129850546Y-79928546D01*
X129936796Y-79813331D01*
X129987091Y-79678483D01*
X129993500Y-79618873D01*
X129993499Y-78623128D01*
X129987091Y-78563517D01*
X129951681Y-78468579D01*
X129936797Y-78428671D01*
X129936793Y-78428664D01*
X129850547Y-78313455D01*
X129850544Y-78313452D01*
X129735335Y-78227206D01*
X129735328Y-78227202D01*
X129600482Y-78176908D01*
X129600483Y-78176908D01*
X129540883Y-78170501D01*
X129540881Y-78170500D01*
X129540873Y-78170500D01*
X129540864Y-78170500D01*
X128745129Y-78170500D01*
X128745123Y-78170501D01*
X128685516Y-78176908D01*
X128550671Y-78227202D01*
X128550664Y-78227206D01*
X128435455Y-78313452D01*
X128435452Y-78313455D01*
X128349206Y-78428664D01*
X128349202Y-78428671D01*
X128298908Y-78563517D01*
X128294343Y-78605981D01*
X128292501Y-78623123D01*
X128292500Y-78623135D01*
X128292500Y-79618870D01*
X128292501Y-79618876D01*
X128298908Y-79678483D01*
X128349202Y-79813328D01*
X128349206Y-79813335D01*
X128435452Y-79928544D01*
X128435455Y-79928547D01*
X128550664Y-80014793D01*
X128550671Y-80014797D01*
X128685517Y-80065091D01*
X128693062Y-80066874D01*
X128692523Y-80069151D01*
X128746287Y-80091408D01*
X128786147Y-80148793D01*
X128792500Y-80187975D01*
X128792500Y-84434343D01*
X128815198Y-84519057D01*
X128815203Y-84519073D01*
X128816385Y-84523487D01*
X128862527Y-84603408D01*
X128862529Y-84603411D01*
X128862530Y-84603412D01*
X129259588Y-85000470D01*
X129339512Y-85046614D01*
X129428656Y-85070500D01*
X129667745Y-85070500D01*
X129734784Y-85090185D01*
X129755426Y-85106819D01*
X129846652Y-85198045D01*
X129846654Y-85198046D01*
X129846658Y-85198050D01*
X129937851Y-85244515D01*
X129988647Y-85292490D01*
X130005442Y-85360311D01*
X129982904Y-85426446D01*
X129937852Y-85465484D01*
X129846658Y-85511950D01*
X129846657Y-85511951D01*
X129846652Y-85511954D01*
X129756954Y-85601652D01*
X129756951Y-85601657D01*
X129756950Y-85601658D01*
X129742449Y-85630117D01*
X129699352Y-85714698D01*
X129684500Y-85808475D01*
X129684500Y-86171517D01*
X129689863Y-86205376D01*
X129699354Y-86265304D01*
X129756950Y-86378342D01*
X129756952Y-86378344D01*
X129756954Y-86378347D01*
X129846652Y-86468045D01*
X129846654Y-86468046D01*
X129846658Y-86468050D01*
X129959694Y-86525645D01*
X129959698Y-86525647D01*
X130053475Y-86540499D01*
X130053481Y-86540500D01*
X131566518Y-86540499D01*
X131660304Y-86525646D01*
X131773342Y-86468050D01*
X131863050Y-86378342D01*
X131920646Y-86265304D01*
X131920646Y-86265302D01*
X131920647Y-86265301D01*
X131932890Y-86187998D01*
X131935500Y-86171519D01*
X131935499Y-85808482D01*
X131920646Y-85714696D01*
X131863050Y-85601658D01*
X131863046Y-85601654D01*
X131863045Y-85601652D01*
X131773347Y-85511954D01*
X131773343Y-85511951D01*
X131773342Y-85511950D01*
X131755649Y-85502935D01*
X131682147Y-85465483D01*
X131631352Y-85417509D01*
X131614557Y-85349687D01*
X131637095Y-85283553D01*
X131682145Y-85244517D01*
X131773342Y-85198050D01*
X131804910Y-85166482D01*
X131864574Y-85106819D01*
X131925897Y-85073334D01*
X131952255Y-85070500D01*
X133172023Y-85070500D01*
X133239062Y-85090185D01*
X133284817Y-85142989D01*
X133292266Y-85170134D01*
X133293124Y-85169932D01*
X133294907Y-85177479D01*
X133345202Y-85312328D01*
X133345206Y-85312335D01*
X133431452Y-85427544D01*
X133431455Y-85427547D01*
X133546664Y-85513793D01*
X133546671Y-85513797D01*
X133681517Y-85564091D01*
X133681516Y-85564091D01*
X133688444Y-85564835D01*
X133741127Y-85570500D01*
X134736872Y-85570499D01*
X134796483Y-85564091D01*
X134931331Y-85513796D01*
X135046546Y-85427546D01*
X135132796Y-85312331D01*
X135183091Y-85177483D01*
X135189500Y-85117873D01*
X135189499Y-84322128D01*
X135183091Y-84262517D01*
X135179734Y-84253517D01*
X135132797Y-84127671D01*
X135132793Y-84127664D01*
X135046547Y-84012455D01*
X135046273Y-84012181D01*
X135046087Y-84011840D01*
X135041232Y-84005355D01*
X135042164Y-84004656D01*
X135012788Y-83950858D01*
X135017772Y-83881166D01*
X135059644Y-83825233D01*
X135125108Y-83800816D01*
X135133954Y-83800500D01*
X136763166Y-83800500D01*
X136830205Y-83820185D01*
X136875960Y-83872989D01*
X136885904Y-83942147D01*
X136862432Y-83998811D01*
X136774206Y-84116664D01*
X136774202Y-84116671D01*
X136723908Y-84251517D01*
X136717501Y-84311116D01*
X136717500Y-84311135D01*
X136717500Y-85106870D01*
X136717501Y-85106876D01*
X136723908Y-85166483D01*
X136774202Y-85301328D01*
X136774206Y-85301335D01*
X136860452Y-85416544D01*
X136860455Y-85416547D01*
X136975664Y-85502793D01*
X136975671Y-85502797D01*
X137110517Y-85553091D01*
X137110516Y-85553091D01*
X137112749Y-85553331D01*
X137170127Y-85559500D01*
X138165872Y-85559499D01*
X138225483Y-85553091D01*
X138360331Y-85502796D01*
X138475546Y-85416546D01*
X138561796Y-85301331D01*
X138612091Y-85166483D01*
X138618500Y-85106873D01*
X138618500Y-84929500D01*
X138638185Y-84862461D01*
X138690989Y-84816706D01*
X138742500Y-84805500D01*
X140665500Y-84805500D01*
X140732539Y-84825185D01*
X140778294Y-84877989D01*
X140789500Y-84929500D01*
X140789500Y-85279678D01*
X140804032Y-85352735D01*
X140804033Y-85352739D01*
X140814285Y-85368082D01*
X140859399Y-85435601D01*
X140915372Y-85473000D01*
X140942260Y-85490966D01*
X140942264Y-85490967D01*
X141015321Y-85505499D01*
X141015324Y-85505500D01*
X141015326Y-85505500D01*
X143464676Y-85505500D01*
X143464677Y-85505499D01*
X143537740Y-85490966D01*
X143620601Y-85435601D01*
X143675966Y-85352740D01*
X143690500Y-85279674D01*
X143690500Y-83630326D01*
X143690500Y-83630323D01*
X143690499Y-83630321D01*
X143675967Y-83557264D01*
X143675966Y-83557262D01*
X143675966Y-83557260D01*
X143675964Y-83557258D01*
X143675964Y-83557256D01*
X143623201Y-83478290D01*
X143602323Y-83411613D01*
X143620808Y-83344233D01*
X143672787Y-83297543D01*
X143726303Y-83285400D01*
X148491760Y-83285400D01*
X148558799Y-83305085D01*
X148604554Y-83357889D01*
X148614498Y-83427047D01*
X148585473Y-83490603D01*
X148579441Y-83497081D01*
X148468417Y-83608104D01*
X148468417Y-83608105D01*
X148348140Y-83773650D01*
X148255244Y-83955970D01*
X148192009Y-84150586D01*
X148183391Y-84205000D01*
X149544314Y-84205000D01*
X149539920Y-84209394D01*
X149487259Y-84300606D01*
X149460000Y-84402339D01*
X149460000Y-84507661D01*
X149487259Y-84609394D01*
X149539920Y-84700606D01*
X149544314Y-84705000D01*
X148183391Y-84705000D01*
X148192009Y-84759413D01*
X148255244Y-84954029D01*
X148348140Y-85136349D01*
X148468417Y-85301894D01*
X148468417Y-85301895D01*
X148613104Y-85446582D01*
X148778650Y-85566859D01*
X148960968Y-85659755D01*
X149155577Y-85722988D01*
X149201586Y-85730275D01*
X149264722Y-85760204D01*
X149301653Y-85819515D01*
X149300657Y-85889378D01*
X149262047Y-85947611D01*
X149206383Y-85974366D01*
X149153584Y-85984868D01*
X149153579Y-85984870D01*
X148962403Y-86064058D01*
X148790342Y-86179024D01*
X148644024Y-86325342D01*
X148529056Y-86497405D01*
X148499836Y-86567952D01*
X148455995Y-86622356D01*
X148389701Y-86644421D01*
X148385275Y-86644500D01*
X147350056Y-86644500D01*
X147260912Y-86668386D01*
X147260911Y-86668386D01*
X147260909Y-86668387D01*
X147260906Y-86668388D01*
X147180994Y-86714526D01*
X147180985Y-86714533D01*
X146861731Y-87033786D01*
X146861727Y-87033791D01*
X146815587Y-87113709D01*
X146815586Y-87113712D01*
X146791700Y-87202856D01*
X146791700Y-90546343D01*
X146810147Y-90615189D01*
X146815585Y-90635487D01*
X146861727Y-90715408D01*
X146861729Y-90715411D01*
X146861730Y-90715412D01*
X147166531Y-91020212D01*
X147231788Y-91085469D01*
X147231791Y-91085470D01*
X147231794Y-91085473D01*
X147311706Y-91131611D01*
X147311707Y-91131611D01*
X147311712Y-91131614D01*
X147400856Y-91155500D01*
X148594505Y-91155500D01*
X148661544Y-91175185D01*
X148707299Y-91227989D01*
X148717243Y-91297147D01*
X148688218Y-91360703D01*
X148682186Y-91367181D01*
X148644025Y-91405341D01*
X148644024Y-91405342D01*
X148529058Y-91577403D01*
X148449870Y-91768579D01*
X148449868Y-91768587D01*
X148409500Y-91971530D01*
X148409500Y-92178469D01*
X148448845Y-92376269D01*
X148449870Y-92381420D01*
X148529059Y-92572598D01*
X148533714Y-92579565D01*
X148644024Y-92744657D01*
X148790342Y-92890975D01*
X148790345Y-92890977D01*
X148962402Y-93005941D01*
X149153580Y-93085130D01*
X149356530Y-93125499D01*
X149356534Y-93125500D01*
X149356535Y-93125500D01*
X150363466Y-93125500D01*
X150363467Y-93125499D01*
X150566420Y-93085130D01*
X150757598Y-93005941D01*
X150929655Y-92890977D01*
X151075977Y-92744655D01*
X151190941Y-92572598D01*
X151214227Y-92516378D01*
X151258067Y-92461977D01*
X151324361Y-92439911D01*
X151392060Y-92457189D01*
X151416469Y-92476151D01*
X153200788Y-94260470D01*
X153280712Y-94306614D01*
X153369856Y-94330500D01*
X153462144Y-94330500D01*
X153643501Y-94330500D01*
X153710540Y-94350185D01*
X153756295Y-94402989D01*
X153767501Y-94454500D01*
X153767501Y-94477876D01*
X153773908Y-94537483D01*
X153827303Y-94680641D01*
X153825463Y-94681327D01*
X153837896Y-94738483D01*
X153813478Y-94803947D01*
X153757543Y-94845818D01*
X153730398Y-94852574D01*
X153651217Y-94862998D01*
X153627891Y-94866070D01*
X153627890Y-94866070D01*
X153627887Y-94866071D01*
X153493977Y-94921537D01*
X153378979Y-95009779D01*
X153290737Y-95124777D01*
X153235271Y-95258687D01*
X153235270Y-95258691D01*
X153216350Y-95402400D01*
X153216350Y-95410528D01*
X153213020Y-95410528D01*
X153203886Y-95464794D01*
X153180043Y-95498273D01*
X153154740Y-95523578D01*
X153093418Y-95557065D01*
X153067055Y-95559900D01*
X151100095Y-95559900D01*
X151033056Y-95540215D01*
X150987301Y-95487411D01*
X150977357Y-95418253D01*
X151006382Y-95354697D01*
X151012414Y-95348219D01*
X151075974Y-95284658D01*
X151075975Y-95284657D01*
X151075977Y-95284655D01*
X151190941Y-95112598D01*
X151270130Y-94921420D01*
X151310500Y-94718465D01*
X151310500Y-94511535D01*
X151270130Y-94308580D01*
X151190941Y-94117402D01*
X151075977Y-93945345D01*
X151075975Y-93945342D01*
X150929657Y-93799024D01*
X150829076Y-93731819D01*
X150757598Y-93684059D01*
X150727553Y-93671614D01*
X150566420Y-93604870D01*
X150566412Y-93604868D01*
X150363469Y-93564500D01*
X150363465Y-93564500D01*
X149356535Y-93564500D01*
X149356530Y-93564500D01*
X149153587Y-93604868D01*
X149153579Y-93604870D01*
X148962403Y-93684058D01*
X148790342Y-93799024D01*
X148644024Y-93945342D01*
X148529056Y-94117405D01*
X148499836Y-94187952D01*
X148455995Y-94242356D01*
X148389701Y-94264421D01*
X148385275Y-94264500D01*
X146830744Y-94264500D01*
X146763705Y-94244815D01*
X146743063Y-94228181D01*
X145579413Y-93064531D01*
X145579408Y-93064527D01*
X145499490Y-93018387D01*
X145499489Y-93018386D01*
X145499488Y-93018386D01*
X145410344Y-92994500D01*
X145410343Y-92994500D01*
X143505495Y-92994500D01*
X143438456Y-92974815D01*
X143392701Y-92922011D01*
X143382757Y-92852853D01*
X143411782Y-92789297D01*
X143417814Y-92782819D01*
X143455974Y-92744658D01*
X143455975Y-92744657D01*
X143455977Y-92744655D01*
X143570941Y-92572598D01*
X143650130Y-92381420D01*
X143690500Y-92178465D01*
X143690500Y-91971535D01*
X143650130Y-91768580D01*
X143570941Y-91577402D01*
X143455977Y-91405345D01*
X143455975Y-91405342D01*
X143309657Y-91259024D01*
X143192735Y-91180900D01*
X143137598Y-91144059D01*
X143107553Y-91131614D01*
X142946420Y-91064870D01*
X142946412Y-91064868D01*
X142743469Y-91024500D01*
X142743465Y-91024500D01*
X141736535Y-91024500D01*
X141736530Y-91024500D01*
X141533587Y-91064868D01*
X141533579Y-91064870D01*
X141342403Y-91144058D01*
X141170342Y-91259024D01*
X141024024Y-91405342D01*
X140909058Y-91577403D01*
X140829870Y-91768579D01*
X140829868Y-91768587D01*
X140789500Y-91971530D01*
X140789500Y-92178469D01*
X140828845Y-92376269D01*
X140829870Y-92381420D01*
X140909059Y-92572598D01*
X140913714Y-92579565D01*
X141024024Y-92744657D01*
X141062186Y-92782819D01*
X141095671Y-92844142D01*
X141090687Y-92913834D01*
X141048815Y-92969767D01*
X140983351Y-92994184D01*
X140974505Y-92994500D01*
X134740344Y-92994500D01*
X134673305Y-92974815D01*
X134652661Y-92958180D01*
X134625817Y-92931335D01*
X134592333Y-92870011D01*
X134589500Y-92843655D01*
X134589500Y-89431530D01*
X140789500Y-89431530D01*
X140789500Y-89638469D01*
X140829868Y-89841412D01*
X140829870Y-89841420D01*
X140862530Y-89920269D01*
X140909059Y-90032598D01*
X140925947Y-90057873D01*
X141024024Y-90204657D01*
X141170342Y-90350975D01*
X141170345Y-90350977D01*
X141342402Y-90465941D01*
X141533580Y-90545130D01*
X141650673Y-90568421D01*
X141736530Y-90585499D01*
X141736534Y-90585500D01*
X141736535Y-90585500D01*
X142743466Y-90585500D01*
X142743467Y-90585499D01*
X142946420Y-90545130D01*
X143137598Y-90465941D01*
X143309655Y-90350977D01*
X143455977Y-90204655D01*
X143570941Y-90032598D01*
X143650130Y-89841420D01*
X143690500Y-89638465D01*
X143690500Y-89431535D01*
X143650130Y-89228580D01*
X143570941Y-89037402D01*
X143455977Y-88865345D01*
X143455975Y-88865342D01*
X143309657Y-88719024D01*
X143152431Y-88613970D01*
X143137598Y-88604059D01*
X143131007Y-88601329D01*
X142946420Y-88524870D01*
X142946412Y-88524868D01*
X142743469Y-88484500D01*
X142743465Y-88484500D01*
X141736535Y-88484500D01*
X141736530Y-88484500D01*
X141533587Y-88524868D01*
X141533579Y-88524870D01*
X141342403Y-88604058D01*
X141170342Y-88719024D01*
X141024024Y-88865342D01*
X140909058Y-89037403D01*
X140829870Y-89228579D01*
X140829868Y-89228587D01*
X140789500Y-89431530D01*
X134589500Y-89431530D01*
X134589500Y-87694499D01*
X134609185Y-87627460D01*
X134661989Y-87581705D01*
X134713500Y-87570499D01*
X134736871Y-87570499D01*
X134736872Y-87570499D01*
X134796483Y-87564091D01*
X134931331Y-87513796D01*
X135046546Y-87427546D01*
X135132796Y-87312331D01*
X135183091Y-87177483D01*
X135189500Y-87117873D01*
X135189499Y-86322128D01*
X135188317Y-86311135D01*
X136717500Y-86311135D01*
X136717500Y-87106870D01*
X136717501Y-87106876D01*
X136723908Y-87166483D01*
X136774202Y-87301328D01*
X136774206Y-87301335D01*
X136860452Y-87416544D01*
X136860455Y-87416547D01*
X136975664Y-87502793D01*
X136975671Y-87502797D01*
X137110517Y-87553091D01*
X137110516Y-87553091D01*
X137117444Y-87553835D01*
X137170127Y-87559500D01*
X138165872Y-87559499D01*
X138225483Y-87553091D01*
X138360331Y-87502796D01*
X138475546Y-87416546D01*
X138491534Y-87395187D01*
X138547467Y-87353318D01*
X138590800Y-87345500D01*
X140765275Y-87345500D01*
X140832314Y-87365185D01*
X140878069Y-87417989D01*
X140879836Y-87422048D01*
X140909056Y-87492594D01*
X141024024Y-87664657D01*
X141170342Y-87810975D01*
X141170345Y-87810977D01*
X141342402Y-87925941D01*
X141533580Y-88005130D01*
X141710418Y-88040305D01*
X141736530Y-88045499D01*
X141736534Y-88045500D01*
X141736535Y-88045500D01*
X142743466Y-88045500D01*
X142743467Y-88045499D01*
X142946420Y-88005130D01*
X143137598Y-87925941D01*
X143309655Y-87810977D01*
X143455977Y-87664655D01*
X143570941Y-87492598D01*
X143650130Y-87301420D01*
X143690500Y-87098465D01*
X143690500Y-86891535D01*
X143650130Y-86688580D01*
X143570941Y-86497402D01*
X143455977Y-86325345D01*
X143455975Y-86325342D01*
X143309657Y-86179024D01*
X143216335Y-86116669D01*
X143137598Y-86064059D01*
X143093162Y-86045653D01*
X142946420Y-85984870D01*
X142946412Y-85984868D01*
X142743469Y-85944500D01*
X142743465Y-85944500D01*
X141736535Y-85944500D01*
X141736530Y-85944500D01*
X141533587Y-85984868D01*
X141533579Y-85984870D01*
X141342403Y-86064058D01*
X141170342Y-86179024D01*
X141024024Y-86325342D01*
X140909056Y-86497405D01*
X140879836Y-86567952D01*
X140835995Y-86622356D01*
X140769701Y-86644421D01*
X140765275Y-86644500D01*
X138742499Y-86644500D01*
X138675460Y-86624815D01*
X138629705Y-86572011D01*
X138618499Y-86520500D01*
X138618499Y-86311129D01*
X138618498Y-86311123D01*
X138618497Y-86311116D01*
X138612091Y-86251517D01*
X138607795Y-86240000D01*
X138561797Y-86116671D01*
X138561793Y-86116664D01*
X138475547Y-86001455D01*
X138475544Y-86001452D01*
X138360335Y-85915206D01*
X138360328Y-85915202D01*
X138225482Y-85864908D01*
X138225483Y-85864908D01*
X138165883Y-85858501D01*
X138165881Y-85858500D01*
X138165873Y-85858500D01*
X138165864Y-85858500D01*
X137170129Y-85858500D01*
X137170123Y-85858501D01*
X137110516Y-85864908D01*
X136975671Y-85915202D01*
X136975664Y-85915206D01*
X136860455Y-86001452D01*
X136860452Y-86001455D01*
X136774206Y-86116664D01*
X136774202Y-86116671D01*
X136723908Y-86251517D01*
X136717501Y-86311116D01*
X136717501Y-86311123D01*
X136717500Y-86311135D01*
X135188317Y-86311135D01*
X135183091Y-86262517D01*
X135181157Y-86257333D01*
X135132797Y-86127671D01*
X135132793Y-86127664D01*
X135046547Y-86012455D01*
X135046544Y-86012452D01*
X134931335Y-85926206D01*
X134931328Y-85926202D01*
X134796482Y-85875908D01*
X134796483Y-85875908D01*
X134736883Y-85869501D01*
X134736881Y-85869500D01*
X134736873Y-85869500D01*
X134736864Y-85869500D01*
X133741129Y-85869500D01*
X133741123Y-85869501D01*
X133681516Y-85875908D01*
X133546671Y-85926202D01*
X133546664Y-85926206D01*
X133431455Y-86012452D01*
X133431452Y-86012455D01*
X133345206Y-86127664D01*
X133345202Y-86127671D01*
X133294908Y-86262517D01*
X133288501Y-86322116D01*
X133288501Y-86322123D01*
X133288500Y-86322135D01*
X133288500Y-87117870D01*
X133288501Y-87117876D01*
X133294908Y-87177483D01*
X133345202Y-87312328D01*
X133345206Y-87312335D01*
X133431452Y-87427544D01*
X133431455Y-87427547D01*
X133546664Y-87513793D01*
X133546671Y-87513797D01*
X133591618Y-87530561D01*
X133681517Y-87564091D01*
X133741127Y-87570500D01*
X133764497Y-87570499D01*
X133831536Y-87590181D01*
X133877292Y-87642983D01*
X133888500Y-87694499D01*
X133888500Y-88436500D01*
X133868815Y-88503539D01*
X133816011Y-88549294D01*
X133764500Y-88560500D01*
X130120999Y-88560500D01*
X130053960Y-88540815D01*
X130008205Y-88488011D01*
X129996999Y-88436500D01*
X129996999Y-88388129D01*
X129996998Y-88388123D01*
X129996771Y-88386013D01*
X129990591Y-88328517D01*
X129987598Y-88320493D01*
X129940297Y-88193671D01*
X129940293Y-88193664D01*
X129854047Y-88078455D01*
X129854044Y-88078452D01*
X129738835Y-87992206D01*
X129738828Y-87992202D01*
X129603986Y-87941910D01*
X129603985Y-87941909D01*
X129603983Y-87941909D01*
X129544373Y-87935500D01*
X129544363Y-87935500D01*
X128773629Y-87935500D01*
X128773623Y-87935501D01*
X128714016Y-87941908D01*
X128579171Y-87992202D01*
X128579164Y-87992206D01*
X128463955Y-88078452D01*
X128463952Y-88078455D01*
X128377706Y-88193664D01*
X128377701Y-88193674D01*
X128370317Y-88213471D01*
X128328445Y-88269404D01*
X128262980Y-88293820D01*
X128194707Y-88278967D01*
X128145303Y-88229561D01*
X128136430Y-88209140D01*
X128105858Y-88116880D01*
X128105856Y-88116875D01*
X128013815Y-87967654D01*
X127889845Y-87843684D01*
X127740624Y-87751643D01*
X127740619Y-87751641D01*
X127574197Y-87696494D01*
X127574190Y-87696493D01*
X127471486Y-87686000D01*
X127334000Y-87686000D01*
X127334000Y-90135999D01*
X127471472Y-90135999D01*
X127471486Y-90135998D01*
X127574197Y-90125505D01*
X127740619Y-90070358D01*
X127740624Y-90070356D01*
X127889845Y-89978315D01*
X128013815Y-89854345D01*
X128105856Y-89705124D01*
X128105859Y-89705117D01*
X128136430Y-89612860D01*
X128176202Y-89555415D01*
X128240718Y-89528591D01*
X128309494Y-89540906D01*
X128360694Y-89588448D01*
X128370318Y-89608529D01*
X128377703Y-89628329D01*
X128377706Y-89628335D01*
X128463952Y-89743544D01*
X128463955Y-89743547D01*
X128579164Y-89829793D01*
X128579171Y-89829797D01*
X128624118Y-89846561D01*
X128714017Y-89880091D01*
X128773627Y-89886500D01*
X129544372Y-89886499D01*
X129603983Y-89880091D01*
X129738831Y-89829796D01*
X129854046Y-89743546D01*
X129940296Y-89628331D01*
X129990591Y-89493483D01*
X129997000Y-89433873D01*
X129997000Y-89385500D01*
X130016685Y-89318461D01*
X130069489Y-89272706D01*
X130121000Y-89261500D01*
X133764500Y-89261500D01*
X133831539Y-89281185D01*
X133877294Y-89333989D01*
X133888500Y-89385500D01*
X133888500Y-93086344D01*
X133898992Y-93125500D01*
X133912386Y-93175489D01*
X133912387Y-93175490D01*
X133958527Y-93255408D01*
X133958529Y-93255411D01*
X133958530Y-93255412D01*
X134263331Y-93560212D01*
X134328588Y-93625469D01*
X134328591Y-93625470D01*
X134328594Y-93625473D01*
X134408506Y-93671611D01*
X134408507Y-93671611D01*
X134408512Y-93671614D01*
X134497656Y-93695500D01*
X140974505Y-93695500D01*
X141041544Y-93715185D01*
X141087299Y-93767989D01*
X141097243Y-93837147D01*
X141068218Y-93900703D01*
X141062186Y-93907181D01*
X141024025Y-93945341D01*
X141024024Y-93945342D01*
X140909058Y-94117403D01*
X140829870Y-94308579D01*
X140829868Y-94308587D01*
X140789500Y-94511530D01*
X140789500Y-94718469D01*
X140829868Y-94921412D01*
X140829870Y-94921420D01*
X140909059Y-95112598D01*
X140926118Y-95138129D01*
X141024024Y-95284657D01*
X141087586Y-95348219D01*
X141121071Y-95409542D01*
X141116087Y-95479234D01*
X141074215Y-95535167D01*
X141008751Y-95559584D01*
X140999905Y-95559900D01*
X130487500Y-95559900D01*
X130420461Y-95540215D01*
X130374706Y-95487411D01*
X130363500Y-95435900D01*
X130363499Y-94738129D01*
X130363498Y-94738123D01*
X130363497Y-94738116D01*
X130357091Y-94678517D01*
X130354785Y-94672335D01*
X130306797Y-94543671D01*
X130306793Y-94543664D01*
X130220547Y-94428455D01*
X130220544Y-94428452D01*
X130105335Y-94342206D01*
X130105328Y-94342202D01*
X129970482Y-94291908D01*
X129970483Y-94291908D01*
X129910883Y-94285501D01*
X129910881Y-94285500D01*
X129910873Y-94285500D01*
X129910864Y-94285500D01*
X128915129Y-94285500D01*
X128915123Y-94285501D01*
X128855516Y-94291908D01*
X128720671Y-94342202D01*
X128720664Y-94342206D01*
X128605455Y-94428452D01*
X128605452Y-94428455D01*
X128519206Y-94543664D01*
X128519202Y-94543671D01*
X128468908Y-94678517D01*
X128462501Y-94738116D01*
X128462501Y-94738123D01*
X128462500Y-94738135D01*
X128462500Y-95533870D01*
X128462501Y-95533876D01*
X128468908Y-95593483D01*
X128519202Y-95728328D01*
X128519206Y-95728335D01*
X128605452Y-95843544D01*
X128605455Y-95843547D01*
X128720664Y-95929793D01*
X128720671Y-95929797D01*
X128744622Y-95938730D01*
X128855517Y-95980091D01*
X128915127Y-95986500D01*
X129170655Y-95986499D01*
X129237694Y-96006183D01*
X129258336Y-96022818D01*
X129309337Y-96073819D01*
X129342822Y-96135142D01*
X129337838Y-96204834D01*
X129295966Y-96260767D01*
X129230502Y-96285184D01*
X129221656Y-96285500D01*
X128915130Y-96285500D01*
X128915123Y-96285501D01*
X128855516Y-96291908D01*
X128720671Y-96342202D01*
X128720664Y-96342206D01*
X128605455Y-96428452D01*
X128605452Y-96428455D01*
X128519206Y-96543664D01*
X128519202Y-96543671D01*
X128477742Y-96654833D01*
X128435871Y-96710767D01*
X128370407Y-96735184D01*
X128361560Y-96735500D01*
X127339755Y-96735500D01*
X127272716Y-96715815D01*
X127252074Y-96699181D01*
X127160847Y-96607954D01*
X127160844Y-96607952D01*
X127160842Y-96607950D01*
X127084017Y-96568805D01*
X127047801Y-96550352D01*
X126954024Y-96535500D01*
X125715982Y-96535500D01*
X125622196Y-96550354D01*
X125608224Y-96557473D01*
X125539555Y-96570367D01*
X125474815Y-96544088D01*
X125434560Y-96486981D01*
X125431732Y-96420960D01*
X125431620Y-96420943D01*
X125431707Y-96420389D01*
X125431570Y-96417175D01*
X125433019Y-96412105D01*
X125435927Y-96393747D01*
X125448000Y-96317519D01*
X125447999Y-96091015D01*
X125467683Y-96023977D01*
X125520487Y-95978222D01*
X125589646Y-95968278D01*
X125606594Y-95971939D01*
X125645013Y-95983100D01*
X125645010Y-95983100D01*
X125681850Y-95985999D01*
X125681866Y-95986000D01*
X126085000Y-95986000D01*
X126585000Y-95986000D01*
X126988134Y-95986000D01*
X126988149Y-95985999D01*
X127024989Y-95983100D01*
X127024995Y-95983099D01*
X127182693Y-95937283D01*
X127182696Y-95937282D01*
X127324052Y-95853685D01*
X127324061Y-95853678D01*
X127440178Y-95737561D01*
X127440185Y-95737552D01*
X127523781Y-95596198D01*
X127569600Y-95438486D01*
X127569795Y-95436001D01*
X127569795Y-95436000D01*
X126585000Y-95436000D01*
X126585000Y-95986000D01*
X126085000Y-95986000D01*
X126085000Y-95436000D01*
X125100204Y-95436000D01*
X125100400Y-95438493D01*
X125100534Y-95439226D01*
X125100490Y-95439639D01*
X125100897Y-95444808D01*
X125099937Y-95444883D01*
X125093212Y-95508711D01*
X125049486Y-95563207D01*
X124983239Y-95585411D01*
X124978551Y-95585500D01*
X123840982Y-95585500D01*
X123760019Y-95598323D01*
X123747196Y-95600354D01*
X123634158Y-95657950D01*
X123634157Y-95657951D01*
X123634152Y-95657954D01*
X123544454Y-95747652D01*
X123544451Y-95747657D01*
X123486852Y-95860698D01*
X123472000Y-95954475D01*
X123472000Y-96317517D01*
X123478811Y-96360518D01*
X123486854Y-96411304D01*
X123544450Y-96524342D01*
X123544452Y-96524344D01*
X123544454Y-96524347D01*
X123634152Y-96614045D01*
X123634154Y-96614046D01*
X123634158Y-96614050D01*
X123747194Y-96671645D01*
X123747198Y-96671647D01*
X123840975Y-96686499D01*
X123840981Y-96686500D01*
X123985500Y-96686499D01*
X124052539Y-96706183D01*
X124098294Y-96758987D01*
X124109500Y-96810499D01*
X124109500Y-97061500D01*
X124089815Y-97128539D01*
X124037011Y-97174294D01*
X123985500Y-97185500D01*
X122224977Y-97185500D01*
X122157938Y-97165815D01*
X122112183Y-97113011D01*
X122104733Y-97085865D01*
X122103876Y-97086068D01*
X122102092Y-97078520D01*
X122092025Y-97051530D01*
X122051796Y-96943669D01*
X122051795Y-96943668D01*
X122051793Y-96943664D01*
X121965547Y-96828455D01*
X121965544Y-96828452D01*
X121850335Y-96742206D01*
X121850328Y-96742202D01*
X121715482Y-96691908D01*
X121715483Y-96691908D01*
X121655883Y-96685501D01*
X121655881Y-96685500D01*
X121655873Y-96685500D01*
X121655864Y-96685500D01*
X120660129Y-96685500D01*
X120660123Y-96685501D01*
X120600516Y-96691908D01*
X120465671Y-96742202D01*
X120465664Y-96742206D01*
X120350455Y-96828452D01*
X120350452Y-96828455D01*
X120264206Y-96943664D01*
X120264202Y-96943671D01*
X120213908Y-97078517D01*
X120212126Y-97086062D01*
X120209853Y-97085525D01*
X120187571Y-97139312D01*
X120130177Y-97179157D01*
X120091024Y-97185500D01*
X117301856Y-97185500D01*
X117212712Y-97209386D01*
X117212711Y-97209386D01*
X117212709Y-97209387D01*
X117212706Y-97209388D01*
X117132794Y-97255526D01*
X117132785Y-97255533D01*
X116813531Y-97574786D01*
X116813525Y-97574794D01*
X116768617Y-97652579D01*
X116768608Y-97652596D01*
X116767386Y-97654710D01*
X116767385Y-97654713D01*
X116743500Y-97743856D01*
X116743500Y-99211745D01*
X116723815Y-99278784D01*
X116707181Y-99299426D01*
X116615954Y-99390652D01*
X116615949Y-99390659D01*
X116569483Y-99481852D01*
X116521508Y-99532648D01*
X116453687Y-99549442D01*
X116387552Y-99526904D01*
X116348516Y-99481852D01*
X116302050Y-99390658D01*
X116302047Y-99390655D01*
X116302045Y-99390652D01*
X116212347Y-99300954D01*
X116212344Y-99300952D01*
X116212342Y-99300950D01*
X116130011Y-99259000D01*
X116099301Y-99243352D01*
X116005524Y-99228500D01*
X115642482Y-99228500D01*
X115561519Y-99241323D01*
X115548696Y-99243354D01*
X115435658Y-99300950D01*
X115435657Y-99300951D01*
X115435652Y-99300954D01*
X115345954Y-99390652D01*
X115345949Y-99390659D01*
X115299483Y-99481852D01*
X115251508Y-99532648D01*
X115183687Y-99549442D01*
X115117552Y-99526904D01*
X115078516Y-99481852D01*
X115032050Y-99390658D01*
X115032047Y-99390655D01*
X115032045Y-99390652D01*
X114942347Y-99300954D01*
X114942344Y-99300952D01*
X114942342Y-99300950D01*
X114860011Y-99259000D01*
X114829301Y-99243352D01*
X114735524Y-99228500D01*
X114372482Y-99228500D01*
X114291519Y-99241323D01*
X114278696Y-99243354D01*
X114165658Y-99300950D01*
X114165657Y-99300951D01*
X114165652Y-99300954D01*
X114075954Y-99390652D01*
X114075949Y-99390659D01*
X114029483Y-99481852D01*
X113981508Y-99532648D01*
X113913687Y-99549442D01*
X113847552Y-99526904D01*
X113808516Y-99481852D01*
X113762050Y-99390658D01*
X113762047Y-99390655D01*
X113762045Y-99390652D01*
X113672347Y-99300954D01*
X113672344Y-99300952D01*
X113672342Y-99300950D01*
X113590011Y-99259000D01*
X113559301Y-99243352D01*
X113465524Y-99228500D01*
X113102482Y-99228500D01*
X113021519Y-99241323D01*
X113008696Y-99243354D01*
X112895658Y-99300950D01*
X112895657Y-99300951D01*
X112895652Y-99300954D01*
X112805954Y-99390652D01*
X112805951Y-99390657D01*
X112805950Y-99390658D01*
X112796702Y-99408809D01*
X112748352Y-99503698D01*
X112733500Y-99597475D01*
X112733500Y-99891769D01*
X112713815Y-99958808D01*
X112704423Y-99970475D01*
X112704912Y-99970876D01*
X112701048Y-99975583D01*
X112683785Y-100001420D01*
X112653644Y-100046531D01*
X112636280Y-100072518D01*
X112618916Y-100098504D01*
X112618912Y-100098511D01*
X112562343Y-100235082D01*
X112562340Y-100235092D01*
X112533500Y-100380079D01*
X112533500Y-100380082D01*
X112533500Y-101242118D01*
X112533500Y-101242120D01*
X112533499Y-101242120D01*
X98036500Y-101242120D01*
X98036500Y-89947988D01*
X101727001Y-89947988D01*
X101737494Y-90050699D01*
X101792640Y-90217120D01*
X101792642Y-90217125D01*
X101884683Y-90366346D01*
X102008653Y-90490316D01*
X102157874Y-90582357D01*
X102157879Y-90582359D01*
X102324302Y-90637506D01*
X102324300Y-90637506D01*
X102383134Y-90643516D01*
X102394124Y-90648000D01*
X102420701Y-90648000D01*
X102433304Y-90648642D01*
X102440461Y-90649373D01*
X102448419Y-90648000D01*
X102478375Y-90648000D01*
X102478384Y-90647999D01*
X103502000Y-90647999D01*
X104002000Y-90647999D01*
X105177000Y-90647999D01*
X105677000Y-90647999D01*
X106851999Y-90647999D01*
X106852000Y-90647998D01*
X106852000Y-89023000D01*
X105677000Y-89023000D01*
X105677000Y-90647999D01*
X105177000Y-90647999D01*
X105177000Y-89023000D01*
X104002000Y-89023000D01*
X104002000Y-90647999D01*
X103502000Y-90647999D01*
X103502000Y-89023000D01*
X101727001Y-89023000D01*
X101727001Y-89947988D01*
X98036500Y-89947988D01*
X98036500Y-88522999D01*
X101727000Y-88522999D01*
X101727002Y-88523000D01*
X103502000Y-88523000D01*
X104002000Y-88523000D01*
X105177000Y-88523000D01*
X105677000Y-88523000D01*
X106852000Y-88523000D01*
X106852000Y-85973000D01*
X105677000Y-85973000D01*
X105677000Y-88523000D01*
X105177000Y-88523000D01*
X105177000Y-87498000D01*
X104002000Y-87498000D01*
X104002000Y-88523000D01*
X103502000Y-88523000D01*
X103502000Y-87498000D01*
X101727000Y-87498000D01*
X101727000Y-88522999D01*
X98036500Y-88522999D01*
X98036500Y-86998000D01*
X101727000Y-86998000D01*
X103502000Y-86998000D01*
X104002000Y-86998000D01*
X105177000Y-86998000D01*
X105177000Y-85973000D01*
X104002000Y-85973000D01*
X104002000Y-86998000D01*
X103502000Y-86998000D01*
X103502000Y-85973000D01*
X101727000Y-85973000D01*
X101727000Y-86998000D01*
X98036500Y-86998000D01*
X98036500Y-84548011D01*
X101727000Y-84548011D01*
X101727000Y-85473000D01*
X103502000Y-85473000D01*
X104002000Y-85473000D01*
X105177000Y-85473000D01*
X105677000Y-85473000D01*
X106852000Y-85473000D01*
X106852000Y-83848000D01*
X107352000Y-83848000D01*
X107352000Y-90647999D01*
X108426974Y-90647999D01*
X108426988Y-90647998D01*
X108529699Y-90637505D01*
X108696120Y-90582359D01*
X108696125Y-90582357D01*
X108845346Y-90490316D01*
X108969316Y-90366346D01*
X109061357Y-90217125D01*
X109061359Y-90217120D01*
X109116505Y-90050698D01*
X109126999Y-89947988D01*
X109126999Y-89837530D01*
X109146683Y-89770490D01*
X109199487Y-89724735D01*
X109268645Y-89714791D01*
X109332201Y-89743815D01*
X109338680Y-89749848D01*
X109699786Y-90110954D01*
X109721566Y-90125506D01*
X109773470Y-90160186D01*
X109822705Y-90193084D01*
X109822706Y-90193084D01*
X109822707Y-90193085D01*
X109822709Y-90193086D01*
X109928387Y-90236859D01*
X109959287Y-90249658D01*
X109959291Y-90249658D01*
X109959292Y-90249659D01*
X110104279Y-90278500D01*
X110104282Y-90278500D01*
X110104283Y-90278500D01*
X110252117Y-90278500D01*
X110535561Y-90278500D01*
X110602600Y-90298185D01*
X110609872Y-90303233D01*
X110634668Y-90321795D01*
X110634671Y-90321797D01*
X110679618Y-90338561D01*
X110769517Y-90372091D01*
X110829127Y-90378500D01*
X111418900Y-90378499D01*
X111485939Y-90398183D01*
X111531694Y-90450987D01*
X111542900Y-90502499D01*
X111542900Y-94587318D01*
X111542900Y-94587320D01*
X111542899Y-94587320D01*
X111571740Y-94732307D01*
X111571743Y-94732317D01*
X111628314Y-94868892D01*
X111628315Y-94868894D01*
X111628316Y-94868895D01*
X111652507Y-94905100D01*
X111661212Y-94918127D01*
X111661213Y-94918130D01*
X111710446Y-94991814D01*
X111710452Y-94991821D01*
X112697181Y-95978549D01*
X112730666Y-96039872D01*
X112733500Y-96066230D01*
X112733500Y-96360517D01*
X112743073Y-96420960D01*
X112748354Y-96454304D01*
X112805950Y-96567342D01*
X112805952Y-96567344D01*
X112805954Y-96567347D01*
X112895652Y-96657045D01*
X112895654Y-96657046D01*
X112895658Y-96657050D01*
X112992087Y-96706183D01*
X113008698Y-96714647D01*
X113102475Y-96729499D01*
X113102481Y-96729500D01*
X113465518Y-96729499D01*
X113559304Y-96714646D01*
X113672342Y-96657050D01*
X113762050Y-96567342D01*
X113808516Y-96476145D01*
X113856490Y-96425352D01*
X113924311Y-96408557D01*
X113990445Y-96431094D01*
X114029482Y-96476145D01*
X114075950Y-96567342D01*
X114075951Y-96567343D01*
X114075954Y-96567347D01*
X114165652Y-96657045D01*
X114165654Y-96657046D01*
X114165658Y-96657050D01*
X114262087Y-96706183D01*
X114278698Y-96714647D01*
X114372475Y-96729499D01*
X114372481Y-96729500D01*
X114735518Y-96729499D01*
X114829304Y-96714646D01*
X114942342Y-96657050D01*
X115032050Y-96567342D01*
X115078516Y-96476145D01*
X115126490Y-96425352D01*
X115194311Y-96408557D01*
X115260445Y-96431094D01*
X115299482Y-96476145D01*
X115345950Y-96567342D01*
X115345951Y-96567343D01*
X115345954Y-96567347D01*
X115435652Y-96657045D01*
X115435654Y-96657046D01*
X115435658Y-96657050D01*
X115532087Y-96706183D01*
X115548698Y-96714647D01*
X115642475Y-96729499D01*
X115642481Y-96729500D01*
X116005518Y-96729499D01*
X116099304Y-96714646D01*
X116212342Y-96657050D01*
X116302050Y-96567342D01*
X116348516Y-96476145D01*
X116396490Y-96425352D01*
X116464311Y-96408557D01*
X116530445Y-96431094D01*
X116569482Y-96476145D01*
X116615950Y-96567342D01*
X116615951Y-96567343D01*
X116615954Y-96567347D01*
X116705652Y-96657045D01*
X116705654Y-96657046D01*
X116705658Y-96657050D01*
X116802087Y-96706183D01*
X116818698Y-96714647D01*
X116912475Y-96729499D01*
X116912481Y-96729500D01*
X117275518Y-96729499D01*
X117369304Y-96714646D01*
X117482342Y-96657050D01*
X117572050Y-96567342D01*
X117629646Y-96454304D01*
X117629646Y-96454302D01*
X117629647Y-96454301D01*
X117644500Y-96360524D01*
X117644500Y-96010500D01*
X117664185Y-95943461D01*
X117716989Y-95897706D01*
X117768500Y-95886500D01*
X120091023Y-95886500D01*
X120158062Y-95906185D01*
X120203817Y-95958989D01*
X120211266Y-95986134D01*
X120212124Y-95985932D01*
X120213907Y-95993479D01*
X120264202Y-96128328D01*
X120264206Y-96128335D01*
X120350452Y-96243544D01*
X120350455Y-96243547D01*
X120465664Y-96329793D01*
X120465671Y-96329797D01*
X120600517Y-96380091D01*
X120600516Y-96380091D01*
X120607444Y-96380835D01*
X120660127Y-96386500D01*
X121655872Y-96386499D01*
X121715483Y-96380091D01*
X121850331Y-96329796D01*
X121965546Y-96243546D01*
X122051796Y-96128331D01*
X122102091Y-95993483D01*
X122108500Y-95933873D01*
X122108499Y-95138128D01*
X122102091Y-95078517D01*
X122082727Y-95026600D01*
X122051797Y-94943671D01*
X122051793Y-94943664D01*
X122046054Y-94935998D01*
X125100204Y-94935998D01*
X125100205Y-94936000D01*
X126085000Y-94936000D01*
X126585000Y-94936000D01*
X127569795Y-94936000D01*
X127569795Y-94935998D01*
X127569600Y-94933513D01*
X127523781Y-94775801D01*
X127440185Y-94634447D01*
X127440178Y-94634438D01*
X127324061Y-94518321D01*
X127324052Y-94518314D01*
X127182696Y-94434717D01*
X127182693Y-94434716D01*
X127024995Y-94388900D01*
X127024989Y-94388899D01*
X126988149Y-94386000D01*
X126585000Y-94386000D01*
X126585000Y-94936000D01*
X126085000Y-94936000D01*
X126085000Y-94386000D01*
X125681850Y-94386000D01*
X125645010Y-94388899D01*
X125645004Y-94388900D01*
X125487306Y-94434716D01*
X125487303Y-94434717D01*
X125345947Y-94518314D01*
X125345938Y-94518321D01*
X125229821Y-94634438D01*
X125229814Y-94634447D01*
X125146218Y-94775801D01*
X125100399Y-94933513D01*
X125100204Y-94935998D01*
X122046054Y-94935998D01*
X121965547Y-94828455D01*
X121965544Y-94828452D01*
X121850335Y-94742206D01*
X121850328Y-94742202D01*
X121715482Y-94691908D01*
X121715483Y-94691908D01*
X121655883Y-94685501D01*
X121655881Y-94685500D01*
X121655873Y-94685500D01*
X121655864Y-94685500D01*
X120660129Y-94685500D01*
X120660123Y-94685501D01*
X120600516Y-94691908D01*
X120465671Y-94742202D01*
X120465664Y-94742206D01*
X120350455Y-94828452D01*
X120350452Y-94828455D01*
X120264206Y-94943664D01*
X120264202Y-94943671D01*
X120213908Y-95078517D01*
X120212126Y-95086062D01*
X120209853Y-95085525D01*
X120187571Y-95139312D01*
X120130177Y-95179157D01*
X120091024Y-95185500D01*
X117768499Y-95185500D01*
X117701460Y-95165815D01*
X117655705Y-95113011D01*
X117644499Y-95061500D01*
X117644499Y-94647482D01*
X117644411Y-94646928D01*
X117629646Y-94553696D01*
X117572050Y-94440658D01*
X117572046Y-94440654D01*
X117572045Y-94440652D01*
X117482347Y-94350954D01*
X117482342Y-94350950D01*
X117401514Y-94309765D01*
X117370130Y-94286962D01*
X117293019Y-94209851D01*
X117293015Y-94209848D01*
X117170101Y-94127719D01*
X117170088Y-94127712D01*
X117033517Y-94071143D01*
X117033507Y-94071140D01*
X116888520Y-94042300D01*
X116888518Y-94042300D01*
X113167900Y-94042300D01*
X113100861Y-94022615D01*
X113055106Y-93969811D01*
X113043900Y-93918300D01*
X113043900Y-90080758D01*
X113051718Y-90037424D01*
X113053519Y-90032596D01*
X113071091Y-89985483D01*
X113071091Y-89985479D01*
X113072154Y-89980986D01*
X113106727Y-89920269D01*
X113168637Y-89887883D01*
X113192831Y-89885500D01*
X113549001Y-89885500D01*
X113616040Y-89905185D01*
X113661795Y-89957989D01*
X113673001Y-90009500D01*
X113673001Y-90057876D01*
X113679408Y-90117483D01*
X113729702Y-90252328D01*
X113729706Y-90252335D01*
X113815952Y-90367544D01*
X113815955Y-90367547D01*
X113931164Y-90453793D01*
X113931171Y-90453797D01*
X113948379Y-90460215D01*
X114066017Y-90504091D01*
X114125627Y-90510500D01*
X114896372Y-90510499D01*
X114955983Y-90504091D01*
X115090831Y-90453796D01*
X115206046Y-90367546D01*
X115292296Y-90252331D01*
X115299680Y-90232532D01*
X115341550Y-90176598D01*
X115407014Y-90152179D01*
X115475287Y-90167029D01*
X115524694Y-90216433D01*
X115533569Y-90236859D01*
X115564141Y-90329119D01*
X115564143Y-90329124D01*
X115656184Y-90478345D01*
X115780154Y-90602315D01*
X115929375Y-90694356D01*
X115929380Y-90694358D01*
X116095802Y-90749505D01*
X116095809Y-90749506D01*
X116198519Y-90759999D01*
X116335999Y-90759999D01*
X116836000Y-90759999D01*
X116973472Y-90759999D01*
X116973486Y-90759998D01*
X117076197Y-90749505D01*
X117242619Y-90694358D01*
X117242624Y-90694356D01*
X117391845Y-90602315D01*
X117515815Y-90478345D01*
X117607856Y-90329124D01*
X117607858Y-90329119D01*
X117663005Y-90162697D01*
X117663006Y-90162690D01*
X117673499Y-90059986D01*
X117673500Y-90059973D01*
X117673500Y-89785000D01*
X116836000Y-89785000D01*
X116836000Y-90759999D01*
X116335999Y-90759999D01*
X116336000Y-90759998D01*
X116336000Y-89285000D01*
X116836000Y-89285000D01*
X117673499Y-89285000D01*
X117673499Y-89010028D01*
X117673498Y-89010013D01*
X117663005Y-88907302D01*
X117607858Y-88740880D01*
X117607856Y-88740875D01*
X117515815Y-88591654D01*
X117391845Y-88467684D01*
X117242624Y-88375643D01*
X117242619Y-88375641D01*
X117076197Y-88320494D01*
X117076190Y-88320493D01*
X116973486Y-88310000D01*
X116836000Y-88310000D01*
X116836000Y-89285000D01*
X116336000Y-89285000D01*
X116336000Y-88310000D01*
X116198527Y-88310000D01*
X116198512Y-88310001D01*
X116095802Y-88320494D01*
X115929380Y-88375641D01*
X115929375Y-88375643D01*
X115780154Y-88467684D01*
X115656184Y-88591654D01*
X115564143Y-88740875D01*
X115564142Y-88740878D01*
X115533569Y-88833141D01*
X115493796Y-88890585D01*
X115429280Y-88917408D01*
X115360504Y-88905093D01*
X115309304Y-88857549D01*
X115299681Y-88837468D01*
X115292298Y-88817673D01*
X115292293Y-88817664D01*
X115206047Y-88702455D01*
X115206044Y-88702452D01*
X115090835Y-88616206D01*
X115090828Y-88616202D01*
X114955986Y-88565910D01*
X114955985Y-88565909D01*
X114955983Y-88565909D01*
X114896373Y-88559500D01*
X114896363Y-88559500D01*
X114125629Y-88559500D01*
X114125623Y-88559501D01*
X114066016Y-88565908D01*
X113931171Y-88616202D01*
X113931164Y-88616206D01*
X113815955Y-88702452D01*
X113815952Y-88702455D01*
X113729706Y-88817664D01*
X113729702Y-88817671D01*
X113679408Y-88952517D01*
X113673001Y-89012116D01*
X113673000Y-89012135D01*
X113673000Y-89060500D01*
X113653315Y-89127539D01*
X113600511Y-89173294D01*
X113549000Y-89184500D01*
X113194729Y-89184500D01*
X113127690Y-89164815D01*
X113081935Y-89112011D01*
X113071439Y-89073753D01*
X113071091Y-89070516D01*
X113020797Y-88935671D01*
X113020793Y-88935664D01*
X112934547Y-88820455D01*
X112934544Y-88820452D01*
X112819335Y-88734206D01*
X112819328Y-88734202D01*
X112684482Y-88683908D01*
X112684483Y-88683908D01*
X112624883Y-88677501D01*
X112624881Y-88677500D01*
X112624873Y-88677500D01*
X112624864Y-88677500D01*
X110829129Y-88677500D01*
X110829123Y-88677501D01*
X110769516Y-88683908D01*
X110634671Y-88734202D01*
X110634665Y-88734206D01*
X110612654Y-88750683D01*
X110547189Y-88775099D01*
X110478916Y-88760246D01*
X110450664Y-88739096D01*
X110413219Y-88701651D01*
X110379734Y-88640328D01*
X110376900Y-88613970D01*
X110376900Y-88282486D01*
X120187001Y-88282486D01*
X120197494Y-88385197D01*
X120252641Y-88551619D01*
X120252643Y-88551624D01*
X120344684Y-88700845D01*
X120468654Y-88824815D01*
X120617875Y-88916856D01*
X120617880Y-88916858D01*
X120784302Y-88972005D01*
X120784309Y-88972006D01*
X120887019Y-88982499D01*
X121161999Y-88982499D01*
X121162000Y-88982498D01*
X121162000Y-88145000D01*
X120187001Y-88145000D01*
X120187001Y-88282486D01*
X110376900Y-88282486D01*
X110376900Y-87507513D01*
X120187000Y-87507513D01*
X120187000Y-87645000D01*
X121538000Y-87645000D01*
X121605039Y-87664685D01*
X121650794Y-87717489D01*
X121662000Y-87769000D01*
X121662000Y-88982499D01*
X121936972Y-88982499D01*
X121936986Y-88982498D01*
X122039697Y-88972005D01*
X122206119Y-88916858D01*
X122206130Y-88916853D01*
X122244003Y-88893493D01*
X122311395Y-88875052D01*
X122378059Y-88895974D01*
X122422828Y-88949616D01*
X122433100Y-88999031D01*
X122433100Y-92020708D01*
X122413415Y-92087747D01*
X122395513Y-92107212D01*
X122396729Y-92108428D01*
X122390984Y-92114172D01*
X122302737Y-92229177D01*
X122247271Y-92363087D01*
X122247270Y-92363091D01*
X122228350Y-92506799D01*
X122228350Y-92506800D01*
X122247270Y-92650508D01*
X122247271Y-92650512D01*
X122302737Y-92784422D01*
X122302738Y-92784424D01*
X122302739Y-92784425D01*
X122390979Y-92899421D01*
X122505975Y-92987661D01*
X122639891Y-93043130D01*
X122766880Y-93059848D01*
X122783599Y-93062050D01*
X122783600Y-93062050D01*
X122783601Y-93062050D01*
X122798577Y-93060078D01*
X122927309Y-93043130D01*
X123061225Y-92987661D01*
X123176221Y-92899421D01*
X123264461Y-92784425D01*
X123319930Y-92650509D01*
X123338850Y-92506800D01*
X123319930Y-92363091D01*
X123264461Y-92229175D01*
X123176221Y-92114179D01*
X123176219Y-92114177D01*
X123176215Y-92114172D01*
X123170471Y-92108428D01*
X123172987Y-92105911D01*
X123141397Y-92062617D01*
X123134100Y-92020708D01*
X123134100Y-89435986D01*
X125996501Y-89435986D01*
X126006994Y-89538697D01*
X126062141Y-89705119D01*
X126062143Y-89705124D01*
X126154184Y-89854345D01*
X126278154Y-89978315D01*
X126427375Y-90070356D01*
X126427380Y-90070358D01*
X126593802Y-90125505D01*
X126593809Y-90125506D01*
X126696519Y-90135999D01*
X126833999Y-90135999D01*
X126834000Y-90135998D01*
X126834000Y-89161000D01*
X125996501Y-89161000D01*
X125996501Y-89435986D01*
X123134100Y-89435986D01*
X123134100Y-88386013D01*
X125996500Y-88386013D01*
X125996500Y-88661000D01*
X126834000Y-88661000D01*
X126834000Y-87686000D01*
X126696527Y-87686000D01*
X126696512Y-87686001D01*
X126593802Y-87696494D01*
X126427380Y-87751641D01*
X126427375Y-87751643D01*
X126278154Y-87843684D01*
X126154184Y-87967654D01*
X126062143Y-88116875D01*
X126062141Y-88116880D01*
X126006994Y-88283302D01*
X126006993Y-88283309D01*
X125996500Y-88386013D01*
X123134100Y-88386013D01*
X123134100Y-86240001D01*
X124287704Y-86240001D01*
X124287899Y-86242486D01*
X124333718Y-86400198D01*
X124417314Y-86541552D01*
X124417321Y-86541561D01*
X124533438Y-86657678D01*
X124533447Y-86657685D01*
X124674803Y-86741282D01*
X124674806Y-86741283D01*
X124832504Y-86787099D01*
X124832510Y-86787100D01*
X124869350Y-86789999D01*
X124869366Y-86790000D01*
X125410000Y-86790000D01*
X125910000Y-86790000D01*
X126450634Y-86790000D01*
X126450649Y-86789999D01*
X126487489Y-86787100D01*
X126487495Y-86787099D01*
X126645193Y-86741283D01*
X126645196Y-86741282D01*
X126786552Y-86657685D01*
X126786561Y-86657678D01*
X126902678Y-86541561D01*
X126902685Y-86541552D01*
X126986281Y-86400198D01*
X127032100Y-86242486D01*
X127032295Y-86240001D01*
X127032295Y-86240000D01*
X125910000Y-86240000D01*
X125910000Y-86790000D01*
X125410000Y-86790000D01*
X125410000Y-86240000D01*
X124287705Y-86240000D01*
X124287704Y-86240001D01*
X123134100Y-86240001D01*
X123134100Y-85194500D01*
X123153785Y-85127461D01*
X123206589Y-85081706D01*
X123258100Y-85070500D01*
X124505976Y-85070500D01*
X124573015Y-85090185D01*
X124618770Y-85142989D01*
X124628714Y-85212147D01*
X124599689Y-85275703D01*
X124569096Y-85301232D01*
X124533450Y-85322312D01*
X124533438Y-85322321D01*
X124417321Y-85438438D01*
X124417314Y-85438447D01*
X124333718Y-85579801D01*
X124287899Y-85737513D01*
X124287704Y-85739998D01*
X124287705Y-85740000D01*
X127032295Y-85740000D01*
X127032295Y-85739998D01*
X127032100Y-85737513D01*
X126986281Y-85579801D01*
X126902685Y-85438447D01*
X126902678Y-85438438D01*
X126786561Y-85322321D01*
X126786553Y-85322315D01*
X126743507Y-85296858D01*
X126695824Y-85245789D01*
X126683320Y-85177048D01*
X126708152Y-85116852D01*
X126707311Y-85116241D01*
X126709841Y-85112758D01*
X126709965Y-85112458D01*
X126710460Y-85111906D01*
X126713042Y-85108349D01*
X126713050Y-85108342D01*
X126770646Y-84995304D01*
X126770646Y-84995302D01*
X126770647Y-84995301D01*
X126783904Y-84911598D01*
X126785500Y-84901519D01*
X126785499Y-84538482D01*
X126770646Y-84444696D01*
X126713050Y-84331658D01*
X126713046Y-84331654D01*
X126713045Y-84331652D01*
X126623347Y-84241954D01*
X126623343Y-84241951D01*
X126623342Y-84241950D01*
X126620599Y-84240552D01*
X126532147Y-84195483D01*
X126481352Y-84147509D01*
X126464557Y-84079687D01*
X126487095Y-84013553D01*
X126532145Y-83974517D01*
X126623342Y-83928050D01*
X126713050Y-83838342D01*
X126770646Y-83725304D01*
X126770646Y-83725302D01*
X126770647Y-83725301D01*
X126785499Y-83631524D01*
X126785500Y-83631519D01*
X126785499Y-83268482D01*
X126770646Y-83174696D01*
X126713050Y-83061658D01*
X126713046Y-83061654D01*
X126713045Y-83061652D01*
X126623347Y-82971954D01*
X126623343Y-82971951D01*
X126623342Y-82971950D01*
X126587978Y-82953931D01*
X126532147Y-82925483D01*
X126481352Y-82877509D01*
X126464557Y-82809687D01*
X126487095Y-82743553D01*
X126532145Y-82704517D01*
X126623342Y-82658050D01*
X126713050Y-82568342D01*
X126770646Y-82455304D01*
X126770646Y-82455302D01*
X126770647Y-82455301D01*
X126783763Y-82372483D01*
X126785500Y-82361519D01*
X126785499Y-81998482D01*
X126770646Y-81904696D01*
X126713050Y-81791658D01*
X126713046Y-81791654D01*
X126713045Y-81791652D01*
X126623347Y-81701954D01*
X126623344Y-81701952D01*
X126623342Y-81701950D01*
X126546517Y-81662805D01*
X126510301Y-81644352D01*
X126416524Y-81629500D01*
X124903482Y-81629500D01*
X124822519Y-81642323D01*
X124809696Y-81644354D01*
X124696658Y-81701950D01*
X124696657Y-81701951D01*
X124696652Y-81701954D01*
X124606954Y-81791652D01*
X124606951Y-81791657D01*
X124606950Y-81791658D01*
X124606669Y-81792210D01*
X124549352Y-81904698D01*
X124534500Y-81998475D01*
X124534500Y-82361517D01*
X124542955Y-82414900D01*
X124549354Y-82455304D01*
X124606950Y-82568342D01*
X124606952Y-82568344D01*
X124606954Y-82568347D01*
X124696652Y-82658045D01*
X124696654Y-82658046D01*
X124696658Y-82658050D01*
X124787851Y-82704515D01*
X124838647Y-82752490D01*
X124855442Y-82820311D01*
X124832904Y-82886446D01*
X124787852Y-82925484D01*
X124696658Y-82971950D01*
X124696657Y-82971951D01*
X124696652Y-82971954D01*
X124605426Y-83063181D01*
X124544103Y-83096666D01*
X124517745Y-83099500D01*
X124121700Y-83099500D01*
X124054661Y-83079815D01*
X124008906Y-83027011D01*
X123997700Y-82975500D01*
X123997700Y-79647743D01*
X124017385Y-79580704D01*
X124034019Y-79560062D01*
X124086262Y-79507819D01*
X124147585Y-79474334D01*
X124173943Y-79471500D01*
X126168501Y-79471500D01*
X126235540Y-79491185D01*
X126281295Y-79543989D01*
X126292501Y-79595500D01*
X126292501Y-79618876D01*
X126298908Y-79678483D01*
X126349202Y-79813328D01*
X126349206Y-79813335D01*
X126435452Y-79928544D01*
X126435455Y-79928547D01*
X126550664Y-80014793D01*
X126550671Y-80014797D01*
X126685517Y-80065091D01*
X126685516Y-80065091D01*
X126692444Y-80065835D01*
X126745127Y-80071500D01*
X127540872Y-80071499D01*
X127600483Y-80065091D01*
X127735331Y-80014796D01*
X127850546Y-79928546D01*
X127936796Y-79813331D01*
X127987091Y-79678483D01*
X127993500Y-79618873D01*
X127993499Y-78623128D01*
X127987091Y-78563517D01*
X127951681Y-78468579D01*
X127936797Y-78428671D01*
X127936793Y-78428664D01*
X127850547Y-78313455D01*
X127850544Y-78313452D01*
X127735335Y-78227206D01*
X127735328Y-78227202D01*
X127600482Y-78176908D01*
X127600483Y-78176908D01*
X127540883Y-78170501D01*
X127540881Y-78170500D01*
X127540873Y-78170500D01*
X127540864Y-78170500D01*
X126745129Y-78170500D01*
X126745123Y-78170501D01*
X126685516Y-78176908D01*
X126550671Y-78227202D01*
X126550664Y-78227206D01*
X126435455Y-78313452D01*
X126435452Y-78313455D01*
X126349206Y-78428664D01*
X126349202Y-78428671D01*
X126298908Y-78563517D01*
X126294343Y-78605981D01*
X126292501Y-78623123D01*
X126292500Y-78623135D01*
X126292500Y-78646500D01*
X126272815Y-78713539D01*
X126220011Y-78759294D01*
X126168500Y-78770500D01*
X123931256Y-78770500D01*
X123842112Y-78794386D01*
X123842111Y-78794386D01*
X123842109Y-78794387D01*
X123842106Y-78794388D01*
X123762194Y-78840526D01*
X123762185Y-78840533D01*
X123366731Y-79235986D01*
X123366727Y-79235991D01*
X123320587Y-79315909D01*
X123320586Y-79315912D01*
X123296700Y-79405056D01*
X123296700Y-81465900D01*
X123277015Y-81532939D01*
X123224211Y-81578694D01*
X123172700Y-81589900D01*
X122481707Y-81589900D01*
X122414668Y-81570215D01*
X122368913Y-81517411D01*
X122358417Y-81479154D01*
X122356992Y-81465900D01*
X122356091Y-81457517D01*
X122305796Y-81322669D01*
X122305795Y-81322668D01*
X122305793Y-81322664D01*
X122219547Y-81207455D01*
X122219544Y-81207452D01*
X122104335Y-81121206D01*
X122104328Y-81121202D01*
X121969482Y-81070908D01*
X121969483Y-81070908D01*
X121909883Y-81064501D01*
X121909881Y-81064500D01*
X121909873Y-81064500D01*
X121909864Y-81064500D01*
X120914129Y-81064500D01*
X120914123Y-81064501D01*
X120854516Y-81070908D01*
X120719671Y-81121202D01*
X120719664Y-81121206D01*
X120604455Y-81207452D01*
X120604452Y-81207455D01*
X120518206Y-81322664D01*
X120518202Y-81322671D01*
X120467908Y-81457517D01*
X120461501Y-81517116D01*
X120461500Y-81517135D01*
X120461500Y-82312870D01*
X120461501Y-82312876D01*
X120467908Y-82372483D01*
X120518202Y-82507328D01*
X120518206Y-82507335D01*
X120604452Y-82622544D01*
X120604455Y-82622547D01*
X120665841Y-82668501D01*
X120707712Y-82724435D01*
X120712696Y-82794126D01*
X120679210Y-82855449D01*
X120648910Y-82876664D01*
X120649025Y-82876851D01*
X120645831Y-82878820D01*
X120643936Y-82880148D01*
X120642885Y-82880637D01*
X120493654Y-82972684D01*
X120369684Y-83096654D01*
X120277643Y-83245875D01*
X120277641Y-83245880D01*
X120222494Y-83412302D01*
X120222493Y-83412309D01*
X120212000Y-83515013D01*
X120212000Y-83665000D01*
X122611999Y-83665000D01*
X122611999Y-83515028D01*
X122611998Y-83515013D01*
X122601505Y-83412302D01*
X122546358Y-83245880D01*
X122546356Y-83245875D01*
X122454315Y-83096654D01*
X122330345Y-82972684D01*
X122181121Y-82880642D01*
X122180068Y-82880151D01*
X122179466Y-82879621D01*
X122174975Y-82876851D01*
X122175448Y-82876083D01*
X122127627Y-82833981D01*
X122108473Y-82766788D01*
X122128686Y-82699906D01*
X122158154Y-82668503D01*
X122219546Y-82622546D01*
X122305796Y-82507331D01*
X122329025Y-82445050D01*
X122356433Y-82371567D01*
X122398304Y-82315633D01*
X122463768Y-82291216D01*
X122472615Y-82290900D01*
X123172700Y-82290900D01*
X123239739Y-82310585D01*
X123285494Y-82363389D01*
X123296700Y-82414900D01*
X123296700Y-83256544D01*
X123306712Y-83293911D01*
X123306713Y-83293911D01*
X123306713Y-83293912D01*
X123320586Y-83345688D01*
X123320588Y-83345691D01*
X123366727Y-83425608D01*
X123366729Y-83425611D01*
X123366730Y-83425612D01*
X123671588Y-83730470D01*
X123671589Y-83730471D01*
X123671591Y-83730472D01*
X123711550Y-83753542D01*
X123751512Y-83776614D01*
X123840656Y-83800500D01*
X123840657Y-83800500D01*
X123932944Y-83800500D01*
X124517745Y-83800500D01*
X124584784Y-83820185D01*
X124605426Y-83836819D01*
X124696652Y-83928045D01*
X124696654Y-83928046D01*
X124696658Y-83928050D01*
X124787851Y-83974515D01*
X124838647Y-84022490D01*
X124855442Y-84090311D01*
X124832904Y-84156446D01*
X124787852Y-84195484D01*
X124696658Y-84241950D01*
X124696657Y-84241951D01*
X124696652Y-84241954D01*
X124605426Y-84333181D01*
X124544103Y-84366666D01*
X124517745Y-84369500D01*
X122955056Y-84369500D01*
X122865912Y-84393386D01*
X122865911Y-84393386D01*
X122797574Y-84432840D01*
X122729673Y-84449311D01*
X122663647Y-84426458D01*
X122620457Y-84371537D01*
X122612986Y-84318194D01*
X122611839Y-84318136D01*
X122612000Y-84314973D01*
X122612000Y-84165000D01*
X120212001Y-84165000D01*
X120212001Y-84314986D01*
X120222494Y-84417697D01*
X120277641Y-84584119D01*
X120277643Y-84584124D01*
X120369684Y-84733345D01*
X120493656Y-84857317D01*
X120581660Y-84911598D01*
X120628385Y-84963546D01*
X120639608Y-85032508D01*
X120611764Y-85096591D01*
X120590878Y-85116401D01*
X120579455Y-85124952D01*
X120579452Y-85124955D01*
X120493206Y-85240164D01*
X120493202Y-85240171D01*
X120442910Y-85375013D01*
X120442909Y-85375017D01*
X120436500Y-85434627D01*
X120436500Y-85434634D01*
X120436500Y-85434635D01*
X120436500Y-86205370D01*
X120436501Y-86205376D01*
X120442908Y-86264983D01*
X120493202Y-86399828D01*
X120493206Y-86399835D01*
X120579452Y-86515044D01*
X120579455Y-86515047D01*
X120694664Y-86601293D01*
X120694673Y-86601298D01*
X120714468Y-86608681D01*
X120770402Y-86650551D01*
X120794820Y-86716015D01*
X120779969Y-86784288D01*
X120730565Y-86833694D01*
X120710141Y-86842569D01*
X120617878Y-86873142D01*
X120617875Y-86873143D01*
X120468654Y-86965184D01*
X120344684Y-87089154D01*
X120252643Y-87238375D01*
X120252641Y-87238380D01*
X120197494Y-87404802D01*
X120197493Y-87404809D01*
X120187000Y-87507513D01*
X110376900Y-87507513D01*
X110376900Y-85816552D01*
X110396585Y-85749513D01*
X110449389Y-85703758D01*
X110518547Y-85693814D01*
X110575210Y-85717285D01*
X110634665Y-85761793D01*
X110634668Y-85761795D01*
X110634671Y-85761797D01*
X110769517Y-85812091D01*
X110769516Y-85812091D01*
X110776444Y-85812835D01*
X110829127Y-85818500D01*
X112624872Y-85818499D01*
X112684483Y-85812091D01*
X112819331Y-85761796D01*
X112934546Y-85675546D01*
X113006470Y-85579468D01*
X113020794Y-85560334D01*
X113020794Y-85560333D01*
X113020796Y-85560331D01*
X113026824Y-85544166D01*
X113068694Y-85488234D01*
X113134158Y-85463816D01*
X113143006Y-85463500D01*
X113519736Y-85463500D01*
X113586775Y-85483185D01*
X113632530Y-85535989D01*
X113635918Y-85544167D01*
X113686702Y-85680328D01*
X113686706Y-85680335D01*
X113772952Y-85795544D01*
X113772955Y-85795547D01*
X113888164Y-85881793D01*
X113888171Y-85881797D01*
X113908497Y-85889378D01*
X114023017Y-85932091D01*
X114082627Y-85938500D01*
X114853372Y-85938499D01*
X114912983Y-85932091D01*
X115047831Y-85881796D01*
X115163046Y-85795546D01*
X115249296Y-85680331D01*
X115256680Y-85660532D01*
X115298550Y-85604598D01*
X115364014Y-85580179D01*
X115432287Y-85595029D01*
X115481694Y-85644433D01*
X115490569Y-85664859D01*
X115521141Y-85757119D01*
X115521143Y-85757124D01*
X115613184Y-85906345D01*
X115737154Y-86030315D01*
X115886375Y-86122356D01*
X115886380Y-86122358D01*
X116052802Y-86177505D01*
X116052809Y-86177506D01*
X116155519Y-86187999D01*
X116292999Y-86187999D01*
X116793000Y-86187999D01*
X116930472Y-86187999D01*
X116930486Y-86187998D01*
X117033197Y-86177505D01*
X117199619Y-86122358D01*
X117199624Y-86122356D01*
X117348845Y-86030315D01*
X117472815Y-85906345D01*
X117564856Y-85757124D01*
X117564858Y-85757119D01*
X117620005Y-85590697D01*
X117620006Y-85590690D01*
X117630499Y-85487986D01*
X117630500Y-85487973D01*
X117630500Y-85213000D01*
X116793000Y-85213000D01*
X116793000Y-86187999D01*
X116292999Y-86187999D01*
X116293000Y-86187998D01*
X116293000Y-84713000D01*
X116793000Y-84713000D01*
X117630499Y-84713000D01*
X117630499Y-84438028D01*
X117630498Y-84438013D01*
X117620005Y-84335302D01*
X117564858Y-84168880D01*
X117564856Y-84168875D01*
X117472815Y-84019654D01*
X117348845Y-83895684D01*
X117199624Y-83803643D01*
X117199619Y-83803641D01*
X117033197Y-83748494D01*
X117033190Y-83748493D01*
X116930486Y-83738000D01*
X116793000Y-83738000D01*
X116793000Y-84713000D01*
X116293000Y-84713000D01*
X116293000Y-83738000D01*
X116155527Y-83738000D01*
X116155512Y-83738001D01*
X116052802Y-83748494D01*
X115886380Y-83803641D01*
X115886375Y-83803643D01*
X115737154Y-83895684D01*
X115613184Y-84019654D01*
X115521143Y-84168875D01*
X115521142Y-84168878D01*
X115490569Y-84261141D01*
X115450796Y-84318585D01*
X115386280Y-84345408D01*
X115317504Y-84333093D01*
X115266304Y-84285549D01*
X115256681Y-84265468D01*
X115249298Y-84245673D01*
X115249293Y-84245664D01*
X115163047Y-84130455D01*
X115163044Y-84130452D01*
X115047835Y-84044206D01*
X115047828Y-84044202D01*
X114905715Y-83991198D01*
X114906875Y-83988086D01*
X114859285Y-83960918D01*
X114826967Y-83898972D01*
X114833269Y-83829387D01*
X114850232Y-83799428D01*
X114933261Y-83691225D01*
X114988730Y-83557309D01*
X115007650Y-83413600D01*
X115007388Y-83411613D01*
X115001392Y-83366066D01*
X114988730Y-83269891D01*
X114947160Y-83169530D01*
X114933262Y-83135977D01*
X114933261Y-83135976D01*
X114933261Y-83135975D01*
X114845021Y-83020979D01*
X114730025Y-82932739D01*
X114730024Y-82932738D01*
X114730022Y-82932737D01*
X114596112Y-82877271D01*
X114596110Y-82877270D01*
X114596109Y-82877270D01*
X114524254Y-82867810D01*
X114452401Y-82858350D01*
X114452399Y-82858350D01*
X114308691Y-82877270D01*
X114308687Y-82877271D01*
X114174777Y-82932737D01*
X114059779Y-83020979D01*
X113971537Y-83135977D01*
X113916071Y-83269887D01*
X113916070Y-83269891D01*
X113897412Y-83411613D01*
X113897150Y-83413600D01*
X113910503Y-83515028D01*
X113916070Y-83557308D01*
X113916071Y-83557312D01*
X113971537Y-83691222D01*
X113971538Y-83691223D01*
X113971539Y-83691225D01*
X114059779Y-83806221D01*
X114059781Y-83806222D01*
X114061472Y-83808426D01*
X114086666Y-83873595D01*
X114072628Y-83942040D01*
X114023814Y-83992030D01*
X114006429Y-84000095D01*
X113888171Y-84044202D01*
X113888164Y-84044206D01*
X113772955Y-84130452D01*
X113772952Y-84130455D01*
X113686706Y-84245664D01*
X113686702Y-84245671D01*
X113635918Y-84381833D01*
X113594047Y-84437767D01*
X113528583Y-84462184D01*
X113519736Y-84462500D01*
X113139277Y-84462500D01*
X113072238Y-84442815D01*
X113026483Y-84390011D01*
X113023094Y-84381830D01*
X113020797Y-84375670D01*
X113020793Y-84375664D01*
X112934547Y-84260455D01*
X112934544Y-84260452D01*
X112819335Y-84174206D01*
X112819328Y-84174202D01*
X112684482Y-84123908D01*
X112684483Y-84123908D01*
X112624883Y-84117501D01*
X112624881Y-84117500D01*
X112624873Y-84117500D01*
X112624864Y-84117500D01*
X110829129Y-84117500D01*
X110829123Y-84117501D01*
X110769516Y-84123908D01*
X110634671Y-84174202D01*
X110634668Y-84174204D01*
X110575211Y-84218714D01*
X110509746Y-84243131D01*
X110441473Y-84228279D01*
X110392068Y-84178874D01*
X110376900Y-84119447D01*
X110376900Y-78238629D01*
X110396585Y-78171590D01*
X110413219Y-78150948D01*
X110561348Y-78002819D01*
X110622671Y-77969334D01*
X110649029Y-77966500D01*
X112336815Y-77966500D01*
X112403854Y-77986185D01*
X112437131Y-78017612D01*
X112484586Y-78082928D01*
X112607072Y-78205414D01*
X112747212Y-78307232D01*
X112901555Y-78385873D01*
X113066299Y-78439402D01*
X113237389Y-78466500D01*
X113237390Y-78466500D01*
X113410610Y-78466500D01*
X113410611Y-78466500D01*
X113581701Y-78439402D01*
X113746445Y-78385873D01*
X113900788Y-78307232D01*
X114040928Y-78205414D01*
X114163414Y-78082928D01*
X114251006Y-77962367D01*
X114306336Y-77919702D01*
X114375949Y-77913723D01*
X114437744Y-77946329D01*
X114472101Y-78007167D01*
X114474682Y-78022651D01*
X114484494Y-78118697D01*
X114539641Y-78285119D01*
X114539643Y-78285124D01*
X114631684Y-78434345D01*
X114755654Y-78558315D01*
X114904875Y-78650356D01*
X114904880Y-78650358D01*
X115071302Y-78705505D01*
X115071309Y-78705506D01*
X115174019Y-78715999D01*
X115573999Y-78715999D01*
X115574000Y-78715998D01*
X115574000Y-77649012D01*
X115631007Y-77681925D01*
X115758174Y-77716000D01*
X115889826Y-77716000D01*
X116016993Y-77681925D01*
X116074000Y-77649012D01*
X116074000Y-78715999D01*
X116473972Y-78715999D01*
X116473986Y-78715998D01*
X116576697Y-78705505D01*
X116743119Y-78650358D01*
X116743124Y-78650356D01*
X116892345Y-78558315D01*
X117016315Y-78434345D01*
X117108356Y-78285124D01*
X117108358Y-78285119D01*
X117163505Y-78118697D01*
X117163506Y-78118690D01*
X117173999Y-78015986D01*
X117174000Y-78015973D01*
X117174000Y-77473999D01*
X148148364Y-77473999D01*
X148148364Y-77474000D01*
X149045988Y-77474000D01*
X149013075Y-77531007D01*
X148979000Y-77658174D01*
X148979000Y-77789826D01*
X149013075Y-77916993D01*
X149045988Y-77974000D01*
X148148364Y-77974000D01*
X148205567Y-78187486D01*
X148205570Y-78187492D01*
X148305399Y-78401578D01*
X148440894Y-78595082D01*
X148607917Y-78762105D01*
X148801421Y-78897600D01*
X149015507Y-78997429D01*
X149015516Y-78997433D01*
X149229000Y-79054634D01*
X149229000Y-78157012D01*
X149286007Y-78189925D01*
X149413174Y-78224000D01*
X149544826Y-78224000D01*
X149671993Y-78189925D01*
X149729000Y-78157012D01*
X149729000Y-79054633D01*
X149942483Y-78997433D01*
X149942492Y-78997429D01*
X150156578Y-78897600D01*
X150350082Y-78762105D01*
X150517105Y-78595082D01*
X150652600Y-78401578D01*
X150752429Y-78187492D01*
X150752431Y-78187489D01*
X150761406Y-78153992D01*
X150797770Y-78094331D01*
X150860616Y-78063800D01*
X150929992Y-78072094D01*
X150983871Y-78116578D01*
X150992182Y-78130811D01*
X151079327Y-78305821D01*
X151202237Y-78468581D01*
X151352958Y-78605980D01*
X151352960Y-78605982D01*
X151424627Y-78650356D01*
X151526363Y-78713348D01*
X151716544Y-78787024D01*
X151917024Y-78824500D01*
X151917026Y-78824500D01*
X152120974Y-78824500D01*
X152120976Y-78824500D01*
X152321456Y-78787024D01*
X152511637Y-78713348D01*
X152685041Y-78605981D01*
X152835764Y-78468579D01*
X152958673Y-78305821D01*
X153049582Y-78123250D01*
X153105397Y-77927083D01*
X153124215Y-77724000D01*
X153118115Y-77658174D01*
X153105397Y-77520917D01*
X153092048Y-77474000D01*
X153049582Y-77324750D01*
X153049159Y-77323901D01*
X152962654Y-77150174D01*
X152958673Y-77142179D01*
X152835764Y-76979421D01*
X152835762Y-76979418D01*
X152685041Y-76842019D01*
X152685039Y-76842017D01*
X152511642Y-76734655D01*
X152511635Y-76734651D01*
X152385769Y-76685891D01*
X152321456Y-76660976D01*
X152120976Y-76623500D01*
X151917024Y-76623500D01*
X151716544Y-76660976D01*
X151716541Y-76660976D01*
X151716541Y-76660977D01*
X151526364Y-76734651D01*
X151526357Y-76734655D01*
X151352960Y-76842017D01*
X151352958Y-76842019D01*
X151202237Y-76979418D01*
X151079327Y-77142178D01*
X150992182Y-77317188D01*
X150944679Y-77368425D01*
X150877016Y-77385846D01*
X150810676Y-77363920D01*
X150766721Y-77309609D01*
X150761407Y-77294008D01*
X150752434Y-77260518D01*
X150752429Y-77260507D01*
X150652600Y-77046422D01*
X150652599Y-77046420D01*
X150517113Y-76852926D01*
X150517108Y-76852920D01*
X150350082Y-76685894D01*
X150156578Y-76550399D01*
X149942492Y-76450570D01*
X149942477Y-76450564D01*
X149903414Y-76440097D01*
X149843754Y-76403732D01*
X149813226Y-76340885D01*
X149821521Y-76271509D01*
X149866007Y-76217632D01*
X149890710Y-76204698D01*
X149971637Y-76173348D01*
X150145041Y-76065981D01*
X150295764Y-75928579D01*
X150418673Y-75765821D01*
X150509582Y-75583250D01*
X150565397Y-75387083D01*
X150584215Y-75184000D01*
X150584215Y-75183999D01*
X150913785Y-75183999D01*
X150913785Y-75184000D01*
X150932602Y-75387082D01*
X150988417Y-75583247D01*
X150988422Y-75583260D01*
X151079327Y-75765821D01*
X151202237Y-75928581D01*
X151352958Y-76065980D01*
X151352960Y-76065982D01*
X151447903Y-76124768D01*
X151526363Y-76173348D01*
X151716544Y-76247024D01*
X151917024Y-76284500D01*
X151917026Y-76284500D01*
X152120974Y-76284500D01*
X152120976Y-76284500D01*
X152321456Y-76247024D01*
X152511637Y-76173348D01*
X152685041Y-76065981D01*
X152835764Y-75928579D01*
X152958673Y-75765821D01*
X153049582Y-75583250D01*
X153105397Y-75387083D01*
X153124215Y-75184000D01*
X153105397Y-74980917D01*
X153049582Y-74784750D01*
X153032447Y-74750339D01*
X152962326Y-74609516D01*
X152958673Y-74602179D01*
X152835764Y-74439421D01*
X152835762Y-74439418D01*
X152693051Y-74309321D01*
X153458500Y-74309321D01*
X153458500Y-76058678D01*
X153473032Y-76131735D01*
X153473033Y-76131739D01*
X153473034Y-76131740D01*
X153528399Y-76214601D01*
X153611260Y-76269966D01*
X153611264Y-76269967D01*
X153684321Y-76284499D01*
X153684324Y-76284500D01*
X153684326Y-76284500D01*
X155433676Y-76284500D01*
X155433677Y-76284499D01*
X155506740Y-76269966D01*
X155589601Y-76214601D01*
X155644966Y-76131740D01*
X155659500Y-76058674D01*
X155659500Y-74309326D01*
X155659500Y-74309323D01*
X155659499Y-74309321D01*
X158919500Y-74309321D01*
X158919500Y-76058678D01*
X158934032Y-76131735D01*
X158934033Y-76131739D01*
X158934034Y-76131740D01*
X158989399Y-76214601D01*
X159072260Y-76269966D01*
X159072264Y-76269967D01*
X159145321Y-76284499D01*
X159145324Y-76284500D01*
X159145326Y-76284500D01*
X160894676Y-76284500D01*
X160894677Y-76284499D01*
X160967740Y-76269966D01*
X161050601Y-76214601D01*
X161105966Y-76131740D01*
X161120500Y-76058674D01*
X161120500Y-74309326D01*
X161120500Y-74309323D01*
X161120499Y-74309321D01*
X161105967Y-74236264D01*
X161105966Y-74236260D01*
X161050601Y-74153399D01*
X160987793Y-74111433D01*
X160967739Y-74098033D01*
X160967735Y-74098032D01*
X160894677Y-74083500D01*
X160894674Y-74083500D01*
X159145326Y-74083500D01*
X159145323Y-74083500D01*
X159072264Y-74098032D01*
X159072260Y-74098033D01*
X158989399Y-74153399D01*
X158934033Y-74236260D01*
X158934032Y-74236264D01*
X158919500Y-74309321D01*
X155659499Y-74309321D01*
X155644967Y-74236264D01*
X155644966Y-74236260D01*
X155589601Y-74153399D01*
X155526793Y-74111433D01*
X155506739Y-74098033D01*
X155506735Y-74098032D01*
X155433677Y-74083500D01*
X155433674Y-74083500D01*
X153684326Y-74083500D01*
X153684323Y-74083500D01*
X153611264Y-74098032D01*
X153611260Y-74098033D01*
X153528399Y-74153399D01*
X153473033Y-74236260D01*
X153473032Y-74236264D01*
X153458500Y-74309321D01*
X152693051Y-74309321D01*
X152685041Y-74302019D01*
X152685039Y-74302017D01*
X152511642Y-74194655D01*
X152511635Y-74194651D01*
X152405150Y-74153399D01*
X152321456Y-74120976D01*
X152120976Y-74083500D01*
X151917024Y-74083500D01*
X151716544Y-74120976D01*
X151716541Y-74120976D01*
X151716541Y-74120977D01*
X151526364Y-74194651D01*
X151526357Y-74194655D01*
X151352960Y-74302017D01*
X151352958Y-74302019D01*
X151202237Y-74439418D01*
X151079327Y-74602178D01*
X150988422Y-74784739D01*
X150988417Y-74784752D01*
X150932602Y-74980917D01*
X150913785Y-75183999D01*
X150584215Y-75183999D01*
X150565397Y-74980917D01*
X150509582Y-74784750D01*
X150492447Y-74750339D01*
X150422326Y-74609516D01*
X150418673Y-74602179D01*
X150295764Y-74439421D01*
X150295762Y-74439418D01*
X150145041Y-74302019D01*
X150145039Y-74302017D01*
X149971642Y-74194655D01*
X149971635Y-74194651D01*
X149865150Y-74153399D01*
X149781456Y-74120976D01*
X149580976Y-74083500D01*
X149377024Y-74083500D01*
X149176544Y-74120976D01*
X149176541Y-74120976D01*
X149176541Y-74120977D01*
X148986364Y-74194651D01*
X148986357Y-74194655D01*
X148812960Y-74302017D01*
X148812958Y-74302019D01*
X148662237Y-74439418D01*
X148539327Y-74602178D01*
X148448422Y-74784739D01*
X148448417Y-74784752D01*
X148392602Y-74980917D01*
X148373785Y-75183999D01*
X148373785Y-75184000D01*
X148392602Y-75387082D01*
X148448417Y-75583247D01*
X148448422Y-75583260D01*
X148539327Y-75765821D01*
X148662237Y-75928581D01*
X148812958Y-76065980D01*
X148812960Y-76065982D01*
X148907903Y-76124768D01*
X148986363Y-76173348D01*
X149067283Y-76204696D01*
X149122685Y-76247269D01*
X149146276Y-76313035D01*
X149130565Y-76381116D01*
X149080542Y-76429895D01*
X149054586Y-76440097D01*
X149015519Y-76450565D01*
X149015507Y-76450570D01*
X148801422Y-76550399D01*
X148801420Y-76550400D01*
X148607926Y-76685886D01*
X148607920Y-76685891D01*
X148440891Y-76852920D01*
X148440886Y-76852926D01*
X148305400Y-77046420D01*
X148305399Y-77046422D01*
X148205570Y-77260507D01*
X148205567Y-77260513D01*
X148148364Y-77473999D01*
X117174000Y-77473999D01*
X117174000Y-77466000D01*
X116257012Y-77466000D01*
X116289925Y-77408993D01*
X116324000Y-77281826D01*
X116324000Y-77150174D01*
X116289925Y-77023007D01*
X116257012Y-76966000D01*
X117173999Y-76966000D01*
X117173999Y-76416028D01*
X117173998Y-76416013D01*
X117163505Y-76313302D01*
X117108358Y-76146880D01*
X117108356Y-76146875D01*
X117016315Y-75997654D01*
X116892345Y-75873684D01*
X116743124Y-75781643D01*
X116743119Y-75781641D01*
X116576697Y-75726494D01*
X116576690Y-75726493D01*
X116473986Y-75716000D01*
X116074000Y-75716000D01*
X116074000Y-76782988D01*
X116016993Y-76750075D01*
X115889826Y-76716000D01*
X115758174Y-76716000D01*
X115631007Y-76750075D01*
X115574000Y-76782988D01*
X115574000Y-75716000D01*
X115174028Y-75716000D01*
X115174012Y-75716001D01*
X115071302Y-75726494D01*
X114904880Y-75781641D01*
X114904875Y-75781643D01*
X114755654Y-75873684D01*
X114631684Y-75997654D01*
X114539643Y-76146875D01*
X114539641Y-76146880D01*
X114484494Y-76313302D01*
X114484493Y-76313309D01*
X114474681Y-76409349D01*
X114448284Y-76474040D01*
X114391103Y-76514191D01*
X114321292Y-76517054D01*
X114261016Y-76481719D01*
X114251009Y-76469636D01*
X114163414Y-76349072D01*
X114040928Y-76226586D01*
X113900788Y-76124768D01*
X113746445Y-76046127D01*
X113581701Y-75992598D01*
X113581699Y-75992597D01*
X113581698Y-75992597D01*
X113449100Y-75971596D01*
X113410611Y-75965500D01*
X113237389Y-75965500D01*
X113198900Y-75971596D01*
X113066302Y-75992597D01*
X112901552Y-76046128D01*
X112747211Y-76124768D01*
X112680346Y-76173349D01*
X112607072Y-76226586D01*
X112607070Y-76226588D01*
X112607069Y-76226588D01*
X112484588Y-76349069D01*
X112484588Y-76349070D01*
X112484586Y-76349072D01*
X112437133Y-76414386D01*
X112381803Y-76457051D01*
X112336815Y-76465500D01*
X110212876Y-76465500D01*
X110184042Y-76471234D01*
X110184043Y-76471235D01*
X110067893Y-76494339D01*
X110067883Y-76494342D01*
X109987881Y-76527479D01*
X109987882Y-76527480D01*
X109931305Y-76550915D01*
X109849172Y-76605795D01*
X109808385Y-76633047D01*
X109808381Y-76633050D01*
X109043452Y-77397978D01*
X109043449Y-77397981D01*
X109006947Y-77452610D01*
X109006948Y-77452611D01*
X108961314Y-77520908D01*
X108904743Y-77657482D01*
X108904740Y-77657492D01*
X108875900Y-77802479D01*
X108875900Y-83802831D01*
X108856215Y-83869870D01*
X108803411Y-83915625D01*
X108734253Y-83925569D01*
X108699503Y-83915217D01*
X108696125Y-83913642D01*
X108529698Y-83858494D01*
X108426988Y-83848000D01*
X107352000Y-83848000D01*
X106852000Y-83848000D01*
X105677000Y-83848000D01*
X105677000Y-85473000D01*
X105177000Y-85473000D01*
X105177000Y-83848000D01*
X104002000Y-83848000D01*
X104002000Y-85473000D01*
X103502000Y-85473000D01*
X103502000Y-83848000D01*
X102426197Y-83848000D01*
X102423364Y-83848374D01*
X102324300Y-83858494D01*
X102157879Y-83913640D01*
X102157874Y-83913642D01*
X102008653Y-84005683D01*
X101884683Y-84129653D01*
X101792642Y-84278874D01*
X101792640Y-84278879D01*
X101737494Y-84445301D01*
X101727000Y-84548011D01*
X98036500Y-84548011D01*
X98036500Y-78739996D01*
X101642916Y-78739996D01*
X101642916Y-78740003D01*
X101663235Y-79088869D01*
X101663236Y-79088880D01*
X101723914Y-79433002D01*
X101723916Y-79433011D01*
X101824145Y-79767800D01*
X101962555Y-80088670D01*
X101962561Y-80088683D01*
X102137289Y-80391322D01*
X102345967Y-80671625D01*
X102354148Y-80680296D01*
X103604319Y-79430124D01*
X103694554Y-79554320D01*
X103833680Y-79693446D01*
X103957873Y-79783678D01*
X102710818Y-81030733D01*
X102710819Y-81030734D01*
X102853484Y-81150445D01*
X103145461Y-81342480D01*
X103457739Y-81499314D01*
X103457745Y-81499316D01*
X103786130Y-81618838D01*
X103786133Y-81618839D01*
X104126171Y-81699429D01*
X104473276Y-81739999D01*
X104473277Y-81740000D01*
X104822723Y-81740000D01*
X104822723Y-81739999D01*
X105169827Y-81699429D01*
X105169829Y-81699429D01*
X105509866Y-81618839D01*
X105509869Y-81618838D01*
X105838254Y-81499316D01*
X105838260Y-81499314D01*
X106150538Y-81342480D01*
X106442509Y-81150449D01*
X106442510Y-81150448D01*
X106585179Y-81030734D01*
X106585180Y-81030733D01*
X105338126Y-79783678D01*
X105462320Y-79693446D01*
X105601446Y-79554320D01*
X105691678Y-79430126D01*
X106941849Y-80680297D01*
X106941851Y-80680296D01*
X106950022Y-80671636D01*
X106950033Y-80671623D01*
X107158710Y-80391322D01*
X107333438Y-80088683D01*
X107333444Y-80088670D01*
X107471854Y-79767800D01*
X107572083Y-79433011D01*
X107572085Y-79433002D01*
X107632763Y-79088880D01*
X107632764Y-79088869D01*
X107653084Y-78740003D01*
X107653084Y-78739996D01*
X107632764Y-78391130D01*
X107632763Y-78391119D01*
X107572085Y-78046997D01*
X107572083Y-78046988D01*
X107471854Y-77712199D01*
X107333444Y-77391329D01*
X107333438Y-77391316D01*
X107158710Y-77088677D01*
X106950032Y-76808374D01*
X106941850Y-76799702D01*
X105691678Y-78049873D01*
X105601446Y-77925680D01*
X105462320Y-77786554D01*
X105338125Y-77696320D01*
X106585180Y-76449265D01*
X106585179Y-76449264D01*
X106442519Y-76329557D01*
X106150538Y-76137519D01*
X105838260Y-75980685D01*
X105838254Y-75980683D01*
X105509869Y-75861161D01*
X105509866Y-75861160D01*
X105169828Y-75780570D01*
X104822723Y-75740000D01*
X104473277Y-75740000D01*
X104126172Y-75780570D01*
X104126170Y-75780570D01*
X103786133Y-75861160D01*
X103786130Y-75861161D01*
X103457745Y-75980683D01*
X103457739Y-75980685D01*
X103145461Y-76137519D01*
X102853480Y-76329557D01*
X102710819Y-76449264D01*
X102710818Y-76449265D01*
X103957874Y-77696320D01*
X103833680Y-77786554D01*
X103694554Y-77925680D01*
X103604320Y-78049873D01*
X102354148Y-76799701D01*
X102354147Y-76799702D01*
X102345976Y-76808363D01*
X102345972Y-76808368D01*
X102137289Y-77088677D01*
X101962561Y-77391316D01*
X101962555Y-77391329D01*
X101824145Y-77712199D01*
X101723916Y-78046988D01*
X101723914Y-78046997D01*
X101663236Y-78391119D01*
X101663235Y-78391130D01*
X101642916Y-78739996D01*
X98036500Y-78739996D01*
X98036500Y-74803000D01*
X131943402Y-74803000D01*
X131963738Y-74996483D01*
X132023856Y-75181510D01*
X132023857Y-75181511D01*
X132036264Y-75203000D01*
X132121130Y-75349992D01*
X132154526Y-75387082D01*
X132251302Y-75494564D01*
X132251305Y-75494566D01*
X132251308Y-75494569D01*
X132358569Y-75572499D01*
X132408702Y-75608923D01*
X132476926Y-75639297D01*
X132586429Y-75688051D01*
X132776726Y-75728500D01*
X132971274Y-75728500D01*
X133161571Y-75688051D01*
X133339299Y-75608922D01*
X133496692Y-75494569D01*
X133496700Y-75494560D01*
X133497748Y-75493617D01*
X133498495Y-75493258D01*
X133501949Y-75490749D01*
X133502407Y-75491380D01*
X133560737Y-75463382D01*
X133630073Y-75472001D01*
X133683742Y-75516738D01*
X133704017Y-75572499D01*
X133705401Y-75585374D01*
X133705403Y-75585379D01*
X133755645Y-75720086D01*
X133755649Y-75720093D01*
X133841809Y-75835187D01*
X133841812Y-75835190D01*
X133956906Y-75921350D01*
X133956913Y-75921354D01*
X134091620Y-75971596D01*
X134091627Y-75971598D01*
X134151155Y-75977999D01*
X134151172Y-75978000D01*
X134624000Y-75978000D01*
X134624000Y-75118686D01*
X134628394Y-75123080D01*
X134719606Y-75175741D01*
X134821339Y-75203000D01*
X134926661Y-75203000D01*
X135028394Y-75175741D01*
X135119606Y-75123080D01*
X135124000Y-75118686D01*
X135124000Y-75978000D01*
X135596828Y-75978000D01*
X135596844Y-75977999D01*
X135656372Y-75971598D01*
X135656379Y-75971596D01*
X135791086Y-75921354D01*
X135791093Y-75921350D01*
X135906187Y-75835190D01*
X135906190Y-75835187D01*
X135992350Y-75720093D01*
X135992354Y-75720086D01*
X136042596Y-75585379D01*
X136042598Y-75585372D01*
X136048999Y-75525844D01*
X136049000Y-75525827D01*
X136049000Y-75053000D01*
X135189686Y-75053000D01*
X135194080Y-75048606D01*
X135246741Y-74957394D01*
X135274000Y-74855661D01*
X135274000Y-74803000D01*
X137753402Y-74803000D01*
X137773738Y-74996483D01*
X137833856Y-75181510D01*
X137833857Y-75181511D01*
X137846264Y-75203000D01*
X137931130Y-75349992D01*
X137964526Y-75387082D01*
X138061302Y-75494564D01*
X138061305Y-75494566D01*
X138061308Y-75494569D01*
X138168569Y-75572499D01*
X138218702Y-75608923D01*
X138286926Y-75639297D01*
X138396429Y-75688051D01*
X138586726Y-75728500D01*
X138781274Y-75728500D01*
X138971571Y-75688051D01*
X139149299Y-75608922D01*
X139306692Y-75494569D01*
X139306700Y-75494560D01*
X139307748Y-75493617D01*
X139308495Y-75493258D01*
X139311949Y-75490749D01*
X139312407Y-75491380D01*
X139370737Y-75463382D01*
X139440073Y-75472001D01*
X139493742Y-75516738D01*
X139514017Y-75572499D01*
X139515401Y-75585374D01*
X139515403Y-75585379D01*
X139565645Y-75720086D01*
X139565649Y-75720093D01*
X139651809Y-75835187D01*
X139651812Y-75835190D01*
X139766906Y-75921350D01*
X139766913Y-75921354D01*
X139901620Y-75971596D01*
X139901627Y-75971598D01*
X139961155Y-75977999D01*
X139961172Y-75978000D01*
X140434000Y-75978000D01*
X140434000Y-75118686D01*
X140438394Y-75123080D01*
X140529606Y-75175741D01*
X140631339Y-75203000D01*
X140736661Y-75203000D01*
X140838394Y-75175741D01*
X140929606Y-75123080D01*
X140934000Y-75118686D01*
X140934000Y-75978000D01*
X141406828Y-75978000D01*
X141406844Y-75977999D01*
X141466372Y-75971598D01*
X141466379Y-75971596D01*
X141601086Y-75921354D01*
X141601093Y-75921350D01*
X141716187Y-75835190D01*
X141716190Y-75835187D01*
X141802350Y-75720093D01*
X141802354Y-75720086D01*
X141852596Y-75585379D01*
X141852598Y-75585372D01*
X141858999Y-75525844D01*
X141859000Y-75525827D01*
X141859000Y-75053000D01*
X140999686Y-75053000D01*
X141004080Y-75048606D01*
X141056741Y-74957394D01*
X141084000Y-74855661D01*
X141084000Y-74750339D01*
X141056741Y-74648606D01*
X141004080Y-74557394D01*
X140999686Y-74553000D01*
X141859000Y-74553000D01*
X141859000Y-74080172D01*
X141858999Y-74080155D01*
X141852598Y-74020627D01*
X141852596Y-74020620D01*
X141802354Y-73885913D01*
X141802350Y-73885906D01*
X141716190Y-73770812D01*
X141716187Y-73770809D01*
X141601093Y-73684649D01*
X141601086Y-73684645D01*
X141466379Y-73634403D01*
X141466372Y-73634401D01*
X141406844Y-73628000D01*
X140934000Y-73628000D01*
X140934000Y-74487314D01*
X140929606Y-74482920D01*
X140838394Y-74430259D01*
X140736661Y-74403000D01*
X140631339Y-74403000D01*
X140529606Y-74430259D01*
X140438394Y-74482920D01*
X140434000Y-74487314D01*
X140434000Y-73628000D01*
X139961155Y-73628000D01*
X139901627Y-73634401D01*
X139901620Y-73634403D01*
X139766913Y-73684645D01*
X139766906Y-73684649D01*
X139651812Y-73770809D01*
X139651809Y-73770812D01*
X139565649Y-73885906D01*
X139565645Y-73885913D01*
X139515403Y-74020620D01*
X139515402Y-74020625D01*
X139514017Y-74033501D01*
X139487275Y-74098051D01*
X139429880Y-74137896D01*
X139360055Y-74140385D01*
X139312271Y-74114806D01*
X139311949Y-74115251D01*
X139308722Y-74112906D01*
X139307757Y-74112390D01*
X139306694Y-74111433D01*
X139306693Y-74111432D01*
X139306692Y-74111431D01*
X139199431Y-74033501D01*
X139149297Y-73997076D01*
X139012848Y-73936326D01*
X138971571Y-73917949D01*
X138971569Y-73917948D01*
X138781274Y-73877500D01*
X138586726Y-73877500D01*
X138396431Y-73917948D01*
X138218702Y-73997076D01*
X138061305Y-74111433D01*
X138061302Y-74111435D01*
X137931129Y-74256009D01*
X137833857Y-74424488D01*
X137833856Y-74424489D01*
X137773738Y-74609516D01*
X137753402Y-74803000D01*
X135274000Y-74803000D01*
X135274000Y-74750339D01*
X135246741Y-74648606D01*
X135194080Y-74557394D01*
X135189686Y-74553000D01*
X136049000Y-74553000D01*
X136049000Y-74080172D01*
X136048999Y-74080155D01*
X136042598Y-74020627D01*
X136042596Y-74020620D01*
X135992354Y-73885913D01*
X135992350Y-73885906D01*
X135906190Y-73770812D01*
X135906187Y-73770809D01*
X135791093Y-73684649D01*
X135791086Y-73684645D01*
X135656379Y-73634403D01*
X135656372Y-73634401D01*
X135596844Y-73628000D01*
X135124000Y-73628000D01*
X135124000Y-74487314D01*
X135119606Y-74482920D01*
X135028394Y-74430259D01*
X134926661Y-74403000D01*
X134821339Y-74403000D01*
X134719606Y-74430259D01*
X134628394Y-74482920D01*
X134624000Y-74487314D01*
X134624000Y-73628000D01*
X134151155Y-73628000D01*
X134091627Y-73634401D01*
X134091620Y-73634403D01*
X133956913Y-73684645D01*
X133956906Y-73684649D01*
X133841812Y-73770809D01*
X133841809Y-73770812D01*
X133755649Y-73885906D01*
X133755645Y-73885913D01*
X133705403Y-74020620D01*
X133705402Y-74020625D01*
X133704017Y-74033501D01*
X133677275Y-74098051D01*
X133619880Y-74137896D01*
X133550055Y-74140385D01*
X133502271Y-74114806D01*
X133501949Y-74115251D01*
X133498722Y-74112906D01*
X133497757Y-74112390D01*
X133496694Y-74111433D01*
X133496693Y-74111432D01*
X133496692Y-74111431D01*
X133389431Y-74033501D01*
X133339297Y-73997076D01*
X133202848Y-73936326D01*
X133161571Y-73917949D01*
X133161569Y-73917948D01*
X132971274Y-73877500D01*
X132776726Y-73877500D01*
X132586431Y-73917948D01*
X132408702Y-73997076D01*
X132251305Y-74111433D01*
X132251302Y-74111435D01*
X132121129Y-74256009D01*
X132023857Y-74424488D01*
X132023856Y-74424489D01*
X131963738Y-74609516D01*
X131943402Y-74803000D01*
X98036500Y-74803000D01*
X98036500Y-72252500D01*
X98056185Y-72185461D01*
X98108989Y-72139706D01*
X98160500Y-72128500D01*
X177175500Y-72128500D01*
X177242539Y-72148185D01*
G37*
%TD.AperFunction*%
%TD*%
M02*
