%TF.GenerationSoftware,KiCad,Pcbnew,8.0.5*%
%TF.CreationDate,2024-11-08T11:42:38+01:00*%
%TF.ProjectId,SMD-Loetstation_v2,534d442d-4c6f-4657-9473-746174696f6e,rev?*%
%TF.SameCoordinates,Original*%
%TF.FileFunction,Legend,Bot*%
%TF.FilePolarity,Positive*%
%FSLAX46Y46*%
G04 Gerber Fmt 4.6, Leading zero omitted, Abs format (unit mm)*
G04 Created by KiCad (PCBNEW 8.0.5) date 2024-11-08 11:42:38*
%MOMM*%
%LPD*%
G01*
G04 APERTURE LIST*
%ADD10C,0.200000*%
%ADD11C,0.100000*%
%ADD12C,0.125000*%
%ADD13C,0.000000*%
%ADD14C,0.127000*%
G04 APERTURE END LIST*
D10*
X147712986Y-105567695D02*
X147712986Y-104767695D01*
X147712986Y-104767695D02*
X147522510Y-104767695D01*
X147522510Y-104767695D02*
X147408224Y-104805790D01*
X147408224Y-104805790D02*
X147332034Y-104881980D01*
X147332034Y-104881980D02*
X147293939Y-104958171D01*
X147293939Y-104958171D02*
X147255843Y-105110552D01*
X147255843Y-105110552D02*
X147255843Y-105224838D01*
X147255843Y-105224838D02*
X147293939Y-105377219D01*
X147293939Y-105377219D02*
X147332034Y-105453409D01*
X147332034Y-105453409D02*
X147408224Y-105529600D01*
X147408224Y-105529600D02*
X147522510Y-105567695D01*
X147522510Y-105567695D02*
X147712986Y-105567695D01*
X146912986Y-105567695D02*
X146912986Y-105034361D01*
X146912986Y-104767695D02*
X146951082Y-104805790D01*
X146951082Y-104805790D02*
X146912986Y-104843885D01*
X146912986Y-104843885D02*
X146874891Y-104805790D01*
X146874891Y-104805790D02*
X146912986Y-104767695D01*
X146912986Y-104767695D02*
X146912986Y-104843885D01*
X146189177Y-105034361D02*
X146189177Y-105681980D01*
X146189177Y-105681980D02*
X146227272Y-105758171D01*
X146227272Y-105758171D02*
X146265368Y-105796266D01*
X146265368Y-105796266D02*
X146341558Y-105834361D01*
X146341558Y-105834361D02*
X146455844Y-105834361D01*
X146455844Y-105834361D02*
X146532034Y-105796266D01*
X146189177Y-105529600D02*
X146265368Y-105567695D01*
X146265368Y-105567695D02*
X146417749Y-105567695D01*
X146417749Y-105567695D02*
X146493939Y-105529600D01*
X146493939Y-105529600D02*
X146532034Y-105491504D01*
X146532034Y-105491504D02*
X146570130Y-105415314D01*
X146570130Y-105415314D02*
X146570130Y-105186742D01*
X146570130Y-105186742D02*
X146532034Y-105110552D01*
X146532034Y-105110552D02*
X146493939Y-105072457D01*
X146493939Y-105072457D02*
X146417749Y-105034361D01*
X146417749Y-105034361D02*
X146265368Y-105034361D01*
X146265368Y-105034361D02*
X146189177Y-105072457D01*
X145808224Y-105567695D02*
X145808224Y-105034361D01*
X145808224Y-104767695D02*
X145846320Y-104805790D01*
X145846320Y-104805790D02*
X145808224Y-104843885D01*
X145808224Y-104843885D02*
X145770129Y-104805790D01*
X145770129Y-104805790D02*
X145808224Y-104767695D01*
X145808224Y-104767695D02*
X145808224Y-104843885D01*
X145541558Y-105034361D02*
X145236796Y-105034361D01*
X145427272Y-104767695D02*
X145427272Y-105453409D01*
X145427272Y-105453409D02*
X145389177Y-105529600D01*
X145389177Y-105529600D02*
X145312987Y-105567695D01*
X145312987Y-105567695D02*
X145236796Y-105567695D01*
X144627272Y-105567695D02*
X144627272Y-105148647D01*
X144627272Y-105148647D02*
X144665367Y-105072457D01*
X144665367Y-105072457D02*
X144741558Y-105034361D01*
X144741558Y-105034361D02*
X144893939Y-105034361D01*
X144893939Y-105034361D02*
X144970129Y-105072457D01*
X144627272Y-105529600D02*
X144703463Y-105567695D01*
X144703463Y-105567695D02*
X144893939Y-105567695D01*
X144893939Y-105567695D02*
X144970129Y-105529600D01*
X144970129Y-105529600D02*
X145008225Y-105453409D01*
X145008225Y-105453409D02*
X145008225Y-105377219D01*
X145008225Y-105377219D02*
X144970129Y-105301028D01*
X144970129Y-105301028D02*
X144893939Y-105262933D01*
X144893939Y-105262933D02*
X144703463Y-105262933D01*
X144703463Y-105262933D02*
X144627272Y-105224838D01*
X144132034Y-105567695D02*
X144208224Y-105529600D01*
X144208224Y-105529600D02*
X144246319Y-105453409D01*
X144246319Y-105453409D02*
X144246319Y-104767695D01*
X143522509Y-105529600D02*
X143598700Y-105567695D01*
X143598700Y-105567695D02*
X143751081Y-105567695D01*
X143751081Y-105567695D02*
X143827271Y-105529600D01*
X143827271Y-105529600D02*
X143865367Y-105453409D01*
X143865367Y-105453409D02*
X143865367Y-105148647D01*
X143865367Y-105148647D02*
X143827271Y-105072457D01*
X143827271Y-105072457D02*
X143751081Y-105034361D01*
X143751081Y-105034361D02*
X143598700Y-105034361D01*
X143598700Y-105034361D02*
X143522509Y-105072457D01*
X143522509Y-105072457D02*
X143484414Y-105148647D01*
X143484414Y-105148647D02*
X143484414Y-105224838D01*
X143484414Y-105224838D02*
X143865367Y-105301028D01*
X142151081Y-105567695D02*
X142532033Y-105567695D01*
X142532033Y-105567695D02*
X142532033Y-104767695D01*
X141770129Y-105567695D02*
X141846319Y-105529600D01*
X141846319Y-105529600D02*
X141884414Y-105491504D01*
X141884414Y-105491504D02*
X141922510Y-105415314D01*
X141922510Y-105415314D02*
X141922510Y-105186742D01*
X141922510Y-105186742D02*
X141884414Y-105110552D01*
X141884414Y-105110552D02*
X141846319Y-105072457D01*
X141846319Y-105072457D02*
X141770129Y-105034361D01*
X141770129Y-105034361D02*
X141655843Y-105034361D01*
X141655843Y-105034361D02*
X141579652Y-105072457D01*
X141579652Y-105072457D02*
X141541557Y-105110552D01*
X141541557Y-105110552D02*
X141503462Y-105186742D01*
X141503462Y-105186742D02*
X141503462Y-105415314D01*
X141503462Y-105415314D02*
X141541557Y-105491504D01*
X141541557Y-105491504D02*
X141579652Y-105529600D01*
X141579652Y-105529600D02*
X141655843Y-105567695D01*
X141655843Y-105567695D02*
X141770129Y-105567695D01*
X140855842Y-105529600D02*
X140932033Y-105567695D01*
X140932033Y-105567695D02*
X141084414Y-105567695D01*
X141084414Y-105567695D02*
X141160604Y-105529600D01*
X141160604Y-105529600D02*
X141198700Y-105453409D01*
X141198700Y-105453409D02*
X141198700Y-105148647D01*
X141198700Y-105148647D02*
X141160604Y-105072457D01*
X141160604Y-105072457D02*
X141084414Y-105034361D01*
X141084414Y-105034361D02*
X140932033Y-105034361D01*
X140932033Y-105034361D02*
X140855842Y-105072457D01*
X140855842Y-105072457D02*
X140817747Y-105148647D01*
X140817747Y-105148647D02*
X140817747Y-105224838D01*
X140817747Y-105224838D02*
X141198700Y-105301028D01*
X140589176Y-105034361D02*
X140284414Y-105034361D01*
X140474890Y-104767695D02*
X140474890Y-105453409D01*
X140474890Y-105453409D02*
X140436795Y-105529600D01*
X140436795Y-105529600D02*
X140360605Y-105567695D01*
X140360605Y-105567695D02*
X140284414Y-105567695D01*
X140055843Y-105529600D02*
X139979652Y-105567695D01*
X139979652Y-105567695D02*
X139827271Y-105567695D01*
X139827271Y-105567695D02*
X139751081Y-105529600D01*
X139751081Y-105529600D02*
X139712985Y-105453409D01*
X139712985Y-105453409D02*
X139712985Y-105415314D01*
X139712985Y-105415314D02*
X139751081Y-105339123D01*
X139751081Y-105339123D02*
X139827271Y-105301028D01*
X139827271Y-105301028D02*
X139941557Y-105301028D01*
X139941557Y-105301028D02*
X140017747Y-105262933D01*
X140017747Y-105262933D02*
X140055843Y-105186742D01*
X140055843Y-105186742D02*
X140055843Y-105148647D01*
X140055843Y-105148647D02*
X140017747Y-105072457D01*
X140017747Y-105072457D02*
X139941557Y-105034361D01*
X139941557Y-105034361D02*
X139827271Y-105034361D01*
X139827271Y-105034361D02*
X139751081Y-105072457D01*
X139484414Y-105034361D02*
X139179652Y-105034361D01*
X139370128Y-104767695D02*
X139370128Y-105453409D01*
X139370128Y-105453409D02*
X139332033Y-105529600D01*
X139332033Y-105529600D02*
X139255843Y-105567695D01*
X139255843Y-105567695D02*
X139179652Y-105567695D01*
X138570128Y-105567695D02*
X138570128Y-105148647D01*
X138570128Y-105148647D02*
X138608223Y-105072457D01*
X138608223Y-105072457D02*
X138684414Y-105034361D01*
X138684414Y-105034361D02*
X138836795Y-105034361D01*
X138836795Y-105034361D02*
X138912985Y-105072457D01*
X138570128Y-105529600D02*
X138646319Y-105567695D01*
X138646319Y-105567695D02*
X138836795Y-105567695D01*
X138836795Y-105567695D02*
X138912985Y-105529600D01*
X138912985Y-105529600D02*
X138951081Y-105453409D01*
X138951081Y-105453409D02*
X138951081Y-105377219D01*
X138951081Y-105377219D02*
X138912985Y-105301028D01*
X138912985Y-105301028D02*
X138836795Y-105262933D01*
X138836795Y-105262933D02*
X138646319Y-105262933D01*
X138646319Y-105262933D02*
X138570128Y-105224838D01*
X138303461Y-105034361D02*
X137998699Y-105034361D01*
X138189175Y-104767695D02*
X138189175Y-105453409D01*
X138189175Y-105453409D02*
X138151080Y-105529600D01*
X138151080Y-105529600D02*
X138074890Y-105567695D01*
X138074890Y-105567695D02*
X137998699Y-105567695D01*
X137732032Y-105567695D02*
X137732032Y-105034361D01*
X137732032Y-104767695D02*
X137770128Y-104805790D01*
X137770128Y-104805790D02*
X137732032Y-104843885D01*
X137732032Y-104843885D02*
X137693937Y-104805790D01*
X137693937Y-104805790D02*
X137732032Y-104767695D01*
X137732032Y-104767695D02*
X137732032Y-104843885D01*
X137236795Y-105567695D02*
X137312985Y-105529600D01*
X137312985Y-105529600D02*
X137351080Y-105491504D01*
X137351080Y-105491504D02*
X137389176Y-105415314D01*
X137389176Y-105415314D02*
X137389176Y-105186742D01*
X137389176Y-105186742D02*
X137351080Y-105110552D01*
X137351080Y-105110552D02*
X137312985Y-105072457D01*
X137312985Y-105072457D02*
X137236795Y-105034361D01*
X137236795Y-105034361D02*
X137122509Y-105034361D01*
X137122509Y-105034361D02*
X137046318Y-105072457D01*
X137046318Y-105072457D02*
X137008223Y-105110552D01*
X137008223Y-105110552D02*
X136970128Y-105186742D01*
X136970128Y-105186742D02*
X136970128Y-105415314D01*
X136970128Y-105415314D02*
X137008223Y-105491504D01*
X137008223Y-105491504D02*
X137046318Y-105529600D01*
X137046318Y-105529600D02*
X137122509Y-105567695D01*
X137122509Y-105567695D02*
X137236795Y-105567695D01*
X136627270Y-105034361D02*
X136627270Y-105567695D01*
X136627270Y-105110552D02*
X136589175Y-105072457D01*
X136589175Y-105072457D02*
X136512985Y-105034361D01*
X136512985Y-105034361D02*
X136398699Y-105034361D01*
X136398699Y-105034361D02*
X136322508Y-105072457D01*
X136322508Y-105072457D02*
X136284413Y-105148647D01*
X136284413Y-105148647D02*
X136284413Y-105567695D01*
X148665367Y-106855650D02*
X148665367Y-106055650D01*
X148665367Y-106360412D02*
X148589177Y-106322316D01*
X148589177Y-106322316D02*
X148436796Y-106322316D01*
X148436796Y-106322316D02*
X148360605Y-106360412D01*
X148360605Y-106360412D02*
X148322510Y-106398507D01*
X148322510Y-106398507D02*
X148284415Y-106474697D01*
X148284415Y-106474697D02*
X148284415Y-106703269D01*
X148284415Y-106703269D02*
X148322510Y-106779459D01*
X148322510Y-106779459D02*
X148360605Y-106817555D01*
X148360605Y-106817555D02*
X148436796Y-106855650D01*
X148436796Y-106855650D02*
X148589177Y-106855650D01*
X148589177Y-106855650D02*
X148665367Y-106817555D01*
X148017748Y-106322316D02*
X147827272Y-106855650D01*
X147636795Y-106322316D02*
X147827272Y-106855650D01*
X147827272Y-106855650D02*
X147903462Y-107046126D01*
X147903462Y-107046126D02*
X147941557Y-107084221D01*
X147941557Y-107084221D02*
X148017748Y-107122316D01*
X146570128Y-106055650D02*
X146417747Y-106055650D01*
X146417747Y-106055650D02*
X146341557Y-106093745D01*
X146341557Y-106093745D02*
X146265366Y-106169935D01*
X146265366Y-106169935D02*
X146227271Y-106322316D01*
X146227271Y-106322316D02*
X146227271Y-106588983D01*
X146227271Y-106588983D02*
X146265366Y-106741364D01*
X146265366Y-106741364D02*
X146341557Y-106817555D01*
X146341557Y-106817555D02*
X146417747Y-106855650D01*
X146417747Y-106855650D02*
X146570128Y-106855650D01*
X146570128Y-106855650D02*
X146646319Y-106817555D01*
X146646319Y-106817555D02*
X146722509Y-106741364D01*
X146722509Y-106741364D02*
X146760605Y-106588983D01*
X146760605Y-106588983D02*
X146760605Y-106322316D01*
X146760605Y-106322316D02*
X146722509Y-106169935D01*
X146722509Y-106169935D02*
X146646319Y-106093745D01*
X146646319Y-106093745D02*
X146570128Y-106055650D01*
X145884414Y-106436602D02*
X145617748Y-106436602D01*
X145503462Y-106855650D02*
X145884414Y-106855650D01*
X145884414Y-106855650D02*
X145884414Y-106055650D01*
X145884414Y-106055650D02*
X145503462Y-106055650D01*
X144741557Y-106855650D02*
X145198700Y-106855650D01*
X144970128Y-106855650D02*
X144970128Y-106055650D01*
X144970128Y-106055650D02*
X145046319Y-106169935D01*
X145046319Y-106169935D02*
X145122509Y-106246126D01*
X145122509Y-106246126D02*
X145198700Y-106284221D01*
X143941556Y-106779459D02*
X143979652Y-106817555D01*
X143979652Y-106817555D02*
X144093937Y-106855650D01*
X144093937Y-106855650D02*
X144170128Y-106855650D01*
X144170128Y-106855650D02*
X144284414Y-106817555D01*
X144284414Y-106817555D02*
X144360604Y-106741364D01*
X144360604Y-106741364D02*
X144398699Y-106665174D01*
X144398699Y-106665174D02*
X144436795Y-106512793D01*
X144436795Y-106512793D02*
X144436795Y-106398507D01*
X144436795Y-106398507D02*
X144398699Y-106246126D01*
X144398699Y-106246126D02*
X144360604Y-106169935D01*
X144360604Y-106169935D02*
X144284414Y-106093745D01*
X144284414Y-106093745D02*
X144170128Y-106055650D01*
X144170128Y-106055650D02*
X144093937Y-106055650D01*
X144093937Y-106055650D02*
X143979652Y-106093745D01*
X143979652Y-106093745D02*
X143941556Y-106131840D01*
X143179652Y-106093745D02*
X143255842Y-106055650D01*
X143255842Y-106055650D02*
X143370128Y-106055650D01*
X143370128Y-106055650D02*
X143484414Y-106093745D01*
X143484414Y-106093745D02*
X143560604Y-106169935D01*
X143560604Y-106169935D02*
X143598699Y-106246126D01*
X143598699Y-106246126D02*
X143636795Y-106398507D01*
X143636795Y-106398507D02*
X143636795Y-106512793D01*
X143636795Y-106512793D02*
X143598699Y-106665174D01*
X143598699Y-106665174D02*
X143560604Y-106741364D01*
X143560604Y-106741364D02*
X143484414Y-106817555D01*
X143484414Y-106817555D02*
X143370128Y-106855650D01*
X143370128Y-106855650D02*
X143293937Y-106855650D01*
X143293937Y-106855650D02*
X143179652Y-106817555D01*
X143179652Y-106817555D02*
X143141556Y-106779459D01*
X143141556Y-106779459D02*
X143141556Y-106512793D01*
X143141556Y-106512793D02*
X143293937Y-106512793D01*
X142836795Y-106817555D02*
X142722509Y-106855650D01*
X142722509Y-106855650D02*
X142532033Y-106855650D01*
X142532033Y-106855650D02*
X142455842Y-106817555D01*
X142455842Y-106817555D02*
X142417747Y-106779459D01*
X142417747Y-106779459D02*
X142379652Y-106703269D01*
X142379652Y-106703269D02*
X142379652Y-106627078D01*
X142379652Y-106627078D02*
X142417747Y-106550888D01*
X142417747Y-106550888D02*
X142455842Y-106512793D01*
X142455842Y-106512793D02*
X142532033Y-106474697D01*
X142532033Y-106474697D02*
X142684414Y-106436602D01*
X142684414Y-106436602D02*
X142760604Y-106398507D01*
X142760604Y-106398507D02*
X142798699Y-106360412D01*
X142798699Y-106360412D02*
X142836795Y-106284221D01*
X142836795Y-106284221D02*
X142836795Y-106208031D01*
X142836795Y-106208031D02*
X142798699Y-106131840D01*
X142798699Y-106131840D02*
X142760604Y-106093745D01*
X142760604Y-106093745D02*
X142684414Y-106055650D01*
X142684414Y-106055650D02*
X142493937Y-106055650D01*
X142493937Y-106055650D02*
X142379652Y-106093745D01*
X140779651Y-106855650D02*
X140817747Y-106855650D01*
X140817747Y-106855650D02*
X140893937Y-106817555D01*
X140893937Y-106817555D02*
X141008223Y-106703269D01*
X141008223Y-106703269D02*
X141198699Y-106474697D01*
X141198699Y-106474697D02*
X141274889Y-106360412D01*
X141274889Y-106360412D02*
X141312985Y-106246126D01*
X141312985Y-106246126D02*
X141312985Y-106169935D01*
X141312985Y-106169935D02*
X141274889Y-106093745D01*
X141274889Y-106093745D02*
X141198699Y-106055650D01*
X141198699Y-106055650D02*
X141160604Y-106055650D01*
X141160604Y-106055650D02*
X141084413Y-106093745D01*
X141084413Y-106093745D02*
X141046318Y-106169935D01*
X141046318Y-106169935D02*
X141046318Y-106208031D01*
X141046318Y-106208031D02*
X141084413Y-106284221D01*
X141084413Y-106284221D02*
X141122508Y-106322316D01*
X141122508Y-106322316D02*
X141351080Y-106474697D01*
X141351080Y-106474697D02*
X141389175Y-106512793D01*
X141389175Y-106512793D02*
X141427270Y-106588983D01*
X141427270Y-106588983D02*
X141427270Y-106703269D01*
X141427270Y-106703269D02*
X141389175Y-106779459D01*
X141389175Y-106779459D02*
X141351080Y-106817555D01*
X141351080Y-106817555D02*
X141274889Y-106855650D01*
X141274889Y-106855650D02*
X141160604Y-106855650D01*
X141160604Y-106855650D02*
X141084413Y-106817555D01*
X141084413Y-106817555D02*
X141046318Y-106779459D01*
X141046318Y-106779459D02*
X140932032Y-106627078D01*
X140932032Y-106627078D02*
X140893937Y-106512793D01*
X140893937Y-106512793D02*
X140893937Y-106436602D01*
X139827270Y-106855650D02*
X139827270Y-106055650D01*
X139827270Y-106055650D02*
X139636794Y-106055650D01*
X139636794Y-106055650D02*
X139522508Y-106093745D01*
X139522508Y-106093745D02*
X139446318Y-106169935D01*
X139446318Y-106169935D02*
X139408223Y-106246126D01*
X139408223Y-106246126D02*
X139370127Y-106398507D01*
X139370127Y-106398507D02*
X139370127Y-106512793D01*
X139370127Y-106512793D02*
X139408223Y-106665174D01*
X139408223Y-106665174D02*
X139446318Y-106741364D01*
X139446318Y-106741364D02*
X139522508Y-106817555D01*
X139522508Y-106817555D02*
X139636794Y-106855650D01*
X139636794Y-106855650D02*
X139827270Y-106855650D01*
X138570127Y-106779459D02*
X138608223Y-106817555D01*
X138608223Y-106817555D02*
X138722508Y-106855650D01*
X138722508Y-106855650D02*
X138798699Y-106855650D01*
X138798699Y-106855650D02*
X138912985Y-106817555D01*
X138912985Y-106817555D02*
X138989175Y-106741364D01*
X138989175Y-106741364D02*
X139027270Y-106665174D01*
X139027270Y-106665174D02*
X139065366Y-106512793D01*
X139065366Y-106512793D02*
X139065366Y-106398507D01*
X139065366Y-106398507D02*
X139027270Y-106246126D01*
X139027270Y-106246126D02*
X138989175Y-106169935D01*
X138989175Y-106169935D02*
X138912985Y-106093745D01*
X138912985Y-106093745D02*
X138798699Y-106055650D01*
X138798699Y-106055650D02*
X138722508Y-106055650D01*
X138722508Y-106055650D02*
X138608223Y-106093745D01*
X138608223Y-106093745D02*
X138570127Y-106131840D01*
X138303461Y-106055650D02*
X137808223Y-106055650D01*
X137808223Y-106055650D02*
X138074889Y-106360412D01*
X138074889Y-106360412D02*
X137960604Y-106360412D01*
X137960604Y-106360412D02*
X137884413Y-106398507D01*
X137884413Y-106398507D02*
X137846318Y-106436602D01*
X137846318Y-106436602D02*
X137808223Y-106512793D01*
X137808223Y-106512793D02*
X137808223Y-106703269D01*
X137808223Y-106703269D02*
X137846318Y-106779459D01*
X137846318Y-106779459D02*
X137884413Y-106817555D01*
X137884413Y-106817555D02*
X137960604Y-106855650D01*
X137960604Y-106855650D02*
X138189175Y-106855650D01*
X138189175Y-106855650D02*
X138265366Y-106817555D01*
X138265366Y-106817555D02*
X138303461Y-106779459D01*
X137465365Y-106855650D02*
X137465365Y-106055650D01*
X137465365Y-106055650D02*
X137198699Y-106627078D01*
X137198699Y-106627078D02*
X136932032Y-106055650D01*
X136932032Y-106055650D02*
X136932032Y-106855650D01*
X136551079Y-106855650D02*
X136551079Y-106055650D01*
X136093936Y-106855650D02*
X136436794Y-106398507D01*
X136093936Y-106055650D02*
X136551079Y-106512793D01*
X135484413Y-106436602D02*
X135370127Y-106474697D01*
X135370127Y-106474697D02*
X135332032Y-106512793D01*
X135332032Y-106512793D02*
X135293936Y-106588983D01*
X135293936Y-106588983D02*
X135293936Y-106703269D01*
X135293936Y-106703269D02*
X135332032Y-106779459D01*
X135332032Y-106779459D02*
X135370127Y-106817555D01*
X135370127Y-106817555D02*
X135446317Y-106855650D01*
X135446317Y-106855650D02*
X135751079Y-106855650D01*
X135751079Y-106855650D02*
X135751079Y-106055650D01*
X135751079Y-106055650D02*
X135484413Y-106055650D01*
X135484413Y-106055650D02*
X135408222Y-106093745D01*
X135408222Y-106093745D02*
X135370127Y-106131840D01*
X135370127Y-106131840D02*
X135332032Y-106208031D01*
X135332032Y-106208031D02*
X135332032Y-106284221D01*
X135332032Y-106284221D02*
X135370127Y-106360412D01*
X135370127Y-106360412D02*
X135408222Y-106398507D01*
X135408222Y-106398507D02*
X135484413Y-106436602D01*
X135484413Y-106436602D02*
X135751079Y-106436602D01*
X150589177Y-108143605D02*
X150589177Y-107343605D01*
X150589177Y-107343605D02*
X150284415Y-107343605D01*
X150284415Y-107343605D02*
X150208225Y-107381700D01*
X150208225Y-107381700D02*
X150170130Y-107419795D01*
X150170130Y-107419795D02*
X150132034Y-107495986D01*
X150132034Y-107495986D02*
X150132034Y-107610271D01*
X150132034Y-107610271D02*
X150170130Y-107686462D01*
X150170130Y-107686462D02*
X150208225Y-107724557D01*
X150208225Y-107724557D02*
X150284415Y-107762652D01*
X150284415Y-107762652D02*
X150589177Y-107762652D01*
X149332034Y-108067414D02*
X149370130Y-108105510D01*
X149370130Y-108105510D02*
X149484415Y-108143605D01*
X149484415Y-108143605D02*
X149560606Y-108143605D01*
X149560606Y-108143605D02*
X149674892Y-108105510D01*
X149674892Y-108105510D02*
X149751082Y-108029319D01*
X149751082Y-108029319D02*
X149789177Y-107953129D01*
X149789177Y-107953129D02*
X149827273Y-107800748D01*
X149827273Y-107800748D02*
X149827273Y-107686462D01*
X149827273Y-107686462D02*
X149789177Y-107534081D01*
X149789177Y-107534081D02*
X149751082Y-107457890D01*
X149751082Y-107457890D02*
X149674892Y-107381700D01*
X149674892Y-107381700D02*
X149560606Y-107343605D01*
X149560606Y-107343605D02*
X149484415Y-107343605D01*
X149484415Y-107343605D02*
X149370130Y-107381700D01*
X149370130Y-107381700D02*
X149332034Y-107419795D01*
X148722511Y-107724557D02*
X148608225Y-107762652D01*
X148608225Y-107762652D02*
X148570130Y-107800748D01*
X148570130Y-107800748D02*
X148532034Y-107876938D01*
X148532034Y-107876938D02*
X148532034Y-107991224D01*
X148532034Y-107991224D02*
X148570130Y-108067414D01*
X148570130Y-108067414D02*
X148608225Y-108105510D01*
X148608225Y-108105510D02*
X148684415Y-108143605D01*
X148684415Y-108143605D02*
X148989177Y-108143605D01*
X148989177Y-108143605D02*
X148989177Y-107343605D01*
X148989177Y-107343605D02*
X148722511Y-107343605D01*
X148722511Y-107343605D02*
X148646320Y-107381700D01*
X148646320Y-107381700D02*
X148608225Y-107419795D01*
X148608225Y-107419795D02*
X148570130Y-107495986D01*
X148570130Y-107495986D02*
X148570130Y-107572176D01*
X148570130Y-107572176D02*
X148608225Y-107648367D01*
X148608225Y-107648367D02*
X148646320Y-107686462D01*
X148646320Y-107686462D02*
X148722511Y-107724557D01*
X148722511Y-107724557D02*
X148989177Y-107724557D01*
X147579653Y-108143605D02*
X147579653Y-107343605D01*
X147579653Y-107648367D02*
X147503463Y-107610271D01*
X147503463Y-107610271D02*
X147351082Y-107610271D01*
X147351082Y-107610271D02*
X147274891Y-107648367D01*
X147274891Y-107648367D02*
X147236796Y-107686462D01*
X147236796Y-107686462D02*
X147198701Y-107762652D01*
X147198701Y-107762652D02*
X147198701Y-107991224D01*
X147198701Y-107991224D02*
X147236796Y-108067414D01*
X147236796Y-108067414D02*
X147274891Y-108105510D01*
X147274891Y-108105510D02*
X147351082Y-108143605D01*
X147351082Y-108143605D02*
X147503463Y-108143605D01*
X147503463Y-108143605D02*
X147579653Y-108105510D01*
X146932034Y-107610271D02*
X146741558Y-108143605D01*
X146551081Y-107610271D02*
X146741558Y-108143605D01*
X146741558Y-108143605D02*
X146817748Y-108334081D01*
X146817748Y-108334081D02*
X146855843Y-108372176D01*
X146855843Y-108372176D02*
X146932034Y-108410271D01*
X145484414Y-107343605D02*
X145332033Y-107343605D01*
X145332033Y-107343605D02*
X145255843Y-107381700D01*
X145255843Y-107381700D02*
X145179652Y-107457890D01*
X145179652Y-107457890D02*
X145141557Y-107610271D01*
X145141557Y-107610271D02*
X145141557Y-107876938D01*
X145141557Y-107876938D02*
X145179652Y-108029319D01*
X145179652Y-108029319D02*
X145255843Y-108105510D01*
X145255843Y-108105510D02*
X145332033Y-108143605D01*
X145332033Y-108143605D02*
X145484414Y-108143605D01*
X145484414Y-108143605D02*
X145560605Y-108105510D01*
X145560605Y-108105510D02*
X145636795Y-108029319D01*
X145636795Y-108029319D02*
X145674891Y-107876938D01*
X145674891Y-107876938D02*
X145674891Y-107610271D01*
X145674891Y-107610271D02*
X145636795Y-107457890D01*
X145636795Y-107457890D02*
X145560605Y-107381700D01*
X145560605Y-107381700D02*
X145484414Y-107343605D01*
X144798700Y-107724557D02*
X144532034Y-107724557D01*
X144417748Y-108143605D02*
X144798700Y-108143605D01*
X144798700Y-108143605D02*
X144798700Y-107343605D01*
X144798700Y-107343605D02*
X144417748Y-107343605D01*
X144036795Y-108143605D02*
X143884414Y-108143605D01*
X143884414Y-108143605D02*
X143808224Y-108105510D01*
X143808224Y-108105510D02*
X143770128Y-108067414D01*
X143770128Y-108067414D02*
X143693938Y-107953129D01*
X143693938Y-107953129D02*
X143655843Y-107800748D01*
X143655843Y-107800748D02*
X143655843Y-107495986D01*
X143655843Y-107495986D02*
X143693938Y-107419795D01*
X143693938Y-107419795D02*
X143732033Y-107381700D01*
X143732033Y-107381700D02*
X143808224Y-107343605D01*
X143808224Y-107343605D02*
X143960605Y-107343605D01*
X143960605Y-107343605D02*
X144036795Y-107381700D01*
X144036795Y-107381700D02*
X144074890Y-107419795D01*
X144074890Y-107419795D02*
X144112986Y-107495986D01*
X144112986Y-107495986D02*
X144112986Y-107686462D01*
X144112986Y-107686462D02*
X144074890Y-107762652D01*
X144074890Y-107762652D02*
X144036795Y-107800748D01*
X144036795Y-107800748D02*
X143960605Y-107838843D01*
X143960605Y-107838843D02*
X143808224Y-107838843D01*
X143808224Y-107838843D02*
X143732033Y-107800748D01*
X143732033Y-107800748D02*
X143693938Y-107762652D01*
X143693938Y-107762652D02*
X143655843Y-107686462D01*
X143351081Y-108105510D02*
X143236795Y-108143605D01*
X143236795Y-108143605D02*
X143046319Y-108143605D01*
X143046319Y-108143605D02*
X142970128Y-108105510D01*
X142970128Y-108105510D02*
X142932033Y-108067414D01*
X142932033Y-108067414D02*
X142893938Y-107991224D01*
X142893938Y-107991224D02*
X142893938Y-107915033D01*
X142893938Y-107915033D02*
X142932033Y-107838843D01*
X142932033Y-107838843D02*
X142970128Y-107800748D01*
X142970128Y-107800748D02*
X143046319Y-107762652D01*
X143046319Y-107762652D02*
X143198700Y-107724557D01*
X143198700Y-107724557D02*
X143274890Y-107686462D01*
X143274890Y-107686462D02*
X143312985Y-107648367D01*
X143312985Y-107648367D02*
X143351081Y-107572176D01*
X143351081Y-107572176D02*
X143351081Y-107495986D01*
X143351081Y-107495986D02*
X143312985Y-107419795D01*
X143312985Y-107419795D02*
X143274890Y-107381700D01*
X143274890Y-107381700D02*
X143198700Y-107343605D01*
X143198700Y-107343605D02*
X143008223Y-107343605D01*
X143008223Y-107343605D02*
X142893938Y-107381700D01*
X142589176Y-107915033D02*
X142208223Y-107915033D01*
X142665366Y-108143605D02*
X142398699Y-107343605D01*
X142398699Y-107343605D02*
X142132033Y-108143605D01*
X141865366Y-107343605D02*
X141865366Y-107991224D01*
X141865366Y-107991224D02*
X141827271Y-108067414D01*
X141827271Y-108067414D02*
X141789176Y-108105510D01*
X141789176Y-108105510D02*
X141712985Y-108143605D01*
X141712985Y-108143605D02*
X141560604Y-108143605D01*
X141560604Y-108143605D02*
X141484414Y-108105510D01*
X141484414Y-108105510D02*
X141446319Y-108067414D01*
X141446319Y-108067414D02*
X141408223Y-107991224D01*
X141408223Y-107991224D02*
X141408223Y-107343605D01*
X139998700Y-108143605D02*
X140455843Y-108143605D01*
X140227271Y-108143605D02*
X140227271Y-107343605D01*
X140227271Y-107343605D02*
X140303462Y-107457890D01*
X140303462Y-107457890D02*
X140379652Y-107534081D01*
X140379652Y-107534081D02*
X140455843Y-107572176D01*
X139236795Y-108143605D02*
X139693938Y-108143605D01*
X139465366Y-108143605D02*
X139465366Y-107343605D01*
X139465366Y-107343605D02*
X139541557Y-107457890D01*
X139541557Y-107457890D02*
X139617747Y-107534081D01*
X139617747Y-107534081D02*
X139693938Y-107572176D01*
X138322509Y-107305510D02*
X139008223Y-108334081D01*
X138093938Y-107419795D02*
X138055842Y-107381700D01*
X138055842Y-107381700D02*
X137979652Y-107343605D01*
X137979652Y-107343605D02*
X137789176Y-107343605D01*
X137789176Y-107343605D02*
X137712985Y-107381700D01*
X137712985Y-107381700D02*
X137674890Y-107419795D01*
X137674890Y-107419795D02*
X137636795Y-107495986D01*
X137636795Y-107495986D02*
X137636795Y-107572176D01*
X137636795Y-107572176D02*
X137674890Y-107686462D01*
X137674890Y-107686462D02*
X138132033Y-108143605D01*
X138132033Y-108143605D02*
X137636795Y-108143605D01*
X137141556Y-107343605D02*
X137065366Y-107343605D01*
X137065366Y-107343605D02*
X136989175Y-107381700D01*
X136989175Y-107381700D02*
X136951080Y-107419795D01*
X136951080Y-107419795D02*
X136912985Y-107495986D01*
X136912985Y-107495986D02*
X136874890Y-107648367D01*
X136874890Y-107648367D02*
X136874890Y-107838843D01*
X136874890Y-107838843D02*
X136912985Y-107991224D01*
X136912985Y-107991224D02*
X136951080Y-108067414D01*
X136951080Y-108067414D02*
X136989175Y-108105510D01*
X136989175Y-108105510D02*
X137065366Y-108143605D01*
X137065366Y-108143605D02*
X137141556Y-108143605D01*
X137141556Y-108143605D02*
X137217747Y-108105510D01*
X137217747Y-108105510D02*
X137255842Y-108067414D01*
X137255842Y-108067414D02*
X137293937Y-107991224D01*
X137293937Y-107991224D02*
X137332033Y-107838843D01*
X137332033Y-107838843D02*
X137332033Y-107648367D01*
X137332033Y-107648367D02*
X137293937Y-107495986D01*
X137293937Y-107495986D02*
X137255842Y-107419795D01*
X137255842Y-107419795D02*
X137217747Y-107381700D01*
X137217747Y-107381700D02*
X137141556Y-107343605D01*
X136570128Y-107419795D02*
X136532032Y-107381700D01*
X136532032Y-107381700D02*
X136455842Y-107343605D01*
X136455842Y-107343605D02*
X136265366Y-107343605D01*
X136265366Y-107343605D02*
X136189175Y-107381700D01*
X136189175Y-107381700D02*
X136151080Y-107419795D01*
X136151080Y-107419795D02*
X136112985Y-107495986D01*
X136112985Y-107495986D02*
X136112985Y-107572176D01*
X136112985Y-107572176D02*
X136151080Y-107686462D01*
X136151080Y-107686462D02*
X136608223Y-108143605D01*
X136608223Y-108143605D02*
X136112985Y-108143605D01*
X135427270Y-107610271D02*
X135427270Y-108143605D01*
X135617746Y-107305510D02*
X135808223Y-107876938D01*
X135808223Y-107876938D02*
X135312984Y-107876938D01*
X134474889Y-107610271D02*
X134284413Y-108143605D01*
X134284413Y-108143605D02*
X134093936Y-107610271D01*
X133827270Y-107419795D02*
X133789174Y-107381700D01*
X133789174Y-107381700D02*
X133712984Y-107343605D01*
X133712984Y-107343605D02*
X133522508Y-107343605D01*
X133522508Y-107343605D02*
X133446317Y-107381700D01*
X133446317Y-107381700D02*
X133408222Y-107419795D01*
X133408222Y-107419795D02*
X133370127Y-107495986D01*
X133370127Y-107495986D02*
X133370127Y-107572176D01*
X133370127Y-107572176D02*
X133408222Y-107686462D01*
X133408222Y-107686462D02*
X133865365Y-108143605D01*
X133865365Y-108143605D02*
X133370127Y-108143605D01*
D11*
X132295900Y-104140000D02*
X151701500Y-104140000D01*
X151701500Y-108839000D01*
X132295900Y-108839000D01*
X132295900Y-104140000D01*
D12*
X136263228Y-95151209D02*
X136501323Y-95151209D01*
X136501323Y-95151209D02*
X136501323Y-94651209D01*
X136120370Y-95127400D02*
X136048942Y-95151209D01*
X136048942Y-95151209D02*
X135929894Y-95151209D01*
X135929894Y-95151209D02*
X135882275Y-95127400D01*
X135882275Y-95127400D02*
X135858466Y-95103590D01*
X135858466Y-95103590D02*
X135834656Y-95055971D01*
X135834656Y-95055971D02*
X135834656Y-95008352D01*
X135834656Y-95008352D02*
X135858466Y-94960733D01*
X135858466Y-94960733D02*
X135882275Y-94936923D01*
X135882275Y-94936923D02*
X135929894Y-94913114D01*
X135929894Y-94913114D02*
X136025132Y-94889304D01*
X136025132Y-94889304D02*
X136072751Y-94865495D01*
X136072751Y-94865495D02*
X136096561Y-94841685D01*
X136096561Y-94841685D02*
X136120370Y-94794066D01*
X136120370Y-94794066D02*
X136120370Y-94746447D01*
X136120370Y-94746447D02*
X136096561Y-94698828D01*
X136096561Y-94698828D02*
X136072751Y-94675019D01*
X136072751Y-94675019D02*
X136025132Y-94651209D01*
X136025132Y-94651209D02*
X135906085Y-94651209D01*
X135906085Y-94651209D02*
X135834656Y-94675019D01*
X135358466Y-95151209D02*
X135644180Y-95151209D01*
X135501323Y-95151209D02*
X135501323Y-94651209D01*
X135501323Y-94651209D02*
X135548942Y-94722638D01*
X135548942Y-94722638D02*
X135596561Y-94770257D01*
X135596561Y-94770257D02*
X135644180Y-94794066D01*
D13*
%TO.C,G10*%
G36*
X140247937Y-100070191D02*
G01*
X140316064Y-100111719D01*
X140402082Y-100182027D01*
X140511679Y-100283531D01*
X140650543Y-100418645D01*
X140663680Y-100431561D01*
X140784650Y-100551228D01*
X140874403Y-100642337D01*
X140937532Y-100710527D01*
X140978635Y-100761439D01*
X141002304Y-100800714D01*
X141013136Y-100833992D01*
X141015726Y-100866913D01*
X141013495Y-100901577D01*
X140988863Y-100972083D01*
X140929565Y-101047629D01*
X140885429Y-101090437D01*
X140824002Y-101128505D01*
X140756296Y-101138985D01*
X140755400Y-101138984D01*
X140723026Y-101135912D01*
X140689197Y-101123916D01*
X140648329Y-101098479D01*
X140594840Y-101055081D01*
X140523149Y-100989205D01*
X140427674Y-100896332D01*
X140302831Y-100771944D01*
X140265280Y-100734270D01*
X140137990Y-100604681D01*
X140043686Y-100502804D01*
X139979849Y-100422952D01*
X139943957Y-100359433D01*
X139933488Y-100306560D01*
X139945923Y-100258642D01*
X139978739Y-100209990D01*
X140029416Y-100154915D01*
X140040571Y-100143579D01*
X140094018Y-100094138D01*
X140142602Y-100063816D01*
X140192013Y-100055029D01*
X140247937Y-100070191D01*
G37*
G36*
X140890232Y-99732807D02*
G01*
X140896435Y-99737525D01*
X140935747Y-99772945D01*
X141002570Y-99836515D01*
X141091144Y-99922651D01*
X141195708Y-100025767D01*
X141310500Y-100140278D01*
X141380318Y-100210417D01*
X141489893Y-100321570D01*
X141570457Y-100405921D01*
X141626444Y-100469029D01*
X141662285Y-100516448D01*
X141682412Y-100553738D01*
X141691259Y-100586454D01*
X141693257Y-100620153D01*
X141693145Y-100631374D01*
X141683904Y-100693536D01*
X141653030Y-100748567D01*
X141590950Y-100814669D01*
X141590106Y-100815478D01*
X141491410Y-100889220D01*
X141400779Y-100914045D01*
X141318905Y-100889761D01*
X141304705Y-100878993D01*
X141254568Y-100834371D01*
X141180506Y-100764243D01*
X141089181Y-100675327D01*
X140987257Y-100574337D01*
X140881398Y-100467989D01*
X140778266Y-100362999D01*
X140684526Y-100266083D01*
X140606841Y-100183956D01*
X140551873Y-100123334D01*
X140526288Y-100090933D01*
X140514454Y-100064807D01*
X140507512Y-99985726D01*
X140545074Y-99902225D01*
X140628943Y-99809355D01*
X140643503Y-99796239D01*
X140736703Y-99730402D01*
X140817321Y-99709734D01*
X140890232Y-99732807D01*
G37*
G36*
X141687558Y-98604866D02*
G01*
X141718789Y-98611395D01*
X141753607Y-98628035D01*
X141797254Y-98659091D01*
X141854972Y-98708869D01*
X141932006Y-98781673D01*
X142033597Y-98881809D01*
X142164988Y-99013581D01*
X142247459Y-99096817D01*
X142369217Y-99221868D01*
X142459637Y-99320197D01*
X142521607Y-99397215D01*
X142558019Y-99458335D01*
X142571761Y-99508970D01*
X142565723Y-99554532D01*
X142542794Y-99600433D01*
X142505864Y-99652086D01*
X142493610Y-99667166D01*
X142428032Y-99729855D01*
X142361546Y-99772486D01*
X142359793Y-99773243D01*
X142320544Y-99788628D01*
X142284346Y-99796296D01*
X142246987Y-99793089D01*
X142204257Y-99775851D01*
X142151945Y-99741425D01*
X142085840Y-99686652D01*
X142001731Y-99608377D01*
X141895408Y-99503442D01*
X141762659Y-99368690D01*
X141599273Y-99200964D01*
X141531816Y-99130777D01*
X141445505Y-99034550D01*
X141392479Y-98959869D01*
X141370610Y-98898723D01*
X141377775Y-98843101D01*
X141411847Y-98784993D01*
X141470701Y-98716389D01*
X141494777Y-98690798D01*
X141554604Y-98636435D01*
X141606403Y-98610576D01*
X141666209Y-98604005D01*
X141687558Y-98604866D01*
G37*
G36*
X141291164Y-99158697D02*
G01*
X141329683Y-99170285D01*
X141373861Y-99196253D01*
X141431134Y-99241901D01*
X141508941Y-99312531D01*
X141614717Y-99413442D01*
X141625099Y-99423461D01*
X141741383Y-99537095D01*
X141862375Y-99657489D01*
X141974355Y-99770886D01*
X142063601Y-99863529D01*
X142128114Y-99932979D01*
X142188908Y-100003968D01*
X142224567Y-100057102D01*
X142241363Y-100102228D01*
X142245568Y-100149194D01*
X142245198Y-100166039D01*
X142233961Y-100224689D01*
X142200483Y-100281127D01*
X142135925Y-100351675D01*
X142107634Y-100379334D01*
X142045546Y-100430842D01*
X141991345Y-100455189D01*
X141928078Y-100461317D01*
X141895419Y-100459687D01*
X141863943Y-100451968D01*
X141828504Y-100433930D01*
X141783881Y-100401343D01*
X141724854Y-100349978D01*
X141646200Y-100275604D01*
X141542698Y-100173992D01*
X141409127Y-100040912D01*
X141334932Y-99966559D01*
X141221323Y-99851812D01*
X141122219Y-99750621D01*
X141042906Y-99668433D01*
X140988668Y-99610697D01*
X140964789Y-99582859D01*
X140964203Y-99581899D01*
X140947819Y-99530331D01*
X140940814Y-99460337D01*
X140940822Y-99456512D01*
X140950540Y-99397154D01*
X140984140Y-99338604D01*
X141050071Y-99265821D01*
X141071912Y-99244362D01*
X141136582Y-99189458D01*
X141191704Y-99163020D01*
X141253756Y-99156179D01*
X141291164Y-99158697D01*
G37*
G36*
X139832948Y-100248731D02*
G01*
X139824117Y-100283783D01*
X139819709Y-100323618D01*
X139843553Y-100408801D01*
X139903838Y-100507210D01*
X139996357Y-100610861D01*
X140065552Y-100682472D01*
X140103777Y-100737440D01*
X140105553Y-100773837D01*
X140073160Y-100797200D01*
X140051750Y-100796998D01*
X139993836Y-100766300D01*
X139913690Y-100699490D01*
X139852112Y-100644605D01*
X139799333Y-100602903D01*
X139770731Y-100587033D01*
X139752028Y-100601124D01*
X139701436Y-100647128D01*
X139623461Y-100721185D01*
X139522257Y-100819269D01*
X139401972Y-100937354D01*
X139266758Y-101071415D01*
X139120765Y-101217426D01*
X138994199Y-101343699D01*
X138852392Y-101483136D01*
X138722770Y-101608440D01*
X138609926Y-101715268D01*
X138518455Y-101799281D01*
X138452948Y-101856139D01*
X138417998Y-101881502D01*
X138390202Y-101890111D01*
X138342418Y-101897546D01*
X138271629Y-101903233D01*
X138173305Y-101907301D01*
X138042916Y-101909879D01*
X137875930Y-101911095D01*
X137667816Y-101911077D01*
X137414046Y-101909953D01*
X136485390Y-101904499D01*
X136485390Y-101841752D01*
X136485390Y-101779005D01*
X137414046Y-101766456D01*
X137570615Y-101764154D01*
X137817486Y-101759503D01*
X138017530Y-101754168D01*
X138172920Y-101748056D01*
X138285830Y-101741072D01*
X138358432Y-101733123D01*
X138392900Y-101724115D01*
X138413217Y-101707592D01*
X138467093Y-101658088D01*
X138548301Y-101580660D01*
X138652383Y-101479638D01*
X138774885Y-101359354D01*
X138911351Y-101224138D01*
X139057326Y-101078321D01*
X139671555Y-100462318D01*
X139574128Y-100362545D01*
X139476702Y-100262771D01*
X139565601Y-100290055D01*
X139595205Y-100298212D01*
X139664474Y-100302531D01*
X139736597Y-100276384D01*
X139783753Y-100253313D01*
X139822674Y-100238843D01*
X139832948Y-100248731D01*
G37*
G36*
X144005314Y-95653193D02*
G01*
X144053385Y-95693740D01*
X144123103Y-95757561D01*
X144207176Y-95837460D01*
X144298315Y-95926246D01*
X144389230Y-96016722D01*
X144472632Y-96101697D01*
X144541230Y-96173977D01*
X144587735Y-96226367D01*
X144604856Y-96251674D01*
X144604852Y-96251852D01*
X144588405Y-96279576D01*
X144546160Y-96331964D01*
X144487132Y-96397822D01*
X144369409Y-96523678D01*
X146388309Y-98542695D01*
X146643026Y-98797128D01*
X146920803Y-99073865D01*
X147181354Y-99332650D01*
X147422870Y-99571712D01*
X147643538Y-99789282D01*
X147841549Y-99983588D01*
X148015093Y-100152859D01*
X148162359Y-100295324D01*
X148281537Y-100409213D01*
X148370816Y-100492754D01*
X148428386Y-100544178D01*
X148452437Y-100561713D01*
X148467911Y-100562227D01*
X148560239Y-100589559D01*
X148630158Y-100650028D01*
X148673521Y-100731874D01*
X148686181Y-100823339D01*
X148663992Y-100912663D01*
X148602805Y-100988087D01*
X148562111Y-101013386D01*
X148471686Y-101036092D01*
X148379772Y-101025400D01*
X148298768Y-100986075D01*
X148241073Y-100922885D01*
X148219085Y-100840594D01*
X148216681Y-100831143D01*
X148203263Y-100808082D01*
X148176540Y-100772780D01*
X148134794Y-100723462D01*
X148076303Y-100658352D01*
X147999349Y-100575673D01*
X147902210Y-100473652D01*
X147783167Y-100350511D01*
X147640500Y-100204475D01*
X147472489Y-100033769D01*
X147277413Y-99836617D01*
X147053553Y-99611243D01*
X146799188Y-99355871D01*
X146512599Y-99068726D01*
X146192065Y-98748032D01*
X144165045Y-96721127D01*
X143939970Y-96947250D01*
X143933945Y-96953295D01*
X143828419Y-97055670D01*
X143749618Y-97123767D01*
X143692362Y-97161648D01*
X143651470Y-97173373D01*
X143641201Y-97175173D01*
X143611335Y-97190387D01*
X143566464Y-97223275D01*
X143503742Y-97276463D01*
X143420326Y-97352581D01*
X143313373Y-97454254D01*
X143180036Y-97584111D01*
X143017474Y-97744780D01*
X142822840Y-97938887D01*
X142721919Y-98039653D01*
X142566344Y-98194195D01*
X142423689Y-98334938D01*
X142297697Y-98458247D01*
X142192109Y-98560484D01*
X142110667Y-98638013D01*
X142057113Y-98687197D01*
X142035189Y-98704400D01*
X142014554Y-98694369D01*
X141965861Y-98657927D01*
X141903826Y-98604005D01*
X141853679Y-98562260D01*
X141786912Y-98518802D01*
X141737877Y-98500832D01*
X141702572Y-98499709D01*
X141585665Y-98509075D01*
X141501755Y-98541991D01*
X141491458Y-98548429D01*
X141446485Y-98569628D01*
X141435625Y-98558917D01*
X141457425Y-98519130D01*
X141510432Y-98453103D01*
X141593191Y-98363669D01*
X141701496Y-98243836D01*
X141783302Y-98129976D01*
X141829476Y-98028709D01*
X141843987Y-97933226D01*
X141844162Y-97929074D01*
X141851583Y-97903152D01*
X141872298Y-97867613D01*
X141909558Y-97818840D01*
X141966611Y-97753215D01*
X142046706Y-97667120D01*
X142153093Y-97556937D01*
X142289022Y-97419048D01*
X142457740Y-97249835D01*
X142459621Y-97247956D01*
X142641352Y-97064842D01*
X142792453Y-96909472D01*
X142911716Y-96783151D01*
X142997931Y-96687187D01*
X143049891Y-96622886D01*
X143066387Y-96591556D01*
X143066470Y-96589998D01*
X143085953Y-96558261D01*
X143135032Y-96498164D01*
X143207951Y-96415637D01*
X143298955Y-96316614D01*
X143402288Y-96207025D01*
X143512195Y-96092803D01*
X143622921Y-95979879D01*
X143728709Y-95874185D01*
X143823805Y-95781653D01*
X143902453Y-95708214D01*
X143958897Y-95659801D01*
X143987382Y-95642345D01*
X144005314Y-95653193D01*
G37*
G36*
X139026739Y-96577273D02*
G01*
X139560615Y-97110626D01*
X139870912Y-97102541D01*
X139983103Y-97101352D01*
X140110791Y-97104284D01*
X140215617Y-97111423D01*
X140283956Y-97122124D01*
X140317161Y-97133073D01*
X140395152Y-97162092D01*
X140505079Y-97204792D01*
X140638856Y-97257878D01*
X140788397Y-97318056D01*
X140945616Y-97382032D01*
X141102426Y-97446512D01*
X141250741Y-97508200D01*
X141382475Y-97563802D01*
X141489542Y-97610024D01*
X141563854Y-97643572D01*
X141623147Y-97683584D01*
X141691884Y-97771770D01*
X141731036Y-97880046D01*
X141732693Y-97992080D01*
X141725549Y-98019295D01*
X141708819Y-98055422D01*
X141679512Y-98099550D01*
X141633727Y-98156180D01*
X141567564Y-98229813D01*
X141477122Y-98324948D01*
X141358503Y-98446088D01*
X141207804Y-98597730D01*
X141123856Y-98681762D01*
X140992405Y-98812543D01*
X140889210Y-98913430D01*
X140809762Y-98988263D01*
X140749551Y-99040880D01*
X140704069Y-99075121D01*
X140668806Y-99094825D01*
X140639253Y-99103832D01*
X140610901Y-99105981D01*
X140512709Y-99086578D01*
X140409641Y-99028357D01*
X140321771Y-98942612D01*
X140260608Y-98840803D01*
X140237662Y-98734388D01*
X140237772Y-98726676D01*
X140242649Y-98690864D01*
X140258421Y-98653015D01*
X140290109Y-98606539D01*
X140342732Y-98544847D01*
X140421310Y-98461347D01*
X140530862Y-98349449D01*
X140603494Y-98275310D01*
X140689728Y-98185470D01*
X140757140Y-98113052D01*
X140800161Y-98064070D01*
X140813224Y-98044536D01*
X140796398Y-98035912D01*
X140740783Y-98011387D01*
X140656244Y-97975746D01*
X140552189Y-97932790D01*
X140438027Y-97886319D01*
X140323166Y-97840133D01*
X140217016Y-97798031D01*
X140128986Y-97763814D01*
X140068483Y-97741282D01*
X140044917Y-97734234D01*
X140046263Y-97736216D01*
X140077138Y-97755949D01*
X140142407Y-97792801D01*
X140234241Y-97842431D01*
X140344814Y-97900501D01*
X140378973Y-97918237D01*
X140487339Y-97974811D01*
X140576436Y-98021796D01*
X140637818Y-98054715D01*
X140663037Y-98069094D01*
X140663254Y-98069404D01*
X140649092Y-98091749D01*
X140606166Y-98141949D01*
X140540847Y-98212859D01*
X140459510Y-98297331D01*
X140435771Y-98321563D01*
X140331223Y-98430357D01*
X140256989Y-98513370D01*
X140208029Y-98578058D01*
X140179299Y-98631878D01*
X140165759Y-98682285D01*
X140162366Y-98736734D01*
X140163137Y-98766992D01*
X140178878Y-98854328D01*
X140220923Y-98935203D01*
X140297146Y-99026552D01*
X140337643Y-99066679D01*
X140455070Y-99148930D01*
X140574085Y-99181440D01*
X140695487Y-99164152D01*
X140820074Y-99097010D01*
X140948647Y-98979955D01*
X140978404Y-98947739D01*
X141026602Y-98898191D01*
X141053347Y-98880013D01*
X141067351Y-98889287D01*
X141077324Y-98922099D01*
X141086198Y-98966549D01*
X141085969Y-98991577D01*
X141082276Y-98994126D01*
X141048973Y-99017134D01*
X140994670Y-99054661D01*
X140962736Y-99078705D01*
X140864191Y-99180360D01*
X140789724Y-99299715D01*
X140750918Y-99419437D01*
X140745405Y-99453436D01*
X140728760Y-99506314D01*
X140694313Y-99534531D01*
X140626332Y-99555233D01*
X140513097Y-99601051D01*
X140402280Y-99683568D01*
X140323962Y-99786639D01*
X140312248Y-99807910D01*
X140282913Y-99841359D01*
X140238083Y-99855823D01*
X140160475Y-99858946D01*
X140121538Y-99860479D01*
X140031664Y-99873574D01*
X139963319Y-99895693D01*
X139929018Y-99916916D01*
X139853556Y-99982513D01*
X139787826Y-100060897D01*
X139748791Y-100133284D01*
X139733209Y-100161926D01*
X139690584Y-100193255D01*
X139667667Y-100198866D01*
X139623113Y-100207418D01*
X139605532Y-100197070D01*
X139557037Y-100156210D01*
X139484843Y-100089711D01*
X139395178Y-100003341D01*
X139294272Y-99902869D01*
X139198069Y-99804218D01*
X139088853Y-99684897D01*
X139003342Y-99577102D01*
X138936200Y-99470660D01*
X138882091Y-99355400D01*
X138835681Y-99221150D01*
X138791633Y-99057738D01*
X138744612Y-98854993D01*
X138721973Y-98753623D01*
X138692379Y-98621996D01*
X138667284Y-98511412D01*
X138648809Y-98431195D01*
X138639072Y-98390665D01*
X138626726Y-98371608D01*
X138582209Y-98318662D01*
X138509456Y-98238243D01*
X138412681Y-98134838D01*
X138296097Y-98012936D01*
X138163916Y-97877024D01*
X138020352Y-97731590D01*
X137414945Y-97122713D01*
X137953904Y-96583317D01*
X138492862Y-96043921D01*
X139026739Y-96577273D01*
G37*
G36*
X148858329Y-99825873D02*
G01*
X148862732Y-99854160D01*
X148882462Y-99974124D01*
X148900449Y-100073329D01*
X148914862Y-100142137D01*
X148923871Y-100170909D01*
X148936482Y-100173302D01*
X148986155Y-100165321D01*
X149057000Y-100144686D01*
X149099376Y-100131577D01*
X149160496Y-100118355D01*
X149191248Y-100119976D01*
X149193502Y-100124753D01*
X149188023Y-100164112D01*
X149164789Y-100224045D01*
X149157378Y-100239917D01*
X149132631Y-100299037D01*
X149122643Y-100333684D01*
X149142171Y-100344337D01*
X149202241Y-100360283D01*
X149293148Y-100378560D01*
X149405004Y-100396951D01*
X149506102Y-100412383D01*
X149608115Y-100428852D01*
X149683370Y-100442031D01*
X149720403Y-100449990D01*
X149721810Y-100450803D01*
X149711766Y-100473093D01*
X149667911Y-100519711D01*
X149595723Y-100585306D01*
X149500683Y-100664527D01*
X149486119Y-100676270D01*
X149391895Y-100753093D01*
X149313483Y-100818444D01*
X149258703Y-100865726D01*
X149235376Y-100888340D01*
X149241994Y-100908340D01*
X149277997Y-100952433D01*
X149335852Y-101008133D01*
X149448877Y-101107622D01*
X149370469Y-101123304D01*
X149301597Y-101133915D01*
X149232450Y-101138985D01*
X149194307Y-101140448D01*
X149172889Y-101145260D01*
X149172924Y-101145502D01*
X149182618Y-101172405D01*
X149207050Y-101236235D01*
X149242676Y-101327813D01*
X149285951Y-101437962D01*
X149288672Y-101444869D01*
X149330537Y-101554738D01*
X149362900Y-101646282D01*
X149382605Y-101710116D01*
X149386496Y-101736858D01*
X149384813Y-101737453D01*
X149350499Y-101730541D01*
X149280310Y-101708677D01*
X149183358Y-101674863D01*
X149068754Y-101632103D01*
X149046330Y-101623520D01*
X148934945Y-101581748D01*
X148843485Y-101548855D01*
X148780890Y-101527979D01*
X148756099Y-101522262D01*
X148749063Y-101542167D01*
X148734161Y-101599164D01*
X148715591Y-101678955D01*
X148682467Y-101828266D01*
X148607644Y-101722600D01*
X148579024Y-101683622D01*
X148539691Y-101635443D01*
X148518045Y-101616399D01*
X148517953Y-101616400D01*
X148497262Y-101635315D01*
X148452570Y-101686215D01*
X148390396Y-101761413D01*
X148317255Y-101853224D01*
X148230857Y-101961642D01*
X148165890Y-102038111D01*
X148123558Y-102080125D01*
X148100533Y-102090967D01*
X148093490Y-102073916D01*
X148091223Y-102053781D01*
X148082605Y-101992731D01*
X148069263Y-101903203D01*
X148053021Y-101797097D01*
X148035705Y-101686310D01*
X148019142Y-101582738D01*
X148005157Y-101498281D01*
X147991536Y-101418347D01*
X147850204Y-101466972D01*
X147786053Y-101487750D01*
X147726357Y-101503872D01*
X147699811Y-101506536D01*
X147699999Y-101495062D01*
X147714106Y-101448369D01*
X147741101Y-101380006D01*
X147761740Y-101333127D01*
X147774371Y-101296277D01*
X147770165Y-101270851D01*
X147742603Y-101252816D01*
X147685167Y-101238137D01*
X147591338Y-101222782D01*
X147454597Y-101202716D01*
X147328677Y-101183361D01*
X147237234Y-101167155D01*
X147183859Y-101154011D01*
X147162480Y-101142411D01*
X147167027Y-101130838D01*
X147168557Y-101129629D01*
X147197699Y-101106333D01*
X147256885Y-101058914D01*
X147338490Y-100993482D01*
X147434893Y-100916147D01*
X147692301Y-100709603D01*
X147580811Y-100616834D01*
X147532975Y-100575652D01*
X147486375Y-100531699D01*
X147467721Y-100508474D01*
X147475807Y-100501644D01*
X147520536Y-100488488D01*
X147591615Y-100476236D01*
X147654361Y-100465434D01*
X147702937Y-100446099D01*
X147717109Y-100417579D01*
X147727509Y-100405230D01*
X147764506Y-100426820D01*
X147830317Y-100486675D01*
X147882642Y-100542234D01*
X147922376Y-100593973D01*
X147933987Y-100623669D01*
X147934505Y-100645132D01*
X147957950Y-100688219D01*
X147966686Y-100701479D01*
X147965975Y-100725190D01*
X147941866Y-100757669D01*
X147888597Y-100805799D01*
X147800411Y-100876460D01*
X147747811Y-100919052D01*
X147684298Y-100975746D01*
X147647590Y-101015959D01*
X147644416Y-101032943D01*
X147647412Y-101033520D01*
X147693677Y-101041838D01*
X147772168Y-101055514D01*
X147867702Y-101071900D01*
X147921889Y-101081693D01*
X148000685Y-101100485D01*
X148040705Y-101119707D01*
X148049548Y-101142300D01*
X148055404Y-101167341D01*
X148099746Y-101178639D01*
X148117546Y-101179143D01*
X148140215Y-101189703D01*
X148156426Y-101220903D01*
X148170256Y-101282485D01*
X148185784Y-101384189D01*
X148190324Y-101415777D01*
X148204675Y-101510469D01*
X148216709Y-101582629D01*
X148224198Y-101618652D01*
X148228235Y-101621349D01*
X148257904Y-101600155D01*
X148314404Y-101539345D01*
X148396600Y-101440198D01*
X148503358Y-101303993D01*
X148517487Y-101291545D01*
X148536823Y-101308402D01*
X148551458Y-101331722D01*
X148579474Y-101333889D01*
X148602277Y-101291731D01*
X148610100Y-101271531D01*
X148627221Y-101261971D01*
X148662426Y-101267079D01*
X148725148Y-101288365D01*
X148824819Y-101327337D01*
X148872071Y-101345553D01*
X148957128Y-101374830D01*
X149017500Y-101390736D01*
X149042420Y-101390161D01*
X149042757Y-101385335D01*
X149033100Y-101342748D01*
X149009565Y-101269752D01*
X148976083Y-101178863D01*
X148951982Y-101114869D01*
X148928093Y-101040182D01*
X148923581Y-101000234D01*
X148937086Y-100988392D01*
X148957569Y-100985130D01*
X148969858Y-100960215D01*
X148940886Y-100917071D01*
X148924703Y-100894628D01*
X148937092Y-100868128D01*
X148951898Y-100857933D01*
X149005298Y-100817328D01*
X149073066Y-100762665D01*
X149144469Y-100703002D01*
X149208771Y-100647395D01*
X149255241Y-100604901D01*
X149273142Y-100584578D01*
X149269004Y-100581068D01*
X149228722Y-100568983D01*
X149154712Y-100553744D01*
X149058299Y-100537818D01*
X148973185Y-100524033D01*
X148898489Y-100507298D01*
X148861937Y-100490382D01*
X148856721Y-100471030D01*
X148854112Y-100446394D01*
X148810326Y-100436219D01*
X148784092Y-100433734D01*
X148763553Y-100419410D01*
X148748515Y-100383733D01*
X148735168Y-100317206D01*
X148719703Y-100210329D01*
X148712220Y-100158856D01*
X148696688Y-100069346D01*
X148682433Y-100007513D01*
X148671803Y-99984440D01*
X148667043Y-99986797D01*
X148635806Y-100016753D01*
X148584969Y-100073907D01*
X148522854Y-100149061D01*
X148455333Y-100230242D01*
X148409587Y-100276013D01*
X148378563Y-100292049D01*
X148355208Y-100284031D01*
X148326718Y-100268576D01*
X148319481Y-100295102D01*
X148318011Y-100315020D01*
X148305363Y-100331723D01*
X148275428Y-100319289D01*
X148223015Y-100274780D01*
X148142931Y-100195261D01*
X148086982Y-100137588D01*
X148044817Y-100091157D01*
X148032355Y-100068929D01*
X148046529Y-100064406D01*
X148084268Y-100071092D01*
X148123278Y-100078021D01*
X148152741Y-100071977D01*
X148168456Y-100038693D01*
X148180833Y-99966940D01*
X148187263Y-99927550D01*
X148200994Y-99860563D01*
X148212495Y-99824281D01*
X148224106Y-99823257D01*
X148260716Y-99848762D01*
X148310315Y-99899578D01*
X148394515Y-99996989D01*
X148447044Y-99934242D01*
X148462411Y-99915777D01*
X148513021Y-99854474D01*
X148580138Y-99772792D01*
X148653464Y-99683254D01*
X148807354Y-99495013D01*
X148858329Y-99825873D01*
G37*
D14*
%TO.C,LS1*%
X127542400Y-85371800D02*
X127542400Y-87371800D01*
X127542400Y-92371800D02*
X127542400Y-94371800D01*
X127542400Y-94371800D02*
X136542400Y-94371800D01*
X136542400Y-85371800D02*
X127542400Y-85371800D01*
X136542400Y-87371800D02*
X136542400Y-85371800D01*
X136542400Y-94371800D02*
X136542400Y-92371800D01*
D10*
X137142400Y-93121800D02*
G75*
G02*
X136942400Y-93121800I-100000J0D01*
G01*
X136942400Y-93121800D02*
G75*
G02*
X137142400Y-93121800I100000J0D01*
G01*
%TD*%
M02*
